<?xml version="1.0" encoding="utf-8"?>
<!-- Generator: Adobe Illustrator 22.1.0, SVG Export Plug-In . SVG Version: 6.00 Build 0)  -->
<svg version="1.1" id="Card_2" xmlns="http://www.w3.org/2000/svg" xmlns:xlink="http://www.w3.org/1999/xlink" x="0px" y="0px"
	 viewBox="0 0 155.9 155.9" style="enable-background:new 0 0 155.9 155.9;" xml:space="preserve">
<style type="text/css">
	.st0{clip-path:url(#SVGID_2_);}
	.st1{fill:#E2B97C;}
	.st2{fill:#CCA065;}
	.st3{fill:#EDCDA4;}
	.st4{fill:#E6D3BA;}
	.st5{fill:#3A3228;}
	.st6{fill:#CF9B95;}
	.st7{fill:#26150C;}
	.st8{fill:#FFFFFF;}
	.st9{fill:#010202;}
	.st10{display:none;}
	.st11{display:inline;}
</style>
<g id="Colours_2">
	<defs>
		<path id="SVGID_1_" d="M145.1,39.5c-0.3,1.4-2.3-1.1-2.8-1.1c0.6,0.6,0.2,1.5-0.5,2.2c-0.7,0.6-2,0.4-2.8,0.2
			c-1.2-0.3-2.2-0.2-3.5-0.2c-1,0-2,0.2-3,0.2c-0.5,0-1.1,0.2-1.5,0.5l-0.1,0.3c0.1,0.7-0.2,1.4-0.1,2c0.1,1,0.2,1.6-0.2,2.5
			c-0.3,0.8-0.5,1.6-0.3,2.5c0.1,0.8,0.6,1.5,0.5,2.3c-0.1,0-0.3,0-0.4,0c0,0.9-0.8,2.4-0.5,3.3c1.2,3.6,0,5.6,0.2,9.2
			c0.1,2.5-1,4.4-2.1,6.5c-1.1,2.2-1.4,4.2-1.6,6.6c-0.2-0.3-0.4-0.6-0.5-1c0.1,1.6,0.2,2.3,0.6,3.9c0.5,1.8,0.1,3-0.2,4.8
			c-0.3,1.9,0.2,3.6-1,5.3c-1.1,1.6-1.5,3.6-2.6,5.1c-0.7,0.9-0.9,1.2-1.1,2.4c-0.2,1.1-0.6,2.2-1.2,3.1c0-0.6,0-1.3-0.1-1.9
			c-0.2,0.9-0.8,1.8-1.1,2.7c-0.3,1-0.2,2.1-0.5,3.1c-0.3,1.2-1.4,2-1.9,3c-0.4,0.7-0.2,1.4-0.4,2.1c-0.3,1.3-1,1.7-1.7,2.7
			c-0.8,1.1-0.8,2.2-1.4,3.4c-0.5,1.1-0.7,2.2-1,3.4c-0.1,0.5-0.9,2.4-1.4,4.2c0.3,2.6,0.8,4.3,2.7,5.7c1,0.8,3.3,1.8,4.2,2.8
			c0.8,0.9,1.3,1.8,0.2,3c-1.1,1.2-3.9,1.8-5,1.4c0.1,0.7-0.1,1.5-0.4,1.8c-1.2,1.1-3.5,2.3-5.7,2.5c-1.6,0.1-3.3-0.8-4.9-0.8
			c-2.3,0-4.8,1-6.6,0.6c-0.7-0.9-3.8-0.8-4.7-1.7c-1.3-0.9,0.5-3.6,0.5-4.8c0-0.9,0.4-1.7,0.4-2.6c0-0.9,0.2-1.6-0.1-2.4
			c-0.7-2.1-1.2-3.4-1.2-5.6c0-1.9,0.5-3.3,0.6-5.1c0.1-1.4,2.2-3.6,1.6-4.8c-0.2,0.3-0.4,0.6-0.5,1c-0.1-2,0.1-3.6,0.7-5.4
			c0.3-1.7-1.8-2.9-3-3.8c-1.4-1-2-2.6-2.1-4.4c-0.9,0.9-0.8,2.5-1,3.4c-0.8-1-1.9-1.1-2.7-0.9c-0.9,0.3-2.1,0.6-3,0.3
			c-1.2-0.3-2.1-0.5-3.3-0.7c-1.4-0.2-3.8-1.7-4.4-3c-0.4,0.5-1.2,0.7-1.8,1.2c-0.2,1.4,0.8,4.3,0.8,5.7c0.1,1.6,0.2,3.4-0.4,4.9
			c-0.6,1.9-0.9,2.2-1.7,4c-0.7,1.5-1.6,2.9-1.8,4.8c-0.1-1.1-0.5-1.2-0.8-1.4c-0.8-0.5-1.1,1.5-1.7,2c-0.6,0.4,0,1-0.9,1
			c-0.4,0-1-0.6-1.4-0.8c-0.3,0.4-0.5,0.7-0.7,1.1l0,0c0.4,0.8,1.3,2.3,1.9,2.8c0.9,0.7,2.2,0.5,3.3,1.1c1.4,0.9,6,3,3.5,5.3
			c-1.7,1.6-4.5,0.6-6.5,1c-1.2,0.3-2.1,0.5-3.3,0c-1.3-0.5-2.2-1.3-3.7-1.4c-2.6-0.2-4.6,0.7-7,1.4c-0.1-2.3-2.2-0.5-2.8-2.2
			c-0.4-1.1,1.2-3.1,1.3-4.4l-1,0.6c-0.6,0.4-0.1,1-0.6,1.4c-1.4,1.1-3.5,2.4-4.2,4.4c1.1,0.4,1.7,1.9,1.9,3.1
			c0.4,2.8-2,3.3-4.3,3.5c-2.4,0.2-4.8,0.9-7,1.8c-3,1.2-4.7-1.7-7.5-1.7c-2.2,0-5.7-0.1-4.7-3.7c0.3-2.3,0.6-1.2,1-3.2
			c0.5-2.3,0.6-3.7,0.4-6.1c-0.2-4.2,0.7-8,3.6-11.1c1.4-1.5,3.3-2.5,4.3-4.5c1-1.8,0.9-3.3,1.2-5.2c0.3-1.9,1.4-3.4,1.7-5.3
			c0.3-2.3,0.8-4.4,0.8-6.8c0-2.1-0.3-4.2-0.3-6.3c0-1,0.3-2,0.3-2.9c0,0-0.6-0.7-1.2-0.5c0.6-2.3,0.8-4.7,1.4-7
			c0.6-1.8,2-3.9,2.3-5.7c-2-0.1-5.7,0.8-7.3,0.5c-0.8-0.1-1.6-0.2-2.4-0.3c-0.6-0.1-1.7,0-2-0.6c0.3,0,0.3-0.1,0.4-0.3
			c-1.8-0.4-3.2-0.5-4.8-1.8c-1.3-1-2.6-2.5-3.4-3.9c0.3,0.2,0.6,0.4,1,0.3c-0.7-1.2-1.5-2.3-1.7-3.7c-0.3-2.1-0.7-4,0.1-6
			c0.4-1,1.6-3.7,4.1-5.1c0.1,0.2-0.1,0.4-0.4,0.5c2-1,5.1-1,6.7,0.6c-1.7-1.1-3.6-0.2-4.9,0.8c-3.2,2.6-3.7,6.3-1.8,10.3
			c0.8,1.8,2.9,3.3,4.4,4.5c0.9,0.7,1.9,1,3,1.4c1,0.4,1.3,0.2,2.5,0.3c1.8,0,3,0.2,4.9-0.6c2.2-1,4.7-1.9,6.6-3.4
			c3.3-2.5,6.2-3.8,11.9-4.4c3.4-0.3,8.8,0.2,10.9,0.3c3.8,0.2,7.7-0.5,11.4,0c3.3,0.5,6.3,0.1,9.4-1c0.8-0.3,4.5-1.2,5.4-1.4
			c1.6-0.3,4.3-2.4,5.2-2.6c1.8-0.4,2.3,0.3,3.1-1.5c1-2,2.2-1.7,3.6-2.9c2.9-2.4,3.6-5.8,4.9-9.2c0.6-1.5,1.9-1.8,1.8-3.6
			c0.7-1.6,1.7-4.5,2.1-6.2c0.4-1.6,1.1-3.2,2-4.6c0.8-1.3,2.4-2.2,3.7-3.1c1.2-0.8,2.8-1.4,4.2-2c1.4-0.6,2.8-0.3,4.4,0
			c1.3,0.2,2.7,0,3.9,0.5c1.3,0.5,2.4,1.3,3.7,1.7c2.4,0.6,5.1,0.2,7.5,0.8c1.3,0.3,2.7,0.7,4.1,0.9c1.5,0.3,2.2,0.7,1.4,2.4
			c-0.9,2-4.9,4.5-6.9,4.6c-1.4,0.1-2.6-0.3-4-0.1c-1.5,0.2-3.3,0.6-4.7,1.2c0.5,0,1.2,0.1,1.6,0.1c0.6,0,1.1,0.3,1.7,0.5
			c1.1,0.4,2,1.2,3,1.7c0.9,0.4,1.8,0.3,2.8,0.2c0.4,0,0.9,0,1.3,0.2c0.6,0.3,1,0.7,1.4,1.2c0.3,0.4,2,1.5,1.5,2.2"/>
	</defs>
	<clipPath id="SVGID_2_">
		<use xlink:href="#SVGID_1_"  style="overflow:visible;"/>
	</clipPath>
	<g id="Base" class="st0">
		
			<rect x="15.5" y="19.1" transform="matrix(-1 -4.490154e-11 4.490154e-11 -1 173.4478 163.38)" class="st1" width="142.4" height="125.1"/>
		<g>
			<path class="st2" d="M117.9,28c0.5,1-0.7,4.1-0.9,5.4c-0.5,2.9-0.8,5.8-1.2,8.7c-0.5,3.9-1.2,7.5-1.3,11.5c0,3.6,2.1,6.2,2.3,9.7
				c0.2,2.8-1.8,5.6-1.4,8.2c-1.1-1.2-1.1-3.6-2.5-4.5c-1.4-0.9-3-0.4-3.5-2.5c-0.5-2.1,0-2.4-1.7-4.1c-1.3-1.4-2.6-2.8-2.9-4.7
				c0.1,1.6-1,3.5-1.2,5.5c-0.2-0.6-0.4-2.3-0.9-2.8c-1.2-1-1.2,0.1-2,1c-1.4,1.6-4.1,2.1-6.1,2.8c-2.8,1-2.6-0.5-4.6,1.4
				c-1.6,1.5-3.9,3.2-4.5,5.4c0.1-0.9,0-3-0.4-4c-1,0.3-1.6,1.4-2.5,1.9c-0.9,0.5-1.6,0.7-2.6,1c0.5-2.3-0.1-1.5-0.2-3.9
				c-3.9,1-6.9,1-10.9,0.6c-2.3-0.2-4.8,1.2-6.9,0.8c-2.1-0.4-0.2-2.1-0.1-3.8c-1.4,0.4-2.9,1.7-4.6,1.5c-2-0.1-3.5-1.5-5.6-0.4
				c-0.8,0.5-1.4,1.3-2.2,1.8c-0.8,0.5-1.7,0.7-2.4,1.3c-0.7,0.7-0.6,1.8-1.5,2.5c-0.8,0.6-1.6,0.5-2.4,1c-1.5,0.9-1.7,2.1-3.6,2.1
				c-1.9-0.1-1.9-0.6-3.8,0.4c-5.3,2.6-12.4,1.3-17.2-1.7c-6.1-3.7-6.7-9.3-5.1-15.7c0.9-3.6,3.3-8,6.1-10.5c2.9-2.6,7-2,10.7-1.7
				c11.8,0.8,23.8,0.9,35.6-1.1c5.6-0.9,11.8-1.3,17-3.6c2.8-1.2,6-3.6,9.2-3.7c2.4-0.1,4.7,2,7.1,1.6c2-0.3,2.9-2.6,5.1-3.2
				C108.3,30.6,111.9,30.5,117.9,28z"/>
		</g>
		<g>
			<path class="st3" d="M51.5,81c1.8,1.2,5.1,4.9,6.3,23.9c1.6-12.9-4.1-24-2.1-23.5c2.3,0.6,1-0.3,2.7,1c1.2,0.9,2.6-0.6,3.6,0
				c0.7,0.4,0.5,2,0.6,2.6c0.3,1.2,1,2.1,1.9,2.8c1.8,1.6,3.9,2.5,4.8,4.8c0.5,1.1,1,2.4,2.3,2.7c0.9,0.2,1.5-0.3,2.4-0.1
				c1.4,0.3,2.2,1.7,3.5,2.2c1,0.4,1.8-0.1,2.7,0.1c1.2,0.3,1.4,1.7,2.4,2.1c1,0.5,0.9,0,1.6-0.6c1.8-1.6,2.2-2.8,2.8-5.1
				c0.2,1.4,0.8,2.8,1.7,3.9c0.9,1.1,2.2,2,2.7,3.4c0.3,0.9-0.1,2.6,0.8,3.2c2.2,1.5,2.4-2.9,2.2-3.9c-0.7-2.8-0.7-6.3,0.1-9.1
				c0.5-1.7,1.7-8.2,3.6-9.1c0.9-0.5,0.6-0.4,1,0.4c0.7,1.3-1.2,18.8,0.6,22c0.3-4.5,1-15.9,3.2-21.8c0.7-2,1.5-3.9,3-5.4
				c0.5-0.5,1.2,1.6,1.3,12.7c1.9-6.1,2.3-16.8,3-18c0.7-1.2,0.8-3.1,1.7-4.1c0.9,0.9,1.1,2.4,1.9,3.4c1.5,1.8,1.3-0.6,2.3-1.6
				c0.8-0.8,0.9-0.4,1.2,0.9c0.3,1,0.3,2.1,0.6,3.1c0.9-0.3,1.2-1.8,1.7-2.5c0.4,1,1.3,1.7,1.7,2.7c0.5,1.2,1.8,1.3,2.1,2.6
				c0,0,0-1.3,1.5-2.9c2.6,3.6,3.3,11.3,3.8,12.9c0.9,2.7-2.7,8.5-3,11.3c-0.3,2.7-0.5,4.7-1.5,7.2c-0.6,1.4-0.7,2.9-0.6,4.5
				c0.2,2.6,1.3,5.1,1.8,7.6c0.6,2.9,1.6,6.1,0.7,9c-1.1,3.5-0.6,6.6-0.7,10.2c0,2.3-0.3,4.7-2.6,5.8c-2,1-4.9,0.6-7.1,0.8
				c-4.9,0.3-9.8,0.6-14.7,0.8c-4.2,0.2-7.1-0.9-10-4.1c-2.1-2.3-3.3-4.7-4.2-7.7c-0.7-2.5-1-5.7-3.8-6.8c-1.7-0.7-2.7,0-3.5,1.5
				c-1.5,2.9-2.7,6.1-4.2,9.1c-1.3,2.6-3.3,5.1-5.7,6.8c-2.9,2.1-6.9,2.6-10.3,3.1c-6.9,1.1-13.8,0.2-20.7,0.9
				c-5.8,0.6-11.2,0.4-16.2-2.8c-2.9-1.9-6.3-4.8-7.2-8.3c-0.6-2.2-0.2-4.6,0.2-6.8c0.8-4.1,1.8-8.1,3-12.1
				c1.4-4.6,3.8-8.4,6.5-12.3c1.7-2.5,3.3-5.3,5.4-7.4c1.8-1.9,3.6-3.2,4.5-5.8c0.3-0.7,0.4-1.5,0.6-2.2c0.9-2.6,3-3.9,3-6.9
				c1.1,0.5,1.1,2.3,1.9,3.1c1-1.8,1.5-5.5,2.4-7c0,0.2-1,12.6,0.8,15.7c-0.3-7.1,0.9-19,1.2-18.6c5.5,6.6,4.9,11.8,4.9,25.6
				C51.6,88.8,50.7,80.5,51.5,81z"/>
		</g>
		<g>
			<path class="st1" d="M127.4,21.4c-0.2,1.1-1.4,1.7-1.7,2.9c-0.2,1.1,0.1,2,0.5,3c0.4,1,0.9,2,0.9,3.1c0,1-0.4,2-0.4,3
				c-0.1,1.9,0.5,3.8,0.4,5.7c0,1.1-0.5,1.9-0.5,3c-0.1,1,0.2,1.8,0.4,2.7c0.2,1,0.1,1.9,0.2,2.9c0.2,1.1,0.8,2.2,1.1,3.3
				c0.7,2.1,1,4.1,1.3,6.4c0.3,2.5,1.1,5.1,1,7.6c-0.1,3.4-2.5,18.5-5.6,9c-0.7,2.2,0,0-1,4.1c-0.7-1.2-1.7-2.2-2.7-3.4
				c-0.6-0.8-0.9-2.8-1.7-3.2c-0.6,0.6-0.7,1.6-0.7,2.5c-0.6-1.8-1.9-3.4-2.4-5.3c-0.5-1.8-0.6-3.6-1-5.4c-0.4-2-1.2-3.5-1.3-5.6
				c-0.1-2,0-3.9-0.4-5.9c-0.6-3.7-2-7.9-1-11.6c0.6-2.4,1-4.2,0.9-6.7c0-2.3,0.5-4,0.9-6.1c0.2-1.1,1.2-2,2.1-2.7
				c1.1-0.8,2.2-0.3,3.2-1.2c1.3-1.3,1.7-2.2,3.7-2.8c1.2-0.4,2.5-0.6,3.8-1C127.9,20.3,127.9,21.7,127.4,21.4z"/>
		</g>
		<g>
			<path class="st2" d="M111.3,108.2c0.8-1.9,1.8-4.2,2.4-6.3c0.7-2.5,0.9-5.1,1.5-7.6c0.5-2.4,0.5-5.1,0.7-7.5
				c0.1-1.3,0.1-6.5,0.4-7.7c0.4-1.5,1.5-2.2,2.1-3.6c0.3-0.9,0.8-2.9,1.5-3.4c0.5,1,0.7,3.3,1,7.1c0.1,1-1.7,2.4-1.9,3.4
				c-0.3,1.3,1.7,3.1,0.9,4.1c-0.6,0.8-1.2,2.7-1.5,3.7c-0.3,0.9-0.1,3.1-0.3,4c-0.3,1.1-0.4,2.3-0.8,3.3c-0.8,1.7-1,3.6-1.3,5.5
				c-0.3,2-1.6,3.5-2,5.4c-0.2,1-0.2,2-0.8,3c-0.6,0.9-1.6,1.5-2.1,2.5c-0.6,1-0.5,2.3-0.9,3.4c-0.4,1.1-0.3,3.5-0.6,4.6
				c-0.2,0.6-0.1,1-0.4,1.6c-0.3,0.6-0.8,0.9-1.1,1.5c-0.5,0.9-0.9,2.1-0.9,3.1c0-1.8,0.4-3.4,0.7-5.1c0.3-1.8-0.1-3.7,0.2-5.5
				c0.3-1.7,1.1-3.3,1.6-4.9c0.2-0.8,0.2-1.6,0.5-2.3C110.1,109.5,110.9,109,111.3,108.2z"/>
		</g>
		<g>
			<path class="st2" d="M71,100.8c0.6,1,0.5,2.3,0.6,3.4c0.2,1.3,0.7,2.5,0.9,3.7c0.2,1.4,0,2.5-0.6,3.7c-0.7,1.2-1,2.9-1.7,3.9
				c-0.3-1.8-1.1-3.3-1.3-5.1c-0.1-0.9,0.2-1.9,0-2.8c-0.2-0.9-1.2-1.8-1.8-2.6c-2.4,6.6-4-3.7-5-2c-0.6,1,1.1,6.1,0.8,7.1
				c-0.2,0.9-1,1.4-1.7,1.9c-0.8,0.5-1.5,1-2.2,1.7c-0.7,0.8-1,1.9-1.8,2.6c-1.4,1.1-2.9,4.1-3.3,6.1c-0.6-1.8,0.3-3.3,1.1-4.9
				c0.7-1.3,1.1-3.5,1.4-5c0.4-2,1.4-3.6,1.2-5.6c-0.2-1.7-0.1-3.5-0.2-5.2c-0.1-1.8-0.2-3.6-0.2-5.4c0.6-0.3,1.6-0.9,1.2-1.7
				c1.3,1,1.7,0,3.2,0.1c1.5,0.1,1.7,0.9,2.6,1.8c0.1-0.4,0.3-0.8,0.4-1.2c1.2,1.2,1.7,3.3,2.8,4.7c0.5,0.6,0.5,1.3,1.6,1.3
				C70,101.6,70.3,100.7,71,100.8z"/>
		</g>
		<g>
			<path class="st2" d="M96.3,90.4c0.5,1.2-0.3,3.4-0.1,4.8c0.1,1.6,0,3,0,4.6c0,1.7,0.9,3.3,0.8,5c-0.1,1.6,0.1,2.8,0.3,4.4
				c0.2,1.9-1.2,2.6-1.7,4.4c-0.4,1.5,0,2.6,0.1,4.1c0.1,1.8-1.4,2.9-1.3,4.8c0,0.8,0.4,1.6,0.4,2.4c0,1.1-0.3,0.7-0.9,1.5
				c-1.1,1.5,0.4,3.3,0.1,5.1c-0.4,2-2.8,3.1-3.1,5c-0.3-0.8,0.1-1.7,0.2-2.6c0.1-1.3-0.1-2.5-0.5-3.7c-0.6-1.7-1.5-3-2.3-4.6
				c-1.8-3.2-1.2-8.3-0.4-11.7c0.8-3.1,2.9-5.2,4.9-7.6c1.7-2.1,1.8-4.7,2-7.4C94.8,95.8,94.4,93,96.3,90.4z"/>
		</g>
		<g>
			<path class="st4" d="M123.1,32.1c0.4,1.3,0.7,2.9,1,4.3c0.2,0.7,0.2,1.3,0.5,2c0.3,0.7,1,1.2,1,2c0,0.3-0.5,0.4-0.5,0.9
				c0,0.5,0.4,0.9,0.7,1.2c0.4,0.7,0.7,1.3,0.9,2.1c0.4,1.4,0.8,2.9,1,4.3c0.6,3.2,3,5.9,3.1,9.2c0.1,3.2,0,6.6-0.8,9.7
				c-0.5,1.7-1.1,3.4-1.5,5.1c-0.4,1.6-0.1,3.5-1.2,4.9c-0.4-1.2-1.3-3.1-2.3-3.8c-0.8,1-1,1.9-1.2,3.1c-0.7-0.9-1.6-1.8-2.4-2.8
				c-0.8-1-1-1.8-1.5-2.9c-0.3,0.9-0.7,1.9-1,2.8c-0.6-2.9-2-4.2-2.6-7.2c-0.7-3.3-1.9-9.3-1.7-10.9c0.1-0.9,1.4-2.3,1.4-3.2
				c0-0.8,0.3-1.4,0.3-2.2c0.5,0.8,0.3,1.8,0.6,2.6c0.3,0.8,1,1.4,1.1,2.2c0.2-0.8,0.1-1.5,0.4-2.3c0.3-0.7,0.8-1.2,0.9-2
				c0.3-1.7,0.1-3.4,0.5-5.1c0.5,0.8,0.6,1.6,1,2.4c0.5,1,1.3,1.6,2,2.4c0.5,0.7,0.7,1.5,1.3,2.2c0.6,0.7,2.9,6.7,3.1,7.7
				c0.5-1.3-0.5-4.2-0.9-5.5c-0.8-2.2-1.4-3.6-1.8-5.9c-0.3-1.9-1.4-3.4-1.4-5.4c0-2,0.1-4,0.1-6C123.1,36.4,123.4,34.5,123.1,32.1z
				"/>
		</g>
		<g>
			<path class="st2" d="M35.4,76.5c0.1,1.1-0.3,2-0.1,3.1c0.2,1,0.9,2.1,1.4,3c1.2,2.5,0.9,4.3,0.9,6.9c0,2.3,0.6,4.6,0.7,6.9
				c0.1,1.4,0.1,2.8-0.2,4.1c-0.3,1.1-1,2.2-1,3.3c-0.3-0.7-0.6-1.3-1-2c-0.1,1.9,0.1,3.7-0.6,5.5c-0.4,1-1.1,1.8-1.5,2.8
				c-0.3,0.8-0.2,1.7-0.5,2.5c-0.5,1.3-1.7,1.8-2.6,2.8c-1,1-1.7,2.3-2.6,3.3c-0.7,0.8-1.5,1.5-1.8,2.6c-0.2,1,0.1,2-0.2,3
				c-0.2-0.7-0.3-1.4-0.5-2.1c-1.5,1.5,0.2,4.6,0.5,6.2c0.1,0.6,0.5,2.4,0.2,3c-0.3,0.7-1.5,0.9-1.9,1.8c-0.4,0.8-0.6,5.2-1.2,5.5
				c-1.8,0.9-3.4-6.8-3.6-7.8c-0.7-3.5-1.6-6.6-1.4-10.3c0.2-4.6,1.5-8.7,2.7-13.1c1.2-4.2,2.7-8.3,3.7-12.6c0.7-3.3,1.1-6.7,1.9-10
				C27.2,82.7,31.5,71.8,35.4,76.5z"/>
		</g>
		<g>
			<path class="st2" d="M35.6,75.9c0.1,1.1-0.3,2-0.1,3.1c0.2,1,0.9,2.1,1.4,3c1.2,2.5,0.9,4.3,0.9,6.9c0,2.3,0.6,4.6,0.7,6.9
				c0.1,1.4,0.1,2.8-0.2,4.1c-0.3,1.1-1,2.2-1,3.3c-0.3-0.7-0.6-1.3-1-2c-0.1,1.9,0.1,3.7-0.6,5.5c-0.4,1-1.1,1.8-1.5,2.8
				c-0.3,0.8-0.2,1.7-0.5,2.5c-0.5,1.3-1.7,1.8-2.6,2.8c-1,1-1.7,2.3-2.6,3.3c-0.7,0.8-1.5,1.5-1.8,2.6c-0.2,1,0.1,2-0.2,3
				c-0.2-0.7-0.3-1.4-0.5-2.1c-1.5,1.5,0.2,4.6,0.5,6.2c0.1,0.6,0.5,2.4,0.2,3c-0.3,0.7-1.5,0.9-1.9,1.8c-0.4,0.8-0.6,5.2-1.2,5.5
				c-1.8,0.9-3.4-6.8-3.6-7.8c-0.7-3.5-1.6-6.6-1.4-10.3c0.2-4.6,1.5-8.7,2.7-13.1c1.2-4.2,2.7-8.3,3.7-12.6c0.7-3.3,1.1-6.7,1.9-10
				C27.4,82,31.6,71.2,35.6,75.9z"/>
		</g>
		<g>
			<g>
				<path class="st2" d="M117.6,43.6c0.4,3.4,0,7.4-0.2,10.7c-0.1,1.6,0,3.2,0.4,4.7c0.7,2.6,2.9,4.1,2.8,7c0,0.2,0.2,0.2,0.3,0
					c0.8-2-0.5-4.2-0.9-6.2c-0.4-2.3-1.1-4.2-1.3-6.5c-0.2-2.4-0.6-4.8-0.6-7.2c0-0.8,0.1-2-0.4-2.7
					C117.8,43.4,117.6,43.5,117.6,43.6L117.6,43.6z"/>
			</g>
		</g>
		<g>
			<g>
				<path class="st2" d="M121.5,68.6c0.1,0,0.1-0.1,0-0.1C121.5,68.5,121.5,68.6,121.5,68.6L121.5,68.6z"/>
			</g>
		</g>
		<g>
			<path class="st2" d="M130.3,22.4c1-0.1,2.2,1.4,2.1,2.4c-0.1,0.5-0.4,0.4-0.5,0.7c-0.1,0.3,0.1,0.6-0.1,1c-0.2,0.6-1,0.9-1.6,1
				c-0.9,0.2-2.7-0.3-3.3-1.1c-0.8-1-0.6-2.3,0.2-3.3C127.8,22.1,129.6,22.1,130.3,22.4z"/>
		</g>
		<g>
			<g>
				<path class="st2" d="M113.1,135.9c-0.6,0.4-2.5,2-3.3,1.7c-0.4-0.2-0.9-0.1-1.1,0.3c-0.1-0.1-0.3-0.1-0.4-0.2
					c-0.6-0.5-1.4-0.1-1.5,0.6c-0.1,0.4-0.2,0.8-0.3,1.2c0.4-0.2,0.8-0.3,1.2-0.5c-1.4-0.7-2.9-1.6-4.4-1.7
					c-1.5-0.1-3.9,1.5-5.4,1.5c-3.3,0.1-6.4-2-9.9-2.1c-0.4,0-0.4,0.5-0.1,0.6c2.4,0.9,5.4,2.7,7.8,3.2c0.8,0.2,4.2,0,5.1-0.2
					c0.9-0.2,1.9-1.4,2.9-1.4c-0.7,0,5.2,2.6,3.2,1.5c0.5,0.3,1.1,0,1.2-0.5c0.3-0.8,0.3-0.8,0.4-1.7c-0.5,0.2-1,0.4-1.5,0.6
					c0.7,0.7,0.8,0.7,1.8,1c0.3,0.1,0.8,0,0.9-0.4c0.1-0.3,0.4-0.3,0.8,0c0.5,0.1,0.9-0.2,1-0.7c0,0.1,1.7-2.1,1.9-2.4
					C113.6,136,113.3,135.7,113.1,135.9L113.1,135.9z"/>
			</g>
		</g>
		<g>
			<g>
				<path class="st2" d="M118.2,132.1c-0.7,0.9-1.6,1.4-2.7,1.7c-0.9,0.3-1.9,0.3-2.8,0.8c-0.6,0.3-0.2,1.1,0.3,1.1
					c2.2,0.3,4.6-1.4,5.6-3.2C118.8,132.1,118.4,131.8,118.2,132.1L118.2,132.1z"/>
			</g>
		</g>
		<g>
			<g>
				<path class="st2" d="M73,129.5c-1.7,0.3-9.1,2.2-9.9-0.4c-0.3-0.7-1.3-0.4-1.1,0.3c0.4,2.4-2.1,0.5-3.8,0.4
					c-1.4-0.1-7,1.5-7-0.6c0-0.3-0.4-0.7-0.7-0.5c-1,0.4-2,0.5-3,0.4c-0.7,0-0.7,1,0,1c3,0.1,1.6,0.5,3.7,1.5
					c3.3,1.6,7-2.5,10.6,0.6c0.2,0.2,0.6,0.2,0.8,0c1.1-1.3,0.7-0.9,0.5-3c-0.4,0-0.8,0-1.2,0c0.5,5.2,8.5,2.3,11.4,0.8
					C73.5,130,73.3,129.5,73,129.5L73,129.5z"/>
			</g>
		</g>
		<g>
			<g>
				<path class="st2" d="M45.2,135.3c-0.6,0.5-8.8,3.3-8.8,2.3c0-0.3-0.2-0.5-0.4-0.6c-0.2-0.1-0.4-0.1-0.6,0
					c-2.8,0.9,1.1,1.8-4.2,0.9c-2.5-0.4-4.7-0.5-7.3-0.1c-0.2,0-0.2,0.4,0,0.5c2.6,0.6,5.1,0.6,7.7,1.2c0.9,0.2,1.4,0.7,2.4,0.3
					c0.5-0.2,1.6-1.7,1.4-1.7c0,0-0.3,0.5,0.2,0.7c1.9,0.5,2.8,0.2,4.9-0.6c1.8-0.7,4.1-1,5.3-2.6C46.1,135.4,45.5,135,45.2,135.3
					L45.2,135.3z"/>
			</g>
		</g>
	</g>
	<g id="Details" class="st0">
		<g>
			<path class="st5" d="M140.9,23.2c0.2,0.5-1.9,2.3-2.4,2.6c-0.8,0.5-1.8,0.6-2.7,0.8c-2.3,0.5-3.5,3.1-5.7,3.3
				c-0.8,0.1-2.3-0.3-2.8,0.4c-0.7,1,0.3,1.6,0.8,2.4c0.5,0.8,0.2,1.8,0.2,2.7c0,1,0.4,1.9,0.9,2.8c1.1,1.8-0.2,3.3,0.4,5.2
				c0.1,0.3,0.7,2.2,1.1,2.3c0.5,0.1,0.3-1.9,0.5-2.3c0.8-1.3,1.1-0.7,2.5-1.1c1.5-0.4,3-0.3,4.5-0.3c1.2,0,2.3-0.2,3.5-0.1
				c1.4,0.1,2.5,0.2,3.8-0.6c2.1-1.2,3-3.5,3.8-5.7c0.4-1.2,1.1-2.2,1.5-3.4c0.4-1.3,0.5-2.5,0.5-3.9c0-2.5-0.6-4.6-2.6-6.1
				c-2.3-1.7-5.7-1.9-7.5,0.4C140.7,22.9,140.4,23.2,140.9,23.2z"/>
		</g>
		<g>
			<path class="st6" d="M132,33.5c0.2,0,0.4,0.1,0.5,0.1c0.2,0,0.5,0,0.7,0c0.7,0.1,1.3,0.1,2,0.2c1,0.1,2.1,0.2,3.1,0.3
				c1.7,0.2,3.3,0.6,4.9,1.1c0.8,0.3,1.7,0.6,2.3,1.2c0.6,0.6,1,1.3,1.4,2c0.3,0.8,0.3,1.9-0.5,2.5c-1.1,0.9-2.5-0.6-3.1-1.4
				c-0.2-0.2-0.2-0.5-0.4-0.7c-0.1-0.2-0.3-0.3-0.5-0.5c-0.2-0.2-0.2-0.3-0.4-0.3c-0.2,0-0.3-0.1-0.5-0.1c-0.4-0.1-0.7,0-1.1,0
				c-0.2,0-0.4-0.1-0.7-0.1c-0.2,0-0.4,0-0.7-0.1c-0.5-0.1-1-0.2-1.5-0.2c-0.5-0.1-1.1,0-1.7,0.1c-1.1,0.1-2.2-0.2-3.2-0.5
				c-0.5-0.1-1-0.4-1.4-0.6c-0.4-0.3-1-0.7-1.2-1.1c-0.2-0.4-0.4-1,0-1.3c0.2-0.2,0.5-0.3,0.8-0.4c0.2-0.1,0.5-0.2,0.7-0.3
				C131.8,33.4,132,33.4,132,33.5z"/>
		</g>
		<ellipse class="st7" cx="129.1" cy="24.7" rx="1" ry="1.2"/>
		<g>
			<path class="st8" d="M141.6,38.4c0.1-0.4,0-0.8-0.2-1.1c-0.1-0.3-0.2-0.9-0.5-0.3c-0.2,0.3-0.4,0.9-0.4,1.1"/>
		</g>
		<g>
			<path class="st8" d="M134.2,37.3c0-0.4-0.2-1.8-0.6-1.8c-0.3,0-0.5,1.1-0.8,1.6"/>
		</g>
		<g>
			<path class="st8" d="M132.2,36.9c0-0.5,0-1.3-0.3-1.7c-0.2-0.3-0.3,0.1-0.5,0.3c-0.2,0.2-0.4,0.4-0.6,0.7"/>
		</g>
	</g>
</g>
<g id="Outlines_2">
	<path class="st9" d="M142.1,38.7c-3.2-1.5-8.6,0.1-11.4-2c-0.7-0.5-1.3-1.1-1.1-2.1c0.2-1,1.8-1.5,2.5-1.8c3.9-1.5,8,0.2,11.6-1.9
		c0.9-0.6,3.7-3.5,2.2-5.1c-0.3-0.3-2.2-0.5-2.7-0.6c-2.6-0.5-4.6-0.3-7.1-0.6c-1.7-0.2-3-0.8-4.5-1.5c-3.3-1.5-7-2-10.6-0.8
		c-5.9,1.8-7.6,7.7-9.2,12.9c-1.1,3.4-2.8,6.3-4.1,9.6c-0.8,2.2-1.9,4.5-3.8,6c-1.7,1.3-3.2,3.2-5.1,4.1c-1.6,0.8-3,1-4.6,1.9
		c-1,0.6-3.5,1-4.3,1.3c-2.6,1.1-5.4,1.4-8.4,1.8c-4.1,0.5-8.4,1.1-12.5,0.6C65,60,60,59.8,55.8,59.9c-9,0.2-12.4,6-20.5,8.2
		C29,69.9,21.7,66,20,59.5c-1.2-4.8,2.4-11.4,8-9.3c0.2,0.1,0.1,0.5-0.1,0.4c-2.1-0.8-5.4,1.4-6.3,3.1c-0.8,1.5-1,3.3-0.8,4.9
		c0.6,3.8,4.3,7.5,8,8.4c4.8,1.1,10.1-1.3,14-4c5-3.4,9.3-4.4,15.5-4.3c8,0.1,16.8,1.8,24.6,0.3c5-0.9,9-2.6,13.7-4.6
		c1.8-0.8,3.1-1.8,4.6-3.2c2.1-2,4-3.1,5.2-5.8c0.7-1.6,1.2-3.2,2-4.8c2.2-4.7,2.9-11.5,6.7-15.3c3.8-3.7,9.2-4.8,14.2-3.9
		c1.4,0.2,2.5,0.8,3.9,1.3c2.2,0.8,4.4,0.9,6.8,1.3c1.5,0.2,6.7,0.4,7.7,1.8c2.1,2.8-3.9,6-5.7,6.6c-1.3,0.4-2.3,0.2-3.6,0.3
		c-1.1,0.1-2.2,0.1-3.3,0.3c-1.7,0.4-3.8,0.7-4.5,1.5c-0.5,0.6-0.3,1.2,1,2c2,1.3,4.6,0.7,7.4,1.2C140.1,37.8,141.1,38.1,142.1,38.7
		C142.2,38.6,142.1,38.7,142.1,38.7L142.1,38.7z"/>
	<path class="st9" d="M18.4,63.6c-1.9-1.4-2-6.7-1.3-8.8c0.8-2.3,2.5-4.3,4.5-5.6c0.1-0.1,0.3,0,0.3,0.1c0.7-0.3,1.2-0.5,1.9-0.6
		c1.6-0.1,3.2,0.4,4.3,1.5c0.1,0.1,0,0.4-0.2,0.3c-1.8-1.3-4.5-1.4-6.6-0.5c0,0-0.3,0-0.1-0.1c-1.3,0.6-2.9,3.3-3.4,5
		c-0.9,3.2,0.1,6.4,1.6,9.1c0.1,0.3-0.1,0.5-0.4,0.5c0,0-0.1,0-0.1,0c1.8,2.6,4.4,4.2,7.5,4.8c0.3,0.1,0.3,0.4,0.1,0.6
		c-0.6,0.7,1.2,0.2,1.8,0.2c1,0.1,2,0.3,3,0.2c2.1-0.1,4.1-0.4,6.2-0.4c0.5,0,0.5,0.8,0,0.8c-2.4,0-4.7,0.9-7,0.7
		c-1.5-0.1-3.8-0.2-4.9-1.3c-0.1-0.1-0.1-0.2-0.1-0.4c-1.5-0.3-2.9-0.5-4.2-1.6C20,67.1,18.9,65.6,18,64
		C17.9,63.8,18.2,63.5,18.4,63.6z"/>
	<g>
		<g>
			<path class="st9" d="M37.4,70.4c-0.6,2-1.7,3.6-2.4,5.5c-0.8,2.2-1,4.7-1.4,7c0,0.2,0.1,0.4,0.3,0.4c1.3,0,0.6,3.1,0.6,3.9
				c0,1.3,0.1,2.7,0.1,4c0,2.8-0.3,5.7-0.9,8.4c-0.5,2.3-1.5,4.2-1.8,6.6c-0.5,3.4-2.1,4.8-4.5,7c-3,2.8-4.4,6.6-4.5,10.6
				c0,2.6,0.3,5-0.3,7.6c-0.4,1.8-1,3.3-1,5.3c0,0.1,0.1,0.1,0.1,0c0.4-2.6,1.4-4.9,1.8-7.5c0.5-3.2-0.2-6.5,0.8-9.7
				c1.1-3.5,3.5-5.2,5.9-7.8c2.1-2.2,2-4.6,2.7-7.4c0.4-1.5,1.2-2.9,1.5-4.5c0.3-1.5,0.5-3.2,0.7-4.7c0.3-3.5-0.5-6.9-0.1-10.3
				c0.1-0.9,0.1-1.2-0.1-1.8c-0.1-0.2-0.5-0.2-0.6-0.4c-0.3-0.6,0.2-1.6,0.3-2.3c0.3-1.7,0.5-3.4,1.1-5.1c0.6-1.7,1.5-3.2,1.8-4.9
				C37.9,70.2,37.5,70.1,37.4,70.4L37.4,70.4z"/>
		</g>
	</g>
	<g>
		<g>
			<path class="st9" d="M55.5,84c1.3,7.7,1.9,15.2,2.1,23c0.1,2.1-0.3,3.4-1.3,5.2c-0.6,1-1.1,1.9-1.5,3.1c-0.9,2.9-1.9,5.9-2.1,8.9
				c0.2-0.1,0.5-0.1,0.7-0.2c-0.3-0.5-0.9-0.6-1.2-1c-0.1-0.2-0.5-0.2-0.6,0c-0.1,0.3-0.3,0.8-0.5,1.1c-1.2,1.8-1.2,1-2.4,1.6
				c-0.6,0.3-0.4,0.3-0.8,0.9c-1.4,1.8-3.6,3-4.5,5.3c-0.2,0.4,0.5,0.6,0.6,0.3c0.8-1.8,2.2-2.6,3.6-3.9c0.6-0.5,0.7-1,1.1-1.5
				c0.6-0.6,1.4-0.5,2.1-1c0.8-0.6,0.9-1.5,1.4-2.4c-0.2,0-0.4,0-0.6,0c0.3,0.5,0.8,0.6,1.1,1.1c0.2,0.3,0.7,0.2,0.7-0.2
				c0.3-3.4,1.4-7.7,3.2-10.6c1.6-2.8,2-4.6,1.9-7.8c-0.2-7.1-0.2-15.1-3-21.7C55.6,83.8,55.5,83.9,55.5,84L55.5,84z"/>
		</g>
	</g>
	<g>
		<g>
			<path class="st9" d="M40.9,129.7c0.6,1,1.2,1.4,2.1,2c1.6,1,3.6,3.9,1.2,5.4c-1.1,0.7-2.6,0.6-3.9,0.8c-1.7,0.2-3.3,0.7-4.8,1.3
				c-1.8,0.7-3.1,0.9-5,0c-0.9-0.4-1.7-0.9-2.6-1.1c-2.6-0.5-5.7,0.5-5.7-3.4c0-0.1-0.2-0.2-0.2-0.1c-1,2.4,0.5,3.8,2.8,4.1
				c0.8,0.1,1.7,0.1,2.6,0.2c1.2,0.2,2.1,0.8,3.1,1.3c1.5,0.7,2.8,0.7,4.4,0.2c2.6-0.9,5-1.3,7.6-1.7c1.1-0.2,2.4-0.5,3.1-1.6
				c0.7-1.1,0.5-2.6,0-3.7c-1-2.2-3.2-2-4.5-4C41,129.5,40.8,129.6,40.9,129.7L40.9,129.7z"/>
		</g>
	</g>
	<g>
		<g>
			<path class="st9" d="M92.7,108.4c0.1-1.1-0.4-1.8-1.1-2.6c-1.7-1.8-3.3-2.9-3.5-5.6c0-0.5-0.6-0.7-0.9-0.3
				c-0.8,1.1-0.8,2.3-0.9,3.6c0.2-0.1,0.5-0.2,0.7-0.3c-1.6-1.5-2.6-0.8-4.6-0.6c-2.8,0.2-7.3-0.9-8.8-3.5c-0.1-0.2-0.4-0.2-0.6-0.1
				c-1,0.7-2.1,1.2-3.1,1.8c-0.9,0.5-0.7,1-1.8-0.5c-1.2-1.7-1.8-3.7-2.8-5.4c-0.1-0.2-0.4-0.2-0.5,0.1c-0.4,1.5-0.3,1.2-0.9,0.7
				c-0.7-0.5-1-1-1.9-1.2c-1.1-0.2-2.1,0.2-2.4,1.3c0,0.1,0.1,0.1,0.1,0.1c1.3-2.1,3.8-0.3,4.4,1.2c0.1,0.2,0.4,0.1,0.5-0.1
				c0,0,0.6-1.3,0.6-1.3c0.1,0,0.9,2,1.1,2.4c0.7,1.7,1.5,3.3,2.9,4.5c0.2,0.1,0.5,0.2,0.6-0.1c0.2-0.5,2.7-2.7,3.4-2.5
				c0.3,0.1,1.1,1.1,1.4,1.3c0.5,0.4,1,0.6,1.5,0.9c1.3,0.6,2.9,0.8,4.3,1.1c1.8,0.4,4.5-0.9,6,0.6c0.3,0.3,0.7,0,0.7-0.3
				c0.1-1.1,0.2-2.1,0.9-3c-0.3-0.1-0.6-0.2-0.9-0.4c0.2,1.3,0.4,2.6,1.3,3.7c1.3,1.6,4,2,4.1,4.5C92.5,108.5,92.7,108.5,92.7,108.4
				L92.7,108.4z"/>
		</g>
	</g>
	<g>
		<g>
			<path class="st9" d="M71.2,100.4c-0.2,3.4,1.1,6.7,0.3,10.1c-0.8,3.2-3.1,5.9-3.6,9.2c0.2,0,0.5,0,0.7,0c-0.1-0.8-0.7-2-1.7-1.7
				c-1.6,0.4-0.8,3.9-3.3,2.3c-0.1-0.1-0.3,0-0.4,0.1c-1,1.3-1.4,2.4-1.7,4c-0.1,0.3,0.4,0.5,0.5,0.1c0.2-0.7,0.6-1.9,1.1-2.6
				c0.7-1.1,0.3-0.6,1.2-0.6c0.6,0,0.5,0.4,1.1,0c0.4-0.2,2.1-4.5,2.5-1.6c0.1,0.4,0.6,0.3,0.7,0c0.6-3.5,3.3-6.3,3.9-9.9
				c0.2-1.4,0.2-3,0-4.4c-0.2-1.7-1.1-3.4-1.1-5.1C71.5,100.3,71.2,100.3,71.2,100.4L71.2,100.4z"/>
		</g>
	</g>
	<g>
		<g>
			<path class="st9" d="M62.6,121.7c0.5,1.2,1.1,2.5,2.2,3.2c1.4,0.9,3.1,1.1,4.6,2.1c1.1,0.7,3.4,2.2,1.5,3.8
				c-0.6,0.5-1.7,0.7-2.4,0.8c-1.8,0.3-3.7,0.4-5.4,0.2c-1.8-0.2-3.2-1.4-5-1.6c-0.9-0.1-1.7,0-2.6,0.1c-0.9,0.1-3,1.2-3.8,1
				c-0.5-0.2-1-0.7-1.6-1.1c-0.9-0.5-0.3,0.5-1.2-0.7c-0.7-1-0.2-1.2,0.2-2.3c0.2-0.6,0.4-1.1,0.4-1.8c0-0.2-0.3-0.2-0.3,0
				c-0.4,1.2-2,3.2-1.4,4.6c0.5,1.4,2.6,0.6,2.8,2.1c0,0.2,0.3,0.3,0.5,0.3c2.7-0.8,5.4-1.9,8.3-0.9c1.3,0.5,2.2,1.1,3.7,1.2
				c2.4,0.2,5.9,0.3,8-0.9c1.9-1.1,1.8-2.9,0.3-4.3c-0.9-0.9-2.2-1.6-3.3-2.1c-0.7-0.3-1.4-0.4-2.1-0.6c-1.6-0.5-2.3-1.8-3.1-3.1
				C62.8,121.5,62.6,121.5,62.6,121.7L62.6,121.7z"/>
		</g>
	</g>
	<g>
		<g>
			<path class="st9" d="M126.5,22.6c-1,1.3-1,2.4-0.5,4c0.4,1.2,1.1,2.3,1,3.6c0,1.2-0.5,2.4-0.6,3.6c-0.1,0.9,0.1,1.7,0.2,2.6
				c0.3,1.9,0.2,3-0.1,4.9c-0.4,2.1,0.5,3.6,0.9,5.6c0.4,1.9,0.3,3.6,1,5.5c1.2,3.1,1.5,5.8,1.3,9.2c-0.1,1.6,0.1,3.1-0.3,4.7
				c-0.4,1.3-1.1,2.5-1.7,3.8c-1,2.2-1.4,4.4-1.6,6.7c0.2,0,0.4-0.1,0.5-0.1c-0.5-0.8-0.8-1.7-1.2-2.6c-0.1-0.2-0.4-0.3-0.5-0.1
				c-0.6,1.2-1.1,2.3-1.2,3.6c0.2,0,0.3-0.1,0.5-0.1c-0.5-0.9-1.1-1.6-1.8-2.3c-1.3-1.2-1.8-2.4-2.5-4.1c-0.1-0.2-0.4-0.2-0.4,0.1
				c0,0.2-0.4,2.7-0.5,2.6c0,0-0.7-2.5-0.8-2.7c-0.4-1-0.9-2-1.2-3c-0.4-1.3-0.3-2.7-0.6-4c-0.4-2.2-1.6-3.8-1.4-6.1
				c0.2-1.8,0.3-3.4-0.2-5.2c-0.6-2-1.3-3.7-1.1-5.9c0.1-2.5-0.9-5,0.1-7.4c0.8-1.9,1-3.3,0.9-5.3c-0.1-2.8,0.4-4.7,2-6.9
				c0.2-0.3-0.2-0.5-0.4-0.3c-0.9,1.2-1.8,2.5-2,4c-0.5,2.8,0.5,5.4-0.9,8.2c-0.9,1.7-0.9,2.5-0.8,4.4c0.1,2.1-0.5,4.2,0,6.3
				c0.5,2.1,1.7,3.9,1.7,6.1c0,1.8-0.3,3.3,0.3,5.1c0.5,1.3,1.1,2.4,1.3,3.8c0.2,1,0.3,2,0.6,3c0.8,2.3,2.1,4.2,2.2,6.7
				c0,0.2,0.3,0.3,0.3,0.1c0.3-0.8,0.4-1.7,0.8-2.4c0.2-0.5-0.2-0.5,0.1,0c0.2,0.3,0.2,0.7,0.3,1c0.8,1.8,2.7,2.8,3.6,4.5
				c0.1,0.3,0.5,0.1,0.5-0.1c0-0.6,0.2-3.2,1.1-2.4c0.4,0.3,0.6,1.3,0.8,1.7c0.1,0.3,0.5,0.1,0.5-0.1c0.3-3.3,1.3-5.6,2.6-8.5
				c0.8-1.9,1-3.4,1.1-5.4c0-2.3,0.5-4.6,0.3-6.9c-0.3-2.4-1.7-4.4-2-6.9c-0.2-2-1.2-3.9-1.4-5.9c-0.2-2.1,0.7-4,0.3-6.2
				c-0.3-1.6-0.4-3-0.1-4.6c0.1-0.8,0.4-1.6,0.3-2.4c-0.2-2.6-2.9-4.6-1.1-7.2C126.7,22.6,126.6,22.5,126.5,22.6L126.5,22.6z"/>
		</g>
	</g>
	<g>
		<g>
			<path class="st9" d="M130.8,41.6c-0.1,1.8-0.5,3.5-0.8,5.2c-0.1,0.5,0.2,4,0.3,3.9c-0.1,0-0.1,0.1-0.1,0.2c0,0.9-0.4,1.7-0.4,2.6
				c0,0.4,0.6,0.3,0.5-0.1c-0.3-0.9-0.1-1.7,0.4-2.3c0.1,0,0.2-0.1,0.2-0.2c0-0.7-0.2-1.1-0.3-1.8c-0.3-1.3,0.3-2.3,0.4-3.6
				c0.2-1.3,0-2.6-0.1-3.9C131,41.5,130.8,41.5,130.8,41.6L130.8,41.6z"/>
		</g>
	</g>
	<g>
		<g>
			<path class="st9" d="M125.9,75.4c0.1,2.4,0.7,4.9,0.4,7.2c-0.3,2.2-0.2,4.8-1.3,6.8c-1,1.9-1.9,3.8-3.1,5.6c-1,1.5-1,3.4-1.9,5
				c0.3,0.1,0.5,0.1,0.8,0.2c-0.1-0.6-0.1-1.3-0.2-1.9c0-0.3-0.5-0.4-0.6-0.1c-0.4,1.2-1,2.3-1.3,3.6c-0.4,1.8-0.2,2.3-1.3,4
				c-0.3,0.4-0.7,0.8-0.9,1.2c-0.7,1.4-0.5,2.5-1.5,3.9c-0.7,0.9-1.1,1.6-1.5,2.7c-0.8,2.3-1.5,4.6-2.2,6.9
				c-0.5,1.6-1.3,3.8-0.7,5.5c0.1,0.2,0.3,0.2,0.3,0c-0.2-2.1,0.8-4.2,1.6-6.1c0.9-2.4,1.2-5.3,2.7-7.5c0.5-0.8,1.2-1.3,1.5-2.2
				c0.4-1,0-0.6,0.3-1.5c0.3-1.2,0.8-2,1.4-3c0.5-0.7,0.7-1.3,0.8-2.2c0.2-1.4,0.3-2.3,0.9-3.6c0.2-0.5,0.4-0.9,0.6-1.4
				c-0.2,0-0.4-0.1-0.6-0.1c0,0.6,0,1.3-0.1,1.9c0,0.4,0.5,0.5,0.8,0.2c1.1-1.7,1.2-3.7,2.3-5.4c1.2-1.8,2.2-4,3-6
				c0.8-1.9,0.6-4.3,0.8-6.3c0.3-2.5-0.4-4.9-0.7-7.4C126.1,75.2,125.9,75.2,125.9,75.4L125.9,75.4z"/>
		</g>
	</g>
	<g>
		<g>
			<path class="st9" d="M115.9,80.2c-0.2,2.9-0.4,5.7-0.6,8.6c-0.1,1.3,0.1,2.6,0,3.9c-0.1,1.5-0.7,2.8-1,4.2
				c-0.5,2.6-0.6,5.1-1.8,7.5c-0.5,0.9-1.1,1.7-1.6,2.6c-0.5,1.1-0.6,2.4-0.9,3.5c0.3,0,0.6,0.1,0.9,0.1c-0.1-0.9-0.1-0.8-0.3-1.7
				c-0.1-0.3-0.5-0.2-0.5,0c-0.6,1.9-1.4,3.4-1.7,5.3c-0.3,1.9-1.4,3.7-1.4,5.6c0,1.3,0.2,2.4,0,3.7c-0.2,0.8-0.4,1.6-0.5,2.4
				c-0.3,2,0.9,4.3,0.3,6.2c0,0.1,0.1,0.1,0.1,0c0.6-1.1,0.5-2.2,0.4-3.4c-0.2-2.5,0.7-4.7,0.6-7.1c-0.1-1.4-0.2-2.5,0.2-3.8
				c0.2-0.7,0.7-1.2,0.8-1.9c0.3-1.3,0.1-2.6,0.5-4c0.4-1,0.9-1.9,1.3-2.9c-0.2,0-0.4,0-0.6-0.1c0.1,0.5,0.1,1.1,0,1.6
				c-0.1,0.5,0.7,0.6,0.9,0.1c0.4-1.4,0.6-2.8,1.3-4.1c0.5-0.9,1.1-1.6,1.5-2.6c1-2.6,0.9-5.1,1.4-7.7c0.5-2.4,0.7-4.3,0.7-6.7
				C115.8,86.5,116.1,83.3,115.9,80.2C116,80.1,115.9,80.1,115.9,80.2L115.9,80.2z"/>
		</g>
	</g>
	<g>
		<g>
			<path class="st9" d="M107,130.4c1.4,1.9,4.5,2.3,5.3,4.5c0.8,2.3-1.4,3.6-3.2,4.3c-2.4,0.9-4,0.2-6.3-0.1c-2.5-0.4-5.2,1-7.5,0.3
				c-1.1-0.4-5.1-1.4-4.8-2.8c0-0.2-0.2-0.2-0.3-0.1c-0.9,2.3,2.6,2.5,3.9,3.2c1.3,0.7,1.9,0.9,3.6,0.7c1.7-0.2,3.3-0.8,5-0.6
				c1.1,0.1,2.2,0.6,3.4,0.6c2.3,0.2,6.9-1.1,7.2-3.8c0.5-4.1-4-4.2-6.1-6.4C107.1,130.2,107,130.3,107,130.4L107,130.4z"/>
		</g>
	</g>
	<g>
		<g>
			<path class="st9" d="M97.5,85.5c-0.5,2.6-1.8,5.1-2.5,7.6c-0.3,1.2-0.5,2.2-0.5,3.4c0,1.6-0.3,2.9-0.6,4.4
				c-0.3,1.7,0.6,2.5-0.5,4.5c-0.3,0.5-0.7,0.8-0.9,1.3c-0.9,2-1.1,5-0.9,7.1c0,0.3,0.4,0.4,0.6,0.1c-0.3,1-0.9,1.8-1.3,2.8
				c-0.4,1-0.4,2-0.6,3.1c-0.5,2.3-0.7,4.4,0,6.7c0.8,2.9,1,5.4,0.1,8.3c-0.4,1.2-1,2.7,0,3.7c0.2,0.2,0.5-0.1,0.3-0.3
				c-0.9-1.1,0.2-2.6,0.5-3.7c0.3-0.9,0.4-1.9,0.5-2.8c0.4-2.5-0.3-4.1-0.8-6.4c-0.5-2.4-0.4-6,0.4-8.4c0.5-1.3,1.7-2.6,1.3-4
				c-0.1-0.2-0.3-0.2-0.4-0.1c-0.2,0.3-0.4,0.6-0.6,0.9c0.2,0,0.4,0.1,0.5,0.1c0-1.5,0.2-3,0.5-4.5c0.3-1.6,0.9-2.5,1.8-3.8
				c1.1-1.7,0.2-3.4,0.7-5.4c0.6-2.6,0.1-5.1,0.7-7.7C96.3,90.2,97.6,87.8,97.5,85.5C97.5,85.5,97.5,85.5,97.5,85.5L97.5,85.5z"/>
		</g>
	</g>
	<g>
		<g>
			<path class="st9" d="M110.8,122.5c0.3,2.5,0.4,4.8,2.5,6.5c1,0.8,2.3,1.3,3.3,2.1c1.8,1.3,0.9,3.7-1,4.3
				c-0.9,0.3-1.8,0.3-2.7,0.2c-0.3,0-0.4,0.4-0.1,0.5c2,0.9,6.7-0.9,6.1-3.6c-0.4-1.5-2-2.4-3.2-3.1c-2.8-1.7-4-3.8-4.5-6.9
				C111.1,122.3,110.8,122.3,110.8,122.5L110.8,122.5z"/>
		</g>
	</g>
	<g>
		<g>
			<path class="st9" d="M142.3,38.4c-0.8,1.8-1.9,2.5-3.3,2c-0.2,0-0.5-0.1-0.7-0.1c-0.5-0.1-0.9-0.1-1.4-0.1c-1.4,0-3.1,0-4.5,0.2
				c-1.3,0.2-2.2,0.7-1.9,2.1c0,0.1,0.2,0.1,0.2,0c0.4-1.7,4-1.6,5.4-1.7c1.5-0.1,3.1,0.6,4.5,0.4c1.4-0.2,2.4-1.6,1.7-2.9
				C142.4,38.2,142.3,38.3,142.3,38.4L142.3,38.4z"/>
		</g>
	</g>
	<g>
		<g>
			<path class="st9" d="M145.1,39.6c0.3-1.3-2.1-3.3-3.2-3.6c-0.6-0.2-1.1,0-1.7-0.1c-1.5-0.1-2.5-0.7-3.8-1.4
				c-1.4-0.8-2.8-1.2-4.4-1.2c-0.1,0-0.1,0.2,0,0.2c1.7,0.2,3,0.6,4.5,1.5c0.7,0.4,1.4,0.9,2.3,1.1c1.5,0.3,2.8-0.1,4.2,0.9
				c0.6,0.4,2.1,1.8,1.9,2.5C145,39.7,145.1,39.7,145.1,39.6L145.1,39.6z"/>
		</g>
	</g>
	<g>
		<g>
			<path class="st9" d="M141.7,38.4c0.2-0.4,0-0.8-0.1-1.2c-0.1-0.2-0.1-0.6-0.3-0.6c-0.5-0.1-0.8,1.1-0.7,1.5c0,0,0.1,0,0.1,0
				c0.1-0.2,0.3-1.2,0.6-1.2c0.1,0,0.2,0.5,0.2,0.6C141.5,37.8,141.6,38.1,141.7,38.4C141.6,38.4,141.6,38.4,141.7,38.4L141.7,38.4z
				"/>
		</g>
	</g>
	<g>
		<g>
			<path class="st9" d="M134.2,37.3c0-0.4,0-0.8-0.1-1.1c-0.1-0.2-0.1-0.6-0.4-0.7c-0.5-0.2-0.9,1.3-1,1.6c-0.1,0.1,0.1,0.2,0.2,0.1
				c0.2-0.3,0.5-1.6,0.8-1.4c0.2,0.1,0.2,0.6,0.3,0.8c0.1,0.3,0.1,0.5,0.1,0.8C134.1,37.3,134.2,37.3,134.2,37.3L134.2,37.3z"/>
		</g>
	</g>
	<g>
		<g>
			<path class="st9" d="M132.3,36.9c0-0.5,0.1-1.4-0.3-1.8c-0.1-0.1-0.2-0.2-0.4-0.1c-0.1,0.1-0.2,0.3-0.3,0.4
				c-0.2,0.2-0.4,0.4-0.6,0.7c-0.1,0.1,0,0.2,0.1,0.1c0.2-0.2,0.5-0.4,0.7-0.6c0.2-0.2,0.3-0.5,0.5-0.1
				C132.2,35.9,132.2,36.4,132.3,36.9C132.2,36.9,132.3,36.9,132.3,36.9L132.3,36.9z"/>
		</g>
	</g>
	<g>
		<g>
			<path class="st9" d="M145,39.5c-0.1,0.8-1.5-0.3-1.7-0.5c-0.4-0.4-0.9-1.1-1.6-1c-0.1,0-0.1,0.2,0,0.2c0.9,0.3,1.4,1.3,2.2,1.7
				C144.4,40,145.2,40.2,145,39.5C145.1,39.4,145,39.4,145,39.5L145,39.5z"/>
		</g>
	</g>
	<g>
		<g>
			<path class="st9" d="M146.4,27.8c-0.2,0-0.5-0.2-0.8-0.3c-0.3-0.2-0.4-0.5-0.5-0.8c0-0.1-0.1-0.1-0.2,0c-0.2,0.4-0.1,1.1,0.3,1.5
				c0.4,0.4,1,0.3,1.4,0C146.7,28,146.6,27.8,146.4,27.8L146.4,27.8z"/>
		</g>
	</g>
	<g>
		<g>
			<path class="st9" d="M130.1,23.9c-0.4-0.6-1.3-0.8-1.8-0.3c-0.6,0.5-0.6,1.4-0.1,2c0,0,0.1,0,0.1,0c-0.1-0.5-0.2-1,0.1-1.5
				c0.2-0.3,0.5-0.5,0.9-0.5C129.6,23.5,129.8,23.7,130.1,23.9C130.1,23.9,130.1,23.9,130.1,23.9L130.1,23.9z"/>
		</g>
	</g>
	<g class="st10">
		<g class="st11">
			<path class="st9" d="M29.4,45.4c3-1.4,8.4,0.4,11-1.6c0.7-0.5,1.2-1,1-1.9c-0.2-0.9-1.8-1.6-2.4-1.9c-3.6-1.7-7.7,0-11.1-2
				c-0.9-0.5-3.6-3.4-2.1-4.9c0.3-0.3,2.1-0.5,2.6-0.6c2.5-0.5,4.5-0.3,6.8-0.5c1.7-0.2,2.9-0.7,4.3-1.4c3.2-1.4,6.7-1.9,10.2-0.8
				c5.7,1.8,7.3,7.4,8.9,12.4c1.1,3.3,2.7,6,3.9,9.2c0.8,2.1,1.8,4.3,3.6,5.7c1.6,1.3,3.1,3.1,4.9,4c1.6,0.8,2.9,0.9,4.4,1.8
				c0.9,0.6,2.8,1.7,3.5,2c2.5,1,5.6,1.2,8.5,1.5c4,0.5,7.9-0.8,11.8-1.3c3.9-0.5,8.1-0.9,12.1-0.8c8.6,0.2,12.9,7.3,20.7,9.4
				c6.1,1.7,13.2-2,14.8-8.3c1.2-4.6-2.3-11-7.7-8.9c-0.2,0.1-0.1,0.5,0.1,0.4c2-0.8,5.2,1.3,6.1,2.9c0.8,1.4,1,3.2,0.8,4.7
				c-0.5,3.7-4.1,7.2-7.7,8c-4.6,1.1-9.7-1.3-13.5-3.8c-4.8-3.3-8.9-5.3-14.9-5.2c-7.7,0.1-16.2,2.8-23.7,1.4
				c-4.9-0.9-8.7-2.5-13.2-4.4c-1.8-0.7-3-1.7-4.4-3.1c-2-1.9-3.9-3-5-5.6c-0.7-1.5-1.2-3.1-1.9-4.6c-2.1-4.5-2.8-11.1-6.5-14.7
				c-3.7-3.5-8.8-4.6-13.7-3.7c-1.4,0.2-2.4,0.8-3.7,1.3c-2.2,0.8-4.3,0.9-6.5,1.2c-1.4,0.2-6.4,0.4-7.4,1.7c-2,2.7,3.7,5.8,5.5,6.3
				c1.3,0.4,2.2,0.2,3.5,0.3c1.1,0.1,2.1,0.1,3.2,0.3c2.4,0.5,3.2,0.2,1.7,2.5c-1.6,2.6-2.7,1.5-5.4,2
				C31.2,44.7,30.3,44.9,29.4,45.4C29.3,45.4,29.3,45.5,29.4,45.4L29.4,45.4z"/>
		</g>
	</g>
	<g class="st10">
		<g class="st11">
			<path class="st9" d="M139.2,56.9c1.7-1.2,4.4-1.3,6.3-0.5c0.2,0.1,0.3-0.3,0.1-0.4c1.5,0.8,2.7,3.5,3.2,5.1
				c1,3.1-0.1,6.1-1.6,8.8c-0.1,0.2,0.1,0.5,0.4,0.5c0.6-0.1,0.4-0.1,1-0.4c-0.1-0.1-0.3-0.3-0.4-0.4c-1.8,2.9-4.4,4.7-7.7,5.3
				c-0.3,0.1-0.3,0.4-0.1,0.5c0.5,0.6-1.2,0.2-1.7,0.2c-1,0.1-1.9,0.3-2.9,0.2c-2-0.1-4-0.4-6-0.4c-0.5,0-0.5,0.7,0,0.7
				c2.3,0,4.5,0.9,6.8,0.7c1.4-0.1,3.6-0.2,4.7-1.2c0.2-0.2,0.1-0.5-0.2-0.6c-0.1-0.1-0.2-0.1-0.4-0.2c0,0.2-0.1,0.4-0.1,0.6
				c1.8-0.4,3.2-0.5,4.7-1.6c1.4-1,2.4-2.5,3.3-4c0.1-0.2-0.1-0.6-0.4-0.4c1.8-1.3,1.9-6.5,1.3-8.5c-0.7-2.2-2.4-4.2-4.3-5.4
				c-0.1-0.1-0.3,0.1-0.3,0.2c0.2,0.8,0.1,0,0.1,0c-0.7-0.3-1.2-0.5-2-0.6c-1.6-0.1-3,0.4-4.2,1.5C138.8,56.8,139,57,139.2,56.9
				L139.2,56.9z"/>
		</g>
	</g>
</g>
</svg>
