<?xml version="1.0" encoding="utf-8"?>
<!-- Generator: Adobe Illustrator 22.1.0, SVG Export Plug-In . SVG Version: 6.00 Build 0)  -->
<svg version="1.1" id="Card_1" xmlns="http://www.w3.org/2000/svg" xmlns:xlink="http://www.w3.org/1999/xlink" x="0px" y="0px"
	 viewBox="0 0 155.9 155.9" style="enable-background:new 0 0 155.9 155.9;" xml:space="preserve">
<style type="text/css">
	.st0{clip-path:url(#SVGID_2_);}
	.st1{fill:#C1753C;}
	.st2{fill:#A1643C;}
	.st3{fill:#DCA783;}
	.st4{fill:#151612;}
	.st5{fill:#2D2D2D;}
	.st6{fill:#010202;}
</style>
<g id="Colours">
	<defs>
		<path id="SVGID_1_" d="M105,138.2c-1-0.1-0.4-1.6-0.5-2.2c-0.5-3.1-0.4-6.2-0.1-9.2c0,3.8,2.1,8.5,2.2,12.4
			C106.2,138.6,105.6,138.2,105,138.2 M118.9,137.7c-0.2-0.4-0.9-1.6-2.3-1.6c-0.9-2.3,0.1-7.1,0.1-10.9c0-2.5-0.1-5-0.3-7.5
			c-0.5-7.2-1.9-14.4-0.7-21.5c0.3-2,0.9-3.9,1.3-5.9c0.4-2.2,0.4-4.4,0.4-6.6c0.1-4.4,0.1-8.7,0-13.1c-0.1-2.7-0.2-5.4,0.3-8.1
			c0.4-1.9-0.5-2.9,0.3-4.6c1.3,0.8,2.9,1.5,3.6,2.7c0.5,2.4,1.9,5.1,3.6,6.8c-0.1-0.8,0-1.7,0.2-2.2l0.1-0.1c0.2,0.9,0.5,2,0.9,2.7
			c0.1,0.2,0.3,0.5,0.5,0.7c0.3,0.4,0.6,0.8,0.9,1.3c0.2-0.8,0.7-2.5,1.3-2.9c0.5,0.3,1.6,1.3,1.7,2.7c0,0.2-0.1,0.4-0.1,0.6
			l-0.1,0.1c2.2-1.5,3.7-4.1,4-6.8l-0.1,0c0.8,0.7,1.2,1.8,1,2.8c1.8-2.6,2.2-5.9,0.9-8.8c0.5,0.2,1.6,0.8,1.6,0.8
			c-0.1-1.5-0.9-3.7-2-4.7c-1.3-3.7-3.8-6.9-6.5-9.6c0.3-0.5,0.5-1.3,0.5-1.8c0.2,0,0.5,0,0.7,0c-0.7-1.1-2.2-3.1-5.5-2.8
			c-0.1-0.1-0.2-0.3-0.3-0.4c-0.5-1.3-1.2-2.6-1.9-3.7c-0.3-0.5-0.6-0.9-1.1-1.2c-0.6-0.3-1.2-0.2-1.8-0.1c-0.7,0.2-1.3,0.4-1.9,0.8
			l0-0.1c-1.8-0.5-3.6-0.5-5.4,0.1l-0.1,0c0-0.9-0.8-1.6-1.7-1.7c-0.9-0.1-1.7,0.2-2.5,0.6c-1.3,0.6-2.7,1.1-4,1.7
			c-0.7,0.3-1.4,0.6-1.9,1.2c-0.6,0.6-0.8,1.5-0.6,2.3c0.2,0.8,0.8,1.5,1.6,1.8c0.4,0.2,0.9,0.2,1.3,0.4c0.4,0.2,0.8,0.5,0.9,0.9
			c-0.5,1.9-1.5,3.6-2.5,5.3c-1.7,2.8-3.4,5.7-5.1,8.5c-1.3,2.1-2.6,4.3-4.7,5.6c-2,1.2-4.5,1.4-6.7,2.2L86,63.8
			c-3.6,0.9-7.3,1.7-10.9,2.6c-1.5,0.4-2.9,0.7-4.5,0.7c-2.5,0-4.9-0.8-7.4-1.1C62,66,60.4,66,59.3,66.3c-1.4-0.4-2.9-0.8-4.3-1.2
			c-0.7-0.2-1.3-0.4-1.9-0.9c-1-0.8-1.2-2.3-1-3.5s1-2.4,1.6-3.5c0.7-1.1,1.3-2.1,2-3.2c0.4-0.6,0.7-1.2,1.2-1.6
			c0.9-0.8,2.1-1.2,3.3-1.5s2.4-0.6,3.4-1.3c1-0.7,1.7-2,1.3-3.2c-3.6-1.1-7.2,1.1-10.2,3.3c-3.8,2.9-7.9,6.1-9.2,10.7
			c-1,3.8,0.1,8.2-1.7,11.7c-0.9,1.8-2.5,3.2-3.9,4.8c-2.3,2.6-3.9,5.8-4.7,9.1c-0.2,0.9-0.4,1.8-0.9,2.6c-0.3,0.4-0.6,0.8-0.7,1.2
			c-0.1,0.4,0.1,0.8,0.1,1.2c0,0.4,0,0.9-0.1,1.3c-1.2,8.1-4.5,16-9.5,22.5c-0.5,0.7-1.1,1.3-1.8,1.7c-0.6,0.3-3.7,2.4-4.1,3.9
			l-0.5,2.7c-0.2,1.8-0.5,6.5-0.3,8.4c0.3,2.9,0.8,8.6,2.7,9.9c0.5,1,6.8,1,10.4,0.6c0.6-0.1,1.2-0.1,1.7-0.4
			c0.5-0.3,0.8-0.6,0.5-1.1c1.1,0.1,2.4,0.2,5.2,0c0.6,0,1.2-0.1,2-0.7c0.3-0.6,0.4-1.7-0.1-2.5c-0.5-0.8-1-2-2.9-1.9
			c-0.9-4.3-0.2-7.9,2.7-11.2c2.6-3,6.8-3.9,10.1-6.1c4.6-3,7.3-8.3,9.2-13.4c1.1-3,2.3-6.3,5.1-7.9c1.5-0.9,3.4-1.1,5.1-0.5
			c1.1,0.4,2.8,1.1,3.8,1.7c1.4,0.8,2.7,2,3.9,3.1c3.6,3,7.8,5.3,12.3,6.7c-0.6,3.6,0.7,14.9,0.7,17.4c0,5.8,0.6,9.3,1.3,11.9
			l0.2,0.5c0.5,1.9,0.9,3.7,1.8,4.9c3.4,0.4,7.9,0.9,11.4,0.5c0.6-0.1,1.2-0.1,1.7-0.4c0.5-0.3,0.8-0.9,0.5-1.4
			c3.4,0.4,6.3,0.2,9.9-0.2c0.6-0.1,1.2-0.1,1.7-0.4c0.5-0.3,0.5-0.8,0.5-1.4C119.2,138.5,119.1,138.1,118.9,137.7z"/>
	</defs>
	<clipPath id="SVGID_2_">
		<use xlink:href="#SVGID_1_"  style="overflow:visible;"/>
	</clipPath>
	<g id="Base_1_" class="st0">
		<rect x="13.7" y="29" class="st1" width="134.3" height="118.7"/>
		<g id="Dark_1_">
			<g>
				<path class="st2" d="M114.5,44.2c-0.2,1.1-0.6,2.3-1.6,2.6c-0.6,0.2-1.4,0-1.9,0.4c-0.4,0.4-0.4,1-0.8,1.4
					c-0.5,0.5-1.4,0.3-1.8-0.2c-0.5-0.5-0.6-1.3-0.7-1.9c-1.4-0.5-2.4,1.3-2.6,2.8c-0.6,4.5,0.1,9.1,2,13.2c2-0.9,2.3-3.7,1.9-5.9
					c-0.4-2.2-1.2-4.4-0.5-6.5c2.4,2.2,5.3,4,8.3,5.2c1.3,0.5,2.9,1.1,3.3,2.5c0.3,0.9-0.1,1.9-0.4,2.8c-1.6,4.3-2.4,9-2.3,13.6
					c0.1,5.1,1.2,10.2,0.5,15.3c-0.5,3.5-1.8,6.9-2.3,10.4c-0.6,4-0.1,8.1,0.4,12.1c0.9,7.4,1.8,14.8,3.8,21.9
					c0.8,2.7,1.8,5.6,1.1,8.3c-0.7,2.7-3.1,4.8-5.8,5.2c-1.9,0.3-3.8-0.3-5.7-0.8c-3.2-0.9-6.4-1.8-9.7-2.7c-0.8-0.2-1.7-0.6-2-1.4
					c-0.4-1.2,0.9-2.1,1.6-3.2c1.2-1.9,0-4.3-0.2-6.5c-0.4-4.2,2.7-8.1,2.9-12.3c0.1-2.9-1.1-5.6-1.4-8.5c-0.5-4.7,1.3-9.8-0.7-14.1
					c-0.8-1.7-2.2-3.4-1.6-5.2c0.6-1.8,2.8-2.4,4.2-3.7c1.8-1.8,1.7-4.7,2.3-7.3c0.5-2.5,1.7-4.8,2.3-7.3s0.5-5.4-1.2-7.3
					c-0.8-0.8-1.8-1.4-2.6-2.2c-1.2-1.2-2-2.7-2.6-4.3c-1.3-3.2-2.1-6.6-2.5-10c-0.3-2.1-0.4-4.3,0.5-6.2c0.8-1.9,2.9-3.5,4.9-3.1
					c-0.9-0.6-1.5-1.7-1.5-2.8c2.3,1.3,4.5,2.7,6.8,4c1,0.6,2.4,1.2,3.3,0.4c0.3-0.3,0.5-0.7,0.6-1.2c0,0,0,0,0,0
					c0.2-1.2-2.8-9.4-0.6-8.2C114.1,34.5,114.7,42.5,114.5,44.2z"/>
			</g>
			<g>
				<path class="st2" d="M89.8,105.4C89.8,105.4,89.8,105.4,89.8,105.4c-0.1,1.5,0.1,3.3-1.2,4.1c-0.6,0.4-1.3,0.3-2,0.3
					c-5.8-0.5-11.5-3.3-17.2-2c-4.4,1-7.9,4.2-11.2,7.3c-1.5,1.4-3,2.8-4.5,4.3c-1.1,1-2.1,2-3.5,2.7c-1.2,0.6-2.5,0.8-3.7,1.2
					c-2.6,0.8-5,2.5-6.6,4.7c-0.6,0.7-1,1.6-1.1,2.5c-0.2,2,1.3,3.6,2.5,5.3s1.8,4.2,0.2,5.4c-0.4,0.3-0.9,0.5-1.5,0.6
					c-1.8,0.4-3.7,0.4-5.4,0c-0.2,0-0.4-0.1-0.5-0.2c-0.2-0.2-0.4-0.5-0.5-0.8c-0.3-0.9,0.1-0.9-0.2-1.8c-0.1-0.3-0.2-0.5-0.1-0.8
					c0.1-0.4,0.9-6.3,1.1-9.1c0.2-3.7,10.9-11.3,13.4-12.8c6.6-4.1,8.1-6.6,9.1-15c0.3-2.6,1.5-5.5,3.8-6.8c2-1.2,4.7-0.7,6.6-2
					c0.8-0.5,1.3-1.3,2-1.9c2.4-2.1,5.9-1.9,8.9-2c2.9-0.1,7-2,9.8-0.6c2,1,2.6,3.9,3.1,5.9C92.1,98.1,89.9,101.2,89.8,105.4z"/>
			</g>
			<g>
				<path class="st2" d="M57.6,92.5C56.3,93.6,56.8,95,56,96c-0.8,1-3.9,1.3-5.3,4.7c-4.6,11.1-13.2,14.9-16.2,16.4
					c-2.4,1.2-7.1,0.1-8,2.6c-0.7,1.4-0.9,6.6-1.1,9.6c-0.1,1.9,0.7,5.8-0.2,7.5c-0.9,1.7,0.5,5.2,1.4,6.9c0.4,0.8,2-1.2,2.8-0.8
					c1.9,1.1,0.7,1.1,2.6,0c1.9-1.1,2.4-4.3,0.6-5.5c-0.7-0.5-1.7-0.7-2.2-1.4c-0.2-0.3-0.3-0.7-0.4-1c-0.9-3.8-0.8-7.2,1.2-10.6
					c1.1-1.8,2.7-3.5,4.4-4.7c4-2.7,8.4-4.3,12.4-6.9c4.1-2.5,7.5-6.7,8.7-11.3c0.5-1.8,2-2.6,2.9-4.4c1-1.8,8.5-1.4,10.3-4.7
					C66.5,89.3,58.9,91.4,57.6,92.5z"/>
			</g>
			<g>
				<path class="st2" d="M124.3,39.5L124.3,39.5c-1-0.9-2-1.7-2.8-2.6c-0.1-0.1-0.2-0.3-0.3-0.5c-0.1-0.4,0.2-0.7,0.5-1
					c0.1-0.1,0.1-0.1,0.2-0.1c0.1,0,0.2,0.1,0.3,0.1c0.5,0.4,0.9,0.9,1.3,1.3c0.5,0.6,0.9,1.3,1.5,1.9c0.6,0.6,1.3,1,2.1,1
					c0.1,0,0.3,0,0.4,0.1c0.2,0.1,0.2,0.3,0.1,0.5s-0.2,0.3-0.2,0.5c-0.1,0.4,0.2,0.8,0.5,1.1c0.8,0.9,1.6,1.7,2.3,2.6
					c0.4,0.5,2.2,2.2,1.7,3c-0.7-0.4-1.2-1.3-1.8-1.9c-0.6-0.7-1.3-1.4-1.9-2.1C127,42,125.7,40.7,124.3,39.5z"/>
			</g>
			<g>
				<path class="st2" d="M126,59c0-0.1,0-0.3,0.1-0.4c0.1-0.1,0.3-0.1,0.4-0.2c0.5-0.2,0.9-0.7,0.9-1.2c0-0.3-0.1-0.7,0.2-0.9
					c0.3-0.2,0.8,0,1.1-0.2c0.3-0.1,0.3-0.5,0.3-0.8c0-0.6,0-1.1,0-1.7c0.1-0.6,0.3-1.1,0.7-1.5h0c1-0.9,2.3,0.1,2.9-1.4
					c0.4-1.1-0.4-2-1.4-3.4c-0.7-1-1.5-2-2.2-2.9c-0.6-0.8-1.3-2.2-2.1-2.8c2.7,1.8,5.1,4.1,7.5,6.3c0,0,0,0,0,0
					c1.4,1.3,2.8,2.7,3.1,4.6c0.2,0.9,0.2,2.1-0.9,1.6c-0.2-0.1-0.5-0.3-0.7-0.5c0,0.1,0,0.2,0.1,0.3c0.2,1,0.2,2.3,0.4,3.3
					c0.1,0.4,0,1.1,0,1.5c0,1.3-1.2,2.4-2.2,3.4c-0.5,0.6-1.1,1.1-1.9,1.4c-1,0.4-2.1,0.3-3.2,0.2c-0.7-0.1-1.4-0.2-2-0.5
					c-0.3-0.2-0.7-0.4-0.8-0.7c-0.1-0.2-0.2-0.5-0.2-0.7C125.9,60.8,125.9,59.9,126,59z"/>
			</g>
		</g>
		<g id="Light_1_">
			<g>
				<path class="st3" d="M127.7,62.4L127.7,62.4c0.1-1.2,0.4-2.4,1-3.4c0.4,2.4,1.2,3.4,3.7,3.1c2.9-0.3,2.9-3.1,2.7-4.5
					c0.7,0.4,1,0.9,1,0.9c0.3-1.6,0.4-4.3-0.9-6.5c3.2,2.3,5.4,6.2,5,10.1c-0.1,1.2-0.4,2.3-0.8,3.4c-1.2,3.4-3.2,6.7-6.3,8.4
					c-3.1,1.8-7.5,1.5-9.9-1.2c-1.8-2.1-2.1-5-2.2-7.8c-0.1-2.7-0.3-5.4,0.5-7.9c0.5,1.8,1.6,2.9,3.1,4.1c-1-1.3-0.2-5.1,2.2-7.1
					C126.1,57.3,126.6,60.3,127.7,62.4z"/>
			</g>
			<g>
				<path class="st3" d="M59.9,49.8L59.9,49.8c-3.3,1.3-6.8,2.6-9.3,5c-3.4,3.3-5,8.2-4.9,12.9c0,0.6,0,1.2-0.2,1.7
					c-0.3,0.5-0.9,0.9-1.4,0.6c-0.4-0.2-0.5-0.6-0.7-1c-1.3-3.6-0.8-7.6,0-11.4c0.6-2.7,1.4-5.4,3-7.7c2.5-3.6,6.8-5.5,10.9-7.1
					c1.4-0.5,2.8-1,4.3-1.1c1.5-0.1,3.1,0.3,4.1,1.3C69.8,47.3,62.4,48.9,59.9,49.8z"/>
			</g>
			<g>
				<path class="st4" d="M121,41.8c0.2,0.5,0.4,2.3,0,2.6c-0.1,0.1-0.3,0.2-0.5,0.3c-1.1,0.4-3-0.3-3-0.4c0-0.1,0.8-1,1.4-1.5
					c0.2-0.2,0.6-0.3,0.8-0.1l0,0C120.6,43.6,120.5,42.6,121,41.8z"/>
			</g>
		</g>
		<g>
			<path class="st5" d="M103,52.9L103,52.9c-0.3,2.7-0.1,5.7,1.6,7.8c1.2,1.6,3.1,2.6,4.6,3.9s2.5,3.6,1.5,5.4
				c-0.3,0.5-0.9,1-1.5,0.9c-0.4,0-0.7-0.2-1-0.4c-1.3-0.8-2.5-1.8-4-2.3s-3.3-0.2-4.2,1c-0.2,0.4-0.4,0.8-0.8,1
				c-0.6,0.3-1.2-0.3-1.7-0.8c-1.6-1.7-4.1-2.7-6.3-1.9c-2.8,1.1-3.7,4.6-3.8,7.6c-0.2,3.5,0.1,7,0.8,10.3c0.2,1,0.5,2.1,0.3,3.1
				c-0.2,1.5-1.3,2.8-2.4,3.8c-3.2,2.7-7.8,3.5-11.8,2.2c-2.6-0.9-4.8-2.6-7.3-3.5c-2.8-1-6.1-1.2-8.1-3.4c-2.1-2.3-1.9-5.8-3.4-8.5
				c-1.5-2.6-4.3-4-7-5.4c-0.8-0.4-1.7-1-1.7-1.9c-0.1-0.8,0.6-1.5,1.1-2.2c0.5-0.7,0.9-1.7,0.3-2.3c-0.4-0.4-1.2-0.5-1.4-1.1
				c-0.1-0.5,0.4-1,0.8-1.3c1.4-1.3,1.6-3.3,2-5.2c1.6-6.7,8.1-12,15.1-12.1c6-0.1,11.8,3.2,17.7,2c4.1-0.8,7.6-3.8,11.8-4.5
				c1.4-0.2,2.8-0.2,4.1,0.1c0.9,0.2,1.7,0.5,2.6,0.4c1.6-0.2,3.1-1.4,3.4,0.7C104.5,48.3,103.2,51,103,52.9z"/>
		</g>
	</g>
	<g id="Details_1_" class="st0">
		<g>
			<path class="st4" d="M130.2,53c1.3-0.7,3.5-0.7,4.8,0.4c0.4,0.4,0.3,1.2,0.2,1.9c-0.3,3.4-2.2,4.3-3.4,4.3s-1.9-2.6-2.1-4.6
				C129.6,54.2,129.6,53.3,130.2,53z"/>
		</g>
	</g>
</g>
<g id="Outlines">
	<g>
		<g>
			<path class="st6" d="M108.1,49.5c1.7,2.3,3.5,4.5,5.8,6.2c2.5,1.8,5.1,3,7.4,5.1c0.3,0.3,0.7-0.1,0.6-0.4c-1-2.3-3.5-3.2-5.6-4.2
				c-3.4-1.6-5.6-4-8.1-6.7C108.2,49.4,108.1,49.5,108.1,49.5L108.1,49.5z"/>
		</g>
	</g>
	<g>
		<g>
			<path class="st6" d="M136,53.2c-0.2-2.2-1.7-4.1-3-5.7c-1.7-2.2-3.7-4.7-6.2-6.1c-0.1,0-0.2,0.1-0.1,0.1c1.4,1.9,3.3,3.5,4.9,5.3
				c1.6,1.8,3.8,4.1,4.3,6.5C135.9,53.3,136,53.3,136,53.2L136,53.2z"/>
		</g>
	</g>
	<g>
		<g>
			<path class="st6" d="M125.7,39.7c2.3-0.1,3.7,0.9,4.9,2.7c0.1-0.2,0.2-0.4,0.3-0.5c-0.3,0-0.5,0-0.8,0.1c-0.1,0-0.3,0.2-0.2,0.3
				c0.1,0.6,0,1.1-0.2,1.6c-0.1,0.2,0.3,0.4,0.4,0.2c0.3-0.6,0.4-1.1,0.4-1.8c-0.1,0.1-0.2,0.2-0.3,0.3c0.2,0,0.5,0,0.7,0
				c0.3,0,0.5-0.3,0.3-0.5c-1.4-2-3-2.7-5.5-2.5C125.6,39.5,125.6,39.7,125.7,39.7L125.7,39.7z"/>
		</g>
	</g>
	<g>
		<g>
			<path class="st6" d="M121.3,41.4c-0.5,0.5-0.9,1.1-1.3,1.6c0.1,0,0.3,0,0.4,0c-0.2-0.2-0.3-0.4-0.5-0.7c-0.1-0.1-0.2-0.2-0.3-0.1
				c-1.1,0.6-2.5,1.3-2.6,2.7c0,0.2,0.3,0.2,0.3,0.1c0.6-1.1,1.5-1.7,2.5-2.3c-0.1,0-0.2,0-0.3,0c0.2,0.2,0.4,0.4,0.5,0.6
				c0.1,0.1,0.3,0.1,0.3,0C120.7,42.7,121.1,42.1,121.3,41.4C121.4,41.4,121.3,41.4,121.3,41.4L121.3,41.4z"/>
		</g>
	</g>
	<g>
		<g>
			<path class="st6" d="M117.7,39.5c-2.2,1-2.8,3.1-1.8,5.3c0,0,0,0,0,0c-0.5-1.9,0.1-4.2,1.9-5.1C117.9,39.6,117.8,39.4,117.7,39.5
				L117.7,39.5z"/>
		</g>
	</g>
	<g>
		<g>
			<path class="st6" d="M126.4,40.6c-2.9-4.3-8.2-7.9-13.5-5.9c-0.1,0.1-0.1,0.2,0.1,0.2C118.6,34.1,122.6,36.7,126.4,40.6
				C126.4,40.7,126.4,40.6,126.4,40.6L126.4,40.6z"/>
		</g>
	</g>
	<g>
		<g>
			<path class="st6" d="M125.1,39c-0.6-1.5-1.2-3.9-2.6-4.9c-1.3-1-3.1-0.2-4.3,0.7c-0.1,0.1,0,0.2,0.1,0.2c0.5-0.2,1-0.4,1.6-0.5
				c1.4-0.4,2.4,0,3.2,1.2C123.8,36.7,124.5,37.8,125.1,39C125,39.1,125.1,39,125.1,39L125.1,39z"/>
		</g>
	</g>
	<g>
		<g>
			<path class="st6" d="M122.9,36.4c0-0.3-0.2-0.5-0.3-0.7c-0.1-0.2-0.3-0.5-0.5-0.6c-0.5-0.1-0.7,0.4-0.9,0.8
				c-0.1,0.4,0.5,0.6,0.7,0.3c0.1-0.2,0.1-0.5,0.1-0.6c0.2-0.3,0.8,0.5,0.8,0.7C122.8,36.5,123,36.5,122.9,36.4L122.9,36.4z"/>
		</g>
	</g>
	<g>
		<g>
			<path class="st6" d="M112.9,34.9c-0.4-4.1-6.9-0.4-8.7,0.5c-1.4,0.7-2.6,1.8-2.4,3.6c0.1,0.7,0.5,1.3,1.1,1.7
				c0.9,0.7,2.3,0.3,2.9,1.4c0,0,0.1,0,0.1,0c-0.2-0.4-0.3-0.6-0.7-0.9c-0.3-0.2-0.6-0.2-0.9-0.4c-1.7-0.4-2.2-1.2-1.7-2.6
				c-0.2-1,0.1-1.6,1-1.9c1.6-0.9,8.4-4.3,9.1-1.2C112.8,35,112.9,35,112.9,34.9L112.9,34.9z"/>
		</g>
	</g>
	<g>
		<g>
			<path class="st6" d="M112,34.4c0.6,1.9,1.4,3.6,1.5,5.5c0.2,2.3-1.3,5.2-3.8,3.5c-2.1-1.4-3.8-3.9-6.4-4.7
				c-0.4-0.1-0.5,0.5-0.2,0.6c2.8,0.7,4,3.2,6.2,4.7c1,0.6,2.1,0.8,3.1,0.3c1.3-0.6,1.5-2,1.4-3.3c-0.2-2.2-0.6-4.8-1.7-6.8
				C112.1,34.2,111.9,34.3,112,34.4L112,34.4z"/>
		</g>
	</g>
	<g>
		<g>
			<path class="st6" d="M132.6,55.1c-0.2-0.1-0.3-0.1-0.5-0.1c-0.2,0-0.5,0.1-0.7,0.1c-0.2,0-0.4,0-0.6,0c-0.2,0-0.2-0.1-0.4,0
				c-0.1,0-0.1,0.1-0.1,0.1c-0.1,0.5,0.5,1.1,1,1.1c0.3,0,0.7-0.1,1-0.2c0.3-0.2,0.4-0.4,0.5-0.7C132.7,55.3,132.7,55.2,132.6,55.1
				L132.6,55.1z"/>
		</g>
	</g>
	<g>
		<g>
			<path class="st6" d="M133.7,55.1C133.7,55.1,133.7,55.2,133.7,55.1c-0.7,0.3-0.1,1.5,0.6,1c0.3-0.2,0.4-0.4,0.4-0.7
				c0-0.1-0.1-0.2-0.2-0.2c-0.1,0-0.2,0-0.3,0c0.1,0,0.2,0.1,0.4,0.1c-0.1-0.1-0.2-0.2-0.4-0.2c0.1,0.1,0.2,0.1,0.2,0.2
				c0,0-0.1-0.1-0.1-0.1C134.1,54.9,133.8,54.9,133.7,55.1L133.7,55.1z"/>
		</g>
	</g>
	<g>
		<g>
			<path class="st6" d="M121.5,57c-0.9,3.7,0.4,8.3,3.6,10.5c0.1,0.1,0.2-0.1,0.2-0.2c-2.2-3.3-3.5-6.3-3.6-10.3
				C121.7,56.9,121.5,56.8,121.5,57L121.5,57z"/>
		</g>
	</g>
	<g>
		<g>
			<path class="st6" d="M125.2,67.2c0.2-0.2,0.1-0.3,0.1-0.6c0-0.2,0-0.9,0.2-1.1c0.1-0.1,0.2-0.2,0.2-0.4c0,0,0-0.1,0-0.1
				c0-0.1-0.2-0.3-0.4-0.2c0,0-0.1,0-0.1,0c-0.1,0.1-0.3,0.2-0.3,0.4c0,0.4-0.1,0.8-0.1,1.2C124.9,66.8,124.9,67.1,125.2,67.2
				C125.2,67.3,125.2,67.3,125.2,67.2L125.2,67.2z"/>
		</g>
	</g>
	<g>
		<g>
			<path class="st6" d="M125.3,65.1c-0.2,1.8,1.2,3.7,2.5,4.8c0.1,0.1,0.2,0,0.2-0.1c-0.3-0.8-0.9-1.5-1.3-2.2
				c-0.4-0.8-0.6-1.8-1-2.5C125.6,64.8,125.4,64.9,125.3,65.1L125.3,65.1z"/>
		</g>
	</g>
	<g>
		<g>
			<path class="st6" d="M128,69.8c0.1-0.5,0.4-0.9,0.6-1.4c0.2-0.5,0.5-0.9,0.8-1.3c0.2-0.3-0.1-0.8-0.4-0.5
				c-0.9,0.7-1.1,2.2-1.3,3.2C127.8,69.9,128,69.9,128,69.8L128,69.8z"/>
		</g>
	</g>
	<g>
		<g>
			<path class="st6" d="M138.2,58.4c-0.3-0.5-0.9-1.1-1.5-1.1c-0.2,0-0.2,0.2-0.1,0.3c0.2,0.2,0.4,0.3,0.6,0.4
				c0.3,0.2,0.5,0.4,0.8,0.6C138.1,58.7,138.3,58.6,138.2,58.4L138.2,58.4z"/>
		</g>
	</g>
	<g>
		<g>
			<path class="st6" d="M136.4,57.6c0.8,3.3,0.6,5.9-0.8,9c0,0.1,0.1,0.2,0.1,0.1c2.1-2.4,2.5-6.4,0.9-9.2
				C136.6,57.3,136.4,57.4,136.4,57.6L136.4,57.6z"/>
		</g>
	</g>
	<g>
		<g>
			<path class="st6" d="M135.7,66.4c0.3-0.9,0-2.6-1-3c-0.1,0-0.2,0.1-0.2,0.2c0.2,0.4,0.5,0.8,0.7,1.2c0.2,0.5,0.3,1.1,0.3,1.6
				C135.6,66.5,135.7,66.5,135.7,66.4L135.7,66.4z"/>
		</g>
	</g>
	<g>
		<g>
			<path class="st6" d="M134.5,63.5c-0.3,1.3-0.7,2.6-1.3,3.7c-0.7,1.2-1.6,2.1-2.6,3c-0.1,0.1,0,0.3,0.2,0.2c2.4-1.2,4.1-4.2,4-6.9
				C134.8,63.4,134.6,63.3,134.5,63.5L134.5,63.5z"/>
		</g>
	</g>
	<g>
		<g>
			<path class="st6" d="M130.8,70.2c0.8-0.2,0.3-1.7,0.1-2.1c-0.3-0.6-0.9-1.5-1.6-1.6c-0.1,0-0.2,0.1-0.2,0.2
				c0.2,0.5,0.7,0.9,1,1.4c0.2,0.3,0.4,0.7,0.5,1.1C130.7,69.5,130.5,69.9,130.8,70.2C130.7,70.2,130.8,70.2,130.8,70.2L130.8,70.2z
				"/>
		</g>
	</g>
	<g>
		<g>
			<path class="st6" d="M138.2,58.4c0-2.2-0.6-4.3-2.3-5.7c-0.1-0.1-0.3,0-0.2,0.2c1.3,1.8,2,3.4,2.4,5.6
				C138.1,58.5,138.2,58.5,138.2,58.4L138.2,58.4z"/>
		</g>
	</g>
	<g>
		<g>
			<path class="st6" d="M117.8,57.8c-2.6,4.5-0.9,11.6-0.8,16.5c0,3.7,0,7.4-0.1,11c-0.2,4.1-1.3,7.6-1.9,11.6
				c-1.1,7,0.4,13.9,0.9,20.8c0.3,3.5,0.4,7,0.2,10.5c-0.2,2.7-0.6,5.3,0,7.9c0.2,0.8,1.4,0.4,1.2-0.3c-0.8-2.9-0.3-6.1-0.2-9.1
				c0.1-3.6-0.1-7.2-0.3-10.8c-0.6-7.3-1.5-14.6,0-21.8c1.2-6,1.2-11.9,1.2-18c0-3.5-0.2-7,0.1-10.5c0.2-2.6-0.1-5.2,0.2-7.8
				C118.2,57.7,117.9,57.6,117.8,57.8L117.8,57.8z"/>
		</g>
	</g>
	<g>
		<g>
			<path class="st6" d="M105.6,41.8c-1.7,3.2-3.5,6.3-5.3,9.5c-2.5,4.2-4.5,8.9-9.5,10.6c-3.8,1.2-8.2,2-8.4,6.7
				c0,0.2,0.2,0.2,0.3,0c1.4-5.3,6.4-4.3,10-5.9c2-0.9,3.3-2.2,4.6-4c2.1-2.9,3.8-6.3,5.7-9.3c1.4-2.3,2.9-4.5,3.3-7.3
				C106.2,41.7,105.8,41.4,105.6,41.8L105.6,41.8z"/>
		</g>
	</g>
	<g>
		<g>
			<path class="st6" d="M85.9,63.7c-3.4,0.5-6.8,1.3-10.1,2.1c-4.4,1-8.1,0.1-12.4-0.2c-2.9-0.2-5.4,0.3-7,2.8
				c-0.1,0.2,0.1,0.3,0.3,0.2c4.6-3.9,10.2-0.4,15.5-1C76.7,67,81.6,65.4,86,64C86.2,63.9,86.1,63.7,85.9,63.7L85.9,63.7z"/>
		</g>
	</g>
	<g>
		<g>
			<path class="st6" d="M59.4,66.2c-1.2-0.4-3.1-0.8-4.2-1.4c-3.7-2.2-2.2-4.5-0.8-7.2c1.6-3.1,3.3-5.1,6.7-6.4
				c2.3-0.9,4.6-1.9,4.3-4.8c0-0.4-0.7-0.4-0.7,0c0.3,3.6-6.7,4.2-8.7,6.4c-1.5,1.7-3.3,4.4-4.1,6.5c-2,5.4,3.1,6.4,7.3,7.2
				C59.5,66.6,59.6,66.2,59.4,66.2L59.4,66.2z"/>
		</g>
	</g>
	<g>
		<g>
			<path class="st6" d="M106.7,95.1c-2.1,2-2.3,4.4-2.6,7.2c-0.5,5.2-0.4,10.1,0,15.2c0.4,4.9-0.5,9.8-0.3,14.8
				c0.1,1.9-0.6,4.9,1.2,6c0.2,0.1,0.3-0.1,0.2-0.3c-1.4-1.6-0.5-7.5-0.4-9.4c0.2-3.7,0.6-7.4,0.3-11.1c-0.3-3.5-0.6-6.8-0.4-10.4
				c0.2-3.8-0.1-8.8,2.2-11.9C107,95.2,106.8,95,106.7,95.1L106.7,95.1z"/>
		</g>
	</g>
	<g>
		<g>
			<path class="st6" d="M90.1,92.1c2.2,5.7-1,11-1.2,16.7c-0.2,4.2,0.2,8.5,0.4,12.7c0.2,3.9,0.2,7.8,0.7,11.7
				c0.5,3.6,1.8,6.2,3.2,9.4c0.1,0.2,0.5,0.1,0.4-0.1c-3.1-7.6-2.7-15.7-3.2-23.8c-0.3-4.2-0.8-8.5-0.2-12.7c0.7-5,2.4-9.2,0.1-14
				C90.3,91.9,90.1,92,90.1,92.1L90.1,92.1z"/>
		</g>
	</g>
	<g>
		<g>
			<path class="st6" d="M89.8,107.4c-5-2.2-9.2-4.3-13.6-7.6C72.8,97.2,69,96,65,94.5c-0.2-0.1-0.3,0.3-0.1,0.4
				c2.7,1,5.8,1.9,8.3,3.4c2.3,1.4,4.1,3.6,6.2,5.2c3,2.2,6.4,4,10,4.9C89.9,108.4,90.3,107.7,89.8,107.4L89.8,107.4z"/>
		</g>
	</g>
	<g>
		<g>
			<path class="st6" d="M68,93.8c-3.8-0.6-6.9-0.3-9.4,2.9c-1.9,2.5-2.5,5.7-4,8.5c-2.2,4-5.8,6.8-9.7,9c-4.9,2.8-11,5-14.3,9.8
				c-2.9,4.2-2.5,8.3-1.1,13c0.1,0.3,0.5,0.2,0.4-0.1c-1.4-6.6,0.2-12.3,5.7-16.4c4.1-3.1,9.1-4.9,13.4-7.8c2.7-1.8,5-3.9,6.6-6.8
				c1-1.9,1.5-4.1,2.4-6.2C59.6,95.6,63.7,93.7,68,93.8C68,93.9,68,93.8,68,93.8L68,93.8z"/>
		</g>
	</g>
	<g>
		<g>
			<path class="st6" d="M69.6,96.2c-3.2-0.9-5.9,0-8,2.7c-3.7,4.8-4.5,11.2-8.6,15.9c-3.8,4.3-9.6,5-13.5,9
				c-3.2,3.3-4.1,7.5-2.3,11.7c0,0,0.1,0,0.1,0c0.3-6.5,1.6-11,7.6-14.3c2.9-1.6,6-2.7,8.4-5c2.4-2.3,4-5.3,5.3-8.3
				c2.2-5.1,3.3-12.5,10.8-11.4C69.6,96.4,69.7,96.3,69.6,96.2L69.6,96.2z"/>
		</g>
	</g>
	<g>
		<g>
			<path class="st6" d="M65,46.1c-6.5-1.5-13.9,4.9-17.5,9.7c-2.5,3.3-2.8,6.6-3.1,10.6c-0.5,6.4-4.8,9.4-7.5,14.6
				c-1.5,2.9-2.6,6.4-3.4,9.4c-0.7,2.7-0.6,5.5-1.4,8.2c-1,3.1-2.3,6.1-3.8,8.9c-2.2,4.1-4.8,7.1-8.1,10.2c-2.5,2.3-2.2,4.4-2.4,7.6
				c0,0.3,0.4,0.3,0.4,0.1c0.4-1.9,0.5-4.8,1.7-6.3c1.1-1.3,2.8-1.7,4-2.8c2.3-2.1,4-5.5,5.4-8.2c3.4-6.6,4.1-13.8,6.1-20.8
				c1.5-5.4,3.5-8.3,7.1-12.4c1.9-2.1,2.8-4.3,3.1-7.1c0.6-5.8,0.4-9.9,4.9-14.2c3.7-3.5,9.1-8,14.5-7.3
				C65.1,46.4,65.2,46.2,65,46.1L65,46.1z"/>
		</g>
	</g>
	<g>
		<g>
			<path class="st6" d="M17.8,123.2c-0.9,3.5-0.9,7.3-0.4,10.9c0.3,2.3,0.4,6.7,2.9,7.7c0.2,0.1,0.4-0.1,0.3-0.3
				c-3.1-5.6-2-12.1-2.3-18.2C18.3,123,17.9,122.9,17.8,123.2L17.8,123.2z"/>
		</g>
	</g>
	<g>
		<g>
			<path class="st6" d="M114.7,55.8c-0.9,1.7-0.9,3.7-1,5.6c-0.2,2.4-0.1,4.9,0.1,7.3c0,0.1,0.2,0.1,0.2,0c0-2.2-0.2-4.3,0-6.5
				c0.1-2.2,1-4.1,1.1-6.3C115.1,55.7,114.8,55.6,114.7,55.8L114.7,55.8z"/>
		</g>
	</g>
	<g>
		<g>
			<path class="st6" d="M106.7,138.8c0.2-3.8-1.1-7.7-1.8-11.4c0-0.1-0.2-0.1-0.2,0c-0.4,3.8,0.9,7.8,1.5,11.5
				C106.2,139.2,106.6,139.1,106.7,138.8L106.7,138.8z"/>
		</g>
	</g>
	<g>
		<g>
			<path class="st6" d="M107.1,142.4c1-1.7-0.1-4.6-2.3-4.5c-0.4,0-0.5,0.6-0.1,0.7c0.8,0.2,1.2,0.4,1.7,1.1
				c0.5,0.8,0.6,1.6,0.4,2.5C106.7,142.5,107,142.6,107.1,142.4L107.1,142.4z"/>
		</g>
	</g>
	<g>
		<g>
			<path class="st6" d="M107,141.2c-0.2,0.8-2.3,1.3-3,1.4c-0.8,0.1-1.6,0-2.4,0c-1.5,0-3-0.1-4.4-0.2c-1.1-0.1-2.8,0.1-3.7-0.7
				c-0.9-0.8-1.1-3-1.7-4.1c-0.1-0.1-0.3-0.1-0.3,0.1c0.1,1.3,0.4,4.2,1.6,5.2c1,0.8,4.2,0.7,5.5,0.8c1.8,0.2,9.5,1.2,8.5-2.5
				C107.2,141.1,107,141.1,107,141.2L107,141.2z"/>
		</g>
	</g>
	<g>
		<g>
			<path class="st6" d="M105.4,142.7c0.4-0.8,0.3-1.6-0.2-2.3c-0.4-0.7-1.3-1.3-2.1-1.3c-0.1,0-0.1,0.1-0.1,0.2
				c0.4,0.5,1,0.7,1.4,1.2C105,141,105.4,141.8,105.4,142.7C105.3,142.7,105.3,142.7,105.4,142.7L105.4,142.7z"/>
		</g>
	</g>
	<g>
		<g>
			<path class="st6" d="M102.7,142.8c0.1-0.6,0-1.3-0.2-1.8c-0.2-0.5-0.5-1.2-1-1.3c-0.1,0-0.2,0.1-0.2,0.2c0,0.5,0.5,0.8,0.7,1.2
				c0.3,0.5,0.5,1.1,0.6,1.7C102.5,142.9,102.7,142.9,102.7,142.8L102.7,142.8z"/>
		</g>
	</g>
	<g>
		<g>
			<path class="st6" d="M32.9,141.5c0.6-1.1,0.6-2.3-0.3-3.3c-0.7-0.8-2.2-1.8-3.4-1.6c-0.1,0-0.2,0.1-0.2,0.2
				c-0.1,0.4,0.7,0.5,0.9,0.6c0.5,0.2,1,0.4,1.5,0.8c1,0.7,1.4,1.9,1.1,3.1C32.6,141.6,32.8,141.7,32.9,141.5L32.9,141.5z"/>
		</g>
	</g>
	<g>
		<g>
			<path class="st6" d="M32.9,140.3c-0.5,2.6-11.7,1.7-13.3,0.5c-0.1-0.1-0.2,0.1-0.2,0.2c0.3,2,5.9,1.9,7.3,2
				c1.3,0.1,8,0.3,6.3-2.7C33,140.2,32.9,140.2,32.9,140.3L32.9,140.3z"/>
		</g>
	</g>
	<g>
		<g>
			<path class="st6" d="M31.2,141.8c0.4-0.8,0.3-1.6-0.2-2.3c-0.4-0.7-1.3-1.3-2.1-1.3c-0.1,0-0.1,0.1-0.1,0.2
				c0.4,0.5,1,0.7,1.4,1.2C30.9,140.1,31.3,141,31.2,141.8C31.1,141.8,31.2,141.9,31.2,141.8L31.2,141.8z"/>
		</g>
	</g>
	<g>
		<g>
			<path class="st6" d="M29,141.8c0.1-0.6-0.1-1.2-0.4-1.7c-0.3-0.4-0.7-1.2-1.2-1.2c-0.1,0-0.2,0-0.2,0.2c0,0.5,0.5,0.8,0.8,1.1
				c0.4,0.5,0.8,1,0.9,1.7C28.8,141.9,28.9,141.8,29,141.8L29,141.8z"/>
		</g>
	</g>
	<g>
		<g>
			<path class="st6" d="M40.3,140c0.6-1.1,0.5-2.3-0.3-3.3c-0.7-0.9-1.8-1.7-3-1.5c-0.2,0-0.3,0.1-0.3,0.3c-0.1,0.2,0.1,0.3,0.3,0.4
				c0.2,0.1,0.6,0.1,0.8,0.1c0.3,0.1,0.6,0.2,0.9,0.4c1.1,0.8,1.7,2.1,1.3,3.4C40,140,40.2,140.1,40.3,140L40.3,140z"/>
		</g>
	</g>
	<g>
		<g>
			<path class="st6" d="M40.3,138.7c-0.5,0.5-0.9,1.1-1.7,1.3c-0.8,0.2-1.6,0.2-2.4,0.3c-1.1,0.1-2.3-0.1-3.3,0.3
				c-0.1,0-0.1,0.2,0,0.2c0.6,0.3,1.1,0.3,1.7,0.4c1.2,0.1,2.4,0.2,3.6,0.1c1.3-0.1,2.8-1,2.2-2.5C40.4,138.7,40.4,138.6,40.3,138.7
				L40.3,138.7z"/>
		</g>
	</g>
	<g>
		<g>
			<path class="st6" d="M38.6,140.3c0.4-0.8,0.3-1.6-0.2-2.3c-0.4-0.7-1.3-1.3-2.1-1.3c-0.1,0-0.1,0.1-0.1,0.2
				c0.4,0.5,1,0.7,1.4,1.2C38.3,138.5,38.7,139.4,38.6,140.3C38.5,140.3,38.6,140.3,38.6,140.3L38.6,140.3z"/>
		</g>
	</g>
	<g>
		<g>
			<path class="st6" d="M35.9,140.4c0.1-0.6,0-1.3-0.2-1.8c-0.2-0.5-0.5-1.2-1-1.3c-0.1,0-0.2,0.1-0.2,0.2c0,0.5,0.5,0.8,0.7,1.2
				c0.3,0.5,0.5,1.1,0.6,1.7C35.8,140.4,35.9,140.5,35.9,140.4L35.9,140.4z"/>
		</g>
	</g>
	<g>
		<g>
			<path class="st6" d="M119.1,140.3c1-1.7-0.1-4.6-2.3-4.5c-0.4,0-0.5,0.6-0.1,0.7c0.8,0.2,1.2,0.4,1.7,1.1
				c0.5,0.8,0.6,1.6,0.4,2.5C118.7,140.4,119,140.5,119.1,140.3L119.1,140.3z"/>
		</g>
	</g>
	<g>
		<g>
			<path class="st6" d="M119.1,139.1c-0.4,1.9-5.2,1.6-6.7,1.8c-1.8,0.2-3.6-0.1-5.3,0.2c-0.1,0-0.1,0.2,0,0.3
				c1.6,0.6,14.4,1.4,12.2-2.3C119.2,139,119.1,139,119.1,139.1L119.1,139.1z"/>
		</g>
	</g>
	<g>
		<g>
			<path class="st6" d="M117.4,140.6c0.4-0.8,0.3-1.6-0.2-2.3c-0.4-0.7-1.3-1.3-2.1-1.3c-0.1,0-0.1,0.1-0.1,0.2
				c0.4,0.5,1,0.7,1.4,1.2C117.1,138.9,117.5,139.7,117.4,140.6C117.3,140.6,117.4,140.7,117.4,140.6L117.4,140.6z"/>
		</g>
	</g>
	<g>
		<g>
			<path class="st6" d="M114.7,140.7c0.1-0.6,0-1.3-0.2-1.8c-0.2-0.5-0.5-1.2-1-1.3c-0.1,0-0.2,0.1-0.2,0.2c0,0.5,0.5,0.8,0.7,1.2
				c0.3,0.5,0.5,1.1,0.6,1.7C114.6,140.8,114.7,140.8,114.7,140.7L114.7,140.7z"/>
		</g>
	</g>
</g>
</svg>
