<?xml version="1.0" encoding="utf-8"?>
<!-- Generator: Adobe Illustrator 22.1.0, SVG Export Plug-In . SVG Version: 6.00 Build 0)  -->
<svg version="1.1" id="Card_1" xmlns="http://www.w3.org/2000/svg" xmlns:xlink="http://www.w3.org/1999/xlink" x="0px" y="0px"
	 viewBox="0 0 155.9 155.9" style="enable-background:new 0 0 155.9 155.9;" xml:space="preserve">
<style type="text/css">
	.st0{clip-path:url(#SVGID_2_);}
	.st1{fill:#FFFFFF;}
	.st2{fill:#DDDDDD;}
	.st3{fill:#777777;}
	.st4{fill:#2D2D2D;}
	.st5{clip-path:url(#SVGID_4_);}
	.st6{fill:#010202;}
</style>
<g id="Colours">
	<g>
		<g>
			<defs>
				<path id="SVGID_1_" d="M9.1,133.2c-0.1,0.9,0.2,1.5,0.4,2.4s0.7,1.7,1.6,2.1c0.6,0.3,1.4,0.9,2.1,0.9c1.9,0,1.4,0.9,3.2,0.4
					c3.1,0.4,3.1-2.5,3.2-3s0-1.1-0.2-1.5c-0.3-0.9-0.7-1.7-1.4-2.4V132c0.2-2.5,0.9-4.2,2.6-5.2c4.7-3,10.2-4.6,15.3-6.4
					c3.7-1.3,7.5-3.4,10.8-5.7c1.2,1,1.5,2.9,1.1,4.4c-0.3,1.6-1.3,2.9-1.9,4.4c-0.6,1.4-1.2,3.1-0.9,4.6l0.2,0.6
					c0.7,2.2,2.1,3.9,3.1,6c1.6,0.7,4.1,1.5,6.3,1.5l0.7-0.1c3.1,0,3.7-2.4,3.2-3.2l-1.7-1.3c-1.1-1.2-2.2-2.2-1.5-4.4
					c0.9-1.9,2.8-3.1,4.5-4.4c4.9-3.9,8.7-10.8,10-17.1c4.9,0.4,10,1.5,14.1,3c6.3,2.2,11.9,2.6,18.1,0.7c0,1.1-0.1,1.9-0.3,3
					c-0.5,2.2-1.4,4.5-1.4,6.8c-0.1,2.9,1,5.8,2,8.5c-0.5-0.2-1.1-0.5-1.4-1c0.2,2,0.6,3.6,1.7,5.5c-0.2,1.7,0.7,3.4,2.2,4.3
					c1.4,0.9,3.2,1,4.8,0.9c0,0,3.1-0.2,4.1-1.4s-1.1-4.1-2.5-4.7c0.6-8.1,2.5-17.1,3.7-19.7c1.6,3.9,4.7,8.1,4.7,10.4
					c0,1.1-2,11,2.9,13.2c3.4,1.5,8.2-8.5,5.9-13.7c-4.2-9.4-5.7-19.9-5.7-19.9c3.5-3.5,3.2-4.1,6.3-8c5.8-7.6,4.8-15.9,4.8-15.9
					s1.3,0.5,1.6,3.5c2.2-7,3-14.4,2-21.7L137,57c-0.2-4.9-2.9-7.3-1.2-8c1.4-0.2,1.6-0.5,3-0.7c1.6-0.2,3-1,4.5-1.7
					c1.4-0.7,2.6-2.1,2.7-3.9c0.9-0.6,1.6-1.5,1.9-2.5c0.5-1.3,0.4-2.8-0.1-4c0-0.6,0-1.5-0.4-1.8c-0.5-0.5-5.9,0-7.7,0.4
					c-2,0.5-5.1-0.5-5.2-1.5c-0.5-1.3,0.1-1-1-1.4c-2-1-4.5-1.5-6.7-1.3c0-1.1-0.4-2.1-1.1-3c-0.2-0.3-0.4-0.5-0.7-0.6s-0.7-0.2-1,0
					s-0.4,0.5-0.5,0.9c-0.5,1.2-0.7,1.7-1.3,2.9c-0.9-1.7-1.8-2.9-2.4-2.9c-1.4-0.1-2.1,1.6-2.4,2.1c-0.5,1.4-0.7,2.9-0.9,4.5l0,0
					c-4.6,2.5-7.4,7.3-9.7,12.1c-2.4,4.8-4.4,9.8-8.3,13.3c-7.9,0.7-15.4,4-18.4,5.1c-9.5,3.9-24.8,3.4-31.1-1.2
					c-1-0.7-1.1-1.1-1.4-1.6s-1.1-3.9-0.3-5.5c0.9-1.6,2.7-2.7,4.5-2.6c1.5,0.1,2.8,1.1,3.7,2.2c1,1.2,1.6,2.6,2.1,4
					c0.3-0.9,0.6-2.2,0.3-3.7c1.6,3.1,4.2,5.6,7.2,7.1v-0.1c0.2-1.2,0.2-2.7-0.2-3.9c0.7,0.6,1.3,1.2,1.6,2.2c1.1-2.8,1.2-6.1,0.1-9
					s-3.3-5.5-6-6.7c2.5,0.4,4.6,1.5,6.2,3.3c-2-3.3-6.6-6.4-10.4-7c1.2-0.9,2.5-1.2,3.9-1.3c-1.9-0.7-5-1.3-7.1-0.6
					c1-1,2.7-1.3,3.9-1.9c-2.7-0.4-5.7-0.4-7.9,1.2c1.3-1.2,3.3-2.8,4.6-2.8c-3.3-0.3-6.7,0.5-9.3,2.7c0.3-1.2,1-2.4,1.9-3.2
					c-4.5,0.9-8.7,4-10.9,8.1c-0.1-1.5,0.5-2.9,1.5-4.1c-1.9,0.9-3.5,2.4-4.6,4.3s-1.5,4.1-1.3,6.2c-1.1-1.4-1.5-3.2-1-4.8
					C28.6,48.9,28,52,28.3,55c0.3,3,1.6,6.1,3.5,8.2c-1.5-1-3-2.2-4-3.9c1.6,4.6,4.8,8.9,8.5,12c-1.3,1-1.9,2.6-2.5,4.1
					c1-1.4,2.5-2.4,4.1-2.6c-1.7,1.9-2.8,4.9-3,7.5c0.7-1.8,2-3.3,3.6-4.3c-1.2,1.4-2,3.3-1.8,5.1C31.8,87,29.6,92,28.4,99.8
					c-1.3,8.9-5.7,13.3-9.6,15.6c-2.6,1.9-2.4,5.8-4.1,8.7c-1.1,1.9-2.8,3.2-4.1,4.9C9.3,130.4,9.1,131.5,9.1,133.2z"/>
			</defs>
			<clipPath id="SVGID_2_">
				<use xlink:href="#SVGID_1_"  style="overflow:visible;"/>
			</clipPath>
			<g id="Base_1_" class="st0">
				<rect x="7.7" y="25.3" class="st1" width="142.7" height="115"/>
				<g id="Light_1_">
					<g>
						<path class="st2" d="M85.1,107.1L85.1,107.1c0.2-0.3,0.3-0.6,0.5-1c-7.8,0.7-17.9-4.7-25.8-3.4c-1.2,2.1-4.9,8.1-9.4,11.8
							c-0.3-0.5-0.1-2.4-0.1-2.4s-2.7,1.8-2.9,3.1c-0.2,1.3,0.6,2.5,0.5,3.7c-0.2,2.7-2.8,5.2-3.6,7.8c-0.9,2.6,3.4,8,3.9,7.5
							c0.2-0.3-2.2-6.4,3.2-9.8c5-3.2-0.2-7.2,3.9-9c2.4-1.1,7.1,0,10.9,0.2c1.1-1,1.8-5.6,3-6.5c1.9-1.4,5.6,1.1,7.9,1.6
							c2.4,0.5,4.5,1.5,6.8,2.2c4.3,1.3,9,1.4,13.4,0.2c3-0.9,6.4-1.3,4.1-8.1c-2-0.9-6,1.1-8,1.3C90.5,106.4,87.8,106.8,85.1,107.1
							z"/>
					</g>
					<g>
						<path class="st2" d="M43.4,115.4L43.4,115.4c-4.2,1.2-8.2,2.2-12.4,3.4c-2.9,0.7-5.7,1.6-8.3,3s-5,3.4-6.3,6.2
							c-0.5,1.2-0.9,2.6-0.4,3.7c0.5,1.5,2.1,2.6,2.4,4.2c0.1,0.9-0.2,2,0.4,2.6c0.6,0.5,1.7,0,2.4-0.6c7.3-6.1,14.6-12.4,21.6-18.9
							c1.8-1.7,4.3-3.4,5.8-5.4C46.8,114.4,45.1,114.9,43.4,115.4z"/>
					</g>
					<g>
						<path class="st2" d="M110.4,127.3L110.4,127.3c0.1,2-0.1,3.6,2.6,5.5c2.2-1.3,12.4,4.7,11,2.5c-2-3.3-2.8-13.1-3-15.7
							s-5.2-6.2-4.6-8.7c0.7-2.9,2.5-5.4,4.4-7.5s4.2-4.1,6-6.3c4.4-5.1,7-11.9,7.3-18.7c-1.1,5.9-3.7,11.5-7.6,15.7
							c-1.6,1.8-3.4,3.4-5.1,5.1c-1.7,1.8-3,3.7-4.5,5.8c-3,3.9-4.8,8.5-5.8,13.3C110.6,121.2,110.3,124.2,110.4,127.3z"/>
					</g>
					<g>
						<path class="st2" d="M137.4,76.5L137.4,76.5c1.7-4.3,1.4-9.1,1.3-13.8c-0.1-4.6,0.1-9.6,2.7-13.5c1.5-2.2,3.7-4.1,4.8-6.6
							c-1.9,1.7-4.6,1.9-7.1,2.1c-1.9,0.2-5,0.4-6.4,2.1c-1.3,1.6,1,4.3,1.7,5.9c2,4.7,3.2,9.8,3.4,15
							C138,70.7,137.9,73.6,137.4,76.5z"/>
					</g>
					<g>
						<path class="st2" d="M44,74.4L44,74.4c-1.2,0.1-2.2,0.3-3.4,0.4c0.6-1.4,1-2.8,1.1-4.3c-0.3,0.2-0.5,0.4-0.9,0.6
							c-2.7-2.9-4.7-6.4-5.9-10.3c-0.2,0.5-0.4,1.1-0.5,1.6c-2.7-7.9-1.5-17.1,3.1-24.1c-2.5,0-4.7,1.3-6.5,2.9
							c-4.1,3.5-6.6,8.8-7.8,14.1c-1.1,5.4-0.7,11,0.2,16.5c0.3,1.9,0.9,3.9,1.7,5.6c0.9,1.7,2.2,3.2,4.1,4c2.2,0.9,6.1,0.6,8.3-0.5
							c1.1-0.6,1.8-1.7,2.7-2.7C41.3,76.8,42.6,75.5,44,74.4z"/>
					</g>
					<g>
						<path class="st2" d="M57.8,44.2L57.8,44.2c3.9-0.1,7.6,1.5,10.3,4.4c2.6,2.9,4,7,3.6,10.8c-0.1,0.7-0.2,1.6-0.6,2.2
							c-1.2,1.8-3.2,0.9-3.5-1c-0.4-2.1-0.4-4.2-1.2-6.3C64.8,49.9,61.7,46.3,57.8,44.2z"/>
					</g>
					<g>
						<path class="st2" d="M46.8,42.5c0.6-2,1.9-3.9,3.6-5.1l0,0c1.6-1.1,3.5-1.7,5.5-1.5c1.4,0.1,3.1,1.6,1.3,2.6
							c-0.5,0.3-1.4,0.1-2,0.2c-1,0.2-1.8,0.5-2.8,1C51.4,40.1,47.1,41.5,46.8,42.5z"/>
					</g>
					<g>
						<path class="st2" d="M37.1,55.8c-2.6-10.3-0.9-13.6,1-16.5c1-1.6,3.7-2.9,8.8-3C37.4,40.3,36.4,48,37.1,55.8z"/>
					</g>
				</g>
				<g id="Dark_1_">
					<g>
						<g>
							<path class="st3" d="M21.9,103.7c0,5.1,6.4,7.4,10.7,7.5c3.7,0.1,7.5-1.3,10.4-3.9c0,0-0.5,1.9-1.2,3
								c2.8-0.4,15.1-5.5,18.1-19c3.9,6.5,9,9.5,15.1,10.7s16.3-3.3,16.3-3.3c-0.2,0.1-1.3,1.9-1.4,3.4c2.7-2,8.5-4.4,12.9-3.4
								c2.1,0.4,4.4,1.4,6.5,1.2c3.1-0.4,7-3.4,7.3-6.7c0.7-7.9,3-7.6,5.5-8.3c2.4-0.9,4.6-2.5,5.8-4.8c2.6-5.5,4.9-12.5,4.6-15.3
								c-0.5-4.2-3.2-7.7-5.7-11c0,0.1,0.1,0.3,0.1,0.4c-1.2-1.4-1.7-3.4-1.2-5.2c-0.2,0.3-0.3,0.7-0.5,1.1c-1.4-6,2-9.2,6.2-10
								c1.5-0.3,3.5-0.4,4-1.9c0.2-1-0.4-1.9-1.4-2c-0.9-0.1-1.8,0.7-1.8,1.7c-0.6-0.9-0.7-2.2-0.3-3.2c-0.9-0.5-1.8-1.1-2.7-1.6
								c1.8-0.6,2.6-0.7,5.4-0.1c0.4,0.1,0.1-0.4-0.3-0.9c-0.2-0.2-5.6-1.1-8.3-0.9c0-1.6-0.4-4.8-1.4-6.5c-0.2-0.4-0.3-0.9-0.5-1.2
								c-0.6-0.6-2.1,0.2-2.9,0.5c-3.2,1.5-5.6,4.3-7.8,7.1c-5.2,6.7-10.1,13.9-15.9,20c-5.7,6-12.1,11.6-19.9,14
								c-4.9,1.5-7.4,1.2-11.8-1.5c-1.8-1-5.5-3.6-6.8-9.7c-0.5-2.7-4.1-4.1-6.7-4.2c-2.7-0.1-5.2,1.6-6.6,4c-1.4,2.4-1.6,5.4-0.9,8
								c0.6,2.2,1.8,4.3,1.8,6.6c0,2.4-1.3,4.5-2.8,6.2c-4.6,5.4-11.3,8.1-15.9,13.4C24,92.1,21.9,97.9,21.9,103.7z M118.5,30.2
								c0.2-0.5,0.5-1,1-1.2c0.6-0.3,1.4-0.1,1.8,0.9c0.4,0.6,1.3,2.6,2.2,4.6c-0.6-0.1-2.1-0.4-3.5-0.2c0.1-0.2,1.1-0.6,1.1-0.6
								c-1.5,0.5-1.6-1.8-1.6-1.8c-0.5,2.1-0.4,3.2,0.4,6.2C117.8,35.9,117.5,32.5,118.5,30.2z"/>
						</g>
					</g>
					<g>
						<path class="st4" d="M113,41.9c0,0.9,0.2,2.8-0.2,3.5c-0.5,1-1.6,1.5-2.5,2.1c-3.4,2.1-4.4,8.6-9.2,13.7
							c0.5,0.4,3,2.9,3.6,4.9c1,3-1.6,3.2-0.4,10c-1.3-1.7-4.5-6-4.8-8.1s1.2-2.2-1.4-5.1c-1.4-1.6-3.6-0.7-5.1,0.7
							c-3.9,3.6-10.1,8.6-14.7,7.1c-1.7-0.5-3.2-1.5-4.9-1.7c-3.5-0.5-6.8,2.1-10.4,2.1c-1.8,0-3.4-0.6-5.1-1.3
							c-1.7-0.5-3.5-1-5.2-0.5c-1.7,0.4-2.9,1.8-3.1,3.9c-2.7-6.1-0.3-4.8-0.9-7.6c-0.3-1.6-5.2-5-1-10.1c0.5-1.1,3.7,5.5,4.9,5.2
							c5.8-0.7,11,3.3,16.8,3.9c4.4,0.4,8.7-1.2,12.5-3.3c8.1-4.5,15-11.2,19.6-19.5c2-3.6,3.7-7.6,7.1-10c1.5-1.1,3.4-1.8,5.1-1.4
							l3.5,0.5c0.1,1.6,0.1,2-0.2,5.1C115.5,38.1,113,39,113,41.9z"/>
					</g>
				</g>
			</g>
		</g>
	</g>
	<g>
		<g>
			<defs>
				<path id="SVGID_3_" d="M9.1,133.2c-0.1,0.9,0.2,1.5,0.4,2.4s0.7,1.7,1.6,2.1c0.6,0.3,1.4,0.9,2.1,0.9c1.9,0,1.4,0.9,3.2,0.4
					c3.1,0.4,3.1-2.5,3.2-3s0-1.1-0.2-1.5c-0.3-0.9-0.7-1.7-1.4-2.4V132c0.2-2.5,0.9-4.2,2.6-5.2c4.7-3,10.2-4.6,15.3-6.4
					c3.7-1.3,7.5-3.4,10.8-5.7c1.2,1,1.5,2.9,1.1,4.4c-0.3,1.6-1.3,2.9-1.9,4.4c-0.6,1.4-1.2,3.1-0.9,4.6l0.2,0.6
					c0.7,2.2,2.1,3.9,3.1,6c1.6,0.7,4.1,1.5,6.3,1.5l0.7-0.1c3.1,0,3.7-2.4,3.2-3.2l-1.7-1.3c-1.1-1.2-2.2-2.2-1.5-4.4
					c0.9-1.9,2.8-3.1,4.5-4.4c4.9-3.9,8.7-10.8,10-17.1c4.9,0.4,10,1.5,14.1,3c6.3,2.2,11.9,2.6,18.1,0.7c0,1.1-0.1,1.9-0.3,3
					c-0.5,2.2-1.4,4.5-1.4,6.8c-0.1,2.9,1,5.8,2,8.5c-0.5-0.2-1.1-0.5-1.4-1c0.2,2,0.6,3.6,1.7,5.5c-0.2,1.7,0.7,3.4,2.2,4.3
					c1.4,0.9,3.2,1,4.8,0.9c0,0,3.1-0.2,4.1-1.4s-1.1-4.1-2.5-4.7c0.6-8.1,2.5-17.1,3.7-19.7c1.6,3.9,4.7,8.1,4.7,10.4
					c0,1.1-2,11,2.9,13.2c3.4,1.5,8.2-8.5,5.9-13.7c-4.2-9.4-5.7-19.9-5.7-19.9c3.5-3.5,3.2-4.1,6.3-8c5.8-7.6,4.8-15.9,4.8-15.9
					s1.3,0.5,1.6,3.5c2.2-7,3-14.4,2-21.7L137,57c-0.2-4.9-2.9-7.3-1.2-8c1.4-0.2,1.6-0.5,3-0.7c1.6-0.2,3-1,4.5-1.7
					c1.4-0.7,2.6-2.1,2.7-3.9c0.9-0.6,1.6-1.5,1.9-2.5c0.5-1.3,0.4-2.8-0.1-4c0-0.6,0-1.5-0.4-1.8c-0.5-0.5-5.9,0-7.7,0.4
					c-2,0.5-5.1-0.5-5.2-1.5c-0.5-1.3,0.1-1-1-1.4c-2-1-4.5-1.5-6.7-1.3c0-1.1-0.4-2.1-1.1-3c-0.2-0.3-0.4-0.5-0.7-0.6s-0.7-0.2-1,0
					s-0.4,0.5-0.5,0.9c-0.5,1.2-0.7,1.7-1.3,2.9c-0.9-1.7-1.8-2.9-2.4-2.9c-1.4-0.1-2.1,1.6-2.4,2.1c-0.5,1.4-0.7,2.9-0.9,4.5l0,0
					c-4.6,2.5-7.4,7.3-9.7,12.1c-2.4,4.8-4.4,9.8-8.3,13.3c-7.9,0.7-15.4,4-18.4,5.1c-9.5,3.9-24.8,3.4-31.1-1.2
					c-1-0.7-1.1-1.1-1.4-1.6s-1.1-3.9-0.3-5.5c0.9-1.6,2.7-2.7,4.5-2.6c1.5,0.1,2.8,1.1,3.7,2.2c1,1.2,1.6,2.6,2.1,4
					c0.3-0.9,0.6-2.2,0.3-3.7c1.6,3.1,4.2,5.6,7.2,7.1v-0.1c0.2-1.2,0.2-2.7-0.2-3.9c0.7,0.6,1.3,1.2,1.6,2.2c1.1-2.8,1.2-6.1,0.1-9
					s-3.3-5.5-6-6.7c2.5,0.4,4.6,1.5,6.2,3.3c-2-3.3-6.6-6.4-10.4-7c1.2-0.9,2.5-1.2,3.9-1.3c-1.9-0.7-5-1.3-7.1-0.6
					c1-1,2.7-1.3,3.9-1.9c-2.7-0.4-5.7-0.4-7.9,1.2c1.3-1.2,3.3-2.8,4.6-2.8c-3.3-0.3-6.7,0.5-9.3,2.7c0.3-1.2,1-2.4,1.9-3.2
					c-4.5,0.9-8.7,4-10.9,8.1c-0.1-1.5,0.5-2.9,1.5-4.1c-1.9,0.9-3.5,2.4-4.6,4.3s-1.5,4.1-1.3,6.2c-1.1-1.4-1.5-3.2-1-4.8
					C28.6,48.9,28,52,28.3,55c0.3,3,1.6,6.1,3.5,8.2c-1.5-1-3-2.2-4-3.9c1.6,4.6,4.8,8.9,8.5,12c-1.3,1-1.9,2.6-2.5,4.1
					c1-1.4,2.5-2.4,4.1-2.6c-1.7,1.9-2.8,4.9-3,7.5c0.7-1.8,2-3.3,3.6-4.3c-1.2,1.4-2,3.3-1.8,5.1C31.8,87,29.6,92,28.4,99.8
					c-1.3,8.9-5.7,13.3-9.6,15.6c-2.6,1.9-2.4,5.8-4.1,8.7c-1.1,1.9-2.8,3.2-4.1,4.9C9.3,130.4,9.1,131.5,9.1,133.2z"/>
			</defs>
			<clipPath id="SVGID_4_">
				<use xlink:href="#SVGID_3_"  style="overflow:visible;"/>
			</clipPath>
			<g id="Details_1_" class="st5">
				<g>
					<path class="st4" d="M144.5,36.1c-0.1-0.3-0.2-0.6-0.2-1.1c0.1-0.3,0.2-0.5,0.4-0.7c0.4-0.5,0.9-1.1,1.4-1.4
						c0.5-0.3,1.3-0.5,1.8-0.3l0,0c1.5,0.5,2.2,3.3,1,4.4C147.5,38.3,145.4,38.1,144.5,36.1z"/>
				</g>
				<ellipse class="st4" cx="134" cy="36.8" rx="0.9" ry="0.9"/>
			</g>
		</g>
	</g>
</g>
<g id="Outlines">
	<g>
		<g>
			<path class="st6" d="M136.4,52.1c1.5,10.2,1.2,18.7-0.9,28.9c-0.1,0.3,0.3,0.4,0.4,0.1C139.7,72.3,139.8,61,136.4,52.1
				L136.4,52.1L136.4,52.1z"/>
		</g>
	</g>
	<g>
		<g>
			<path class="st6" d="M135.6,80.9c0-1,0-2.2-0.6-3c-0.2-0.2-0.6-0.3-0.9-0.4c-0.2-0.1-0.2,0.2-0.1,0.3c-0.1,0,0,0,0,0.1
				c0.1,0.2,0.1,0.3,0.2,0.5c0.4,0.9,0.7,1.6,1,2.6C135.4,81.1,135.6,81.1,135.6,80.9L135.6,80.9z"/>
		</g>
	</g>
	<g>
		<g>
			<path class="st6" d="M133.9,77.9c-0.9,12.6-9.1,20.9-17.8,29.3c-0.3,0.3,0.1,0.7,0.5,0.5c8.7-7.6,19-17.2,17.8-29.8
				C134.3,77.5,133.9,77.5,133.9,77.9L133.9,77.9z"/>
		</g>
	</g>
	<g>
		<g>
			<path class="st6" d="M117.2,103.9c-4.1,7.9-6,18.6-6.1,27.4c0,0.4,0.6,0.5,0.6,0.1c0.7-4.6,1.2-9.3,2-13.9
				C114.9,113,116.5,108.5,117.2,103.9L117.2,103.9L117.2,103.9z"/>
		</g>
	</g>
	<g>
		<g>
			<path class="st6" d="M111.2,131.3c0.2,0.6,1,1,1.4,1.5s2,2.8,0.6,3.2c-0.6,0.2-0.4,1.2,0.3,1.1c1.6-0.4,1.5-2,1-3.3
				C114,132.8,112.6,131.1,111.2,131.3L111.2,131.3L111.2,131.3z"/>
		</g>
	</g>
	<g>
		<g>
			<path class="st6" d="M113.6,136c-1.4,1.3-4.2,1-5.9,0.6c-2.5-0.3-4.3-1.8-4.7-4.4c0-0.1-0.1-0.1-0.1,0c-1.6,5.7,8.2,7.6,11.2,4.2
				C114.3,136.1,113.9,135.7,113.6,136L113.6,136z"/>
		</g>
	</g>
	<g>
		<g>
			<path class="st6" d="M103.2,132.6c0-1-0.6-1.8-0.9-2.8c-0.3-1.1-0.6-2.1-1-3.2c0-0.1-0.1-0.1-0.1,0c-0.1,0.5-0.2,1-0.1,1.5
				c0.1,0.6,0.3,1.4,0.5,2C102,131.1,102.3,132.1,103.2,132.6C103.2,132.7,103.2,132.6,103.2,132.6L103.2,132.6z"/>
		</g>
	</g>
	<g>
		<g>
			<path class="st6" d="M101.1,127c0.2,0.5,0.4,1.1,1,1.4c0.5,0.3,1.1-0.5,0.5-0.9c-0.4-0.2-0.7-0.4-1.1-0.7
				C101.3,126.6,101,126.7,101.1,127L101.1,127z"/>
		</g>
	</g>
	<g>
		<g>
			<path class="st6" d="M102.7,127.8c-0.7-2.8-1.7-5.5-1.6-8.5c0.1-2.8,1.4-5.5,1.7-8.1c0.4-2.8-0.1-4.9-1.4-7.4
				c0-0.1-0.2,0-0.1,0.1c1.2,5.1-0.4,8.9-1,13.8C99.8,121.3,101,124.6,102.7,127.8C102.6,127.9,102.7,127.8,102.7,127.8L102.7,127.8
				z"/>
		</g>
	</g>
	<g>
		<g>
			<path class="st6" d="M123.3,100.3c-2,4.5,0.4,9.7,1.9,14c1.3,3.5,3.2,7.4,2.7,11.2c-0.3,2.6-1.4,8-4,9c-0.6,0.2-0.4,1.3,0.3,1.1
				c3.6-1.1,5-8.5,4.9-11.7c-0.3-8.1-6.2-15.3-5.6-23.7C123.6,100.2,123.4,100.2,123.3,100.3L123.3,100.3z"/>
		</g>
	</g>
	<g>
		<g>
			<path class="st6" d="M49.5,115.2c0.4-0.5,0.6-1.1,0.9-1.7c0.1-0.4,0.4-1.2,0.1-1.6c-0.1-0.1-0.3-0.1-0.4,0
				c-0.3,0.3-0.2,1.1-0.3,1.5C49.7,113.9,49.6,114.5,49.5,115.2C49.3,115.2,49.5,115.3,49.5,115.2L49.5,115.2z"/>
		</g>
	</g>
	<g>
		<g>
			<path class="st6" d="M50.1,111.9c-5.1,4.2-10.7,6.6-16.9,8.8c-4.6,1.6-8.8,3.1-12.6,6.1c-0.1,0.1,0,0.3,0.2,0.2
				c9.5-4.3,22.9-6.2,29.9-14.8C50.8,112,50.3,111.7,50.1,111.9L50.1,111.9z"/>
		</g>
	</g>
	<g>
		<g>
			<path class="st6" d="M69.8,105.9c-1.9,4.1-3.3,8.2-6,11.9c-2.6,3.4-6.5,5.7-8.7,9.3c-0.3,0.5,0.4,1,0.7,0.4
				c2.6-4,7.4-6,10.1-10.1c2.2-3.3,4.3-7.5,4.3-11.5C70.3,105.7,69.9,105.6,69.8,105.9L69.8,105.9z"/>
		</g>
	</g>
	<g>
		<g>
			<path class="st6" d="M58.3,135.3c-2.8,0.4-6,0.6-8.7-0.9c-2.4-1.3-3.6-5.5-4.7-7.7c0-0.1-0.1,0-0.1,0c-0.3,1.8,0.2,3.2,1.1,4.8
				c0.7,1.4,1.3,3.2,2.8,4C51.2,136.7,56.2,137.7,58.3,135.3C58.4,135.4,58.3,135.3,58.3,135.3L58.3,135.3z"/>
		</g>
	</g>
	<g>
		<g>
			<path class="st6" d="M46.5,114.9c2.7,4.3-2.8,8.9-1.8,13.4c0.1,0.5,1,0.4,1-0.1c-0.2-2.5,0.7-3.9,1.9-5.9
				c0.6-1.1,1.2-2.4,1.3-3.6c0.1-1.7-0.4-3.1-1.9-4.1C46.6,114.4,46.4,114.7,46.5,114.9L46.5,114.9z"/>
		</g>
	</g>
	<g>
		<g>
			<path class="st6" d="M101.9,109.5c-2.8-0.4-5.6,0.6-8.5,0.6c-3.6,0-7.3-1-10.6-2.4c-0.3-0.1-0.5,0.4-0.2,0.5
				c5,2.5,14.4,5.1,19.4,1.5C102,109.8,102,109.5,101.9,109.5L101.9,109.5z"/>
		</g>
	</g>
	<g>
		<g>
			<path class="st6" d="M84.1,108.7c-8.3-3.2-18.1-5.5-26.8-2.2c-0.2,0.1-0.1,0.4,0.1,0.3c9-1.4,17.9-0.3,26.5,2.1
				C84.3,109,84.4,108.7,84.1,108.7L84.1,108.7z"/>
		</g>
	</g>
	<g>
		<g>
			<path class="st6" d="M60.6,99.9c-2.4,5.9-6.3,10.5-11,14.7c-0.3,0.2,0.1,0.7,0.4,0.5c5.2-3.5,9-9.1,10.9-15.1
				C60.9,99.8,60.6,99.8,60.6,99.9L60.6,99.9z"/>
		</g>
	</g>
	<g>
		<g>
			<path class="st6" d="M38.1,79.7c-5.8,5.1-9.8,13.4-10.2,21.1c0,0.3,0.4,0.3,0.4,0.1C30.7,93,33.5,86.4,38.1,79.7L38.1,79.7
				L38.1,79.7z"/>
		</g>
	</g>
	<g>
		<g>
			<path class="st6" d="M28.2,99.5c-1,3.5-1.9,7-4.1,10.1c-1.6,2.2-3.6,3.5-5.6,5.5c-0.2,0.2,0,0.5,0.3,0.5c6.1-2,9.4-10.2,9.7-15.9
				C28.6,99.3,28.3,99.3,28.2,99.5L28.2,99.5z"/>
		</g>
	</g>
	<g>
		<g>
			<path class="st6" d="M18.9,114.9c-1.3,0.7-1.9,1.7-2.6,3.1c-1.2,3-1.5,5.5-3.7,8c-2,2.4-5.5,5.6-3.2,8.8c0.1,0.2,0.4,0.1,0.4-0.1
				c-0.3-5.1,3.5-7.1,5.7-11.1c1.5-2.8,1.8-5.9,3.7-8.6C19.2,114.9,19,114.8,18.9,114.9L18.9,114.9z"/>
		</g>
	</g>
	<g>
		<g>
			<path class="st6" d="M21.8,126.1c-2.2,1.1-4.4,3.4-4.4,6c0,0.6,1,0.9,1.2,0.1c0.6-2.4,1.3-4.4,3.4-5.8
				C22.3,126.3,22.1,126,21.8,126.1L21.8,126.1z"/>
		</g>
	</g>
	<g>
		<g>
			<path class="st6" d="M17.7,132.2c0.2,1.5,1.7,2.8,1.3,4.4c-0.5,1.6-1.5,2.5-3.2,1.8c-0.6-0.2-1,0.9-0.3,1.1
				c1.9,0.6,3.4-0.1,4.2-2c0.7-1.8-0.1-4.1-1.6-5.4C18,132,17.7,132,17.7,132.2L17.7,132.2z"/>
		</g>
	</g>
	<g>
		<g>
			<path class="st6" d="M15.7,138.9c-1.3-0.3-2.6-0.6-3.7-1.3c-1.8-1-2.4-2.7-2.5-4.6c0-0.1-0.2-0.2-0.2,0c-0.3,1.3-0.5,2.2,0,3.6
				c0.3,0.9,1,1.4,1.8,1.8c1.2,0.6,3.4,1.8,4.7,0.7C15.9,139,15.8,138.9,15.7,138.9L15.7,138.9z"/>
		</g>
	</g>
	<g>
		<g>
			<path class="st6" d="M104.8,66.2c-0.9-2.4-3.2-6.3-5.7-7.3c-1.4-0.5-4.9,0.5-6.5,0.9c-2.8,0.6-5.6,1.6-8.2,2.6
				c-11.8,4.6-22.9,5-34.8,0.7c-0.3-0.1-0.5,0.3-0.2,0.5c8.2,4.6,18.5,5.4,27.5,2.9c4.1-1.2,8-3,12.1-4.3c2.5-0.7,5.9-2.1,8.5-2
				C100.6,60.3,103.3,63.6,104.8,66.2C104.7,66.2,104.8,66.2,104.8,66.2L104.8,66.2z"/>
		</g>
	</g>
	<g>
		<g>
			<path class="st6" d="M52.6,64.3c-2-0.4-3.6-1.3-4.5-3.3s-0.4-4.6,1.5-5.9c3.9-2.5,6.6,2.2,8.3,5c0.1,0.1,0.2,0,0.2-0.1
				c-0.6-2.6-1.8-5.4-4.5-6.5c-2-0.9-4.3-0.3-5.8,1.4C44.8,58.6,47.8,64.5,52.6,64.3L52.6,64.3L52.6,64.3z"/>
		</g>
	</g>
	<g>
		<g>
			<path class="st6" d="M58,60c0.5-0.9,1-1.9,0.7-2.9c-0.1-0.3-0.6-0.3-0.7,0c-0.1,1-0.1,1.8-0.3,2.8C57.7,60,57.9,60.1,58,60L58,60
				z"/>
		</g>
	</g>
	<g>
		<g>
			<path class="st6" d="M65.6,63.3c-1.3-1.1-2.8-1.8-4-3.1s-1.8-2.9-3.1-4.1c-0.2-0.2-0.5,0-0.5,0.3c0.2,1.7,1.8,3.2,3.1,4.3
				C62.4,61.8,63.9,63.1,65.6,63.3C65.6,63.4,65.6,63.4,65.6,63.3L65.6,63.3z"/>
		</g>
	</g>
	<g>
		<g>
			<path class="st6" d="M65.6,63.3c0.3-0.4,0.3-1.2,0.4-1.7c0-0.6,0-1.5-0.3-2.1c-0.2-0.3-0.7-0.2-0.6,0.2c0.1,0.6,0.3,1.2,0.4,1.7
				C65.5,62,65.3,62.7,65.6,63.3C65.5,63.3,65.5,63.3,65.6,63.3L65.6,63.3z"/>
		</g>
	</g>
	<g>
		<g>
			<path class="st6" d="M67,61.9c0-0.5-0.3-1.1-0.5-1.5s-0.5-1-1-1.3c-0.3-0.2-0.6,0.2-0.4,0.5c0.3,0.3,0.7,0.6,1.1,1.1
				c0.3,0.4,0.4,0.9,0.7,1.3C66.9,61.9,67,61.9,67,61.9L67,61.9z"/>
		</g>
	</g>
	<g>
		<g>
			<path class="st6" d="M67,61.6c3-6.1-0.2-12.7-5.8-15.7c-0.1-0.1-0.3,0.1-0.1,0.2C66.8,49.3,68.2,55.5,67,61.6
				C66.8,61.7,66.9,61.8,67,61.6L67,61.6z"/>
		</g>
	</g>
	<g>
		<g>
			<path class="st6" d="M67.3,49.4c-1.1-2.1-4.1-3.4-6.3-3.9c-0.4-0.1-0.5,0.5-0.2,0.6c1.3,0.2,2.5,0.7,3.5,1.3
				C65.5,48.1,66.3,48.9,67.3,49.4C67.3,49.5,67.5,49.5,67.3,49.4L67.3,49.4z"/>
		</g>
	</g>
	<g>
		<g>
			<path class="st6" d="M67.3,49.2c-1.9-3.5-6.2-7.3-10.4-7.3c-0.3,0-0.3,0.4-0.1,0.5C60.8,44,64.6,45.6,67.3,49.2
				C67.2,49.3,67.3,49.3,67.3,49.2L67.3,49.2z"/>
		</g>
	</g>
	<g>
		<g>
			<path class="st6" d="M60.8,40.8c-1.4-0.2-2.9,0.4-4,1.2c-0.2,0.1,0,0.5,0.2,0.3C58.1,41.6,59.4,41.4,60.8,40.8L60.8,40.8
				L60.8,40.8z"/>
		</g>
	</g>
	<g>
		<g>
			<path class="st6" d="M60.7,40.8c-1.6-1.3-5-1.4-7-0.7c-0.3,0.1-0.2,0.6,0.1,0.5c1.3-0.4,2.6-0.4,4-0.2c1,0.1,1.8,0.5,2.8,0.6
				C60.8,41,60.8,40.9,60.7,40.8L60.7,40.8z"/>
		</g>
	</g>
	<g>
		<g>
			<path class="st6" d="M35.3,80.1c0.6-0.9,1.1-1.7,1.8-2.5c0.4-0.4,0.9-0.7,1.3-1.1c0.3-0.2,0.5-0.3,0.6-0.7c0-0.1,0-0.2-0.1-0.2
				c-0.7-0.2-1.8,1.1-2.2,1.6C36.2,78,35.5,79,35.3,80.1L35.3,80.1L35.3,80.1z"/>
		</g>
	</g>
	<g>
		<g>
			<path class="st6" d="M35.2,79.8c0.4-1.3,0.7-2.7,1.3-3.9s1.3-2,1.9-3.1c0.1-0.2-0.1-0.3-0.2-0.2C36.3,74.2,34.9,77.3,35.2,79.8
				C35.1,79.9,35.2,79.9,35.2,79.8L35.2,79.8z"/>
		</g>
	</g>
	<g>
		<g>
			<path class="st6" d="M38.3,72.5c-1.6,0.1-3.3,1.2-4.2,2.6c-0.1,0.1,0.1,0.3,0.2,0.2C35.4,73.9,36.5,73.2,38.3,72.5
				C38.5,72.6,38.5,72.5,38.3,72.5L38.3,72.5z"/>
		</g>
	</g>
	<g>
		<g>
			<path class="st6" d="M34.3,75.1c0.3-0.7,0.7-1.5,1.2-2.2c0.4-0.6,1.2-1.1,1.4-1.7c0-0.1-0.1-0.2-0.2-0.2c-0.6,0.1-1.3,1-1.6,1.6
				c-0.5,0.7-0.9,1.6-1.1,2.5C34.1,75.1,34.2,75.2,34.3,75.1L34.3,75.1z"/>
		</g>
	</g>
	<g>
		<g>
			<path class="st6" d="M36.6,70.7c-3.6-3.3-6.3-7.2-8.2-11.7c-0.1-0.1-0.3,0-0.2,0.1c1.4,4.7,4.3,8.9,8,12
				C36.5,71.3,37,70.9,36.6,70.7L36.6,70.7z"/>
		</g>
	</g>
	<g>
		<g>
			<path class="st6" d="M28.3,59.1c0.6,1.7,2.1,3.3,3.7,4.1c0.3,0.1,0.6-0.2,0.3-0.4c-0.7-0.5-1.4-1.1-2-1.7c-0.6-0.6-1.2-1.4-1.7-2
				C28.5,58.8,28.2,59,28.3,59.1L28.3,59.1z"/>
		</g>
	</g>
	<g>
		<g>
			<path class="st6" d="M32.4,62.8c-3.9-5.4-4.1-10.6-1.8-16.7c0-0.1-0.1-0.2-0.2-0.1c-3.6,5.1-2.6,12.6,1.8,16.9
				C32.2,62.9,32.5,62.8,32.4,62.8L32.4,62.8z"/>
		</g>
	</g>
	<g>
		<g>
			<path class="st6" d="M30.3,45.9c-0.5,1.7-0.3,3.7,1,5.1c0.2,0.2,0.4,0,0.3-0.2c-0.9-1.5-1.4-3-1.1-4.8
				C30.6,45.8,30.4,45.6,30.3,45.9L30.3,45.9z"/>
		</g>
	</g>
	<g>
		<g>
			<path class="st6" d="M31.6,50.9c0.2-4.6,1.6-8.2,5.7-10.5c0.1,0,0-0.1,0-0.1c-4.1,1.7-6.8,6.2-5.8,10.7
				C31.5,51,31.6,51,31.6,50.9L31.6,50.9z"/>
		</g>
	</g>
	<g>
		<g>
			<path class="st6" d="M37.2,40.2c-1.2,1.1-1.7,2.7-1.6,4.3c0,0.4,0.6,0.4,0.6,0C36.2,43,36.5,41.6,37.2,40.2
				C37.3,40.2,37.2,40.1,37.2,40.2L37.2,40.2z"/>
		</g>
	</g>
	<g>
		<g>
			<path class="st6" d="M36,44.4c1.6-1.8,3-3.6,5-5c1.8-1.3,3.9-1.9,5.9-2.9c0.1,0,0-0.2-0.1-0.2C42.4,36.1,37.3,40.3,36,44.4
				C35.9,44.4,35.9,44.4,36,44.4L36,44.4z"/>
		</g>
	</g>
	<g>
		<g>
			<path class="st6" d="M46.8,36.2c-1,0.7-1.9,1.9-2.1,3.2c-0.1,0.3,0.4,0.4,0.5,0.1c0.4-1.2,1-2.2,1.9-3.1
				C47.1,36.3,46.9,36.1,46.8,36.2L46.8,36.2z"/>
		</g>
	</g>
	<g>
		<g>
			<path class="st6" d="M44.9,39.8c2.8-1.9,6-2.8,9.3-2.8c0.2,0,0.2-0.3,0-0.3c-3.5-0.5-6.8,0.5-9.6,2.8
				C44.4,39.5,44.7,39.9,44.9,39.8L44.9,39.8z"/>
		</g>
	</g>
	<g>
		<g>
			<path class="st6" d="M54.3,36.6c-1.9,0.1-3.6,1.6-5,2.8c-0.3,0.3,0.2,0.7,0.4,0.4c1.2-1.2,2.9-2.8,4.6-3
				C54.5,36.8,54.5,36.6,54.3,36.6L54.3,36.6z"/>
		</g>
	</g>
	<g>
		<g>
			<path class="st6" d="M53.8,40.5c1.1-1,2.6-1.2,3.9-1.8c0.2-0.1,0.1-0.4-0.1-0.5c-2.6-0.4-6-0.5-8.1,1.3c-0.2,0.2,0,0.4,0.2,0.3
				c2.6-1.3,4.9-1.4,7.8-1.1c0-0.2-0.1-0.3-0.1-0.5c-1.3,0.6-2.7,1-3.9,2C53.3,40.4,53.5,40.6,53.8,40.5L53.8,40.5z"/>
		</g>
	</g>
	<g>
		<g>
			<path class="st6" d="M38.6,75.7c-1.3,1.5-1.9,3.2-1.7,5.1c0,0.4,0.6,0.4,0.6,0c-0.1-1.8,0.3-3.5,1.3-5L38.6,75.7L38.6,75.7z"/>
		</g>
	</g>
	<g>
		<g>
			<path class="st6" d="M117,33.9c-10.3,5-10.2,18.1-18.4,25.2c-0.5,0.5,0.3,1.4,0.9,0.9c7.3-7.6,9-19.4,17.8-25.7
				C117.3,34.1,117.2,33.8,117,33.9L117,33.9z"/>
		</g>
	</g>
	<g>
		<g>
			<path class="st6" d="M148.1,37.3c1-1.8,0.7-3.7-1.4-3.9c-2.7-0.2-10.1,2.2-11.6-0.5c-0.1-0.3-0.6-0.1-0.5,0.2c0.6,2,4,2,5.7,1.8
				c1.6-0.2,3.2-0.5,4.8-0.6c0.4,0,1.6-0.2,2,0C148.4,34.9,148,36.3,148.1,37.3C148,37.4,148.1,37.4,148.1,37.3L148.1,37.3z"/>
		</g>
	</g>
	<g>
		<g>
			<path class="st6" d="M135.5,33.9c-0.1-0.6-0.2-1.4-0.6-1.9c-0.2-0.3-1-0.9-1.4-0.6l-0.1,0.1c0.1,0.2,0.2,0.3,0.4,0.4
				c0.2,0.2,0.4,0.4,0.5,0.5C134.8,33,135.1,33.6,135.5,33.9C135.4,34,135.5,34,135.5,33.9L135.5,33.9z"/>
		</g>
	</g>
	<g>
		<g>
			<path class="st6" d="M134,31.5c-3-1.8-8.1-2.4-11.2-0.1c-0.1,0.1-0.1,0.3,0.1,0.3c1.7-0.2,3.4-0.9,5.1-0.9c1.9,0,4,0.4,5.8,1
				C134.1,32,134.2,31.6,134,31.5L134,31.5z"/>
		</g>
	</g>
	<g>
		<g>
			<path class="st6" d="M127.3,30.3c0.5-1.4-0.5-3.9-2-4.1c-0.7-0.1-1.2,0.3-1.4,1c-0.4,1.1-0.9,2-1.5,3.1c-0.2,0.3,0.4,0.6,0.5,0.2
				c0.3-0.9,1.2-4.2,2.5-3.4C126.4,27.7,126.6,29.3,127.3,30.3C127.2,30.5,127.2,30.3,127.3,30.3L127.3,30.3z"/>
		</g>
	</g>
	<g>
		<g>
			<path class="st6" d="M123.4,32.6c-0.2-1.8-1.9-7-4.6-5c-1.2,0.9-1.5,2.6-1.7,4c-0.3,1.9-0.6,4.3,0.2,6.1h0.1
				c0.2-2.8-0.5-5.6,1-8.2C120.3,25.5,122.7,31.1,123.4,32.6C123.4,32.7,123.4,32.7,123.4,32.6L123.4,32.6z"/>
		</g>
	</g>
	<g>
		<g>
			<path class="st6" d="M148.3,36c0,1.5,0.3,2.8-0.3,4.2c-0.5,1.2-1.4,1.7-2.2,2.7c0,0,0,0.1,0.1,0.1
				C148.5,42.5,150.1,38.1,148.3,36C148.3,35.9,148.3,35.9,148.3,36L148.3,36z"/>
		</g>
	</g>
	<g>
		<g>
			<path class="st6" d="M146.9,40.9c-2,2.5-4.2,3.4-7.3,3.4c-1.8,0.1-3.4,0.2-4.9,1.3c-0.1,0.1,0,0.3,0.1,0.2c1.6-0.4,3.1-0.9,4.8-1
				c1.2,0,2.5-0.1,3.6-0.4C145,43.9,146.2,42.7,146.9,40.9C147,40.9,147,40.9,146.9,40.9L146.9,40.9z"/>
		</g>
	</g>
	<g>
		<g>
			<path class="st6" d="M135.8,48.4c-0.9,0.5-0.7,1.5-0.4,2.4c0.6,2,1.5,4,1.9,6c0,0.1,0.1,0,0.1,0c0.2-1.7-0.1-3.1-0.5-4.8
				c-0.2-0.5-1.1-2.4-0.5-2.9C136.7,48.8,136.3,48.2,135.8,48.4L135.8,48.4z"/>
		</g>
	</g>
	<g>
		<g>
			<path class="st6" d="M146.2,42.4c-1.2,3.5-4.7,4.8-8.1,5.5c-2.1,0.4-5.5,1.7-6.1-1.4c0-0.1-0.1-0.1-0.1,0c-0.2,3,2.8,2.4,4.8,2.1
				c3.6-0.4,10-1.5,9.8-6.2C146.5,42.2,146.3,42.2,146.2,42.4L146.2,42.4z"/>
		</g>
	</g>
	<g>
		<g>
			<path class="st6" d="M147.1,36c-0.2,0.1,0,0-0.2,0.1c-0.1,0-0.3,0.1-0.4,0.1c-0.3,0-0.5-0.2-0.7-0.3c-0.3-0.2-0.5,0.1-0.4,0.4
				c0.1,0.6,0.4,1.1,1.2,1c0.6,0,1.1-0.5,1-1.2C147.4,36,147.3,35.9,147.1,36L147.1,36z"/>
		</g>
	</g>
	<g>
		<g>
			<path class="st6" d="M135.1,36.9c-0.3-0.4-0.6-1-1.1-1.3c-0.2-0.2-0.4-0.3-0.7-0.2c-0.3,0.2-0.4,0.5-0.4,0.9
				c-0.1,0.5,0,0.9,0.2,1.3c0.1,0.2,0.3,0.1,0.3,0c0-0.3,0.1-0.5,0.2-0.7c0-0.2,0-0.3,0.1-0.4c0.1-0.2,0.1-0.2,0-0.1
				c0,0,0.6,0.4,0.7,0.4S134.9,36.9,135.1,36.9C135.1,37.1,135.2,37,135.1,36.9L135.1,36.9z"/>
		</g>
	</g>
	<g>
		<g>
			<path class="st6" d="M126.5,42.1c-2,1.9-3,5.1-1.8,7.7c0,0.1,0.2,0,0.2,0C124.7,46.9,125,44.6,126.5,42.1
				C126.6,42.1,126.5,42.1,126.5,42.1L126.5,42.1z"/>
		</g>
	</g>
	<g>
		<g>
			<path class="st6" d="M125.7,48.3c-0.5,0.3-1.2,1-1,1.7c0,0.1,0.2,0.2,0.3,0c0.2-0.5,0.3-1.1,0.9-1.6
				C125.9,48.4,125.8,48.2,125.7,48.3L125.7,48.3z"/>
		</g>
	</g>
	<g>
		<g>
			<path class="st6" d="M125.9,48.3c-1.5,1.8-0.1,4.7,1.2,6.3c0,0,0.1,0,0.1-0.1c-0.3-1-0.9-1.8-1.2-2.9
				C125.7,50.6,125.8,49.5,125.9,48.3L125.9,48.3L125.9,48.3z"/>
		</g>
	</g>
	<g>
		<g>
			<path class="st6" d="M127.2,54.5c-0.1-0.7,0-1.5,0.2-2.2c0-0.1-0.1-0.1-0.1,0c-0.3,0.7-0.4,1.5-0.3,2.2
				C127,54.6,127.2,54.6,127.2,54.5L127.2,54.5z"/>
		</g>
	</g>
	<g>
		<g>
			<path class="st6" d="M108.4,137.4c1.2,0,1.4-1.3,1.1-2.1c-0.4-1-1.1-2.4-2.1-2.7c-0.1,0-0.2,0.1-0.1,0.2c0.3,0.6,0.9,1.1,1.2,1.8
				c0.3,0.7,0.5,1.9,0,2.6C108.2,137.2,108.2,137.3,108.4,137.4L108.4,137.4z"/>
		</g>
	</g>
	<g>
		<g>
			<path class="st6" d="M112.1,137.2c1-0.5,1.1-2.1,0.5-3.1c-0.6-1.3-2.1-2.1-3.4-2.5c-0.2,0-0.2,0.2-0.1,0.3c0.9,0.6,1.8,1.1,2.5,2
				c0.7,1.1,0.9,1.9,0.4,3.2C112,137,112.1,137.2,112.1,137.2L112.1,137.2z"/>
		</g>
	</g>
	<g>
		<g>
			<path class="st6" d="M56.1,136.1c1.1-0.2,1.2-1.8,1-2.6c-0.3-1.2-1.5-1.9-2.7-2.2c-0.2-0.1-0.3,0.2-0.1,0.3c1,0.4,1.8,1.1,2,2.1
				c0.1,0.4,0.1,0.9,0,1.3c-0.1,0.4-0.3,0.6-0.4,1.1C56,136,56,136.1,56.1,136.1L56.1,136.1z"/>
		</g>
	</g>
	<g>
		<g>
			<path class="st6" d="M50.3,132.1c0.4,0.5,1.1,1.1,1.4,1.7c0.2,0.3,0.4,0.9,0.3,1.2c-0.1,0.5-0.5,0.4-0.9,0.5
				c-0.2,0.1-0.3,0.3-0.1,0.5c0.7,0.7,1.8-0.4,1.9-1.2c0.1-1.6-1.4-2.1-2.5-3C50.4,131.8,50.2,132,50.3,132.1L50.3,132.1z"/>
		</g>
	</g>
	<g>
		<g>
			<path class="st6" d="M15.1,134c-0.1,0.6,0.2,1.3,0.3,1.9c0.1,0.7,0.2,2-0.3,2.5c-0.4,0.4,0.1,1.2,0.6,0.9
				c0.7-0.4,0.7-1.5,0.5-2.2C16.1,136.2,15.9,134.7,15.1,134L15.1,134L15.1,134z"/>
		</g>
	</g>
	<g>
		<g>
			<path class="st6" d="M12.7,134.6c-0.3,0.7-0.1,1.6-0.2,2.4c0,0.2-0.1,0.5-0.3,0.7c-0.1,0.1-0.2,0.1-0.2,0.1
				c-0.1,0.1-0.1,0.2-0.1,0.3c0.1,0.2,0.3,0.3,0.5,0.3c0.6-0.2,0.7-0.7,0.7-1.4C13.1,136.3,13.1,135.2,12.7,134.6L12.7,134.6
				L12.7,134.6z"/>
		</g>
	</g>
	<g>
		<g>
			<path class="st6" d="M17.7,134.6c0.1,0.6,0.4,1.2,0.4,1.8c0,0.7-0.4,1.3-0.5,2c-0.1,0.3,0.3,0.5,0.5,0.3
				C19,137.9,18.9,135.3,17.7,134.6L17.7,134.6L17.7,134.6z"/>
		</g>
	</g>
	<g>
		<g>
			<path class="st6" d="M55.6,127c-0.5,0-0.9,1-0.9,1.5c0,0.7,0.4,1.6,0.9,2.2c0.2,0.3,0.6,0,0.5-0.3c-0.4-0.7-0.3-1.5-0.3-2.4
				C55.8,127.8,56,127,55.6,127L55.6,127z"/>
		</g>
	</g>
	<g>
		<g>
			<path class="st6" d="M55.7,130.2c0,1.1,1.8,1.5,2.2,2.5c0.3,0.6,0.1,1.7-0.2,2.4c-0.3,0.5-0.9,0.6-1.4,1c-0.1,0.1-0.1,0.3,0,0.3
				c1.7,0.3,2.5-1.1,2.7-2.7c0.1-0.9-0.1-1.5-0.7-2C57.5,131.2,56.4,130.2,55.7,130.2L55.7,130.2L55.7,130.2z"/>
		</g>
	</g>
	<g>
		<g>
			<path class="st6" d="M124.1,135.1c-4-1.1-4.3-7.3-4-10.4c0.1-1.4,0.4-2.4,0.1-3.7c-0.9-3.4-4-6-4.8-9.3c-0.1-0.3-0.5-0.2-0.5,0.1
				c0.6,2.6,1.5,4.2,2.8,6.5c1.9,3.5,0.5,6.2,1,9.7c0.3,2.6,1.4,9.2,5.4,7.4C124.3,135.3,124.2,135.1,124.1,135.1L124.1,135.1z"/>
		</g>
	</g>
	<g>
		<g>
			<path class="st6" d="M123,128.5c0,1.9-1.3,3-2.9,3.9c-0.6,0.3-0.2,1.2,0.4,1.1c2-0.4,3-2.9,2.9-4.8
				C123.4,128.2,123,128.2,123,128.5L123,128.5z"/>
		</g>
	</g>
	<g>
		<g>
			<path class="st6" d="M125.2,130.5c-0.1,1-0.4,1.8-1,2.6c-0.3,0.4-0.6,0.7-1,1.1c-0.3,0.2-0.5,0.3-0.6,0.7c0,0.2,0.1,0.3,0.2,0.3
				c0.9,0.1,1.6-1.1,1.9-1.7c0.5-0.9,0.9-1.8,0.9-2.9C125.8,130.3,125.4,130.3,125.2,130.5L125.2,130.5z"/>
		</g>
	</g>
</g>
</svg>
