<?xml version="1.0" encoding="utf-8"?>
<!-- Generator: Adobe Illustrator 22.1.0, SVG Export Plug-In . SVG Version: 6.00 Build 0)  -->
<svg version="1.1" id="Card_1" xmlns="http://www.w3.org/2000/svg" xmlns:xlink="http://www.w3.org/1999/xlink" x="0px" y="0px"
	 viewBox="0 0 155.9 155.9" style="enable-background:new 0 0 155.9 155.9;" xml:space="preserve">
<style type="text/css">
	.st0{clip-path:url(#SVGID_2_);}
	.st1{fill:#D6742D;}
	.st2{fill:#BC5E1E;}
	.st3{fill:#EA8B48;}
	.st4{fill:#FFFFFF;}
	.st5{fill:#EDECEB;}
	.st6{fill:#0D101F;}
	.st7{fill:#DAA99A;}
	.st8{display:none;}
	.st9{display:inline;}
	.st10{fill:#1D1D1C;}
	.st11{fill:#010202;}
</style>
<g id="Colours">
	<defs>
		<path id="SVGID_1_" d="M100.2,126.7c0-2,0.3-4,0.3-6c-0.1-1.9-0.5-3.7-0.6-5.5c-0.1-1.8,0.2-3.6,0.4-5.3c0.2-1.8,0.5-3.6,0.7-5.4
			c0.2-1.5,0.8-4.2,1.4-5.6l1,0.4c-0.4,3.1-0.5,6.3-0.2,9.4c0.1,1.5,0.3,2.9,0.3,4.4c0,1.7-0.3,3.4-0.5,5
			c-0.8,6.1-0.2,12.4,1.6,18.3C101.8,133.6,100.3,130.9,100.2,126.7z M93.9,61c-3.6,0.6-7.2,0.1-10.8-0.3c-9.2-1-18.6-1-27.8,0
			c1.8-0.1,2.8-0.8,4-2.2c0.4-0.5,0.8-1,0.9-1.6c0.2-0.7,0-1.4-0.3-2c-1-2.4-3.5-4-6.1-4.2c-2.6-0.2-5.2,1.1-6.8,3.1
			S44.7,58.4,45,61c0.2,1.8,1,4.3-0.2,5.7c-1.5,1.9-3.2,3.5-4.6,5.5c-3.3,4.6-3.6,10.6-4.2,16.2c-0.7,6.6-2.1,13.1-4,19.4
			c-0.5,1.6-1.1,3.3-2.2,4.5c-0.6,0.7-1.4,1.3-1.9,2.1c-1.7,2.5-0.1,5.8,0.1,8.7c0.2,2.6-0.6,5.1-1.1,7.7c-0.5,2.6,0.6,5.6,2.2,6.5
			l1.6,0.4c1.3,0.3,2.8,0.2,4.1,0.3c0.4,0,0.8,0,1.1-0.1l0.7-0.7c0.4-0.8-0.1-1.7-0.7-2.3c-0.6-0.6-1.5-1-2-1.7
			c-0.6-0.8-1.1-1.8-1.2-2.8c-0.4-4-0.4-8.2,1.1-11.9c1.1-2.8,3.2-5.2,5.1-7.5c3.3-3.9,6.1-7.6,9-11.8c1,4.2-0.9,8.5-3.1,12.2
			c-0.9,1.7-2,3.4-2,5.3c0,1.1,0.5,1.9,0.7,3c1.1,5.1,2,8.1,3.2,12.5c0.3,1,1.3,2.8,2.4,2.9c0.5-0.1,1,0.2,1.4,0.3
			c0.5,0.1,1,0.1,1.5,0.1c0.4,0,0.8,0,1.2-0.2l0.6-0.2c0.8,0.1,1.7,0.4,2.5,0.1l0.1,0c0.8-0.3,1.3-1.1,1-1.9
			c-0.3-0.8-1.1-1.4-1.9-1.7c-0.8-0.4-1.7-0.6-2.4-0.9c-2.9-1.3-4.5-4.6-4.5-7.7s1.3-6.2,3-8.9c1.7-2.7,3.8-5.1,5.5-7.7
			c2.8-4.3,4.5-9.1,5.9-14c0.7-2.5,0.9-4.8,3.1-6.2c3.3,0.2,9.9,0.3,12.6,2.3c1.1,0.8,2,1.9,2.9,2.9c2.7,2.9,6.4,4.9,10.2,5.9l0,0
			c-0.3,1.7,0.1,2.8,0.5,4.5c0.8,3.6,1.1,7.2,1.4,10.9c0.2,1.9,0.3,3.8,0.5,5.7c0.2,2,0.3,4,0,6c-0.2,1.2-0.5,2.4-0.2,3.5
			c0.2,0.6,0.5,1.2,0.8,1.7c1.2,2.3,2.1,4.7,2.5,7.3c0.2,0.9,0.3,1.9,0.8,2.8c0.5,0.8,1.2,1.6,2.1,1.3c0.9,0.5,1.9,0.7,3,0.6
			c0.7-0.1,0.8-0.2,1.1-0.5c0.2,0.3,0.6,0.3,0.9,0.4c0.3,0,0.6,0.1,1,0.1l0.1-0.1c0.8,0,1.2-1,0.9-1.8l0-0.6
			c0.1,0.2,0.3,0.2,0.4,0.2c0.4,0.1,0.7,0.4,1.1,0.6c0.8,0.5,1.9,0.2,2.7-0.2c0.1-0.1,0.3-0.2,0.4-0.3l0.3,0.1
			c0.9,0.4,2.1,0.5,3.1,0.3c1.3-0.2,1.4-0.8,1.2-1.8c-0.1-0.5-1.7-2.2-2.1-2.5c-1.9-1.6-2.6-1.5-3.9-3.6c-1-1.6-1.5-3.4-1.8-5.2
			c-0.4-2.1-0.5-4.3-0.3-6.4c0.4-5.3,2.5-10.2,3.4-15.4c0.3-1.7,0.5-3.5,1.3-5.1c1.2-2.4,3.6-4,5.1-6.2c1.6-2.4,2-5.5,2.4-8.4
			c0.4-3.6,1.2-10.3,0.2-16c0.5-2.2,0.6-4.5,0.8-6.8c0.2-2.4,0.1-4.9-0.2-7.3c0.8-0.5,1.5-1.2,2.4-1.7c0.4-0.2,0.9-0.4,1.3-0.6
			c1.8-0.9,2.8-3.1,3.1-5.1c0.7-0.5,0.7-1.6,0.4-2.4c-0.3-0.7-0.9-1.2-1.5-1.6c-0.5-0.4-0.6-0.5-1-0.9c0.2-1,0.1-2-0.3-2.9
			c-0.2-0.5-0.4-1.1-0.2-1.6c0.1-0.2,0.2-0.4,0.4-0.5c0.5-0.6,0.8-1.4,0.9-2.1c0.1-0.8-0.1-1.6,0-2.3c0.1-0.6,0.2-1.2,0.4-1.8
			c0.8-3.5,0.1-7.3-2-10.2c0-0.1-0.1-0.1-0.2-0.2c-0.2-0.1-0.4-0.1-0.6,0.1c-0.2,0.1-0.3,0.3-0.4,0.5c-0.9,1.6-2.4,2.8-3.4,4.4
			c-0.7,1.2-1.1,2.6-1.8,3.8c-0.3,0.5-0.6,1-0.8,1.5c-0.2,0.7-0.2,1.4-0.2,2.1c-0.7,0-1.1,0.2-2.2,0.3c-1.5,0.2-2.8-0.2-4.3,0.2
			c-0.5-0.8-1.2-1.5-1.7-2.3c-1.8-2.5-3.3-7.7-5.6-9.3c-0.6,0.1-2.5,5.2-2.6,7.1c-0.1,1.9,0,3.7-0.2,5.6c0,0.6-0.1,1.2-0.1,1.7
			c0,0.7,0.2,1.3,0.4,2c0.1,0.4,0.2,0.7,0.3,1.1c0.1,0.2,0.1,0.4,0.2,0.6c0.1,0.2,0.2,0.3,0.3,0.5c0.1,0.2,0.1,0.3,0.2,0.5
			c0.4,1.6,0.9,3.1,1.7,4.6c0.1,1.9-0.7,6.7-0.6,7.4c0.1,0.5-0.5,1.9-0.5,2.4c0.1,1.7-0.6,2.3-1.3,3.3C99,59.2,96.7,60.5,93.9,61z"
			/>
	</defs>
	<clipPath id="SVGID_2_">
		<use xlink:href="#SVGID_1_"  style="overflow:visible;"/>
	</clipPath>
	<g id="Base" class="st0">
		
			<rect x="16" y="19.4" transform="matrix(-1 -4.489976e-11 4.489976e-11 -1 151.1835 193.3183)" class="st1" width="119.2" height="154.5"/>
		<g>
			<path class="st2" d="M92,98.2c-0.1-1.8,0.2-3.7,0.8-5.4c0.3-0.8,1-1.9-0.3-2c-1-0.1-1.4,1-2.5,0.2c-0.9-0.7-1-1.5-2.1-2
				c-1.1-0.5-1.5-0.7-2.3-1.6c-1.4-1.5-3.2-3.1-5.1-3.9c-3.1-1.2-7.8-1.7-11.1-1.1c-1.7,0.3-4.4,0.3-2.9,2.7
				c0.9,1.4,2.3,1.8,3.5,2.8c1.8,1.4,3.5,3.3,5.2,4.9c3.2,3,6.9,5.6,11,7.2C88,100.9,91.7,101.5,92,98.2z"/>
		</g>
		<g>
			<path class="st2" d="M52.1,62.6L52.1,62.6c-1.5-0.2-2.9-1-3.7-2.3s-1-2.9-0.4-4.3c0.7-1.5,2.5-2.4,4.2-2.2c0.7,0.1,1.4,0.4,2,0.8
				c0.6,0.3,1.1,0.7,1.5,1.2c0.4,0.5,0.6,1.2,0.5,1.8c-0.2,0.9-1.2,1.4-2.1,1.3c-0.9-0.1-1.7-0.6-2.3-1.3c0.1,0.1,0,2.2,0.1,2.6
				c0.3,0.9,0.9,1.6,1.6,2.2C53,62.7,52.6,62.7,52.1,62.6z"/>
		</g>
		<g>
			<path class="st3" d="M50.7,53c3-1.3,5.7,1,6.2,2.6c0.4,1.2-0.5,1.9-1.3,2.9c-0.8,1-3.6,0.4-4.3-0.7c0.1,2.5,1.9,3.1,3.2,3.3
				c2,0.3,4.4-0.6,5.9-2c1.5-1.4,2.3-3.6,1.6-5.6c-0.7-2-2.6-3.3-4.3-4.3c-1.5-0.9-3.1-1.7-4.9-1.8c-2.4-0.1-4.6,1.4-6.6,2.8
				c-0.9,0.6-1.8,1.2-2.4,2.1c-0.8,1.1-1.1,2.5-1.2,3.8c-0.3,3,0.2,6,1.4,8.7c0.2,0.5,0.5,1,1,1.1c0,0,0,0,0,0
				C46.9,61.7,44,55.8,50.7,53z"/>
		</g>
		<g>
			<path class="st2" d="M39.5,82.5C39.5,82.5,39.5,82.5,39.5,82.5c-0.1,2.2-0.6,4.3-1.1,6.4c-1.9,7.8-3.7,15.6-7.4,22.8
				c0.4-4.1,0.8-8.2,0.6-12.3c-0.1-2.1-0.2-4.1-0.2-6.2c0.1-3.2,0.7-6.4,1.3-9.6c0.5-2.4,1-4.8,2.1-7c0.7-1.3,3.5-5.8,5.2-3.3
				c0.7,1-0.4,2.9-0.5,3.9C39.4,79,39.6,80.8,39.5,82.5z"/>
		</g>
		<g>
			<path class="st2" d="M110.5,101.4L110.5,101.4c-0.8,0.7-1.6,1.4-2,2.3c-0.6,1.3-0.4,2.7-0.5,4.2c-0.1,2.8-1,5.5-1.5,8.3
				c-0.4,2.8-0.2,5.9,1.7,8c-0.6-0.7,1.8-6.7,2.1-7.7c0.9-2.7,1.9-5.4,2.9-8c0.8-2,6.4-14,4.6-15C115.3,96,113.2,98.9,110.5,101.4z"
				/>
		</g>
		<g>
			<path class="st2" d="M95.3,108.5L95.3,108.5c0.4,2.9,0.2,5.8-0.1,8.6c-0.4,4.3-0.7,8.5-1.1,12.8c-1.4-1.6-2-3.6-2.5-5.6
				c-1.6-6.4-2.3-13.1-2.3-19.7c0-1.3,0.4-7,2.9-5.2C94,100.7,95,106.4,95.3,108.5z"/>
		</g>
		<g>
			<path class="st2" d="M85.3,59c4-0.4,7.8-1.8,11.7-3.1c1.2-0.4,2.5-0.8,3.8-0.5c0.8,0.1,1.8,0.7,2.3,1.4c0-0.8,0-1.6-0.1-2.4
				c-0.1-1.6-0.2-3.3-0.2-4.9c0-1.7,0.3-4.3,2-2.6c1.4,1.4,2.4,4.1,1.8,6c0,0,0,0,0,0c-0.2,0.7-0.6,1.3-0.8,1.9
				c-0.7,1.7-0.4,3.7-1.1,5.4c-0.4,0.9-1,1.8-1.5,2.7c-0.5,0.9-1.3,1.3-1,2.3c-0.5-1.1-0.2-2.8,0.1-4.1c0.1-0.4-0.4-0.8-0.8-0.5
				c-0.4,0.3-0.8,0.6-1.2,0.8C99.8,61.7,82.2,59.2,85.3,59z"/>
		</g>
		<g id="White">
			<g>
				<path class="st4" d="M92.1,93.3C92.1,93.3,92.1,93.3,92.1,93.3c-0.2-0.2-0.5-0.3-0.8-0.3c-1.2-0.2-2.4-0.8-3.3-1.6
					c-0.3-0.3-0.6-0.7-1.1-0.8c-0.5-0.2-1.1,0-1.6,0c-1.7-0.2-2.2-2.6-3.6-3.6c-0.4-0.3-0.9-0.5-1.4-0.6c-3.6-1.1-7.1-2.1-10.7-3.2
					c-1-0.3-2-0.6-3-0.7c-1.1-0.1-2.1,0.1-3.1,0.4C58.2,84,52.8,87.3,51,92.6c-0.4,1.1-0.3,2.6,0.7,2.9c0.4,0.1,0.8,0,1.1,0.2
					c0.8,0.4,0.7,1.5,0.4,2.4c-0.7,2.6-0.7,5.3-0.3,7.9c0-1.1,0.7-2.2,1.7-2.7c0.5-0.2,1.1-0.3,1.5-0.6c0.9-0.6,1-1.9,1.2-2.9
					c0.6-2.6,2.7-4.5,4.6-6.4c0.6-0.6,1.2-1.4,1.2-2.2c0-0.6,7.2-4.5,10-2.9c2.3,1.4,4.5,2.9,6.5,4.7c2.3,2.1,4.4,4.5,7.3,5.9
					c1.3,0.6,3.9,1.2,4.7-0.4C92.2,97.8,92.5,93.8,92.1,93.3z"/>
			</g>
			<g>
				<path class="st4" d="M43.6,110.3L43.6,110.3c1.2-3.8,2.7-7.4,4.4-11c-1.1-0.4-2.1,0.6-2.9,1.5c-2.1,2.5-4.1,5-6.3,7.3
					c-1.4,1.5-2.9,2.9-4.5,4.3c-0.5,0.5-1,1-1.6,1.5c-0.4,0.4-0.9,0.8-1.5,0.7c-0.8-0.2-0.9-1.3-1.4-2c-0.8-1-2.6-0.6-3.3,0.4
					c-0.8,1-0.8,2.4-0.8,3.7c0,2.1,0.2,4.3,0.5,6.4c0.2,1.2,0.4,2.3,0.4,3.5c0,2.2-0.7,4.4-1,6.6c-0.3,2.2-0.1,4.7,1.5,6.3
					c0.7,0.7,1.5,1.2,2.4,1.7c2.9,1.5,6.1,2.6,9.3,2.3c1.5-0.1,3-0.6,4.5-0.8c2-0.2,4,0,6,0c3.8,0,7.9-1.2,10.5-4.1
					c3.7-4.2,0.1-6.9-2.1-10.7c-1.8-3-5.1-14.3-10.1-10.3c-1.5,1.2-3.3,4.1-4.6,1.1C41.7,116.1,42.8,112.7,43.6,110.3z"/>
			</g>
			<g>
				<path class="st4" d="M103.8,118.4c-0.6-5.5,0-18.2,5.9-21.4c4.7-2.9,3.2-3,7.3-6.2c1.4-1.1,3.1-4.5,3.9-6.1c0.8-1.5,0.7-5,1-6.7
					c0.9-7.2,2-11.7,0.4-18.8c-0.4-1.9-1-4.2,0.2-5.7c0.8-1,2-1.4,3.1-1.9c1.3-0.6,2.5-1.4,3.3-2.5c0.8-1.2,1.1-2.7,0.5-4
					c-0.5-1-1.7-1.3-2.7-1.9c-1.4-0.8-3.2-2.1-4.8-3.1c-0.3-0.2-0.8,0-0.7,0.4c0.3,1,0.9,2.5,0.6,3.4c-0.2,0.6-0.5,1.1-0.5,1.7
					c0.1,1.6,2.5,3.4,1.5,4.6c-0.7,0.8-2.6,0.1-2.9,1.1c-0.3,1,1.2,1.9-0.3,3c-0.7,0.5-2.5,0.7-3.4,0.6c0,0-4.4-0.1-6.3-0.8
					c1.3,0.6,2.7,0.9,3.6,1.4c-2.2,4.8-3.4,9.9-3.2,15.2c0.1,1.4,0.1,3.1-0.9,4.1c-0.8,0.8-2.1,1-2.9,1.8c-1.2,1.1-1,3-0.6,4.5
					c0.4,1.5,1,3.1,0.6,4.7c-0.3,0.8-0.8,1.7-0.6,2.5c0.2,0.6,0.7,1,0.8,1.6c0.1,0.4,0,0.9-0.2,1.3c-1.4,3.9-3.7,7.4-4.6,11.4
					c-0.6,2.7-0.6,5.6-0.5,8.4c0.1,5.4,0.2,10.8,0.3,16.2c0,2,0,4.2-1.1,5.9c-0.9,1.3-2.3,2.2-3.2,3.4c-2,2.7-1.3,6.7,1.1,9.1
					s5.9,3.2,9.2,2.8c3.3-0.3,6.4-1.7,9.5-3.1c1-0.5,2-1,2.8-1.9c0.9-1.1,1.2-2.7,1.2-4.1c0-5.3-3-10.1-7.3-13
					c-1.5-1-4.1-0.5-5.9-0.8c-1.5-0.3-1.9,0.4-2.8-1.3C104.5,122.8,103.8,118.4,103.8,118.4z"/>
			</g>
		</g>
		<g>
			<path class="st2" d="M116.5,38c-0.1-0.3-0.2-0.7-0.5-0.9c-0.3-0.2-0.8-0.1-1.2,0c-1.4,0.6-2.4,2-2.9,3.4
				c-0.1,0.2-0.1,0.3-0.1,0.5c0,0.2,0.2,0.3,0.3,0.3c0.1,0,0.2-0.2,0.4-0.3c0.2-0.1,0.4,0,0.6,0.1c0.6,0.2,1.2,0.4,1.8,0.4
				c0,0,0,0,0,0C117.2,41.4,116.9,39.6,116.5,38z"/>
		</g>
		<g>
			<path class="st2" d="M122.4,37.5C122.4,37.5,122.4,37.5,122.4,37.5c0.2-0.1,0.4-0.2,0.7-0.2c0.9,0,1.8,0.7,2.1,1.6
				c0.1,0.4,0.1,0.8-0.1,1.1c-0.1,0.1-0.3,0.2-0.4,0.3c-0.7,0.4-1.5,0.6-2-0.1C122.2,39.6,121.8,37.9,122.4,37.5z"/>
		</g>
		<g>
			<path class="st2" d="M102.2,36.9c0,0,0.3,0.5,0.3,0.5c0.1,1.2,0,2,0.3,3.1c0.8,2.5,1.2,3.6,2.1,6.5c-2.2-1.8-2.7-3.1-4-5.6
				c-1.2-2.2-2.3-4.3-3.1-6.7c-0.7-2.3-1-4.9-0.4-7.3c0.4-1.5,1.3-3.1,2.7-3.9c1.4-0.8,5.6-4.8,3.4,0.8c-0.7,1.8-1,4.4-1.2,6.4
				C102.2,33.1,102,34.8,102.2,36.9z"/>
		</g>
		<g>
			<path class="st2" d="M123.7,22.6c-0.8,1.3-1.5,2.7-2.3,4c-1.2,2-2.3,4.2-2.2,6.6c-0.7,0.4-1.6,0.1-2-0.6s-0.4-1.5-0.2-2.2
				s0.6-1.4,1.1-2.1c1.1-1.8,2.1-3.6,3-5.5c0.3-0.6,0.6-1.2,1.1-1.7c0,0,0,0,0,0C123.6,19.7,124.6,21,123.7,22.6z"/>
		</g>
		<g>
			<path class="st5" d="M117.7,73.5C117.7,73.5,117.7,73.5,117.7,73.5c1,0.2,1.8,1.1,2,2c0.3,1,0.2,2,0,3c-0.3,1.9-0.8,3.8-0.8,5.7
				c0,1.9,0.6,3.9,2.1,5.2c0.3,0.1,0.5-0.4,0.5-0.7c1.1-8.9,0.1-17.9,0.7-26.8c0.1-1.3,0.9-3.3-0.6-3.7c-1.4-0.4-1.7,1.2-1.9,2
				C118.5,64.3,118.9,69.3,117.7,73.5z"/>
		</g>
		<g>
			<path class="st2" d="M122.3,35.9c-0.5-0.5-1.1-0.9-1.6-1.4c-0.5-0.5-0.9-0.8-1.6-1c-1.2-0.4-2.5-0.4-3.8-0.4
				c-1.1,0-2.1,0.3-3.2,0.3c-1.5,0-2.1-1-2.7-2.3c-0.7-1.5-1.4-2.9-2.2-4.3c-0.4-0.7-0.9-1.3-1.4-2c-0.4-0.6-0.7-1.4-1.3-1.9
				c-0.9-0.7-0.7,0.1-0.2,0.6c0.5,0.5,0.9,1,1.3,1.6c0.7,1.2,1.4,2.4,2.1,3.7c0.8,1.3,1.6,2.5,2,4c0.2,0.6,0.6,1.3,0.5,1.9
				c0,0.4-0.7,1.6-0.1,1.7c0.4-0.7,0.3-2.1,1.5-2.1c0.5,0,0.8,0.2,1.3,0.2c0.5,0,0.8-0.2,1.2-0.3c0.9-0.2,1.8,0.3,2.8,0
				c1.2-0.4,1.7-0.2,2.8,0.4c0.5,0.3,2,1.6,2.6,1.2"/>
		</g>
		<g>
			<path class="st2" d="M124.8,21c0.1,0.5,0.6,0.9,0.9,1.4c0.3,0.5,0.4,0.9,0.5,1.4c0.2,1.1,0.1,2.1,0.3,3.2c0.2,1.1,0.3,2.5,0,3.6
				c-0.2,1.2-0.3,2.5-0.7,3.6c-0.4,1.2-0.7,2.6-0.1,3.8c0.5-0.1,0.8-1.1,1-1.6c0.4-0.8,0.6-1.6,0.8-2.4c0.5-1.6,0.9-3.1,0.9-4.9
				c0-1.8-0.3-3.3-0.6-5.1c-0.2-1.4-0.2-2.7-1.4-3.6c-0.4-0.3-1-0.8-1.5-0.5C124.6,20.1,124.7,20.9,124.8,21z"/>
		</g>
		<g>
			<path class="st2" d="M101.8,59.7c-4.1,0.7-3.6,8.2-6.9,8.2c-0.8-3.6-3.1-4.2-5.9-2.9c-1.9,0.9-2,1.4-3.9,0.4
				c-1.4-0.8-1.7-1.7-3.5-2c-5.9-1.2-12.1,1.1-18.1,1c-3.6-0.1-6.9-1.9-10.3-0.8c-0.5-1.8,6-4.1,7.5-4.9c3.3-1.7,7.4-2.7,11.1-2.6
				c4.2,0.1,8,1.6,12.4,1.5c3.8-0.1,7.5-1.6,11.3-1.9c1.8-0.2,4.1-0.4,5.8,0.4C102.5,57,104.3,59.3,101.8,59.7z"/>
		</g>
	</g>
	<g id="Details" class="st0">
		<g>
			<path class="st6" d="M127.5,47c0.5-0.6,0.8-1.5,0.5-2.2c-0.1-0.2-0.2-0.4-0.4-0.5c-0.7-0.7-1.7-1-2.7-0.8
				c-0.5,0.1-0.9,0.3-1.3,0.7c-0.3,0.4-0.5,0.9-0.4,1.3c0.1,0.6,0.7,1,1.1,1.5l0,0c0.4,0.4,1,1.6,1.5,1.5
				C126.4,48.4,127.2,47.4,127.5,47z"/>
		</g>
		<g>
			<path class="st6" d="M114.4,41.1c-0.2,0-0.3,0-0.5,0c-0.3-0.1-0.6-0.3-0.8-0.6c-0.1-0.1-0.1-0.1-0.1-0.2c0-0.1,0-0.2,0-0.3
				c0.2-0.4,0.5-0.6,0.9-0.8c0.2-0.1,0.4-0.2,0.6-0.3c0.2-0.1,0.4,0,0.6,0.1v0c0.3,0.2,0.6,0.9,0.5,1.3
				C115.4,40.8,114.8,41,114.4,41.1z"/>
		</g>
		<g>
			<path class="st6" d="M124.6,39.6C124.6,39.6,124.6,39.6,124.6,39.6c0,0.2-0.2,0.4-0.4,0.5c-0.1,0.1-0.2,0.1-0.4,0.1
				c-0.3,0-0.5-0.3-0.6-0.5c-0.1-0.2-0.3-0.5-0.2-0.7c0-0.1,0.1-0.1,0.1-0.2c0.2-0.2,0.5-0.3,0.7-0.2
				C124.3,38.7,124.7,39.3,124.6,39.6z"/>
		</g>
		<g>
			<g>
				<path class="st4" d="M113.6,39.7c-0.2,0.1-0.3,0.1-0.4,0.3c-0.1,0.1,0,0.2,0.1,0.2c0.2,0,0.3,0,0.5-0.1
					C114,40,113.8,39.6,113.6,39.7L113.6,39.7z"/>
			</g>
		</g>
		<g>
			<g>
				<path class="st4" d="M124.6,39.3c-0.1-0.2-0.2-0.3-0.4-0.4c-0.2-0.2-0.5,0.1-0.2,0.3c0.1,0.1,0.2,0.2,0.3,0.3
					C124.4,39.6,124.7,39.4,124.6,39.3L124.6,39.3z"/>
			</g>
		</g>
		<g>
			<path class="st7" d="M124.1,36.3c1.5-1.9,1.7-5.6,1.6-8c0-1.2-0.1-2.3-0.4-3.6c-0.2-0.7-0.2-0.9-0.9-0.7c-0.4,0.1-1,0.8-1.2,1.2
				c-0.9,1.3-1.9,3-2.4,4.7c0.5-0.2,0.8-0.7,1.5-1.1c-0.9,1.5-1.2,2.5-1.7,3.5c0.6-0.3,1.2-0.5,2.2-0.8c-1,1.1-1.8,1.2-2.4,2
				c1.1,0,1.5,0,2.5,0.7c0.6,0.4,0.8,1.4,1.2,2C124.1,36.2,124.1,36.1,124.1,36.3z"/>
		</g>
		<g>
			<path class="st7" d="M102.8,31.2c0.2-1.4,0.3-2.7,0.9-4.1c0.3-0.8,0.4-1.1,1.1-0.7c0.4,0.2,1.1,1.1,1.4,1.6c1,1.6,1.6,3.4,2.5,5
				c-0.6-0.4-1-0.7-1.7-0.6c0.9,1.1,1.5,2.4,2,3.7c-0.7,0-1.2-0.3-1.9-0.5c0.2,0.9,0.4,0.6,0.6,1.7c-1.2-0.2-1.2-0.1-2.1,0.9
				c-0.6,0.7-0.2,3.2-0.9,3.3C104.1,41.5,102.5,34.1,102.8,31.2z"/>
		</g>
	</g>
</g>
<g id="Outlines">
	<g id="Layer_11" class="st8">
		<g class="st9">
			<g>
				<path class="st10" d="M50.2,67.7c1.5-1.9,2.9-4.4,3.1-6.8c0,0-0.1,0-0.1,0C52.4,63.3,51.6,65.5,50.2,67.7
					C50.2,67.7,50.2,67.7,50.2,67.7L50.2,67.7z"/>
			</g>
		</g>
		<g class="st9">
			<g>
				<path class="st10" d="M30.4,44c-2.2,5.2-1.3,10.3-0.6,15.7c0.5,3.2,0,7.1,1.2,10.2c0.9,2.3,3,3.8,4.4,5.8c0,0.1,0.2,0,0.1-0.1
					c-0.6-1.6-1.7-2.8-2.5-4.3c-1.7-3.1-1.5-6.6-2-10C30.4,55.5,28.9,49.9,30.4,44C30.4,44,30.4,44,30.4,44L30.4,44z"/>
			</g>
		</g>
		<g class="st9">
			<g>
				<path class="st10" d="M30.1,45.1c0.2-1.6-0.4-2.8-0.9-4.2c-0.7-2-1-4.1-0.9-6.3c0.1-2.2,0.6-4.3,1.2-6.3
					c0.3-0.9,0.6-1.9,1.1-2.7c0.8-1.6,2.1-1.8,3.9-0.8c0.3,0.5,0.5,0.9,0.8,1.4c1.2,2.4,1.3,5.9,3.7,7.6c0.8,0.5,1.4,0.6,2.3,0.6
					c1.5,0,2.8-0.2,4.2-0.2c0.3,0,0.6,0.1,0.9,0c2.5-0.5,4.2-3.8,6-5.5c1.7-1.5,5.3-5,6.3-0.8c0.4,1.9-0.3,4.2-1.1,5.9
					c-1.2,2.5-3,4.9-3.8,7.6c-0.4,1.5-0.3,3-0.3,4.6c0,1.9-0.3,3.7-0.9,5.5c0,0.1,0.1,0.1,0.1,0c0.7-1.3,1.2-2.6,1.4-4.1
					c0.3-2.2-0.2-4.5,0.3-6.6c0.9-3.6,4.3-5.8,4.9-9.7c0.3-1.9,0.7-6.9-2.4-6.3c-3.2,0.6-6.2,4.6-8.2,6.8c-1.6,1.9-3.7,1.8-6,1.9
					c-4.4,0.1-4.8-3.1-6.2-6.3c-0.9-2.1-2-5.2-4.7-3.7c-2.7,1.5-3.6,6-4,8.7c-0.3,2-0.3,4.1,0,6.1C28.3,40.8,29.4,42.9,30.1,45.1
					C30,45.1,30.1,45.1,30.1,45.1L30.1,45.1z"/>
			</g>
		</g>
		<g class="st9">
			<g>
				<path class="st10" d="M38.3,44.3c0.3-0.9,1.2-1.3,2.1-1.3c0.9,0.1,1.2,0.9,1.4,1.7c0,0.1,0.2,0.1,0.2,0
					c-0.1-0.5-0.1-1.2-0.4-1.6c-0.2-0.4-0.6-0.5-1.1-0.5c-1.1,0-2.1,0.6-2.4,1.7C38.1,44.4,38.2,44.4,38.3,44.3L38.3,44.3z"/>
			</g>
		</g>
		<g class="st9">
			<g>
				<path class="st10" d="M50.5,44.8c0.3-0.3,0.4-0.8,0.7-1.1c0.6-0.6,1,0.3,1.4,0.6c0.1,0.1,0.2,0,0.2-0.1c0-0.6-0.6-1.3-1.3-1.1
					C50.9,43.2,50.5,44.2,50.5,44.8C50.4,44.8,50.5,44.8,50.5,44.8L50.5,44.8z"/>
			</g>
		</g>
		<g class="st9">
			<g>
				<path class="st10" d="M49.8,47c1.8,2.6,4.5,7.2,2.7,10.5c-0.9,1.7-3.2,0.7-4.8,1.2c-4,1.1-5.5-1.1-8.2-3.5
					c-0.1-0.1-0.3,0-0.2,0.2c1.5,2.3,3.7,4.4,6.6,4.3c1.6,0,3.1-0.4,4.7-0.3c0.8,0,1.2,0.1,1.8-0.4c0.9-0.8,1.5-3.8,1.4-4.9
					C53.6,51.8,51.3,48.6,49.8,47C49.8,46.9,49.7,47,49.8,47L49.8,47z"/>
			</g>
		</g>
	</g>
	<g>
		<g>
			<path class="st11" d="M120.5,68.9c0.7,6.6,0.6,15.3-1.8,21.7c-1.2,3.1-4,4.8-5.5,7.6c-1.6,2.9-2,6.6-2.9,9.8
				c-1.6,6.1-3.8,12.3-2.4,18.7c0.5,2.2,1.4,4.5,2.9,6.3c0.6,0.8,6.7,5.3,4.2,6.2c-0.5,0.2-0.3,1.1,0.2,0.9c2.9-1.2,0.9-3.6-0.8-5.1
				c-2.1-1.8-3.9-2.9-4.8-5.9c-0.5-1.8-0.8-3.9-0.9-5.8c-0.3-5.2,1.5-10.1,2.7-15.1c0.4-1.7,0.4-3.6,0.9-5.3c1-3.7,2.4-4.6,4.5-7.1
				c1.7-1.9,2.8-3.8,3.5-6.4c1.6-6.5,1.6-14,0.5-20.6C120.8,68.7,120.5,68.8,120.5,68.9L120.5,68.9z"/>
		</g>
	</g>
	<g>
		<g>
			<path class="st11" d="M110.3,96.4c-2.4,1.4-4.9,1.9-7.7,2.3c-0.5,0.1-0.5,0.8,0,0.8c2.9-0.1,5.7-0.8,7.8-2.9
				C110.5,96.5,110.4,96.4,110.3,96.4L110.3,96.4z"/>
		</g>
	</g>
	<g>
		<g>
			<path class="st11" d="M104.7,94.9c-5.2,5.8-5.7,15.6-5,23c0.4,4-0.6,8.1,0.4,12c0.4,1.6,1.1,3.1,1.9,4.5c0.7,1,5.2,5.5,3.8,6.5
				c-0.5,0.4,0,1.2,0.5,0.8c1.2-0.9,1.5-1.4,0.8-2.9c-0.7-1.4-2.5-2.4-3.4-3.6c-2.3-3-3-6.3-2.9-10c0.2-9.6-1.9-21.8,4-30.1
				C105,95,104.8,94.8,104.7,94.9L104.7,94.9z"/>
		</g>
	</g>
	<g>
		<g>
			<path class="st11" d="M92.5,93.3c-2.1,4.9-0.7,8.6,0,13.8c0.8,6.4,1,12.3,0.9,18.7c-0.1,3.5,2.4,6.1,3.2,9.4
				c0.7,2.9,0.4,5.4,3.8,5.9c0.5,0.1,0.6-0.8,0.1-0.9c-3.3-0.5-3.8-7-4.7-9.7c-1.3-4-0.9-7.5-1.1-11.6c-0.3-4-0.5-8-0.9-11.9
				C93.3,102.3,91.8,98.3,92.5,93.3C92.6,93.3,92.5,93.3,92.5,93.3L92.5,93.3z"/>
		</g>
	</g>
	<g>
		<g>
			<path class="st11" d="M103.2,99.1c-1.1,2.9-0.7,6.5-0.4,9.5c0.3,3.3,0.3,6.1-0.2,9.3c-0.8,6.2-0.5,12.6,1.7,18.4
				c0.1,0.4,0.7,0.2,0.6-0.2c-1.5-6.5-2.2-12.8-1.4-19.5c0.4-2.9,0.3-5.7,0.1-8.6c-0.2-3,0.4-6.1,0-9
				C103.6,98.8,103.3,98.9,103.2,99.1L103.2,99.1z"/>
		</g>
	</g>
	<g>
		<g>
			<path class="st11" d="M91.8,97c-3.1-1.3-6.2-2.6-8.8-4.8c-1.9-1.6-3.4-3.9-5.8-5c-2.1-0.9-4.4-1.1-6.6-1.2
				c-3.2-0.2-6.4-0.8-9.6-0.8c-0.2,0-0.2,0.2,0,0.3c5.5,2.2,12.5-0.2,17.5,3.2c2.2,1.5,3.6,4.1,5.8,5.7c2.1,1.7,4.6,2.9,7.3,3.3
				C92,97.7,92.1,97.1,91.8,97L91.8,97z"/>
		</g>
	</g>
	<g>
		<g>
			<path class="st11" d="M62.9,83.6c-2.4,1.2-5.1,2.2-7.1,4c-2,1.8-3.4,4.4-4.9,6.6c-3.7,5.4-7.4,10.7-11.7,15.7
				c-3.3,3.8-6.4,7.5-7,12.7c-0.3,2.6-0.4,5.6,0.2,8.2c0.2,1,0.7,2,1.3,2.8c0.8,1.1,2.7,1.9,2.5,3.5c-0.1,0.6,0.7,0.8,0.9,0.2
				c0.4-1.5-0.3-2.4-1.4-3.3c-1.6-1.5-2.5-2.3-2.7-4.5c-0.1-1.3-0.1-2.6-0.1-3.9c0.2-3.1,0.9-6.4,2.4-9.1c1.5-2.5,3.5-4.7,5.4-7
				c3.4-4.2,6.7-8.4,9.7-12.9c1.6-2.4,2.9-5.1,4.7-7.3c2-2.4,5.2-3.9,7.8-5.6C63.1,83.7,63,83.5,62.9,83.6L62.9,83.6z"/>
		</g>
	</g>
	<g>
		<g>
			<path class="st11" d="M66.6,85.6c-3.6,2.3-4.2,7.1-5.6,10.8c-2.2,5.8-5.2,10.6-8.7,15.6c-2.6,3.7-5,8.1-4.1,12.7
				c0.3,1.7,1.1,3.4,2.4,4.7c0.7,0.7,1.4,1.2,2.3,1.6c0.6,0.3,6.1,1.9,3.3,3.8c-0.5,0.3-0.1,1.1,0.5,0.8c3.4-1.6-0.5-4.2-2.3-4.9
				c-7-2.8-6-10.7-2.6-16c2.9-4.6,6.6-8.5,8.8-13.6c1-2.3,1.8-4.6,2.4-7c0.8-2.8,1.2-6.3,3.8-8.2C67,85.8,66.8,85.5,66.6,85.6
				L66.6,85.6z"/>
		</g>
	</g>
	<g>
		<g>
			<path class="st11" d="M47.7,99.2c0.1,4.8-1.6,8.5-3.7,12.7c-0.6,1.2-1.3,2.5-1.5,3.9c-0.2,1.5,0.3,2.5,0.6,4
				c0.9,3.4,1.7,6.8,2.6,10.2c0.5,2,0.9,4.9,3.3,5.6c0.6,0.2,0.9-0.8,0.3-0.9c-2.7-0.6-3.3-6.3-3.9-8.5c-0.4-1.6-0.8-3.1-1.2-4.7
				c-0.4-1.8-1.2-3.7-1-5.5c0.4-3.1,3.1-5.8,4.3-8.7c1-2.6,1.6-5.5,0.5-8.1C48,99,47.7,99,47.7,99.2L47.7,99.2z"/>
		</g>
	</g>
	<g>
		<g>
			<path class="st11" d="M46.6,63.3c-1.3,3.5-4.6,5.6-6.8,8.6c-1.8,2.4-2.8,5.3-3.4,8.3c-0.7,3.6-0.9,7.3-1.5,10.9
				c-0.6,4.1-1.3,8.1-2.2,12.1c-0.4,1.8-0.8,3.6-1.4,5.4c-0.4,1.3-0.9,2.4-1.8,3.5c-0.6,0.7-1.4,1.3-2,2c-1.6,2.1-1,4.7-0.5,7
				c0.5,2.2,0.6,4.1,0.2,6.3c-0.3,1.6-0.8,3.3-0.8,4.9c0,2,0.7,4.3,2.4,5.5c0.5,0.4,1.1-0.5,0.5-0.9c-3.8-2.5-1.6-7.6-1-11
				c0.4-2.9-0.4-5.5-0.5-8.4c-0.1-3.2,3-5,4.1-7.9c1.3-3.4,2.3-7.1,3.1-10.7c1.4-6.6,1.3-13.4,2.8-20c0.9-3.6,2.6-6.5,5-9.2
				c1.7-1.9,3.2-3.8,4-6.3C46.9,63.2,46.6,63.2,46.6,63.3L46.6,63.3z"/>
		</g>
	</g>
	<g>
		<g>
			<path class="st11" d="M101.9,58.8c-3.6,0.2-6.9,1.9-10.6,2c-4,0.1-8-0.7-11.9-1c-7.8-0.6-16.3-1-24,0.7c-0.2,0-0.1,0.3,0,0.3
				c8.3,0.1,16.6-0.6,24.9,0.1c3.9,0.3,7.9,1.1,11.9,0.8c3.4-0.3,6.4-1.9,9.8-2.5C102.1,59.1,102,58.8,101.9,58.8L101.9,58.8z"/>
		</g>
	</g>
	<g>
		<g>
			<path class="st11" d="M44.9,66.8c1.1-1.6,0.6-3.4,0.5-5.2c-0.3-3.2,0.6-6.5,3.1-8.6c2.7-2.3,6.8-2.6,9.5-0.1
				c1.8,1.6,2.3,3.9,0.5,5.8c-1.7,1.9-6.9,3.7-6.9-0.9c0-0.2-0.3-0.2-0.3,0c-0.5,3.9,4.1,4.4,6.6,2.7c3.5-2.4,3.8-6.1,0.3-8.7
				c-3.2-2.5-7.7-1.9-10.6,0.8c-1.5,1.4-2.5,3.3-2.8,5.4c-0.5,2.7,1.4,6.4,0,8.8C44.6,66.8,44.8,66.9,44.9,66.8L44.9,66.8z"/>
		</g>
	</g>
	<g>
		<g>
			<path class="st11" d="M50.6,55.7c0.9,0.4,2,0.2,3,0.7c0.6,0.3,1.2,1,1,1.7c-0.2,0.8-1,0.7-1.6,0.4c-0.1,0-0.2,0-0.2,0.1
				c0.2,0.6,0.8,0.7,1.3,0.5c0.6-0.2,1-0.9,0.9-1.5C54.8,55.8,52.1,55.3,50.6,55.7C50.5,55.6,50.5,55.7,50.6,55.7L50.6,55.7z"/>
		</g>
	</g>
	<g>
		<g>
			<path class="st11" d="M122.2,40.2c1.5,1.7,7.8,4.2,5.7,7.1c-0.2,0.2,0.2,0.4,0.3,0.3c1.2-0.9,0.9-2.5,0-3.6
				C126.7,42.1,124.1,41.7,122.2,40.2C122.2,40,122.1,40.1,122.2,40.2L122.2,40.2z"/>
		</g>
	</g>
	<g>
		<g>
			<path class="st11" d="M128.3,46.4c-0.2,1.2-0.5,2.4-1.1,3.4c-0.8,1.4-1.8,2-3.3,2.7c-1.5,0.7-2.8,1.9-4,2.9c-0.1,0,0,0.1,0,0.1
				c0.8,0.3,1.6-0.2,2.2-0.7c0.5-0.4,0.9-0.8,1.4-1.2c0.6-0.5,1.4-0.7,2-1.1c2.1-1.3,3-3.8,2.8-6.2
				C128.4,46.3,128.3,46.3,128.3,46.4L128.3,46.4z"/>
		</g>
	</g>
	<g>
		<g>
			<path class="st11" d="M117.3,55.5c-3.7,0.1-6.7-1.3-9.8-3.2c-0.1,0-0.1,0.1-0.1,0.1C110,54.8,113.8,56.4,117.3,55.5
				C117.4,55.6,117.4,55.5,117.3,55.5L117.3,55.5z"/>
		</g>
	</g>
	<g>
		<g>
			<path class="st11" d="M125.4,45.7c-0.2,0-0.4,0.1-0.7,0.1c-0.3,0-0.4,0-0.7,0.1c-0.1,0-0.1,0.2-0.1,0.3c0.2,0.3,0.6,0.3,0.9,0.2
				C125.2,46.2,125.5,46,125.4,45.7C125.5,45.7,125.5,45.7,125.4,45.7L125.4,45.7z"/>
		</g>
	</g>
	<g>
		<g>
			<path class="st11" d="M127.8,45.7c-0.3,0.2-0.4-0.1-0.7-0.3c-0.3-0.2-0.8,0.3-0.4,0.6C127,46.2,127.9,46.4,127.8,45.7
				C127.9,45.7,127.8,45.7,127.8,45.7L127.8,45.7z"/>
		</g>
	</g>
	<g>
		<g>
			<path class="st11" d="M104.2,45.9c-1.3,4,0.4,9.6-2.9,12.8c-0.4,0.4,0.2,0.9,0.6,0.6c1.9-1.7,1.7-3.6,2-6
				c0.2-2.1,1.2-5.3,0.4-7.3C104.3,45.8,104.2,45.8,104.2,45.9L104.2,45.9z"/>
		</g>
	</g>
	<g>
		<g>
			<path class="st11" d="M105.3,55.5c0,2.6-0.2,4.3-1.7,6.4c-0.7,1-1.3,2-1.3,3.3c0,0.1,0.1,0.1,0.1,0c0.5-1.3,0.9-2.4,1.7-3.4
				c0.4-0.4,0.7-0.9,1-1.4C105.8,58.9,105.6,57.1,105.3,55.5C105.3,55.5,105.3,55.5,105.3,55.5L105.3,55.5z"/>
		</g>
	</g>
	<g>
		<g>
			<path class="st11" d="M121.2,54.8c0,7.2-1.3,13.7-2.5,20.7c0,0.1,0.2,0.2,0.2,0.1c2.4-6.5,4-13.9,2.4-20.8
				C121.3,54.7,121.2,54.7,121.2,54.8L121.2,54.8z"/>
		</g>
	</g>
	<g>
		<g>
			<path class="st11" d="M120.5,34.1c-1-0.7-1.8-1.2-3.1-1.1c-1.1,0.1-2.2,0.3-3.4,0.3c-1,0-1.9,0-2.9,0.3c-0.2,0.1-0.1,0.4,0.1,0.3
				c1.5-0.3,2.9-0.1,4.4-0.2C117.4,33.5,118.7,33.1,120.5,34.1C120.5,34.2,120.5,34.2,120.5,34.1L120.5,34.1z"/>
		</g>
	</g>
	<g>
		<g>
			<path class="st11" d="M126,42.4c0.2-1.6-0.5-3.4,0.1-5c0.3-0.8,0.8-1.3,0.9-2.2c0.1-1.1-0.1-2.2,0.1-3.2
				c0.6-3.8,0.8-6.8-1.2-10.3c-1.6-2.7-2.1-0.1-3.7,1.6c-1.4,1.5-2.2,3-3.1,4.9c-0.9,1.8-1.7,2.8-1.5,4.9c0,0.2,0.4,0.2,0.4,0
				c0.2-3.2,2.5-6.7,4.4-9.1c0.6-0.8,1.5-2.6,2.4-2.5c1.6,0.1,2.1,3.7,2.2,5c0.3,2.7-0.5,5.2-0.6,7.9c-0.1,1.6-1.1,2.5-1.3,3.9
				c-0.1,1.3,0.7,2.7,0.7,4.1C125.9,42.5,126,42.5,126,42.4L126,42.4z"/>
		</g>
	</g>
	<g>
		<g>
			<path class="st11" d="M111.4,33.7c-2.2-3.5-3.8-7.3-6.3-10.6c-1.4-1.8-1.7-0.8-2.5,1c-3.7,8.2-1.4,17.4,3.1,24.7
				c0.1,0.2,0.5,0,0.3-0.2c-1.9-2.7-3.2-6.4-4.2-9.6c-0.6-2-0.5-3.6-0.4-5.6c0.1-2.3,0-4.5,0.7-6.8c0.2-0.6,1-4.3,1.9-4.2
				c0.6,0.1,2.1,3,2.3,3.5c0.8,1.4,1.5,2.8,2.2,4.2c0.8,1.5,1.6,2.3,2.6,3.6C111.3,33.9,111.5,33.8,111.4,33.7L111.4,33.7z"/>
		</g>
	</g>
	<g>
		<g>
			<path class="st11" d="M115.8,40.5c-0.1-0.7-0.3-1.8-1.2-1.7c-0.9,0.1-1.8,0.8-2.3,1.5c-0.1,0.1,0.1,0.2,0.2,0.1
				c0.5-0.4,1-0.8,1.6-1c0.4-0.1,0.7-0.3,1.1,0.2c0.2,0.2,0.3,0.6,0.4,0.9C115.7,40.6,115.8,40.6,115.8,40.5L115.8,40.5z"/>
		</g>
	</g>
	<g>
		<g>
			<path class="st11" d="M124.8,39.8c0-0.6-0.3-1.1-0.9-1.2c-0.4-0.1-1,0.2-1,0.7c0,0.1,0.1,0.1,0.2,0.1c0.3-0.2,0.4-0.4,0.8-0.4
				C124.3,38.9,124.6,39.3,124.8,39.8C124.8,39.8,124.8,39.8,124.8,39.8L124.8,39.8z"/>
		</g>
	</g>
	<g>
		<g>
			<path class="st11" d="M126.8,49.8c-1.1-0.9-2.2-0.7-3.5-0.2c-1.5,0.6-2.5,1.2-4.1,0.9c-0.9-0.2-1.6-0.5-2.5-0.2
				c-0.4,0.1-0.3,0.6,0.1,0.6c0.9,0.1,1.7,0,2.6,0.2c0.5,0.1,1,0.3,1.6,0.2c2-0.3,3.6-2.3,5.8-1.4C126.8,50,126.9,49.9,126.8,49.8
				L126.8,49.8z"/>
		</g>
	</g>
	<g>
		<g>
			<path class="st11" d="M100.7,137.3c0.5,1.1,1,2.7-0.6,3.1c-0.3,0.1-0.3,0.6,0,0.7c0.8,0.1,1.4-0.5,1.6-1.2c0.3-1-0.3-1.9-0.9-2.7
				C100.8,137.2,100.7,137.2,100.7,137.3L100.7,137.3z"/>
		</g>
	</g>
	<g>
		<g>
			<path class="st11" d="M104,138.5c0,0.4,0.2,0.7,0.3,1.1c0.2,0.8-0.3,1.3-1,1.5c-0.6,0.1-1.2,0-1.7-0.1c-0.5-0.1-0.9-0.3-1.4-0.3
				c-0.1,0-0.3,0.2-0.2,0.3c0.7,1.1,2.9,1.1,4,0.6c0.5-0.2,0.9-0.6,1-1.2C105.1,139.6,104.5,139,104,138.5
				C104,138.5,104,138.5,104,138.5L104,138.5z"/>
		</g>
	</g>
	<g>
		<g>
			<path class="st11" d="M110,135.1c0,1.2,2,2.6,1.2,3.9c-0.5,0.8-1.9,0.7-2.6,0.3c-0.3-0.2-0.5-0.4-0.7-0.5
				c-0.2-0.1-0.5-0.1-0.7-0.1c-0.2-0.1-0.4,0.2-0.4,0.4c0.1,0.3,0.2,0.4,0.5,0.5c0.5,0.2,0.9,0.6,1.4,0.8c0.9,0.3,2.1,0.1,2.9-0.4
				c0.8-0.5,0.9-1.5,0.6-2.3c-0.2-0.5-0.4-0.8-0.8-1.1C110.9,136,110.6,135.5,110,135.1C110,135,110,135,110,135.1L110,135.1z"/>
		</g>
	</g>
	<g>
		<g>
			<path class="st11" d="M107,135.3c0.2,0.7,0.3,1.4,0.4,2.2c0,0.3,0.1,1-0.1,1.2c-0.1,0.1-0.4,0.1-0.5,0.2
				c-0.2,0.1-0.2,0.4-0.1,0.5c0.6,0.8,1.5-0.3,1.5-0.9C108.3,137.4,107.7,136.1,107,135.3C107,135.2,106.9,135.3,107,135.3
				L107,135.3z"/>
		</g>
	</g>
	<g>
		<g>
			<path class="st11" d="M51,131.3c0.2,0.5,0.5,0.9,0.9,1.2c0.5,0.5,1.7,0.8,1.8,1.6c0.3,1.9-3.6,0.7-4.4,0.7c-0.4,0-0.4,0.6,0,0.6
				c0.6,0,1.1,0.4,1.7,0.5c0.5,0.1,1,0.1,1.5,0c0.7-0.1,1.5-0.2,1.9-1c0.3-0.7,0.1-1.5-0.4-1.9c-0.9-0.9-2.1-0.6-2.8-1.7
				C51.1,131.1,50.9,131.2,51,131.3L51,131.3z"/>
		</g>
	</g>
	<g>
		<g>
			<path class="st11" d="M30.1,133.2c0.3,1,1.3,1.6,1.3,2.7c0,0.8-0.5,1.1-1.2,1.2c-0.7,0.1-1.3-0.2-1.9-0.3c-0.1,0-0.2,0.1-0.2,0.2
				c0.8,1.4,2.9,1.6,3.9,0.2C33,135.6,31.2,134.2,30.1,133.2C30.1,133.1,30.1,133.2,30.1,133.2L30.1,133.2z"/>
		</g>
	</g>
	<g>
		<g>
			<path class="st11" d="M36.5,137c-0.9,0.7-1.9,0.5-2.9,0.5c-1,0-1.9-0.1-2.9-0.1c-0.2,0-0.4,0.4-0.1,0.5c1,0.4,6.8,1.4,6.1-0.8
				C36.7,137,36.5,137,36.5,137L36.5,137z"/>
		</g>
	</g>
	<g>
		<g>
			<path class="st11" d="M56.7,135C56.7,134.9,56.7,134.9,56.7,135c-0.1-0.2-0.3-0.3-0.5-0.2c-0.4,0.1-0.8,0.1-1.2,0
				c-0.4,0-0.8,0-1.1,0c-0.3,0-0.4,0.5-0.1,0.6c0.5,0.1,0.9,0.3,1.4,0.4c0.5,0.1,0.9,0,1.3-0.2C56.7,135.5,56.9,135.3,56.7,135
				C56.8,135,56.8,135,56.7,135L56.7,135z"/>
		</g>
	</g>
	<g>
		<g>
			<path class="st11" d="M115.3,139.4c-0.4-0.3-0.9-0.2-1.3-0.2c-0.3,0-0.5,0.1-0.8,0.1c-0.4,0-0.7-0.2-1-0.2
				c-0.3,0-0.4,0.3-0.2,0.4c0.7,0.5,2.9,1.3,3.4,0.2C115.4,139.6,115.4,139.5,115.3,139.4L115.3,139.4z"/>
		</g>
	</g>
	<g>
		<g>
			<path class="st11" d="M106.2,141c-0.3-0.1-0.5-0.1-0.8-0.1c-0.2,0-0.5,0-0.7,0c-0.2-0.1-0.5-0.3-0.7,0c-0.1,0.1-0.1,0.3,0.1,0.4
				c0.5,0.5,1.4,0.6,2,0.5C106.5,141.8,106.7,141.1,106.2,141L106.2,141z"/>
		</g>
	</g>
</g>
</svg>
