<?xml version="1.0" encoding="utf-8"?>
<!-- Generator: Adobe Illustrator 22.1.0, SVG Export Plug-In . SVG Version: 6.00 Build 0)  -->
<svg version="1.1" id="Card_1" xmlns="http://www.w3.org/2000/svg" xmlns:xlink="http://www.w3.org/1999/xlink" x="0px" y="0px"
	 viewBox="0 0 155.9 155.9" style="enable-background:new 0 0 155.9 155.9;" xml:space="preserve">
<style type="text/css">
	.st0{clip-path:url(#SVGID_2_);}
	.st1{fill:#151612;}
	.st2{fill:#090A0A;}
	.st3{fill:#A3612A;}
	.st4{fill:#8E5020;}
	.st5{fill:#FFFFFF;}
	.st6{clip-path:url(#SVGID_4_);}
	.st7{fill:#DDDDDD;}
	.st8{fill:#5A2E12;}
	.st9{fill:#010202;}
</style>
<g id="Colours">
	<g>
		<defs>
			<path id="SVGID_1_" d="M40.2,62.4c3.2-4,9.8-5.8,12.7-5.8c4.1-0.1,17.6,0.9,21.4,0.2s13.3-2.7,14.5-6.2v-1.3
				c-0.3-0.7-0.7-1.3-1-2c-1.3-3.5-0.2-7.6,2.5-10.2c0.6-0.6,1.3-1.1,1.8-1.8c0.6-0.9,0.8-2.1,1.5-3c0.7-0.8,1.9-1,2.9-1.3
				c1.6-0.3,3.1-0.7,4.7-1l0.6-0.2c0.5-0.2,1-0.3,1.5-0.4c2.1-0.5,3.3-0.6,5.4-0.5c1.4-0.1,2.8-0.3,4.2-0.3c0.9,0,1.9-0.1,2.8,0.2
				c1.2,0.4,2.1,1.4,3.1,2.2c1.5,1.1,3.3,1.8,4.9,2.7c1.2,0.7,2.4,1.7,2.7,3.1c0.3,1.3-0.4,2.7-1.2,3.8c-1.2,1.9-1.1,2.7-1.9,4.9
				c-0.3,0.8-0.6,1.6-1.1,2.3l-0.2,1.3c-0.1,4.1,2.6,7.8,3,11.9c0.3,2.9-0.5,5.8-0.5,8.8c0,2,0.4,4,0.7,6c0.6,4.5,0.6,9.1-0.4,13.5
				c-0.9,3.5-4.1,7.9-7.1,11.1c-2.1,6-2.5,14.4-2.7,21.9c-0.1,3.5,0.1,7.5,2.2,10.4l0.5,0.5c0.9,0.3,1.7,0.8,2.4,1.5
				c0.5,0.5,0.9,1.1,1.1,1.8s0,1.4-0.4,2c0,0-0.4,0.7-1.2,0.9c-0.8,0.2-1.5,0.2-2.3,0.2c-1.2,0-2.5,0.1-3.7,0.1
				c-0.7,0-1.5,0-2.2-0.2l-0.4-0.1c-2.5-1.3-3.1-4.4-4.3-6.9c-1.1-2.3-2.9-4.3-3.9-6.6c-0.9-2.2-0.4-7.8-0.4-10.1
				c-0.8,1.6-1.4,3-1.7,4.8c0.1-4.9-2.3-11.5-3.9-16.2c-0.6,7.3-0.2,11.5,0.4,18.7c0.3,3.6-0.6,7.6,1.8,10.3l0.9,0.3
				c1.2,0.4,2.3,1.3,2.8,2.4c0.5,1.2,0.2,2.6-0.6,3.5c-0.3,0.3-0.5,0.4-0.9,0.6c-3.4,0.9-6.7,0.4-10-0.7c-0.5-0.2-1-0.5-1.4-0.8
				c-0.8-0.5-1.2-1.1-1.5-1.7c-2.3-3.9-2.3-8.8-3.3-12.9c-0.4-1.5-1.4-4.5-2.1-5.9c-0.8-1.7-1-1.3-1.5-3.1c-0.7-2.5-0.9-4.4-1.4-6.9
				l-0.3-0.1c-4.3-1.6-5.9-2-9.6-4.1c-1.7,2.3-6.4,4-6.4,8.3c0,2.8,1.2,9.7,2,12.4l1.1,0.2c0.5,0.1,0.9,0.2,1.3,0.5
				c0.8,0.4,1.3,1.2,1.5,2s-0.1,1.7-0.7,2.4l-1.2,0.3c-2.8,0.5-5.7,0.3-8.5-0.5c-0.7-0.2-1.5-0.4-1.9-1l-0.7-1.8
				c-0.8-5.3-3.4-13.7-4.6-15c-0.1-2.6,3-4.6,3.2-7.1c0.1-1.1-1.6-5.3-1.5-7.7l-2,3.5c-3.1,6.1-6.4,12.4-12.2,16.2
				c-2.2,3.4-2.9,6.1-2.2,10l0.3,0.7c0.8,0.1,1.3,0.2,2.1,0.6c0.8,0.3,1.5,0.9,1.8,1.7c0.1,0.3,0.1,0.5,0.2,0.8
				c0.1,0.9,0,1.9-0.8,2.4c-1,0.6-2.1,0.6-3.3,0.6c-1.2-0.1-2.4-0.4-3.5-0.5s-3.9-0.6-4.9-1.2c-0.7-0.3-1.1-1-1.4-1.7
				c-0.5-0.9-0.9-1.9-1.1-2.9c-0.2-1.4,0.1-2.8,0.3-4.1c0.3-2.5,0.2-5-0.3-7.4h0.1c0.8-0.6,1.5-1.4,2.1-2.3c1.6-2.7,1.5-6,2.5-8.9
				c0.5-1.3,1.1-2.5,1.5-3.8c-1.5,1.8-5.6,2.3-8.2,2.1c0.5-0.1,1.1-1.1,1.4-1.5c-1.4,0.7-5.5-0.7-6.7-1.7c1.4-0.5,4.5-3.4,5.5-4.6
				c3.8-4.8,3.5-11.5,5.1-17.3c1.7-6,6.4-13.1,11.7-16.6"/>
		</defs>
		<clipPath id="SVGID_2_">
			<use xlink:href="#SVGID_1_"  style="overflow:visible;"/>
		</clipPath>
		<g id="Base_1_" class="st0">
			<rect x="12.2" y="21.4" class="st1" width="127.5" height="122.8"/>
			<g>
				<path class="st2" d="M93,53.9L93,53.9c0.2,0.1,1.6,0.9,0.5,1.5c-0.9,0.5-7.2,2.1-8.4,2.6c-2.7,1-6.1,1.2-9,1
					c-6.2-0.5-11.9,0.6-18,0.1c-1.9-0.1-3.8-0.3-5.7-0.2c-5.4,0-10.5,1.8-15.3,4.1c3.5-5.7,10-9.1,16.5-11.1
					c2.7-0.8,5.4-1.5,8.2-1.9c3.8-0.5,7.6-0.4,11.3,0.2c3.3,0.5,6.6,1.5,9.8,0.9c1.6-0.3,4.3-1.7,5.8-0.8c0.6,0.4,1.2,1.5,1.8,2.1
					C91.2,53,92.1,53.5,93,53.9z"/>
			</g>
			<g>
				<path class="st2" d="M120,58.9c-0.6,3.7-0.7,7.5,0,11.2c0.2,1,0.4,2.1,0.2,3.1c-0.2,0.9-0.7,1.8-1.1,2.7
					c-1.5,3.5-0.4,7.5,0.1,11.3c0.5,4.4,0.1,9.2-2.6,12.9c-1.1,1.5-2.6,2.8-3.6,4.4c-0.9,1.5-1.3,3.1-1.8,4.8c-0.5,2-1.1,4-0.9,6.1
					c0.1,1.2,0.5,2.3,0.9,3.5c0.7,2,1.3,3.9,2,5.9c0.4,1.2,1,2.6,2.3,2.8c0.6,0.1,1.2-0.1,1.8-0.4c1.8-1,2.7-2.9,3.5-4.7
					c2.3-5.4,4.6-10.8,6.9-16.2c0.9-2.1,1.8-4.2,2.4-6.4c0.7-2.7,1-5.5,1.3-8.3c1.1-10.7,2.1-21.6-0.6-32c-0.6-2.3-1.4-4.6-2.8-6.6
					l0,0c-1.2-1.7-5.9-5.9-8.4-4.1c-1.5,1,0,2.8,0.5,4C120.8,54.8,120.4,56.8,120,58.9z"/>
			</g>
			<g>
				<path class="st2" d="M31.6,87.4L31.6,87.4c-0.6,3.2-0.8,6.7-2.5,9.5c-1.3,2.1-3.3,3.6-5.3,5.1c1.7,0.6,3.7,0.8,5.5,0.5
					c0.8-0.1,1.6-0.4,2.3-0.9c1.4-1.2,1.3-3.3,1.1-5.1c-0.2-2.7-0.2-5.5,0.1-8.3c0.2-1.6,1.9-6.1,0.9-7.3
					C32.5,82.6,32,85.4,31.6,87.4z"/>
			</g>
			<g id="Dark_1_">
				<g>
					<path class="st3" d="M97.9,89.2L97.9,89.2c-0.6,1-1.1,2.1-1.3,3.3c-0.2,1.1-0.1,2.4,0.6,3.4c0.6,1,1.7,1.7,2.3,2.7
						c0.5,0.9,0.6,2,0.2,2.9c0.6-0.3,1.2-0.6,1.8-0.7s1.4,0.1,1.7,0.6c0.3,0.4,0.3,0.9,0.4,1.4s0.3,1,0.8,1.1s1-0.2,1.3-0.6
						c0.9-1,1.2-2.4,1-3.6c-0.2-0.9-0.6-1.7-1-2.6c-0.5-1.2-0.7-2.4-0.7-3.7c0-1.5,0.8-5-1.3-5.5c-2.1-0.6-2.5,2.5-3.5,3.6
						C99.4,90.7,98.7,89.9,97.9,89.2z"/>
				</g>
				<g>
					<path class="st3" d="M110.5,48.3c1-0.1,2,0.4,2.9,0.9c1.3,0.9,2.6,2,3,3.5c-0.2-0.4-0.8-0.4-1-0.1s-0.2,0.8,0,1.1
						s0.6,0.6,1,0.8c1.2,0.7,2.5,1.2,3.6,2.1c1.1,0.8,2,2.1,2,3.4c-2.5-0.9-5.4-0.2-7.9,0.7s-5.1,2.1-7.8,1.9
						c-2.6-0.1-5-1.5-7.4-2.7c-1-0.5-2-1-3.1-1s-3,0.9-3.1,2c-0.1-1.2,0.1-2.1-0.6-3.2c-0.3-0.5-0.6-1.5-0.6-2.1s1.5-1.6,1.9-2.1
						c0.6-0.8-0.9-2.6,0.1-2.9c1-0.4,2.9,0.6,4.1,0.6c1,0,2.2,0.3,3.1,0l0,0c1.9-0.6,3.8-1.4,5.8-1.8c0.7-0.1,1.3-0.1,2-0.4
						C108.9,48.9,109.6,48.4,110.5,48.3z"/>
				</g>
				<g>
					<path class="st3" d="M112.7,120.4L112.7,120.4c-0.8-1.7-1.5-3.4-2.3-5c-0.5-1.1-1.2-2.4-2.5-2.4c-1.2,0-2.2,1.2-3.4,1.1
						c-1.9-0.1-2.9-3.1-4.7-2.7c-0.3,2.2-0.6,4.4-0.9,6.6c-0.6,0.1-1.2-0.1-1.7-0.4c-0.6,1.7-2.4,3.1-4.3,3.2
						c-1.9,0.2-3.9-0.8-4.8-2.4c-0.8,0.8-1.5,1.5-2.3,2.3c-1.8-3.7-3.5-7.4-5.3-11.1c0,1.6-0.5,3.2-1.5,4.5c-3.2-2.1-2.7-7.3-6.2-9
						C63,100.2,60,95.2,55.9,89.3c-0.2,3.1-2.4,7.2-5.3,8.8c-0.7,0.4-1.5,0.7-2,1.3c-0.6,0.8-0.6,1.9-0.9,2.9
						c-0.6,1.7-2.7,2.9-4.5,2.5c0.4,2.1-1.6,3.8-3.5,4.8c-1.9,1.1-4,2.2-4.5,4.3c0.2-0.3,0.5,0.3,0.4,0.6c-1.3,3.2-2.7,6.5-4,9.7
						c-0.4,1-0.8,2-1.6,2.8c-1.1,1.1-3,1.7-3.3,3.2c-0.2,1.2,0.8,2.2,1.7,3c9.3,8,21.8,12.4,34.2,12.2c3.3,0,6.9-0.6,8.9-3.1
						c1.3-1.6,2.3-4.1,4.3-3.8c0.5,0.1,1,0.3,1.5,0.6c14.3,7.7,31.1,11,47.4,9.3c1.9-0.2,4-0.5,5.3-2c0.8-0.9,1.1-2.1,1.3-3.3
						c0.8-4.8-0.7-9.6-3.5-13.6c-1.4-2.1-3.1-3.9-5.1-5.5c-1.4-1.2-4.3-3.9-6.3-3c-0.6,0.3-1,1.3-1.7,1.4
						C114,122.8,113,121.2,112.7,120.4z"/>
				</g>
				<g>
					<g>
						<path class="st3" d="M104.8,38.2c0.3-0.3,0.6-0.4,1-0.5c0.3,0,0.4-0.1,0.7-0.2c0.2-0.1,0.2,0,0.5,0s0.5-0.3,0.3-0.6
							c-0.4-0.5-1-1-1.8-0.8c-0.8,0.1-1.4,0.5-1.8,1.2C103.3,38.1,104.2,38.8,104.8,38.2L104.8,38.2z"/>
					</g>
				</g>
				<g>
					<g>
						<path class="st3" d="M98.9,39.2c-0.2-0.8-1.1-1.1-1.8-0.8c-0.3,0.1-0.6,0.3-0.8,0.6c-0.2,0.3-0.2,0.5-0.3,0.8
							c0,0.2,0.2,0.5,0.4,0.3c0.3-0.2,0.7-0.2,1-0.2c0.4,0,0.8-0.1,1.2-0.2C98.9,39.6,99,39.4,98.9,39.2L98.9,39.2z"/>
					</g>
				</g>
				<g>
					<path class="st4" d="M91.9,120.9c-1.9-0.4-0.8,1.5,0.4,3.1c0.6,0.8,0.5,2.6,0.8,3.6c0.4,1.6,0.2,3.3,0.6,4.9
						c0.3,1.6,1.6,3.3,3.3,3.3c0.8,0,1.6-0.4,2.3-0.9c0.3-0.2,0.6-0.4,0.8-0.7c0.7-1,0.2-2.4-0.3-3.6c-0.6-1.6-1-3.2-1.2-4.8
						c-0.2-1.8,0.1-3.6-0.1-5.3c-0.1-1.3-0.7-3.3-1.4-2C96.5,119.3,94.7,121.5,91.9,120.9z"/>
				</g>
			</g>
			<g id="Light_1_">
				<g>
					<path class="st5" d="M103.1,36.1L103.1,36.1c-0.9,1.6-0.8,3.7,0.1,5.4c0.8,1.7,2.3,3,3.9,4.1c0.5,0.3,1.1,0.8,1.1,1.4
						c0,0.4-0.3,0.8-0.5,1.2c-0.7,1.4,0.5,3,1.3,4.4s0.2,4-1.4,4.5c2.5,1,4.9,1.1,6.3-0.9c-0.5,0.5,0.4,1.1-0.1,1.6
						c3-1.1,7.1,0.9,9.2,3.2c-0.7-0.5-1.6,0.6-1.4,1.4c0.2,0.8,0.8,3-0.6,5.4c-0.9,1.5,4,3.9,2,10.5c-0.2-2.9-2.9-0.5-1,1.9
						c1.5,1.8,2.2,4.4,1.4,6.6c-0.4,1-1.1,1.8-1.6,2.7c-0.8,1.8-0.2,3.9-0.9,5.8c-0.5,1.2-1.4,2.1-2.2,3.1c-1.8,2.2-3.2,4.8-3.9,7.6
						c-0.2-0.5-0.4-0.9-0.6-1.4c-0.5,1.6-1.4,3-2.5,4.3c0.3-1.6,0-3.3-0.8-4.8c-3.4,2.3-5.8,2.9-9.9,3.6c1.7-2.7,2.9-4.6,3.2-6.8
						c0.6-4.2-4.8-3.1-5.5-7.7c1,0.5,2.2,0.7,3.4,0.4c-1-2-1.6-4.3-1.2-6.5c0.3-1.6,1-3.1,0.9-4.8c-0.2-2.8-2.6-4.8-4.7-6.7
						c-2.1-1.9-3.1-5-2.5-7.7c-0.7,1.4-1.2,2-2.7,2.7c0.7-2.2,0.7-3.5,0.2-4.8S91,63,91.7,61.9c0.2-0.4,0.6-0.7,0.8-1.1
						c0.6-1.1,0-2.3-0.3-3.5s0.7-3.1,1.9-3.5c1,1.1,1.6,1.9,2.8,3c-2.2-2.4-2.6-6.5-1.1-9.3c0.9-1.6,2.3-2.9,3.4-4.5
						s1.9-3.5,1.1-5.2c-0.2-0.6-0.7-1.1-0.9-1.6c-1.2-2.3,0-7.2,3.5-6.2c1,0.3,1.9,1,1.7,2.1c-0.2,0.7-0.8,1-1,1.8
						C103.6,34.7,103.7,35.2,103.1,36.1z"/>
				</g>
			</g>
			<g>
				<path class="st4" d="M62.9,99.2c0.7,0.8,4.1,2.6,3.4,3.4c-0.2,0.3-1.4,2.4-4.7,3.7c-3.4,1.3-5.7,2.8-5.6,4.3
					c0,0.6,0.3,1.1,0.3,1.7c0.1,0.5,0.1,1,0,1.5c-0.1,4,0.8,7.9,2.7,11.5c0.3,0.6,0.7,1.3,0.4,2c-0.4,1-1.8,1-2.7,1.5
					c-1.3,0.7-1.7,2.4-3.1,2.9c-0.7,0.3-1.5,0.2-2.2,0.2c-1.6,0.1-3.1,0.6-4.6,1.1c-3.9,1.1-1.9-19,1.5-22.5
					c2.9-2.9,4.8-11.5,5.6-15.4l0,0c0.3-1.1,1.1-4,2-6c0.9,1.7,1.3,3.3,1.9,4.2C59.9,96.3,60.5,96.6,62.9,99.2z"/>
			</g>
		</g>
	</g>
	<g>
		<defs>
			<path id="SVGID_3_" d="M40.2,62.4c3.2-4,9.8-5.8,12.7-5.8c4.1-0.1,17.6,0.9,21.4,0.2s13.3-2.7,14.5-6.2v-1.3
				c-0.3-0.7-0.7-1.3-1-2c-1.3-3.5-0.2-7.6,2.5-10.2c0.6-0.6,1.3-1.1,1.8-1.8c0.6-0.9,0.8-2.1,1.5-3c0.7-0.8,1.9-1,2.9-1.3
				c1.6-0.3,3.1-0.7,4.7-1l0.6-0.2c0.5-0.2,1-0.3,1.5-0.4c2.1-0.5,3.3-0.6,5.4-0.5c1.4-0.1,2.8-0.3,4.2-0.3c0.9,0,1.9-0.1,2.8,0.2
				c1.2,0.4,2.1,1.4,3.1,2.2c1.5,1.1,3.3,1.8,4.9,2.7c1.2,0.7,2.4,1.7,2.7,3.1c0.3,1.3-0.4,2.7-1.2,3.8c-1.2,1.9-1.1,2.7-1.9,4.9
				c-0.3,0.8-0.6,1.6-1.1,2.3l-0.2,1.3c-0.1,4.1,2.6,7.8,3,11.9c0.3,2.9-0.5,5.8-0.5,8.8c0,2,0.4,4,0.7,6c0.6,4.5,0.6,9.1-0.4,13.5
				c-0.9,3.5-4.1,7.9-7.1,11.1c-2.1,6-2.5,14.4-2.7,21.9c-0.1,3.5,0.1,7.5,2.2,10.4l0.5,0.5c0.9,0.3,1.7,0.8,2.4,1.5
				c0.5,0.5,0.9,1.1,1.1,1.8s0,1.4-0.4,2c0,0-0.4,0.7-1.2,0.9c-0.8,0.2-1.5,0.2-2.3,0.2c-1.2,0-2.5,0.1-3.7,0.1
				c-0.7,0-1.5,0-2.2-0.2l-0.4-0.1c-2.5-1.3-3.1-4.4-4.3-6.9c-1.1-2.3-2.9-4.3-3.9-6.6c-0.9-2.2-0.4-7.8-0.4-10.1
				c-0.8,1.6-1.4,3-1.7,4.8c0.1-4.9-2.3-11.5-3.9-16.2c-0.6,7.3-0.2,11.5,0.4,18.7c0.3,3.6-0.6,7.6,1.8,10.3l0.9,0.3
				c1.2,0.4,2.3,1.3,2.8,2.4c0.5,1.2,0.2,2.6-0.6,3.5c-0.3,0.3-0.5,0.4-0.9,0.6c-3.4,0.9-6.7,0.4-10-0.7c-0.5-0.2-1-0.5-1.4-0.8
				c-0.8-0.5-1.2-1.1-1.5-1.7c-2.3-3.9-2.3-8.8-3.3-12.9c-0.4-1.5-1.4-4.5-2.1-5.9c-0.8-1.7-1-1.3-1.5-3.1c-0.7-2.5-0.9-4.4-1.4-6.9
				l-0.3-0.1c-4.3-1.6-5.9-2-9.6-4.1c-1.7,2.3-6.4,4-6.4,8.3c0,2.8,1.2,9.7,2,12.4l1.1,0.2c0.5,0.1,0.9,0.2,1.3,0.5
				c0.8,0.4,1.3,1.2,1.5,2s-0.1,1.7-0.7,2.4l-1.2,0.3c-2.8,0.5-5.7,0.3-8.5-0.5c-0.7-0.2-1.5-0.4-1.9-1l-0.7-1.8
				c-0.8-5.3-3.4-13.7-4.6-15c-0.1-2.6,3-4.6,3.2-7.1c0.1-1.1-1.6-5.3-1.5-7.7l-2,3.5c-3.1,6.1-6.4,12.4-12.2,16.2
				c-2.2,3.4-2.9,6.1-2.2,10l0.3,0.7c0.8,0.1,1.3,0.2,2.1,0.6c0.8,0.3,1.5,0.9,1.8,1.7c0.1,0.3,0.1,0.5,0.2,0.8
				c0.1,0.9,0,1.9-0.8,2.4c-1,0.6-2.1,0.6-3.3,0.6c-1.2-0.1-2.4-0.4-3.5-0.5s-3.9-0.6-4.9-1.2c-0.7-0.3-1.1-1-1.4-1.7
				c-0.5-0.9-0.9-1.9-1.1-2.9c-0.2-1.4,0.1-2.8,0.3-4.1c0.3-2.5,0.2-5-0.3-7.4h0.1c0.8-0.6,1.5-1.4,2.1-2.3c1.6-2.7,1.5-6,2.5-8.9
				c0.5-1.3,1.1-2.5,1.5-3.8c-1.5,1.8-5.6,2.3-8.2,2.1c0.5-0.1,1.1-1.1,1.4-1.5c-1.4,0.7-5.5-0.7-6.7-1.7c1.4-0.5,4.5-3.4,5.5-4.6
				c3.8-4.8,3.5-11.5,5.1-17.3c1.7-6,6.4-13.1,11.7-16.6"/>
		</defs>
		<clipPath id="SVGID_4_">
			<use xlink:href="#SVGID_3_"  style="overflow:visible;"/>
		</clipPath>
		<g id="Details_1_" class="st6">
			<g>
				<path class="st5" d="M103.8,134.8c-2.6-1.7-4.9-2.1-7.9-1.1c-2.2,0.8-4.6,2.1-7,2.1c-1.7,0-3.2-0.7-4.6-1.6c-3-1.9-5.3-4.7-8-7
					c-2.7-2.2-5.1-3.2-8.7-3c-8.8,0.5-7.4,2.8-10.7,4c-1.1,0.4-2.3,0.2-3.4,0.4c-1.4,0.3-2.7,0.9-4.1,1.2c-3.2,0.7-6-1.1-9.1-2.3
					c-1.5-0.6-2.7-0.6-4.4-0.6s-3.8,1.2-4.8,2.4c-1.1,1.3-2.1,2.2-2.7,2.2s-0.1,6.9,3.3,9c3.2,1.9,10.4,3.2,14,4.4
					c3.9,1.4,7.9,2.7,12,3.5c3.7,0.7,7.5,0.9,11.3,1.2c8.2,0.6,16.4,1.6,24.5,3c3.5,0.6,7.1,1.2,10.7,1.1c3.7-0.2,7.2-1.2,10.7-2.3
					c2.8-0.9,5.6-1.8,8.4-2.8c1.8-0.6,3.7-1.4,4.7-3c2.4-3.7-1.5-8.2-4.4-10.4c-1.5-1.2-3.7-2.2-5.6-2.3c-5-0.4-7.3,1.7-9.2,2.3
					C105.1,136.4,104.5,135.3,103.8,134.8z"/>
			</g>
			<g>
				<path class="st7" d="M103.7,60c-1.7-0.1-3.6-0.4-4.7-1.8c-0.8-1-1.6-1.3-3.1-2.4c1.3,1.7,2.6,3.5,3.6,5.4c0.5,0.9,1,1.8,1.9,2.2
					c-0.2-0.2-0.2-0.5,0-0.7s0.5-0.2,0.8-0.2c2.4,0.3,3.6,3.4,6,3.6c-0.5-1-0.2-2.3,0.4-3.2s1.7-1.6,2.7-2c0.5-0.2,0.6-3.1,1.2-3.9
					c-1.1,0.4-1.5,0.6-2.3,1.1C108.4,59.4,106.1,60.1,103.7,60z"/>
			</g>
			<g>
				<path class="st1" d="M99.8,45.4c0.8-0.1,2.1,0.1,2.4,0.2c0.4,0.2,0.8,0.4,1.1,0.7s0.4,0.8,0.2,1.2c-0.1,0.2-0.3,0.4-0.3,0.6
					c0,0.2,0.1,0.4,0.2,0.7c0.2,0.6,0.2,1.3-0.1,1.9c-0.3,0.6-0.9,1-1.5,1.2c-0.7,0.2-2.7,0.3-3.3-0.1c-0.6-0.4-0.6-0.9-0.8-1.3
					c-0.1-0.2-0.3-0.3-0.4-0.5c-0.5-0.5-0.9-1.3-0.9-2C96.4,46,98.5,45.5,99.8,45.4z"/>
			</g>
			<g>
				<path class="st8" d="M107,40.1L107,40.1c0.1,0,0.2,0,0.3,0c0.1,0,0.2,0.1,0.3,0.2c0.2,0.1,0.4,0.3,0.6,0.4
					c0.1,0.1,0.3,0.2,0.4,0.4s0.1,0.4,0,0.5s-0.2,0.2-0.3,0.2c-0.4,0.1-0.7,0.3-1.1,0.3c-0.6,0-1.3-0.3-1.3-0.9
					C105.7,40.4,106.3,40.1,107,40.1z"/>
			</g>
			<g>
				<path class="st8" d="M97.7,41.2L97.7,41.2c-0.2,0-0.5,0-0.7,0.1c-0.4,0.2-1,1.5-0.9,1.7c0.1,0.1,0.3,0.2,0.5,0.2
					c0.3,0.1,0.5,0.1,0.8,0.1s0.5-0.1,0.7-0.3C98.8,42.6,98.7,41.3,97.7,41.2z"/>
			</g>
			<ellipse class="st5" cx="96.9" cy="42" rx="0.5" ry="0.5"/>
			<ellipse class="st5" cx="107.6" cy="40.8" rx="0.5" ry="0.5"/>
		</g>
	</g>
</g>
<g id="Outlines">
	<g>
		<g>
			<path class="st9" d="M122.1,49c-0.1,4.2,2,7.9,2.4,12.1c0.4,4.4-0.5,8.7,0.1,13.2c0.7,5.2,1,10.7-0.7,15.8
				c-1.6,4.8-5,8.6-8.4,12.2c-0.1,0.2,0.1,0.4,0.2,0.2c7.3-6.1,11.3-13.1,10.7-22.7c-0.1-2.4-0.6-4.9-0.8-7.3c-0.3-3.1,0.2-6,0.3-9
				c0.2-5.2-2.9-9.5-3.6-14.5C122.3,48.9,122.1,48.9,122.1,49L122.1,49z"/>
		</g>
	</g>
	<g>
		<g>
			<path class="st9" d="M118.1,99.6c-2.9,4.5-3,11.5-3.3,16.7c-0.4,5.5-1.1,11.5,2,16.4c0.4,0.7,1.5,0.1,1.1-0.6
				C112.4,122.5,117.6,109.6,118.1,99.6C118.2,99.5,118.2,99.5,118.1,99.6L118.1,99.6z"/>
		</g>
	</g>
	<g>
		<g>
			<path class="st9" d="M97.2,101c-1.2,6.2-1.3,12.6-0.8,18.9c0.4,4.4-0.3,9.5,2.4,13.3c0.3,0.4,1,0,0.7-0.4
				c-2.7-3.9-1.6-11.2-1.7-15.9c-0.1-5.3-0.2-10.6-0.4-15.9C97.3,101,97.2,100.9,97.2,101L97.2,101z"/>
		</g>
	</g>
	<g>
		<g>
			<path class="st9" d="M97,104.1c0.9,5.5,3,10.6,3.5,16.2c0,0.2,0.3,0.2,0.3,0C101.1,115,99.3,108.8,97,104.1L97,104.1L97,104.1z"
				/>
		</g>
	</g>
	<g>
		<g>
			<path class="st9" d="M102.5,115.5c-0.6,0.5-1,1.4-1.2,2.1c-0.3,1-0.6,2-0.5,3.1c0,0.2,0.2,0.2,0.3,0c0.3-0.9,0.6-1.8,0.9-2.7
				c0.2-0.8,0.7-1.6,0.7-2.4C102.6,115.5,102.5,115.4,102.5,115.5L102.5,115.5z"/>
		</g>
	</g>
	<g>
		<g>
			<path class="st9" d="M102.5,115.5c-1.2,3.9-0.9,8.9,1,12.5c1.5,2.6,2.8,5.3,4.2,7.9c0.8,1.6,1.7,2.7,3.4,3.3
				c0.1,0.1,0.2-0.1,0.1-0.2c-1.7-1.7-2.4-3.8-3.3-5.9c-0.9-2.1-2.3-3.8-3.4-5.7C102.3,123.5,103.7,119.6,102.5,115.5L102.5,115.5
				L102.5,115.5z"/>
		</g>
	</g>
	<g>
		<g>
			<path class="st9" d="M121.6,137.8c-1.6,1.2-3.5,1.1-5.4,1.1c-2.1,0.1-4.4,0.5-6.1-1.1c-0.1-0.1-0.4,0-0.3,0.2
				c0.9,2.2,4,1.7,6,1.7C117.6,139.8,120.8,140.1,121.6,137.8L121.6,137.8L121.6,137.8z"/>
		</g>
	</g>
	<g>
		<g>
			<path class="st9" d="M121.1,138.3c1.4-1.6,0.5-3.6-1-4.7c-0.8-0.6-1.6-1-2.6-1.1c-1.3-0.2-2,0.3-3.1,1l0,0c1.1-0.5,3.2,0,4.3,0.5
				c1.5,0.7,3,2.4,2.1,4.1C120.8,138.3,121,138.4,121.1,138.3L121.1,138.3z"/>
		</g>
	</g>
	<g>
		<g>
			<path class="st9" d="M119,138.9c1.3-1.4,1.7-4.1-0.2-5.3c-0.1-0.1-0.2,0.1-0.2,0.2c0.5,0.8,1,1.4,1.1,2.5
				C119.8,137.3,119.5,138.1,119,138.9C119,138.9,119,139,119,138.9L119,138.9z"/>
		</g>
	</g>
	<g>
		<g>
			<path class="st9" d="M115.3,139.1c0.8-0.5,0.8-2.1,0.7-2.9c-0.2-0.9-0.9-1.8-1.9-1.8c-0.1,0-0.2,0.2-0.1,0.2
				c0.8,0.4,1.4,0.9,1.7,1.9C115.9,137.4,115.6,138.2,115.3,139.1C115.2,139.1,115.2,139.1,115.3,139.1L115.3,139.1z"/>
		</g>
	</g>
	<g>
		<g>
			<path class="st9" d="M79.8,102.2c-1.1,5.3,0.6,11.3,2.9,16.1c2.8,5.9,1.9,13.2,5.7,18.6c0.1,0.1,0.2,0,0.2-0.1
				c-2.5-5.4-2.1-11.7-4.3-17.2c-2.2-5.3-4-11.5-4.2-17.3C80,102.1,79.8,102,79.8,102.2L79.8,102.2z"/>
		</g>
	</g>
	<g>
		<g>
			<path class="st9" d="M79.7,102.3c-0.4,0.4-0.6,1.2-0.9,1.7c-0.3,0.6-0.6,1.1-0.8,1.8c0,0,0,0.1,0.1,0.1c0.8-0.3,1.2-0.8,1.5-1.6
				C79.8,103.8,80.1,102.9,79.7,102.3C79.8,102.3,79.8,102.3,79.7,102.3L79.7,102.3z"/>
		</g>
	</g>
	<g>
		<g>
			<path class="st9" d="M78.8,98.9c-0.8,2.2-0.4,4.5-0.9,6.8c0,0.2,0.3,0.3,0.3,0C78.5,103.5,79.2,101.1,78.8,98.9L78.8,98.9
				L78.8,98.9z"/>
		</g>
	</g>
	<g>
		<g>
			<path class="st9" d="M101.3,140.1c0.9,0.2,1.6-0.8,1.9-1.6c0.5-1.1,0.4-2.4-0.1-3.4c-1.3-2.5-4.6-2.7-6.8-1.4
				c-0.2,0.1-0.1,0.4,0.1,0.3c1.9-0.7,4-0.4,5.4,1.1c0.7,0.8,1.1,1.8,0.8,2.8C102.4,138.9,101.7,139.3,101.3,140.1L101.3,140.1
				L101.3,140.1z"/>
		</g>
	</g>
	<g>
		<g>
			<path class="st9" d="M101.8,139.8c-4.4,0.1-10.9,0.7-13.4-3.9c-0.2-0.3-0.6,0-0.4,0.3c1.3,2.7,2.8,3.3,5.7,4
				c2.7,0.6,5.6,1,8.2-0.2C101.9,139.9,101.9,139.8,101.8,139.8L101.8,139.8z"/>
		</g>
	</g>
	<g>
		<g>
			<path class="st9" d="M100.7,139.6c0.5-1,0.5-2,0.1-3c-0.3-0.7-0.8-1.6-1.6-1.8c-0.1,0-0.3,0.1-0.2,0.2c0.4,0.5,1,0.9,1.3,1.5
				C100.8,137.5,100.9,138.6,100.7,139.6C100.6,139.6,100.7,139.6,100.7,139.6L100.7,139.6z"/>
		</g>
	</g>
	<g>
		<g>
			<path class="st9" d="M95.6,139.5c0.5-0.9,0.9-1.6,0.8-2.6c-0.1-0.6-0.5-1.7-1.2-1.6c-0.1,0-0.1,0.1-0.1,0.1
				c0,0.5,0.5,0.8,0.7,1.3C96.2,137.5,96.3,138.7,95.6,139.5C95.4,139.5,95.5,139.5,95.6,139.5L95.6,139.5z"/>
		</g>
	</g>
	<g>
		<g>
			<path class="st9" d="M80,107.7c-3.8-2-8-3.3-11.8-5.5c-4.2-2.4-7.6-5.7-10.4-9.6c-0.1-0.1-0.2,0-0.2,0.1
				c4.3,7.7,13.7,13.6,22.2,15.6C80.1,108.4,80.3,107.9,80,107.7L80,107.7z"/>
		</g>
	</g>
	<g>
		<g>
			<path class="st9" d="M69.8,104.1c-2.5,2.4-6,3.7-6.4,7.6c-0.4,4,1,9.3,2.4,13c0,0.1,0.2,0.1,0.2-0.1c-0.8-3.7-1.8-7.9-1.6-11.7
				c0.2-4.5,3.8-5.2,5.9-8.5C70.5,104.2,70,103.9,69.8,104.1L69.8,104.1z"/>
		</g>
	</g>
	<g>
		<g>
			<path class="st9" d="M58.2,128.9c-1.6-1.2-1.4-4.3-1.7-6c-0.4-1.8-0.8-3.6-1.3-5.4c-0.6-2.1-1.1-4.5-2.9-6
				c-0.2-0.1-0.4,0-0.3,0.2c1.4,3,2.3,6.6,3.2,9.9c0.6,2.2,0.6,6.3,2.8,7.6C58.3,129.4,58.4,129.1,58.2,128.9L58.2,128.9z"/>
		</g>
	</g>
	<g>
		<g>
			<path class="st9" d="M53.7,96.8c-0.5,2.3,0.6,4.6,0.8,6.9c0.3,3.2-2.3,5.1-2.6,8.1c0,0.5,0.8,0.5,0.8,0c0.2-3,3.3-4.7,3.2-7.6
				c-0.1-2.3-1.5-5-2.1-7.3C54,96.7,53.8,96.7,53.7,96.8L53.7,96.8z"/>
		</g>
	</g>
	<g>
		<g>
			<path class="st9" d="M55.9,89.1c-4,10-8,20-16.5,27.2c-0.3,0.3,0.1,0.8,0.4,0.6c6-3.6,9.7-9.9,12.5-16.2
				c1.6-3.5,3.6-7.6,3.8-11.5C56.2,89,56,89,55.9,89.1L55.9,89.1z"/>
		</g>
	</g>
	<g>
		<g>
			<path class="st9" d="M40.2,115.1c-2,2.1-3.1,5.1-3.1,7.9c0,1.3-0.2,4.9,1.7,4.9c0.4,0,0.5-0.6,0.1-0.8c-1.6-0.4-0.5-5.7-0.3-6.7
				c0.4-1.8,1.1-3.5,1.7-5.3C40.4,115.1,40.3,115,40.2,115.1L40.2,115.1z"/>
		</g>
	</g>
	<g>
		<g>
			<path class="st9" d="M34.7,78c-3,7.1-3.5,15.6-2.1,23.1c0.1,0.3,0.6,0.2,0.6-0.1c-0.3-7.9,0.5-15.2,1.7-23
				C34.9,77.9,34.8,77.9,34.7,78L34.7,78z"/>
		</g>
	</g>
	<g>
		<g>
			<path class="st9" d="M32.9,100.5c-1.4,2.4-2.2,4.7-2.8,7.3c-0.6,3-1.8,5.1-3.4,7.6c-0.1,0.1,0.1,0.3,0.2,0.3
				c2.1-0.8,3-2.8,3.6-4.9c0.4-1.5,0.5-3,0.9-4.6c0.4-1.9,1.3-3.7,1.7-5.7C33.1,100.4,33,100.3,32.9,100.5L32.9,100.5z"/>
		</g>
	</g>
	<g>
		<g>
			<path class="st9" d="M26.8,115.5c0,2.4,0.2,4.8-0.1,7.2c-0.2,1.5-0.5,3-0.3,4.5c0.3,1.7,1.2,4.5,3.1,4.7c0.2,0,0.3-0.2,0.2-0.3
				c-1.7-3.1-2.3-5-1.9-8.5c0.3-2.6,0.2-5.1-0.8-7.5C26.9,115.4,26.8,115.4,26.8,115.5L26.8,115.5z"/>
		</g>
	</g>
	<g>
		<g>
			<path class="st9" d="M88.7,50.6c-2.9,3.7-9,4.6-13.4,5.4c-4.4,0.8-9,0.3-13.5,0.2c-7.6-0.2-16.7-0.6-21.9,6.1
				c-0.2,0.3,0.3,0.7,0.5,0.4c8.6-8.2,19.6-4.8,30.3-5c4.9-0.1,16.5-1.4,18.2-7.1C88.9,50.6,88.8,50.5,88.7,50.6L88.7,50.6z"/>
		</g>
	</g>
	<g>
		<g>
			<path class="st9" d="M41.7,60.8c-6,3.1-10.3,10.3-12.2,16.6c-1.2,3.9-1.3,8.1-2.6,11.9c-1.5,4.7-4.5,6.7-7.6,10
				c-0.1,0.1,0,0.3,0.1,0.2c5.5-0.7,8.5-8.5,9.4-12.9s1.3-8.8,3.2-13C34.3,68.5,37.8,64.6,41.7,60.8C41.9,60.9,41.8,60.8,41.7,60.8
				L41.7,60.8z"/>
		</g>
	</g>
	<g>
		<g>
			<path class="st9" d="M33,100.4c-0.5,0.1-0.8,0.4-1.3,0.7c-0.8,0.4-1.7,0.6-2.5,0.8c-1.5,0.3-3,0.2-4.4,0.5c-0.3,0-0.2,0.5,0,0.5
				c1.6,0.5,3.5,0.2,5.1-0.2c1.1-0.3,2.9-0.9,3.2-2.1C33.1,100.5,33,100.4,33,100.4L33,100.4z"/>
		</g>
	</g>
	<g>
		<g>
			<path class="st9" d="M24.9,102.9c0.7-0.1,1.2-1,1.6-1.6c0.3-0.4-0.4-0.8-0.6-0.4c-0.3,0.4-0.6,1.2-1.1,1.3
				C24.4,102.4,24.5,103,24.9,102.9L24.9,102.9z"/>
		</g>
	</g>
	<g>
		<g>
			<path class="st9" d="M26.2,100.8c-0.4-0.2-0.9,0-1.3-0.1c-0.6-0.1-1.1-0.2-1.7-0.3c-1.2-0.2-2.3-0.5-3.2-1.2
				c-0.3-0.2-0.6,0.3-0.3,0.5c1,0.8,2.5,1.4,3.8,1.6C24.2,101.5,26,101.7,26.2,100.8C26.3,100.9,26.3,100.8,26.2,100.8L26.2,100.8z"
				/>
		</g>
	</g>
	<g>
		<g>
			<path class="st9" d="M64.4,124.8c1.3,0.3,2.7,0.1,3.9,1c1.4,1.1,1,2.4,0.4,3.7c-0.2,0.5,0.4,0.6,0.7,0.4c1.4-1.1,1.1-3.3,0-4.5
				c-1.2-1.2-3.5-1.6-5-0.8C64.3,124.7,64.3,124.8,64.4,124.8L64.4,124.8z"/>
		</g>
	</g>
	<g>
		<g>
			<path class="st9" d="M69.4,129.4c-3.4,0.8-8.8,1-11.7-1c-0.2-0.1-0.4,0.1-0.2,0.3c1.4,1.7,4.2,1.9,6.2,2
				C65.3,130.8,68.2,131,69.4,129.4L69.4,129.4L69.4,129.4z"/>
		</g>
	</g>
	<g>
		<g>
			<path class="st9" d="M37.4,127.3c1,0.6,2.2,0.6,3.1,1.4c1.1,1,1.3,2.7,0.3,3.8c-0.3,0.3,0.1,0.8,0.5,0.6c1.5-0.7,1.4-3,0.6-4.2
				C41,127.6,39,126.8,37.4,127.3C37.4,127.2,37.4,127.3,37.4,127.3L37.4,127.3z"/>
		</g>
	</g>
	<g>
		<g>
			<path class="st9" d="M41.3,132.6c-0.9,0-1.8,0.3-2.7,0.3c-1.2,0-2.5-0.3-3.7-0.5c-2.1-0.3-4.6-0.2-6.1-1.9
				c-0.2-0.2-0.5,0.1-0.4,0.3c1.1,2.4,3.2,2.2,5.5,2.4c2.2,0.2,5.8,1.5,7.4-0.5C41.4,132.7,41.3,132.6,41.3,132.6L41.3,132.6z"/>
		</g>
	</g>
	<g>
		<g>
			<path class="st9" d="M67.8,129.7c0.8-1.1,0.6-2.5-0.4-3.4c0,0-0.1,0,0,0c0.8,0.9,0.9,2.3,0.3,3.3
				C67.5,129.7,67.7,129.8,67.8,129.7L67.8,129.7z"/>
		</g>
	</g>
	<g>
		<g>
			<path class="st9" d="M64.2,130.4c0.4-0.7,0.6-1.4,0.5-2.1c-0.1-0.8-0.4-1.2-0.9-1.8c0,0-0.1,0-0.1,0.1c0.6,1.1,0.7,2.6,0.2,3.7
				C63.9,130.4,64.1,130.5,64.2,130.4L64.2,130.4z"/>
		</g>
	</g>
	<g>
		<g>
			<path class="st9" d="M33.3,132.3C33.3,132.4,33.3,132.4,33.3,132.3c0.1,0.1,0.1,0.2,0.2,0.1c0.6-0.2,0.6-1.3,0.6-1.9
				c0-0.8-0.2-1.6-0.9-2.1c-0.2-0.1-0.4,0.2-0.3,0.3c0.4,0.5,0.7,1,0.7,1.6C33.7,130.9,33.7,132.1,33.3,132.3L33.3,132.3L33.3,132.3
				z"/>
		</g>
	</g>
	<g>
		<g>
			<path class="st9" d="M38.4,132.8c0.3-1,0.7-2,0.3-3c-0.2-0.7-0.7-1.3-1.4-1.4c-0.1,0-0.2,0.2-0.1,0.3c0.5,0.5,1,0.8,1.3,1.6
				C38.7,131,38.6,132,38.4,132.8C38.3,132.8,38.4,132.9,38.4,132.8L38.4,132.8z"/>
		</g>
	</g>
	<g>
		<g>
			<path class="st9" d="M109.8,32.8c1.2,1.3,2.5,2.6,3.3,4.2c1.1,2.2,1,4.4,1.3,6.8c0.2,1.8,0.7,4.3,2.6,5.1
				c0.2,0.1,0.3-0.1,0.2-0.3C114.7,43.3,116,35.9,109.8,32.8C109.9,32.7,109.8,32.7,109.8,32.8L109.8,32.8z"/>
		</g>
	</g>
	<g>
		<g>
			<path class="st9" d="M108.8,28.9c1.7,0,3.5-0.2,5.2,0c2.3,0.3,3,1.4,4.6,2.5c3.4,2.4,9.2,3.5,6.7,9c-0.1,0.1,0.1,0.3,0.2,0.2
				c3.1-3.7,0.9-6.5-2.8-8.4c-2.2-1.1-4.1-2.9-6.3-3.8c-2.3-0.9-5.2-0.1-7.6,0.3C108.7,28.8,108.7,28.9,108.8,28.9L108.8,28.9z"/>
		</g>
	</g>
	<g>
		<g>
			<path class="st9" d="M126,39.3c-1.6,1.8-2.1,4.5-3.1,6.6c-0.7,1.5-1.5,2.7-3.2,3c-1.3,0.2-2.6-0.1-3.1-1.5
				c-0.2-0.6-1.1-0.3-0.9,0.3c0.8,2.2,3.2,2.8,5.3,1.8c1.4-0.6,2.1-2,2.6-3.4C124.5,43.9,125.2,41.5,126,39.3
				C126.1,39.3,126,39.3,126,39.3L126,39.3z"/>
		</g>
	</g>
	<g>
		<g>
			<path class="st9" d="M113.8,56c-2.9,2.6-6.3,0.6-9.1-0.8c-1-0.5-2-1.6-3.2-1.8c-2.3-0.4-3.8,2.6-2.7,4.5c0.1,0.2,0.5,0.1,0.4-0.2
				c-0.6-2.7,1.6-3.5,3.4-3.1c1.2,0.3,2,1.2,3,1.9c0.7,0.5,1.6,1,2.5,1.2c2.2,0.7,4.3,0,5.8-1.6C114,56.1,113.9,55.9,113.8,56
				L113.8,56z"/>
		</g>
	</g>
	<g>
		<g>
			<path class="st9" d="M101.2,29.9c-2.9,0.5-6.2,0.4-8.2,2.7c-1.4,1.6-2.6,3.6-3.9,5.3c-0.9,1.2-1.6,2.5-1.9,3.9
				c-0.7,2.8,0,5.3,1.3,7.8c1.5,3.1,1.9,4,5.1,4.3c0.3,0,0.3-0.4,0.1-0.4C91,52.8,90,51,89,48.7c-2.1-4.6-1-8,2.2-11.7
				c0.8-0.9,1.2-1.7,1.9-2.6c2.3-3,4.9-3.3,8.3-4.3C101.4,30,101.3,29.8,101.2,29.9L101.2,29.9z"/>
		</g>
	</g>
	<g>
		<g>
			<path class="st9" d="M95.4,34.4c-1.4,1.6-3,2.6-3.7,4.7c-0.7,2.2-0.4,5-0.5,7.2c-0.2,5.1,1.8,7.4,5.7,10.5c0,0,0.1,0,0.1-0.1
				c-3.2-3.2-5.3-5.7-5.2-10.4C92,41.7,92.5,38.2,95.4,34.4C95.5,34.4,95.5,34.3,95.4,34.4L95.4,34.4z"/>
		</g>
	</g>
	<g>
		<g>
			<path class="st9" d="M109.8,29c-3.7-0.8-6.9,0-10.4,1.2c-0.3,0.1-0.2,0.6,0.1,0.5c1.5-0.4,3.1-0.9,4.6-1.2
				c1.9-0.3,3.7-0.2,5.6-0.4C109.8,29.1,109.9,29,109.8,29L109.8,29z"/>
		</g>
	</g>
	<g>
		<g>
			<path class="st9" d="M102.4,48.1c-0.2,0.3-0.7,0.4-1,0.3c-0.3-0.1-0.2-0.4-0.2-0.6c0.1-0.8-1.1-0.8-1-0.1c0.1,0.6,0.3,1.1,1,1.2
				c0.5,0.1,1.2-0.1,1.4-0.6C102.7,48.1,102.5,48,102.4,48.1L102.4,48.1z"/>
		</g>
	</g>
	<g>
		<g>
			<path class="st9" d="M97.4,48.9c0.3,0.2,0.7,0.3,1,0.1s0.3-0.8,0.2-1.2c-0.2-0.6-1.2-0.2-0.8,0.3c0,0.1,0.4,0.4,0.4,0.5
				c0,0.2-0.5,0.1-0.6,0C97.3,48.6,97.3,48.8,97.4,48.9L97.4,48.9z"/>
		</g>
	</g>
	<g>
		<g>
			<path class="st9" d="M108.7,41.3c-0.2-0.8-0.9-1.3-1.7-1.4c-0.6-0.1-1.7,0.4-1.4,1.2c0,0.1,0.2,0.2,0.3,0
				c0.2-0.3,0.3-0.6,0.6-0.7c0.2-0.1,0.5-0.1,0.8,0C107.9,40.5,108.4,40.9,108.7,41.3L108.7,41.3L108.7,41.3z"/>
		</g>
	</g>
	<g>
		<g>
			<path class="st9" d="M108.6,41.5c-0.6,0.5-2.6,0.7-2.7-0.4c0-0.1-0.1-0.1-0.2-0.1c-0.3,0.6,0.3,1,0.8,1.1
				C107.3,42.3,108.1,42.2,108.6,41.5C108.7,41.5,108.7,41.4,108.6,41.5L108.6,41.5z"/>
		</g>
	</g>
	<g>
		<g>
			<path class="st9" d="M96.2,42.8c0.1-0.6,0.5-1.4,1.2-1.4c0.3,0,0.7,0.1,0.9,0.4c0.1,0.2,0.1,0.4,0.2,0.6h0.1
				c0.3-0.2,0.1-0.6-0.1-0.9c-0.3-0.3-0.7-0.5-1.1-0.5s-0.7,0.3-0.9,0.6C96.3,42,96.1,42.4,96.2,42.8L96.2,42.8L96.2,42.8z"/>
		</g>
	</g>
	<g>
		<g>
			<path class="st9" d="M96.1,42.8c-0.2,0.6,1.1,0.8,1.4,0.8c0.7,0,1.5-0.8,1.2-1.6c0-0.1-0.2-0.2-0.2,0c-0.2,0.5-0.2,1.1-0.8,1.3
				C97.5,43.4,96.2,43.3,96.1,42.8C96.2,42.8,96.2,42.8,96.1,42.8L96.1,42.8z"/>
		</g>
	</g>
</g>
</svg>
