<?xml version="1.0" encoding="utf-8"?>
<!-- Generator: Adobe Illustrator 22.1.0, SVG Export Plug-In . SVG Version: 6.00 Build 0)  -->
<svg version="1.1" id="Card_1" xmlns="http://www.w3.org/2000/svg" xmlns:xlink="http://www.w3.org/1999/xlink" x="0px" y="0px"
	 viewBox="0 0 155.9 155.9" style="enable-background:new 0 0 155.9 155.9;" xml:space="preserve">
<style type="text/css">
	.st0{clip-path:url(#SVGID_2_);}
	.st1{fill:#FFFFFF;}
	.st2{fill:#A3612A;}
	.st3{display:none;}
	.st4{display:inline;}
	.st5{fill:#F4F4F4;}
	.st6{fill:#E8E8E8;}
	.st7{fill:#8E5020;}
	.st8{fill:#222021;}
	.st9{fill:#010202;}
</style>
<g id="Colours">
	<defs>
		<path id="SVGID_1_" d="M105,132.8c-0.3-1.5,0.7-3.3,1.8-4.3c0.2-0.2,0.5-0.4,0.8-0.3c0.2,0.1,0.3,0.3,0.4,0.4
			c0.8,1.5,1.1,3.7,0.8,5.4c-0.9-0.4-2.1-0.5-3.1-0.2C105.4,133.5,105.2,133.1,105,132.8z M89.1,49.3c-1,0.4-1.9,1.1-2.9,1.5
			c-1.7,0.7-3.6,0.7-5.4,0.6c-3.2-0.1-6.3-0.3-9.5-0.2c-10.4,0.3-17.6-0.2-25.4,4.5c-2.2,1.3-5.2,2.8-7.1,4.5
			c-3.7,3.4-8,7.4-9.4,12.2c-0.4,1.3,0.1,2.5-0.4,3.7c-0.5,1.1-1.3,2.2-1.8,3.3c-0.7,1.5-1.1,3.1-1.3,4.7c-1.3,7.8,1.9,15.3,0.4,24
			c-1.1,1.1-2.8,2.3-3.9,3.4c-1.1,1.1-2.1,2.6-1.8,4.2c0.1,0.5,0.3,1,0.4,1.5c0.2,1-0.4,2-0.2,3c0.8,3.7,1.3,6.7,2.4,9.8l0,0.4
			c0.6,1.8,2.1,3.1,3.9,3.9c0.3,0.1,0.6,0.2,0.8,0.1c0,0,2.1,0.7,4,0.6c1.9-0.1,2.9-1,2.9-1c0.2-0.8,0.1-1.3-0.4-1.9
			s-1.2-1.1-1.8-1.5l-1.9-1c-3.3-6.4-2-15.2,3.2-20.1c1.6-1.5,3.1-2.3,4.9-3.4c0.5,0.9,1.5,3.2,1.5,3.2c-0.5,1-1,2.2-0.9,3.4
			c0.1,1.6,1.2,3,1,4.6l0.1,0c-0.1,0.5-0.3,1-0.3,1.6c-0.2,2.1,0.3,3.9,1.7,5.5c-0.4-1,0-2.5,0.8-3.1c1.2,2.1,0,5.1-0.9,5.6
			c-0.5,0.2-1.1,0.3-1.6,0c1,0.8,3.2,1.1,4.5,1c0,0.5-0.1,1.3,0.1,1.8c0.2,0.3,0.4,0.5,0.7,0.7c0.5,0.4,1,0.8,1.6,1
			c1.1,0.5,2.3,0.5,3.5,0.5c0.2,0,0.4,0,0.6-0.1l4.5-0.9c0.2-1.3-0.1-2.3-1.1-3.1c-1.9-1.4-5-1.2-5.2-1.4c2-1.2,3.5-3.2,4.3-5.4
			c0.8-2.2,1.1-4.6,1.1-6.9c0-2.3,0-2.5-0.9-4.6c0.6-3.2,3.5-5.4,5.1-8.1c0.7-1.1,1.1-2.3,1.6-3.5c1.4-4,2.3-7.7,0.2-11.3
			c2.7,2.2,7.2,4.9,10,7.1c3.9,3,6.3,6.8,10.7,9.1c-1-1.1-1-2.7-1.2-4.2c-0.2-1.9-0.1-2.8-0.6-5c0.2,1.6,0.9,3.1,1.7,4.6
			c1.6,2.9,3.7,5.5,6.1,7.7l0.1,0.1c0.3,3.6,1.1,7.1,2.4,10.4c-0.5-1.1-0.1-2.7,0.4-3.8s1-2.3,0.9-3.5l0.1,0
			c0.2,3.1,0.5,6.3,0.7,9.4c0.2,3.1,0.4,6.2,1.2,9.2c0.7,3,2,5.9,4.1,8.2l0-0.1c-0.4-1.1-0.8-2.4-0.4-3.5c0.1-0.3,0.3-0.5,0.5-0.7
			c0.3-0.2,0.6-0.2,0.8,0c0.2,0.2,0.2,0.4,0.3,0.6c0.2,0.5,0.4,1,0.7,1.4c0.7,1.1,1.3,2.3,2.4,3.1l1,0.9c0.9,0.5,1.9,0.8,2.9,0.9
			c1.8,0.2,3.7,0.2,5.5-0.1c0.4,0,0.8-0.2,0.8-0.6c0-0.5-0.3-1-0.9-1.7c0.6,0.5,1.5,0.7,2.3,0.8c2.1,0.3,6,0.6,6.4-0.3
			c0.2-0.9-1.2-2.9-2.5-3.6c-0.8-0.5-1.6-0.7-2.5-0.8c-3.1-10-3.9-20.1-2.2-30.4c0.2-1.1,0.3-2.1,0.9-3c2.5-2.4,4.8-5.7,5.1-7.6
			c0.5-2.6,0.1-5.4,0.9-7.9c0.7-2.2,2.1-4,2.9-6.1c0.8-2,1.1-4.2,1.3-6.4c0.6-6.7,0.8-13.7-1.8-19.9c-0.6-1.4-1.4-2.9-1.6-4.4
			c-0.2-1.6,0.4-3.4,1.8-4c1.8,0.5,3.5-0.3,5.4,0c1,0.2,2.9,0.9,3.9,1c1.1,0,2.1-0.5,3-1.2c0.8-0.7,1.5-1.6,2.2-2.4
			c1.8-0.5,2.7-1.6,2.8-3.5c-0.9-1.4-6.6-3.6-11.6-5.4c-2-0.7-3.8-2.8-6.1-3.5c-4.8-1.4-12.6,1.4-15.5,5.1l-2.4,2.8
			c-1.7,2.5-3.5,5-5.2,7.5c-0.4,0.6-0.9,1.3-1.5,1.7c-0.4,0.3-1,0.5-1.4,0.9c-0.8,0.7-0.9,1.5-1.6,2.4c-0.5,0.7-0.8,0.9-1.4,1.6
			C91.3,48.7,90.1,48.9,89.1,49.3z"/>
	</defs>
	<clipPath id="SVGID_2_">
		<use xlink:href="#SVGID_1_"  style="overflow:visible;"/>
	</clipPath>
	<g id="Base_1_" class="st0">
		
			<rect x="14.9" y="25.1" transform="matrix(-1 -4.489354e-11 4.489354e-11 -1 155.4288 167.1667)" class="st1" width="125.7" height="117"/>
		<g>
			<path class="st2" d="M102.4,56.1L102.4,56.1c4,4.8,5.4,11.5,3.7,17.5c-0.5-2.2-1.9-4.1-3.8-5.4c1.9,7.6-0.2,15.9-3.8,22.8
				c0-6-2-9.8-5-12c-5.6-4.2-11.6-5.1-15.7-10.6c-2.3-3.1-3.2-7.2-6-9.8c-2-1.9-3.7-6.3-6.3-7c-4.8-1.3-4.9-1.8-4-4.4
				c0.9-2.4,3.8-3.4,6.3-3.9c6.5-1.4,13.2-2,19.8-1.9c3.8,0.1,8.5,0.3,9,4.4C97.3,50.6,99.3,52.4,102.4,56.1z"/>
		</g>
		<g id="Light_1_" class="st3">
			<g class="st4">
				<path class="st5" d="M33.6,43c1.2-1,0.9-2.6,2.6-3.8c2.9-2.3,7.8,1.6,13.8,2.3c1,0.1,2.1,0.3,3,0.9c3.6,2.2,1.6,8.4,4.7,11.2
					c1.6,1.5,4.4,1.8,5,3.9c0.8,2.8-3.4,5.1-2.8,8c3.7,0.4,6,4.1,8.9,6.4c4.4,3.6,11,4.1,15.9,1.2c3.9-2.3,6.9-6.6,11.4-7.2
					c5.6-0.7,10.2,4.6,15.8,5.7c1.8,0.3,3.6,0.3,5.2,1.1c1.2,0.6,2.1,1.8,2.9,3c4,6.2,4.3,14,5.2,21.3c0.9,7.3,3,15.3,9,19.5
					c3.2,2.2,7.1,3.2,10.2,5.6c5.3,4.2,6.7,12.1,4.4,18.5c-2.3,6.4-7.8,11.2-13.8,14.3c-11.2,5.6-24.2,5.9-36.7,5.3
					c-17.1-0.8-33.5-17.6-43.8-17.3c-5.5,0.2-8.8-4.2-17.8,0c-8,3.8-18.1-0.9-21.1-9.2c-4-11.2-1.2-23.6-0.6-35.5
					c0.5-9.3-0.5-18.7-2.8-27.7c-1-4.1-2.3-8.1-2.7-12.3s0.5-8.7,3.3-11.9c2.8-3.2,6.5-3.6,10.4-3C27.3,44,32.4,44,33.6,43z"/>
			</g>
		</g>
		<g id="Dark_1_">
			<g>
				<path class="st6" d="M133.6,36.1c-1,1.8-3.5,2.6-5.4,1.7c-0.7-0.3-1.3-0.9-2.1-1.2c-1.4-0.5-3,0.1-4.3-0.7
					c-0.2-0.1-0.4-0.3-0.5-0.5c-0.2-0.8,1.4-1.3,1-2c-0.1-0.2-0.3-0.3-0.5-0.3c-2.4-0.9-5.1-1-7.5-0.1c-0.6,0.2-1.1,0.5-1.6,0.9
					c-0.4,0.4-0.6,1.1-0.4,1.7c0.3,0.7,1.1,1,1.8,1.5c0.7,0.4,1.2,1.4,0.6,2c-0.2,0.2-0.5,0.3-0.8,0.3c-1.4,0.3-2.9,1.1-3,2.5
					c-0.1,1.6,2.1,3.3,1.5,4.5c-0.6,1.2-1.3,2.9-0.2,3.6c1.1,0.8,4.5,1.2,6.6,3.3s3,11.2,1.8,16.3c-0.4,1.8-3.5,3.1-4.9,4.3
					c-2.3,2-2.1,13.6-3.6,18.9c-1,3.4-5.1,5-5.8,8.5c-0.6,3.1,2,2.9,1.6,9.8c-0.1,2.2-0.3,4.8-0.3,7c0,2.2,1.3,4.5,2.9,6.9
					c1.4,2.1,1.2,6.5,2.9,7.3c2.2,1.1,2.7-1.8,5-1.1c0.5,0.1,1.1,0.3,1.7,0.1c0.4-0.1,0.8-0.4,1.2-0.7c1.8-1.7,2.6-4.3,2.8-6.8
					c0.1-2.5-0.3-5-0.7-7.5c-0.6-4.3-0.9-8.8-0.2-13.1c0.4-2.6,1.1-5.1,1.3-7.7c0.2-2.1,0-4.3,0.3-6.4c0.2-1.4,0.6-2.7,0.9-4
					c0.5-1.9,0.4-3.7,0.9-5.7c0.5-2.4,1.4-4.6,2.4-6.8c4.5-10.4,10.8-19.9,15-30.4c0.6-1.6,1.2-3.3,0.5-4.8
					c-0.6-1.4-2.1-2.2-3.5-2.5C138.4,34,135,33.5,133.6,36.1z"/>
			</g>
			<g>
				<path class="st6" d="M88.1,110.5c-1.1-5.9-2-10.4,0.1-16c0.7-1.9,2.6-6.2,2.8-8.2c0.3-2.9-2.2-4.9-3.7-7.4
					c-0.2-0.4-0.4-0.7-0.8-0.9c-1.1-0.7-2.4,0.6-3.4,1.5c-3.1,3-1.9,11.3-5.1,10.6c-3.1-0.7-5.7-7.3-8.8-8.2
					c-2.8-0.8-6.1,0.7-8.6-0.8c-2.2-1.4-2.4-8.5-4-10.6c-0.3-0.4-0.7-0.8-1.2-0.9c-1.5-0.4-2.4,1.7-2.8,3.2
					c-0.6,1.9-1.7,3.6-3.2,4.9c-2.1,1.8-5.1,3.2-5.8,5.9c-0.7,2.7,1.1,6.1-0.9,7.9c-0.6,0.5-1.3,0.7-2,1.1c-2.6,1.4-3.6,4.5-4.9,7.2
					c-1.3,2.8-3.2,5.3-5.4,7.5c-1.7,1.7-3.8,3.3-4.2,5.7c-0.2,1.2,0.1,2.5,0.4,3.7c0.5,1.8,1,3.7,1.7,5.5c0.6,1.7,1.6,4.2,3.4,5
					c1.9,0.9,4.7,0,6-1.5c1.2-1.4,1.5-3.3,1.8-5.1c0.9-5,1.7-10.3-0.6-14.9c-0.1-0.2-0.2-0.4-0.2-0.6c0-0.6,0.7-0.8,1.3-1
					c2.5-0.7,4.9-2.2,6.4-4.3c0.4-0.5,0.8-1.1,1.4-1c0.4,0,0.7,0.3,0.9,0.6c2.9,3.3,3.6,8,6.5,11.3c3.8,4.1,8,2.6,12.7,3.1
					c2.6,0.2,5.2,0.7,7.7,1.3c2.5,0.6,5.1,1.5,7.7,1c2.6-0.5,4.9-3.1,4.2-5.6"/>
			</g>
			<g>
				<path class="st6" d="M93.3,91.2c-2.9,1.8,5.6,6.1,2.8,10.6c-0.8,1.2-2.1,2.2-2.6,3.5c-1,2.4,0.6,5,1.6,7.4
					c0.7,1.7,1.1,3.5,1.3,5.3c0.2,2.6-0.2,5.3,0.9,7.6c0.3,0.7,0.8,1.4,1.3,2l0,0c1.1,1.6,2.2,3.2,3.4,4.8c1,1.3,2,1.3,3.7,1.4
					c0-0.7-0.5-1.3-0.9-1.8c-1.1-1.6-1.6-3.5-1.9-5.4c-1.5-8.2-1.4-16.7,0.5-24.9c0.3-1.4,0.6-5.8-1.4-6.5
					C98.6,94.3,95.4,89.9,93.3,91.2z"/>
			</g>
		</g>
		<g>
			<path class="st2" d="M51.7,59.4C51.7,59.4,51.7,59.4,51.7,59.4c-0.7,1.6-1.4,3.3-2.1,4.9c-1.5,3.6-3.4,7.5-7,8.9
				c-3,1.2-6.5,0.5-9.2,2.2c-1.3,0.8-2.2,2-3.2,3.1c-1.4,1.5-3.2,2.7-5,3.5c-0.6-1.5-0.3-3.2-0.1-4.8c0.9-5.1,1.8-10.1,3.6-15
				c1.8-4.8,4.4-9.4,8.3-12.8c1.6-1.4,3.4-2.5,5.3-3.6c1.4-0.8,2.8-1.5,4.3-1.9c1.9-0.5,3.9-0.5,5.8-0.1c2.1,0.4,4.2,1.2,5.4,3
				c1.5,2.3,0.3,4.4-1.4,6C54.1,54.7,52.9,56.7,51.7,59.4z"/>
		</g>
		<g>
			<path class="st2" d="M120.9,39.8c0-0.7,0.2-1.4,0.4-2c-1.7,0.6-2.8,2.7-2.1,4.4c-1.4,0.5-2.7,1-4.1,1.5c-0.3,0.1-0.7,0.2-1,0.3
				c-1.4,0.1-2.4-1.3-3-2.6c-0.2-0.4-0.3-0.8-0.6-1.2c-0.3-0.3-0.8-0.5-1.2-0.3c0.2-0.4-1.6-0.2-1.9,0.1c-0.8,1.1-1.7,2.1-2.6,3
				c-0.3,0.3-0.7,0.6-1.2,0.5c-0.4-0.1-0.6-0.6-0.7-1c-0.2-0.9-0.2-1.9-0.2-2.8c0.1-3,0.4-6,1.6-8.7s3.3-5.1,6.1-6.2
				c2.2-0.8,4.7-0.7,7-0.3c0.6,0.1,1.2,0.2,1.7,0.5c0.6,0.3,1,0.9,1.4,1.4c1.5,1.9,3.3,3.5,5.2,5c1,0.8,2.2,1.7,2.3,2.9l0,0
				c0.2,1.8-1.6,2.9-3.2,3.1c-0.7,0.1-1.3,0.2-1.9,0.5C122.5,38.3,120.9,39.2,120.9,39.8z"/>
		</g>
		<g>
			<path class="st7" d="M89.8,53.6C89.8,53.6,89.8,53.6,89.8,53.6c0-0.6-0.6-1.1-1.2-1.2c-0.6-0.1-1.2,0.1-1.8,0.3
				c-2.3,0.7-4.7,1-7,0.7c-3.4-0.3-6.6-1.6-9.8-2.8c-0.1,0-0.2-0.1-0.3-0.2c-0.1-0.2,0.2-0.5,0.5-0.5c6.1-1.2,12.3-2.5,18.6-2.3
				c0.9,0,3.5,0.4,3.3,1.7c0,0.4-1.3,1.3-1.5,1.8C90.1,51.9,89.8,52.7,89.8,53.6z"/>
		</g>
		<g>
			<path class="st7" d="M46.1,57.3C46.1,57.3,46.1,57.3,46.1,57.3c-1.6,1.1-3.2,2.3-4.8,3.4c-1,0.7-1.9,1.4-2.8,2.1
				c-1.5,1.3-2.8,3-4,4.6c-1.2,1.6-2.4,3.1-3.3,4.9c-1.2,2.2-2.3,5-4.8,5.6c0.3-1,0.7-1.9,1-2.9c3.2-9,7.7-18.1,15.8-23.2
				c2-1.2,4.2-2.2,6.6-2.3c1.3,0,2.7,0.3,3.8,1c1.4,0.8,2.2,1.4,0.9,2.3c-1.1,0.8-3,1-4.2,1.7C48.8,55.3,47.5,56.3,46.1,57.3z"/>
		</g>
		<g>
			<path class="st7" d="M108.1,34c-0.7,0-1.3-0.1-2.6,0.7s-2.1,6-2.2,6.9c-0.1,0.5,0.1,1.2,0.5,1.4c0.4,0.2,0.9,0,1.2-0.3
				c0,0,0,0,0,0c0.8-0.6,1.3-1.6,2-2.3c0.7-0.6,1.5-0.8,1.8-1.8c0.2-0.9,0.3-1.6,0.5-2.5C109.6,35.1,109.3,34,108.1,34z"/>
		</g>
		<g>
			<path class="st7" d="M124,31.3c0,0.3-0.1,0.7-0.2,1c-0.1,0.3-0.3,0.6-0.5,0.9c-0.6,0.7-1.7,0.9-2.5,0.5c-0.8-0.4-1.4-1.3-1.4-2.2
				c0-0.3,0-0.5,0.1-0.8c0.2-0.3,0.5-0.5,0.8-0.7c0,0,0,0,0,0C121.3,29.4,123.8,29.6,124,31.3z"/>
		</g>
	</g>
	<g id="Details_1_" class="st0">
		<g>
			<path class="st8" d="M136.8,34.7l-0.3,0.6c-0.7,0-1.4,0.6-1.4,1.3c0,0.3,0.2,0.6,0.2,0.8c0.1,0.8-0.4,1.5-0.9,2.1
				c-0.2,0.2-0.3,0.4-0.5,0.4c-0.2,0.1-0.4,0.1-0.6,0.1c-2.7-0.1-6.7-0.6-9.2-0.1c-0.3,0.1-0.5,0.1-0.7,0.4c-0.3,0.7,0.2,0.9,0.6,1
				s0.7,0,1-0.1c2.1-0.6,5.3-0.7,7.3,0c0.7,0.3,1.3,0.6,2,0.7c1.3,0.2,2.5-0.3,3.7-0.8c0.6-0.3,1.2-0.5,1.6-1
				c0.5-0.7,0.6-1.6,0.3-2.4C139.4,36.2,138.2,34.6,136.8,34.7z"/>
		</g>
		<g>
			<path class="st8" d="M121.6,32c-0.7,0-1.4-0.3-1.8-0.9c0.5-0.6,1.1-1,1.9-1c0,0,0,0,0,0C123.5,30.1,123.4,32,121.6,32z"/>
		</g>
		<circle class="st1" cx="121.3" cy="30.9" r="0.4"/>
	</g>
</g>
<g id="Outlines">
	<g>
		<g>
			<path class="st9" d="M127.4,30.7c-4-2.1-5.7-4.7-10.6-4c-4.4,0.6-8.4,2.2-11.1,5.7c-0.1,0.1,0,0.2,0.1,0.1
				c2.8-2.8,7.2-4.7,11.1-5c4.1-0.3,6.8,2,10.4,3.4C127.5,31,127.6,30.8,127.4,30.7L127.4,30.7z"/>
		</g>
	</g>
	<g>
		<g>
			<path class="st9" d="M135.5,39.8c-3.8,0.3-7.7-0.9-11.5,0.1c-0.5,0.1-0.3,0.9,0.2,0.8c3.8-1.2,7.6,0.9,11.3-0.6
				C135.7,40,135.7,39.7,135.5,39.8L135.5,39.8z"/>
		</g>
	</g>
	<g>
		<g>
			<path class="st9" d="M109.4,37.4c-0.9,0.3-0.1,1.2-0.6,1.7c-0.3,0.3-1,0.2-1.4,0.5c-0.6,0.4-1.2,1.6-1.8,2.1
				c-0.7,0.7-1.5,2.2-2.3,1c-0.4-0.6-0.3-2.3-0.3-3.1c0-1.4,0.2-2.9,0.6-4.2c0.7-2.2,2.4-3.3,4.5-3.8c0.1,0,0.1-0.2,0-0.2
				c-3.3,0.7-4.8,2.1-5.4,5.4c-0.3,1.5-0.8,5.6,0.5,6.8c1.1,1,3.4-1.8,4-2.5c0.5-0.6,0.9-0.8,1.4-1.4c0,0,0.5-0.1,0.6-0.3
				C109.6,39,108.7,37.9,109.4,37.4C109.5,37.4,109.5,37.4,109.4,37.4L109.4,37.4z"/>
		</g>
	</g>
	<g>
		<g>
			<path class="st9" d="M136.1,39.6c-1.5,1.7-3.1,3.4-5.8,3.1c-0.7-0.1-1.4-0.5-2.1-0.6c-1.7-0.3-3.2,0.1-4.9-0.1
				c-1.5-0.1-2.8-0.9-4.2-0.5c-1.2,0.3-2.4,1.3-3.4,2.1c0,0,0,0.1,0,0c2.2-1.2,3.2-1.6,5.9-1.2c3.4,0.5-1.6,0.2,2.3,0.5
				c0.5,0,2.1-0.2,2.6-0.2c1.5,0.1,2.6,0.6,4.1,0.7c2.8,0.2,4.3-1.7,5.7-3.8C136.3,39.7,136.2,39.6,136.1,39.6L136.1,39.6z"/>
		</g>
	</g>
	<g>
		<g>
			<path class="st9" d="M121.7,42.3c-2.9,1.8-2.3,4.3-1.2,7.2c2.4,6.2,3,12,2.7,18.7c-0.2,4-0.6,7.4-2.5,11.1
				c-0.9,1.9-1.9,3.5-2.3,5.5c-0.7,3.1-0.2,6-1.8,8.9c-1.5,2.7-3.6,5-6,6.9c-0.1,0.1,0,0.2,0.1,0.1c3.2-1.8,6.5-5,7.8-8.5
				c0.6-1.6,0.5-3.4,0.6-5.1c0.3-4,2-6.4,3.3-9.9c1.9-4.9,2.1-11.4,1.7-16.6c-0.1-2.3-0.5-4.5-1.1-6.7c-1-3.4-4.5-8.3-1.2-11.4
				C122,42.4,121.9,42.2,121.7,42.3L121.7,42.3z"/>
		</g>
	</g>
	<g>
		<g>
			<path class="st9" d="M113.2,98.5c-2.9,4.3-2.5,10.8-2.4,15.8c0.2,6.2,1.8,11.8,3.3,17.8c0.1,0.3,0.6,0.2,0.5-0.1
				c-3.2-9.7-4.5-23.5-1.4-33.4C113.3,98.4,113.2,98.4,113.2,98.5L113.2,98.5z"/>
		</g>
	</g>
	<g>
		<g>
			<path class="st9" d="M113.6,132.2c1.2,0.3,2.6,0.5,3.6,1.3c0.5,0.4,0.8,0.9,1.2,1.4c0.3,0.4,1,1,1,1.5c0,0.1,0.1,0.1,0.1,0
				c0.5-3.3-3.2-4.7-5.9-4.5C113.5,132,113.4,132.2,113.6,132.2L113.6,132.2z"/>
		</g>
	</g>
	<g>
		<g>
			<path class="st9" d="M105.7,134c1.3,0,2.9,0.2,3.9,1c0.6,0.5,2,1.8,2.1,2.6c0,0.1,0.1,0.1,0.1,0c0.1-3.1-3.5-4.9-6.2-3.9
				C105.5,133.7,105.5,134,105.7,134L105.7,134z"/>
		</g>
	</g>
	<g>
		<g>
			<path class="st9" d="M103.2,98.8c-2.6,7.2-2.1,14.2-1.5,21.7c0.4,5.1,1,9.4,4.5,13.4c0.2,0.2,0.5-0.1,0.4-0.3
				c-3.3-4.7-3.6-10-4-15.6c-0.5-6.4-0.6-12.9,0.9-19.2C103.4,98.7,103.3,98.7,103.2,98.8L103.2,98.8z"/>
		</g>
	</g>
	<g>
		<g>
			<path class="st9" d="M103.3,35.2c-1.4,1.7-2.7,3.5-4,5.2c-1.1,1.5-2.2,2.8-3.6,4c-0.7,0.6-0.8,0.4-1.4,1.2
				c-0.5,0.7-0.7,1.5-1.2,2.2c-0.5,0.7-1.4,1.2-1.9,1.9c-0.7,1-0.8,1.7-0.4,2.8c0,0.1,0.2,0.1,0.2,0c0-2,2.2-2.7,3.2-4
				c1-1.3,1.7-2.5,2.9-3.7c2.6-2.7,4.6-6.3,6.4-9.6C103.5,35.2,103.4,35.1,103.3,35.2L103.3,35.2z"/>
		</g>
	</g>
	<g>
		<g>
			<path class="st9" d="M92.3,49.2C91,48.7,90.3,48.7,89,49c-2.9,0.6-5.1,1.9-8.2,1.8c-5.8-0.1-11.6-0.3-17.5-0.1
				c-8.7,0.3-16,2.6-23.2,7.6c-3.1,2.2-6.1,5.2-8.4,8.2c-2.9,3.8-2.5,7.4-4.3,11.4c-4.4,9.8-0.6,19.7-1.3,29.9c0,0.2,0.3,0.2,0.3,0
				C28.2,99.1,24,89.6,27,81c0.6-1.7,1.9-3.1,2.6-4.8c0.8-2.1,0.6-4.2,1.7-6.3c2.2-4.3,6.7-8.6,10.8-11.2c7.6-4.8,14.7-6.5,23.6-6.7
				c4.8-0.1,9.5,0,14.2,0.1c1.5,0,3.1,0.1,4.5-0.2c2.4-0.5,5.4-3,7.8-2.4C92.4,49.5,92.5,49.2,92.3,49.2L92.3,49.2z"/>
		</g>
	</g>
	<g>
		<g>
			<path class="st9" d="M138,36.6c-0.1,0-0.2,0.1-0.2,0.1c-0.2,0-0.4-0.1-0.5-0.1c-0.2-0.1-0.4-0.1-0.5-0.1c-0.2,0-0.4-0.2-0.6-0.2
				c0,0-0.1,0-0.1,0.1c0.1,0.3,0.2,0.7,0.5,1c0.2,0.3,0.7,0.4,1,0.2c0.3-0.1,0.4-0.3,0.5-0.6C138,36.9,138.1,36.8,138,36.6
				C138,36.6,138,36.6,138,36.6L138,36.6z"/>
		</g>
	</g>
	<g>
		<g>
			<path class="st9" d="M123.5,31.1c-0.7-0.4-1.2-1.2-2.1-1c-0.9,0.1-1.3,0.8-1.7,1.5c0,0.1,0,0.1,0.1,0.1c0.4-0.3,0.9-0.8,1.4-1
				C122.1,30.3,122.9,30.6,123.5,31.1C123.5,31.2,123.6,31.1,123.5,31.1L123.5,31.1z"/>
		</g>
	</g>
	<g>
		<g>
			<path class="st9" d="M119.4,136.4c-1,0.6-2.5,0.4-3.6,0.3c-1.7-0.1-3.5-0.1-5-0.9c0,0-0.1,0-0.1,0.1c1.3,1.3,3.8,1.3,5.5,1.4
				C117,137.4,119.4,137.6,119.4,136.4C119.5,136.4,119.5,136.4,119.4,136.4L119.4,136.4z"/>
		</g>
	</g>
	<g>
		<g>
			<path class="st9" d="M111.7,137.6c-0.6,0.9-4.2,0.5-5.1,0.5c-2.3-0.1-4.8-0.5-5.9-2.8c0,0-0.1,0-0.1,0c0.6,2.6,3.2,3.1,5.6,3.3
				C107.1,138.8,111.6,139.4,111.7,137.6C111.7,137.6,111.7,137.6,111.7,137.6L111.7,137.6z"/>
		</g>
	</g>
	<g>
		<g>
			<path class="st9" d="M87.6,105.5c-3.1-3.6-6.3-7.6-7.8-12.2c0-0.1-0.2-0.1-0.2,0c0,4.9,4.1,9.6,7.9,12.4
				C87.6,105.8,87.7,105.6,87.6,105.5L87.6,105.5z"/>
		</g>
	</g>
	<g>
		<g>
			<path class="st9" d="M79.5,93.5c0.3,2,0.1,3.8,0.3,5.8c0.1,1.2,0.5,2.5,1.5,3.3c0.1,0.1,0.3,0,0.2-0.2
				C80.1,99.8,81.2,96.2,79.5,93.5C79.6,93.5,79.5,93.5,79.5,93.5L79.5,93.5z"/>
		</g>
	</g>
	<g>
		<g>
			<path class="st9" d="M81.5,102.5c-3.9-2.7-6.7-6.6-10.5-9.5c-4.2-3.3-9.5-5.1-12.5-9.7c0-0.1-0.1,0-0.1,0.1c2.3,4,6.1,6.5,9.9,9
				C72.9,95.4,76.3,100.1,81.5,102.5C81.5,102.6,81.5,102.5,81.5,102.5L81.5,102.5z"/>
		</g>
	</g>
	<g>
		<g>
			<path class="st9" d="M50.2,80.5c1.5,3.8,4.8,6.5,3.5,11c0,0.1,0.1,0.1,0.1,0c0.7-2.4,1.5-3.9,0.2-6.3c-1-1.8-2.7-3-3.5-4.9
				C50.4,80.1,50.1,80.3,50.2,80.5L50.2,80.5z"/>
		</g>
	</g>
	<g>
		<g>
			<path class="st9" d="M54,91.5c0.1-1-0.4-2.4-1.2-3.1c-0.4-0.4-0.8-0.4-1.3-0.6c-1-0.3-1.5-0.8-2-1.8c-0.1-0.1-0.2-0.1-0.2,0.1
				c-0.1,1.1,1,2.3,2,2.7c0.8,0.3,1.2,0.4,1.6,1.2c0.3,0.5,0.4,1.1,0.8,1.6C53.7,91.8,54,91.7,54,91.5L54,91.5z"/>
		</g>
	</g>
	<g>
		<g>
			<path class="st9" d="M49.4,86.3c5.1,14.3-11.3,16.1-17.8,24.7c-4.1,5.4-4.6,12.7-1.4,18.5c0.2,0.4,0.8,0.1,0.7-0.3
				c-1.7-4.6-2-9.6-0.3-14.3c2.4-6.6,8.7-8.4,14-11.9C50.4,99.2,53.7,92.7,49.4,86.3C49.4,86.3,49.4,86.3,49.4,86.3L49.4,86.3z"/>
		</g>
	</g>
	<g>
		<g>
			<path class="st9" d="M28.3,105.2c-2.3,2.9-7.1,5.1-8.1,8.8c-1.3,4.9,1,11.4,2.8,15.8c0.1,0.1,0.3,0.1,0.2-0.1
				c-0.9-3.9-2.2-8.9-1.8-12.9c0.5-5.7,1.9-5,4.8-8.4C27.1,107.6,27.7,106.4,28.3,105.2C28.3,105.2,28.3,105.2,28.3,105.2
				L28.3,105.2z"/>
		</g>
	</g>
	<g>
		<g>
			<path class="st9" d="M90.8,87.4c-4.6,8.9-5.2,19.6-0.9,28.8c0,0.1,0.2,0,0.1-0.1c-2.6-9.7-2.6-19.2,0.8-28.7
				C90.9,87.4,90.8,87.3,90.8,87.4L90.8,87.4z"/>
		</g>
	</g>
	<g>
		<g>
			<path class="st9" d="M90.2,115.8c-0.4-1.6,0.4-2.8,1-4.2c0.4-0.9,0.5-1.8,0.3-2.8c0-0.2-0.3-0.1-0.3,0c-0.2,2.4-2.5,4.6-1.1,7.1
				C90.1,116,90.2,115.9,90.2,115.8L90.2,115.8z"/>
		</g>
	</g>
	<g>
		<g>
			<path class="st9" d="M91.3,108.8c0.1,8.8-0.5,20,5.8,27c0.1,0.2,0.4-0.1,0.3-0.2c-5.6-7.8-4.8-17.7-6-26.8
				C91.4,108.7,91.3,108.8,91.3,108.8L91.3,108.8z"/>
		</g>
	</g>
	<g>
		<g>
			<path class="st9" d="M97.3,135.5c-0.2-0.9-0.7-2.2-0.3-3c0.9-1.6,1.5,0.4,1.8,1c0.7,1.1,1.4,2.6,2.6,3.2c0.1,0,0.2-0.1,0.1-0.1
				c-0.8-1.1-1.6-2-2.2-3.2c-0.3-0.6-0.4-1.3-0.6-1.9c-0.1-0.3-0.4-0.6-0.7-0.6c-0.9-0.2-1.5,0.8-1.6,1.5c-0.2,1.1,0.2,2.3,0.7,3.3
				C97.2,135.7,97.3,135.6,97.3,135.5L97.3,135.5z"/>
		</g>
	</g>
	<g>
		<g>
			<path class="st9" d="M108.9,133.8c0.8-0.8,0.5-2.4,0.3-3.4c-0.2-0.8-0.7-2.4-1.6-2.6c-0.9-0.2-1.7,1-2,1.7
				c-0.4,0.9-0.6,2.1-0.2,3c0,0.1,0.2,0,0.2,0c0.1-0.7,0.1-1.4,0.4-2.1c0.2-0.4,0.4-0.9,0.7-1.2c0.2-0.3,0.6-0.4,1-0.3
				c0.1,0.2,0.2,0.5,0.3,0.8c0.3,0.8,0.5,1.6,0.5,2.4c0.1,0.6,0,1.2,0.3,1.7C108.8,133.9,108.9,133.9,108.9,133.8L108.9,133.8z"/>
		</g>
	</g>
	<g>
		<g>
			<path class="st9" d="M48.3,98.7c2.4,4.5,5.4,8.1,5.9,13.3c0.5,5.3-0.7,10.6-5,14c-0.1,0,0,0.1,0.1,0.1c9.6-6.3,6.1-20.8-0.7-27.7
				C48.5,98.4,48.3,98.6,48.3,98.7L48.3,98.7z"/>
		</g>
	</g>
	<g>
		<g>
			<path class="st9" d="M49.4,126c0.8-0.5,1.1-1.5,1.3-2.4c0.1-0.8,0.4-2-0.2-2.7c-0.1-0.1-0.2-0.1-0.3,0c-0.3,0.6-0.1,1.5-0.1,2.2
				C50.1,124.2,49.8,125,49.4,126C49.3,126,49.4,126.1,49.4,126L49.4,126z"/>
		</g>
	</g>
	<g>
		<g>
			<path class="st9" d="M50.3,121c-1.5,4.3-4.9,7.5-9.8,5.5c-0.3-0.1-0.6,0.4-0.3,0.6c4,3.3,10.6-1.2,10.3-6
				C50.5,121,50.3,120.9,50.3,121L50.3,121z"/>
		</g>
	</g>
	<g>
		<g>
			<path class="st9" d="M38.5,105.9c0.1,1.5,0.7,2.5,1.2,3.9c1.2,3.4,0.3,5.5,0,8.8c-0.2,2.4,0.4,4.4,2.2,5.9c0,0,0.1,0,0.1,0
				c-1.1-2.4-1.8-4.4-1.3-7.1c0.3-1.7,0.7-3,0.7-4.7c-0.1-2.5-0.6-5.2-2.5-6.9C38.7,105.6,38.5,105.7,38.5,105.9L38.5,105.9z"/>
		</g>
	</g>
	<g>
		<g>
			<path class="st9" d="M41.8,124.1c-0.2-0.5-0.2-1,0-1.5c0.2-0.5,0.5-0.8,0.7-1.2c0.1-0.1,0-0.4-0.2-0.3c-1.2,0.4-1.1,2.2-0.7,3.1
				C41.7,124.3,41.9,124.2,41.8,124.1L41.8,124.1z"/>
		</g>
	</g>
	<g>
		<g>
			<path class="st9" d="M42.4,121c0.2,1.3,0.2,2.4-0.4,3.7c-0.6,1.2-1,1.9-2.4,1.8c-0.1,0-0.1,0.1-0.1,0.1c1,1,2.5-0.1,3.1-1.1
				c0.7-1.3,1.1-3.4,0-4.6C42.5,120.8,42.4,120.9,42.4,121L42.4,121z"/>
		</g>
	</g>
	<g>
		<g>
			<path class="st9" d="M60.2,85.3c1.4,4.9,1,10.4-1.5,14.9c-1.7,3-4.5,5.4-5.1,9c0,0.3,0.4,0.5,0.5,0.2c1.9-4.6,5.9-7.4,7.3-12.3
				C62.6,93,63,88.8,60.2,85.3C60.2,85.2,60.2,85.2,60.2,85.3L60.2,85.3z"/>
		</g>
	</g>
	<g>
		<g>
			<path class="st9" d="M28.8,129.6c1.2,0,2.2,0.5,3.2,1.1c1.2,0.7,2.6,1.3,2.4,2.9c-0.1,0.4,0.5,0.6,0.6,0.2
				c0.5-3.1-3.6-5.3-6.2-4.5C28.6,129.4,28.7,129.6,28.8,129.6L28.8,129.6z"/>
		</g>
	</g>
	<g>
		<g>
			<path class="st9" d="M50.2,126c0-0.1,0.1-0.2,0.1-0.2c0.3-0.4-0.7-0.4-0.4,0c0,0.1,0.1,0.2,0.1,0.2C50,126.2,50.2,126.2,50.2,126
				L50.2,126z"/>
		</g>
	</g>
	<g>
		<g>
			<path class="st9" d="M50.1,124.8c0-0.3,0-0.6-0.1-0.8c-0.1-0.2-0.4-0.1-0.5,0.1c-0.1,0.3,0,0.6,0.2,0.9
				C49.8,125,50.1,125,50.1,124.8L50.1,124.8z"/>
		</g>
	</g>
	<g>
		<g>
			<path class="st9" d="M40,109c-0.7,1.1-1.2,2.3-1.1,3.7c0.1,1.5,0.9,2.8,1,4.3c0,0.4,0.7,0.6,0.8,0.1c0.2-1.1-0.2-1.9-0.6-2.9
				c-0.7-1.8-0.6-3.3,0.2-5C40.4,109,40.1,108.8,40,109L40,109z"/>
		</g>
	</g>
	<g>
		<g>
			<path class="st9" d="M51.8,127.5c0.6,0.5,1.2,0.8,1.6,1.4c0.4,0.7,0.9,1.7,0.8,2.6c0,0.1,0.1,0.1,0.1,0c0.3-1,0.5-1.9-0.2-2.7
				C53.6,128.1,52.7,127.4,51.8,127.5C51.8,127.5,51.8,127.5,51.8,127.5L51.8,127.5z"/>
		</g>
	</g>
	<g>
		<g>
			<path class="st9" d="M48.3,127.5c0.1,0.3,0.4,0.3,0.6,0.5c0.4,0.2,0.8,0.6,1,1c0.4,0.6,0.7,1.4,1,2.1c0.1,0.2,0.3,0.1,0.4-0.1
				c0.1-0.9-0.4-1.7-1-2.4C49.9,128.1,49,127.2,48.3,127.5C48.3,127.5,48.3,127.5,48.3,127.5L48.3,127.5z"/>
		</g>
	</g>
	<g>
		<g>
			<path class="st9" d="M29.8,130.6c0.8,0.4,1.2,1.2,1.6,2c0.5,0.8,0.7,1.4,0.9,2.3c0,0.2,0.3,0.2,0.3,0
				C33,132.9,31.7,131.1,29.8,130.6C29.8,130.5,29.8,130.6,29.8,130.6L29.8,130.6z"/>
		</g>
	</g>
	<g>
		<g>
			<path class="st9" d="M26.5,130.6c0.1,0.2,1.6,3,1.2,3.1c-0.3,0.1-0.3,0.5,0,0.6c1,0.2,0.8-1,0.7-1.7
				C28.1,131.8,27.4,131,26.5,130.6C26.6,130.5,26.5,130.6,26.5,130.6L26.5,130.6z"/>
		</g>
	</g>
	<g>
		<g>
			<path class="st9" d="M27.9,134.1c-1.2,0-2.8-1.4-3.5-2.3c-0.7-0.9-0.9-2.1-1.4-3.1c0,0,0,0-0.1,0c-0.6,1.4,0.2,2.8,1.2,3.8
				c0.8,0.8,2.6,2.3,3.9,1.8C28,134.2,28,134.1,27.9,134.1L27.9,134.1z"/>
		</g>
	</g>
	<g>
		<g>
			<path class="st9" d="M32.4,134.9c-0.7-0.2-1.5-0.1-2.2-0.2c-0.9-0.1-1.7-0.6-2.5-0.9c-0.2-0.1-0.3,0.2-0.2,0.4
				c0.7,0.5,1.6,1.4,2.5,1.5C30.8,135.6,31.7,135.3,32.4,134.9C32.5,134.9,32.5,134.9,32.4,134.9L32.4,134.9z"/>
		</g>
	</g>
	<g>
		<g>
			<path class="st9" d="M34.7,133.7c-0.4,0.1-0.7,0.4-1,0.6c-0.2,0.1-0.9,0.5-1.1,0.3c-0.1-0.2-0.5-0.1-0.5,0.1c0,0,0,0,0,0.1
				c0,0.1,0,0.3,0.1,0.3C32.9,135.8,34.7,134.7,34.7,133.7C34.7,133.7,34.7,133.7,34.7,133.7L34.7,133.7z"/>
		</g>
	</g>
	<g>
		<g>
			<path class="st9" d="M55.7,130.6c0.4-2-0.5-3.3-2.3-4.1c-0.8-0.4-1.7-0.6-2.6-0.7c-0.3,0-0.7-0.1-1-0.1c-0.1,0-0.3,0.2-0.4,0.2
				c-0.1,0-0.1,0.1-0.1,0.1c0.3,0.2,0.3,0.3,0.6,0.4c0.5,0.2,1.2,0.2,1.8,0.3c2.1,0.4,3.8,1.5,3.8,3.9
				C55.5,130.7,55.7,130.8,55.7,130.6L55.7,130.6z"/>
		</g>
	</g>
	<g>
		<g>
			<path class="st9" d="M51.1,131.4c-1-0.1-2.2,0-3.2-0.3c-1.3-0.4-3.4-1.5-3-3.2c0.2-0.6-0.9-0.7-0.8,0c0.1,0.7,0.1,1.4,0.6,2
				c0.5,0.6,1.3,1.1,1.9,1.4c1.2,0.6,3.2,0.9,4.5,0.4C51.2,131.5,51.2,131.4,51.1,131.4L51.1,131.4z"/>
		</g>
	</g>
	<g>
		<g>
			<path class="st9" d="M54.2,131.5c-0.4-0.1-0.9-0.1-1.3-0.2c-0.5-0.1-0.9-0.2-1.3-0.4c-0.1,0-0.3,0-0.4,0.1
				c-0.1,0.1-0.1,0.1-0.1,0.3c0,0.2,0.1,0.3,0.3,0.4c0.5,0.1,1,0.2,1.6,0.2C53.3,131.9,53.9,131.8,54.2,131.5
				C54.2,131.5,54.2,131.5,54.2,131.5L54.2,131.5z"/>
		</g>
	</g>
	<g>
		<g>
			<path class="st9" d="M55.5,130.4c-0.2,0.2-0.5,0.3-0.7,0.6c-0.2,0.2-0.3,0.5-0.6,0.6c-0.1,0-0.1,0.2,0,0.2c0.3,0.1,0.7,0.2,1-0.1
				c0.3-0.3,0.3-0.7,0.5-1.1C55.7,130.4,55.6,130.4,55.5,130.4L55.5,130.4z"/>
		</g>
	</g>
	<g>
		<g>
			<path class="st9" d="M107.4,135c0.8,0.2,1.3,0.6,1.8,1.3c0.5,0.7,0.9,1.2,1,2c0,0.1,0.1,0.1,0.2,0c0.1-0.8-0.1-1.8-0.6-2.5
				c-0.6-0.6-1.5-1-2.3-1C107.3,134.8,107.3,134.9,107.4,135L107.4,135z"/>
		</g>
	</g>
	<g>
		<g>
			<path class="st9" d="M105.6,135.6c0.7,0.9,1.2,1.8,1.4,3c0,0.2,0.3,0.2,0.3,0C107.5,137.4,106.8,136,105.6,135.6
				C105.6,135.6,105.6,135.6,105.6,135.6L105.6,135.6z"/>
		</g>
	</g>
	<g>
		<g>
			<path class="st9" d="M115,133.3c0.4,0.2,0.8,0.2,1.1,0.5c0.3,0.3,0.6,0.6,0.8,1c0.1,0.2,0.3,0.4,0.5,0.6c0.4,0.5,0.5,0.9,0.5,1.5
				c0,0.1,0.1,0.1,0.2,0c0.4-0.9-0.2-2-0.8-2.7C116.8,133.7,115.8,132.8,115,133.3C115,133.2,115,133.3,115,133.3L115,133.3z"/>
		</g>
	</g>
	<g>
		<g>
			<path class="st9" d="M113.3,133.4c0.1,0.2,0.3,0.4,0.5,0.6c0.2,0.3,0.3,0.6,0.5,1c0.2,0.4,0.4,0.7,0.5,1.1c0,0.3,0,0.7,0,1
				c0,0.1,0.1,0.1,0.1,0c0.3-0.6,0.1-1.8,0-2.4C114.7,134.2,113.9,133.5,113.3,133.4C113.3,133.4,113.3,133.4,113.3,133.4
				L113.3,133.4z"/>
		</g>
	</g>
	<g>
		<g>
			<path class="st9" d="M108.7,33.7c-1.5,0.1-3.1,0.6-4,1.9c-1.2,1.6-1.1,4.5-1.1,6.4c0,0.1,0.1,0,0.1,0c0.2-1.8,0.4-3.7,1.1-5.4
				C105.3,35,107,34.1,108.7,33.7C108.7,33.8,108.7,33.7,108.7,33.7L108.7,33.7z"/>
		</g>
	</g>
	<g>
		<g>
			<path class="st9" d="M125,29.7c2.3,1.6,4.9,2.4,7.4,3.4c1.3,0.5,2.6,0.9,3.8,1.5c0.5,0.2,1,0.4,1.4,0.7c0.1,1,0.1,1.9,0.2,2.9
				c-0.3,0.9-2.1,1.5-2.9,1.6c-0.2,0-0.2,0.4,0,0.4c2,0,5.7-2.8,3.7-4.8c-1.1-1.2-3.9-1.8-5.3-2.3C130.5,31.9,127.8,30.7,125,29.7
				C124.9,29.6,124.9,29.7,125,29.7L125,29.7z"/>
		</g>
	</g>
</g>
</svg>
