<?xml version="1.0" encoding="utf-8"?>
<!-- Generator: Adobe Illustrator 22.1.0, SVG Export Plug-In . SVG Version: 6.00 Build 0)  -->
<svg version="1.1" id="Card_1" xmlns="http://www.w3.org/2000/svg" xmlns:xlink="http://www.w3.org/1999/xlink" x="0px" y="0px"
	 viewBox="0 0 155.9 155.9" style="enable-background:new 0 0 155.9 155.9;" xml:space="preserve">
<style type="text/css">
	.st0{clip-path:url(#SVGID_2_);}
	.st1{fill:#0D0E0E;}
	.st2{fill:#21190F;}
	.st3{fill:#FFFFFF;}
	.st4{fill:#1D1D1B;}
	.st5{fill:#E8EFEF;}
	.st6{fill:#9E6B5A;}
	.st7{fill:#241819;}
</style>
<symbol  id="Boston_Terrier" viewBox="-59 -54.9 118 109.8">
	<g id="Colours_2_1_">
		<defs>
			<path id="SVGID_1_" d="M54.6-38.1c-1,3.7-1.4,7.5-1.3,11.3c0,1.5,0.1,3.1-0.6,4.4c-0.4,0.6-0.9,1.1-1.4,1.6
				c-1.7,1.6-3.3,3.3-4.4,5.3c-0.9,1.7-1.3,3.6-1.8,5.4c-0.5,2-1.3,4.2-2.1,6.1c-0.1,2.2,1,4.7,0.7,7c-0.1,1-0.6,2-1,2.9
				c-0.6,1.4-1.3,2.8-2.2,4.2c0.1,1.3,0.2,2.5-0.2,3.8c-0.6,1.6-2,2.8-3.6,3.4c-1.6,0.6-3.1,0.7-4.8,0.9c-4.1,2.8-9.2,3.8-14.2,3.9
				c-5.5,0.1-13.3,0.2-18.8,0.1c-1.3,0-2.6,0-3.8,0.3c-1.8,0.4-4.5,0.7-6,1.4l-1.6,0.5c-1.8,0.1-1.8,0.2-2.9-0.8l0.1,3.7
				c-0.5,2.2-1.7,4.1-3.3,5.7c-1,1-2.2,1.8-2.9,3c-0.7,1.3-0.8,2.9-0.7,4.4l0,0.5c0.2,0.1,0.3,0.2,0.5,0.3c1,0.4,2,1.6,2.2,2.6
				c0.3,1,0.9,2.4,1.2,3.4c0.3,0.9,0.8,1.4,1.4,2.4c0.3,0.5,0.1,0.7-0.1,0.8c-2.1,1.2-5.9-1.8-7-3.5c-0.5-0.7-0.7-0.9-1.5-1.2
				c-0.2,1.6,1,4.3,1.6,5.8c0.2,0.6,0.5,1.2,0.3,1.8l-0.1,0c-0.9,0.5-3.1-0.6-4-1.7c-1-1.1-0.9-1.3-1.5-2.6
				c-0.2-0.4-0.4-0.7-0.8-0.9s-0.7-0.4-1.1-0.3l-0.8,0.2c-1,0.1-2,0-3,0.2c-0.7,0.1-1.4,0.3-2.1,0.4c-1.1,0.1-2.3,0-3.3-0.5
				c-1-0.5-2.3-2.3-2.3-2.3c-0.8,0.8-2,1.1-3,0.4c-0.4-0.2-0.7-0.5-1.1-0.8c-0.6-0.4-1.2-0.7-1.8-1.1c-1.3-0.9-2.2-2.2-2.5-3.7
				c-0.3-1.5,0-3.1,0.8-4.4c0.3-0.4,0.6-0.8,1-1.1c0.5-0.4,1.1-0.5,1.7-0.8s1.1-0.7,1.3-1.2c3.8-4.1,6.6-8.9,8.3-14.3
				C-35.9,12.6-35.6,6-35-0.6c0.2-1.9,0.4-3.8,1.1-5.5c0.8-1.9,2.1-3.5,2.4-5.5c0.2-1.2-0.1-2.5-0.1-3.7c-0.1-2.2,0.5-4.3,0.8-6.4
				c0.8-4.6,0.9-9.3,0.7-14c-0.1-2.2,0.2-4.2-1.7-5.3c-1.1-0.6-3.2-0.1-4.1-0.9c-1.2-1-1-3.6,0.3-4.5c0.6-0.5,0.9-0.4,1.7-0.5
				c0.3,0,0.7-0.1,1,0c0.6,0.1,1.1,0.4,1.7,0.5c0.5,0,1-0.1,1.5-0.1l1.1,0.2c-1.3-1.2-1.6-1.8-0.6-3.3l0.8-0.6
				c1.2-0.5,2.6-0.5,3.8-0.2l2,0.5c1,0.1,1.9,0.7,2.2,1.6c0.2,0.4,0.2,0.9,0.2,1.3c0.1,1.1,0.2,2.3,0.3,3.4c0,0.5,0.2,1.2,0.5,1.9
				l0.2,0.6c1.7,1.1,1.6,2.9,1.5,4.4c-0.2,2.1-0.1,4.2,0.1,6.3c0.1,2.5,0.3,4.9,0.4,7.4c0.1,1.7,0.2,3.3,0.6,4.9
				c0.3,1.4,0.4,1.5,0.7,2.9c3.4-0.5,6.9,0.2,10.1,1.3c3.2,1.1,6.3,2.7,9.4,4.1C7.4-8.3,13.5-5.8,19-5c1.4-3.2,3.1-6.5,5.2-9.3
				c2.1-2.8,4.7-5.2,7.7-6.9c0.8-0.4,1.6-0.8,2.4-1.3c3-1.9,4.9-5.5,4.8-9.1c0-0.6,0.5-1.9,0.1-2.4c-0.5-0.5-1.9,0-2.6-0.3
				C36-34.5,35.3-35,35-35.7c-0.3-0.7,0-1.8,0.6-2.3c0.4-0.4,0.8-0.6,1.4-0.8c1.1-0.3,2.2-0.1,3.3,0.1c0,0,1.3,0.1,1.9,0.3
				s1.5,0.3,1.8,1c0.4,0.6,0.4,1.4,0.4,2.2c-0.1,3.8-1.8,7.4-2,11.1c1.1-0.7,2.1-1.4,3.1-2.4c2.4-2.4,3.7-4.8,4.1-8.1
				c0-0.4,0.1-2.1,0-2.5c-0.7-1.8-3.3-0.6-4-2.3c-0.2-0.6-0.7-2.3-0.3-2.8c0.4-0.5,1.1-0.9,1.7-1.2c0.9-0.3,1.2-0.3,2.1-0.1
				c0.4,0.1,2.4,0.9,2.8,0.9c0.5,0.1,1-0.2,1.7,0.3c0.9,0.3,1.3,0.9,1.3,1.8S54.8-39,54.6-38.1z M-25.2-40.9c-0.1-1-0.2-2.1-0.8-3
				c-0.5-0.7-1.1-1.2-1.8-1.7l0.1,1.1c0.5,2.9,1.5,5.7,2.9,8.3C-24.9-37.8-25-39.4-25.2-40.9z"/>
		</defs>
		<clipPath id="SVGID_2_">
			<use xlink:href="#SVGID_1_"  style="overflow:visible;"/>
		</clipPath>
		<g id="Base_2_" class="st0">
			<rect x="-55.3" y="-54.8" class="st1" width="114.3" height="109.7"/>
			<g>
				<path class="st2" d="M-41.2,42.1c0.1-0.2,0.3-0.4,0.4-0.5c0.5-0.4,1.4-0.3,2,0c0.8,0.3,1.5,0.9,1.7,1.7c0.1,0.3,0.1,0.7,0.1,1
					c0,0.4,0,0.7-0.3,1c-0.2,0.2-0.4,0.3-0.6,0.4c0,0,0,0,0,0C-39,46-40.4,46-41,44.9C-41.7,43.9-41.9,43.1-41.2,42.1z"/>
			</g>
			<g>
				<g>
					<path class="st3" d="M-17.2-22.1c-1-0.9-1.4-2.3-2.1-3.4c-0.7-1.2-1.9-2.3-3.2-1.9c-1,0.2-1.6,1.2-1.9,2.1
						c-1,3,0.1,6.3-0.5,9.3c-0.3,1.6-1.1,3-1.3,4.6c-0.3,2.4,0.6,4.9,0.4,7.3c-0.1,1.4-0.6,2.9,0,4.1c0.4,0.8,1.3,1.4,2,2
						c1.9,1.6,3,4.1,2.9,6.6c-0.1,3.2-1.9,6.9,0.2,9.4c0.5,0.6,1.1,1,1.7,1.5c2.4,2,3.6,5.2,3.7,8.3c0,3.1-1.1,6.2-2.7,8.8
						c-0.5,0.8-1.5,2-2.3,2.4c-3.3,1.9-3.7-7.6-5.7-5.3c-1.9,2.3-1.3-5.3-3.5-6.8c-2.2-1.5-6.6-1.1-8.8,0.4c-1,0.7-1.1,1.6-2,2.5
						c-1.4,1.4-2.8,2.1-4.6,2.9c1.6,0.5,2.5,2.8,2.6,4.5s-0.4,3.4,0,5.1c0.4,2,2,3.7,4,4.4c1.3,0.4,5-0.7,5.7,0.2
						c0.8,1-1.6,3.6-2.2,4.4c-1.4,1.7-3.1,3-5.4,3.4c-3.2,0.6-6.4-0.3-9.4-1.7c-4.1-1.9-8-5.1-9-9.6c-1.2-5.5,2.7-11,7.4-14.2
						c0.3-0.2,0.7-0.5,0.8-0.8c0.2-0.5-0.1-0.9-0.2-1.4c-2-5,0-10.5,1-15.8c1-5.2,0.9-10.6,0.8-15.9c-0.1-4.9-0.1-9.9-0.6-14.8
						c-0.4-4.7-1.2-9.4-1.1-14.1s1.2-9.6,4-13.3c4.4-5.7,12-7.7,19.2-8c4.1-0.2,8.9,0.6,10.8,4.2c0.6,1.2,0.8,2.6,1,3.9
						c0.5,3.9,1,7.9,1.4,11.8C-14-30.4-14-25.3-17.2-22.1z M-46.5,41.8c-1.4-1.2-2.7-2.6-2.1-4.9c-0.4,0-0.5,0.4-0.6,0.8
						c-0.2,0.8-0.5,1.8-0.5,2.6c0,1.2-0.1,1.4-0.3,1.6c-0.2,0.2-0.6-0.1-0.9-0.7c-0.2-0.3-0.5,0.5-0.5,0.8c-0.1,0.6,0.1,1.2,0.4,1.7
						c0.3,0.5,0.8,0.9,1.3,1.3c0.7,0.6,1.5,1.1,2.3,1.4c1.6,0.6,3.7,0.3,4.2-1.4C-42.8,43.4-45.1,43.4-46.5,41.8z"/>
				</g>
			</g>
			<g>
				<path class="st3" d="M44.3-36.7L44.3-36.7c0.2-0.3,0.4-0.6,0.5-0.9c1.5,0.8,3.5,0.3,4.4-1.1c0.4-0.7,0.6-1.5,1.2-2
					c1.2-0.9,3.2-0.1,4.3-1.2c1.1-1,0.4-2.9-0.7-3.9c-0.8-0.7-1.8-1.2-2.8-1.7c-6.9-3.1-15.2-4.2-21.8-0.4c-2.3,1.3-4.4,3.5-4.3,6.1
					c0,1.1,0.4,2.1,0.9,3.1C30.3-31.2,38.2-34.2,44.3-36.7z"/>
			</g>
			<g>
				<path class="st4" d="M3.2-7.9L3.2-7.9C6.5-6.5,9.6-4.7,13-3.7s7.2,1.3,10.4-0.4c4.7-2.5,6.4-8.3,10-12.2
					c2.1-2.3,4.9-3.9,7.4-5.9c1.3-1.1,2.6-2.3,3.3-3.8c0.7-1.6,0.6-3.5-0.6-4.8c-0.8-0.8-1.9-1.2-3-1.6c-1.3-0.4-2.7-0.9-4.1-0.6
					c-1.3,0.2-2.5,1.1-3.5,2c-3.7,3.2-7,7.1-11.6,8.8c-2.3,0.8-4.7,1-7.1,1C6-21.1-2.1-22.8-10.2-22c-1.1,0.1-2.2,0.3-3.1,0.9
					c-0.7,0.5-1.1,1.2-1.5,2c-0.8,1.6-1.7,4.3-0.9,6.1c0.9,1.9,2.9,1.3,4.8,1.5C-6-11.1-1.2-9.9,3.2-7.9z"/>
			</g>
			<g>
				<path class="st4" d="M41.3,6.2c0.8-3.6,0.1-7.4,0.3-11.2c0.4-7.3,4.7-14.3,11.1-17.9c0.3-0.1,0.5-0.3,0.8-0.2
					c0.6,0.1,0.8,0.7,0.9,1.3C55.7-14.5,53.2-7,50.8,0c-0.6,1.8-1.2,3.6-2.3,5.2c0,0,0,0,0,0c-1.2,1.7-6.8,6.9-9,5.5
					C39.9,9.2,40.9,7.8,41.3,6.2z"/>
			</g>
			<g>
				<path class="st4" d="M-12.4,21.9c0.9-0.6,1.6-1.7,2.7-1.5c0.3,0.1,0.6,0.3,0.9,0.4c1,0.4,2.1,0.1,3.1-0.2
					c5.4-1.4,11.2-1.1,16.4,0.7c1.6,0.6,3.1,1.3,4.8,1.6c1.7,0.4,3.4,0.4,5.1,0.4c-1.1,2-3.7,2.7-6,3C10,27,5.3,27,0.6,26.4
					c-3.1-0.4-6.3-1.1-9.4-0.6c-1.2,0.2-2.3,0.5-3.5,0.5s-2.5-0.4-3.2-1.3c0,0,0,0,0,0c-0.8-1-0.8-2.6-0.9-3.8
					C-15.1,21.8-13.9,22.9-12.4,21.9z"/>
			</g>
			<g>
				<path class="st5" d="M-38.3,26.7c1.1-1.6,2.2-3.2,3.3-4.8c0.5-0.8,1.1-1.6,1.2-2.5c0.3-1.6-0.6-3.2-0.7-4.9
					c-0.2-1.9,0.6-3.7,0.7-5.6c0.2-2.1-0.3-4.1-0.2-6.2c0.1-1.8,0.7-3.5,1.3-5.2c0.3-1,0.7-1.9,1.3-2.7c0.5-0.6,1.2-1.1,1.7-1.8
					c0.5-0.7,0.7-1.7,0.9-2.6c0.6-3.3,1.3-6.6,1.9-9.9c0.1-0.7,0.3-1.4,0.2-2.2c-0.1-0.5-0.3-1-0.3-1.5c-0.1-1,0.5-1.9,0.9-2.7
					c2.1-4.4,1-9.5-0.1-14.2c-1.2,0.9-1.5,2.6-1.6,4.1c-0.8,6.9-0.8,13.9-3.2,20.4c-1.8,5-4.8,9.4-7,14.3c-1.9,4.2-3.2,8.7-4.5,13.2
					c-0.9,3.1-1.8,6.1-2.7,9.2c-0.8,2.6-1.5,5.3-2.3,7.9l0,0c-0.4,1.5-0.9,2.8,0.9,3.1c1,0.2,1.7,0,2.7-0.4
					C-41.4,30.5-39.8,28.9-38.3,26.7z"/>
			</g>
			<g>
				<path class="st5" d="M-22.1,31.9C-22.1,31.9-22.1,31.9-22.1,31.9c0.8-0.9,1.9-1.6,2.6-2.5c1.2-1.5,1.4-3.6,2.1-5.4
					c0-0.1,0.1-0.3,0.2-0.3c0.2-0.1,0.4,0.1,0.6,0.2c2.2,2.2,3.4,5.4,3.4,8.5c0,2.4-0.9,4.9-2.8,6.4c-1.7,1.3-4.9,1.6-6.4-0.2
					C-24,36.8-23.5,33.6-22.1,31.9z"/>
			</g>
			<g>
				<path class="st6" d="M-22.7,43.8L-22.7,43.8c-0.3-0.1-0.5-0.2-0.8-0.3c-0.5,0.8-0.4,1.9,0.1,2.7c0.5,0.8,1.2,1.5,1.9,2.1
					c0.7,0.6,1.5,1.2,2.3,1.7c-0.6-1.1-1.1-2.3-1.4-3.5c-0.1-0.6-0.2-1.2-0.7-1.5c-0.2-0.1-0.4-0.3-0.4-0.5c0-0.2,0.2-0.3,0.3-0.4
					c0.1-0.2-0.1-0.5-0.2-0.7c-0.4-0.5-1-1.1-1.6-1.4C-23.4,42.6-22.8,43.4-22.7,43.8z"/>
			</g>
		</g>
		<g id="Details_1_" class="st0">
			<g>
				<path class="st7" d="M-43.4,46L-43.4,46c0.3-0.3,0.6-0.7,0.5-1.1c0-0.4-0.3-0.7-0.5-1c-1-0.9-2.6-1-3.6-0.2
					c-0.5,0.4-0.9,0.9-0.8,1.5c0.1,0.5,0.4,0.9,0.8,1.3c0.4,0.3,0.8,0.6,1.3,0.7c0.5,0.1,0.9,0,1.3-0.4
					C-44.2,46.6-43.8,46.4-43.4,46z"/>
			</g>
			<circle class="st4" cx="-39.1" cy="43.9" r="1.2"/>
			<g>
				<path class="st6" d="M-28.6,47.5C-28.6,47.5-28.6,47.5-28.6,47.5c0.2,0.1,0.2,0.2,0.3,0.4c0.2,0.4,0.3,0.7,0.5,1.1
					c0,0.1,0.1,0.2,0.1,0.2c0,0.1-0.1,0.1-0.2,0.2c-0.2,0.2,0,0.6,0.2,0.8c0.8,1.1,1.8,2.2,2.8,3.1c0.2,0.1,0.4,0.3,0.4,0.5
					c-2.3-0.8-4.4-2.4-5.6-4.5c-0.3-0.4-0.3-0.8,0.1-1.1C-29.8,47.9-28.9,47.3-28.6,47.5z"/>
			</g>
			<circle class="st3" cx="-38.3" cy="44" r="0.4"/>
		</g>
	</g>
	<g id="Outlines_2_1_">
		<g>
			<g>
				<path d="M-49.6,40.4c-0.2-3.4,0.9-6.1,3.8-7.8c2.1-1.3,4.1-1.9,5.7-4c0.8-1,1.2-1.8,2.5-1.9c0.1,0,0.2,0.1,0.1,0.2
					c-1.4,0.7-1.9,2.2-2.8,3.3c-0.8,0.8-1.7,1.4-2.7,2C-46.3,34.1-49.4,36.2-49.6,40.4C-49.5,40.5-49.6,40.5-49.6,40.4L-49.6,40.4z"
					/>
			</g>
		</g>
		<g>
			<g>
				<path d="M-46.3,33.1c6.7-8.1,9.2-18,10.4-28.3c0.4-3.2,0.3-6.6,1.2-9.7c0.3-1,0.8-1.8,1.1-2.8c1.2-3.3,1.2-5.9,1.3-9.2
					c0.2-4,1.5-7.8,1.7-11.8c0.1-2.2,0.4-4.9,0-7c0-0.4,0-0.9,0-1.3c-0.8-2.9-2.2-4.2-4.4-3.9c-2.2-1.5-3.6-3.3-0.8-5.6
					c0.1-0.1,0.4,0,0.3,0.2c-2.5,4.3,3.3,3.6,5.1,5.8c1.3,1.7,0.9,4.7,0.9,6.6c0,4.1-0.1,8.3-0.6,12.4c-0.5,3.7-0.1,8-1.3,11.5
					c-0.6,1.9-1.9,3.4-2.5,5.4c-0.5,1.9-0.6,3.9-0.8,5.9c-0.3,4.2-0.4,8.5-1.1,12.6c-1.3,7.7-4.7,14-10.1,19.6
					C-46.2,33.7-46.6,33.3-46.3,33.1L-46.3,33.1z"/>
			</g>
		</g>
		<g>
			<g>
				<path d="M-32.1-7.7c4.6-4,4.8-9,5.6-14.5c0.6-3.9,1.3-7.7,1.2-11.7c0-2.4,0.2-6.3-0.7-8.4c-0.6-1.5-2.4-2.4-3.2-3.7
					c-1.1-1.7-1.2-2.1-0.5-3.8c0.1-0.3,0.6,0,0.4,0.2c-0.7,1.5,2.8,4.1,3.5,5.3c0.6,1,0.7,2.1,0.9,3.3c0.7,4,1,8.4,0.4,12.5
					c-0.4,2.6-1.7,5-1.7,7.6c0,1.6,0.4,2.8,0.1,4.4c-0.8,3.9-3.1,6.6-6.1,9C-32.1-7.5-32.2-7.6-32.1-7.7L-32.1-7.7z"/>
			</g>
		</g>
		<g>
			<g>
				<path d="M-27.5-44.6c0.7,2.9,2.1,5.4,3.1,8.2c0.2,0.4-0.5,0.6-0.7,0.3c-1.7-2.4-2.3-5.6-2.7-8.4C-27.9-44.7-27.6-44.8-27.5-44.6
					L-27.5-44.6z"/>
			</g>
		</g>
		<g>
			<g>
				<path d="M-15.6-5.5c0.2-5.9-2.1-11-2.1-16.7c0-3-0.3-6-0.4-9c-0.1-2.6,0.8-7.8-1.2-9.8c-0.2-0.2,0.1-0.6,0.3-0.3
					c1.6,1.5,1.7,2.5,1.7,4.6c0,3.7,0.1,7.3,0.3,10.9C-16.5-18.9-13.9-12.5-15.6-5.5C-15.6-5.5-15.6-5.5-15.6-5.5L-15.6-5.5z"/>
			</g>
		</g>
		<g>
			<g>
				<path d="M-18.2-40.1c-3.7-1.8-0.6-8.2-4.7-9.4c-0.5-0.2-0.4-1,0.1-1c1.6,0,2.6,1.2,2.9,2.7C-19.4-45.2-20.2-42.3-18.2-40.1
					C-18.1-40.2-18.1-40.1-18.2-40.1L-18.2-40.1z"/>
			</g>
		</g>
		<g>
			<g>
				<path d="M-16.2-15.5c6-1.4,11.5,1.2,16.7,3.8c6.8,3.4,14.2,6.2,21.8,6.9c0.2,0,0.2,0.4,0,0.4C8.7-4.4-2.5-14.5-16.1-15.1
					C-16.4-15.1-16.4-15.5-16.2-15.5L-16.2-15.5z"/>
			</g>
		</g>
		<g>
			<g>
				<path d="M19-5.2c1.6-4.2,3.6-8.4,6.8-11.7c3.6-3.8,9.2-4.9,11.8-9.7c1.1-2.1,2.2-5.7,0-7.2c-0.6-0.4-1.3,0-2.1-0.6
					c-1.4-1.3-0.9-2.7,0.2-3.9c0.1-0.1,0.2,0,0.2,0.1c-1.2,3.2,3.4,2.8,3.9,5c0.6,2.3-0.4,5.8-1.7,7.8c-1.9,3-5.5,4.3-8.2,6.4
					c-4.7,3.7-7.7,8.8-10.5,14C19.2-5,18.9-5.1,19-5.2L19-5.2z"/>
			</g>
		</g>
		<g>
			<g>
				<path d="M19.7-1.9c7.1-3.1,9.7-9.9,14-15.7c3.7-5,10.5-6.6,13.6-11.8c0.8-1.3,1.3-2.6,1.6-4.1c0.5-2.5,0.3-3.3-1.8-4.7
					c-0.8-0.5-1.3-0.2-2-1.2c-1.7-2.3-0.2-3.8,1.8-4.5c0.2-0.1,0.3,0.2,0.2,0.3c-3.9,3.8,1.3,3.9,2.8,6c0.5,0.8,0.3,2,0.3,2.8
					c-0.3,3.9-2.8,7.2-5.7,9.5c-2.5,2-5.5,3.4-7.8,5.7c-2.7,2.8-4.6,6.2-6.8,9.3c-2.6,3.7-5.8,7-10.2,8.5
					C19.6-1.7,19.6-1.9,19.7-1.9L19.7-1.9z"/>
			</g>
		</g>
		<g>
			<g>
				<path d="M37.1,14.2c2.5-2.9,4.8-6.6,5.8-10.3c0.8-3.3-0.9-6.2,0.3-9.5c0-0.1,0.2-0.1,0.2,0c-0.3,3.8,1.5,7,0.1,10.7
					C42.2,8.5,40,12,37.1,14.2C37.1,14.3,37.1,14.2,37.1,14.2L37.1,14.2z"/>
			</g>
		</g>
		<g>
			<g>
				<path d="M41,0.3c2.2-5.6,3-12.6,6.5-17.5c1-1.4,2.4-2.5,3.5-3.8c2.4-3.2,1.7-4.5,1.7-7.6c0-3.5,3.1-11.6,0.8-14.1
					c-0.2-0.2,0.1-0.5,0.3-0.3c1.8,1.2,1.8,2.4,1.5,4.5c-0.5,3.3-1.1,6.6-1.3,9.9c-0.1,1.9,0.1,4-0.5,5.8c-1.5,3.9-5.7,5.9-7.1,10.2
					C44.8-8,43.6-3.9,41,0.3C41,0.3,41,0.3,41,0.3L41,0.3z"/>
			</g>
		</g>
		<g>
			<g>
				<path d="M-22.3,40.3c-0.3-2.6-0.2-4.5,1.7-6.4c3.6-3.7,6.7-7.6,4-13c-0.1-0.3,0.2-0.5,0.4-0.2c1.7,2.7,2,5.8,0.7,8.7
					c-1.9,4.1-6.6,5.9-6.5,10.9C-22.1,40.4-22.3,40.4-22.3,40.3L-22.3,40.3z"/>
			</g>
		</g>
		<g>
			<g>
				<path d="M-15.4,23.4c0.8,0.4,1.4,0.5,2.3,0.5c1.6,0.1,2.7-0.6,3.8-1.7c0.1-0.1,0.2,0,0.2,0.1c-0.7,1.4-2.3,2.3-3.8,2.5
					c-1.3,0.2-2-0.1-2.7-1.1C-15.8,23.5-15.6,23.3-15.4,23.4L-15.4,23.4z"/>
			</g>
		</g>
		<g>
			<g>
				<path d="M-11.1,23.7c13.8-6,31.2,2.9,44-6.4c0.1-0.1,0.2,0.1,0.1,0.2C20.8,27.2,3.1,20.1-11,24C-11.1,24-11.3,23.8-11.1,23.7
					L-11.1,23.7z"/>
			</g>
		</g>
		<g>
			<g>
				<path d="M31.6,18.3c2.1-0.4,4.2-0.6,6-1.8c2.2-1.5,3-3.9,2.6-6.4c-0.1-0.4,0.6-0.5,0.6-0.1c0,2.6,0.3,4.7-1.9,6.4
					C36.9,18,34.1,18.3,31.6,18.3C31.6,18.3,31.6,18.3,31.6,18.3L31.6,18.3z"/>
			</g>
		</g>
		<g>
			<g>
				<path d="M-42.2,42.7c0.7,1.5,0.7,3.2-0.9,4c-1.9,1-4-0.9-5.4-2c-1.8-1.3-2.8-3.3-2.7-5.5c0.1-1,0.4-2.1,1-3c1-1.6,3.1-1.6,4-3.2
					c0.1-0.2,0.4,0,0.3,0.2c-0.4,0.7-0.8,0.9-1.4,1.3c-1.4,1-2.7,1.4-3.2,3.2c-0.4,1.2-0.3,2.4,0.1,3.6c0.7,1.8,2,2.8,3.6,3.8
					c0.5,0.3,0.9,0.8,1.4,1C-43.2,47.1-41.6,44.8-42.2,42.7C-42.3,42.7-42.3,42.7-42.2,42.7L-42.2,42.7z"/>
			</g>
		</g>
		<g>
			<g>
				<path d="M-44.6,45.4c-0.5,0-1.2-0.4-1.2-0.9c0-0.5,0.7-0.6,1.1-0.5c0.1,0,0.1,0.2,0,0.2c-0.1,0-0.4,0.1-0.5,0.2
					c-0.1-0.1-0.1-0.1,0,0c0.1,0,0.1,0.1,0.2,0.2c0.2,0.2,0.4,0.4,0.6,0.6C-44.4,45.2-44.5,45.4-44.6,45.4L-44.6,45.4z"/>
			</g>
		</g>
		<g>
			<g>
				<path d="M-45.3,46.3c-0.4,0-0.6-0.4-1-0.5c0.1,0,0.2,0,0.3,0c-0.1,0.1-0.2,0.2-0.3,0.3c0,0-0.1,0-0.2,0
					c-0.4-0.2-0.2-0.9,0.2-0.9c0.4-0.1,1.1,0.6,1.1,1C-45.2,46.2-45.2,46.3-45.3,46.3L-45.3,46.3z"/>
			</g>
		</g>
		<g>
			<g>
				<path d="M-31,47.9c1.5-0.5,2.1,1,2.6,2.1c0.7,1.5,2.9,3.8,4.8,3.2c0.2-0.1,0.3,0.3,0.1,0.4c-1.2,0.5-2.8-0.4-3.7-1.2
					c-0.6-0.4-1.1-1-1.5-1.6c-0.6-1-0.8-2.7-2.2-2.8C-31.1,48-31.1,47.9-31,47.9L-31,47.9z"/>
			</g>
		</g>
		<g>
			<g>
				<path d="M-23.7,53.4c-0.3-2.4-3.1-5.3-2.1-7.8c0.1-0.2,0.3-0.1,0.4,0.1c0.4,1.4,0.6,2.8,1.1,4.2c0.4,1.1,1.1,2.4,0.7,3.6
					C-23.5,53.6-23.6,53.5-23.7,53.4L-23.7,53.4z"/>
			</g>
		</g>
		<g>
			<g>
				<path d="M-27.3,45.6c1.5-0.4,2.6,0,3.6,1.2c1.6,1.9,4,4.2,6.7,3.6c0.1,0,0.1,0.1,0.1,0.1c-1.4,0.9-3.2,0-4.5-0.8
					C-23.5,48.4-24.7,45.7-27.3,45.6C-27.4,45.7-27.4,45.6-27.3,45.6L-27.3,45.6z"/>
			</g>
		</g>
		<g>
			<g>
				<path d="M-17.2,50.5c0.4-0.6-1-2.3-1.2-2.8c-0.4-1-0.7-2.1-1-3.1c-0.2-0.6-0.5-1.2-0.9-1.8c-0.6-0.9-1.4-1.1-2.1-1.9
					c-0.4-0.4-0.6-0.8-0.7-1.4c0-0.1,0.1-0.1,0.1,0c0.3,1.2,2.5,1.9,3.2,3c0.6,1,0.7,2.4,1.2,3.5c0.4,1.1,1.6,2.4,1.9,3.5
					C-16.7,50.1-16.6,50.3-17.2,50.5C-17.2,50.6-17.2,50.6-17.2,50.5L-17.2,50.5z"/>
			</g>
		</g>
		<g>
			<g>
				<path d="M-42.5,45.9c2,2.4,3.9,2.7,6.9,2.4c1.7-0.2,3.5-0.2,5.2-0.6c0.2-0.1,0.3,0.3,0.1,0.3c-1.2,0.5-2.4,0.4-3.7,0.5
					c-1.5,0.1-2.9,0.7-4.5,0.5c-1.8-0.2-3.5-1.3-4-3.1C-42.6,45.9-42.5,45.8-42.5,45.9L-42.5,45.9z"/>
			</g>
		</g>
		<g>
			<g>
				<path d="M-39.1,45.9c0.7,0,1.4,0.1,1.8-0.6c0.3-0.5,0.4-1.2,0.3-1.8c0,0,0-0.1,0.1,0c0.4,0.6,0.2,1.5-0.3,2
					C-37.7,46.1-38.5,46-39.1,45.9C-39.1,45.9-39.1,45.9-39.1,45.9L-39.1,45.9z"/>
			</g>
		</g>
		<g>
			<g>
				<path d="M-36.3-46c0.5-1.4,2.6-1.7,3.8-1.4c0.8,0.2,1.4,0.3,2.2,0.3c0.3,0,0.7-0.1,1,0c0.6,0.2,0.9,0.5,0.9,1.1
					c0,0.2-0.2,0.3-0.3,0.2c-1.1-0.6-2.2-0.1-3.4-0.5c-1.4-0.4-2.8-0.4-4.1,0.3C-36.3-45.8-36.4-45.9-36.3-46L-36.3-46z"/>
			</g>
		</g>
		<g>
			<g>
				<path d="M-29.8-49.2c0-1.6,1.4-2,2.8-2.1c0.9-0.1,2,0,2.8,0.4c0.4,0.2,0.9,0.4,1.4,0.6c0.6,0.3,0.3,0,0.9,0.4
					c0.2,0.1,0,0.4-0.2,0.4c-1.1-0.2-2.2-0.3-3.3-0.4c-0.9-0.2-3.7-0.2-4.1,0.9C-29.5-49-29.8-49-29.8-49.2L-29.8-49.2z"/>
			</g>
		</g>
		<g>
			<g>
				<path d="M42.3-24.1c-0.5-3.2,4.6-13.1-0.1-14.2c-0.2,0-0.1-0.3,0-0.3c2.2-0.3,2.6,1.4,2.6,3.3c-0.1,3.6-0.9,7.9-2.2,11.2
					C42.6-24,42.3-23.9,42.3-24.1L42.3-24.1z"/>
			</g>
		</g>
		<g>
			<g>
				<path d="M35.4-37.9c0.7-1.5,2.4-1.6,3.9-1.4c1,0.1,3.6,0.2,4.2,1.2c0.1,0.2-0.1,0.4-0.3,0.3c-0.8-0.5-2.3-0.4-3.2-0.6
					C38.2-38.7,37-38.4,35.4-37.9C35.4-37.8,35.4-37.9,35.4-37.9L35.4-37.9z"/>
			</g>
		</g>
		<g>
			<g>
				<path d="M46.3-43.5c1.7-1.1,3.1-0.7,4.9-0.1c1.3,0.5,2.3-0.2,3.1,1.3c0.1,0.1-0.1,0.3-0.2,0.2c-1-0.6-1.9-0.3-3-0.7
					c-1.6-0.6-2.9-1-4.7-0.5C46.2-43.1,46.1-43.4,46.3-43.5L46.3-43.5z"/>
			</g>
		</g>
		<g>
			<g>
				<path d="M50.6-39.3c-1-0.6-1.8-1.5-2.1-2.7c-0.2-0.8,0.1-2.1,1.1-1.6c0.1,0.1,0.1,0.3,0,0.4C48.7-42.1,49.6-40.3,50.6-39.3
					C50.7-39.4,50.6-39.3,50.6-39.3L50.6-39.3z"/>
			</g>
		</g>
		<g>
			<g>
				<path d="M40-35.2c-0.7-0.3-1.8-1.2-2-2c-0.2-0.8,0.3-1.8,1.1-1.8c0.6-0.1,0.8,0.4,0.4,0.8c-0.2,0.2-0.5,0.3-0.6,0.6
					c-0.1,0.4,0,0.9,0.2,1.2C39.4-36,39.8-35.7,40-35.2C40-35.2,40-35.2,40-35.2L40-35.2z"/>
			</g>
		</g>
		<g>
			<g>
				<path d="M-24.3-45.9c-1.1-0.8-2-2-2.1-3.4c-0.1-1.1,0.9-2.2,1.9-1.3c0.1,0.1,0.1,0.3,0,0.4c-0.4,0.2-0.7,0.4-0.8,0.8
					c-0.1,0.4,0.1,0.8,0.1,1.1C-25-47.4-24.8-46.7-24.3-45.9C-24.2-45.9-24.2-45.9-24.3-45.9L-24.3-45.9z"/>
			</g>
		</g>
		<g>
			<g>
				<path d="M-30.8-42.9c-0.9-0.6-2.3-1.2-2.7-2.2c-0.4-0.8-0.3-2.3,0.9-2.3c0.4,0,0.6,0.6,0.2,0.8C-33.7-45.8-31.4-43.5-30.8-42.9
					C-30.8-42.9-30.8-42.9-30.8-42.9L-30.8-42.9z"/>
			</g>
		</g>
	</g>
</symbol>
<use xlink:href="#Boston_Terrier"  width="118" height="109.8" x="-59" y="-54.9" transform="matrix(-0.9758 0 0 -0.9758 80.2833 83.8146)" style="overflow:visible;"/>
</svg>
