<?xml version="1.0" encoding="utf-8"?>
<!-- Generator: Adobe Illustrator 22.1.0, SVG Export Plug-In . SVG Version: 6.00 Build 0)  -->
<svg version="1.1" id="Card_1" xmlns="http://www.w3.org/2000/svg" xmlns:xlink="http://www.w3.org/1999/xlink" x="0px" y="0px"
	 viewBox="0 0 155.9 155.9" style="enable-background:new 0 0 155.9 155.9;" xml:space="preserve">
<style type="text/css">
	.st0{clip-path:url(#SVGID_2_);}
	.st1{fill:#753922;}
	.st2{fill:#5E2A18;}
	.st3{fill:#FFFFFF;}
	.st4{fill:#E8E6E6;}
	.st5{fill:#1C161A;}
	.st6{fill:#2F2830;}
	.st7{fill:#060607;}
	.st8{fill:#010202;}
</style>
<g id="Colours">
	<defs>
		<path id="SVGID_1_" d="M143.1,51.4c-0.1-0.7-0.4-1.3-0.4-1.9c0-0.7,0.3-1.3,0.3-2c0-0.9-0.7-1.8-1.5-2.3c-0.6-0.4-1.4-0.7-2.1-0.9
			l0-0.1c0-0.7,0.7-1.2,1-1.9c0.4-0.9,0-2.1-0.5-3c-1.1-2.1-2.9-4.2-4.7-5.7c0.1-0.6,0.2-1.1-0.2-1.5c-0.2-0.2-0.4-0.3-0.6-0.4
			c-0.5-0.3-1-0.5-1.6-0.8c-0.7-0.3-2.8-0.9-4.3-0.3c-3-0.9-7.1-0.5-9.6,1.4c-1,0.7-1.6,1.7-1.8,2.4c0,0-1.6,0-4,2.1
			c-4.6,3.9-5.5,10.9-9.9,15c-2.9,2.7-6.9,3.7-10.7,4.7c-8.1,2-16.1,4.1-24.2,6.1c-3.7,0.9-7.5,1.9-11.3,2.2
			c-3.2,0.2-4.4-0.1-7.6,0.6c-1.3,0-2.4-0.8-3.4-1.6s-1.7-1.9-2.7-2.7c-0.6-0.5-1.2-0.9-1.8-1.3c-0.5-0.3-1.1-0.7-1.6-0.5
			c-0.5,0.2-0.8,0.8-0.8,1.3c0,0.6,0.3,1.1,0.6,1.5c0.7,1.1,1.6,2.2,2.3,3.3c0.7,1.1,1.3,2.5,1.1,3.8c-0.3,1-1.5,2.1-2.1,2.8
			c-3.6,3.7-5.3,8.7-6.3,13.7c-0.6,3-1,6.1-2,9c-2,5.8-6.4,10.6-11.2,14.4c-1.2,0.9-2.4,1.9-3.1,3.2c-0.9,1.6-0.9,3.5-0.8,5.4
			c0.1,3.5,0.2,7-1.2,10.2c-0.6,1.4-0.3,2.8-0.5,4.3s0.5,3.4,2,3.7l1.3,0.1c0.4,0,1.6-0.4,1.7-0.5c0.2-0.2,0.3-0.5,0.6-0.5
			c0.2,0,0.4,0.1,0.6,0.2c0.7,0.4,1.5,0.6,2.2,0.4c0.7-0.2,1-0.4,1.5-1.1c0.3,0.3,0.7,0.2,1.1,0c0.3-0.2,0.7-0.4,1.1-0.3
			c0.2,0,0.3,0.1,0.5,0.2c0.3,0.1,0.6,0.1,0.9,0.1c0.5,0,0.9,0,1.4,0c0.3,0,0.5,0.2,0.9-0.1c0.3-0.3,0.6-0.6,0.6-0.6
			c1.1-3-1.1-4.1-4.4-3.4c-0.9-5.6,1.1-12.3,5.7-15.5c1.4-1,3-1.6,4.4-2.4c6.1-3.3,9.9-9.5,14.3-14.8C56.6,91.9,62.9,87,69.7,88
			c1.4,0.2,2.8,0.7,4.2,1.2c8.4,3.2,16.7,8.4,25.6,7.3c0.3,1.6,0,1.9-0.1,3.5c-0.2,6.9-0.4,13.9-0.6,20.8c-0.1,3.9-0.1,4.6-0.9,8.4
			c-0.2,0.8,1,1.6,1.2,4.3c0.1,1.3,0.4,1.9,0.9,2c1,0.5,1,0.5,1.9,0.5c0.9,0,1.1,0.1,1.9,0.3c0.6,0.8,2.1,0.6,2.8,0.6
			c0.5,0,0.9-0.1,1.1-0.3c0.3-0.2,0.6-0.7,0.6-1.3c0,0,1.1-0.6,1.7-0.5c0.3,0.4,1.4,0.3,2,0.2c0.7-0.2,0.8,0,1.3-0.5
			c0.6-1.5,0.9-3-0.7-3.6c-0.6-0.2-2.6-0.8-3.1-1.3c-0.4-0.4-0.7-1.7-0.6-2.7c0.5-7.8,1.3-11.3,2.8-17.2c1.1-4.3,2.4-8,3.5-12.2
			c0.7-2.5,1.3-5.1,2.5-7.4c1-2,2.4-3.7,3.5-5.6c2.3-4,3.4-8.8,3-13.4c-0.2-2.8-1-5.5-1.1-8.3c-0.1-4,1-7.6,2.5-11.3
			c0.7,0.6,0.6,0.9,1.4,1.4c0.8,0.4,1.4,0.4,2.3,0.3c0.3,0.9,0.1,1,0.8,1.8c0.6,0.7,1.5,0.9,2.4,1c0.9,0.1,1.8,0,2.6,0.2
			c0.6,0.1,1.2,0.4,1.7,0.2c0.3-0.1,1.1-0.7,1.3-0.9c1.1,0.1,3.5-0.8,4-1.5C142.9,53.2,143.2,52.3,143.1,51.4z M22.5,130.4
			c-1.5-0.7-1.6-1.8-1.5-2.5c0.5-3.4,1-6.6,2.5-9.6C22.7,122.3,23.5,126.5,22.5,130.4z"/>
	</defs>
	<clipPath id="SVGID_2_">
		<use xlink:href="#SVGID_1_"  style="overflow:visible;"/>
	</clipPath>
	<g id="Base" class="st0">
		<rect x="9.2" y="28.4" class="st1" width="136.9" height="112.6"/>
		<g>
			<path class="st2" d="M46.7,66.1c-0.3,1,0.3,1.6,1.4,1.6c1.1-0.1,2.1-0.7,3.1-1c2.2-0.7,4.6,0.1,6.9,0c2.1-0.1,4.1-0.8,6.1-1.3
				c6.1-1.6,12.6-1.4,18.7-3.4c2.2-0.7,4.4-1.8,6.6-2.5c5-1.6,10.7-1.8,15.1-4.8c1.1-0.7,2-1.6,2.6-2.8c0.5-1,0.8-2.2,1.1-3.3
				c1.4-5.5,4.4-10.5,8.6-14.3c0.6-0.5,1.2-1.1,1.3-1.9c0-1-0.9-1.7-1.9-1.8c-1-0.1-1.9,0.3-2.7,0.7c-3.9,1.9-7.6,4.3-10.9,7.1
				c-2.1,1.8-4.1,3.8-6.3,5.5c-2.2,1.6-4.6,2.9-7,4.2c-3.9,2.1-7.8,4.2-11.9,6c-2.8,1.2-5.6,2.2-8.5,3.3c-3.9,1.4-7.8,2.8-11.6,4.2
				c-1.7,0.6-3.5,1.3-5.3,1.4c0,0,1.3,0.9,1.3,0.9C51.8,64,47.2,64.4,46.7,66.1z"/>
		</g>
		<g>
			<path class="st2" d="M37.9,79.7L37.9,79.7c-0.1,2.4,0.2,4.8-0.3,7.1c-0.8,3.4-3.3,6.1-4.6,9.4c-0.4,1.2-0.7,2.4-1.1,3.6
				c-0.9,2.5-2.6,4.8-4.7,6.4c-1.3,1-2.7,1.7-4.1,2.5c-2.4,1.3-4.8,2.5-7.2,3.8c-0.3,0.2-0.7,0.4-1.1,0.4c-0.7,0-1.4-0.5-1.6-1.2
				c-0.3-0.7-0.3-1.4-0.2-2.1c0.6-7.9,4.4-15.4,9.3-21.6c1-1.2,2-2.4,3-3.6c3.7-4.7,6.5-10.3,11.3-13.8c0.4-0.3,0.8-0.6,1.3-0.7
				c2.1-0.6,3.3,1.9,2.4,3.5C38.9,75.6,37.9,77,37.9,79.7z"/>
		</g>
		<g>
			<path class="st2" d="M41.8,104.5c2.2-2.5,5.3-4,7.3-6.6c1.5-1.9,2.3-4.3,3.8-6.2c1.4-1.8,3.3-3.1,5.4-4
				c6.4-2.9,14.5-1.7,19.9,2.8c0.9,0.8,1.8,1.8,1.7,3c0,1-0.8,1.9-1.5,2.6c-2.9,3.1-5.8,6.1-8.7,9.2c-1.5,1.6-3,3.2-4.8,4.6
				c-2,1.6-4.4,2.9-6.7,4c-3.1,1.5-6.2,2.8-9.4,4c-2.3,0.8-4.6,1.6-7,1.7c-2.4,0.1-5-0.5-6.7-2.2c0,0,0,0,0,0
				c-2.7-2.5-0.4-4,1.4-5.7C38.7,109.6,39.8,106.8,41.8,104.5z"/>
		</g>
		<g>
			<path class="st2" d="M120.1,43.4C120.1,43.4,120.1,43.4,120.1,43.4c0.4,0.1,0.8,0.3,1,0.6c0.3,0.5,0.1,1.1,0.1,1.6
				c-0.1,1.1,0.6,2.2,1.4,2.9s1.8,1.3,2.6,2.1c0.7,0.6,1.2,1.3,1.9,1.8c0.7,0.5,1.6,0.9,2.5,0.7c0.6-0.1,1.1-0.8,0.8-1.2
				c-0.1-0.1-0.2-0.2-0.4-0.3c-1.4-0.7-3.3-0.8-4.1-2.1c-0.3-0.4-0.4-0.8-0.8-1.1c-0.3-0.2-0.6-0.3-0.9-0.4c-1.4-0.8-0.9-3-1.6-4.4
				c-0.7-1.3-2.1-1.6-3.1-2.5c-0.6-0.5-1.1-0.9-1.5-1.7c-0.2-0.5-0.1-2.3-0.4-2.6c-1.5-1.3-1,2.6-0.8,3.1
				C117.3,41.5,118.6,42.8,120.1,43.4z"/>
		</g>
		<g>
			<path class="st2" d="M41.9,63.1C41.9,63.1,41.9,63.1,41.9,63.1c0.6,0.9,1.4,1.7,1.9,2.6c0.5,0.9,0.9,2.1,0.6,3.1
				c-0.4,1.6-1.9,2.6-3.3,3.4s-2.9,2-3,3.7c-0.1-3.4,1.8-6.8,1.1-10.2c-0.3-1.8-1.4-3.4-1.2-5.2C38.4,56.3,41.5,62.5,41.9,63.1z"/>
		</g>
		<path class="st2" d="M103.1,80.1c-4,1.8-5.6,6.3-4.9,10.5c1.7,9.4,1.8,17.5,0.5,27c0,0.1,0.2,0.2,0.2,0.1
			c1.7-5.9,2.3-12.1,2.3-18.2c0-5.8-2.2-14.4,2-19.2C103.4,80.2,103.3,80.1,103.1,80.1z"/>
		<path class="st2" d="M98.7,92.6c-3.4-3.6-10.2-1.3-14.8-3.3c-5.2-2.2-11.1-2.2-16.9-3.1c-0.5-0.1-0.7,0.6-0.2,0.8
			c5.6,1.4,11.2,3.1,16.9,4.2c5,1,10.5,4.7,15.5,4.1C99.7,95.2,99.1,93,98.7,92.6z"/>
		<g>
			<path class="st3" d="M121.6,42.8c-2.4,0.5-4.4,2.5-5,5c-0.3,1.3-0.2,2.8-0.6,4.1c-0.4,1.3-1.5,2.6-2.8,2.5
				c-1.8-0.1-2.6-2.4-2.5-4.2c0-0.3,0-0.7-0.1-1c-0.4-0.7-1.5-0.6-2,0s-0.5,1.5-0.5,2.3c0.5,6.6,5.5,11.9,7.6,18.2
				c2,5.9,1.2,12.8-2.1,18.1c-0.8,1.3-1.7,2.5-2.6,3.8c-5.1,7.9-5.5,17.9-6.8,27.2c-0.2,1.3-0.4,2.7-1.4,3.6
				c-0.9,0.9-2.8,0.9-3.3-0.3c-0.3-0.8,0-1.9-0.7-2.4c-2.2,2.8-4.4,5.8-4.9,9.4c-0.8,5.1,2.3,10.3,6.9,12.6s10.3,1.8,14.8-0.8
				c1.3-0.7,2.5-1.6,3.3-2.9c0.8-1.3,1.2-2.8,1.5-4.3c0.8-4.4,1.1-8.9,0.8-13.4c-0.2-3.3-0.8-6.7-0.8-10c-0.2-8.5,2.6-16.8,6.3-24.4
				c2.2-4.7,4.8-9.6,4.5-14.7c-0.3-4.3-2.5-8-3.7-12c-0.5-1.7-0.5-3.4-1-5.1c-0.6-2.3-2-2.9-3.6-4.4
				C121.4,47.9,121.3,44.6,121.6,42.8z"/>
		</g>
		<g>
			<path class="st3" d="M85.8,91.4L85.8,91.4C83.4,91,81.2,89.9,79,89c-3.8-1.4-7.9-1.9-11.9-1.3c-0.4,0.1-0.8,0.1-1.1,0.5
				c-0.2,0.3-0.2,0.7-0.1,1c0.4,3.2,2.3,6.2,4.8,8.3c2.5,2.1,5.6,3.3,8.7,4.1c5.1,1.2,16.6,2.1,19.3-3.9c1.2-2.7,0.2-3.4-2-4
				c-1.7-0.5-3.1-1.7-4.9-2C89.8,91.3,87.8,91.7,85.8,91.4z"/>
		</g>
		<g>
			<path class="st3" d="M30.7,113.9C30.7,113.9,30.7,113.9,30.7,113.9c-0.7,0.7-1.2,1.6-1.9,2.3c-0.7,0.7-1.6,1.3-2.6,1.2
				c-0.7-0.1-1.5-0.4-2.1,0c-0.3,0.2-0.5,0.6-0.7,1c-0.6,0.8-1.7,1.1-2.8,1.2c-1,0.1-2.1,0-3.1,0.4c-1.2,0.5-2,1.6-2.7,2.7
				c-1.4,2.3-2.5,4.8-3,7.4c-0.6,3-0.3,6.4,1.8,8.6c1.7,1.8,4.3,2.4,6.7,2.8c1.9,0.3,3.8,0.5,5.6,0c1.1-0.3,2.2-1,3.2-1.6
				c4.8-3.1,9.3-7.2,10.7-12.7c0.6-2.5,0.6-5.3,1.8-7.6c1.3-2.6,5.5-8,0.2-9.6c-1.7-0.5-4,0.7-5.5,1.2
				C34.3,111.6,32.2,112.3,30.7,113.9z"/>
		</g>
		<g>
			<path class="st2" d="M140.1,39.4c-0.1-0.5-0.4-0.9-0.7-1.2c-0.1-0.1-0.2-0.2-0.4-0.3c-0.2-0.1-0.4-0.1-0.6-0.1
				c-0.4,0-0.9-0.1-1.3-0.3c-0.3-0.1-0.6-0.2-0.8-0.4c-0.6-0.5-0.8-1.3-0.9-2.1c0-0.2,0-0.5,0.2-0.5c1-0.2-0.6-1.1-0.9-1.4
				c0.3,0.1,0.6,0.2,0.9,0.1c0.5-0.1,0.8-0.8,0.9-1.3c0.1-1.4-0.9-2.8-2.1-3.5c-0.5-0.3-1.1-0.5-1.7-0.6c-2.1-0.8-4.3-1.5-6.6-1.6
				c-2.6-0.1-5.3,0.6-7,2.6c-1.5,1.8-2,4.2-2.2,6.5c-0.1,1.3-0.1,2.6,0.3,3.8c0.3,0.8,1.5,2.8,2.4,2.2c-1-1.7-1.5-3.7-0.6-5.6
				c0.9-2,2.8-3.5,4.9-4c0.8-0.2,2.1-0.5,3.5-0.2c1.3,0.2,2.1,0.8,2.1,0.8c1,0.8,1.8,1.3,1.2,2.7c-0.2,0.5-0.5,1.1-0.4,1.7
				c0.1,0.3,0.2,0.5,0.4,0.8c0.2,0.3,0.4,0.7,0.6,1c0.3,0.4,0.6,0.9,1.2,0.9c0.2,0,0.4-0.1,0.5-0.1c0.4,0,0.7,0.4,0.8,0.8
				c0.1,0.4,0,0.8-0.1,1.2c1.4-0.2,2.9-0.7,4.3-0.5c0.5,0.1,1.3,0.3,1.7-0.1C140.1,40.1,140.2,39.7,140.1,39.4z"/>
		</g>
		<g>
			<path class="st2" d="M127,35.7C127,35.7,127,35.7,127,35.7c0.3,1,0.8,2,1,3.1c0.2,1.1,0.1,2.2-0.5,3.1c-0.2,0.3-0.5,0.5-0.7,0.9
				c-0.2,0.5-0.1,1-0.1,1.5c0,0.2,0,0.4-0.1,0.5c-0.2,0.2-0.6,0.2-0.8,0.1c-0.3-0.1-0.5-0.4-0.8-0.5c-0.4-0.1-0.8,0-1.1,0
				c-0.4,0.1-0.8,0.1-1.1-0.1c-0.3-0.2-0.5-0.7-0.2-1c0.2-0.1,0.4-0.1,0.6-0.1c1.2,0,2.6-0.6,3-1.7c0.2-0.5,0.2-1.1,0.2-1.6
				c0-1.6-0.1-3.2-0.1-4.9c0-0.7,0-2,0.7-2.3C126.8,33.8,126.7,34.7,127,35.7z"/>
		</g>
		<g>
			<path class="st4" d="M122.2,48.6c1.2,1,1.8,2.6,1.4,4.1c-0.2,0.9-0.7,1.6-1.1,2.5c-1.9,4.2-0.3,9-0.5,13.6c0,0.9-0.2,1.8-0.1,2.7
				c0.1,0.9,0.3,1.8,0.4,2.7c0.9,6.4-3.7,12.2-4.5,18.6c1.5,0.2,2.5-1.5,3.4-2.7c1-1.4,2.3-2.5,3.4-3.8c1.5-1.8,2.6-3.8,3.5-5.9
				c2-4.4,3.6-9.5,2.2-14.2c-0.7-2.5-2.2-4.6-3.1-7c-0.9-2.4-0.1-5.6-1.6-7.7c-0.5-0.6-1.1-1.1-1.7-1.6
				C123.4,49.4,122.7,49,122.2,48.6z"/>
		</g>
		<g>
			<path class="st4" d="M104.7,121.9c0.8-7.6,2.4-14.8,4.4-22.2c0.3-1.1,0.6-2.2,1.2-3.1c0.8-1.1,1.8-4.4,2.9-5.1
				c1.7-1.1,6.7-5.3,8.4-6.4c0.1-0.1,0.5,2.3-3.9,7.6c-2.8,3.4-4.8,3-7.2,10.6c-1.2,4-1.3,8.7-1.7,12c-0.4,3-0.3,5.9,0.3,11.1
				C110,133.4,104.3,125.6,104.7,121.9z"/>
		</g>
	</g>
	<g id="Details" class="st0">
		<g>
			<path class="st5" d="M132.6,41.1L132.6,41.1c-0.9,0.3-2,0.6-2.3,1.4c-0.2,0.6,0,1.2-0.1,1.8c-0.2,0.7-0.8,1.2-0.8,1.9
				c0,0.6,0.5,1.1,0.5,1.7c0,0.9-1.1,1.6-1.2,2.5c-0.1,0.6,0.4,1.2,0.7,1.7c0.8,1.3,1.1,2.9,2.1,4c0.6,0.7,1.5,1.1,2.3,1.4
				c1.7,0.8,3.3,1.6,5.1,2.2c1.2,0.4,2.4,0.7,3.7,0.5c2.1-0.2,3.9-1.7,4.9-3.5s1.2-4,1-6.1c-0.2-2.1-0.8-4.1-1.5-6
				c-0.6-1.9-1.5-3.9-3.4-4.6c-0.7-0.2-1.5-0.2-2.1-0.5c-0.5-0.2-0.6-0.2-1.1-0.3c-0.6,0-1.1,0.3-1.6,0.5c-0.8,0.3-1.2,0-1.9-0.2
				C135.4,39.5,134,40.7,132.6,41.1z"/>
		</g>
		<path class="st3" d="M145,46.9c-0.1-0.8-0.3-1.7-0.8-2.4c-0.5-0.7-1.3-1.2-2.2-1.1c-0.2,0-0.4,0.1-0.5,0c0,0,0,1.7,0,1.7
			c-1.1-1.1-2.5-0.5-3.4-1.3c-0.1-0.1-0.1-1.2-0.1-2c0-0.6-0.1-2-0.4-2.5c-0.2-0.3-0.6-1-1.3-0.9c-0.4,0.1-0.8,0.4-0.5,1
			c0.4,0.8,1,2.1,1,2.9c0,0.6-0.1,1.7-0.4,1.6c-0.4-0.1-1.7,2.3-2.2,3.4c-0.3,0.8-0.1,1.8,0.3,2.6c0.4,0.8,0.9,1.5,1.2,2.4
			c0.3,0.8,0.3,1.7,0,2.5c-0.1,0.4-0.3,0.9-0.3,1.4c0,1.1,1.3,1.8,2.4,2c1.3,0.3,2.7,0.3,3.8-0.4c1-0.6,1.6-1.6,2-2.6
			C144.9,52.6,145.3,49.7,145,46.9z"/>
		<g>
			<path class="st6" d="M139.9,45.8C139.9,45.8,139.9,45.8,139.9,45.8c-0.3,0-0.6,0-0.9,0.1c-0.4,0.2-0.7,0.6-0.7,1
				c0,0.5,0.3,0.9,0.6,1.2c0.3,0.3,0.7,0.6,1,1c0.2,0.3,0.2,0.6,0.4,0.8s0.5,0.4,0.8,0.3c0.2-0.1,0.2-0.3,0.3-0.4
				c0.3-0.5,0.7-0.9,1-1.4c0.3-0.5,0.6-1,0.6-1.6C143,44.8,141,45.6,139.9,45.8z"/>
		</g>
		<g>
			<path class="st7" d="M134.7,43.4C134.7,43.4,134.7,43.4,134.7,43.4c0.1,0,0.2-0.1,0.3-0.2c0.1-0.1,0.2-0.2,0.2-0.4
				c0-0.1,0-0.3-0.2-0.4c-0.3-0.1-1.2-0.1-1.3,0.3C133.6,43.2,134.3,43.5,134.7,43.4z"/>
		</g>
		<g>
			<path class="st7" d="M139.9,42.3L139.9,42.3c0.1,0,0.2-0.1,0.3-0.2c0.1-0.1,0.2-0.2,0.2-0.4c0-0.1,0-0.3-0.2-0.4
				c-0.3-0.1-1.2-0.1-1.3,0.3C138.8,42.2,139.6,42.4,139.9,42.3z"/>
		</g>
		<g>
			<path class="st4" d="M141.2,52.7c0.4-0.1,0.8-0.1,1.1-0.4c0.2-0.1,0.4-0.3,0.6-0.4c0.3-0.1,0.7,0.1,0.9,0.4
				c0.2,0.3,0.2,0.7,0.1,1c-0.1,1-0.7,1.8-1.3,2.6c-0.3,0.4-0.7,0.9-1.3,1.1c0,0,0,0,0,0C137.5,58.7,138.7,53.6,141.2,52.7z"/>
		</g>
	</g>
</g>
<g id="Outlines">
	<g>
		<g>
			<path class="st8" d="M47.5,65.2c3.9-0.3,7.7,0,11.5-0.6c3.8-0.6,7.5-1.6,11.2-2.5c8.2-2,16.5-3.6,24.6-5.8
				c5-1.4,9.5-3.5,11.8-8.3c2.9-5.9,5.3-10.2,10.9-13.6c0.4-0.3,0.2-1-0.3-0.8c-3.8,1.2-6.1,3.5-7.9,7.1c-3.5,7-7,12-14.9,14.2
				C87,57,79.5,59,72,61c-3.7,1-7.4,2.1-11.2,2.6c-4.5,0.7-8.8,0.4-13.3,1.3C47.4,65,47.4,65.2,47.5,65.2L47.5,65.2z"/>
		</g>
	</g>
	<path class="st8" d="M126,51c-1.4,3.3-3,6.3-3.2,10c-0.3,4.5,1.6,8.6,1.4,13.1c-0.3,5.7-3,9.5-5.8,14.2c-1.9,3.1-2.8,6.4-3.7,9.9
		c-1.9,7.4-4.3,14.8-5.4,22.4c-0.4,2.7-0.9,6.9,0.4,9.4c0.3,0.6,1.3,0.8,2.3,1c1.2,0.2,2.3,1.2,1.1,3.5c-0.3,0.6,0.3,0.8,0.7,0.2
		c1.8-2.9-0.9-4.3-2-4.6c-2.5-0.6-2.3-3.3-2.1-6.5c0.5-8.2,3.2-15.4,5.5-23.3c1.4-4.5,2.5-8.7,4.9-12.8c1.9-3.3,3.7-6.4,4.4-10.2
		c0.7-3.8,0.2-7.5-0.1-11.3c-0.4-5.1,0-10.1,1.8-15C126.2,51,126,50.9,126,51L126,51z"/>
	<path class="st8" d="M113.1,91.4c-6,6.2-6.8,17.3-8,25.4c-0.6,3.9-2,9.4-1.3,13.3c0.4,2.3,5.6,1.2,4.2,6c-0.2,0.6,0.3,1,0.6,0.5
		c0.8-1.3,0.7-4-0.6-4.9c-0.6-0.4-2.8-1.1-3.3-2.7c-0.4-1.3-0.1-3.5,0-4.8c0.3-5.5,1.3-10.9,2.6-16.3c1.2-5.1,2.6-12.2,6-16.3
		C113.3,91.4,113.2,91.3,113.1,91.4L113.1,91.4z"/>
	<g>
		<g>
			<path class="st8" d="M99.2,84c0.3,2.7-1.2,4.6-1.3,7.1c-0.1,1.2,0.4,2.3,0.7,3.4c1.3,6.2,0,13.4,0,19.7c0,3,0,6-0.1,9
				c-0.1,2.1-1,4.2-0.9,6.2c0.1,1.3,0.9,2.7,1.1,4c0.2,1.2,0,2.1,0.9,3c0.4,0.4,1.1-0.1,0.7-0.6c-1.7-2.4-1.6-7.6-1.3-10.2
				c0.5-5.3,0.6-10.8,0.8-16.2c0.2-4.6,0.9-9.8-0.1-14.3c-0.6-2.7-0.8-4.8-0.3-7.5c0.2-1.3,0.2-2.3,0-3.7
				C99.4,83.9,99.2,83.9,99.2,84L99.2,84z"/>
		</g>
	</g>
	<path class="st8" d="M32.3,133.4c0.4-1.5,0.6-2.8-0.9-3.8c-0.7-0.4-1.9-0.1-2.4-0.4c-1.7-1.2-0.9-4.6-0.4-6.5
		c1.7-6.4,6.4-7.9,11.3-11.4c3.3-2.3,5.8-5.4,8.3-8.5c6.2-7.9,14.5-17.2,25.7-13.3c8.7,3,16,9.5,25.8,7.6c0.5-0.1,0.4-0.9-0.1-0.9
		C89.3,95.7,80.8,91,71.2,88c-7-2.2-13.4,2.1-18,7.1c-2.8,3.1-5.1,6.8-7.9,9.9c-3.4,3.9-7.2,5.7-11.5,8.3
		c-5.5,3.4-7.5,10.1-6.7,16.2c0,0.3,0.2,0.6,0.6,0.6c2-0.6,4.5-0.7,4.2,3.1C31.8,133.5,32.2,133.6,32.3,133.4L32.3,133.4z"/>
	<path class="st8" d="M25.9,133.9c0.1-0.6,0.3-1.2-0.4-2.2c-1.9-3-4.3,0.7-4.1-5.1c0.3-8,5.6-12.8,11.8-16
		C42,106,50.1,98.8,54.3,89.8c0-0.1-0.1-0.2-0.1-0.1c-3.3,6.4-8.4,11.1-14.1,15.3c-4.2,3.1-9.3,5.2-13.2,8.5
		c-3.5,3-5.5,8.4-6.3,12.8c-0.2,1.2-0.8,2.7,0.1,3.8c1.1,1.4,5.3,0.2,4.7,3.7C25.4,134,25.9,134.2,25.9,133.9L25.9,133.9z"/>
	<g>
		<g>
			<path class="st8" d="M17.9,135.3c-3.6-2-0.5-8.5,0-11.2c0.6-3.5-0.6-7.5,0.4-10.9c0.9-2.9,6.1-5.9,8.4-8.2
				c1.8-1.9,3.5-3.9,4.8-6.2c3.1-5.5,2.7-12.1,4.7-17.9c1.3-3.7,3.4-6.4,5.8-9.3c1.3-1.5,1.8-2.3,1.8-4.4c0-0.2-0.2-0.2-0.3,0
				c-0.9,2.9-4.3,5-5.8,7.7c-1.5,2.7-2.3,5.8-3,8.8c-1.1,4.5-1.6,8.9-3.8,13.1c-2,3.8-4.9,7.1-8.1,10c-2,1.9-4.4,3.5-5.3,6.2
				c-1,2.7-0.4,5.8-0.6,8.6c-0.2,3.7-4.1,11.7,0.8,14C18,135.7,18.1,135.4,17.9,135.3L17.9,135.3z"/>
		</g>
	</g>
	<g>
		<g>
			<path class="st8" d="M43.2,68.9c0.4-1.3-0.1-2.5-0.7-3.7c-0.4-0.8-0.9-1.5-1.4-2.3c-0.5-0.8-2.7-3.4,0.2-3.1c0.8,0.1,2,1.5,2.7,2
				c0.6,0.6,1.2,1.2,1.9,1.7c1,0.9,2.2,1.6,3.6,1.6c0.3,0,0.3-0.4,0.1-0.5c-3-0.8-4.1-3.1-6.4-4.9c-1-0.8-2.7-2.2-3.9-1.1
				c-1,0.9-0.5,2.3,0,3.3c0.5,0.8,1.2,1.5,1.7,2.2C42.2,65.7,42.8,67,43.2,68.9C43.2,68.9,43.2,68.9,43.2,68.9L43.2,68.9z"/>
		</g>
	</g>
	<g>
		<g>
			<path class="st8" d="M133.7,32.5c1.5,1.6,3.1,3.1,4.5,4.9c0.9,1.3,1.4,2,1.5,3.6c0.1,1.6-0.3,1.7-0.5,3c-0.1,0.4,0.4,0.5,0.6,0.2
				c0.5-1.5,1.6-1.8,1.3-3.4c-0.2-1.2-0.9-2.3-1.5-3.3C138.1,35.4,136.1,33.4,133.7,32.5C133.7,32.4,133.7,32.5,133.7,32.5
				L133.7,32.5z"/>
		</g>
	</g>
	<g>
		<g>
			<path class="st8" d="M138.8,44.3c2,0.6,3.8,1.5,3.7,3.8c0,0.7-0.2,1.4-0.1,2.1c0.1,1.7,0.4,3.2-1.2,4.3c-0.8,0.5-1.9,0.7-2.9,0.9
				c-0.2,0-0.2,0.3,0,0.4c2.6,0.5,5.3-1.6,5.1-4.3c-0.1-1.1-0.3-2.1-0.2-3.3c0-0.6,0-1.1-0.2-1.6c-0.7-1.6-2.5-2.1-4.1-2.5
				C138.7,43.9,138.6,44.2,138.8,44.3L138.8,44.3z"/>
		</g>
	</g>
	<g>
		<g>
			<path class="st8" d="M121.4,45.5c-0.2,2.4,1,3.9,2.8,5.1c2,1.3,3,3.7,5.7,2.6c0.1,0,0.1-0.2,0-0.3c-1.1-0.2-2.1-0.2-3-1
				c-0.5-0.5-0.8-1-1.3-1.5c-1.9-1.6-3.8-2.1-4-5C121.5,45.4,121.4,45.4,121.4,45.5L121.4,45.5z"/>
		</g>
	</g>
	<g>
		<g>
			<path class="st8" d="M129.1,52c0.4,1.3,0.4,2.8,1.6,3.6c0.9,0.7,2,0.6,3,0.7c1.3,0.1,2.8,0.7,4.1,0c0.7-0.4,3.8-4.9,4.9-3.5
				c0.2,0.2,0.6,0,0.4-0.2c-1.1-1.4-2.1-0.1-3.1,0.8c-0.6,0.6-1.5,1.8-2.2,2.1c-1,0.4-2.1,0.1-3.1,0.1c-1.2-0.1-1.8-0.2-3-0.8
				c-1.4-0.8-1.6-1.6-2.2-3C129.3,51.7,129,51.8,129.1,52L129.1,52z"/>
		</g>
	</g>
	<g>
		<g>
			<path class="st8" d="M140.6,47.2c-0.2,0.1-0.5,0.3-0.7,0.3c-0.2,0-0.3-0.1-0.5,0c-0.1,0-0.1,0.1-0.1,0.1c0.1,0.3,0.4,0.4,0.7,0.4
				c0.4,0.1,0.7,0,1.1-0.3C141.4,47.3,140.9,46.9,140.6,47.2L140.6,47.2z"/>
		</g>
	</g>
	<g>
		<g>
			<path class="st8" d="M141.4,47.3c0.4,0.6,1.4,0.3,1.7-0.3c0.1-0.4-0.4-0.6-0.6-0.4c-0.3,0.3-0.4,0.3-0.8,0.3
				C141.4,46.8,141.3,47.1,141.4,47.3L141.4,47.3z"/>
		</g>
	</g>
	<g>
		<g>
			<path class="st8" d="M132.9,43.3c0.4-0.3,2.3-1.5,2.4-0.4c0,0.1,0.1,0.1,0.2,0c0.1-0.3,0.3-0.5,0.1-0.9c-0.1-0.3-0.4-0.5-0.8-0.5
				c-0.5,0-0.8,0.4-1.1,0.6c-0.3,0.3-0.7,0.5-1,0.8C132.6,43.2,132.8,43.4,132.9,43.3L132.9,43.3z"/>
		</g>
	</g>
	<g>
		<g>
			<path class="st8" d="M138.9,42.1c0.1-0.2,0.2-0.4,0.3-0.5c0.1-0.1,0.7-0.5,0.6,0c0,0.3,0.3,0.4,0.4,0.1c0.2-0.5-0.3-1.1-0.8-1
				c-0.6,0.1-1,0.8-0.8,1.3C138.7,42.2,138.9,42.2,138.9,42.1L138.9,42.1z"/>
		</g>
	</g>
	<g>
		<g>
			<path class="st8" d="M128.3,30.8c1.9-0.4,6.9,0.2,6.7,2.9c0,0.4,0.6,0.4,0.7,0c0.2-1.9-1.2-2.5-2.8-3.1
				C131.4,30.2,129.7,30.1,128.3,30.8C128.2,30.7,128.3,30.8,128.3,30.8L128.3,30.8z"/>
		</g>
	</g>
	<path class="st8" d="M129.3,30.9c-2.9-1.7-7.5-1.1-10.3,0.8c-2.5,1.7-3,5.8-1.4,8.3c1.3,2,5.2,4.7,7.6,3.2
		c3.8-2.4-0.3-7.8,1.9-10.8c-1.4,1.3-1.2,3.4-1.1,5.4c0.1,1.4,0.3,3.1-0.6,4.3c-1.8,2.2-4.4,0.2-6-1.2c-2.6-2.3-2.7-6.8,0.5-8.7
		C122.6,30.5,126.3,30.2,129.3,30.9C129.3,31,129.4,30.9,129.3,30.9L129.3,30.9z"/>
	<g>
		<g>
			<path class="st8" d="M99.1,135.7c0.3,0.8,0.8,1.1,1.7,1c0.8,0,1.4-0.3,2.2-0.1c0.5,0.1,0.8,0.5,1.3,0.6c1.2,0.5,4.1,0.7,4.2-1.2
				c0-0.2-0.3-0.4-0.5-0.3c-0.6,0.4-1.2,0.6-2,0.6c-0.8,0-1.3-0.3-2-0.6c-0.5-0.2-1.2-0.3-1.8-0.3c-0.9,0-1.8,0.5-2.6-0.1
				C99.5,135.2,99,135.4,99.1,135.7L99.1,135.7z"/>
		</g>
	</g>
	<g>
		<g>
			<path class="st8" d="M108.6,135.3c0.3,0.2,0.5,0.2,0.8,0.1c0.6-0.2,0.8,0.1,1.4,0.2c0.9,0.1,2.5,0.1,2.9-0.9
				c0.2-0.4-0.2-0.9-0.6-0.6c-0.7,0.4-1.7,1-2.6,0.7c-0.4-0.1-0.5-0.3-0.9-0.1c-0.3,0.1-0.6,0.3-1,0.5
				C108.6,135.2,108.6,135.3,108.6,135.3L108.6,135.3z"/>
		</g>
	</g>
	<g>
		<g>
			<path class="st8" d="M17,134.8c0.7,0.6,1.5,1.2,2.4,1.1c0.8,0,1.7-0.8,2.5-0.8c0.3,0,0.9,0.4,1.3,0.5c0.6,0.1,1.2,0.1,1.7-0.2
				c0.7-0.3,1.4-0.9,1-1.7c0,0-0.1-0.1-0.1,0c-1,0.5-1.7,1.3-2.8,1c-0.4-0.1-1.1-0.5-1.5-0.4c-0.4,0.1-0.8,0.6-1.1,0.8
				c-1,0.5-2.3,0.3-3.2-0.4C17,134.5,16.8,134.7,17,134.8L17,134.8z"/>
		</g>
	</g>
	<g>
		<g>
			<path class="st8" d="M25.6,134.2c0.4,0.4,0.7,0.2,1.3,0.1c1.2-0.2,2.5,0.2,3.8,0.2c1.7,0,2-1.5,1.4-3c-0.1-0.2-0.3-0.1-0.3,0.1
				c0,0.3,0,0.5,0.1,0.8c-0.4,0.8-0.9,1.2-1.6,1.1c-0.7,0.1-1.3,0-2-0.1c-0.9-0.1-1.7,0.7-2.5,0.4C25.6,133.9,25.5,134.1,25.6,134.2
				L25.6,134.2z"/>
		</g>
	</g>
	<g>
		<g>
			<path class="st8" d="M19.2,131.7c0.7,0.2,1.3,0.5,1.7,1.2c0.3,0.6,0.2,1.2,0.3,1.8c0,0.3,0.5,0.5,0.7,0.2
				c0.5-0.7,0.2-1.8-0.4-2.5C20.9,131.9,20,131.4,19.2,131.7C19.1,131.6,19.1,131.7,19.2,131.7L19.2,131.7z"/>
		</g>
	</g>
	<g>
		<g>
			<path class="st8" d="M23.4,118.3c-1.1,3.8-0.9,8.2-1.1,12.1c0,0.3,0.3,0.3,0.4,0.1c1.4-3.7,0.7-8.2,0.9-12.2
				C23.6,118.2,23.4,118.2,23.4,118.3L23.4,118.3z"/>
		</g>
	</g>
	<g>
		<g>
			<path class="st8" d="M26.8,131.2c0.8,0.7,0.8,1.6,0.7,2.6c-0.1,0.5,0.5,0.6,0.7,0.2c0.5-1.1-0.3-2.4-1.2-3
				C26.9,130.9,26.7,131.1,26.8,131.2L26.8,131.2z"/>
		</g>
	</g>
	<g>
		<g>
			<path class="st8" d="M29.3,130.2c0.3,0.4,0.7,0.7,0.9,1.1c0.3,0.7,0.4,1.6,0.1,2.3c-0.2,0.4,0.3,0.6,0.5,0.3
				C31.6,132.7,30.6,130.5,29.3,130.2C29.3,130.1,29.2,130.1,29.3,130.2L29.3,130.2z"/>
		</g>
	</g>
	<g>
		<g>
			<path class="st8" d="M22.8,131.1c0.3,0.4,0.7,0.7,0.9,1.1c0.3,0.7,0.4,1.6,0.1,2.3c-0.2,0.4,0.3,0.6,0.5,0.3
				C25.2,133.7,24.2,131.5,22.8,131.1C22.9,131.1,22.8,131.1,22.8,131.1L22.8,131.1z"/>
		</g>
	</g>
	<g>
		<g>
			<path class="st8" d="M102.9,132.5c1,1,1.3,2.4,0.8,3.7c-0.1,0.3,0.4,0.6,0.6,0.2C105,134.9,104.5,133.2,102.9,132.5
				C102.9,132.4,102.9,132.5,102.9,132.5L102.9,132.5z"/>
		</g>
	</g>
	<g>
		<g>
			<path class="st8" d="M105.4,132.5c0.4,0.6,0.8,1.2,0.9,2c0.1,0.8-0.3,1.3-0.5,2.1c0,0.2,0.2,0.4,0.4,0.2
				C107.4,135.8,106.8,133.1,105.4,132.5C105.4,132.5,105.4,132.5,105.4,132.5L105.4,132.5z"/>
		</g>
	</g>
	<g>
		<g>
			<path class="st8" d="M109.4,131.5c0.7,0.5,0.8,1.1,0.7,1.9c0,0.5-0.3,1.2-0.1,1.6c0,0,0.1,0.1,0.1,0c0.6-0.2,0.7-1.5,0.6-2.1
				C110.6,132.3,110.2,131.7,109.4,131.5C109.4,131.4,109.4,131.5,109.4,131.5L109.4,131.5z"/>
		</g>
	</g>
	<g>
		<g>
			<path class="st8" d="M111.5,131.3c0.6,0.5,1,0.8,1,1.6c0,0.5-0.1,1.1-0.3,1.5c-0.2,0.4,0.3,0.7,0.6,0.3
				C113.4,133.7,113,131.3,111.5,131.3C111.5,131.2,111.5,131.3,111.5,131.3L111.5,131.3z"/>
		</g>
	</g>
</g>
</svg>
