<?xml version="1.0" encoding="utf-8"?>
<!-- Generator: Adobe Illustrator 22.1.0, SVG Export Plug-In . SVG Version: 6.00 Build 0)  -->
<svg version="1.1" id="Card_1" xmlns="http://www.w3.org/2000/svg" xmlns:xlink="http://www.w3.org/1999/xlink" x="0px" y="0px"
	 viewBox="0 0 155.9 155.9" style="enable-background:new 0 0 155.9 155.9;" xml:space="preserve">
<style type="text/css">
	.st0{clip-path:url(#SVGID_2_);}
	.st1{fill:#151612;}
	.st2{fill:#090A0A;}
	.st3{fill:#A3612A;}
	.st4{fill:#8E5020;}
	.st5{clip-path:url(#SVGID_4_);}
	.st6{fill:#2C130C;}
	.st7{fill:#010202;}
	.st8{fill:#FFFFFF;}
</style>
<g id="Colours">
	<g>
		<defs>
			<path id="SVGID_1_" d="M107.2,56.2c4-1.9,10.1-2.6,14.2-0.8c0.9,0.4,1.8,0.9,2.5,1.6c0.7,0.7,0.9,1.1,0.9,2.1
				c2.1,3.6,4.5,3.2,7.1,4.1c3,1.1,5.4,2.1,8.2,3.7c0.8,0.7,0.8,2,0.3,3l-1,1.4c-1.3,1.4-2.6,2.9-4.2,4s-3.6,1.7-5.5,1.4l-1.2-0.2
				c-1.7,0.7-3.7,0.7-5.5,0.4l-1.1-0.3c-1.1,1.8-1.5,3.9-1.4,6c0,2.1,0.5,4.1,0.8,6.2c0.6,3.9,0.3,8-0.3,11.9s-1.2,7.7-3.8,10.8
				c-0.7,0.9-1.3,1.3-2.5,2.2c-0.8,3-1.4,5-3.3,7.4c-0.2,1.7,0.7,3.5,2.1,4.4c0.7,0.4,1.5,0.7,2.3,1s1.5,0.9,1.7,1.7s-0.2,1.8-1,1.9
				c-0.6,0.5-1,0.4-1.7,0.3c-0.2,0.6-1.7,0.4-2.4,0.3c-0.1,0.3-0.5,0.3-1.1,0.3c-1.2,0.1-2.2-0.5-3-0.9s-1.4-1.1-1.6-2
				c-0.6-0.2-0.7-0.7-0.7-1.3s0.2-1.2,0.3-1.8s0.3-0.9,0-1.4c-0.5-0.1-1-0.5-1.2-0.9c-0.2-0.7,0.2-1,0.3-1.8c0.1-0.7,0-1.8-0.6-2.2
				c-1.5,0.5-2.8,0.9-4,1.1l0.2,1.2c0,1-0.2,1.8-0.4,2.8c-0.4,1.8,0.6,4.2-0.1,5.9c1,0.7,1.6,1.1,2.3,2.2c0.6,1.1,0.7,2.6-0.2,3.6
				c-0.6,0.6-1.4,0.6-2.3,0.3c-1,0.4-2.4,0.5-3.1-0.3c0,0-1.4,1.4-3-0.3c-0.9-0.9-1.2-2.3-1.1-3.6s0.5-2.5,0.7-3.8
				c0.3-2-0.1-4.1-0.4-6.1c-0.3-1.9-0.4-1.7-0.7-3.6c-3.9-0.7-8-2.2-11.3-4.3c-6.1-2.1-12.2-4.4-18.2-6.5l-2.4-0.6
				c-0.5,0.3-0.7,0.8-0.8,1.3c0,0.5,0.1,1.1,0.3,1.6c1,2.8,3.5,5.1,6.4,5.8c1,0.2,2,0.3,2.8,1c1,0.8,0.7,2.1-0.1,3
				c-2.6,1.1-6.4,0.7-8.6-1.2c-1.1-0.9-1.9-2.1-2.7-3.2c-0.9-1.2-2-2.4-3.3-3.2c-0.8-0.5-1.7-0.8-2.3-1.4c-0.9-0.9-1.1-2.3-0.6-3.4
				c0.4-0.9,1.2-1.6,1.9-2.3s1.2-2.2,1.1-3.2c-2.7,0.3-4.3,1.3-6,3.5c-0.9,1.1-1.5,2.5-2.6,3.4c-1,0.8-2.2,1.1-3.3,1.6
				c-1,0.5-2.8,0.5-3.6,1.2c-0.9,0.9-1.6,5.3-2.1,6.4c-1,2.1-0.6,2.6,0.1,3.9c1.4,0.9,2.2,2.3,2.5,3.9c0.1,0.4,0.1,0.7-0.1,1
				c-0.2,0.4-0.6,0.5-1,0.7c-0.6,0.5-1.2,0.5-2,0.4s-1.6-0.4-2.5-0.4c-0.6,0-1.3,0.1-1.9-0.1l-0.4-0.3c-0.6-0.6-0.8-1.6-0.7-2.5
				c0.1-0.9,0.4-1.7,0.7-2.6c1-3.4,0.5-7-0.2-10.4c-0.2-1-0.4-2.1,0.2-2.9c0.5-0.7,1.7-1.6,2.4-2c1.4-0.8,1.9-1.7,2.1-3.3l0.3-2.5
				c0.5-1.7,0.7-3,1.4-4.7c0.6-1.4,1.1-2.8,1.7-4.3c1-2.3,3.7-6.4,3.7-6.4c-4.5,3.3-10.3,4.7-15.8,4s-11.5-5.4-15-9.7
				C26.3,87,30.2,87.6,37.7,84c3.9-1.9,6-3.3,9.9-4.7c6.9-2.5,14.6-1.2,21.8,0.4c7.2,1.7,15.2,4.8,20.5,3.1c3.3-1.1,5.6-1.5,8.6-1.8
				c-0.8-1-1.2-1.5-1.8-2.7c-1.8-1-1.4-2.4-1.2-3.5c0.8-3.4,1.6-6.9,3.5-9.8c0.8-1.2,1.8-2.3,2.9-3.2c0.6-1.8,1.8-3.4,3.3-4.5
				C105.6,56.8,106.4,56.4,107.2,56.2z"/>
		</defs>
		<clipPath id="SVGID_2_">
			<use xlink:href="#SVGID_1_"  style="overflow:visible;"/>
		</clipPath>
		<g id="Base_1_" class="st0">
			<rect x="10.6" y="52" class="st1" width="132.9" height="87"/>
			<g id="Dark_1_">
				<g>
					<path class="st2" d="M37,86.5c-3,1.1-7.5,1.7-10.9,0.9c-2.6-0.7-5-2.1-7.1-3.7s-4.1-3.5-6.1-5.2c-0.6-0.5-1.5-1-2.1-0.5
						c-0.5,0.4-0.4,1.1-0.2,1.7c0.9,2.9,2.9,5.4,5.2,7.4s5,3.5,7.7,4.8c2.1,1,4.3,1.9,6.5,1.7c2-0.2,3.8-1.2,5.5-2.3
						c2.4-1.5,4.7-3.2,6.7-5.3c0.5-0.5,2.1-2.3,3.2-3.8C43.2,83.6,40.3,85.2,37,86.5z"/>
				</g>
				<g>
					<path class="st2" d="M41.4,91.9L41.4,91.9c-1.1,3.5-1.8,7.2-1.5,10.8c0.1,1.1,0.3,2.3-0.3,3.3c-0.7,1.4-2.9,2.8-3.3,2.5
						c-0.4-0.3-0.3-1.8-1-1.6c-0.3,0.1-0.9,0.4-1.2,1.1c-0.8,2-1.2,2.6-1.5,2.7c-0.4,0.2,0.3-2.6,0.9-3.5c0.6-0.8,1.5-1.6,1.7-2.5
						c0.3-1.3,0.8-1.9,0.9-3.2c0.4-3.9,1.5-7.6,3.2-11.1c0.9-1.8,1.9-3.4,3.1-5c0.4-0.6,1-1.7,1.8-2c1.1-0.4,0.1,1-0.1,1.5
						C43.1,87.3,42.2,89.6,41.4,91.9z"/>
				</g>
				<g>
					<path class="st2" d="M49.3,101.6L49.3,101.6c-0.9,0.3-1.9,0.7-2.5,1.5c-0.7,0.9-0.9,2.1-1.5,3.1c-0.8,1.2-2.1,2-3.5,2.5
						s-2.8,0.7-4.2,1.2c-0.6,0.2-1.1,0.5-1.5,1s-0.6,1.2-0.3,1.7c0.2,0.4,0.7,0.7,1.2,0.9c2.1,0.8,4.4,0.8,6.5,0.1
						c1.1-0.3,2.1-0.8,2.8-1.6c0.9-0.9,1.3-2.1,1.7-3.3c0.6-1.5,1.2-3,2.2-4.2s2.2-2.4,3.7-2.9c1.1-0.4,3.4-0.5,4.5-0.6
						C53.9,100.1,50.7,101.1,49.3,101.6z"/>
				</g>
				<g>
					<path class="st2" d="M118.4,91L118.4,91c0.2,1.5,0.8,2.8,1.1,4.2c0.9,3.6,0.3,7.4-1.6,10.6c-1,1.7-2.3,3.1-3.5,4.6
						c-1.4,1.5-2.8,3.1-4.5,4.2s-3.9,1.7-5.9,1.1c-0.9-0.3-2-0.8-2.8-0.1c-0.4,0.4-0.5,1-0.6,1.6c-0.1,1.1-0.1,2.5,0.8,3.1
						c0.7,0.5,1.7,0.3,2.5,0.2c1.6-0.2,3.2,0,4.8,0.4c0.8,0.2,1.6,0.6,2.4,0.5c0.9-0.1,1.6-0.6,2.3-1.2c4.9-4,8.1-9.8,9.3-15.9
						c1.3-6.1,0.6-12.6-1.4-18.6c-0.4-1.3-1.9-2.6-2.4-0.7C118.6,87,118.2,89,118.4,91z"/>
				</g>
				<g>
					<path class="st2" d="M99.5,118.6L99.5,118.6c-0.3,1.1-0.4,2.3-0.5,3.5c-0.1,0.9-0.1,1.9-0.2,2.8c0,0.6,0,1.3,0.4,1.7
						c0.5,0.4,1.2,0.2,1.7-0.2c0.4-0.4,0.6-1,0.8-1.6c0.5-2.3,0.8-4.9,0.6-7.2c-0.1-0.7-0.5-1.3-1.3-1.1
						C100.1,116.6,99.7,117.9,99.5,118.6z"/>
				</g>
				<g>
					<path class="st2" d="M55.9,75.5c10.8-0.9,21.8-0.8,32.6,0.3c1.7,0.2,3.4,0.4,4.8,1.3c1.1,0.7,1.9,1.8,2.9,2.7
						c0.4,0.3,1,0.6,1.5,1c0-0.1,0-0.1,0-0.2c1.5,1.4,3.1,2.8,4.9,3.8s3.9,1.6,5.9,1.3c2-0.3,4-1.6,4.7-3.6c0.5-1.5,0.2-3.2-0.3-4.7
						c-1-2.7-2.7-5.1-4-7.6c-0.6-1.3-1.1-2.6-1.3-4c-0.1-0.7-0.4-3.2,0.5-3.5c-0.1,1.9,0.5,3.6,1.4,5.2c1.1,1.9,2.6,3.5,3.6,5.5
						c1.3,2.5,1.7,5.5,1.1,8.2s-2.3,5.4-4.9,6.2c-1.2,0.4-2.6,0.4-3.9,0.3s-2.5-0.4-3.6-1.1c-0.7-0.4-2.2-1.2-3-1
						c-1.7,0.4-11-0.1-12.6,0.1c-3.8,0.4-3.6-1.6-9.5-2.7c-8.6-1.6-17-3.9-25.6-5C51.8,76,54,75.6,55.9,75.5z"/>
				</g>
				<g>
					<path class="st2" d="M135.7,67.1L135.7,67.1c-0.4,0.6-0.5,1.4-0.3,2.2c0.1,0.4,0.2,0.8,0.4,1.1c0.4,0.6,1,0.9,1.7,1.3
						c0.6,0.3,1.3,0.6,2,0.5s1.2-0.6,1.6-1.2c0.4-0.6,0.8-1.3,0.9-2c0.2-1.4-0.7-2.9-2.3-2.8C138.3,66.2,136.5,65.9,135.7,67.1z"/>
				</g>
				<g>
					<path class="st2" d="M62.6,108.4c1.4,0.7,3.2,0.8,5.5,1.7c3.8,1.8,7.7,3.6,11.5,5.4c2.7,1.3,5.4,2.7,8.1,3.8
						c1.6,0.7,4.4,0.5,4.8-1.3c0.4-1.4-0.6-5.1-0.8-5.7c-0.5-1.2-1.6-0.3-2.8,0c-3.1,0.9-6.3,0.6-9.4-0.3s-7.1-2.3-10.1-3.8
						c-2.9-1.6-4.1-3.5-5.8-4.9c-1.9-1.4-4.2-2.2-6.5-2.3c-0.6,0-2.1-0.3-2.4,0.5c-0.3,0.8,0.8,1.5,1.3,1.9
						C56,103.3,61.1,107.7,62.6,108.4z"/>
				</g>
			</g>
			<g id="Light_1_">
				<g>
					<path class="st3" d="M124.5,68.3c-2.1,0.5-5.7,2.9-8.9,4.4c-0.5,0.2-0.9,0.4-1.2,0.9c-0.2,0.5-0.2,1,0,1.5s0.5,0.9,0.7,1.4
						c0.4,1,0.4,2,0.4,3.1s-0.2,2.1-0.1,3.1s0.6,2.1,1.5,2.6c0.9,0.6,2.2,0.5,2.8-0.4c0.3-0.5,0.4-1.1,0.7-1.6
						c0.7-0.9,2.1-0.9,3.2-0.8c3.1,0.3,6.2,0,9-1.2c1.7-0.7,3.2-1.8,4.5-3.2c1-1.2,2.4-3.1,2.1-4.7c-0.2-1.3-2.2-1.2-3.3-1.6
						c-2-0.7-2.7-2.3-4.5-3.1C129.1,67.7,126.6,67.8,124.5,68.3z"/>
				</g>
				<g>
					<path class="st3" d="M113.6,70.3L113.6,70.3c0,0.3-0.1,0.6-0.2,1c-0.1,0.3-0.1,0.7,0,1c0.1,0.2,0.3,0.5,0.2,0.7
						c-0.1,0.3-0.5,0.3-0.7,0.3c-0.7,0-1.6-0.1-2.1-0.7c-0.6-0.6-0.6-1.6-0.2-2.3c0.3-0.6,1-1.1,1.7-1.3
						C113.1,68.9,113.6,69.6,113.6,70.3z"/>
				</g>
				<g>
					<path class="st3" d="M108.2,105.5c0.5,0.2,0.9,0.7,0.9,1.2s-0.4,1-0.8,1.3c-0.6,0.5-1.2,1-1.9,1.4c-0.5,0.3-1,0.6-1.6,0.6
						c-0.5-0.1-1-0.5-1.1-1.1l0,0C103.1,106.8,106.2,104.7,108.2,105.5z"/>
				</g>
				<g>
					<path class="st3" d="M113.3,120.1c1.1,0.7,2.3,1.3,3.3,2.2c1,0.8,1.9,1.9,2.3,3.2c0.4,1.4,0.3,2.9-0.2,4.3
						c-0.4,1.2-1.1,2.4-2.2,3.2c-1.7,1.2-4,1.2-5.9,0.4s-3.5-2.2-5.1-3.6c-0.5,1.5,0.4,3.1,0.2,4.7c-0.2,1.8-1.8,3.2-3.6,3.7
						c-1.8,0.5-3.6,0.3-5.4,0c-1.2-0.2-2.5-0.5-3.3-1.3s-1.1-2-1.3-3.1c-0.8-4.1-1.6-8.3-0.2-12.2c0.1-0.4,0.4-0.9,0.8-1
						c0.6-0.2,1.1,0.4,1.4,0.9c0.6,1,1.1,2.2,1.9,3.1s2.1,1.5,3.2,1.1c1.3-0.5,1.8-2.1,2.4-3.3c0.8-1.5,2.1-2.7,3.6-3.6l0,0
						c0.9-0.6,2.9-1,4.6-1.6c0.5,0.5,0.8,1.3,1.4,1.8C111.9,119.3,112.6,119.7,113.3,120.1z"/>
				</g>
				<g>
					<path class="st3" d="M38.4,111.2L38.4,111.2c-0.8-0.1-1.7-0.3-2.5,0.1c-1.8,0.9-1.3,3.9-3.1,4.9c-0.3,0.2-0.6,0.2-0.9,0.4
						c-0.5,0.3-0.7,0.9-0.9,1.5c-0.8,2.6-1.1,5.4-1,8.1c0,0.9,0.1,1.9,0.7,2.6c0.6,0.7,1.6,0.9,2.5,1.1c1.7,0.3,3.5,0.4,5.2,0.3
						c1.1,0,2.2-0.1,3.1-0.7c0.8-0.6,1.2-1.5,1.5-2.4c0.5-1.8,0.2-3.7-0.6-5.3c-0.8-1.6-2.2-3-2.3-4.8c0-1.1,0.5-2.2,0.8-3.2
						c0.3-0.9,0.5-2.4-0.3-3.1C40,111.1,39.2,111.3,38.4,111.2z"/>
				</g>
				<g>
					<path class="st3" d="M57.1,104.9L57.1,104.9c-0.5,0.2-0.8,0.7-1.3,1c-1.2,0.7-2.8-0.3-4.1,0.2c-0.7,0.3-1.1,1-1.3,1.7
						s-0.1,1.5,0.1,2.2c0.8,3.4,3.2,6.2,5.8,8.6c1.7,1.6,3.6,3,5.7,4c2.1,1,4.5,1.5,6.8,1c1.9-0.3,3.8-1.4,4.4-3.2
						c0.8-2.1-0.4-4.6-2.2-6c-1.8-1.5-4-2.2-6-3.2c-1.6-0.8-3.2-1.9-4.2-3.5C60.2,106.6,58.8,104.2,57.1,104.9z"/>
				</g>
				<g>
					<path class="st3" d="M120.8,60.2L120.8,60.2c0-0.3,0.1-0.5,0-0.8c0-0.3-0.2-0.5-0.4-0.7c-0.2-0.1-0.6-0.1-0.8,0
						c-0.1,0.1-0.2,0.3-0.2,0.5c0,0.3,0,0.6,0.2,0.9C119.9,60.6,120.7,60.9,120.8,60.2z"/>
				</g>
				<g>
					<path class="st3" d="M124.1,57.6L124.1,57.6c-0.2-0.1-0.5-0.2-0.7,0c-0.1,0.1-0.1,0.3-0.1,0.5c0.1,0.4,0.3,0.7,0.6,0.9
						C125,59.6,124.7,58,124.1,57.6z"/>
				</g>
				<g>
					<path class="st4" d="M126.4,75.7L126.4,75.7c-1.5-0.4-3-0.3-4.4,0.2c-1.5,0.5-2.8,1.4-3.2,2.9c-0.5,1.9,1.4,1.5,1.8,5
						c0.1,1.2,1,2.7,2.1,3c1.2,0.3,2.4-0.5,3.2-1.5c0.8-1,1.3-2.1,2.2-3c0.6-0.5,1.2-0.9,1.8-1.4c0.9-0.7,2.4-2.6,1-3.5
						c-0.4-0.3-1.2-0.4-1.7-0.6C128.2,76.4,127.4,76,126.4,75.7z"/>
				</g>
				<g>
					<path class="st4" d="M57.6,104.8L57.6,104.8c-1.3,0.6-1.7,2.3-1.2,3.6c0.5,1.3,1.6,2.3,2.6,3.2c1.5,1.3,3,2.6,4.8,3.4
						c1.4,0.6,3,0.7,4.5,0.9c0.6,0.1,1.5,0,1.6-0.7c0-0.4-0.2-0.7-0.5-0.9c-1.9-1.9-3.9-3.8-5.9-5.6c-0.9-0.8-1.6-1.5-2.7-2
						C59.7,106.1,58.6,105.7,57.6,104.8z"/>
				</g>
				<g>
					<path class="st4" d="M35.3,111.9L35.3,111.9c-0.8,0.7-1,1.8-1.1,2.8c-0.2,1-0.4,2-0.3,3.1s0.3,2.1,1,2.9
						c0.6,0.7,1.5,1.2,2.3,1.6s1.6,0.8,2.4,1.2c1.1-2.9,1.6-6.1,1.4-9.2C40.8,111.6,37.5,109.9,35.3,111.9z"/>
				</g>
			</g>
		</g>
	</g>
	<g>
		<defs>
			<path id="SVGID_3_" d="M107.2,56.2c4-1.9,10.1-2.6,14.2-0.8c0.9,0.4,1.8,0.9,2.5,1.6c0.7,0.7,0.9,1.1,0.9,2.1
				c2.1,3.6,4.5,3.2,7.1,4.1c3,1.1,5.4,2.1,8.2,3.7c0.8,0.7,0.8,2,0.3,3l-1,1.4c-1.3,1.4-2.6,2.9-4.2,4s-3.6,1.7-5.5,1.4l-1.2-0.2
				c-1.7,0.7-3.7,0.7-5.5,0.4l-1.1-0.3c-1.1,1.8-1.5,3.9-1.4,6c0,2.1,0.5,4.1,0.8,6.2c0.6,3.9,0.3,8-0.3,11.9s-1.2,7.7-3.8,10.8
				c-0.7,0.9-1.3,1.3-2.5,2.2c-0.8,3-1.4,5-3.3,7.4c-0.2,1.7,0.7,3.5,2.1,4.4c0.7,0.4,1.5,0.7,2.3,1s1.5,0.9,1.7,1.7s-0.2,1.8-1,1.9
				c-0.6,0.5-1,0.4-1.7,0.3c-0.2,0.6-1.7,0.4-2.4,0.3c-0.1,0.3-0.5,0.3-1.1,0.3c-1.2,0.1-2.2-0.5-3-0.9s-1.4-1.1-1.6-2
				c-0.6-0.2-0.7-0.7-0.7-1.3s0.2-1.2,0.3-1.8s0.3-0.9,0-1.4c-0.5-0.1-1-0.5-1.2-0.9c-0.2-0.7,0.2-1,0.3-1.8c0.1-0.7,0-1.8-0.6-2.2
				c-1.5,0.5-2.8,0.9-4,1.1l0.2,1.2c0,1-0.2,1.8-0.4,2.8c-0.4,1.8,0.6,4.2-0.1,5.9c1,0.7,1.6,1.1,2.3,2.2c0.6,1.1,0.7,2.6-0.2,3.6
				c-0.6,0.6-1.4,0.6-2.3,0.3c-1,0.4-2.4,0.5-3.1-0.3c0,0-1.4,1.4-3-0.3c-0.9-0.9-1.2-2.3-1.1-3.6s0.5-2.5,0.7-3.8
				c0.3-2-0.1-4.1-0.4-6.1c-0.3-1.9-0.4-1.7-0.7-3.6c-3.9-0.7-8-2.2-11.3-4.3c-6.1-2.1-12.2-4.4-18.2-6.5l-2.4-0.6
				c-0.5,0.3-0.7,0.8-0.8,1.3c0,0.5,0.1,1.1,0.3,1.6c1,2.8,3.5,5.1,6.4,5.8c1,0.2,2,0.3,2.8,1c1,0.8,0.7,2.1-0.1,3
				c-2.6,1.1-6.4,0.7-8.6-1.2c-1.1-0.9-1.9-2.1-2.7-3.2c-0.9-1.2-2-2.4-3.3-3.2c-0.8-0.5-1.7-0.8-2.3-1.4c-0.9-0.9-1.1-2.3-0.6-3.4
				c0.4-0.9,1.2-1.6,1.9-2.3s1.2-2.2,1.1-3.2c-2.7,0.3-4.3,1.3-6,3.5c-0.9,1.1-1.5,2.5-2.6,3.4c-1,0.8-2.2,1.1-3.3,1.6
				c-1,0.5-2.8,0.5-3.6,1.2c-0.9,0.9-1.6,5.3-2.1,6.4c-1,2.1-0.6,2.6,0.1,3.9c1.4,0.9,2.2,2.3,2.5,3.9c0.1,0.4,0.1,0.7-0.1,1
				c-0.2,0.4-0.6,0.5-1,0.7c-0.6,0.5-1.2,0.5-2,0.4s-1.6-0.4-2.5-0.4c-0.6,0-1.3,0.1-1.9-0.1l-0.4-0.3c-0.6-0.6-0.8-1.6-0.7-2.5
				c0.1-0.9,0.4-1.7,0.7-2.6c1-3.4,0.5-7-0.2-10.4c-0.2-1-0.4-2.1,0.2-2.9c0.5-0.7,1.7-1.6,2.4-2c1.4-0.8,1.9-1.7,2.1-3.3l0.3-2.5
				c0.5-1.7,0.7-3,1.4-4.7c0.6-1.4,1.1-2.8,1.7-4.3c1-2.3,3.7-6.4,3.7-6.4c-4.5,3.3-10.3,4.7-15.8,4s-11.5-5.4-15-9.7
				C26.3,87,30.2,87.6,37.7,84c3.9-1.9,6-3.3,9.9-4.7c6.9-2.5,14.6-1.2,21.8,0.4c7.2,1.7,15.2,4.8,20.5,3.1c3.3-1.1,5.6-1.5,8.6-1.8
				c-0.8-1-1.2-1.5-1.8-2.7c-1.8-1-1.4-2.4-1.2-3.5c0.8-3.4,1.6-6.9,3.5-9.8c0.8-1.2,1.8-2.3,2.9-3.2c0.6-1.8,1.8-3.4,3.3-4.5
				C105.6,56.8,106.4,56.4,107.2,56.2z"/>
		</defs>
		<clipPath id="SVGID_4_">
			<use xlink:href="#SVGID_3_"  style="overflow:visible;"/>
		</clipPath>
		<g id="Details_1_" class="st5">
			<path class="st6" d="M117.5,63c0.4-0.6,1.2-1.6,1.9-1.6c0.7,0,1.1,0.5,1.1,1.2c0,0.9-0.6,1.3-1.3,1.3
				C118.5,64,117.7,63.7,117.5,63z"/>
			<circle class="st7" cx="119.3" cy="62.7" r="0.8"/>
			<circle class="st8" cx="118.9" cy="62.5" r="0.4"/>
		</g>
	</g>
</g>
<g id="Outlines">
	<g>
		<g>
			<path class="st7" d="M138.1,72.2c1.1-0.7,2.4-1.4,2.8-2.8c0.3-0.9,0.2-2.3-0.8-2.7c-0.1,0-0.2,0.1-0.2,0.2c0.1,0.4,0.3,0.7,0.3,1
				c0.1,0.6,0,1.2-0.3,1.8C139.6,70.7,138.8,71.4,138.1,72.2C138.1,72.1,138.1,72.2,138.1,72.2L138.1,72.2z"/>
		</g>
	</g>
	<g>
		<g>
			<path class="st7" d="M140.7,67.2c-2.1-1.7-4.7-2.8-7.2-3.8c-3.3-1.3-6.4-1.1-8.5-4.4c-0.1-0.2-0.5,0-0.3,0.2
				c1.4,2.2,3,3.1,5.4,3.9c3.7,1.1,7,2.9,10.6,4.3C140.7,67.4,140.8,67.2,140.7,67.2L140.7,67.2z"/>
		</g>
	</g>
	<g>
		<g>
			<path class="st7" d="M125.1,59.6c-0.2-7.8-13.2-6.1-17.6-3.7c-0.1,0,0,0.1,0,0.1c4.7-1.5,15.7-3.3,17.4,3.7
				C125,59.7,125.1,59.7,125.1,59.6L125.1,59.6z"/>
		</g>
	</g>
	<g>
		<g>
			<path class="st7" d="M110.4,55.7c-3.9-0.5-8.2,2.1-9.1,6.1c0,0.2,0.3,0.4,0.4,0.2C103.6,58.2,106.3,56.2,110.4,55.7
				C110.5,55.7,110.5,55.7,110.4,55.7L110.4,55.7z"/>
		</g>
	</g>
	<g>
		<g>
			<path class="st7" d="M105.4,59.7c-4.5,1.7-7,4.4-8.8,8.8c-1,2.6-3.7,8.2-0.3,9.8c0.1,0,0.2-0.1,0.1-0.1c-2.2-2.5,0.1-8.4,1.4-11
				C99.4,63.9,102.1,61.2,105.4,59.7C105.4,59.7,105.4,59.6,105.4,59.7L105.4,59.7z"/>
		</g>
	</g>
	<g>
		<g>
			<path class="st7" d="M108.5,60.5c-3.4,4.7,0.6,11.1,3.7,14.9h0.1c-0.2-1.8-1.3-3.3-2.2-4.8C108.2,67.4,107,64.2,108.5,60.5
				C108.6,60.5,108.5,60.4,108.5,60.5L108.5,60.5z"/>
		</g>
	</g>
	<g>
		<g>
			<path class="st7" d="M110,71.8c2.4,4,6,12.5-1.5,13.5c-5.9,0.8-9.3-3.5-12.4-7.6c-0.1-0.1-0.3,0-0.2,0.1c2.1,5.6,9,10.7,15,7.8
				c5.6-2.7,2.3-10.5-0.7-14C110.1,71.4,109.9,71.6,110,71.8L110,71.8z"/>
		</g>
	</g>
	<g>
		<g>
			<path class="st7" d="M139.2,71.2c-3.3,3.1-6.5,6-11.4,4.7c-2-0.5-3.6-1.4-5.7-0.5c-0.2,0.1-0.2,0.4,0,0.4c3.4-0.4,6.3,2,9.7,1.3
				C135.2,76.5,137.4,73.8,139.2,71.2C139.4,71.3,139.3,71.2,139.2,71.2L139.2,71.2z"/>
		</g>
	</g>
	<g>
		<g>
			<path class="st7" d="M128.4,76.5c-1.6,0.3-3.1,0.5-4.7,0.3c-1.2-0.2-2.4-0.6-3.7-0.7c-1.1-0.1-2.1,0.1-3,0.8
				c-0.1,0.1,0,0.3,0.2,0.2c2.2-1,4.2,0.1,6.5,0.3C125.3,77.6,126.9,77.3,128.4,76.5L128.4,76.5L128.4,76.5z"/>
		</g>
	</g>
	<g>
		<g>
			<path class="st7" d="M121.7,76.6c-1.8,3.1-1.8,6.3-1.4,9.9c0.6,5.4,0.8,10.2-0.1,15.6c-0.8,5.1-2.6,9-7,12.1
				c-3.8,2.6-8,4.5-12.5,5.5c-0.1,0-0.1,0.2,0,0.2c7.2-1.1,16.1-4.6,19.1-11.8c1.5-3.6,1.8-7.8,2.1-11.6c0.5-6.4-2.5-13.7,0.1-19.7
				C121.9,76.5,121.8,76.4,121.7,76.6L121.7,76.6z"/>
		</g>
	</g>
	<g>
		<g>
			<path class="st7" d="M114.4,113.5c-0.9,1.4-1.2,3.2-1.9,4.7c-0.6,1.4-1.6,2.5-2.2,3.9c0,0.1,0.1,0.1,0.2,0.1
				c1.3-1,2.1-2.8,2.8-4.2c0.7-1.3,1.6-2.8,1.4-4.3C114.8,113.4,114.6,113.3,114.4,113.5L114.4,113.5z"/>
		</g>
	</g>
	<g>
		<g>
			<path class="st7" d="M102.9,113.6c-2,1.2-2.7,3-2.5,5.3c0.1,1.5,0.3,2.3,0,3.8c-0.1,0.6-0.4,1.2-0.4,1.9
				c-0.2,1.7,0.3,3.4,0.3,5.1c0,0.2,0.2,0.2,0.3,0.1c1.2-2.1,0.1-4.5,0.6-6.8c0.6-3.2-0.3-6.3,1.9-9.1
				C103,113.7,103,113.5,102.9,113.6L102.9,113.6z"/>
		</g>
	</g>
	<g>
		<g>
			<path class="st7" d="M99.9,129.1c1.5,1.8,3.8,3.5,2.5,6.1c0,0.1,0.1,0.2,0.1,0.1c1-0.8,1.1-2.3,0.6-3.5
				C102.7,130.6,101.2,129.6,99.9,129.1C99.9,129,99.9,129.1,99.9,129.1L99.9,129.1z"/>
		</g>
	</g>
	<g>
		<g>
			<path class="st7" d="M89.8,105.9c1.6,5.6,3.5,12.8,3.5,18.6c0,3.7-2,7.3,0.4,10.6c0.2,0.3,0.7,0,0.5-0.3c-1.5-2.2-0.3-5.6-0.2-8
				c0-2.7-0.6-5.5-0.9-8.2c-0.5-4.6-1.1-8.7-3.2-12.8C89.9,105.8,89.8,105.8,89.8,105.9L89.8,105.9z"/>
		</g>
	</g>
	<g>
		<g>
			<path class="st7" d="M104.5,118.9c1,1.2-0.5,2.9,0.4,4.1h0.1c0.3-0.8,0.6-1.9,0.6-2.8c0-0.7-0.3-1.2-0.9-1.6
				C104.5,118.6,104.4,118.8,104.5,118.9L104.5,118.9z"/>
		</g>
	</g>
	<g>
		<g>
			<path class="st7" d="M106.2,123.5c-0.1-0.3-0.4-0.4-0.6-0.6s-0.4-0.3-0.6-0.4c0,0-0.1,0-0.1,0.1
				C104.7,123.1,105.6,124,106.2,123.5L106.2,123.5L106.2,123.5z"/>
		</g>
	</g>
	<g>
		<g>
			<path class="st7" d="M111.2,121c-0.4,1.4,0,2.8,1,3.9c1.2,1.3,7,2.5,4.1,5.1c-0.1,0.1,0,0.3,0.1,0.3c1.7,0.1,1.7-2.1,0.9-3.1
				c-0.8-0.9-2.1-1.1-3.1-1.7c-1.7-1-2.4-2.5-2.7-4.4C111.4,120.8,111.2,120.9,111.2,121L111.2,121z"/>
		</g>
	</g>
	<g>
		<g>
			<path class="st7" d="M112.2,130.7c1-0.3,0.9-2.3,0.5-3c-0.6-1.2-1.9-1.7-3.1-1.6c-0.1,0-0.2,0.2,0,0.2c1,0.2,2.2,0.9,2.6,2
				c0.1,0.5,0.1,1,0.1,1.6C112.1,130.2,111.9,130.4,112.2,130.7C112.1,130.7,112.2,130.7,112.2,130.7L112.2,130.7z"/>
		</g>
	</g>
	<g>
		<g>
			<path class="st7" d="M114.6,130.5c0.8-0.7,0.8-2.2,0.4-3.1c-0.6-1.3-1.5-1.4-2.8-1.5c-0.1,0-0.1,0.1,0,0.1
				c0.8,0.2,1.7,0.8,2.1,1.6C114.8,128.6,114.7,129.4,114.6,130.5C114.5,130.5,114.5,130.5,114.6,130.5L114.6,130.5z"/>
		</g>
	</g>
	<g>
		<g>
			<path class="st7" d="M99.2,130.6c0.5,0.7,0.7,1.4,0.9,2.3c0.1,0.4,0.4,2.3-0.2,2.5c-0.2,0.1-0.2,0.3-0.1,0.4
				c1,0.6,1.4-0.7,1.3-1.5c-0.1-1.4-0.9-2.8-1.8-3.9C99.3,130.4,99.2,130.5,99.2,130.6L99.2,130.6z"/>
		</g>
	</g>
	<g>
		<g>
			<path class="st7" d="M102.6,134.8c-0.3,0.3-0.7,0.5-1.2,0.6c-0.4,0.1-0.8,0-1.2,0c-0.2,0-0.3,0.3-0.2,0.4c0.9,0.7,2.3,0,2.7-0.9
				C102.9,134.8,102.7,134.7,102.6,134.8L102.6,134.8z"/>
		</g>
	</g>
	<g>
		<g>
			<path class="st7" d="M96.5,130.8c0.4,1.3,0.8,2.9,0.2,4.3c-0.1,0.2-0.1,0.4,0.1,0.5l0.1,0.1c0.2,0.1,0.5,0.1,0.6-0.2
				C98.2,134.2,97.4,131.9,96.5,130.8C96.5,130.7,96.5,130.8,96.5,130.8L96.5,130.8z"/>
		</g>
	</g>
	<g>
		<g>
			<path class="st7" d="M100.2,135.5c-0.4-0.2-1.1,0-1.5,0c-0.3,0-0.6-0.1-0.9-0.2c-0.3-0.1-0.5-0.2-0.7-0.2c-0.1,0-0.2,0.1-0.2,0.2
				c0.1,0.6,0.9,0.8,1.5,0.9c0.5,0,1.6,0,1.9-0.6C100.3,135.6,100.3,135.6,100.2,135.5L100.2,135.5z"/>
		</g>
	</g>
	<g>
		<g>
			<path class="st7" d="M93.7,134.7c0.4,0.9,1.4,1.5,2.5,1.3c0.4-0.1,0.9-0.3,1.1-0.7c0-0.1-0.1-0.2-0.2-0.2
				c-0.3,0.1-0.5,0.3-0.8,0.3c-0.9,0.2-1.6-0.4-2.4-0.9C93.7,134.5,93.6,134.6,93.7,134.7L93.7,134.7z"/>
		</g>
	</g>
	<g>
		<g>
			<path class="st7" d="M106,123.1c0,0.7,0,1.4-0.2,2.1c-0.1,0.5-0.3,1.1-0.2,1.6c0.1,0.7,0.4,1.4,1.1,1.5c0.1,0,0.3-0.2,0.2-0.3
				c-1.1-1-0.6-2.1-0.4-3.4C106.5,124.1,106.5,123.5,106,123.1C106.1,123,106,123.1,106,123.1L106,123.1z"/>
		</g>
	</g>
	<g>
		<g>
			<path class="st7" d="M106.4,128c0.2,1.4,1.2,2.2,2.5,2.7c0.9,0.4,2.9,0.9,3.4-0.3c0-0.1,0-0.1-0.1-0.1c-0.8,0.5-2.4,0-3.3-0.3
				c-1-0.3-1.9-1-2.3-2C106.6,127.8,106.4,127.9,106.4,128L106.4,128z"/>
		</g>
	</g>
	<g>
		<g>
			<path class="st7" d="M114.7,129.8c-0.8,1-2.1,0.5-3.2,0.7c-0.3,0.1-0.1,0.6,0.2,0.4c0.5-0.4,1.4,0.1,2,0s1.1-0.5,1.2-1.1
				C114.8,129.8,114.8,129.8,114.7,129.8L114.7,129.8z"/>
		</g>
	</g>
	<g>
		<g>
			<path class="st7" d="M116.9,129.6c-0.3-0.1-0.6,0.1-0.9,0.2c-0.2,0.1-0.4,0.1-0.7,0.2c-0.3,0-0.5,0.2-0.8,0.2
				c-0.1,0-0.2,0.2,0,0.2c0.3,0.1,0.5,0.2,0.9,0.2c0.3,0,0.6-0.1,0.9-0.2C116.4,130.3,117.4,129.8,116.9,129.6L116.9,129.6z"/>
		</g>
	</g>
	<g>
		<g>
			<path class="st7" d="M98.2,80.6c-3.9-0.6-9,1.3-12,3.6c-0.1,0.1-0.1,0.4,0.1,0.3c2-0.6,3.9-1.3,5.9-1.9s4.1-0.7,6-1.5
				C98.5,81.2,98.6,80.7,98.2,80.6L98.2,80.6z"/>
		</g>
	</g>
	<g>
		<g>
			<path class="st7" d="M43.1,84.9c-5.6,2.3-10.7,5.1-17,3.6c-5.5-1.4-9.6-5.3-13.6-9.2c-0.1-0.1-0.2,0-0.1,0.1
				c6.3,9.4,21.9,14.9,31,5.8C43.5,85.1,43.3,84.8,43.1,84.9L43.1,84.9z"/>
		</g>
	</g>
	<g>
		<g>
			<path class="st7" d="M90.7,82.3c-7.7,1.3-15.7-2-23.2-3.5c-6.7-1.3-13.8-2-20.3,0.1c-5.4,1.7-10.2,5.7-15.9,6.6
				c-6.5,1-13.1-3.3-18.4-6.4c-0.4-0.2-0.7,0.4-0.3,0.6c4.9,2.7,10.6,6.5,16.4,6.8c4.8,0.3,8.9-2.2,12.9-4.4
				c9.6-5.1,18.2-4.1,28.4-1.6c6.4,1.6,14,4.4,20.5,2.2C91.2,82.6,91,82.2,90.7,82.3L90.7,82.3z"/>
		</g>
	</g>
	<g>
		<g>
			<path class="st7" d="M45.7,81.6c-6.6,6.7-9.9,15.5-10.2,24.8c0,0.1,0.2,0.2,0.3,0c0.8-4.2,1.3-8.1,3-12c2-4.6,4.1-8.7,7.1-12.7
				C46,81.7,45.8,81.5,45.7,81.6L45.7,81.6z"/>
		</g>
	</g>
	<g>
		<g>
			<path class="st7" d="M36,102.9c-1,3.3-3.5,2.7-4.7,5.1c-0.5,1-0.2,2.1-0.2,3.2c0.1,2,0.6,4,0.6,6c0,1.9-0.5,3.7-0.8,5.5
				c-0.2,1.8-0.5,2.3,0.6,3.9c0.1,0.1,0.2,0,0.2-0.1c-1.1-2.7,0.5-5.7,0.7-8.4c0.2-2.6-0.8-4.6-0.8-7.1c0-3.9,4.1-4.5,4.6-8.2
				C36.2,102.8,36,102.8,36,102.9L36,102.9z"/>
		</g>
	</g>
	<g>
		<g>
			<path class="st7" d="M81.2,113.6c-5-2.1-10.2-3.9-15.4-5.7c-2.7-1-5.4-1.7-7.7-3.5c-1.5-1.2-2.6-2.6-4.3-3.4
				c-0.4-0.2-0.8,0.4-0.4,0.7c1.8,1,3,2.8,4.8,3.9c1.7,1.2,3.7,1.8,5.6,2.4c5.7,2,11.5,4,17.3,5.7C81.2,113.7,81.2,113.6,81.2,113.6
				L81.2,113.6z"/>
		</g>
	</g>
	<g>
		<g>
			<path class="st7" d="M92.6,117.6c-2.6-1-5.3-1.2-7.9-2.4c-2.5-1.2-4.9-2.6-7-4.3c-0.1,0-0.2,0-0.1,0.1c2.3,1.9,4.6,3.6,7.3,4.8
				c2.3,1.1,5,2.4,7.5,2.4C92.9,118.3,92.9,117.7,92.6,117.6L92.6,117.6z"/>
		</g>
	</g>
	<g>
		<g>
			<path class="st7" d="M63.2,103c-3.2-2.2-6.8-3.2-10.6-1.7c-4.7,1.8-6.4,7-11.4,8.5c-3,0.9-3.3,1.7-4.1,4.8
				c-0.7,2.4-2.3,5-0.3,7.1c0.1,0.1,0.3,0,0.3-0.1c-0.3-2.3,0.4-4.5,1-6.7c0.8-3.1,3-4,5.7-5.3c2-0.9,2.8-1.7,4.2-3.4
				C52,101.1,57.2,100,63.2,103C63.2,103,63.3,103,63.2,103L63.2,103z"/>
		</g>
	</g>
	<g>
		<g>
			<path class="st7" d="M36.6,121.3c1.1,1.2,3.8,4.1,1.7,5.7v0.1c1.5-0.1,1.6-1.5,1.3-2.7c-0.4-1.4-1.5-2.7-2.9-3.3
				C36.6,121.1,36.5,121.3,36.6,121.3L36.6,121.3z"/>
		</g>
	</g>
	<g>
		<g>
			<path class="st7" d="M38.6,126.6c-1.4,1-2.6,0.5-4.1,0.2c-1.1-0.2-3.3,0.1-3.4-1.4c0,0,0,0-0.1,0c-0.6,1.8,1.3,1.9,2.6,1.9
				C35.1,127.4,37.7,128.5,38.6,126.6L38.6,126.6L38.6,126.6z"/>
		</g>
	</g>
	<g>
		<g>
			<path class="st7" d="M54.3,101.8c-0.6,2.5-3.8,4-3.2,6.8c0.5,2.4,3.7,3.6,5.2,5.2c1.9,1.9,3.1,4.2,5.6,5.4
				c2.3,1.1,4.9,1.1,7.3,0.2c0.3-0.1,0.2-0.6-0.1-0.5c-2.5,0.7-5.5,0.8-7.7-0.6c-2.3-1.5-3.1-4.3-5.1-6.1c-2.3-2-6.4-2-2.9-7.1
				c0.9-1.3,1.5-1.5,1.4-3.3C54.7,101.6,54.3,101.5,54.3,101.8L54.3,101.8z"/>
		</g>
	</g>
	<g>
		<g>
			<path class="st7" d="M60.3,106.1c-2.1,1.5-0.4,4.5,0.9,6c0.8,1,1.8,1.9,3,2.5c1.8,1,6,1.2,4.8,4.5c-0.1,0.1,0.1,0.2,0.2,0.1
				c1.4-1.3,1.4-2.9-0.4-3.9c-1.3-0.7-2.9-0.6-4.3-1.3c-1.9-1-5.8-4.8-3.6-7.3C61.1,106.4,60.7,105.8,60.3,106.1L60.3,106.1z"/>
		</g>
	</g>
	<g>
		<g>
			<path class="st7" d="M34.2,123.4c0.2,1.2,0.2,2.3,0.1,3.5c0,0.3,0.4,0.5,0.5,0.1C35.1,125.9,35,124.5,34.2,123.4
				C34.3,123.4,34.2,123.4,34.2,123.4L34.2,123.4z"/>
		</g>
	</g>
	<g>
		<g>
			<path class="st7" d="M36.9,123.2c0.3,0.7,0.6,1.3,0.7,2c0.1,0.6,0.1,1.3,0.2,1.9c0,0.3,0.4,0.2,0.5,0c0.5-1.3-0.3-3.1-1.3-4
				C37,123,36.9,123.1,36.9,123.2L36.9,123.2z"/>
		</g>
	</g>
	<g>
		<g>
			<path class="st7" d="M63.5,116.1c0.4,0.2,0.8,0.3,1.1,0.6c0.3,0.3,0.6,0.6,0.8,1c0.4,0.7,0.3,1.4,0.6,2.1c0.1,0.2,0.3,0.1,0.3,0
				c0.6-0.7,0.1-2-0.5-2.6C65.4,116.5,64.3,115.9,63.5,116.1C63.5,116,63.5,116,63.5,116.1L63.5,116.1z"/>
		</g>
	</g>
	<g>
		<g>
			<path class="st7" d="M66.7,116c0.4,0.4,1,0.6,1.3,1.1c0.2,0.2,0.3,0.6,0.5,0.8c0.2,0.4,0.2,0.7,0.3,1.2c0,0.3,0.4,0.4,0.6,0.1
				C70.3,118,67.8,116.1,66.7,116C66.7,115.9,66.7,116,66.7,116L66.7,116z"/>
		</g>
	</g>
	<g>
		<g>
			<path class="st7" d="M139.5,69.5c-0.5,0.2-0.8,0.5-1.2,0.9c-0.8,0.6-1.6,0.1-2.1-0.5h-0.1c0.2,0.7,1,1.3,1.7,1.4
				C138.7,71.3,139.3,70.4,139.5,69.5L139.5,69.5L139.5,69.5z"/>
		</g>
	</g>
	<g>
		<g>
			<path class="st7" d="M121.1,62.7c-0.7-0.4-0.6-1.8-1.8-1.5c-1,0.2-1.2,1.5-2.1,1.8v0.1c0.6-0.1,1-0.3,1.5-0.7
				c0.1-0.1,0.2-0.2,0.4-0.3c0.3-0.1,0.6,0,0.9,0.1C120.4,62.3,120.8,62.6,121.1,62.7C121.1,62.8,121.2,62.8,121.1,62.7L121.1,62.7z
				"/>
		</g>
	</g>
	<g>
		<g>
			<path class="st7" d="M120.6,62.4c0.1,0.8-0.7,1.3-1.4,1.4c-0.6,0-1.3-0.3-1.7-0.8h-0.1c0.3,0.8,1.1,1.3,2,1.1
				c0.3,0,0.7-0.2,0.9-0.4C120.7,63.4,120.6,62.9,120.6,62.4C120.7,62.4,120.6,62.4,120.6,62.4L120.6,62.4z"/>
		</g>
	</g>
	<g>
		<g>
			<path class="st7" d="M121.4,76.5c-0.8-0.3-1.6-0.3-2.3,0.4c-0.3,0.3-0.4,0.8-0.5,1.2c-0.1,0.5-0.3,1-0.2,1.5c0,0.1,0.1,0.1,0.1,0
				c0.2-0.4,0.2-0.7,0.4-1.1c0.2-0.3,0.4-0.6,0.6-0.9c0.5-0.6,0.9-1,1.8-0.8C121.5,76.9,121.6,76.6,121.4,76.5L121.4,76.5z"/>
		</g>
	</g>
</g>
</svg>
