<?xml version="1.0" encoding="utf-8"?>
<!-- Generator: Adobe Illustrator 22.1.0, SVG Export Plug-In . SVG Version: 6.00 Build 0)  -->
<svg version="1.1" id="Card_1" xmlns="http://www.w3.org/2000/svg" xmlns:xlink="http://www.w3.org/1999/xlink" x="0px" y="0px"
	 viewBox="0 0 155.9 155.9" style="enable-background:new 0 0 155.9 155.9;" xml:space="preserve">
<style type="text/css">
	.st0{clip-path:url(#SVGID_2_);}
	.st1{fill:#FFFFFF;}
	.st2{fill:#CAC9C9;}
	.st3{clip-path:url(#SVGID_4_);}
	.st4{fill:#3A1822;}
	.st5{fill:#7F2B49;}
	.st6{fill:#242025;}
	.st7{fill:#1C1019;}
	.st8{fill:#010202;}
</style>
<g id="Colours">
	<g>
		<defs>
			<path id="SVGID_1_" d="M7.7,102.3c6.7-2.8,13.4-8.3,19.4-12.5c2.5-1.8,5-3.6,7.2-5.8c1.7-1.8,3.2-3.8,4.8-5.6
				c3.4-3.8,7.6-6.9,12.2-8.9c8-3.6,17-4.3,25.7-4.6c7.5-0.3,15.3-0.5,22.1-3.9c0.5-0.3,1-0.5,1.6-0.6c0.9-0.2,1.8,0.1,2.4,0.8
				c0.2-1.1,0.7-1.8,2.4-1.5c0-1.1,0.3-1.9,1.4-1.9c0.3-0.9,0.8-2.2,1-2.7c0.6-1.4,1.1-2.7,1.4-4.2c0.7-2.9,1.5-6.1,1.9-9
				c-1.7-1.8-1.9-3.2-0.6-5.5c1-1.8,2.3-5.1,4.5-4.8v-0.2c0.7-0.8,1.5-1.8,2.3-2.2c0.9-0.6,2-0.9,3-1.4c0.9-0.4,2.2-0.3,3.1-0.4
				c1,0,1.9,0.2,2.9,0.1c0.7-0.1,3-0.8,3.1,0.4V28c0.7,0.8,2.2,0.7,2.9,0.6c1.3-0.2,2.7-0.5,4-0.9s3-0.8,4.3-0.3
				c1.4,0.5,1.4,1.8,1.4,3.1c0,0.6-0.4,3.2-0.6,3.8l-0.2,0.4c-0.4,0.7-0.9,1.4-1.4,2v0.1c0.6,0.2,0.8,1.5,0.8,1.8v0.1
				c0.5,0.1,0.9,0.3,1,0.7c0.3,1.6-0.7,3.2-2.1,3.8c-1.2,0.5-2.6,0.4-3.9,0.9c-1.5,0.6-2.5,2.1-4,2.7c-0.4,0.1-0.7,0.2-1.1,0.3
				c-2.2,2-3.4,4.8-3.4,7.7c0,1.8,0.4,3.6,0.4,5.4c-0.1,1.7-0.6,3.3-0.6,4.9c-0.1,3.2,1.5,6.2,1.9,9.4c0.4,4-1.2,7.9-3.1,11.5
				s-4.1,7-5,10.9c-0.5,1.9-0.6,3.9-0.7,5.8c-0.4,8.5,0.2,17,2.7,25.1c0.2,0.6,0.4,1.2,0.8,1.6c0.9,0.9,2.3,0.8,3.6,1.2
				c2,0.7,3.2,2.8,2.8,4.9l0,0c-0.3,0.2-0.8,0.2-1.2,0.2c-0.4,0.1-0.7,0.2-1.2,0.3c-0.9,0.1-1.7-0.3-2.5-0.3
				c-0.5,0.4-1.7,0.3-2.3,0.2c-0.6-0.1-0.9-0.4-1.5-0.4c-0.9-0.4-1.4-2.5-1.6-3.5c-0.6,0.4-2.3,0.5-2.8-0.1h-0.1
				c-0.1,0.3-0.3,0.6-0.5,0.6c-0.7,0.1-1.5-0.4-1.8-1c-0.4-0.6-0.5-1.4-0.7-2.1c-0.4-1.9-1-3.8-1.8-5.6c-0.1-0.3-0.3-0.7-0.6-0.9
				c-0.2-0.1-0.5-0.2-0.7-0.3c-1-0.5-1.1-2-1-3.1c0.2-6.6-0.4-13.3-2-19.7c-0.2-1-0.5-2.2-0.7-3.2c-8.7,0.3-17.2-3.1-25.5-5.8
				c-4.6-1.6-9.8-2.9-14.3-1c-1,0.8-1.5,2.1-2.2,3.2c-0.5,6.1-1.2,11.8-5.3,16.3c-3.8,4.2-9.8,6.2-14,9.8l0,0c-1,2.8-1.1,6-0.1,8.8
				c0.1,0.4,0.3,0.8,0.7,1.1c0.7,0.6,1.9,0.2,2.7,0.5c0.9,0.4,1.2,1.5,1.4,2.5c0.1,0.5,0.2,1,0.1,1.5l0,0c-0.2,0.5-0.9,0.2-1.3,0.1
				l-0.4-0.1c-1.3,0.6-3.3,0.3-4.3,0.2H44c-1.1,0.5-0.9,0.6-2.2-0.5c-0.6-0.5-0.6-1.5-0.7-2.3c-0.1-1-0.2-2-0.2-3v-0.1
				c-0.3,1.4-0.5,2.7-0.5,4.1c0,1,0.1,2.1,0.7,2.9c0.6,0.8,1.6,0.9,2.7,0.9c0.8,0.1,1.4,0.8,1.9,1.4c0.3,0.4,0.6,0.8,0.8,1.2
				c0.3,0.8,0.1,1.4-0.4,2c-1,1.3-2.2-0.1-3.3,0.2c-0.7,0.2-1,0.5-1.8,0.4c-0.6,0-1.1-0.3-1.6-0.3c-2.4,0.3-3.2-2.5-3.3-4.5
				c-0.1-2.1,0.3-4.1,0.3-6.2c0-1.7-0.2-3.4-0.7-5c-0.7-2.2-1.8-4.7-0.6-6.7c0.3-0.5,0.8-1,1.2-1.4c1.8-1.6,3.5-3.3,5.3-4.9
				c1.2-1.1,2.4-2.2,3.3-3.5c3.5-4.9,2.4-12-1.1-16.9c-0.8-1.1-1.7-2.1-1.8-3.4c-0.1-0.7,0.1-1.5,0.2-2.2c0.4-1.6,1.1-5,1.1-5
				c-8.8,7.5-16.4,16.4-27.7,20.2C12.9,101.9,10.1,103.3,7.7,102.3L7.7,102.3z M139.9,37.7l0.2-0.6l-0.1-0.2l-0.6,0.6L139.9,37.7z"
				/>
		</defs>
		<clipPath id="SVGID_2_">
			<use xlink:href="#SVGID_1_"  style="overflow:visible;"/>
		</clipPath>
		<g id="Base" class="st0">
			<rect x="6.2" y="23.2" class="st1" width="137" height="116.2"/>
			<g id="Light_1">
				<g>
					<path class="st2" d="M65,92.4c3.8-5,8.4-6.6,14.4-4.7c2.6,0.8,4.7,1.7,7.4,2.1c2.5,0.3,5.1,1.3,7.4,2.2
						c2.8,1.2,13.2,4.5,12.9-1.1c0-0.9-1.1-3,0.8-2.2c0.9,0.4,1.8,2.4,1.9,3.4c0.4,2.5-1,4.9-0.7,7.3c0.4,3,2,5.2,1.1,8.4
						c-0.6,2-0.8,8.3-2.9,9.2c-1.3-3.2-0.9-6.6-4.2-8.7c-4-2.7-9.1-3.7-13.7-4.6c-4.8-1-9.4-2.5-14.2-3.4c-2.5-0.5-5.1-0.8-7.4-2.1
						C66.1,96.9,63,94.5,65,92.4z"/>
				</g>
				<g>
					<path class="st2" d="M130.7,47c-5.2-0.1-5.6,6.7-6.3,10.5c-0.8,4.3-2.1,10.5,0,14.5c0.8,1.6,1.2,1.7,0.6,3.4
						c-0.3,1.1-0.7,2-0.6,3.1c0.2,2.3,1.1,4.2,0.2,6.6c-1,2.6-3.4,4.5-4.8,6.8c-1.3,2.2-1.4,4.9-1.5,7.3c-0.1,3,0.4,5.9,1.2,8.7
						c0.8,2.9,0.2,7.2,1.9,9.8c1.2-1.6,1.5-4.3,2.4-6.2c1.2-2.7,2.8-5.1,3.9-7.8c3.3-7.8,4.8-16,6.6-24.2c0.9-3.8,2-7.5,2.2-11.4
						c0.1-2.5-0.1-5,0-7.5c0.1-3.4,0.5-5.7-0.6-9c-0.5-1.4-0.8-2.7-2.2-3.5C132.8,47.6,131.4,48,130.7,47z"/>
				</g>
				<g>
					<path class="st2" d="M136.7,43.5c-0.8,0.3-1.7,0.1-2.5,0c-1.2-0.1-1.7,0.1-2.9,0.4c-2,0.4-4.1-0.5-6,0.1c2.3,0.6,3,2.8,5.5,2.9
						C131.9,46.9,137.7,46.1,136.7,43.5z"/>
				</g>
				<g>
					<path class="st2" d="M111.9,42c1.6,2.6,4.4,3.1,7.1,3.3c-1.9,1.5-4.5,3.4-7,2.5C109.4,46.9,108.1,42.1,111.9,42z"/>
				</g>
				<g>
					<path class="st2" d="M43.7,80.8c0,10,7,19.7,0,28.7c-1.8,2.3-3.2,4.7-4.9,7.1c-0.9,1.3-1.8,2.5-2.3,3.9
						c-0.5,1.3-0.6,3.1-1.2,4.3c-1.3,2.4-2.5-0.4-3.1-2c-0.8-2.1-0.8-4.3-1-6.5c-0.4-5.2,2.9-8.8,5-13.2c1.2-2.3,1.8-4.3,2.1-6.9
						c0.3-2.2,0.4-4.6,1.2-6.7c0.6-1.7,1.3-3.1,1.6-4.8C41.3,83.4,42.1,81.8,43.7,80.8z"/>
				</g>
				<g>
					<path class="st2" d="M122.2,27.7c2-0.2,2.9,0.8,4.6,1.3c1.3,0.4,3.5,0,4.8-0.5c2.9-1,1.6-2.4-0.7-2.9c-1.8-0.4-3.6-0.6-5.5-0.6
						C123.7,24.9,118.7,25.9,122.2,27.7z"/>
				</g>
				<g>
					<path class="st2" d="M100.7,60.7c0.3,1.5,1.2,5.8,3.4,5.5c-0.3-0.9-0.8-1.8-1-2.7c-0.1-0.9,0.2-1.8,0-2.7
						C102.6,58.1,100,59.4,100.7,60.7z"/>
				</g>
				<g>
					<path class="st2" d="M106.8,58.2c0.2,1,0.6,3.4-0.7,3.7c-0.6-1.2-0.8-3.3-0.8-4.6c0.2-0.1,0.5-0.2,0.8-0.2
						C106.5,57.4,106.7,57.9,106.8,58.2z"/>
				</g>
				<g>
					<path class="st2" d="M126.2,29.2c-1.4-0.4-2.7,1.1-2.5,2.4c0.2,2,2.6,0.7,3.3-0.3C127.4,30.5,127.2,29.4,126.2,29.2z"/>
				</g>
			</g>
			<g id="Spots">
				<g>
					<path d="M81.1,69.3c-0.7-0.9-2-0.1-2.1,0.9c0,0.1,0,0.3,0,0.4c-0.6,0.1-1.2,0.6-1.3,1.2c-0.2,0.8,0.3,2,1.2,2.2
						c1.3,0.2,2.3-0.3,2.8-1.5c0.1-0.3,0.2-0.6,0.2-0.8c0-0.3-0.2-0.7-0.3-0.9C81.6,70.2,81.5,69.7,81.1,69.3z"/>
					<path d="M88.3,74.6L88.3,74.6L88.3,74.6L88.3,74.6L88.3,74.6L88.3,74.6L88.3,74.6c0.1,0.1,0.2,0.1,0.2,0.1
						c0.1,0.1,0.2,0.2,0.2,0.2c0.4,0.4,1.1,0.5,1.5,0.2c0.5-0.3,0.8-0.9,0.6-1.4c-0.4-1-1.2-1.7-2.2-1.9c-0.8-0.1-1.6,0.3-1.7,1.2
						C86.8,73.9,87.4,74.5,88.3,74.6z"/>
					<path d="M88.3,74.6L88.3,74.6C88.2,74.6,88.2,74.6,88.3,74.6C88.2,74.6,88.3,74.6,88.3,74.6z"/>
					<path d="M88.3,70.7c0.2,0,0.4,0.1,0.7,0.1c1.6,0,1.6-2.6,0-2.5c-0.2,0-0.4,0-0.7,0.1C87.1,68.5,87.1,70.6,88.3,70.7z"/>
					<path d="M97.6,77.5c-0.4-0.3-0.9-0.4-1.5-0.3c-0.1,0-0.1,0-0.2,0c0-0.4-0.1-0.9-0.4-1.2c-0.7-1-2.3-0.7-2.4,0.6
						c0,0.3,0,0.6,0,0.8c-0.1,0.3-0.2,0.6-0.3,0.8c-0.2,0.7-0.2,1.4,0.2,2c0.5,0.7,1.4,1.1,2.3,0.8c0.4-0.1,0.8-0.4,1.1-0.6l0.1-0.1
						l0,0c0.3,0.2,0.7,0.3,1.1,0.3c0.7,0,1.5-0.4,1.8-1.1s0.2-1.6-0.5-2C98.5,77.5,98.1,77.5,97.6,77.5
						C97.7,77.6,97.6,77.6,97.6,77.5z"/>
					<path d="M75.2,75.7c-0.1-0.2-0.3-0.4-0.5-0.5c0,0,0,0-0.1,0c0-0.1-0.1-0.1-0.1-0.2c0.1-0.1,0.5-0.7,0.5-0.8
						c0.4-0.9,0.3-1.9-0.4-2.5c-0.7-0.6-1.7-0.6-2.5-0.2c-0.4,0.2-0.8,0.6-1,1c-0.2,0.3-0.3,0.5-0.5,0.7c-1.5,1.4,0.8,3.7,2.2,2.3
						c0.1,0.2,0.2,0.3,0.3,0.4c-0.2,0.5,0,1.2,0.6,1.4C74.7,77.7,75.7,76.6,75.2,75.7z"/>
					<path d="M77.7,68.1c0.5,0,0.9-0.5,1.4-0.7c0.5,0.2,1.2,0,1.3-0.6c0.2-0.7-0.5-1.4-1.2-1.2c-0.5,0.1-0.8,0.2-1.3,0.6
						c-0.1,0.1-0.6,0.6-0.7,0.6c-0.4-0.5-1.4,0.2-0.9,0.7C76.6,67.9,77.1,68.1,77.7,68.1z"/>
					<path d="M89.2,84.6c0.8-0.6,0.7-1.7-0.3-2c-0.7-0.2-1.2-0.3-1.8-0.8c-0.6-0.5-1.1-1-1.9-1.2c-1.1-0.3-3.1-0.1-2.8,1.5
						c0.2,1.4,2,1.5,3,1.9C86.6,84.5,88,85.4,89.2,84.6z"/>
					<path d="M52.8,88.3c-1.8-0.5-3.4,2.1-3.6,3.6c0,0.5,0.1,1,0,1.5s-0.5,0.8-0.5,1.3c0,0.4,0.2,0.9,0.4,1.2
						c0.1,0.2,0.8,0.5,0.8,0.7c0.3,1.2,2.3,1,2.2-0.3c0-0.4,0-0.7-0.2-1c0-0.1-0.1-0.2-0.2-0.3c0.4-0.7,0.7-1.4,0.7-2.5
						c0-0.6,0-1.2,0.3-1.7c0.4-0.6,0.8-0.8,0.8-1.6C53.5,88.8,53.2,88.4,52.8,88.3z"/>
					<path d="M56.8,78.3c0-0.9-0.6-1.4-1.2-1.6c0,0,0,0,0-0.1c-0.2-0.5-0.5-1-0.9-1.3c-1.2-0.8-2.5-0.3-3.2,0.8
						c-0.2,0.2-0.2,0.6-0.3,0.9c-0.1,0-0.3,0.1-0.4,0.1c-0.3,0.2-0.6,0.4-0.8,0.7c0,0,0,0,0,0.1c0.1,0,0.2-0.1,0.4-0.1
						c-0.2,0-0.3,0-0.4,0.1c-0.1,0.2-0.2,0.1,0,0c-0.4,0.2-0.7,0.6-0.7,1.1c-0.1,1.3,1.4,2,2.5,1.4c0.3-0.2,0.7-0.5,1-0.8
						c0.1-0.1,0.1-0.1,0.1-0.2c0,0,0.1-0.1,0.2-0.2l0,0c0.1,0.1,0.1,0.2,0.2,0.3C54.4,81,56.8,80.1,56.8,78.3z"/>
					<path d="M50,78C49.9,78,49.9,78,50,78C49.9,78,49.9,78,50,78C49.9,78,49.9,78,50,78z"/>
					<path d="M59.6,88.1c0-0.1,0-0.1,0-0.2C59.7,88,59.7,88.1,59.6,88.1L59.6,88.1z"/>
					<path d="M60.7,84.7c-0.1-0.9-0.8-1.6-1.7-1.8c-0.1,0-0.1,0-0.2,0c0.1-0.1,0.2-0.2,0.3-0.4c0.9,0.2,2-0.5,2.1-1.4
						c0.1-0.4,0.1-0.8,0-1.2c-0.3-0.8-1.2-1.1-2-1l-0.2,0c-0.5,0.1-1,0.6-1.2,1.1c-0.5,0-1,0.3-1.3,0.7c-0.5,0.6-0.5,1.4,0,2
						c0.2,0.3,0.6,0.5,0.9,0.6c-0.3,0.2-0.6,0.6-0.7,1c-0.1,0.6,0,1.3,0.5,1.8c-0.3,0.1-0.6,0.4-0.7,0.7c-0.2,0.5-0.4,1-0.2,1.6
						c0.1,0.4,0.3,0.8,0.6,1.1c0.5,0.5,1.4,0.6,2,0.3c0.6-0.4,0.8-0.9,0.8-1.5c0,0,0,0,0,0.1v-0.1c0-0.1,0-0.2,0-0.3
						c0,0.1,0,0.1,0,0.2c0-0.1,0-0.2,0-0.4c0-0.3-0.1-0.5-0.2-0.8h0.1C60.3,86.3,60.8,85.6,60.7,84.7z"/>
					<path d="M59.1,69.1L59.1,69.1c-1,0.2-1,1.6-0.1,1.8c0.1,0,0.2,0,0.2,0c0.9,0.5,1.9,0.3,2.8-0.2c0.7-0.4,0.9-1.3,0.5-1.9
						c-0.4-0.7-1.2-0.8-1.9-0.5C60.1,68.5,59.6,68.7,59.1,69.1z"/>
					<path d="M36.3,120.2c-0.7,0.3-1.2,1-1.2,1.8c0,0.5,0.2,1,0.5,1.3v0.1v0.1c-0.4,0.3-0.6,0.7-0.4,1.2c0.2,0.4,0.7,0.8,1.2,0.6
						c0.2-0.1,0.5-0.2,0.7-0.3c0.1-0.1,0.2-0.2,0.3-0.2c0,0,0-0.1,0.1-0.1c0.8-0.3,1.3-1.2,1.4-2.1c0.2-0.6,0-1.3-0.3-1.8
						C38,120.1,37.1,119.9,36.3,120.2z"/>
					<path d="M41.9,112.4c-0.1,0.1-0.2,0.3-0.3,0.4l0,0c-0.1,0.1-0.3,0.2-0.4,0.3l-0.1,0.1c-0.1,0-0.2,0.1-0.2,0.1
						c-0.6,0.3-0.8,1.1-0.6,1.7c0.3,0.6,1,1.1,1.6,0.8c0.8-0.3,1.6-0.8,1.7-1.7c0.2-0.4,0.2-0.8,0.2-1.2
						C43.7,112.1,42.4,111.8,41.9,112.4z"/>
					<path d="M46.3,109.1c-0.8,0.1-1.4,0.4-1.8,1c-0.3,0.4-0.4,0.9-0.4,1.4s0.2,1,0.4,1.4c0.2,0.3,0.4,0.4,0.6,0.6
						c-0.1-0.1-0.1,0,0,0.1s0.2,0.2,0.4,0.3c0.8,0.5,1.7-0.1,1.8-1c0-0.2,0-0.4,0-0.5s0-0.1,0-0.2v-0.1c0.1-0.1,0.1-0.1,0.2-0.2
						c0.5-0.5,0.6-1.2,0.3-1.8C47.6,109.5,47,109,46.3,109.1z"/>
					<path d="M106.6,82.2C106.6,82.3,106.7,82.3,106.6,82.2C106.7,82.3,106.7,82.3,106.6,82.2C106.6,82.3,106.6,82.3,106.6,82.2z"/>
					<path d="M109.6,84.9c0.6,0.3,1.4,0,1.5-0.6s0.2-1.5,0-2c-0.2-0.4-0.4-0.7-0.7-0.9c-0.1-0.1-0.2-0.1-0.3-0.2
						c0-0.4,0.1-0.9,0.1-1.3c0-0.6-0.3-1.1-0.7-1.4c-0.3-0.7-1.2-0.9-1.7-0.2c0,0.1-0.4,0.3-0.5,0.5c-0.3,0.4-0.4,0.7-0.5,1.1
						c-0.1,0.7-0.2,1.4-0.2,2.1c0,0.2,0,0.3,0.1,0.5l0,0c0,0,0,0,0-0.1l0,0c-0.1-0.1-0.1-0.1-0.1-0.1c-0.5-0.4-1.1-0.5-1.6,0
						c0.2-0.2-0.3,0.2-0.3,0.2c-0.2,0.2-0.4,0.5-0.5,0.8c-0.2,0.6,0,1.2,0.2,1.7c0.4,0.9,1.2,1.5,2.1,1.8s1.9-0.3,2.1-1.2
						c0.1-0.5,0-0.9-0.2-1.3c0.2,0.1,0.5,0.2,0.7,0.3C109.2,84.7,109.4,84.8,109.6,84.9z"/>
					<path d="M111.9,75.3c0.2,0.3,0.3,0.6,0.5,0.9c0.4,0.5,1.4,0.4,1.6-0.2c0.4-0.9,0.2-2.4-0.4-3.2c-0.3-0.4-0.8-0.7-1.2-1
						c-0.1-0.1-0.2-0.1-0.3-0.2c-0.1-0.9-1.4-1.2-1.9-0.2c-0.1,0.2-0.1,0.4-0.1,0.6c-0.1,0.3-0.1,0.5-0.1,0.8
						c0.2,0.7,0.6,1.1,1.1,1.7C111.4,74.8,111.7,75,111.9,75.3z"/>
					<path d="M105.1,76.9C105.1,76.9,105.1,76.8,105.1,76.9c0-0.3,0-0.5-0.1-0.8c0-0.2,0-0.3-0.1-0.5c-0.1-0.5-0.4-0.9-0.6-1.4
						c-0.1-0.2-0.2-0.4-0.3-0.6c-0.1-0.1-0.1-0.2,0,0c0-0.1,0-0.3-0.1-0.4c-0.1-0.9-1.3-0.7-1.6,0c-0.3,0.9-0.6,1.8-0.3,2.8
						c0.2,0.6,0.5,0.9,1,1.2c0.3,0.2,0.6,0.5,1,0.5C104.6,78.1,105.4,77.4,105.1,76.9z"/>
					<path d="M101.4,87.3c0.5-0.5,0.6-1.5,0-1.9c-0.4-0.3-0.8-0.5-1.3-0.6c-0.1,0-0.2,0-0.3,0c-0.1-0.1-0.3-0.2-0.5-0.2
						c0,0,0,0-0.1,0c-0.3,0-0.6,0.2-0.8,0.5c-0.3,0.4-0.3,1.1,0,1.5c0.1,0.3,0.4,0.5,0.6,0.6c0.1,0.1,0.4,0.2,0.5,0.2s0,0-0.1-0.1
						C100.1,87.7,100.9,87.8,101.4,87.3z"/>
					<path d="M94.4,72.1c0.2,0.3,0.4,0.7,0.7,1c0.8,0.9,2.4,0.2,2.3-1c-0.1-1.3-1.6-2.6-2.9-2c-0.4,0.1-0.7,0.5-0.6,1
						c0,0.1,0.1,0.2,0.2,0.3C94.1,71.7,94.3,71.9,94.4,72.1z"/>
					<path d="M77.6,80.2c-0.4,0-0.7,0.1-1,0.4c-0.1,0.1-0.2,0.2-0.5,0.4c-0.1,0.1-0.5,0.3-0.6,0.5c-0.1,0.1-0.1,0.2-0.2,0.3
						c0,0,0,0.1-0.1,0.1C75.1,82,75,82,75,82.1c-0.3,0.4-0.3,0.9,0.1,1.2c0.2,0.1,0.5,0.1,0.7,0.2c-0.1-0.1-0.3-0.2-0.4-0.3
						c0.7,0.5,1.4,0.5,2.2,0.1c0.7-0.4,1.3-1,1.3-1.8C78.8,80.8,78.3,80.1,77.6,80.2z"/>
					<path d="M84.3,78.1c1.5,0,1.5-2.3,0-2.3C82.8,75.8,82.8,78.1,84.3,78.1z"/>
					<path d="M93.5,83.4c-0.6,0-1.1,0.3-1.3,0.8c-0.2,0.6-0.1,1.4,0.5,1.7c0.5,0.2,0.9,0.3,1.4,0.2c0.8-0.2,1.2-1.1,0.9-1.8
						C94.7,83.6,94.1,83.3,93.5,83.4z"/>
					<path d="M109.9,63.6c0.6,0.3,1.5-0.1,1.8-0.7c0.1,0.1,0.2,0.2,0.2,0.3c0.3,0.4,0.9,0.5,1.3,0.4c-0.4,0.1,0.3,0.1,0.3,0.1
						c0.4,0,0.7-0.3,0.7-0.7c0,0,0-0.7-0.1-0.4c0.1-0.5,0-1-0.4-1.3c-0.3-0.3-0.4-0.4-0.6-0.7c-0.1-0.2-0.1-0.5-0.3-0.7
						c-0.3-0.5-0.7-1-0.8-1.6c-0.1-0.5-0.8-0.6-1-0.1c-0.2,0.4-0.5,0.7-0.5,1.2c0,0.2,0,0.4,0.1,0.6c0,0.1,0.1,0.5,0.2,0.4
						c0,0.2-0.2,0.4-0.2,0.6c0,0.3,0,0.5,0.1,0.7l0,0h-0.1c0-0.1-0.1-0.1-0.2-0.2l0,0c0-0.6-0.7-0.7-1-0.3c0,0.1-0.1,0.2-0.1,0.2
						s0,0-0.1,0.1c-0.2,0.2-0.3,0.5-0.3,0.8C109.1,62.9,109.4,63.3,109.9,63.6z"/>
					<path d="M117.8,54.8c-0.1-0.1-0.2-0.1-0.3-0.2l0,0c0-0.2-0.1-0.4-0.2-0.6c0-0.1,0-0.2-0.1-0.3c-0.2-0.5-1.1-0.5-1.1,0.1l0,0
						c-0.3,0.3-0.4,0.8-0.4,1.2c0.1,0.7,0.5,1.1,1,1.4c0.2,0.1,0.4,0.2,0.7,0.1c0.2,0.2,0.7,0.2,0.8-0.1c0.2-0.3,0-0.6,0.1-0.9
						C118.3,55.3,118.1,54.9,117.8,54.8z"/>
					<path d="M122.1,64.5c0.4-0.5,0.3-1.2,0.1-1.8c-0.1-0.3-0.3-0.6-0.5-0.9c-0.2-0.4-0.4-0.7-0.5-1c-0.2-0.5-0.9-0.3-1,0.1
						c-0.3,0.7-0.3,1.3,0,2.1c0.1,0.4,0.3,0.6,0.5,0.9c0.1,0.2,0.2,0.4,0.4,0.6C121.1,65.1,122,65.1,122.1,64.5z"/>
					<path d="M119.1,65.8c-0.3-0.1-0.7,0-0.9,0.3c-0.3,0.7-0.6,1.4-0.2,2.2c0.3,0.7,1,1.1,1.7,1.3c1.3,0.4,1.9-1.7,0.6-2.1
						c-0.2,0-0.3-0.1-0.4-0.3c-0.1-0.1-0.1-0.2-0.2-0.4c0-0.1-0.1-0.1-0.2-0.2l0,0C119.5,66.2,119.4,65.9,119.1,65.8z"/>
					<path d="M117.1,68.7c0.1-0.6-0.1-1.2-0.6-1.5c-0.6-0.4-1.5-0.7-2.3-0.5c-0.1,0-0.2,0-0.3,0l0,0c-0.5,0.1-0.6,0.7-0.5,1.1
						c0,0.1,0.1,0.1,0.1,0.2c0.3,0.5,0.8,1,1.2,1.3c0.3,0.3,0.8,0.5,1.3,0.4C116.7,70,117.4,69.4,117.1,68.7z"/>
					<path d="M121.6,79.9c-0.2-0.5-0.7-0.8-0.9-1.2c-0.3-0.8,0.5-1.1,0.7-1.9c0.3-1.2-0.5-2.3-1.5-3c0-0.9-0.5-1.9-1.1-2.6
						c-0.2-0.2-0.6-0.2-0.8,0c-1.1,0.9-0.6,2.8,0.6,3.4c0.1,0.7,0.1,1.3,0.2,2c0,0.2,0,0.4,0,0.6l0,0c-0.2-0.2-0.2-0.4-0.4-0.7
						c-0.3-0.7-1.2-1-1.7-0.2c-0.5,0.9,0,2.2,1,2.4c0.2,0,0.4,0,0.5,0.1c0.1,0,0.2,0.1,0.3,0.1c0,0.4,0.1,0.7,0.4,1
						c0.4,0.6,1.1,0.4,1.5,0.9C121,81.6,121.9,80.7,121.6,79.9z"/>
					<path d="M111.1,47.5c-0.7,0.7-0.7,2.4,0.1,3.1c0.5,0.4,1.2,0,1.1-0.6c-0.1-0.3-0.2-0.7-0.3-1c-0.1-0.3,0-0.7,0-1
						C112,47.4,111.4,47.1,111.1,47.5z"/>
					<path d="M118.3,45.3c-0.2-0.1-0.5-0.1-0.7,0c-0.6,0.4-0.7,1.2-0.6,1.9c-0.7,0.4-0.9,1.4-0.8,2.1c0.1,0.4,0.4,0.7,0.7,1.1
						c0.3,0.3,0.7,0.7,1.1,0.7s0.7-0.3,0.7-0.7s-0.3-0.6-0.5-0.9c0,0,0-0.2,0-0.4c0.6,0.4,1.3,0.8,2,0.8c0.8,0,1.1-1.1,0.4-1.5
						c-0.6-0.3-1.1-0.6-1.4-1.2C119.1,46.5,118.9,45.7,118.3,45.3z"/>
					<path d="M122.4,44.3c0.5-0.1,0.9-0.5,0.6-1c-0.2-0.5-0.7-0.7-1.1-1.1c-0.5-0.5-1.5,0-1.3,0.7C120.9,43.6,121.4,44.4,122.4,44.3
						z"/>
					<path d="M124.7,49.3c0.2-0.2,0.5-0.4,0.5-0.5c0.2-0.2,0.3-0.4,0.4-0.7c0.2-0.6,0.3-1.3,0-1.9c-0.1-0.3-0.3-0.5-0.5-0.7
						c-0.3-0.3-0.3-0.3-0.4-0.6c-0.2-0.6-0.3-0.9-0.9-1.1c-0.5-0.2-0.9,0.5-0.7,0.9c0.1,0.1-0.1,0.5-0.1,0.6c0,0.2,0.1,0.6,0.2,0.8
						c0.2,0.3,0.6,0.4,0.9,0.6c-0.1,0.3-0.2,0.6-0.5,0.9c-0.4,0.3-0.8,0.5-1,1.1c-0.2,0.9,0.4,1.6,1.3,1.6
						C124.6,50.5,124.9,49.8,124.7,49.3z"/>
					<path d="M111.5,38.9c0.7-0.9,1.4-1.5,1.8-2.6c0.3-1.1,0.2-2.3-0.4-3.4c-0.3-0.4-0.9-0.5-1.2,0c-0.5,0.9-0.5,1.9-0.9,2.9
						c-0.3,0.8-1.2,1.3-1.4,2.2C109.2,39.3,110.7,39.9,111.5,38.9z"/>
					<path d="M115.7,38.2c0.2-0.1,0.4-0.2,0.6-0.4c0.1,0.2,0.2,0.3,0.4,0.5c0.5,0.6,1.2,1.1,2.1,1.1c0.6,0,0.8-0.5,0.5-0.9
						c-0.6-0.7-1.2-1.2-1.4-2.2c-0.1-0.6-0.1-1.1-0.7-1.4c-0.1,0-0.1,0-0.2-0.1c0.1-0.2,0.3-0.5,0.3-0.6c0.2-0.8,0.2-1.6-0.3-2.3
						c-0.3-0.4-1.2-0.3-1.1,0.2c0.1,1.9-2.9,3.4-1.8,5.4C114.3,38.2,115,38.5,115.7,38.2z"/>
					<path d="M112.2,40c-0.2,0.7-0.9,1.1-0.9,1.9c0,0.8,0.6,1.6,1.3,1.8c0.1,0,0.2,0,0.3,0c0,0-0.1,0-0.1,0.1
						c-0.7,0.6-0.7,1.9-0.4,2.7c0.2,0.7,1,2,1.9,1.9c1.1-0.1,0.6-1.3,0.4-1.9c-0.2-0.8-0.4-2-1-2.6c-0.1-0.1-0.2-0.2-0.4-0.2
						c0.4-0.2,0.6-0.7,0.5-1.1c-0.1-0.3-0.3-0.5-0.3-0.7s0-0.3,0.1-0.5c0.1-0.6,0.1-1.1-0.3-1.6C113,39.2,112.4,39.5,112.2,40z"/>
					<path d="M119.1,41.6c-0.2-0.6-0.8-1.1-1.5-1.2c-0.7-0.1-1.3,0.3-1.7,0.9c0,0,0,0,0,0.1c-0.1,0.1-0.2,0.3-0.3,0.4
						c-0.6,1.3,0.4,2.8,1.9,2.6C118.8,44.3,119.6,42.8,119.1,41.6z"/>
					<path d="M120.4,109.4c-0.1-0.5,0-1,0-1.5c0-0.6-0.8-0.9-1.1-0.5c-0.6,0.7-0.8,1.4-0.7,2.3c0.1,0.9,0.5,1.8,1.2,2.3
						c0.8,0.6,1.6-0.5,1.3-1.3C120.8,110.3,120.4,109.9,120.4,109.4z"/>
					<path d="M117.7,102.9L117.7,102.9c-0.1-0.1-0.1-0.3-0.1-0.3c0-0.3-0.1-0.6-0.4-0.7c0.5-0.5,0.2-1.6-0.7-1.6
						c-1,0-1.2,1.3-0.5,1.8c-0.2,0.2-0.4,0.4-0.5,0.7c-0.2,0.7,0,1.3,0.5,1.9C117.1,105.7,118.9,103.9,117.7,102.9z"/>
					<path d="M116.2,97.3c0.3-0.5,0.1-1.1-0.4-1.4c-0.2-0.2-0.5-0.2-0.7-0.2c-0.6,0.1-1.1,0.5-1.1,1.1c0,0.1,0,0.1,0,0.2
						c0,0.2,0,0.3,0,0.5c-0.4,0.1-0.7,0.3-0.7,0.7c-0.1,0-0.3,0-0.3,0c-0.4,0.1-0.8,0.3-0.8,0.8c0,0.9,1.2,1.2,2,1
						c0.8-0.3,1.2-1.1,0.9-1.9c0.1,0,0.2,0,0.3-0.1C115.8,97.9,116,97.6,116.2,97.3z"/>
					<path d="M118.6,96.1c-0.8,0.1-1.6,0.9-1.3,1.7c0,0.3,0,0.6,0.2,0.9c0.5,1.1,2.1,0.5,1.7-0.6c0.3-0.3,0.4-0.7,0.4-1
						C119.6,96.6,119.1,96,118.6,96.1z"/>
					<path d="M113.6,105.3c0,0.5,0.1,1.2,0.2,1.7c0.1,0.6,0.9,0.9,1.4,0.7c0.6-0.3,0.8-0.9,0.5-1.5c-0.2-0.4-0.4-0.9-0.7-1.3
						C114.7,104.3,113.6,104.5,113.6,105.3z"/>
					<path d="M115.5,116.6c-0.4-0.1-0.7,0-0.9,0.4c-0.3,0.5,0,1-0.1,1.5c-0.1,0.6,0.2,1.1,0.7,1.3c0.5,0.1,1.2-0.2,1.3-0.7
						C116.6,118.2,116.6,116.7,115.5,116.6z"/>
					<path d="M126.4,81.5c-0.1-0.3-0.3-0.6-0.4-0.9c-0.2-0.5-0.9-0.5-1,0c0,0.1,0,0.2-0.1,0.3c-0.3,0.4-0.4,1-0.4,1.5
						c-0.1,0.6,0,1.3,0.3,1.8c0.2,0.3,0.7,0.4,0.9,0.1c0.5-0.5,0.7-1.2,0.7-1.9C126.5,82.1,126.5,81.8,126.4,81.5z"/>
					<path d="M106.3,68.8c0.1,0.2,0.1,0.6,0.1,0.8c0.1,0.4,0.3,0.8,0.4,1.2c0.1,0.4,0.1,0.8,0.5,1c0.3,0.1,0.7,0.2,1-0.1
						c0.6-0.7,0.5-1.8,0.4-2.6c-0.1-1.1-0.8-1.8-1.6-2.4c-0.2-0.1-0.5-0.1-0.8,0c-0.5,0.3-0.7,1-0.4,1.5
						C106,68.4,106.2,68.6,106.3,68.8z"/>
					<path d="M100.3,65.8c0.5,0.1,0.9-0.1,1.2-0.5c0,0,0,0,0-0.1c0.3-0.4,0.1-1.1-0.3-1.3c0,0-0.1,0-0.1-0.1
						c-0.2-0.3-0.6-0.4-0.9-0.4c-0.6,0.1-0.9,0.8-0.8,1.3C99.4,65.3,99.8,65.7,100.3,65.8z"/>
					<path d="M92.9,65.4c0.3,0,0.6-0.1,0.9-0.2c0.2-0.1,0.3-0.2,0.4-0.4l0,0l0,0c0.6,0,0.9-0.8,0.5-1.1c-0.4-0.3-0.7-0.4-1.2-0.3
						c-0.2,0-0.4,0.1-0.6,0.2c-0.1,0.1-0.2,0.1-0.3,0.2c-0.1,0-0.2-0.1-0.2-0.1c-0.6-0.3-1.2,0.3-0.9,0.9
						C91.8,65,92.3,65.3,92.9,65.4z"/>
					<path d="M95.2,65.6c0.3,0.1,0.5,0.2,0.7,0.4c0.3,0.2,0.5,0.4,0.8,0.4l0,0h0.1c0.6,0.1,1.2-0.4,1-1c-0.1-0.3-0.1-0.5-0.4-0.8
						c-0.2-0.2-0.5-0.3-0.8-0.4c-0.4-0.1-1.1-0.1-1.5,0.1C94.6,64.6,94.6,65.4,95.2,65.6z"/>
					<path d="M100.9,68.2c-0.1,0.3-0.2,0.6-0.2,1c0,0.2,0.1,0.3,0.2,0.5c0,0,0,0,0.1,0.1c0.1,0.5,0.3,0.9,0.7,1.2
						c0.3,0.2,0.6,0.4,1,0.4c0.1,0,0.3,0,0.4,0s0.1-0.1,0.2-0.1c0.3,0,0.5-0.1,0.7-0.3c0,0,0,0,0,0.1c0.3,0.5,0.4,1.1,0.6,1.6
						c0.3,0.5,0.9,0.3,1.1-0.1c0.3-0.8,0.3-1.9,0.1-2.7c-0.2-0.7-0.6-1.3-1.2-1.7c-0.1-0.1-0.1-0.2-0.2-0.4c-0.2-0.2-0.5-0.2-0.7,0
						c-0.3,0.3-0.4,0.8-0.4,1.2l0,0c-0.1-0.1-0.1-0.2-0.2-0.3c-0.1-0.1-0.2-0.2-0.3-0.2c-0.1-0.1-0.2-0.1-0.3-0.2
						C102.2,67.4,101.2,67.4,100.9,68.2z"/>
					<path d="M111.1,77.4c0.1,0.1,0.3,0.2,0.4,0.3c0.6,0.4,1.2-0.5,0.7-1c-0.1-0.1-0.1-0.1-0.2-0.2c0-0.2-0.1-0.4-0.4-0.7
						c-0.2-0.2-0.4-0.5-0.5-0.7c-0.3-0.6-1.2-0.2-1.1,0.5C110.2,76.2,110.4,77.2,111.1,77.4z"/>
					<path d="M120.3,82.9c0-0.5-0.2-0.8-0.6-1c0-0.1,0-0.2,0-0.3c0-0.9-1.2-1-1.5-0.2c-0.2,0.4-0.4,0.7-0.3,1.2
						c0.1,0.2,0.2,0.4,0.3,0.5c-0.1,0.2-0.2,0.5-0.1,0.8c0,0.1,0.1,0.2,0.1,0.3c-0.1-0.2-0.1-0.1-0.1,0.1c-0.1,0.2,0,0.4,0.1,0.6
						c0.1,0.4,0.5,0.6,0.9,0.4c0.3-0.2,0.5-0.5,0.8-0.8C120.1,84,120.3,83.3,120.3,82.9z"/>
					<path d="M111.8,86.9c-0.1-0.8-0.6-1.7-1.6-1.3c-0.5,0.2-0.5,0.8-0.6,1.2c0,0.3-0.1,0.6-0.1,0.9c0,0.2,0.1,0.3,0.1,0.5
						c0.1,0.7,0.8,1,1.3,0.5C111.6,88.3,111.8,87.7,111.8,86.9z"/>
					<path d="M117.6,85.8c-1,0.6-0.6,1.9-1,2.8c-0.3,0.6,0.6,1,1.1,0.6c0.4-0.4,0.8-0.7,1-1.3c0.1-0.3,0.1-0.5,0.1-0.8
						c0-0.1,0-0.4,0-0.4C118.9,86,118.2,85.4,117.6,85.8z"/>
					<path d="M122.8,88.7c-0.5-0.2-1,0.2-1.3,0.6c-0.1,0.2-0.2,0.4-0.3,0.6c-0.1,0.1-0.4,0.5-0.1,0.4c-0.5,0.2-0.9,0.7-0.7,1.3
						c-0.1,0.1-0.2,0.1-0.2,0.2s0,0.1,0,0.1l0,0c-0.2,0.1-0.4,0.2-0.6,0.3c-1,0.5-0.1,2,0.8,1.4c0.3-0.2,0.7-0.5,0.8-0.9
						c0-0.1,0-0.1,0-0.1s0,0,0.1-0.1s0.1-0.2,0.1-0.3c0.2,0,0.3,0,0.5-0.1c0.5-0.3,0.9-0.8,1-1.4c0-0.2,0-0.4,0.1-0.6
						s0.2-0.2,0.3-0.4C123.4,89.2,123.1,88.8,122.8,88.7z"/>
					<path d="M119.3,92.1c0.1-0.3,0.3-0.6,0.3-0.9s-0.2-0.6-0.2-0.9c-0.1-0.4,0.2-1-0.4-1.2c-0.5-0.1-1,0.2-1.2,0.7
						c-0.1,0.2-0.2,0.5-0.2,0.8s0,0.3-0.1,0.5c-0.2,0.4-0.1,0.9,0.1,1.1l0,0c-0.2,0.6,0.7,0.9,1,0.4
						C118.8,92.6,119.1,92.5,119.3,92.1z"/>
					<path d="M92.1,91.8c-0.1,0-0.2,0-0.2-0.1c-0.1-0.1-0.3-0.2-0.5-0.3c0.4-0.3,0.7-1,0.4-1.4c-0.8-1.2-2.2-1.1-3.4-1
						c-0.4,0-0.7,0.2-0.7,0.6c0,0.3,0.2,0.8,0.5,0.8c0.2,0,0.4,0.1,0.6,0.1c0,0.1-0.1,0.1-0.1,0.2c-0.2,0.8,0.2,1.5,0.9,2
						c0.6,0.5,1.4,0.8,2.1,0.5c0.1,0,0.2,0,0.3,0c0.3,0,0.6-0.2,0.7-0.4c0.1-0.2,0.1-0.4,0.1-0.6C92.6,92.1,92.4,91.9,92.1,91.8z"/>
					<path d="M97.6,93.2c-0.5-0.2-1.1-0.4-1.6-0.7c-0.4-0.2-0.8-0.7-1.3-0.8c-0.2-0.1-0.6,0-0.8,0.2c-0.8,0.9,0,2,0.8,2.6
						c0.5,0.3,1,0.7,1.5,0.9c0.5,0.2,1.6,0.3,1.8,0.9c0.5,1.2,2.2,0.8,2-0.5C99.9,94.3,98.9,93.8,97.6,93.2z"/>
					<path d="M105.2,92.6c-0.3-0.1-0.5-0.3-0.7-0.4c-0.3-0.2-0.8-0.2-1.1,0.1c-0.4,0.4-0.4,0.8-0.2,1.2c-0.5-0.3-1-0.6-1.5-0.7
						c-0.8-0.2-1.4,0.6-1,1.3c0.3,0.6,0.9,1.1,1.5,1.5s1.2,0.8,1.9,0.9c0.6,0.1,1-0.1,1.4-0.6l0,0c0.2,0.1,0.4,0.1,0.6,0.1
						c0.8-0.1,1.1-0.8,1-1.5C106.8,93.5,106,93,105.2,92.6z"/>
					<path d="M61.5,72.6C61.5,72.6,61.4,72.6,61.5,72.6c-0.4,0.1-0.7,0.3-0.8,0.5c-0.2,0.2-0.4,0.6-0.4,0.9c0,0.8,0.6,1.6,1.4,1.6
						c0.8,0,1.5-0.6,1.5-1.4c0-0.7-0.5-1.3-1.1-1.5C61.9,72.7,61.7,72.6,61.5,72.6z"/>
					<path d="M65.4,76.1c0-0.2,0-0.4-0.1-0.6c-0.1-0.4-0.3-0.6-0.6-0.8c-0.2-0.3-0.7-0.4-0.9-0.2c-0.3,0.3-0.6,0.3-0.9,0.7
						c-0.2,0.4-0.3,0.8-0.2,1.2c0.1,0.9,0.8,1.9,1.8,1.8C65.6,78.2,66,76.9,65.4,76.1z"/>
					<path d="M67.1,77.6c-0.2-0.3-0.6-0.4-0.9-0.2c-0.2,0.1-0.3,0.2-0.4,0.4c-0.1,0.1-0.3,0.3-0.3,0.5c0,0.1,0,0.2,0,0.3
						c-0.2,0.9,0.3,1.9,1.3,1.9c0.8,0,1.4-0.7,1.3-1.5C68.1,78.2,67.7,77.8,67.1,77.6z"/>
					<path d="M70.7,76.9c-0.1-0.1-0.3-0.2-0.5-0.3l0,0c0,0-0.2-0.1-0.2-0.2v-0.1c-0.1-0.4-0.6-0.5-0.9-0.4c-0.5,0.2-0.8,0.8-0.8,1.4
						c0,0.8,0.7,1.4,1.4,1.6c0.4,0.1,0.9,0,1.2-0.3l0.1-0.1c0.4-0.2,0.5-0.7,0.4-1.1C71.1,77.1,70.9,76.9,70.7,76.9z"/>
					<path d="M50,77.5c0.2-0.3,0.3-0.7,0.3-1.1s-0.1-0.7,0.2-1c0.5-0.4-0.1-1.1-0.6-1c-0.9,0.2-1.1,1.3-1.3,2.1
						c-0.2,0.6-1.4,1.3-0.7,2c0.1,0.1,0.3,0.1,0.4,0.1C49,78.5,49.7,78,50,77.5z"/>
					<path d="M54.7,70.5c0.4-0.2,0.7-0.5,1-0.8c0.2-0.2,0.2-0.4,0.3-0.7c0-0.2,0,0.2,0-0.1c0-0.1,0.1-0.3,0.1-0.4
						c0-0.5-0.7-0.8-1-0.4c0,0-0.3,0.3-0.1,0.2c-0.1,0.1-0.3,0.2-0.4,0.3c-0.2,0.2-0.3,0.4-0.6,0.6c-0.5,0.3-1,0.3-1.4,0.7
						c-0.1,0.1-0.1,0.3-0.1,0.4C53,71.1,54,70.9,54.7,70.5z"/>
					<path d="M56.9,69.9c-0.3,0.3-0.6,0.3-1,0.4c-0.5,0.1-0.5,0.7-0.1,1c0.7,0.5,1.6,0.1,2.1-0.3C58.7,70.4,57.5,69.2,56.9,69.9z"/>
					<path d="M56.8,68.6c1.3,0.5,3.1,0.4,4-0.7c0.3-0.4-0.1-1-0.6-0.7c-0.6,0.3-1.1,0.4-1.7,0.4c-0.6,0-1.1,0-1.7,0.1
						C56.3,67.8,56.4,68.5,56.8,68.6z"/>
					<path d="M62.6,67.1c0.6,0.4,1.3,0.4,1.9,0.3c0.8-0.2,1.6-0.9,1.4-1.7c-0.1-0.4-0.4-0.5-0.8-0.6c-0.5-0.1-0.8,0.4-1.2,0.7
						c-0.2,0.2-0.5,0.4-0.8,0.3C62.5,65.7,61.9,66.6,62.6,67.1z"/>
					<path d="M72.5,66.2c0.7,0.2,1.3,0.2,1.9-0.1c0.6-0.2,1.4-0.8,1.3-1.5c0-0.4-0.4-0.7-0.8-0.6c-0.5,0.1-0.7,0.6-1.1,0.8
						c-0.4,0.2-0.8,0.4-1.3,0.4C72.1,65.3,72.1,66.1,72.5,66.2z"/>
					<path d="M52.5,83.1c0.8-0.4,0.8-1.2,0.9-1.9c0-0.2-0.2-0.6-0.5-0.6c-1.1-0.2-2.3,0.7-1.9,1.9C51.3,83.1,51.9,83.4,52.5,83.1z"
						/>
					<path d="M43.6,81.7c0,0.3,0.3,0.5,0.6,0.3c0.1-0.1,0.2-0.1,0.2-0.2c0.1,0,0-0.1,0-0.1c0.1,0,0.1,0,0.2-0.1
						c0.2-0.2,0.4-0.4,0.4-0.7c0.1-0.6-0.2-0.9-0.3-1.4c-0.1-0.4-0.8-0.4-0.8,0.1c0,0.2,0,0.2-0.1,0.4c-0.1,0.1-0.1,0.3-0.1,0.5
						c-0.1,0.3-0.1,0.6,0,0.8C43.6,81.5,43.6,81.6,43.6,81.7z"/>
					<path d="M44.5,87.6c0.4,0,0.8-0.4,0.8-0.8c0-0.2-0.1-0.4-0.1-0.6c-0.4-1.2-2.3-0.7-1.9,0.5C43.5,87.2,43.9,87.6,44.5,87.6z"/>
					<path d="M64.4,89c-0.1-0.3-0.2-0.7-0.4-1c-0.1-0.1-0.1-0.2-0.2-0.3c0.4-1.1,1.5-2.2-0.1-2.9C63.4,84.7,63,85,63,85.3
						c0,0.2,0.2,0.9,0.1,1c-0.1,0.1-0.6,0.3-0.8,0.5c-0.4,0.6-0.4,1.3,0.1,1.8C62.7,89,63,89,63,89.5c0,0.4-0.2,0.7-0.1,1.1
						c0.1,0.7,0.6,1.2,1.3,1.2c0.3,0,0.6-0.3,0.5-0.7C64.5,90.5,64.6,89.7,64.4,89z"/>
					<path d="M62.6,92.5L62.6,92.5c-0.1-0.3-0.1-0.5-0.2-0.8c-0.1-0.2-0.3-0.4-0.5-0.4c-0.9,0-1.5,0.9-1.5,1.7
						c0,0.4,0.1,0.8,0.2,1.2c0.1,0.5,0.2,0.8,0.6,1.1c0.4,0.2,0.9,0,1-0.4c0.1-0.3,0-0.5,0-0.8c0-0.1,0-0.3,0-0.4
						c0.1,0.2,0.3,0.3,0.6,0.4c0.8,0.2,1.4-0.5,1.4-1.3C64.3,92,63,91.8,62.6,92.5z"/>
					<path d="M47.9,92c-0.1-0.6-0.9-0.9-1.2-0.3s-0.2,1.4,0.1,2c0.1,0.2,0.5,0.4,0.8,0.3c0.1,0,0.2-0.1,0.3-0.2
						c0.2-0.2,0.2-0.6,0.1-0.8C48,92.6,48,92.3,47.9,92z"/>
					<path d="M44.7,92.5c0.3,0.1,0.7-0.1,0.8-0.5c0.1-0.7-0.3-1.1-0.5-1.7s-0.6-1.3-0.6-1.9c0-0.5-0.8-0.6-0.9-0.1
						c-0.1,0.8-0.3,1.6-0.1,2.4C43.5,91.3,43.9,92.3,44.7,92.5z"/>
					<path d="M112.1,116.5c0,0.4-0.6,0.8-0.9,1.1c-0.3,0.3-0.5,0.7-0.4,1.1c0.1,0.3,0.2,0.5,0.4,0.8c0.2,0.3,0.5,0.4,0.8,0.3
						c0.3,0,0.4-0.5,0.2-0.6c-0.1-0.1-0.2-0.1-0.2-0.2c0.3-0.3,0.4-0.7,0.7-1c0.4-0.5,0.4-1,0.3-1.6
						C112.9,115.9,112.1,116,112.1,116.5z"/>
					<path d="M112.5,121.4c-0.1-0.2-0.3-0.4-0.6-0.2c-0.7,0.4-0.4,1.4,0.3,1.7c0.6,0.2,0.8-0.5,0.5-0.9
						C112.7,121.8,112.6,121.6,112.5,121.4z"/>
					<path d="M118.3,123.6c-0.2,0.6-0.4,1.6-0.1,2.2c0.2,0.4,0.7,0.3,1,0c0.4-0.6,0.2-1.6,0.1-2.2
						C119.2,123.1,118.5,123.2,118.3,123.6z"/>
					<path d="M114.1,111.1c-0.3-0.5-1.1-0.2-0.9,0.4c0.1,0.5,0.2,0.9,0.3,1.4c0.1,0.4-0.1,0.9,0.1,1.4c0.2,0.4,0.7,0.5,1,0.1
						C115.1,113.4,114.7,111.8,114.1,111.1z"/>
					<path d="M114.3,58.6c0.8,0.4,1.4,0.8,2.2,0.9c0.5,0.1,0.9-0.5,0.5-0.9c-0.1-0.1-0.1-0.1-0.2-0.2c0.1-0.7-0.2-1.2-0.8-1.6
						c-0.1-0.1-0.8-0.3-0.8-0.4c-0.1-0.2,0-0.8,0-1.1c-0.2-0.7-0.7-0.9-1.2-1.3c-0.5-0.4-0.6-0.5-0.8-1.1c-0.1-0.4-0.2-0.6-0.5-0.9
						c-0.2-0.2-0.5-0.2-0.6,0c-0.7,0.7-0.7,1.7-0.3,2.6c0.2,0.4,0.5,0.6,0.8,0.8c0.6,0.5,0.5,0.2,0.5,0.9
						C112.9,57.5,113.3,58.2,114.3,58.6z"/>
				</g>
				<g>
					<path d="M129,34.4c-0.1,0-0.3-0.1-0.4-0.1c-1-0.2-1,1.4,0,1.2c0.1,0,0.3-0.1,0.4-0.1C129.6,35.4,129.6,34.5,129,34.4z"/>
				</g>
				<path d="M121.7,28.9c-0.9,0.1-1.5,0.5-1.8,1.2s0.1,1.4,0.9,1.7c0.5,0.3,1.1-0.2,1-0.6c0-0.1,0-0.1,0-0.1c0-0.1,0.1-0.2,0.1-0.3
					c0-0.1-0.1-0.2,0-0.4c0-0.3,0.2-0.5,0.4-0.7C122.6,29.4,122.2,28.8,121.7,28.9z"/>
				<path d="M131.3,31.5c-0.4-0.1-0.7-0.2-1.1-0.1c-0.4,0.1-0.6,0.3-0.9,0.4c-0.6,0.2-0.3,1,0.2,1.1c0.1,0,0.3,0.2,0.4,0.2
					c0.2,0.1,0.3,0.1,0.5,0.1c0.3,0,0.6-0.1,0.9-0.3C131.9,32.6,131.9,31.7,131.3,31.5z"/>
				<path d="M134.8,42.5c-0.5-0.1-1-0.2-1.6,0c-0.3,0.1-0.5,0.3-0.7,0.4c-0.2,0.1-0.4,0.2-0.6,0.3c-0.3,0.2-0.1,0.7,0.2,0.8
					c0.2,0.1,0.5,0.1,0.7,0.1c0.3,0,0.5,0.1,0.8,0.1c0.6-0.1,1-0.3,1.4-0.6C135.6,43.3,135.3,42.6,134.8,42.5z"/>
			</g>
		</g>
	</g>
	<g>
		<defs>
			<path id="SVGID_3_" d="M7.7,102.3c6.7-2.8,13.4-8.3,19.4-12.5c2.5-1.8,5-3.6,7.2-5.8c1.7-1.8,3.2-3.8,4.8-5.6
				c3.4-3.8,7.6-6.9,12.2-8.9c8-3.6,17-4.3,25.7-4.6c7.5-0.3,15.3-0.5,22.1-3.9c0.5-0.3,1-0.5,1.6-0.6c0.9-0.2,1.8,0.1,2.4,0.8
				c0.2-1.1,0.7-1.8,2.4-1.5c0-1.1,0.3-1.9,1.4-1.9c0.3-0.9,0.8-2.2,1-2.7c0.6-1.4,1.1-2.7,1.4-4.2c0.7-2.9,1.5-6.1,1.9-9
				c-1.7-1.8-1.9-3.2-0.6-5.5c1-1.8,2.3-5.1,4.5-4.8v-0.2c0.7-0.8,1.5-1.8,2.3-2.2c0.9-0.6,2-0.9,3-1.4c0.9-0.4,2.2-0.3,3.1-0.4
				c1,0,1.9,0.2,2.9,0.1c0.7-0.1,3-0.8,3.1,0.4V28c0.7,0.8,2.2,0.7,2.9,0.6c1.3-0.2,2.7-0.5,4-0.9s3-0.8,4.3-0.3
				c1.4,0.5,1.4,1.8,1.4,3.1c0,0.6-0.4,3.2-0.6,3.8l-0.2,0.4c-0.4,0.7-0.9,1.4-1.4,2v0.1c0.6,0.2,0.8,1.5,0.8,1.8v0.1
				c0.5,0.1,0.9,0.3,1,0.7c0.3,1.6-0.7,3.2-2.1,3.8c-1.2,0.5-2.6,0.4-3.9,0.9c-1.5,0.6-2.5,2.1-4,2.7c-0.4,0.1-0.7,0.2-1.1,0.3
				c-2.2,2-3.4,4.8-3.4,7.7c0,1.8,0.4,3.6,0.4,5.4c-0.1,1.7-0.6,3.3-0.6,4.9c-0.1,3.2,1.5,6.2,1.9,9.4c0.4,4-1.2,7.9-3.1,11.5
				s-4.1,7-5,10.9c-0.5,1.9-0.6,3.9-0.7,5.8c-0.4,8.5,0.2,17,2.7,25.1c0.2,0.6,0.4,1.2,0.8,1.6c0.9,0.9,2.3,0.8,3.6,1.2
				c2,0.7,3.2,2.8,2.8,4.9l0,0c-0.3,0.2-0.8,0.2-1.2,0.2c-0.4,0.1-0.7,0.2-1.2,0.3c-0.9,0.1-1.7-0.3-2.5-0.3
				c-0.5,0.4-1.7,0.3-2.3,0.2c-0.6-0.1-0.9-0.4-1.5-0.4c-0.9-0.4-1.4-2.5-1.6-3.5c-0.6,0.4-2.3,0.5-2.8-0.1h-0.1
				c-0.1,0.3-0.3,0.6-0.5,0.6c-0.7,0.1-1.5-0.4-1.8-1c-0.4-0.6-0.5-1.4-0.7-2.1c-0.4-1.9-1-3.8-1.8-5.6c-0.1-0.3-0.3-0.7-0.6-0.9
				c-0.2-0.1-0.5-0.2-0.7-0.3c-1-0.5-1.1-2-1-3.1c0.2-6.6-0.4-13.3-2-19.7c-0.2-1-0.5-2.2-0.7-3.2c-8.7,0.3-17.2-3.1-25.5-5.8
				c-4.6-1.6-9.8-2.9-14.3-1c-1,0.8-1.5,2.1-2.2,3.2c-0.5,6.1-1.2,11.8-5.3,16.3c-3.8,4.2-9.8,6.2-14,9.8l0,0c-1,2.8-1.1,6-0.1,8.8
				c0.1,0.4,0.3,0.8,0.7,1.1c0.7,0.6,1.9,0.2,2.7,0.5c0.9,0.4,1.2,1.5,1.4,2.5c0.1,0.5,0.2,1,0.1,1.5l0,0c-0.2,0.5-0.9,0.2-1.3,0.1
				l-0.4-0.1c-1.3,0.6-3.3,0.3-4.3,0.2H44c-1.1,0.5-0.9,0.6-2.2-0.5c-0.6-0.5-0.6-1.5-0.7-2.3c-0.1-1-0.2-2-0.2-3v-0.1
				c-0.3,1.4-0.5,2.7-0.5,4.1c0,1,0.1,2.1,0.7,2.9c0.6,0.8,1.6,0.9,2.7,0.9c0.8,0.1,1.4,0.8,1.9,1.4c0.3,0.4,0.6,0.8,0.8,1.2
				c0.3,0.8,0.1,1.4-0.4,2c-1,1.3-2.2-0.1-3.3,0.2c-0.7,0.2-1,0.5-1.8,0.4c-0.6,0-1.1-0.3-1.6-0.3c-2.4,0.3-3.2-2.5-3.3-4.5
				c-0.1-2.1,0.3-4.1,0.3-6.2c0-1.7-0.2-3.4-0.7-5c-0.7-2.2-1.8-4.7-0.6-6.7c0.3-0.5,0.8-1,1.2-1.4c1.8-1.6,3.5-3.3,5.3-4.9
				c1.2-1.1,2.4-2.2,3.3-3.5c3.5-4.9,2.4-12-1.1-16.9c-0.8-1.1-1.7-2.1-1.8-3.4c-0.1-0.7,0.1-1.5,0.2-2.2c0.4-1.6,1.1-5,1.1-5
				c-8.8,7.5-16.4,16.4-27.7,20.2C12.9,101.9,10.1,103.3,7.7,102.3L7.7,102.3z M139.9,37.7l0.2-0.6l-0.1-0.2l-0.6,0.6L139.9,37.7z"
				/>
		</defs>
		<clipPath id="SVGID_4_">
			<use xlink:href="#SVGID_3_"  style="overflow:visible;"/>
		</clipPath>
		<g id="Details" class="st3">
			<g>
				<path class="st4" d="M135.7,38.1c0.1,0.1,0.4,0.1,0.6,0.1c0.2,0,0.4,0,0.6,0c0.4,0,0.8,0,1.1-0.1c0.4-0.1,0.8-0.3,1.1-0.6
					s0.6-0.7,0.9-1.1c0.4-0.4,0.8-0.8,1.1-1.2c0.2-0.3,0.9-1,0.7-1.4s-1.2,0.1-1.5,0.3c-0.5,0.4-0.9,0.9-1.4,1.2
					c-0.6,0.4-1.2,1-1.8,1.5c-0.3,0.2-0.5,0.5-0.8,0.7C136.1,37.8,135.7,37.9,135.7,38.1z"/>
			</g>
			<g>
				<path class="st5" d="M129.3,40.1c0.4-0.3,0.8-0.6,1.2-0.7c0.4-0.1,0.9-0.2,1.3-0.4c0.8-0.3,1.7-0.3,2.6-0.6
					c0.3-0.1,0.7-0.3,1-0.2s0.6,0.2,1,0.3c0.3,0.1,0.7,0,1,0c0.4,0,0.7-0.2,1-0.3c0.3-0.2,0.8-0.5,1.1-0.5c0.4,0,0.4,0.4,0.4,0.8
					c-0.3,0-0.6,0.1-0.9,0.2c-0.4,0.1-0.8,0.2-1.2,0.3c-0.7,0.2-1.5,0.6-2.3,0.6c-0.3,0-0.6-0.1-0.9-0.1c-0.4,0-0.6,0-1,0.1
					c-0.7,0.3-1.4,0.6-2.2,0.6c-0.2,0-0.3-0.1-0.5-0.1s-0.3,0-0.5,0C130.1,40,129.7,40.1,129.3,40.1z"/>
			</g>
			<g>
				<path class="st6" d="M140.4,27c-1.3,0-2.4,0.2-3.3,1.2c-0.4,0.4-0.8,1.2-0.5,1.7s1,0.7,1.5,1c1.1,0.6,1.3,1.9,2.8,2.1
					c0.7,0.1,1.1,0.1,1.6-0.4c0.6-0.6,0.9-1.4,0.8-2.2C143.4,28.5,141.9,27.5,140.4,27z"/>
			</g>
			<g>
				<path class="st7" d="M124.5,31c0,0.3,0.9,0.3,1.2,0.3c0.4-0.1,1-0.3,1.2-0.6c0.4-0.4,0.4-0.9-0.2-1.2c-0.4-0.2-0.9-0.2-1.3,0.1
					C125.2,29.7,124.1,30.6,124.5,31z"/>
			</g>
			<g>
				<g>
					<path class="st1" d="M124.8,30.8c0.2-0.1,0.5-0.2,0.7-0.4c0.3-0.2,0-0.6-0.3-0.4c-0.2,0.1-0.4,0.3-0.6,0.5
						C124.5,30.6,124.6,30.8,124.8,30.8L124.8,30.8z"/>
				</g>
			</g>
			<g>
				<path class="st1" d="M131.1,40.4c0-0.2,0.1-0.4,0.2-0.6c0.1-0.3,0.2-0.3,0.5-0.3c0.2,0.1,0.5,0.2,0.6,0.4
					c0.2,0.3-0.2,0.3-0.4,0.4c-0.1,0-0.3,0-0.4,0C131.5,40.4,131.4,40.5,131.1,40.4z"/>
			</g>
			<g>
				<path class="st1" d="M133,39.9c0-0.2,0.3-0.7,0.5-0.7c0.2-0.1,0.6,0.2,0.7,0.3c0.4,0.3,0,0.3-0.3,0.4
					C133.7,40,133.3,40.1,133,39.9z"/>
			</g>
			<g>
				<path class="st1" d="M137.5,39c0.1-0.3,0.1-0.7,0.1-1.1c0-0.3-0.1-0.9,0-1.2c0.2-0.5,0.6,0.5,0.6,0.6c0.1,0.3,0.4,0.7,0.4,1
					C138.6,38.7,137.8,39,137.5,39z"/>
			</g>
			<g>
				<path class="st1" d="M139.9,38.4c0.1-0.3-0.1-1.5,0.3-1.5c0.3,0,0.4,0.4,0.5,0.6c0.1,0.2,0.3,0.6,0.1,0.8
					c-0.1,0.1-0.3,0.1-0.4,0.1C140.3,38.5,140.1,38.5,139.9,38.4z"/>
			</g>
		</g>
	</g>
</g>
<g id="Outlines">
	<g>
		<g>
			<path class="st8" d="M115.7,31.5c-2.4-1.7-4.6,2.9-5.4,4.4c-1.8,3.5-0.1,7,3.3,8.8c1.6,0.8,6.1,2.3,7.2,0.4
				c2.2-3.8-2.9-7.1-3.3-10.5c0-0.2-0.3-0.2-0.3,0c-0.1,1.9,1,3.2,2,4.7c1.7,2.4,2.5,7-2,5.9c-2.5-0.7-6.4-3.7-6.5-6.6
				C110.6,35.9,113.2,32.1,115.7,31.5L115.7,31.5L115.7,31.5z"/>
		</g>
	</g>
	<g>
		<g>
			<path class="st8" d="M111.3,41.7c-1.4,4.7-2.5,9.5-4.2,14.1c-0.4,1.1-1.5,3.3,0.4,3.4c0.1,0,0.2-0.1,0.1-0.2
				c-1.1-1,2.2-6.8,2.5-8.1c0.7-3,1.2-6.2,1.3-9.2C111.4,41.6,111.3,41.6,111.3,41.7L111.3,41.7z"/>
		</g>
	</g>
	<g>
		<g>
			<path class="st8" d="M107.4,57.7c-1.2-0.3-1.9,0.5-2.1,1.6c-0.1,0.8,0,2.6,0.9,3c0.1,0,0.1,0,0.1-0.1c-0.1-0.8-0.5-1.4-0.5-2.3
				c0-0.9,0.3-2.1,1.5-1.9C107.5,58.1,107.6,57.7,107.4,57.7L107.4,57.7z"/>
		</g>
	</g>
	<g>
		<g>
			<path class="st8" d="M105.7,59.6c-1.6-0.7-3,0.3-3.2,1.9c-0.2,1.6,0.9,4.4,2.2,5.4c0,0,0.1,0,0.1-0.1c-0.5-1.4-1.3-2.7-1.3-4.3
				c0-0.6-0.1-1.3,0.1-1.9C104,59.8,104.9,59.8,105.7,59.6C105.8,59.7,105.8,59.6,105.7,59.6L105.7,59.6z"/>
		</g>
	</g>
	<g>
		<g>
			<path class="st8" d="M103.4,60.8c-2.9-2-5.3,0.3-8.4,1.2c-4.9,1.3-10.2,1.9-15.3,2.2C70.3,64.7,60.8,65,52,68.6
				c-3.5,1.4-6.7,3.3-9.7,5.7c-3.8,3-6.1,7.1-9.6,10.4c-7,6.7-16.2,12.8-24.9,17.1c-0.4,0.2-0.1,0.9,0.3,0.7c7.9-3.3,14.8-9,21.7-14
				c6.8-5.1,11.4-12.6,18.8-17c8.6-5.1,18.7-5.7,28.5-6.1c4.1-0.2,8.3-0.1,12.4-0.7c1.8-0.3,3.5-0.6,5.2-1.2c2.1-0.7,6-3.3,8.3-2.1
				C103.4,61.6,103.8,61,103.4,60.8L103.4,60.8z"/>
		</g>
	</g>
	<g>
		<g>
			<path class="st8" d="M7.6,102.4c6.2,1.7,14.2-3.1,19-6.6c6.2-4.5,12.3-10,17.5-15.6c0.1-0.1,0-0.2-0.1-0.2
				c-5,3.3-9,7.9-13.7,11.7c-2.8,2.3-5.7,4.3-8.8,6.1c-3.7,2.1-9.4,5.2-13.8,4.3C7.5,102.1,7.5,102.4,7.6,102.4L7.6,102.4z"/>
		</g>
	</g>
	<g>
		<g>
			<path class="st8" d="M70,81.5c-5.8,2.7-5.2,9.8-6.1,15.2c-0.7,4.3-1.8,9-4.7,12.4c-2.4,2.7-5.7,4.5-8.8,6.2
				c-4.8,2.8-9.1,5.8-10.2,11.6c-0.7,3.7-1.4,9,3.5,9.1c0.4,0,0.4-0.6,0-0.7c-6-0.2-1.7-10.7-0.6-12.5c1.6-2.6,4.2-4.4,6.7-6
				c3.5-2.3,7.3-4,10.1-7.1c2.6-2.9,4.3-6.5,5.1-10.3c1.1-5.8-0.7-14.3,5.3-17.7C70.3,81.7,70.2,81.5,70,81.5L70,81.5z"/>
		</g>
	</g>
	<g>
		<g>
			<path class="st8" d="M43.7,135.6c0.2,0.7,0.9,1.2,1.4,1.7c0.8,0.9,1.2,2.1,0.1,3c-0.5,0.4,0.2,1.2,0.7,0.7
				c2.1-1.9,0.1-4.8-2.1-5.6C43.8,135.4,43.7,135.5,43.7,135.6L43.7,135.6z"/>
		</g>
	</g>
	<g>
		<g>
			<path class="st8" d="M45.4,119.2c-1.3,2.7-1.6,6.2-0.4,9c0.4,1,0.7,1.1,1.5,1.6c0.2,0.1,0.4,0,0.6,0.1c2.3,1,2.8,1.6,2.8,3.8
				c0,0.4,0.7,0.6,0.8,0.1c0.2-1.5-0.1-3.7-1.7-4.5c-0.3-0.1-0.6-0.1-0.9-0.2c-1.4-0.6-2-0.6-2.6-2.1c-0.9-2.3-0.3-5.4,0.1-7.7
				C45.6,119.2,45.4,119.1,45.4,119.2L45.4,119.2z"/>
		</g>
	</g>
	<g>
		<g>
			<path class="st8" d="M40.5,128.1c0,1.2,0.1,2.3,0,3.5c0,0.8,0.1,1.5,0.6,2.1c0.8,0.9,1.8,1.4,2.8,0.5c0.2-0.2,0-0.5-0.2-0.5
				c-0.3,0-0.7,0.2-1,0.2c-0.5-0.1-1.2-1.1-1.3-1.5c-0.4-1.4-0.6-2.8-0.7-4.2C40.8,127.8,40.5,127.8,40.5,128.1L40.5,128.1z"/>
		</g>
	</g>
	<g>
		<g>
			<path class="st8" d="M42.8,81c-0.7,2.2-2,4.9-1.6,7.3c0.4,2.8,3,4.8,3.9,7.5c1.7,5.1,0.8,10.7-2.8,14.8c-2.2,2.5-5.6,4.3-7.4,7
				c-0.7,1.1-1,2-0.9,3.3c0.1,3.8,1.7,7.3,1.5,11.3c-0.1,3.1-0.5,8.1,3.4,8.9c0.5,0.1,0.7-0.7,0.2-0.8c-4.2-0.7-2.4-7-2.2-9.6
				c0.1-2.7-0.6-4.7-1.2-7.3c-2-8,7.1-10.1,10.5-15.7c1.9-3.1,1.9-7.5,0.8-10.9c-0.7-2-1.9-3.7-2.9-5.6c-1.8-3.6-1.3-6.4-0.8-10.2
				C43.2,80.8,42.9,80.8,42.8,81L42.8,81z"/>
		</g>
	</g>
	<g>
		<g>
			<path class="st8" d="M64.8,93.1c1.6-1.4,2.7-2.9,4.5-4.1c2.3-1.5,4.9-2.2,7.7-1.5c0.1,0,0.2-0.1,0.1-0.2
				C72.2,85.3,66.6,88.3,64.8,93.1L64.8,93.1L64.8,93.1z"/>
		</g>
	</g>
	<g>
		<g>
			<path class="st8" d="M67.1,90.1c7.8-2.1,16.3,2.1,23.6,4.4c6.3,1.9,12.1,3.6,18.6,2.5c0.4-0.1,0.3-0.7-0.1-0.7
				c-8.5,0.1-16.4-1.7-24.3-4.5c-6.1-2.1-11.6-4.5-17.9-2C66.9,89.9,66.9,90.1,67.1,90.1L67.1,90.1z"/>
		</g>
	</g>
	<g>
		<g>
			<path class="st8" d="M109.1,89.8c0.6,2,0,3.6-0.2,5.6c-0.3,1.9,0.3,4,0.7,5.9c1.3,5.3,3.4,10.4,4.6,15.7c0.7,3,0.1,6,1.4,8.4
				c0.7,1.3,1.7,2.3,2.4,3.6c0.8,1.5,1.1,3,1.6,4.5c0.4,1.1,0.5,1.7,1.4,2.5c0.3,0.2,0.7-0.2,0.4-0.4c-1.4-1.3-1.2-3.7-1.8-5.4
				c-0.5-1.5-1.3-2.6-2.2-3.9c-1.3-2.1-1.8-3.5-2.2-6c-0.6-4.3-1.8-8.5-3-12.6c-1.4-4.5-4-10.6-1.8-15.1c0.1-0.2,0.1-0.4,0-0.5
				c-0.6-0.7-1-1.4-1.4-2.2C109.1,89.7,109,89.8,109.1,89.8L109.1,89.8z"/>
		</g>
	</g>
	<g>
		<g>
			<path class="st8" d="M106.5,97c0.4,4.6,2.2,9,2.6,13.7c0.2,2.4,0.3,4.8,0.2,7.2c0,1.4-0.5,3,0.1,4.4c0.2,0.4,1.7,1.8,1.9,2.1
				c1.3,1.9,1.4,3.8,2.1,5.9c0.6,1.7,0.9,2.6,2.8,2.7c0.2,0,0.3-0.3,0.1-0.4c-2.7-1.1-2.8-6.3-4-8.7c-0.2-0.4-0.5-0.7-0.7-1.1
				c-1.4-2.3-1.5-3.1-1.6-5.9c-0.2-6.6-0.8-13.8-2.7-20.1C107.1,96.5,106.4,96.5,106.5,97L106.5,97z"/>
		</g>
	</g>
	<g>
		<g>
			<path class="st8" d="M125.3,52.6c0.6-1,1.1-2.4,1.8-3.3c1.8-2.2,2.8-1.4,4.8-2.2c0.7-0.3,1.2-0.6,1.8-1.1c1.5-1,2.4-1.5,4.2-2
				c2.3-0.6,5.1-1.8,4.2-4.8c-0.1-0.2-0.4-0.2-0.5,0c-0.4,1.6-1.3,3.1-3,3.8c-0.9,0.4-2,0.2-2.9,0.6c-1.9,0.7-3,2.4-5,3.1
				c-1.3,0.5-2.5,0.5-3.5,1.6s-1.5,2.8-2.1,4.1C125,52.6,125.2,52.7,125.3,52.6L125.3,52.6z"/>
		</g>
	</g>
	<g>
		<g>
			<path class="st8" d="M130.7,46.8c-1.9,1.9-3.3,3.7-3.7,6.5c-0.4,2.8,0.3,5.6,0,8.4c-0.2,1.8-0.7,3.2-0.5,5
				c0.6,5.3,3.2,8.8,1.2,14.5c-1.5,4.3-4.4,8.1-6.2,12.3c-2.9,7.1-2.1,16.4-1.2,23.8c0.4,3.4,0.6,8.6,2.4,11.6c1.8,2.9,7,1.9,7,6.8
				c0,0.5,0.7,0.4,0.7,0c0.2-1.9-0.2-3.6-1.8-4.8c-1.5-1.1-1-0.1-2.6-0.9c-3.3-1.8-3.5-4.1-4.2-7.4c-1.9-8.4-2.8-18.8,0-27.1
				c2.4-7.1,8.1-13,7.5-21c-0.3-3.8-1.6-7.2-1.4-11.1c0.3-5.7-1.1-11.8,3-16.5C131,46.9,130.8,46.7,130.7,46.8L130.7,46.8z"/>
		</g>
	</g>
	<g>
		<g>
			<path class="st8" d="M128.5,41.1c1.9-2.6,5.2-1.9,7.7-3c1.8-0.8,3.2-3.8,5.2-4c0.4,0,0.4-0.7,0-0.7c-0.9,0.1-1.3,0.3-2,0.8
				c-1.6,1.4-2.5,2.8-4.8,3.5c-2.5,0.7-4.9,0.8-6.3,3.2C128.2,41.2,128.4,41.2,128.5,41.1L128.5,41.1z"/>
		</g>
	</g>
	<g>
		<g>
			<path class="st8" d="M139.1,37.8c0.8-0.4,1.4-1.3,1.9-2c0.5-0.6,1.1-1.3,1-2.1c0-0.2-0.3-0.1-0.3,0
				C141.4,35.3,139.6,36.3,139.1,37.8C138.9,37.8,139,37.8,139.1,37.8L139.1,37.8z"/>
		</g>
	</g>
	<g>
		<g>
			<path class="st8" d="M116,129.3c0.2,0.5,0.3,1,0.4,1.5c0,0.2,0.1,1.5-0.2,1.6c-0.3,0.1-0.2,0.5,0.1,0.5c1.7,0.2,0.3-3.2,0-3.8
				C116.2,128.9,115.9,129.1,116,129.3L116,129.3z"/>
		</g>
	</g>
	<g>
		<g>
			<path class="st8" d="M116.7,132.3c0.4,0.4,1.1,0.6,1.6,0.6c0.4,0,1.4-0.1,1.5-0.6s-0.5-0.3-0.8-0.3c-0.6,0.1-1.6,0.3-2.1-0.1
				C116.8,131.8,116.5,132.2,116.7,132.3L116.7,132.3z"/>
		</g>
	</g>
	<g>
		<g>
			<path class="st8" d="M124.1,132.1c-0.1,0.3,0.2,0.8,0.3,1.1c0.2,0.6,0.5,1.3,0.4,1.9c-0.3,1.6-2.9,0.4-3.9,0.5
				c-0.2,0-0.2,0.2,0,0.3c0.6,0.1,1,0.5,1.6,0.7c0.4,0.1,0.9,0.1,1.3,0.1c0.7,0,1.3-0.2,1.6-0.9c0.3-0.6,0.1-1.3-0.2-1.8
				C125,133.4,124.7,132.4,124.1,132.1C124.2,132,124.2,132,124.1,132.1L124.1,132.1z"/>
		</g>
	</g>
	<g>
		<g>
			<path class="st8" d="M127.5,132.8c0.1,0,0.1,0.4,0.2,0.5c0.1,0.3,0.2,0.6,0.3,0.8c0.1,0.4,0.5,1.3-0.1,1.5
				c-0.4,0.1-0.2,0.7,0.2,0.6c0.8-0.1,0.7-1,0.6-1.5c-0.1-0.4-0.3-0.8-0.5-1.1C128,133.5,127.5,132.9,127.5,132.8
				C127.6,132.6,127.4,132.7,127.5,132.8L127.5,132.8z"/>
		</g>
	</g>
	<g>
		<g>
			<path class="st8" d="M125,136c0.9,0.3,1.9,0.7,2.8,0.5c0.5-0.1,1-0.2,1.6-0.3c0.3-0.1,0.5-0.1,0.8-0.3c0.2-0.2,0-0.6-0.3-0.5
				c-0.8,0.2-1.6,0.4-2.3,0.5c-0.9,0.1-1.7-0.2-2.5-0.1C124.8,135.8,124.8,136,125,136L125,136z"/>
		</g>
	</g>
	<g>
		<g>
			<path class="st8" d="M38.1,136.5c0,1.5,1.2,2.5,0.5,4c-0.2,0.4,0.4,0.7,0.6,0.3c0.7-1.3,0.3-3.4-0.9-4.4
				C38.3,136.4,38.1,136.4,38.1,136.5L38.1,136.5z"/>
		</g>
	</g>
	<g>
		<g>
			<path class="st8" d="M41.6,137c0.9,0.8,1.2,2.5,0.5,3.4c-0.3,0.3,0.1,0.8,0.5,0.6c1.6-0.8,0.3-3.6-0.8-4.3
				C41.7,136.7,41.5,136.8,41.6,137L41.6,137z"/>
		</g>
	</g>
	<g>
		<g>
			<path class="st8" d="M39.1,140.8c0.7,0.2,1.4,0.5,2.1,0.5c0.9,0,1.5-0.5,2.4-0.3c1,0.2,2,0.6,2.6-0.5c0.1-0.3-0.1-0.5-0.4-0.4
				c-1.2,0.7-2.1-0.1-3.2,0.1c-0.5,0.1-0.9,0.3-1.3,0.4c-0.7,0.2-1.4,0-2.1-0.1C39,140.5,38.9,140.7,39.1,140.8L39.1,140.8z"/>
		</g>
	</g>
	<g>
		<g>
			<path class="st8" d="M43.2,130.6c0.9,1,1.8,2,0.8,3.2c-0.2,0.2,0.1,0.5,0.3,0.3C45.5,133.1,44.8,131,43.2,130.6
				C43.2,130.5,43.1,130.6,43.2,130.6L43.2,130.6z"/>
		</g>
	</g>
	<g>
		<g>
			<path class="st8" d="M46.8,130.3c0.7,0.4,2.4,2.7,1.3,3.3c-1,0.5-2.7,0.2-3.8,0.1c-0.3,0-0.3,0.5,0,0.5c1,0.1,1.9,0.2,2.9,0.1
				c0.7-0.1,1.6-0.1,1.8-0.8c0.3-1.3-1-2.9-2.1-3.4C46.7,130,46.7,130.2,46.8,130.3L46.8,130.3z"/>
		</g>
	</g>
	<g>
		<g>
			<path class="st8" d="M47.7,133.9c0.6,0,1.2,0.2,1.8,0.3c0.4,0.1,0.8,0,1.1-0.4c0.2-0.3-0.3-0.7-0.6-0.3c-0.2,0.3-0.9,0-1.2,0
				c-0.4,0-0.8,0-1.2,0.1C47.5,133.7,47.5,133.9,47.7,133.9L47.7,133.9z"/>
		</g>
	</g>
	<g>
		<g>
			<path class="st8" d="M124.5,31.4c0.2-0.6,0.4-1,0.9-1.5c0.3-0.3,0.5-0.4,0.9-0.3c0.3,0.1,0.6,0.3,0.9,0.5h0.1
				c-0.3-0.8-1.3-1.4-2.1-0.8c-0.5,0.4-1.1,1.5-0.8,2.2C124.4,31.4,124.5,31.4,124.5,31.4L124.5,31.4z"/>
		</g>
	</g>
	<g>
		<g>
			<path class="st8" d="M138.1,29.3c0.1,0.5,1.1,0.8,1.5,0.9s0.6,0,0.9-0.1c-0.2,0-0.1,0,0,0s0.2-0.1,0.3-0.2s0.2-0.3,0.3-0.5
				c0.1-0.6-0.7-1.9-1.5-1.3c-0.3,0.3-0.2,0.7,0,1s0.2,0.5,0.3,0.8c0-0.2,0-0.3,0-0.5c-0.1,0.1-0.1,0.2-0.1,0.4
				c0-0.1,0.1-0.2,0.1-0.3C139.4,29.9,138.7,29.3,138.1,29.3C138.1,29.2,138.1,29.3,138.1,29.3L138.1,29.3z"/>
		</g>
	</g>
	<g>
		<g>
			<path class="st8" d="M130,40.8c1.7-0.3,3.5-0.5,5.2-0.8c1.2-0.2,5.6-2.2,6.3-0.5c0.2,0.4,0.7,0.2,0.5-0.2c-0.6-1.3-2.4-1-3.6-0.8
				c-0.8,0.2-1.5,0.5-2.2,0.8c-1,0.3-2,0.4-3.1,0.5C132,39.9,131.1,40.3,130,40.8C130,40.7,130,40.8,130,40.8L130,40.8z"/>
		</g>
	</g>
	<g>
		<g>
			<path class="st8" d="M114.7,31.9c2.5-1.6,4.2-3.8,7.4-4.2c1.2-0.1,2.3,0.2,3.5,0.1c1.1-0.1,3-1,3.9,0.1c0.1,0.1,0.4,0,0.3-0.2
				c-0.6-0.9-1.2-0.8-2.2-0.8c-1.8,0-3.7-0.1-5.5,0.1C118.9,27.4,116.6,29.2,114.7,31.9C114.6,31.8,114.7,31.9,114.7,31.9
				L114.7,31.9z"/>
		</g>
	</g>
	<g>
		<g>
			<path class="st8" d="M129.4,27.5c0.7,2.2,3.7,1.3,5.4,1c2.2-0.5,6.9-2.7,7.1,1.3c0.1,1.6-0.1,3-0.3,4.5c0,0.2,0.2,0.3,0.3,0.1
				c0.8-1.7,1.7-5.7-0.1-7.1c-1.1-0.8-2.9-0.7-4.2-0.4C135.6,27.3,131.2,29.4,129.4,27.5C129.4,27.4,129.4,27.4,129.4,27.5
				L129.4,27.5z"/>
		</g>
	</g>
	<g>
		<g>
			<path class="st8" d="M137.4,39c0.4-0.7,0.2-1.7,0.3-2.4l-0.1,0.1c0.8-0.1,0.8,1.5,1.2,1.9c0.1,0.1,0.2,0,0.2-0.1
				c-0.2-0.6-0.5-2.1-1.4-2c-0.1,0-0.1,0.1-0.1,0.1c0,0.4,0,0.8,0,1.2C137.4,38.2,137.3,38.6,137.4,39C137.3,39,137.4,39,137.4,39
				L137.4,39z"/>
		</g>
	</g>
	<g>
		<g>
			<path class="st8" d="M139.8,38.4c0.2-0.5,0.2-1.1,0.5-1.5c-0.1,0-0.1,0-0.2,0.1c0.3,0.1,0.4,0.7,0.5,1c0,0.1,0,0.5,0.2,0.5
				c0,0,0,0,0.1,0c0.2-0.2,0-0.8-0.1-0.9c-0.1-0.3-0.2-0.8-0.6-0.9c-0.1,0-0.1,0-0.2,0.1c-0.3,0.5-0.2,1.1-0.4,1.6
				C139.7,38.5,139.8,38.5,139.8,38.4L139.8,38.4z"/>
		</g>
	</g>
	<g>
		<g>
			<path class="st8" d="M132.8,40.1L132.8,40.1C132.8,40.1,132.9,40.1,132.8,40.1c0.4,0,0.4-0.4,0.5-0.6c0.4-0.5,0.8,0.3,1.2,0.4
				c0.1,0,0.2-0.2,0.1-0.2c-0.4-0.1-0.9-0.9-1.3-0.5c-0.2,0.2-0.2,0.4-0.3,0.6C133,39.8,132.8,40,132.8,40.1L132.8,40.1z"/>
		</g>
	</g>
	<g>
		<g>
			<path class="st8" d="M131,40.4c0.3-0.1,0.2-0.6,0.4-0.8s0.5,0,0.6,0.2c0.1,0.1,0.2,0.2,0.3,0.3s0.2,0.1,0.3,0.1c0,0,0,0,0-0.1
				c-0.1-0.2-0.4-0.5-0.6-0.6c-0.2-0.1-0.4-0.2-0.6-0.2c-0.2,0.1-0.2,0.2-0.3,0.4C131.1,39.8,130.9,40.2,131,40.4L131,40.4L131,40.4
				z"/>
		</g>
	</g>
	<g>
		<g>
			<path class="st8" d="M135.5,38.3c0.3,0.2,0.8,0.2,1.1,0.3c0.3,0,0.6,0.1,0.9,0c0.1-0.1,0.1-0.2-0.1-0.2c-0.7,0.1-1.3-0.1-2-0.2
				C135.4,38.1,135.4,38.2,135.5,38.3L135.5,38.3z"/>
		</g>
	</g>
	<g>
		<g>
			<path class="st8" d="M134.2,39.6c0.6,0,1.4,0.4,1.9-0.1c0.1-0.1,0-0.2-0.1-0.2C135.4,39.7,134.8,39.3,134.2,39.6
				C134.2,39.5,134.2,39.6,134.2,39.6L134.2,39.6z"/>
		</g>
	</g>
	<g>
		<g>
			<path class="st8" d="M129.1,40.3c0.1,0.1,0.4,0,0.6-0.1c0.4-0.1,0.9-0.2,1.3,0c0.1,0.1,0.2-0.1,0.1-0.2c-0.3-0.3-0.8-0.2-1.2-0.2
				C129.7,39.9,129.2,40,129.1,40.3C129.1,40.2,129.1,40.3,129.1,40.3L129.1,40.3z"/>
		</g>
	</g>
	<g>
		<g>
			<path class="st8" d="M139.3,37.4c-0.2,0.1-0.5,0.3-0.6,0.4c-0.1,0.1,0,0.2,0.1,0.1C139,37.8,139.1,37.7,139.3,37.4L139.3,37.4
				L139.3,37.4z"/>
		</g>
	</g>
	<g>
		<g>
			<path class="st8" d="M139.1,37.7c0.2,0,0.4,0,0.6-0.1c0.1,0,0.2-0.1,0.1-0.1C139.5,37.4,139.3,37.5,139.1,37.7
				C139,37.7,139.1,37.8,139.1,37.7L139.1,37.7z"/>
		</g>
	</g>
</g>
</svg>
