<?xml version="1.0" encoding="utf-8"?>
<!-- Generator: Adobe Illustrator 22.1.0, SVG Export Plug-In . SVG Version: 6.00 Build 0)  -->
<svg version="1.1" id="Card_1" xmlns="http://www.w3.org/2000/svg" xmlns:xlink="http://www.w3.org/1999/xlink" x="0px" y="0px"
	 viewBox="0 0 155.9 155.9" style="enable-background:new 0 0 155.9 155.9;" xml:space="preserve">
<style type="text/css">
	.st0{clip-path:url(#SVGID_2_);}
	.st1{fill:#222220;}
	.st2{fill:#2D2B29;}
	.st3{fill:#111110;}
	.st4{fill:#A3612A;}
	.st5{fill:#8E5020;}
	.st6{clip-path:url(#SVGID_4_);}
	.st7{fill:#4A3637;}
	.st8{fill:#7C4E5B;}
	.st9{fill:#FFFFFF;}
	.st10{fill:#272228;}
	.st11{fill:#0B0B0C;}
	.st12{fill:#C18E9D;}
	.st13{fill:#D6A2B0;}
	.st14{fill:#754139;}
	.st15{fill:#010202;}
</style>
<g id="Colours">
	<g>
		<defs>
			<path id="SVGID_1_" d="M112.7,40.2c-2.9-5.3,0.1-11,0.4-16.7c0.1-1.6,0-3.3,0.7-4.7c1,0.1,3.2,6,3.5,7.3c0.5,2,0.4,5,2,6.3
				c1.5-0.3,2.8-0.1,4.2,0.3v0.1c1.4-2.2,0.7-4.9,1.7-7.2c1.1-2.5,1.6-4.6,1-7.3c1.7,2.3,1.2,5.2,1.1,7.8c-0.1,1.5,0.5,2.6,0.7,4
				c0.3,1.5-0.8,2.5-0.6,4c0.5,0.7,1.1,1.3,1.5,2.1c0.4,0.6,0.6,1.3,1,2c0.5,0.7,0.7,1.2,0.6,2c0,0.7-0.1,1.4-0.2,2
				c-0.1,0.7-0.6,1.4-0.5,2v0.1c0.4,0.5,0.8,1,1.2,1.4c0.9,1,1.9,1.9,2.4,3.3c0.2,0.7,0.1,1.1-0.2,1.7c-0.1,0.8-1.7,4.2-3,3.1
				c-0.1,0,0-0.1,0-0.1c-0.9,0-1.3,0.6-2.2,0.7c0,2.6,1.9,3.2,3.2,5.3c0.5,0.8,1.3,2.6,1,3.8c-0.3,1.2-2,1.7-3.1,1.6
				c-1.5-0.1-2.8-1.2-3.7-2.6h-0.1c-1-0.2-2-0.8-2.6-1.6c-0.7-0.8-1-1.9-1.4-2.7c-0.7,2.3-2.1,4.6-2.2,7.1c-0.1,2.4,0.7,4.8,0.5,7.2
				c-0.1,1.2-0.5,2.3-0.5,3.6c0.1,1.3,0.2,2.3-0.1,3.7c-0.6,2.5-0.5,5.3-1.4,7.7c-1.8,5-3.8,9.5-4.1,14.9c-0.1,2.4-0.5,4.7-0.5,7.2
				s0.4,4.8,0.8,7.2c0.4,2.9-0.5,5.9-0.1,8.8c0.2,1.5,1.1,3,1.6,4.4c0.6,1.4,1,1.8,2.5,2.4l0.4,0.1c0.7,0.2,1.4,0.5,2.1,0.9
				s1.3,0.8,1.6,1.6c0.2,0.6,0.2,1.6-0.3,2c-0.5,0.5-1,0.3-1.7,0.3c-1.2,0-2.4-0.1-3.6,0s-2.7,0.3-3.8-0.1c-1.8,0.6-3.2-6.6-3.3-8
				c-0.1-1.6-0.1-2.6-0.8-4c-0.7-1.4-0.6-2.7-0.6-4.2c-0.1-2.7-0.1-5.5-0.5-8.2c-0.4-2.8-0.9-5.6-0.9-8.4c0-1.6-0.2-2.9-0.5-4.5
				c-0.3-1.4-0.9-2.8-1.1-4.2c-1.5,0.6-3.1,0.9-4.5,0.7h-0.1c-1,3.3-1.7,6.8-2.2,10.1c-0.5,3.1-0.5,6.3-0.5,9.5c0,1.6,0.2,3.4,0,5
				c-0.1,1.4-0.9,2.6-1,4.1s0,3.1,0.3,4.6c0.3,1.4,0.9,3.7,2.1,4.5c0.9,0.9,4.3,3.9,1.9,4.9c-0.4,0.2-0.8,0.1-1.2,0.2
				c-0.5,0.1-0.9,0.3-1.4,0.4c-1,0.2-1.6-0.1-2.5-0.4c-0.8-0.3-2,0.6-2.8,0.1c-1.7-0.6-1.5-3.4-1.5-5c0-2-0.2-3.9-0.4-5.8
				c-0.1-1.1-0.4-1.5-0.7-2.5c-0.3-0.9-0.1-1.4,0.1-2.4c0.4-1.6,0.8-3.2,1-4.8c0.3-3.8-0.4-7.3-0.2-11.1c0.1-3.5,0.8-7.7-0.4-11
				c-4.5-0.6-8.2-1.9-12.4-3.4c-3.6-1.3-7.3-2.6-10.9-3.9l-0.1,0.3c-0.7,1.8-1.3,2.8-1.4,4.7c0,1.7-1.1,3.2-1.8,4.7
				c-1.5,3.2-4.1,5.1-6.4,7.7c-2.4,2.5-5.9,3.6-7.4,6.7c-1.1,2.3-2.5,5.7-2.4,8.3c0.1,2.3,0.5,6.2,2.7,7.3h0.1
				c0.6,0.3,1.4,0.3,2.1,0.5c0.8,0.2,1.8,0.7,2.4,1.3c0.5,0.5,0.9,1.6,0.7,2.4c-0.3,1-1.3,0.8-2.1,0.8c-0.7-0.1-2.1,0.6-2.6-0.1
				l-0.2,0.1c-0.4,0.2-0.8,0.1-1.2,0.2c-0.5,0.1-1.1,0.4-1.5,0.2l-0.3-0.2c-0.9,0-1.8-0.6-2.3-1.3s-0.8-1.7-1-2.6
				c-0.7-3.3-0.7-6.7-1.4-10c-0.5-2.4-1.4-4.8-1.6-7.2c0-0.6,0-1.2,0.2-1.7s0.7-0.8,1.1-1.1c2.7-2.2,4.9-4.9,6.5-8
				c0.8-1.6,1.5-3.3,1.6-5.1c0.1-1.8-0.5-3.8-0.9-5.5c-5.8,5.2-10.9,10.7-16,16.6c-2.9,3.3-5.6,6.8-7.5,10.7
				c-1.9,3.9-3,8.4-2.4,12.7c0.4,0.5,1,0.4,1.4,1c0.4,0.5,0.8,1.4,1.1,2.1c0.3,0.6,0.6,1.3,0.1,1.9c-0.3,0.4-1.2,0.8-1.7,0.6
				c-0.7,0.6-2,0.3-3-0.1l-0.2-0.1c-0.2,0.6-2.3,1.4-2.7,0.7l-0.2-0.1c-1.7-3.4-1.1-7.5,0-11.2s2.7-7.2,3-11
				c0.1-0.9,0.1-1.8,0.3-2.6c0.5-1.7,1.8-3,3-4.3c2.3-2.7,3.8-5.9,5.4-9.1c2.1-4.4,4.3-8.9,5.4-13.6c1-4.1,1.2-8.4,3.2-12
				c1.2-2.2,2.9-3.9,4.8-5.6c0.5-1.3-0.2-3.3,0-4.7c0.1-0.8,0.6-1.8,1.4-2c0.8-0.2,1.5,0.3,2.1,0.7c0.9,0.5,2,1.3,3.4,1.2l0.3-0.1
				c9-3.4,18.4-2.1,28.1-3.7c2.7-0.4,6.5-1.3,9.2-2c6.3-1.7,12.9-3.9,17-8.9c2.3-2.8,3.9-6.4,6.9-8.3L112.7,40.2z"/>
		</defs>
		<clipPath id="SVGID_2_">
			<use xlink:href="#SVGID_1_"  style="overflow:visible;"/>
		</clipPath>
		<g id="Base" class="st0">
			<rect id="Base_sq_1_" x="14.6" y="16.1" class="st1" width="123.3" height="130.3"/>
			<g>
				<path class="st2" d="M18.6,125.2c2.2-1.6,2.4-6.6,4-8.9c2-2.9,4.3-5.4,5.5-8.8c1.1-3.1,2.1-6.1,3.8-8.9c1.9-3.1,5.4-5.4,6.6-9
					c1.3-3.8,1.5-7.9,3.3-11.6c0.9-1.8,2.6-2.9,4.2-4.1c1.5-1.2,1.4-4.7,2.4-6.3c3.4-5.5,12.3-5,18.2-5c3.1,0,6.3,0.2,9.3-0.4
					c1.8-0.3,2.9-0.8,4.6-0.5c1.8,0.3,3.3,0.5,5-0.2c1.5-0.6,3.3-1.7,5-1.5s3.2,1,5.1,0.5c2-0.5,3.3-2.2,4.8-3.5
					c1.4-1.2,3.2-2.3,4.3-3.7c0.6-0.7,0.7-1.2,1.5-1.9c0.9-0.7,1.6-1.1,2.3-2c1.2-1.3,1.7-2.7,2.5-4.3c0.6-1.2,2-3,1.3-4.5
					c-1-1.9-4.1-0.9-5.5-0.5c-3.1,0.9-5.6,1.8-8.4,3.5c-3.5,2.1-7.1,3.5-10.8,5.3c-3.5,1.6-7,3.5-10.6,4.8c-2.4,0.8-5,1.2-7.4,1.8
					c-6.6,1.6-13.8,0.6-20.2,3.3c-10.5,4.5-17,14.1-22,24c-2.2,4.3-4.2,8.7-6.6,13c-2.1,3.8-3.7,7.8-4.8,12c-1,3.6-2.3,7.7-2.5,11.4
					c-0.1,1.7-0.5,5.2,1,6.3C16.5,127,17.4,125,18.6,125.2z"/>
			</g>
			<g>
				<path class="st2" d="M123.7,36.6c0,2.5-0.8,4.6,0.8,6.7c0.8,1,1.1,2,1.6,3.3c0.5,1.4,1.6,1.5,3,1.2c0.7-0.1,1.1-0.3,1.8-0.3
					c0.6,0,1.5,0,1.6-0.8c0.1-0.7-0.5-1.2-1-1.6c-0.6-0.5-1.1-0.9-1.7-1.6c-1-1.2-1.4-2-1.9-3.5c-0.2-0.7-0.8-3.3-1.8-3.4
					c-0.9-0.1,0,3.2,0.3,3.9c0.2,0.7,0.6,1.4,1,2c0.4,0.5,1.2,1.3,1.1,2c-1.5-0.5-2.1-2.5-2.6-3.8c-0.3-0.8-0.9-4.1-1.9-4.1
					C123.9,36.7,123.9,36.8,123.7,36.6z"/>
			</g>
			<g>
				<path class="st2" d="M49.3,91.3c0.9-2.7,1.4-5.1,2-7.9c0.7-3.6,1.9-0.5,4-2.4c2-0.5,5.7,0.9,8.3,1.7c2.3,0.7,5,1.2,6.6,3.3
					c2.4,3-2.5,2.2-4.3,1.9c-2.4-0.4-4.8-0.7-7.3-0.3c-2.7,0.4-6.2,1.6-8,3.6C50.3,91.1,50.3,91,49.3,91.3z"/>
			</g>
			<g>
				<path class="st2" d="M72.5,87.4c3.2,0.4,5.9,1.5,9.1,0.8c2.8-0.6,5.8-1.6,8.8-0.8c2.3,0.6,1.9,1.8,0.7,3.4
					c-1.1,1.5-1.4,2.6-1.3,4.5c0.1,2.2,0.5,3.9-2.2,4.3c-3.2,0.5-5.7-0.6-8.5-1.7c-3.1-1.2-4.4-2.4-6.1-5.3
					c-0.4-0.7-1.4-1.9-1.4-2.8C71.5,88.6,72.1,88.8,72.5,87.4z"/>
			</g>
			<g id="Darks">
				<g>
					<path class="st3" d="M50.1,92.2c-0.6,1-0.4,2.7-1,3.9c-0.7,1.6-1.6,3.2-2.4,4.8c-1.5,3-3.5,5.6-5.5,8.3
						c-3.5,4.7-4,9.6-1.6,14.8c2.4,5.3,5.3,14,12.7,13.2c3.3-0.3,7-2,8.9-4.9c1.9-3,1.7-7.4,1.8-10.8c0.2-3.8,0.3-7.9,1.3-11.7
						c0.9-3.2,1.8-6.4,2.5-9.6c0.3-1.4,0.5-2.7,0.7-4.1c0.1-0.7,0.3-2.8,0.6-3.4c0.8-1.4,1.6,0.2,2.7,1.1c1.4,1.2,2.3,1.5,4,1.8
						c2.6,0.5,5.1,1.2,7.7,1.3c1.2,0.1,2.4,0.1,3.6,0.2c0.9,0.1,2.4,0.9,3.4,0.6c1.9-0.6,0.6-1.2-0.4-1.8c-1.3-0.7-2.3-1.7-3.5-2.6
						c-2.3-1.6-4.9-1.7-7.3-2.9c-2.4-1.2-4.4-3.5-6.1-5.5c-0.8-0.9-1.2-2.1-2.4-2.5c-1.1-0.3-2.5,0.2-3.6-0.1
						c-1.6-0.4-1.9-1.8-3.6-1.8c-1.2,0-2.8,0.8-1.4,2c0.6,0.5,2.4,0.7,3.1,1c1.1,0.4,2.4,0.8,3.4,1.4c1.1,0.7,1.5,1.6,2,2.7
						c-3.5,0.1-6.5-1.7-10.1-0.4C56.7,88.2,50.9,88.9,50.1,92.2z"/>
				</g>
				<g>
					<path class="st3" d="M32.7,110.7c-0.3-2.1,1.2-5.4,3.1-7.1c2.5-2.1,4.8-4.1,5.9-7.3c0.5-1.3,0.3-2.6,0.6-3.9s1.3-2.6,1.9-3.9
						c1.4-3.2,2.1-6.9,4.1-9.8c0.9-1.3,1.6-2.2,2.2-3.6c0.4-1.1,1-3.4,1.9-3.9c3.4-2,2.7,4.6,3.4,5.9c0.8,1.3,2.8,1.2,1.5,3
						c-0.9,1.2-2.8,1.5-3.9,2.7c-1.7,1.9-1.4,5.3-2.8,7.6c-1.1,1.9-2.8,3.5-4,5.4c-1.4,2.3-2.8,4.9-4.5,6.8
						c-1.7,1.8-3.5,3.6-4.9,5.6c-1.2,1.6-2.1,2.7-4.1,3.3C32.9,111.2,32.8,111.2,32.7,110.7z"/>
				</g>
				<g>
					<path class="st3" d="M97.8,121c1.3-5.4-5.6-7.9-4-13.4c0.8-2.5,2.4-4.9,3.4-7.3c0.5-1.2,0.9-2.5,1.1-3.8
						c0.3-1.4-0.2-2.2-0.3-3.3c-0.3-1.8,0.7-2.3,1.7-3.8c0.7-1,0.9-3,2-3.5c0.9,2.1,0.7,4.8,0.5,7.1c0.9-0.4,1.5-1.1,2.4-1.4
						s1.6-0.3,2.3-0.9c1.5-1.3,2-3.9,2.6-5.7c0.6-1.8,2-3.9,2.3-5.8c0.4-2.6-2.1-1.9-2.7-3.3c-0.4-1,0.8-2.1,1.2-2.9
						c0.8-1.6,0.2-1.3,0-2.8c-0.2-1.6,0.4-1.2,1.4-2.2c0.7-0.8,1-1.7,1.1-2.8c0.4-3.6-2-7.2-2-10.9c0-3.5,0.2-9.4,2.5-12.1
						c0.4,1.2,0.2,2.5,0.4,3.6c0.2,1.2,0.8,2,1.3,3.1s0.8,2.3,1.1,3.5c0.2,0.8,0.2,3.4,1,3.8c1.1,0.6,1.5-0.8,2.9,0
						c1.4,0.9,1.2,2,1.3,3.5c0.4,3.8,0.5,7.5-0.3,11.2c-0.5,2.6-1.7,4.3-1.5,7c0.2,4.1-0.2,7.5-1,11.5c-0.7,3.7-2.1,7.3-3,11
						c-0.7,2.8-0.4,5.8-1.2,8.6c-1.2,4.4-6.1,5.9-8.5,9.7c-1,1.5-2,3.1-3.8,3.5C100.2,122.7,98.2,122.4,97.8,121z"/>
				</g>
				<g>
					<path class="st3" d="M84.1,87.4c1.1-0.2,2.1,0.8,3.4,1.1c1.5,0.4,2.6-1,4-0.8c1.5,0.3,0.7,1.7,1.3,2.5c0.2,0.3,1.4,0.7,1.8,1.1
						c0.6,0.5,0.6,1.3,1.5,1.2c0.5-1.1,0.7-3.7,0.4-4.8c-0.6-1.7-2.7-2.6-3.3-4.5c-0.9-2.9,0.6-7.6-1.7-9.8c-1-0.9-2.8-1.9-4.3-1.6
						c-2,0.3-1.4,1.7-2.2,3.2c-0.7,1.2-3.4,1.9-2.5,3.6c0.6,1.2,3.5,2.2,4.5,3.2c1.1,1.1,2.5,3.8,0.4,4.3c-0.3,0.1-6.1-0.5-2.8,1.3
						C84.7,87.3,84.8,87.2,84.1,87.4z"/>
				</g>
				<g>
					<path class="st3" d="M119.4,40.7c1.1-0.7,1.5-2.5,2-3.6c0.9-1.8,2.3-0.7,2.4,0.9c0,0.8-0.4,1.3-0.3,2s0.9,1.2,1.2,1.8
						c0.3,0.6,0.5,1.5-0.4,1.6c-0.7,0.1-1.3-0.5-1.9-0.7c-0.8-0.2-1.4,0.2-2.2-0.2C119.8,42.5,118.4,41.4,119.4,40.7z"/>
				</g>
				<g>
					<path class="st3" d="M129.1,37c-1.4-0.3-1,1.3-1.1,2c-0.1,1.3-0.6,1.8,0.3,2.9c0.8,1,1.6,1.6,2.3,0.2c0.5-0.9,0.9-2.4,0.7-3.4
						C131,37.1,129.9,37.5,129.1,37z"/>
				</g>
				<g>
					<path class="st3" d="M113.7,18c-0.4,2.4-1.6,4.6-2,7c-0.3,1.9-0.5,3.7-0.5,5.6c0,1.7-0.2,3.4-0.1,5.1c0,1,0,3.5,1.4,3.5
						c0.8,0,0.5-0.9,1.1-1.2c0.2-0.1,0.5-0.1,0.8-0.2c0.3-0.2,0.7-0.4,0.9-0.7c0.6-0.9,0.1-3.5,1.7-3.6c0.6,0,2.7,1.7,3.2,0.5
						c0.2-0.6-0.7-1.2-0.8-1.7c-0.2-0.7-0.1-1.7-0.2-2.4c-0.3-2.9-0.8-5.6-1.8-8.4c-0.3-0.8-0.7-2.2-1.4-2.8
						C115.5,18.4,114.2,18,113.7,18z"/>
				</g>
				<g>
					<path class="st3" d="M126,18.1c-0.3,0.4-0.4,1.1-0.5,1.5c-0.2,0.8-0.5,1.6-0.7,2.4c-0.3,1.3-0.5,2.7-0.8,4.1
						c-0.3,1.3-0.6,2.6-0.8,3.9c-0.1,0.7-0.6,1.9-0.1,2.6c0.5,0.7,1.6,0.4,2.3,0.4c1,0,1.5,1.1,2.4,0.8c1.2-0.4,1.4-3.2,1.5-4.2
						c0.2-2.2,0.1-4.4-0.1-6.5c-0.1-1.3,0.1-3.4-0.8-4.5C127.9,17.8,126.3,17.3,126,18.1z"/>
				</g>
				<g>
					<path class="st3" d="M43.7,68.2c0.8-0.6,2.6-1.5,2.7-2.5c-1.3-0.1-1.1-1.9-1-2.8c0.1-0.5,0.6-1,0-1.5c-0.3-0.3-1.8-0.1-2.1,0.1
						c-1.2,0.8-1.4,3.8-1.5,5C41.8,67.2,42.4,69.6,43.7,68.2z"/>
				</g>
				<g>
					<path class="st3" d="M21.9,116c0.3-1,0.5-2.4,1.1-3.4c0.7-1.2,1.9-2.1,2.8-3.1c2-2.1,3.7-4.3,5.2-6.7c1.6-2.5,2.7-5.7,3.9-8.4
						c1-2.4,1.5-5.2,1.8-7.8c0.3-2.8,1.5-6.9,0.6-9.7c-1.5,3.2-2.8,6.6-4.4,9.9c-1.5,3-3.2,5.8-5,8.7c-1.9,2.9-3.4,5.7-4.6,8.9
						c-1,2.5-1.7,5.1-2.6,7.7c-0.4,1.1-0.9,2.2-0.9,3.3C19.8,116.4,20.5,117.5,21.9,116z"/>
				</g>
			</g>
			<g id="Brown">
				<g>
					<path class="st4" d="M33.5,108.7c-1.1,1.1-2.9,1.7-4.3,2.5c-1.8,1.1-2.5,2.5-3.6,4.2c-0.9,1.4-2,3-2.7,4.5
						c-0.6,1.5-0.9,3-1.9,4.3c-2.2,2.7-5.6,5.4-6.3,9.1c-0.9,4.5,1.1,8.6,6.2,8.7c5.2,0.1,10.1-4.3,11.5-9.1c0.7-2.2,0-4.4,0-6.6
						c0-2.9,0.9-2.2,2,0.1c2.3,4.7,5,7.6,9.4,10.3c3.7,2.2,11,5.7,15.2,3.3c6.6-3.9,4-12.1,3.2-18.1c-0.4-2.9-0.6-4.4,0.7-7
						c0.9-1.8,1.4-2.9-0.4-3.9c-0.8-0.5-1.5-0.1-1.6-1.2c0-0.6,1.7-2.8,2-3.3c0.9-1.6,1.7-3,2.1-4.9c0.3-1.5,1.1-3.5,0.4-4.9
						c-0.8-1.5-2-2.1-1.7-4.1c0.2-1.4,1.6-2.6,0.9-4c-0.7-1.2-3.1-1.1-4.1-2c-1.8,0-8,0.9-7.3,3.7c0.9,3.5,7.6,2.9,6.3,7.6
						c-0.4,1.5-6,8.9-7.5,7.5c-1-1,0.5-4.2-0.1-5.4c-1.4-2.7-3.9,0.8-4.3,2.4c-0.4,1.5-0.1,3-0.3,4.6c-0.2,1.8-1.2,3.3-2,4.9
						s-1.6,3.1-2.5,4.7c-0.7,1.2-1.1,4.5-2.6,4.8c-2.2,0.5-3.9-2.2-4.3-3.9c-0.5-1.7-0.6-3.5-0.6-5.3
						C35.3,111,35.3,107.3,33.5,108.7z"/>
				</g>
				<g>
					<path class="st5" d="M107.9,78.4c-2.4-1.4-3.4-0.1-4,2.3c-0.4,1.7-1.2,4-1.3,5.8c0,0.9,0.1,2.3,1.2,2.6c1.3,0.4,2.1-1,2.7-1.9
						c1.3-1.7,3.9-2.6,4.8-4.4C112.8,80,108.9,79.3,107.9,78.4z"/>
				</g>
				<g>
					<path class="st5" d="M119.2,77.1c-1.7,0.1-3.2,3.1-2.8,4.6c0.2,1,0.9,1.9,1.2,2.9c0.2,1-0.1,2.6,0.8,3.2
						C120.6,86.3,124.1,76.3,119.2,77.1z"/>
				</g>
				<g>
					<path class="st4" d="M91.3,110.8c-0.2,1.8,1.8,8.6,4.3,8.1c0.9-0.2,1.3-1.7,2.1-1.1c0.6,0.4,0.5,2.4,0.6,3
						c0.2,1.3,0.1,5.9,1.4,6.7c1.3,0.8,3.6-2.7,3.9-3.8c0.6-2.1,0.2-4.3,0.2-6.5c0-4.3,1.1-8.5,1.1-12.8c0-1.7,0.3-4.8,2-2
						c0.9,1.4,1.2,3.4,2.5,4.7c0.9,0.9,1.3,0.3,2.2,0.5c1,0.2,1.4,1,1.9,1.9c1.1,2.1,1.4,4.8,2.3,7c1.2,3,2.9,6,5,8.5
						c2.3,2.7,4.7,4.7,6.2,8c2.3,5,0.2,8.3-4.9,10.1c-5.4,2-11.5,2.8-17.2,2.6c-5-0.2-9.6-1.4-14.3-3.3c-1.9-0.8-3.1-1.2-4-3.2
						c-1-2-1.5-4.3-1.7-6.6c-0.6-5.9,1.2-10.8,3-16.3c0.4-1.3,0.5-2.4,0.5-3.7c0-0.9-0.3-2.6,0.6-3.2
						C90.2,108.9,90.5,110.2,91.3,110.8z"/>
				</g>
				<g>
					<path class="st5" d="M113,22.1c0.7-1,1.7,0.1,1.9,1.7c0.1,0.9,1.4,1.7,1.7,3c0.4,1.9-0.4,3.8-0.7,5.5c-0.1,0.8-0.1,1.7-0.6,2.4
						c-0.4,0.6-1.6,1.6-2.2,1.9c-1.1,0.5-2.1-1-2.3-1.9c-0.2-1.2-0.1-2.6,0-3.8c0.1-1.1-0.1-2.5,0.2-3.6
						C111.1,26.8,112.1,21.9,113,22.1z"/>
				</g>
				<g>
					<path class="st5" d="M126.8,22c-0.3,0.6-0.2,1.4-0.4,2.1c-0.2,0.7-0.5,1.3-0.7,2c-0.4,1.4-0.4,2.6,0.1,4c0.3,1,1.5,4.2,2.6,2.1
						c0.8-1.6,0.8-4.5,0.5-6.3C128.7,24.9,128.2,20.5,126.8,22z"/>
				</g>
				<g>
					<path class="st4" d="M116.7,44.9c0.2-0.7,0.5-1.7-0.3-2s-1.7,0.4-2,1c-0.3,0.7-0.3,1.4,0,2.1c0.3,0.9,1.2,1.2,1.5,2
						c0.5,1.3-0.1,2.9,0.3,4.2c0.2,0.7,0.8,1.2,1,1.9c0.4,1.1,0.8,0.9,1.6,1.5c0.5,0.3,1.1,1.7,1.7,1c0.6-0.6-0.2-1.7-0.5-2.2
						c-0.6-1.5-0.9-3.4,1.3-2.8c1.6,0.4,2.6,1.9,4.1,2.4c0.5,0.2,3.5,0.2,3.9-0.2c0.8-0.8-1-1.6-1.4-1.9c-1.1-0.7-0.8-1.5-1.4-2.4
						c-0.3-0.5-0.7-0.5-1.2-0.7c-0.6-0.3-0.7-0.5-1.1-1s-0.9-0.9-1.5-1.1c-0.4-0.1-0.9-0.1-1.2-0.3c1-1.5-1-0.8-1.8-0.7
						C119.2,45.9,116.9,45.4,116.7,44.9z"/>
				</g>
				<g>
					<g>
						<path class="st4" d="M123.7,38.5c-0.3-0.4-0.7-0.7-1.2-0.7s-1.1,0.2-1.3,0.7c-0.2,0.4,0,0.8,0.4,0.9c0.6,0.2,1.2-0.2,1.7-0.2
							C123.6,39.2,123.8,38.8,123.7,38.5L123.7,38.5z"/>
					</g>
				</g>
				<g>
					<g>
						<path class="st4" d="M127,38c0.1,0.2,0.3,0.3,0.4,0.3c0.1,0.1,0.2,0,0.4,0.1c0.1,0,0.4,0.1,0.2,0c0.5,0.2,1.2-0.3,0.8-0.8
							c-0.3-0.4-0.7-0.7-1.3-0.5C127.2,37.2,126.8,37.7,127,38L127,38z"/>
					</g>
				</g>
				<g id="Brown_D">
					<g>
						<path class="st5" d="M65.1,101.8c0.3-1.5,1.1-3.5,0.4-4.9c-0.8-1.5-2-2.1-1.7-4.1c0.2-1.4,1.6-2.6,0.9-4
							c-0.9-0.8-3.5-1.3-4.1-2c-1.8,0-8,0.9-7.3,3.7c0.9,3.5,7.6,2.9,6.3,7.6c-0.3,0.9-2.1,4.2-4.1,6.1c-1.2,1.2-2.8,3.9-0.7,3.7
							C56.9,107.6,64.7,103.6,65.1,101.8z"/>
					</g>
					<g>
						<path class="st4" d="M33.5,108.7"/>
					</g>
				</g>
			</g>
		</g>
	</g>
	<g>
		<defs>
			<path id="SVGID_3_" d="M112.7,40.2c-2.9-5.3,0.1-11,0.4-16.7c0.1-1.6,0-3.3,0.7-4.7c1,0.1,3.2,6,3.5,7.3c0.5,2,0.4,5,2,6.3
				c1.5-0.3,2.8-0.1,4.2,0.3v0.1c1.4-2.2,0.7-4.9,1.7-7.2c1.1-2.5,1.6-4.6,1-7.3c1.7,2.3,1.2,5.2,1.1,7.8c-0.1,1.5,0.5,2.6,0.7,4
				c0.3,1.5-0.8,2.5-0.6,4c0.5,0.7,1.1,1.3,1.5,2.1c0.4,0.6,0.6,1.3,1,2c0.5,0.7,0.7,1.2,0.6,2c0,0.7-0.1,1.4-0.2,2
				c-0.1,0.7-0.6,1.4-0.5,2v0.1c0.4,0.5,0.8,1,1.2,1.4c0.9,1,1.9,1.9,2.4,3.3c0.2,0.7,0.1,1.1-0.2,1.7c-0.1,0.8-1.7,4.2-3,3.1
				c-0.1,0,0-0.1,0-0.1c-0.9,0-1.3,0.6-2.2,0.7c0,2.6,1.9,3.2,3.2,5.3c0.5,0.8,1.3,2.6,1,3.8c-0.3,1.2-2,1.7-3.1,1.6
				c-1.5-0.1-2.8-1.2-3.7-2.6h-0.1c-1-0.2-2-0.8-2.6-1.6c-0.7-0.8-1-1.9-1.4-2.7c-0.7,2.3-2.1,4.6-2.2,7.1c-0.1,2.4,0.7,4.8,0.5,7.2
				c-0.1,1.2-0.5,2.3-0.5,3.6c0.1,1.3,0.2,2.3-0.1,3.7c-0.6,2.5-0.5,5.3-1.4,7.7c-1.8,5-3.8,9.5-4.1,14.9c-0.1,2.4-0.5,4.7-0.5,7.2
				s0.4,4.8,0.8,7.2c0.4,2.9-0.5,5.9-0.1,8.8c0.2,1.5,1.1,3,1.6,4.4c0.6,1.4,1,1.8,2.5,2.4l0.4,0.1c0.7,0.2,1.4,0.5,2.1,0.9
				s1.3,0.8,1.6,1.6c0.2,0.6,0.2,1.6-0.3,2c-0.5,0.5-1,0.3-1.7,0.3c-1.2,0-2.4-0.1-3.6,0s-2.7,0.3-3.8-0.1c-1.8,0.6-3.2-6.6-3.3-8
				c-0.1-1.6-0.1-2.6-0.8-4c-0.7-1.4-0.6-2.7-0.6-4.2c-0.1-2.7-0.1-5.5-0.5-8.2c-0.4-2.8-0.9-5.6-0.9-8.4c0-1.6-0.2-2.9-0.5-4.5
				c-0.3-1.4-0.9-2.8-1.1-4.2c-1.5,0.6-3.1,0.9-4.5,0.7h-0.1c-1,3.3-1.7,6.8-2.2,10.1c-0.5,3.1-0.5,6.3-0.5,9.5c0,1.6,0.2,3.4,0,5
				c-0.1,1.4-0.9,2.6-1,4.1s0,3.1,0.3,4.6c0.3,1.4,0.9,3.7,2.1,4.5c0.9,0.9,4.3,3.9,1.9,4.9c-0.4,0.2-0.8,0.1-1.2,0.2
				c-0.5,0.1-0.9,0.3-1.4,0.4c-1,0.2-1.6-0.1-2.5-0.4c-0.8-0.3-2,0.6-2.8,0.1c-1.7-0.6-1.5-3.4-1.5-5c0-2-0.2-3.9-0.4-5.8
				c-0.1-1.1-0.4-1.5-0.7-2.5c-0.3-0.9-0.1-1.4,0.1-2.4c0.4-1.6,0.8-3.2,1-4.8c0.3-3.8-0.4-7.3-0.2-11.1c0.1-3.5,0.8-7.7-0.4-11
				c-4.5-0.6-8.2-1.9-12.4-3.4c-3.6-1.3-7.3-2.6-10.9-3.9l-0.1,0.3c-0.7,1.8-1.3,2.8-1.4,4.7c0,1.7-1.1,3.2-1.8,4.7
				c-1.5,3.2-4.1,5.1-6.4,7.7c-2.4,2.5-5.9,3.6-7.4,6.7c-1.1,2.3-2.5,5.7-2.4,8.3c0.1,2.3,0.5,6.2,2.7,7.3h0.1
				c0.6,0.3,1.4,0.3,2.1,0.5c0.8,0.2,1.8,0.7,2.4,1.3c0.5,0.5,0.9,1.6,0.7,2.4c-0.3,1-1.3,0.8-2.1,0.8c-0.7-0.1-2.1,0.6-2.6-0.1
				l-0.2,0.1c-0.4,0.2-0.8,0.1-1.2,0.2c-0.5,0.1-1.1,0.4-1.5,0.2l-0.3-0.2c-0.9,0-1.8-0.6-2.3-1.3s-0.8-1.7-1-2.6
				c-0.7-3.3-0.7-6.7-1.4-10c-0.5-2.4-1.4-4.8-1.6-7.2c0-0.6,0-1.2,0.2-1.7s0.7-0.8,1.1-1.1c2.7-2.2,4.9-4.9,6.5-8
				c0.8-1.6,1.5-3.3,1.6-5.1c0.1-1.8-0.5-3.8-0.9-5.5c-5.8,5.2-10.9,10.7-16,16.6c-2.9,3.3-5.6,6.8-7.5,10.7
				c-1.9,3.9-3,8.4-2.4,12.7c0.4,0.5,1,0.4,1.4,1c0.4,0.5,0.8,1.4,1.1,2.1c0.3,0.6,0.6,1.3,0.1,1.9c-0.3,0.4-1.2,0.8-1.7,0.6
				c-0.7,0.6-2,0.3-3-0.1l-0.2-0.1c-0.2,0.6-2.3,1.4-2.7,0.7l-0.2-0.1c-1.7-3.4-1.1-7.5,0-11.2s2.7-7.2,3-11
				c0.1-0.9,0.1-1.8,0.3-2.6c0.5-1.7,1.8-3,3-4.3c2.3-2.7,3.8-5.9,5.4-9.1c2.1-4.4,4.3-8.9,5.4-13.6c1-4.1,1.2-8.4,3.2-12
				c1.2-2.2,2.9-3.9,4.8-5.6c0.5-1.3-0.2-3.3,0-4.7c0.1-0.8,0.6-1.8,1.4-2c0.8-0.2,1.5,0.3,2.1,0.7c0.9,0.5,2,1.3,3.4,1.2l0.3-0.1
				c9-3.4,18.4-2.1,28.1-3.7c2.7-0.4,6.5-1.3,9.2-2c6.3-1.7,12.9-3.9,17-8.9c2.3-2.8,3.9-6.4,6.9-8.3L112.7,40.2z"/>
		</defs>
		<clipPath id="SVGID_4_">
			<use xlink:href="#SVGID_3_"  style="overflow:visible;"/>
		</clipPath>
		<g id="Details" class="st6">
			<g>
				<path class="st7" d="M120.4,49.6c-0.2-0.1-0.5-0.2-0.7-0.3s-1.1-0.1-1.5,0.4s-0.8,1.4-0.6,2.3c0.2,0.7,0.8,1.7,1.2,2.3
					c0.2,0.3,0.6,0.5,0.3,0.7c-0.1,0.1-0.3,0-0.4,0.2s0,0.3,0.1,0.5c0.5,0.7,1.2,1.3,1.7,2s1,1.4,1.4,2.1c0.5,0.8,1.1,1.4,1.8,2
					c0.2,0.2,0.7,0.7,1.1,0.7c0.3,0,0.5-0.5,0.6-0.7c0.4-1.1,0-2.3-0.1-3.4c-0.1-0.9,0.4-1.7,1.4-1.8c0.9-0.2,1.7-0.4,2.4-0.9
					c0.9-0.6,2-0.8,2.8-1.6c0.7-0.7,0.9-1.6,1.2-2.5c0.2-0.9,0.3-2.1,0-3c-0.1-0.4,0.2-1.3,0-1.6c-0.3-0.4-0.4-0.3-0.8-0.2
					c-0.6,0.2-2,0.6-2.6,0.4c-0.5-0.1-1,0-1.4,0c-0.6,0-1,0.1-1.4,0.6c-0.4,0.4-0.6,0.9-0.8,1.4c-0.1,0.4-0.3,1-0.5,1.3
					c-0.4,0.4-0.8-0.1-1.2,0c-0.4,0-0.7,0.5-1.1,0.7c-0.8,0.5-1.5-0.1-2.1-0.7C121,50.1,120.6,49.8,120.4,49.6z"/>
			</g>
			<path class="st3" d="M117.7,50.3c-0.6,2.4,0,4.7,1.8,6.4c0.8,0.7,1.5,0.9,2.1,1.8c0.4,0.6,0.5,1.3,1,1.9c0.6,0.8,1.6,1.7,2.6,1.8
				c0.5,0.1,0.7-0.6,0.2-0.8c-2.3-0.9-4.2-4.7-5.4-6.6c-1.5-2.3-1.7-2.1-2-4.5C117.9,50.2,117.7,50.2,117.7,50.3L117.7,50.3z"/>
			<g>
				<path class="st8" d="M120.6,51c-0.3,0.3-0.6-0.2-0.8-0.4c-0.3-0.2-0.9-0.2-0.8,0.3c0,0.4,0.4,0.9,0.6,1.2s0.1,0.7,0.3,1
					c0.2,0.4,0.7,0.7,0.9,1.2c0.2,0.4,0.3,0.7,0.6,1c0.3,0.4,0.2,0.6,0.3,1.1c0.1,0.2,0.2,0.4,0.4,0.5c0.1,0.1,0.3,0.1,0.4,0.1
					c0.4,0.3,0.2,0.8,0.8,1c0.4,0.2,0.8,0.2,1.2,0.4c0.2-0.2-0.1-0.8-0.1-1c0-0.3-0.1-0.7-0.1-1c-0.1-0.3-0.1-0.7-0.2-1
					c-0.1-0.4-0.4-0.6-0.6-0.9c-0.2-0.2-0.3-0.3-0.5-0.5c-0.3-0.2-0.2-0.1-0.5-0.1c-0.1-0.7-0.3-1.3-0.6-2c-0.2-0.3-0.3-0.9-0.6-1.1
					C121,50.6,121,50.9,120.6,51z"/>
			</g>
			<g>
				<path class="st9" d="M121,51.3c-0.4,0.2-0.6,0.3-0.6,0.8c0,0.4,0,0.9,0.5,1c0.1,0,0.5,0,0.5,0c0.2-0.1,0-0.3,0-0.5
					C121.3,52.2,121.4,51.5,121,51.3z"/>
			</g>
			<g>
				<path class="st10" d="M132,47.5c-0.6,0.1-1.1,0.2-1.7,0.2c-0.6,0-1.2-0.2-1.7,0.1c-1,0.5-1.7,2.4-1.2,3.4
					c0.3,0.6,0.9,0.8,1.6,0.9c0.7,0.2,1.1-0.1,1.7-0.2c0.7-0.1,1.1,0.4,1.7,0.3c0.7-0.1,1.2-0.7,1.4-1.3c0.4-0.8,0.4-1.5-0.1-2.3
					C133.4,48.2,132.4,46.8,132,47.5z"/>
			</g>
			<g>
				<path class="st11" d="M119.2,41.2c0.5-0.6,1.6-1.3,2.4-0.7c0.3,0.3,0.6,0.9,0.2,1.2c-0.3,0.3-0.9,0.1-1.3,0.1
					C120.2,41.7,119.2,41.7,119.2,41.2z"/>
			</g>
			<g>
				<path class="st11" d="M128.5,40.9c0-0.4,0.2-0.8,0.6-0.9c0.3-0.1,0.8,0,0.9,0.4C130.3,41.2,128.4,41.5,128.5,40.9z"/>
			</g>
			<g>
				<g>
					<path class="st9" d="M120.4,40.7c0.3,0.1,0.5,0.1,0.8,0c0.2,0,0.2-0.3,0-0.3c-0.3-0.1-0.5,0-0.8,0.1
						C120.2,40.5,120.3,40.7,120.4,40.7L120.4,40.7z"/>
				</g>
			</g>
			<g>
				<g>
					<path class="st9" d="M129.6,40.6c0.1,0,0.2,0,0.2-0.1c0.1-0.1,0.1-0.2,0-0.2c-0.1-0.1-0.1-0.1-0.2-0.1
						C129.4,40.2,129.4,40.5,129.6,40.6L129.6,40.6z"/>
				</g>
			</g>
			<g>
				<path class="st12" d="M120.9,50.1c0,0.8,0.1,1.5,0.4,2.2c0.4,0.8,1,1.5,1.5,2.4c0.4,0.7,0.9,1.3,1.3,2.1
					c0.3,0.8,0.4,1.7,0.5,2.5c0.1,0.9,0.5,1.7,0.6,2.5c0.3,1.5,0.8,3.1,1.9,4.2c1.7,1.7,4.8,3.6,6.8,1.4c1.6-1.7,1.1-4.9,0.1-6.8
					c-0.5-0.9-1.2-1.5-2-2c-0.3-0.2-0.6-0.5-0.9-0.7c-0.3-0.2-0.7-0.5-0.9-0.8c-0.4-0.4-0.8-1-1.1-1.5c-0.2-0.4-0.6-0.7-0.8-1.1
					c-0.1-0.2-0.2-0.3-0.3-0.5c-0.2,0-0.5,0.1-0.7,0.1s-0.5-0.1-0.7-0.1c-0.6,0-1-0.2-1.6-0.5c-1-0.5-2-1.3-2.8-2.1
					C121.9,51.2,121.5,50.3,120.9,50.1z"/>
			</g>
			<g>
				<path class="st13" d="M122.1,52.6c0.6,0.9,1.3,1.8,1.9,2.7c0.3,0.4,0.6,0.8,0.8,1.3c0.2,0.5,0.3,1,0.3,1.4
					c0.1,0.8,0.2,1.6,0.2,2.5c0.2,1.9,1.8,3.3,3.7,3.6c0.8,0.2,1.6,0.1,2.1-0.7s0.6-1.7,0.2-2.5c-0.7-1.7-2.4-3-2.7-5
					c0-0.2-0.1-0.4-0.1-0.6c0.9,1.1,1.9,2.2,2.7,3.4c0.9,1.2,1.9,2.6,2.1,4.1c0.1,0.9,0,2.2-0.6,2.9c-0.7,0.8-2,1-3,0.9
					c-1.4-0.2-2.8-0.7-3.4-2.1c-0.3-0.6-0.7-1.1-0.9-1.7c-0.3-0.8-0.4-1.5-0.7-2.3c-0.2-0.4-0.2-0.9-0.3-1.3c-0.1-1-0.3-2.3-0.8-3.2
					c-0.4-0.8-1.1-1.4-1.5-2.2c-0.4-0.7-0.9-1.2-1.1-2c-0.1-0.5-0.2-1.1-0.2-1.6c0,0,0.1,0.3,0.1,0.4c0,0.2,0.1,0.5,0.2,0.7
					C121.6,51.8,121.8,52.2,122.1,52.6z"/>
			</g>
			<g>
				<path class="st9" d="M121.9,53.3c-0.3,0.1-0.6-0.1-0.7,0.3c-0.1,0.3,0,0.7,0.3,0.9c0.2,0.1,0.3,0.1,0.5-0.1
					c0.1-0.1,0.3-0.2,0.2-0.4c0-0.1-0.3-0.1-0.3-0.3C121.8,53.6,121.9,53.4,121.9,53.3z"/>
			</g>
			<g>
				<path class="st9" d="M122.7,54.7c-0.5,0.1-1,0.4-0.6,0.9c0.1,0.2,0.4,0.4,0.7,0.3c0.3-0.1,0.2-0.4,0.2-0.7c-0.1,0-0.2,0.1-0.4,0
					C122.7,55,122.7,54.8,122.7,54.7z"/>
			</g>
			<g>
				<path class="st9" d="M123.6,56.1c-0.3,0.1-0.5,0.1-0.6,0.4c-0.1,0.3,0,0.5,0.3,0.6c0.4,0.1,0.3,0,0.4-0.3S124,56.4,123.6,56.1z"
					/>
			</g>
			<g>
				<path class="st14" d="M114,23.4c-0.2,1,1,2,1.5,2.9c0.5,1,0.1,1.9-0.2,2.9c0.2,0,0.4,0,0.6-0.2c-0.1,0.6-0.6,1.1-0.7,1.7
					c-0.1,0.5-0.2,1.1-0.1,1.6c0.1-0.1,0.6-0.6,0.7-0.7c-0.3,1.1,0.1,2.5,0,3.4c-0.3-0.4-0.7-0.6-1.1-0.9c-0.5,0.6-1.2,1.8-1.9,1.6
					c-0.8-0.2-0.9-3.3-0.3-4.8c0.6-1.6,1.6-3.2,1.6-4.9C113.9,25.4,113.3,23.9,114,23.4z"/>
			</g>
			<g>
				<path class="st14" d="M127.8,22.7c-0.3,2-2.2,3.7-1.9,5.8c0.3,2,1.7,3.9,1.8,6c1.2-1.2,1.1-4.9,1.2-6.6
					C129,27.2,128.9,21.7,127.8,22.7z"/>
			</g>
		</g>
	</g>
</g>
<g id="Outlines">
	<g>
		<g>
			<path class="st15" d="M48.9,64.5c7-2.6,14.3-2.9,21.7-3.5c5.9-0.5,11.5-1.4,17.3-2.8c5.2-1.2,10.4-2.5,14.8-5.7s5.9-8.5,10-11.8
				c0.3-0.2-0.1-0.7-0.4-0.5c-3.9,2.8-5.8,7.1-9.4,10.2c-5,4.4-12,6.4-18.3,7.9c-11.9,2.8-24.7,0.4-35.8,5.9
				C48.6,64.3,48.7,64.5,48.9,64.5L48.9,64.5z"/>
		</g>
	</g>
	<g>
		<g>
			<path class="st15" d="M45.4,66.9c-4.6,3.5-7.5,6.9-8.8,12.7c-1,4.5-1.5,8.6-3.3,13c-1.5,3.6-3.2,7.2-5,10.6
				c-1.6,3-4.1,5.3-5.7,8.3c-1.3,2.4-1.2,5.2-1.8,7.8c-1.7,6.3-4.6,11.9-2.2,18.4c0.2,0.6,1.1,0.3,0.9-0.2c-3-7.1,1.6-13.4,2.8-20.3
				c0.6-3.5,1.6-6.1,3.9-9c1.7-2.1,2.9-4.5,4.2-6.9c2.8-5.4,5.2-10.9,6.6-16.8c0.6-2.5,0.9-5.2,1.7-7.6C39.9,72.9,42.5,70,45.4,66.9
				C45.5,67,45.4,66.9,45.4,66.9L45.4,66.9z"/>
		</g>
	</g>
	<g>
		<g>
			<path class="st15" d="M24.2,131.6c0-12.2,8.3-21.5,16.2-29.8c3.6-3.8,7.3-7.7,11.4-11c5.8-4.7,12.1-4.1,19-2.4
				c0.3,0.1,0.4-0.3,0.1-0.4c-5.2-1.7-11.2-3.4-16.2-0.5c-5.3,3.1-10,8.7-14.2,13c-8,8.2-18.8,18.6-16.5,31.2
				C23.9,131.8,24.2,131.8,24.2,131.6L24.2,131.6z"/>
		</g>
	</g>
	<g>
		<g>
			<path class="st15" d="M49.9,91.9c0.2,3.5,0.5,6.8-1.1,10c-1.2,2.4-2.8,4.6-4.6,6.5c-2.2,2.4-3.4,3.1-2.9,6.5
				c0.6,4.5,1.6,9.3,2.5,13.8c0.5,2.8,1.3,4.9,4.1,5.7c0.3,0.1,0.5-0.4,0.1-0.5c-4.6-1.4-3.7-10.3-4.3-13.8c-0.6-3-2.6-6.6-0.6-9.6
				c0.9-1.3,2.8-2.3,3.8-3.5c3.8-4.3,6-9.7,3.3-15.1C50.2,91.6,49.9,91.7,49.9,91.9L49.9,91.9z"/>
		</g>
	</g>
	<g>
		<g>
			<path class="st15" d="M60.6,87.1c5.4,2.3,10.9,4.4,16.5,6.4c4.5,1.6,9.2,3.6,14.1,3.6c0.3,0,0.3-0.4,0.1-0.5
				c-10.2-3.2-20.3-6.7-30.6-9.8C60.5,86.8,60.5,87,60.6,87.1L60.6,87.1z"/>
		</g>
	</g>
	<g>
		<g>
			<path class="st15" d="M50.5,128.9c-4-3.3-2.2-11.8-0.1-15.4c1.9-3.2,5.8-5,8.5-7.5c2.5-2.4,4.5-4.7,6.1-7.8
				c1.4-2.7,1.5-5.6,2.5-8.5c0.1-0.4-0.5-0.7-0.7-0.3c-2.2,4.6-2.5,9.3-6.2,13.2c-1.7,1.8-3.4,3.7-5.4,5.3c-1.6,1.3-3.5,2.4-4.8,4.1
				c-3.3,4.5-5.5,13.3-0.1,17.1C50.5,129.2,50.6,129,50.5,128.9L50.5,128.9z"/>
		</g>
	</g>
	<g>
		<g>
			<path class="st15" d="M92.2,87.4c-0.5,2.4-2.4,3.3-2.9,5.4c-0.4,1.5,0.2,2.5,0.6,3.9c0.8,3.2,0.8,6.1,0.6,9.3
				c-0.2,3.3,0.3,6.5,0.4,9.8c0,3.1-1.4,5.9-1.4,8.8c-0.1,2.2,0.9,4.5,1.1,6.6c0.2,2.5-0.7,6.8,2,8.1c0.3,0.1,0.5-0.2,0.3-0.4
				c-1.8-2-1.2-6.2-1.4-8.7c-0.1-1.9-0.8-3.7-0.9-5.6c-0.1-1.7,0.6-3.5,0.8-5.2c0.3-2.7,0.2-5.4,0.2-8.2c-0.1-4.3,0.7-8.9,0.1-13.2
				c-0.1-0.6-0.3-1.1-0.4-1.6c-0.3-2.2,0-3.7,0.6-6c0.3-1.1,0.7-1.7,0.8-3C92.7,87.2,92.3,87.2,92.2,87.4L92.2,87.4z"/>
		</g>
	</g>
	<g>
		<g>
			<path class="st15" d="M102.4,90.1c-4.4,7.7-5.3,16-5.4,24.7c-0.1,5.9-3.5,14.4,1.4,19.4c0.4,0.4,1-0.2,0.6-0.6
				c-3.3-3.7-1.8-8.5-1.2-12.7c0.4-2.9-0.2-6-0.1-8.9c0.2-7,2.1-15.3,4.8-21.8C102.6,90.1,102.5,90,102.4,90.1L102.4,90.1z"/>
		</g>
	</g>
	<g>
		<g>
			<path class="st15" d="M113.2,89.2c-4.1,2.7-7.8,6.5-13,6.8c-0.5,0-0.4,0.7,0,0.7C105.5,97.2,110,93.1,113.2,89.2L113.2,89.2
				L113.2,89.2z"/>
		</g>
	</g>
	<g>
		<g>
			<path class="st15" d="M104.5,95.5c0.5,4.6,1.1,9.2,1.7,13.8c0.6,5.1,0.5,10.8,1.7,15.8c0.6,2.4,0.8,12.5,4.7,12.5
				c0.5,0,0.5-0.7,0-0.8c-3.1-0.2-4.6-16.9-4.7-18.5c-0.3-7.5-0.3-15.7-3.1-22.8C104.7,95.4,104.5,95.4,104.5,95.5L104.5,95.5z"/>
		</g>
	</g>
	<g>
		<g>
			<path class="st15" d="M121.1,58.2c-1.2,3-2.5,5.6-2.5,9c0.1,4.2,0.2,8.3-0.2,12.5c-0.8,7.3-4.4,13.6-5.4,20.8
				c-1,7.2,0.5,14.3,0.1,21.6c-0.2,3.4,0.2,9.9,4.5,10.5c0.1,0,0.2-0.1,0.1-0.2c-4.9-4.4-3.2-11.6-4-17.5c-1-7.3,0.2-15.4,2.6-22.3
				c1.8-5.1,3-9.7,3.4-15.2c0.2-2.9,0.3-5.6,0.1-8.4c-0.3-4.1,0.5-6.9,1.7-10.7C121.5,58.1,121.2,58,121.1,58.2L121.1,58.2z"/>
		</g>
	</g>
	<g>
		<g>
			<path class="st15" d="M44,68.2c0.6-1.6-0.7-6.8,2.2-6.2c1.5,0.3,3,2.2,4.7,1.5c0,0,0.1-0.1,0-0.1c-0.6-0.3-1.3-0.4-1.9-0.7
				c-0.6-0.3-1.1-0.6-1.6-0.9c-0.8-0.4-1.6-0.8-2.5-0.3C42.5,62.8,44.3,66.2,44,68.2C43.7,68.3,43.9,68.3,44,68.2L44,68.2z"/>
		</g>
	</g>
	<g>
		<g>
			<path class="st15" d="M113.4,41.2c-2.6-4.4-1.3-8.8-0.4-13.4c0.5-3,0.4-6,1.1-8.9c0-0.2-0.2-0.3-0.3-0.1c-0.6,1.2-0.8,2.2-1,3.6
				c-0.4,3-0.8,5.8-1.3,8.8C110.8,34.9,111.2,37.9,113.4,41.2C113.3,41.3,113.4,41.2,113.4,41.2L113.4,41.2z"/>
		</g>
	</g>
	<g>
		<g>
			<path class="st15" d="M113.9,19.1c1.6,1.1,2.6,5.2,3,7c0.5,2.3,0.2,5.4,2.6,6.8c0.1,0,0.2,0,0.1-0.1c-1.7-2.6-1.7-6.3-2.8-9.3
				c-0.5-1.3-1.2-4.5-2.9-4.6C113.8,18.8,113.8,19,113.9,19.1L113.9,19.1z"/>
		</g>
	</g>
	<g>
		<g>
			<path class="st15" d="M123.6,32.7c1.5-2.3,1.3-5,2.1-7.5c0.8-2.4,1.3-4.6,0.5-7c-0.1-0.2-0.4-0.2-0.4,0c0.2,3-0.5,4.9-1.4,7.7
				c-0.7,2.2-0.3,4.6-1.2,6.7C123.3,32.7,123.6,32.8,123.6,32.7L123.6,32.7z"/>
		</g>
	</g>
	<g>
		<g>
			<path class="st15" d="M126.1,18.4c1.6,3.1,0.5,5.6,0.9,8.8c0.2,1.8,0.3,3.3,0.2,5.1c-0.1,1.4-0.3,0.4-0.1,1.8
				c0,0.3,0.4,0.2,0.5,0c0.3-1,0.7-2.1,0.8-3.2c0.1-1.6-0.8-3.2-0.8-4.8c-0.1-2.9,0.5-5.3-1.2-7.8C126.3,18.1,126.1,18.2,126.1,18.4
				L126.1,18.4z"/>
		</g>
	</g>
	<g>
		<g>
			<path class="st15" d="M119.3,32.5c1.8-0.1,3.7,0.3,5.5,0.6c0.1,0,0.1-0.1,0-0.1c-1.8-1-3.5-1.5-5.5-0.8
				C119.1,32.3,119.1,32.5,119.3,32.5L119.3,32.5z"/>
		</g>
	</g>
	<g>
		<g>
			<path class="st15" d="M130.1,44.2c0.3-1.7,1-3.5,0.5-5.2c-0.6-2-1.7-3.7-3.2-5.2c-0.2-0.2-0.6,0.1-0.4,0.3c0.9,1.5,2.3,2.9,3,4.6
				c0.8,2-0.5,3.6-0.5,5.5C129.6,44.4,130.1,44.5,130.1,44.2L130.1,44.2z"/>
		</g>
	</g>
	<g>
		<g>
			<path class="st15" d="M128.7,42.3c0.9,3.2,4.8,4.9,4.4,8.4c0,0,0.1,0.1,0.1,0c1-1.1,0.2-2.4-0.5-3.5
				C131.5,45.5,129.7,44.2,128.7,42.3C128.8,42.2,128.7,42.2,128.7,42.3L128.7,42.3z"/>
		</g>
	</g>
	<g>
		<g>
			<path class="st15" d="M133.4,50.3c-0.2,0.3-0.3,0.7-0.4,1c-0.2,0.5-0.5,1-0.8,1.4c-0.2,0.4-0.7,1-1.1,1.1c-0.2,0-0.3-0.1-0.5-0.2
				c-0.1-0.1-0.3,0-0.4,0c0,0-0.1,0,0,0c0.1,1.2,1.6,0.3,2-0.2s0.8-1,1-1.6c0.2-0.4,0.5-1.1,0.4-1.5
				C133.5,50.2,133.4,50.2,133.4,50.3L133.4,50.3z"/>
		</g>
	</g>
	<g>
		<g>
			<path class="st15" d="M118.6,49.4c1.6-0.6,2.9,1.8,3.7,2.6c0.7,0.8,1.6,1.5,2.5,1.9c2.1,1,3.3,0,5.4-0.1c0.3,0,0.2-0.5-0.1-0.4
				c-1.8,0.5-3.3,0.9-5.1,0c-1.4-0.7-2.4-1.9-3.5-3C120.6,49.5,119.9,48.5,118.6,49.4C118.5,49.4,118.5,49.4,118.6,49.4L118.6,49.4z
				"/>
		</g>
	</g>
	<g>
		<g>
			<path class="st15" d="M120.8,49.9c-0.1,1.6,0.4,2.6,1.3,3.9c0.7,1,1.4,1.9,1.8,3.1c0.4,1.1,0.4,2.2,0.6,3.3c0.5,2.2,2,4.8,4.6,5
				c1.8,0.1,3.3-0.8,3.3-2.6c-0.1-3.5-4-5.2-4.4-8.5h-0.1c0.1,1.6,0.7,2.5,1.7,3.7c0.8,1,1.7,2,2.1,3.3c0.8,2.2-0.7,4.2-3.2,3.6
				c-4-1-3.3-5-4.3-8C123.3,54.4,120.8,52.7,120.8,49.9C120.9,49.8,120.8,49.8,120.8,49.9L120.8,49.9z"/>
		</g>
	</g>
	<g>
		<g>
			<path class="st15" d="M117.4,51.8c0.1,2.3,0.9,4.3,2.6,5.8c1.9,1.8,2.4,4.5,5.3,5.1c0.3,0.1,0.4-0.4,0.1-0.5
				c-1.8-0.5-2.7-1.6-3.4-3.2c-0.3-0.5-0.5-1-0.9-1.4c-1.7-1.7-3.2-3.3-3.5-5.9C117.5,51.8,117.4,51.8,117.4,51.8L117.4,51.8z"/>
		</g>
	</g>
	<g>
		<g>
			<path class="st15" d="M113.3,42.5c-0.6,2.3-0.1,5.8,1.8,7.5c0.1,0.1,0.2,0,0.1-0.1c-0.8-1.1-1.3-2.2-1.6-3.5
				C113.4,45.1,113.5,43.8,113.3,42.5L113.3,42.5L113.3,42.5z"/>
		</g>
	</g>
	<g>
		<g>
			<path class="st15" d="M119.2,41.2c0.4-0.4,0.8-0.6,1.3-0.7c0.6-0.1,1.1,0.3,1.4,0.8c0,0.1,0.1,0,0.1,0c0-0.7-0.5-1.4-1.3-1.3
				C120.2,40,119.3,40.6,119.2,41.2C119.1,41.2,119.2,41.2,119.2,41.2L119.2,41.2z"/>
		</g>
	</g>
	<g>
		<g>
			<path class="st15" d="M128.5,40.9c0.1-0.3,0.2-0.5,0.5-0.7c0.4-0.2,0.6,0.1,1,0.2c0.1,0,0.1,0,0.1-0.1c0-0.5-0.6-0.8-1-0.7
				C128.4,39.8,128.5,40.4,128.5,40.9C128.4,40.9,128.5,40.9,128.5,40.9L128.5,40.9z"/>
		</g>
	</g>
	<g>
		<g>
			<path class="st15" d="M115,133c0.7,0.7,1.9,1.2,2.1,2.2c0.1,0.4,0.1,0.8,0.1,1.1c0,0.4,0,0.3-0.3,0.5c0,0-0.1,0.1,0,0.2
				c0.1,0.4,0.5,0.3,0.8,0.1c0.3-0.3,0.3-0.9,0.2-1.3c-0.1-0.4-0.2-0.9-0.5-1.2C116.8,133.7,115.7,133.7,115,133
				C115,132.9,114.9,132.9,115,133L115,133z"/>
		</g>
	</g>
	<g>
		<g>
			<path class="st15" d="M118.8,133.3c0.4,0.5,0.9,0.8,1.3,1.4c0.1,0.2,0.3,0.5,0.3,0.7s0,1-0.2,1.1c0.1,0,0.2,0.1,0.3,0.1l0,0
				c-0.2-0.3-0.5-0.1-0.5,0.2l0,0c0,0.1,0.2,0.2,0.3,0.2c0.8-0.1,0.9-1.4,0.7-2C120.6,134.3,119.7,133.6,118.8,133.3L118.8,133.3
				L118.8,133.3z"/>
		</g>
	</g>
	<g>
		<g>
			<path class="st15" d="M116.4,131.6c0.9,0.9,2.2,1.1,3.3,1.6c1.1,0.6,2.8,2.1,1.6,3.4c-0.1,0.2,0.1,0.4,0.2,0.2
				c0.8-0.8,0.7-2.3-0.1-3.1C120.3,132.5,118.1,131.9,116.4,131.6C116.4,131.5,116.4,131.6,116.4,131.6L116.4,131.6z"/>
		</g>
	</g>
	<g>
		<g>
			<path class="st15" d="M112.3,137.2c1.7,0.6,3.5,0.1,5.3,0.1c1.5,0,3.1,0.6,4.2-0.6c0.1-0.1,0-0.3-0.2-0.2
				c-1.3,0.6-3.3,0.3-4.7,0.3c-1.5,0-3,0.3-4.5,0.1C112.2,136.9,112.1,137.1,112.3,137.2L112.3,137.2z"/>
		</g>
	</g>
	<g>
		<g>
			<path class="st15" d="M94.5,134.3c0.2,1.5,1.4,3.1,0.6,4.5c-0.2,0.3,0.3,0.6,0.5,0.3C96.7,137.3,95,136,94.5,134.3
				C94.6,134.3,94.5,134.3,94.5,134.3L94.5,134.3z"/>
		</g>
	</g>
	<g>
		<g>
			<path class="st15" d="M98.5,135c0,0.2,0.1,0.4,0.2,0.5c0.2,0.4,0.3,0.8,0.5,1.2c0.1,0.4,0.3,0.7,0.4,1.1c0.1,0.5,0,0.6-0.4,0.9
				c-0.1,0.1,0,0.2,0.1,0.2c0.9,0.2,1-1,0.8-1.6C99.8,136.6,99.1,135.8,98.5,135C98.6,134.9,98.5,135,98.5,135L98.5,135z"/>
		</g>
	</g>
	<g>
		<g>
			<path class="st15" d="M98.5,133.7c0.3,0.6,0.7,1.1,1.1,1.6c0.8,0.8,2.5,2.5,0.8,3.3c-1.4,0.6-3.2,0.7-4.6,0.4
				c-1.1-0.2-2.3,0.2-3.3,0c-0.1,0-0.1,0.1-0.1,0.1c0.5,0.4,0.9,0.4,1.5,0.4c0.7,0,1.4,0,2.1,0.2c0.3,0.1,0.5,0.2,0.9,0.3
				c1,0.1,2.1-0.4,3-0.6c0.5-0.1,1.1-0.3,1.5-0.7c1.2-1.6-1.5-4.5-2.8-5.1C98.6,133.5,98.5,133.6,98.5,133.7L98.5,133.7z"/>
		</g>
	</g>
	<g>
		<g>
			<path class="st15" d="M49.5,130c0.5,0.9,1.7,1.4,1.7,2.6c0,1.2-2.5,2-3.3,1.2c-0.2-0.2-0.6,0.1-0.4,0.4c0.7,0.8,1.4,0.3,2.3,0.2
				c0.4-0.1,0.8,0.1,1.2,0c0.3-0.1,0.5-0.4,0.6-0.7c0.3-0.7,0.1-1.5-0.3-2.1C51,130.9,50.2,130.2,49.5,130
				C49.5,129.9,49.5,130,49.5,130L49.5,130z"/>
		</g>
	</g>
	<g>
		<g>
			<path class="st15" d="M52.8,130.4c0.1,0.2,0.2,0.3,0.4,0.5c0.5,0.4,1,0.6,1.2,1.3c0.1,0.4,0.2,1.5-0.3,1.6
				c-0.3,0.1-0.3,0.5,0,0.6c0.9,0.1,1.1-1,1-1.7C54.8,131.4,53.8,130.8,52.8,130.4C52.8,130.3,52.8,130.3,52.8,130.4L52.8,130.4z"/>
		</g>
	</g>
	<g>
		<g>
			<path class="st15" d="M50.2,128.9c0.8,0.6,1.7,0.6,2.6,0.9c1.1,0.4,2.3,1.1,2.6,2.3c0.2,0.7,0,1.6-0.8,1.7c-0.3,0-0.7-0.1-1-0.1
				c-0.8-0.1-1.6,0.2-2.5,0c-0.1,0-0.3,0.1-0.2,0.2c0.3,1.1,2.1,0.3,2.8,0.3c0.8-0.1,1.8,0.2,2.2-0.7c0.5-1-0.1-2.4-0.9-3.1
				c-0.5-0.4-1.2-0.7-1.8-0.9c-1-0.3-2-0.2-2.9-0.7C50.2,128.6,50.1,128.8,50.2,128.9L50.2,128.9z"/>
		</g>
	</g>
	<g>
		<g>
			<path class="st15" d="M23.7,131.3c0,0.8,1.1,0.9,1.5,1.4c0.5,0.5,0.7,1.2,0.9,1.8c0.5,1.2,0.4,2.4-1.1,2.5
				c-0.2,0-0.3,0.3-0.1,0.4c1.4,0.7,2.5-0.9,2.2-2.2c-0.2-0.8-0.7-1.8-1.3-2.5c-0.5-0.7-1.4-0.8-2-1.4
				C23.7,131.3,23.7,131.3,23.7,131.3L23.7,131.3z"/>
		</g>
	</g>
	<g>
		<g>
			<path class="st15" d="M24.1,133.6c0.3,0.4,0.7,0.8,0.8,1.3c0.2,0.6,0.2,1.3-0.2,1.8c-0.6,0.8-1.9,0.4-2.7,0.1
				c-0.4-0.1-0.5,0.4-0.2,0.6c1.1,0.4,2.8,0.9,3.5-0.4C26,135.9,25.4,133.9,24.1,133.6C24.1,133.5,24.1,133.6,24.1,133.6L24.1,133.6
				z"/>
		</g>
	</g>
	<g>
		<g>
			<path class="st15" d="M20.9,134.3c0.2,0.8,1.2,2.1,0.4,2.8c-0.3,0.3-0.8,0.4-1.1,0.5c-0.4,0.1-0.7,0-1-0.1
				c-0.1,0-0.3,0.1-0.3,0.2c0,1.2,2.3,0.3,2.8,0C22.8,136.8,21.7,135.1,20.9,134.3L20.9,134.3L20.9,134.3z"/>
		</g>
	</g>
	<g>
		<g>
			<path class="st15" d="M128.3,51c0.3,0.3,0.5,0.5,1,0.5c0.2,0,0.5-0.1,0.7-0.2c0.1-0.1,0.2-0.1,0.3-0.2c0,0,0.2-0.4,0.1-0.2
				c0.2-0.3,0.1-0.8-0.3-0.8c-0.2,0-0.3-0.1-0.5,0c-0.2,0-0.3,0.2-0.5,0.3c-0.1,0.1-0.6,0.5-0.8,0.5C128.3,50.8,128.2,50.9,128.3,51
				L128.3,51z"/>
		</g>
	</g>
	<g>
		<g>
			<path class="st15" d="M132,50.8c0.4,0.2,0.8,0.2,1.1-0.1c0.1-0.1,0.1-0.3,0-0.4c-0.1-0.1-0.2-0.2-0.3-0.3
				C132.3,49.1,131.2,50.5,132,50.8L132,50.8z"/>
		</g>
	</g>
	<g>
		<g>
			<path class="st15" d="M125.6,54.2c0.6,1.1,1.1,2.2,1.5,3.4c0.3,0.9,1,2.2,0.9,3.2c0,0.1,0.1,0.1,0.1,0c-0.4-1.1-0.4-2.3-0.8-3.4
				C126.9,56.2,126.3,55.2,125.6,54.2L125.6,54.2L125.6,54.2z"/>
		</g>
	</g>
</g>
</svg>
