<?xml version="1.0" encoding="utf-8"?>
<!-- Generator: Adobe Illustrator 22.1.0, SVG Export Plug-In . SVG Version: 6.00 Build 0)  -->
<svg version="1.1" id="Layer_1" xmlns="http://www.w3.org/2000/svg" xmlns:xlink="http://www.w3.org/1999/xlink" x="0px" y="0px"
	 viewBox="0 0 1000 766" style="enable-background:new 0 0 1000 766;" xml:space="preserve">
<style type="text/css">
	.st0{fill:#FFFFFF;}
</style>
<path class="st0" d="M284,479.3c0.5,6.4,16.9,10.7,16.9,41.5c4.1,51.5,3,63-4.6,106.1c-3.7,20.1-14.4,43.7-30.5,52.3
	c-2.6-22.8,4.1-42.3,5.7-65.2c0.6-7.8,4.9-60.5,7.8-74.7C281.3,529.1,282.1,489.4,284,479.3z M987.1,240.2
	c-71,1.3-144.4,10.7-215,17.2c-44.5,4.1-89.5,7-133.8,1.3c-35.9-4.8-71-15.2-107-17.4c-25.5-1.6-51.2,1-76.7-1.8
	c-19.1-2.1-38-7-56.5-12c-29.7-8-59.5-16-87.1-29.2c-1.3-5.7-7-13.2-12.3-15.8c-5.6-2.7-12.6-3.8-15.8-9.1
	c-2.9-4.5-1.9-10.7-4.6-15.3c-2.4-4-7-6.2-9.3-10.4c-1.8-3-1.8-6.7-2.2-10.2c-1.4-10.5-7.7-20.4-16.4-26.3c4.9-4.5,6.4-7.5,7-14
	c0.3-4-1.1-8-2.7-11.6C247.5,69,237,53.9,223.9,41.4c-6.7-6.4-13.9-9.7-21.1-7c-12.6-10-26.5-20.6-42.6-20.4
	c-5.1,0-10.2,1.1-15.5,1.6c-5.3,0.3-10.5,0.6-15.6,0c-25.2-3.3-45.8,25.7-48.8,29.7c-8.1,1.3-12,9.9-14.2,15.8
	C64,67,65.2,72.7,68.5,78c-11.8,7.7-14,8.8-29.2,15.3c-6.4,2.7-13.9,2.2-19.6,6.2c-4.1,2.9-7,7.3-7.3,12.3c-0.3,4.9,2.6,10,7.2,12
	c-2.6,0.8-2.9,4.5-1.8,6.9c1.1,2.4,3.3,4.1,4.5,6.7c1.1,2.2,1.1,4.8,1.9,7c2.1,6.2,8.5,10,14.8,11.6s16.4,3.3,22.8,4.3
	c-12.6,3.2-24.4,16.3-29.8,28.1c-1.8,3.7-3.2,7.7-3.3,11.8c-0.2,4.1,1,8.5,4,11.2c3.2,3,8,3.8,12.4,3.8c2.6,0,5.3-0.5,6.7-2.6
	c1.1-1.4,2.1-5.1,2.7-6.7c12.8,8.6,30,6.1,44.8,1.3c4.1-1.3,8.3-2.9,12.4-4.3c-2.9,12.6,7,25.4,13.6,36.4c4.8,8.1,7.8,16.9,11,25.8
	c4.8,13.7,9.7,27.8,10.2,42.4c0.3,8.5-1,16.7-0.3,25.2c1.1,15.8,8.8,30.6,11,46.3c1.9,13.7-0.2,28.4,5.4,41.2
	c3.2,7.5,8.8,13.6,13.9,19.9c46.4,56.6,67.6,130.8,53.3,202.6c-1.9,9.3-9.6,23.6-17.5,28.7c-10.7,6.9-31.6,7-29.2,24.1
	c2.1,15,8.9,25.4,33.5,17.2l0.8-1.3c2.7,4.5,8.1,6.7,13.4,6.9c5.3,0.2,24.4-9.7,30.3-17.1c-3,4.1-4.8,9.4-3.8,16.6
	c1.1,8.3-0.2,12.9,3.8,15.8c6.5,4.8,24.2,1.6,37.3-3.5c0.3,0.6,21.2,13.1,33.5-5.1c4.3-6.4,12-57.6,14.2-78.5
	c1.6-15.5,1.4-31.4,6.9-45.9c5.9-16,17.9-28.7,29.5-41.2c-3.2-2.9-8-4-12.1-2.9c9.3-14,17.4-28.7,23.9-44.2
	c-5.7-0.2-11.5,0-17.2,0.6c10.7-8.8,15.2-7.3,21.9-19.5c0.3,14.7,6.5,13.6,3.7,27.9c10.4-13.1,18.7-13.1,24.7-28.7
	c5.9,9.4,12.9,3.7,20.9,11.3c1.6-6.1,3.3-12.1,4.9-18.2c5.6,4,12.4,6.2,19.3,6.2c-3.8-5.1,3.2-11.3,9.1-13.7
	c14.7-5.9,36.1-11.5,51.5-14.5c-1.9,12-0.8,24.4,3.5,35.7c2.9-4,4.9-8.6,6.1-13.6c10.4,26.8,28.4,50.6,51.5,67.8
	c1.1-2.1,2.2-4,3.5-6.1c8.9,11.5,20.4,20.9,33.5,27.1c9.9,4.6,20.9,7.8,28.4,15.8c9.1,9.6,11,23.9,11.2,37.2
	c0.2,8.1-1,18.8-4.1,26.3c-6.1,14.5-43.2,28.1-45.1,42c-1,6.5,3.5,17.2,14.8,18.3c14.8,1.4,25.7-1.4,31.4-4.6
	c4.3,4.3,9.7,3.3,16.1-0.2c6.2-3.3,10-10,13.4-16.3l3-10c1.1-5.4,4-16.7,5.3-22.2c2.1-8.6,7.2-16.3,9.9-24.7c7-23-5.3-49.1,4-71.3
	c7.8,4.9,29.2,17.1,36.7,22.7c19.8,14.8,32.7,36.7,45,58.1c3,5.4,6.2,10.8,7.8,16.7c1.4,4.9,1.6,10.2,1.9,15.3
	c0.5,12.9-3,26.3-9.6,32.4c-5.3,4.8-22.3,12-23.9,19.5c0,0.3-8.5,20.4-0.5,26.2c3.3,2.4,29.2,6.1,45.5-0.5c3.3,1.9,22,5.4,27.8,0.3
	c8.8-7.8,5.3-75.1,4.9-80.6c-1.8-23.9-11.3-44.5-18.8-67c-2.7-8.1-0.6-16-4.5-23.9c-3.8-8.3-10.4-15.3-18.3-19.6
	c-3-1.8-6.5-3-8.6-5.9c-1.9-2.4-2.4-5.4-3-8.5c-2.4-12.4-4.9-25-7.3-37.5c1.8-10.4,1-21.2-1.9-31.3c-1.1-4-2.7-8-2.6-12
	c0.2-4.6,2.6-9.1,3-13.7c0.5-4.6-1.9-10.4-6.7-10.5c1.8-4.3,4.9-8,8.9-10.2c-3.2-1.8-6.1-4.1-8.5-6.9c12.6-13.1,22.5-30.3,25.8-48
	c0.8,14.5,7.7,28.4,18.8,37.8c-3.7-15.5-1.8-32.2,5.3-46.6c7.5,12.9,19.9,22.8,34.1,27.1c-3.8-7.3-6.4-15.3-7.5-23.6
	c12.4,7.2,26.8,10.7,41,10.5c-1.1-3.2-2.4-6.4-3.5-9.6c6.7-0.2,13.2-0.2,19.9-0.3c-1.6-4.8-3.2-9.4-4.8-14.2
	c7,0.8,16.1,0.5,18.8-6.1c0.8-1.9,0.8-4,2.1-5.6c2.4-3.3,7.3-2.7,11.2-4.3c5.4-2.4,7.3-8.9,9.7-14.4c3.8-8.6,10.4-15.8,18.7-20.3
	c-9.3-9.9-17.5-20.7-24.7-32.1c11.6-2.1,22.3-8.3,30.1-17.1c-1.8-0.3-3.2-1.6-3.7-3.3C983.3,253.4,986.8,246.9,987.1,240.2z"/>
</svg>
