<?xml version="1.0" encoding="utf-8"?>
<!-- Generator: Adobe Illustrator 22.1.0, SVG Export Plug-In . SVG Version: 6.00 Build 0)  -->
<svg version="1.1" id="Card_1" xmlns="http://www.w3.org/2000/svg" xmlns:xlink="http://www.w3.org/1999/xlink" x="0px" y="0px"
	 viewBox="0 0 155.9 155.9" style="enable-background:new 0 0 155.9 155.9;" xml:space="preserve">
<style type="text/css">
	.st0{clip-path:url(#SVGID_2_);}
	.st1{fill:#EFC567;}
	.st2{fill:#C9AD6D;}
	.st3{fill:#EFDABA;}
	.st4{fill:#0D0505;}
	.st5{fill:#17090B;}
	.st6{fill:#9A4D3D;}
	.st7{fill:#FFFFFF;}
	.st8{fill:#D99FA8;}
</style>
<g id="Colours">
	<defs>
		<path id="SVGID_1_" d="M108.7,114.7c0.3,1.8,0.7,3.5,0.7,5.3c0,0.9,0,1.9,0.1,2.8c0.2,2.8,1.5,5.5,1.2,8.3c-2-1-3.3-5.2-3.4-7.7
			c-0.1-2.5,0.5-10.3,0.5-10.3c0-0.9,0.3-2.3,0.3-3.1C108.3,111.3,108.4,113.4,108.7,114.7z M9.8,69.5C9.8,69.8,9.6,70,9.3,70
			c1.1,1.3,2.6,2.1,4.3,2.4c-1,1.6-2.2,3.2-3.5,4.6c1.2,0.6,2.1,1.7,2.6,2.9c0.3,0.8,0.6,1.7,1.4,2c0.5,0.2,1.2,0.1,1.6,0.6
			c0.2,0.2,0.2,0.5,0.3,0.8c0.4,0.9,1.7,1,2.7,0.9c-0.2,0.7-0.5,1.4-0.7,2c0.9,0,1.9,0,2.8,0c-0.2,0.5-0.3,0.9-0.5,1.4
			c2,0,4.1-0.5,5.8-1.5c-0.1,1.2-0.5,2.3-1.1,3.4c2-0.6,3.8-2,4.9-3.9c1,2,1.3,4.4,0.8,6.6c1.6-1.3,2.6-3.3,2.7-5.4
			c0.5,2.5,1.9,5,3.7,6.8c-0.3,0.4-0.7,0.7-1.2,1c0.6,0.3,1,0.8,1.3,1.4c-0.7,0-1,0.8-0.9,1.5c0.1,0.7,0.4,1.3,0.4,1.9
			c0,0.6-0.2,1.2-0.4,1.7c-0.4,1.4-0.5,3-0.3,4.5c-0.3,1.8-0.7,3.6-1,5.3c-0.1,0.4-0.2,0.9-0.4,1.2c-0.3,0.4-0.8,0.6-1.2,0.8
			c-1.1,0.6-2.1,1.6-2.6,2.8c-0.5,1.1-0.3,2.3-0.6,3.4c-1.1,3.2-2.4,6.1-2.7,9.5c-0.1,0.8-0.6,10.3,0.7,11.5c0.8,0.7,3.5,0.2,3.9,0
			c2.3,0.9,6,0.4,6.5,0.1c1.1-0.8-0.1-3.7-0.1-3.7c-0.2-1.1-2.6-2.1-3.4-2.8c-0.9-0.9-1.4-2.8-1.4-4.6c0-0.7,0.1-1.5,0.3-2.2
			c0.2-0.8,0.7-1.6,1.1-2.4c1.8-3,3.6-6.2,6.4-8.3c1.1-0.8,4.1-2.5,5.2-3.2c1.3,3.2-0.4,6.9,0.6,10.2c0.4,1.2,1.1,2.3,1.4,3.5
			c0.2,0.8,0.6,2.4,0.8,3.2l0.4,1.4c0.5,0.9,1,1.8,1.9,2.3c0.9,0.5,1.7,0.6,2.3,0c0.8,0.4,2.4,0.9,4.5,0.7c1.6-0.2,2.2-1.7,2.1-2.6
			c-0.3-2-5.6-3.9-6.4-6c-0.4-1.1-0.6-2.6-0.6-3.7c0-1.9,0.3-3.9,1.6-5.3c1.1-1.1,2.6-1.6,4-2.2c1.9-0.9,3.5-2.2,4.8-3.9
			c0.2,0.3,0.3,0.6,0.5,0.9c3.3-2.4,5.9-5.8,7.3-9.6c0.2,0.7,0.5,1.3,0.9,1.9c0.6-1.6,0.8-3.4,0.5-5.1c2.2,0.4,5.3,1.2,7.3,2.1
			c0.8,0.3,1.8,1.2,1.3,2c1,0,2-0.3,2.8-0.9c0.2,0.9,0.5,1.7,0.7,2.6c1.1-1.1,2.1-0.3,3-1.6c0.9,2.2,2,2.2,3.5,4.1
			c-0.4-2,0.5-1.9,0.5-4c1,1.7,1.6,1.5,3.1,2.8c-0.8-0.1-1.6-0.1-2.4-0.1c0.9,2.2,2.1,4.3,3.4,6.3c-0.6-0.2-1.3,0-1.7,0.4
			c1.7,1.8,3.4,3.6,4.2,5.9c0.8,2.1,0.8,4.3,1,6.5c0.3,3,1.4,10.3,2,11.2c1.8,2.6,4.7,0.8,4.8,0.7c1.8,0.7,4.4,1.2,5.3,0.5
			c0.6-0.4,0.4-1.1,0.5-2.3c0.1-1-0.1-1.8-0.5-2.4c0.9,1,3.6,2.4,4.3,2.4c0.7,0,1.5-0.3,1.9-1l0.1,0.2c3.5,1.2,4.5-0.3,4.8-2.4
			c0.3-2.4-2.6-2.4-4.2-3.4c-1.1-0.7-2.2-2.8-2.5-4.1c-2.1-10.2,1-20.8,7.6-28.8c0.7-0.9,1.5-1.8,2-2.8c0.8-1.8,0.5-3.9,0.8-5.9
			c0.3-2.2,1.4-4.3,1.6-6.6c0.1-1.2-0.1-2.4,0-3.6c0.1-2.1,0.8-4.1,1.5-6c0.4-1.3,0.9-2.5,1.6-3.7c0.9-1.6,2.3-3.4,1.9-5.2
			c0.6,0.2,1.2,0.4,1.8,0.6c2.1,0.7,4.6,1.1,6.4-0.2c0.1,0.2,0.2,0.7,0.4,1c0.2,0.3,0.6,0.4,1,0.4c0.6,0,1.3-0.1,1.8-0.5
			c0.4-0.4,0.6-1,0.6-1.6c0-0.6-0.2-1.1-0.5-1.7c-0.8-1.7-2.5-3.5-4.2-4c0.9-0.2,2.3-0.4,3.3-0.6s1.8-0.8,2.1-1.7
			c0.1-0.3,0.1-0.7,0.3-1c0.2-0.3,0.5-0.6,0.6-0.9s0.1-0.9-0.3-1c0.7-0.3,1.1-1,1-1.7c0-0.7-0.5-1.4-1-1.8c-0.8-0.6-1.9-0.5-2.8-0.9
			c-2.2-0.9-2.5-1.1-4.2-2.2c0.5-0.8,0.6-1.6,0.3-2.4c-0.3-0.8-0.9-2.1-2-2.3c-0.4-0.6-3.4-4.7-6.9-4.2c-0.7,0.1-1.5,0.1-2.2,0
			c-0.7-0.1-1.5-0.2-2.2-0.2c-2.3,0-4.3,1.5-6.1,2.9c-1-0.4-2,0.1-3,1c-1.9,1.8-3.4,3.9-4.4,6.3c-0.2,0.5-0.4,1.1-0.4,1.7
			c0.1,0.9,0.3,1.4,1,2c-1.3,0.8-2.1,2.2-2.3,3.7c-0.1,0.5-0.1,1-0.3,1.5c-0.3,0.6-1,0.9-1.3,1.5c-0.4,0.7-0.2,1.5-0.7,2.2
			c-0.5,0.7-1.5,0.9-2.3,1.3c-0.8,0.4-1.6,1.4-1.7,2.3c-3.9,1.9-8.2,3-12.4,4.2c-2.7,0.7-5.3,1.4-8.1,1.7c-3.6,0.4-7.3,0-10.9,0.2
			c-5.1,0.3-10.1,1.8-15.3,2.5c-6.3,0.8-12.7,0.4-19.1-0.2c-10.1-0.9-20.5-2.3-30.6-2.5C8.6,68.1,9.1,69,9.8,69.5z"/>
	</defs>
	<clipPath id="SVGID_2_">
		<use xlink:href="#SVGID_1_"  style="overflow:visible;"/>
	</clipPath>
	<g id="Base" class="st0">
		
			<rect x="2.7" y="33.4" transform="matrix(-1 -4.489665e-11 4.489665e-11 -1 160 177.2794)" class="st1" width="154.7" height="110.4"/>
		<g>
			<path class="st1" d="M99.6,81.1L99.6,81.1c-1.4,1.4-2.8,2.8-4.2,4.2c-0.7-1.9-1.2-3.9-1.3-6c-1.1,1.2-2.2,2.3-3.3,3.5
				c-0.1-1.1-0.2-2.3-0.3-3.4c-5.6-0.1-11.2,3.1-13.9,8c-1.6-1.2-3-2.6-4.3-4.1c-0.4,0.7-0.3,1.5-0.4,2.3c0,0.8-0.4,1.7-1.2,1.9
				c-0.4,0.1-0.7,0-1.1-0.2c-2.9-0.9-5.7-1.8-8.6-2.8c-0.7,0.7,0.3,2.2-0.6,2.7c-0.4,0.2-0.8,0-1.2-0.2c-1.8-1-3.6-1.9-5.5-2.9
				c0.6,3.1,0.8,6.3,0.5,9.5c0,0.3-0.1,0.6-0.2,0.8c-0.2,0.4-0.6,0.6-0.9,0.9c-0.6,0.5-0.9,1.3-1.2,2.1c-1.2,3.3-2.4,6.7-3.5,10
				c5-2.2,10.9-2.2,15.9-0.2c3.1,1.2,5.9,3.3,9.2,3.5c1.1,0.1,2.2,0,3.2-0.2c6.7-1.1,13-4.4,17.7-9.3c1.2-1.3,2.2-2.1,2.2-3.9
				c0.1-1.9-0.3-3.7-0.2-5.7C96.7,88.2,97.8,84.5,99.6,81.1z"/>
		</g>
		<g>
			<path class="st2" d="M97,104.1L97,104.1c-0.2,1.5-0.3,3.1,0.1,4.5c0.4,1.2,1.1,2.3,1.8,3.5c3.6,6.6,1.9,14.6,3.1,22
				c0.1,0.7,0.3,1.3,0.1,2c-0.1,0.7-0.6,1.3-1.3,1.4c-0.7,0.1-1.4-0.5-1.9-1c-2.1-2.4-3.7-5.3-6-7.5c-3.1-2.9-7.2-4.4-11.1-5.8
				c-2.7-1-5.5-2-8.3-2.4c-2.1-0.3-4.3-0.3-6.4-0.3c-1.9,0-3.8,0.1-5.6-0.6c-1.5-0.5-2.8-1.5-4.4-1.8c-2-0.4-4.2,0.7-5.2,2.5
				c-0.3,0.6-0.5,1.2-0.5,1.8c-0.1,0.9,0.1,1.9-0.2,2.8c-0.4,1.3-1.9,2.5-1.4,3.8c-0.7,0.2-1.2-0.7-1.4-1.3
				c-0.6-1.8-0.9-3.7-1.1-5.6c-0.1-1.3-0.1-2.7,0.6-3.8c0.8-1.4,2.6-2.2,2.9-3.7c0.1-0.8-0.1-1.9,0.6-2.4c0.3-0.2,0.6-0.3,0.9-0.4
				c1.3-0.9-0.7-3.2,0.1-4.5c-0.7,1.1-1.4,2.2-2.4,3c-1,0.9-2.3,1.6-3.4,2.5c-1,0.9-1.9,2-2.6,3.2c-1.2,1.7-2.4,3.4-3.6,5.1
				c-2.3,3.3-4.7,6.8-4.9,10.8c-1.3-1.6-1.8-3.9-1.1-5.8c0.6-1.8,2.1-3.2,2.3-5.1c0.2-1.1-0.1-2.2-0.2-3.3c-0.1-2.9,1.6-5.6,3.3-8
				c0,0.5,0.1,0.9,0.1,1.4c0.7-1.2,1.7-2.2,2.9-2.8c-0.1,0.6,0.5,1.1,1,1.2s1.2-0.1,1.7-0.3c1.9-0.8,3.5-2.1,4.6-3.8
				c0.6-0.8,1-1.8,1.9-2.3c0.3-0.2,0.7-0.3,1-0.6c0.7-0.7,0.2-1.8,0.4-2.8c0.2-0.9,1-1.7,1.9-1.8c0.9-0.2,1.9,0.2,2.5,0.9
				c1.2-2.2,2.9-4.7,5.4-4.8c0.7,0,1.4,0.2,2.1,0.4c1.8,0.5,3.6,1,5.4,1.5c-0.6-0.9-1.1-1.9-1.4-2.9c3.8,1.7,7.8,3,11.8,3.8
				c-0.2-0.7-0.4-1.4-0.7-2.1c1.6,1,3.1,2,4.7,3.1c1.2,0.8,2.9,1.5,3.8,0.4c0.4-0.5,0.7-1.3,1.3-1.1c0.3,0.1,0.4,0.4,0.5,0.7
				c1.3,2.3,3.4,0.5,5.2,0.8C98.4,98.9,97.2,102.4,97,104.1z"/>
		</g>
		<g>
			<path class="st2" d="M112.1,111.7L112.1,111.7c0.2,0.5,0.4,1,0.2,1.4c-0.1,0.3-0.3,0.5-0.5,0.8c-0.4,0.7-0.3,1.6-0.2,2.4
				c0.4,4.5,0.1,9.1-0.8,13.5c-2.6-3.8-1.8-8.9-2.4-13.4c-0.3-2.4-1-4.7-0.9-7.1c0.2-3,1.9-6.6,4.7-7.9
				C111.6,105.1,110.7,108.1,112.1,111.7z"/>
		</g>
		<g>
			<path class="st2" d="M131.9,61.6c-0.5,2.7-1.7,5.3-3.4,7.5c0-1.2-0.1-2.4-0.3-3.6c-1,1.4-2,2.7-3.2,3.9c0-2.5-0.3-5-0.9-7.5
				c-0.3,0.5-0.6,1-0.9,1.5c0-1.7-0.2-3.3-0.7-4.9c-0.1,0.8-0.5,1.6-1,2.3c-0.2-2.1-1.1-4.1-2.5-5.7c-2-2.2-4.3-3.4-5.3-6.4
				c1.9,1.6,3.9,3.3,5.8,4.9c0.8,0.7,1.7,1.4,2.7,1.8c1,0.4,2.3,0.3,3.1-0.5c0.6-0.6,0.9-1.5,1.5-2.1c0.9,0.9,2.3,1,3.6,1.2
				c0.9,0.2,1.7,0.5,2.5,0.7c2.8,1,5.7,2,8.5,3c0.6,0.2,1.2,0.4,1.6,0.8c0.5,0.5,0.8,1.1,0.9,1.7c0.5,2,0.2,4.3-1.3,5.8
				c-1.4,1.5-4,1.8-5.6,0.4L131.9,61.6z"/>
		</g>
		<g>
			<path class="st3" d="M133.4,38.5C133.4,38.5,133.4,38.5,133.4,38.5c-2.9-1.1-6-1.7-9.2-1.7c0.3,0.7,0.5,1.4,0.8,2.1
				c-6.9-0.2-13.4,5.6-14.1,12.4c-0.2,1.5,0,3.1-0.4,4.6c-0.7,3-3.1,5.3-5.7,6.8s-5.6,2.5-8.3,3.9c-2,1-3.9,2.3-6.1,3
				c-5.6,1.7-11.5-1.4-17.4-1.2c-5,0.2-9.5,2.6-14.4,3.4c-8.9,1.6-18.8-2-26.8,2.2c0.5-0.6,1-1.2,1.5-1.8c-4.1-0.9-8.4-0.8-12.4,0.3
				c1.2-0.7,2.4-1.4,3.5-2.1c-5.3-0.8-10.8-1.7-15.4-4.5c15.5,1.9,31.1,2.3,46.6,1.3C60.9,66.9,66,66.4,71,65
				c9.5-2.7,17.8-8.5,24.6-15.7c3.4-3.6,6.5-7.6,10.2-10.8c2.3-2,4.9-3.8,7.7-5.2c2.1-1.1,4.3-1.9,6.6-2.1c2.7-0.2,5.4,0.5,8,1.3
				c4.1,1.2,8.4,2.4,11.4,5.5c1,1,3,5.6,0.1,4.8c-0.8-0.2-1.9-1.9-2.7-2.4C135.9,39.6,134.6,39,133.4,38.5z"/>
		</g>
		<g>
			<path class="st3" d="M43.3,84.2c-1,2.5-1.8,5.2-2.4,7.8c-0.6,2.6-0.9,5.3-1.6,8c-0.9,3.5-2.2,6.9-4.1,10
				c-0.7-5.7-1-11.5-0.8-17.3c-1.6,1.6-4.3,1.2-6.5,0.7c-1.7-0.4-3.5-0.8-4.9-1.8c-1-0.7-1.7-1.6-2.6-2.3c-1.1-0.9-2.4-1.5-3.6-2.2
				c-3.9-2.4-6.6-6.5-7.3-11c1.3,1.3,3.5,1.2,5.3,0.6c1.8-0.7,3.4-1.8,5.2-2.1c-1.6,1.4-3,2.9-4.4,4.5c-0.2,0.2-0.3,0.4-0.3,0.6
				c0,0.3,0.3,0.6,0.5,0.8c1.1,0.9,2.4,1.9,3.8,1.6c1.4-0.3,2.2-1.7,2.6-3.1c0.5-1.3,0.9-2.8,2-3.6c-1,3.1-1,6.5,0.1,9.6
				c0.9-3.2,2.5-6.1,4.7-8.6c0.1,3,0.6,6.1,1.7,9c0.5-1.8,1.4-3.6,2.5-5.1c1.2,2.2,2.4,4.4,3.6,6.6c0.1-1.9,0.4-3.7,0.9-5.5
				c0.4,1.2,0.9,2.5,1.3,3.7l0,0c2-2.5,4.3-5.2,6.9-7C46,79.9,44,82.5,43.3,84.2z"/>
		</g>
		<g>
			<path class="st3" d="M115.6,132.4C115.6,132.4,115.6,132.4,115.6,132.4c-1.9,1.6-4.7,1.1-7.1,0.6c0,1-0.3,2-0.9,2.9
				c-0.2-0.8-1.2-1-2-0.9c-0.8,0.1-1.6,0.4-2.3,0.1c-0.4-0.2-0.6-0.5-1-0.6c-0.6-0.3-1.3-0.1-2,0c-2.6,0.4-5.3,0-7.9-0.4
				c-10.7-1.6-21.5-3.1-32.2-4.7c-1.1-0.2-2.3-0.3-3.3,0.1c-1,0.4-1.9,1.6-1.6,2.6c-0.9-1-2.5-1.1-3.7-0.7c-1.3,0.5-2.3,1.3-3.4,2
				c-3,1.9-6.8,2.7-10.3,2c-1.1-0.2-2.2-0.5-3.2,0.1c-0.6,0.3-0.9,0.9-1.5,1.2c-1.1,0.7-2.5,0.3-3.8,0.1c-1.3-0.2-2.9,0.2-3.2,1.5
				c-0.3,1.5,1.5,2.5,3,2.8c8,1.7,16.4-0.1,24.2-2.4c3.6-1.1,7.2-2.3,10.9-2.5c2.3-0.2,4.6,0,6.9,0.2c6.5,0.5,13,1,19.2,2.7
				c3.1,0.8,6.1,2,9.3,2.4c2.6,0.4,5.3,0.2,7.9,0.1c2.9-0.1,5.7-0.3,8.6-0.4c2.5-0.1,5.1-0.2,7.3-1.4c2.2-1.1,4-3.5,3.6-6
				c-0.4-2.5-3.3-4.6-5.6-5C118.3,128.2,117.8,130.6,115.6,132.4z"/>
		</g>
		<g>
			<path class="st3" d="M125.5,76.5C125.5,76.5,125.5,76.5,125.5,76.5c-0.4,1.5-0.3,3.1-0.5,4.6c-0.2,2.5-0.9,5-2,7.4
				c0.6-0.2,1.2-0.4,1.8-0.6c-0.8,2.3-1.9,4.5-3.2,6.5c0.3,0.1,0.6,0.1,0.9,0.2c-6.1,7.2-8.4,17.5-6.1,26.7
				c5.1-12.2,13.4-23.5,15-36.6c0.8-6.3,0-12.9,2.5-18.7c0.4-1,0.6-2.9-1.1-2c-0.9,0.5-1.7,3.1-2.3,4
				C128.7,70.6,126.3,73.2,125.5,76.5z"/>
		</g>
		<g>
			<path class="st3" d="M95.5,94.4C95.5,94.4,95.5,94.4,95.5,94.4c0.1,0.7,0.3,1.4,0.4,2.1c0.2,2.9-1.8,5.7-1,8.6
				c1.4-2.2,2.3-4.8,2.4-7.4c0.1-2.1-0.2-4.1-0.4-6.2c-0.1-1.1,0.7-4.8,0.2-5.5C95.4,88.3,95,91.7,95.5,94.4z"/>
		</g>
	</g>
	<g id="Details" class="st0">
		<g>
			<path class="st4" d="M133.5,44.9c-0.1-0.5-0.2-1-0.5-1.4c-0.3-0.4-0.9-0.6-1.4-0.4c-0.5,0.2-0.7,0.9-1.1,1.3
				c0.9,0.3,1.8,0.5,2.7,0.5"/>
		</g>
		<g>
			<path class="st5" d="M142.8,50.5c0.4,0.5,0.8,0.9,1.3,1.2c0.2,0.1,0.5,0.1,0.7,0.3c0.2,0.1,0.4,0.4,0.6,0.5
				c0.4,0.3,1,0.2,1.4-0.1c0,0,0,0,0,0c1.3-1,1.8-4,0.4-5.1c-1.1-1-3-0.5-4.1,0.4C142.3,48.3,142,49.6,142.8,50.5z"/>
		</g>
		<g>
			<path class="st4" d="M128.2,54.8L128.2,54.8c-0.7,0.5-0.7,1.7-0.2,2.5s1.4,1.2,2.2,1.6c-0.1,0.3-0.3,0.5-0.6,0.7
				c1,0,2.1,0.2,3.1,0.6c0,0.1-0.1,0.2-0.1,0.2c2.1,0.9,4.3,1.4,6.6,1.5c0.2,0,0.5,0,0.7-0.2c0.2-0.2,0.1-0.5,0-0.8
				c-0.5-1.6-1.2-3.3-2.7-4c-0.5-0.2-0.9-0.3-1.4-0.5c-1.3-0.4-2.4-1.3-3.8-1.7C131,54.4,129.1,54.1,128.2,54.8z"/>
		</g>
		<g>
			<g>
				<path class="st6" d="M134.8,58C134.8,58,134.8,58,134.8,58c-1.3-0.5-2.6-1-3.6-2.1c-0.3-0.3-0.6-0.7-0.7-1.2c0-0.1,0-0.1,0-0.2
					c0-0.1,0.1-0.1,0.2-0.1c0.6-0.1,1.1,0.2,1.6,0.6s0.9,0.8,1.3,1.1c0.5,0.4,1.1,0.7,1.8,0.9c0.5,0.2,1.2,0.2,1.6,0.6
					c0.4,0.4,0.3,0.8-0.3,0.8C136.1,58.5,135.4,58.2,134.8,58z"/>
			</g>
			<path class="st7" d="M136.3,58.1l-0.4-1c0,0-0.7,0.3-0.9,0.5C135.3,57.9,136.3,58.1,136.3,58.1z"/>
			<path class="st7" d="M134.7,57.4l-0.4-1.2c0,0-0.9,0.2-1,0.5C133.5,57.1,134.7,57.4,134.7,57.4z"/>
			<path class="st7" d="M132.9,56.5l-0.3-1.3c0,0-1,0.2-1.2,0.5C131.6,56.1,132.9,56.5,132.9,56.5z"/>
		</g>
		<g>
			<path class="st8" d="M145.8,58.4c0.8,1.1,1.3,2.4,1.1,3.7c-0.1,1.3-1,2.6-2.2,3.1c-1.2,0.5-2.8,0.1-3.5-1
				c-0.2-0.3-0.3-0.5-0.3-0.8c0-0.3,0.1-0.5,0.1-0.8c0-0.8-0.8-1.2-1.4-1.7c-1.6-1.1-2.9-2.7-3.5-4.6l0,0c1.1-0.3,2.1-0.3,3.2-0.5
				c0.8-0.2,1.4-0.4,2.2-0.2C143.2,56.1,144.8,56.9,145.8,58.4z"/>
		</g>
	</g>
</g>
<g id="Outlines">
	<g>
		<g>
			<path d="M133,62c-0.1,3-3.2,7-4.2,10c-1.2,3.7-1.2,7.6-1.8,11.4c-0.2,1.2-0.3,2.3-0.4,3.5c0,1.5-0.1,2.9-0.4,4.4
				c-1,1.9-2.2,3.6-3.6,5.2c-1.6,2.3-2.9,4.6-4.1,7.3c-2.4,5.6-4,11.5-3.2,17.6c0.3,2.2,0.9,4.9,2.6,6.6c2.4,2.4-0.6-0.7,1.8,1.2
				c0.3,0.1,0.7,0.3,1,0.4c3,2.9,2.3,4.3-2.2,4.3c-0.6-0.1-0.8,0.7-0.2,0.9c2.5,0.7,6.8-0.3,5.1-4c-0.3-0.7-0.6-0.7-1-1.1
				c-1.9-2-4.1-2-5.1-5c-1.6-4.8-0.8-11.4,0.5-16.1c1.3-4.9,4-8.6,6.8-12.7c2.6-3.7,2.3-7.6,3.7-11.9c1.3-4.1,0.4-8.3,1.8-12.4
				c1.1-3.2,3.7-6.1,3.5-9.5C133.4,61.7,133,61.7,133,62L133,62z"/>
		</g>
	</g>
	<g>
		<g>
			<path d="M120.9,37.8c-3.4-1.6-6.5,3.6-7.8,6.1c-2,4.1,1.1,6.1,4.3,8.6c1.6,1.3,6,5.2,8.4,3.2c1.4-1.2,1.4-4.7,1.2-6.3
				c-0.5-3.1-2.8-5.6-2.6-8.9c0-0.1-0.1-0.1-0.2,0c-0.3,1.8,0,2.9,0.7,4.6c1.3,3.3,4.1,12.4-3.5,9.1c-2.1-0.9-5.7-3.4-7.1-5.4
				c-1.9-2.7-0.9-4.5,0.4-6.5c1-1.6,3.5-5.2,6-4.3C120.9,38.1,121,37.9,120.9,37.8L120.9,37.8z"/>
		</g>
	</g>
	<g>
		<g>
			<path d="M113.4,48.6c-1.3,0.9-2.1,2-2.5,3.4c-0.4,1.4-1,1.9-1.7,3.1c-0.6,0.9-0.5,1.5-1.3,2.4c-1,1-3,1.4-3.3,3.1
				c-0.2,1.1,0.4,1.9,1.3,2.4c0.2,0.1,0.5-0.2,0.3-0.4c-0.4-2,0.1-3.3,1.5-3.7c0.1-0.1,0.3-0.1,0.4-0.2c0.2-0.2,0.5-0.2,0.7-0.4
				c0.8-0.7,0.7-1.7,1.2-2.6c0.4-0.7,1.1-1.2,1.4-2c0.7-2,0.5-3.2,2.3-4.8C113.8,48.8,113.6,48.5,113.4,48.6L113.4,48.6z"/>
		</g>
	</g>
	<g>
		<g>
			<path d="M104.8,61c-7.8,2.5-15.8,5.5-24,5.6c-3.7,0.1-7.1-0.3-10.8,0.3c-3.4,0.5-6.8,1.5-10.2,2c-17,2.7-33.8-3-50.8-2.1
				c-0.4,0-0.3,0.5,0,0.5c8.8,0.9,17.6,1.5,26.4,2.3c7.9,0.8,15.9,1.6,23.8,0.5c4.2-0.6,8.3-1.6,12.5-2c4.2-0.4,8.4-0.1,12.6-0.5
				c6.8-0.7,14.7-2.8,20.5-6.3C105.1,61.2,105,60.9,104.8,61L104.8,61z"/>
		</g>
	</g>
	<g>
		<g>
			<path d="M62.6,98.4c-0.7,1.5-1.1,3-1.8,4.5c-1.3,2.7-1.7,2.3-4-0.1c-0.3-0.3-0.8-0.2-0.9,0.2c-0.2,1.4-0.3,3.9-1.4,1.5
				c-0.2-0.4-0.7-0.3-0.9,0c-3.1,5.4-7.9,7.6-12.5,11.3c-3.1,2.5-5.9,6.9-7.3,10.5c-0.8,2.1-1.2,5.2,0.1,7.2
				c0.9,1.3,2.5,1.7,3.5,2.9c3.2,4.1-2.3,4.3-5.2,3.6c-0.5-0.1-0.7,0.6-0.2,0.8c1.9,0.6,6.3,1.6,7.4-0.8c1-2.1-0.9-4-2.1-5.3
				c-3.5-3.7-3.6-6.6-1.1-11c2.1-3.6,4.6-5.7,7.9-7.9c1.9-1.3,3.7-2.4,5.3-4.1c0.7-0.7,1.4-1.5,2-2.4c0.6-0.7,2.2-4.4,2.9-2.1
				c0.1,0.5,0.7,0.5,1,0.1c0.8-1.2,1-2.5,2-2.3c0.7,0.1,2.3,1.4,3,1.7c0.4,0.2,0.8-0.2,0.8-0.6c0.2-2.8,0.8-5,1.7-7.6
				C62.8,98.4,62.6,98.3,62.6,98.4L62.6,98.4z"/>
		</g>
	</g>
	<g>
		<g>
			<path d="M47.1,76.1c-1.5,3-4.6,4.1-6.5,6.7c-2.5,3.7-0.8,8.6-4.9,11.7c-0.1,0.1-0.2,0.3,0,0.4c0.9,0.8,0.4,5.7,0.3,6.4
				c-0.3,2.4-0.4,4.8-0.8,7.1c-0.4,2.8-1.4,3.4-3.2,5.3c-2.5,2.7-2.8,6.8-3.9,10.3c-0.9,2.8-1.1,5.5-1.2,8.5c0,3.1-1.1,8.4,3,8.5
				c5.1,0.1,3.2-3.1,0.1-4.9c-0.3-0.1-0.5,0.2-0.2,0.4c5.5,3.4-0.9,6.2-2.2,1.6c-0.4-1.5-0.2-3.5-0.2-5.1c0-3.9,0.7-7.4,2-11.2
				c0.4-1.3,0.6-2.9,1.1-4.1c1-1.4,1.9-2.9,2.9-4.3c0.4-0.3,0.8-0.6,1.2-0.8c0.5-1,0.7-2.1,0.9-3.1c0.6-2.7,0.7-5.2,1-8
				c0.1-0.8,0.4-4.8,0.7-5c0.1-0.1,0.2-0.2,0.1-0.4c-1-1.5-0.1-1.6,0.5-3c0.9-2.1,1.1-4.1,1.7-6.3c0.9-3.6,2.7-5.1,5.2-7.4
				C45.9,78.3,46.5,77.6,47.1,76.1C47.1,76.1,47.1,76.1,47.1,76.1L47.1,76.1z"/>
		</g>
	</g>
	<g>
		<g>
			<path d="M37,93.6c-1.7-2.1-2.7-4.2-3.3-6.8c-0.1-0.4-0.6-0.2-0.6,0.1c-1.5,3.9-2.1,5.2-1.9,3.7c0.1-0.6,0.1-1.1,0-1.7
				c0.1,0.2-1-3.5-1-3.3c-0.1-0.2-0.3-0.2-0.4-0.1c-1.1,1.6-4.2,4.6-3.4,0.7c0.1-0.2-0.2-0.4-0.4-0.3c-1.6,1.3-3.3,1.5-5,0.4
				c0.1-0.2-0.1-0.3-0.2-0.3c-1.6,0-2.5-0.1-1.9-1.7c0.1-0.2-0.1-0.3-0.2-0.3c-1.9,0.1-5.7-4.3-6.3-5.4c-0.9-1.5-1.4-0.4-1.1-2.5
				c0.1-0.8,2.2-3,2.6-3.6c0.1-0.1,0-0.3-0.1-0.3c-1.7-0.2-2.9-1-3.6-2.5c0.1-0.1,0.1-0.3,0-0.4c-0.4-0.8-0.8-1.5-1.3-2.3
				c-0.1-0.3-0.6-0.2-0.5,0.1C8.2,67,9,70,9.1,69.8c-0.1,0.1-0.1,0.3,0,0.4c3.1,3,4.8,2.2,0.8,6.6C9.8,77,9.8,77.2,10,77.3
				c3,2.3,2.8,4.4,5.8,6.3c1.2,0.7,2.5,1,2,2.6c-0.1,0.2,0.1,0.3,0.2,0.3c1.1-0.4,1.8,0,2.1,1.1c-0.1,0.2,0.1,0.3,0.3,0.3
				c2.4-0.1,6.1-2.3,4.5,1.5c-0.1,0.2,0.1,0.4,0.3,0.3c3.6-1.4,6.6-6.7,5.3,2.5c0,0.2,0.2,0.4,0.4,0.2c0.3-0.4,2.8-4,2.6-4
				c0,0,2.8,4.7,3.3,5.3C36.9,94,37.1,93.8,37,93.6L37,93.6z"/>
		</g>
	</g>
	<g>
		<g>
			<path d="M95.1,105.2c-0.9-0.6-1.8-1.4-2.5-2.2c-0.1-0.2-0.4-0.1-0.5,0.1c-0.5,3.7-1.6,3.4-3.6-0.2c-0.1-0.1-0.3-0.1-0.4,0
				c-1.7,1.5-2.8,1.2-3.3-0.9c0-0.1-0.2-0.2-0.3-0.1c-2.3,1.1-3.2-1-5.4-1.9c-5-2.1-10.5-2.1-15.4-4.4c-0.2-0.1-0.3,0.1-0.2,0.2
				c1.9,1.8,3.8,2.5,6.5,3c1.8,0.4,11.9,1.4,11.6,4.1c0,0.2,0.2,0.3,0.3,0.3c1.8-0.3,2.6-0.5,3.2,1.5c0,0.1,0.2,0.2,0.3,0.1
				c3-1.7,4.1,0.2,6.2,2.5c0.1,0.1,0.4,0,0.4-0.2c-0.3-3.6,0.7-3,2.8-1.5C95.1,105.7,95.3,105.4,95.1,105.2L95.1,105.2z"/>
		</g>
	</g>
	<g>
		<g>
			<path d="M73,98.9c0.3,1.2,0,2.2-0.8,3.1c-0.1-0.3-0.5-0.4-0.7-0.1c-0.3,0.8-6.2,10.5-7.2,8.8c-0.1-0.2-0.4-0.3-0.6-0.1
				c-4.5,5.2-11.7,4.4-10.6,13c0.2,1.9,0.6,2.9,2,4.2c1.1,1,3.8,1.9,4.5,3.2c2.2,4.3-4.4,2.9-5.5,2.8c-0.2,0-0.3,0.3-0.2,0.4
				c2.2,1.9,8.1,1.4,6.9-2.5c-0.8-2.7-4.7-3.7-5.9-6.3c-2.1-4.7,0.7-7.3,4.6-10.1c0.6-0.5,4.7-3.2,4.7-3.3c0.1,0.2,0.4,0.2,0.6,0.1
				c2-1.6,3.9-3.4,5.3-5.6c0.9-1.4,1.2-4.1,2.4-2.2c0.1,0.2,0.5,0.2,0.6-0.1c0.5-1.9,0.6-3.3,0.3-5.2C73.3,98.7,73.1,98.7,73,98.9
				L73,98.9z"/>
		</g>
	</g>
	<g>
		<g>
			<path d="M129.7,54.5c2.5,0,4,1.9,6.3,2.1c1.9,0.2,3.9-0.6,5.8-0.9c3.2-0.5,4.1-1.1,5.2-4.2c0.4-1,0.9-2.6,0.3-3.7
				c-0.4-0.7-1.1-1.1-1.8-1.5c-2.9-1.4-5.1-1.5-7.6-3.9c-0.1-0.1-0.4,0-0.3,0.2c0.8,1.1,1.7,2.1,2.9,2.9c0.6,0.4,1.2,0.7,1.9,0.9
				c0.3,0.1,0.6,0.2,1,0.3c1.8,0,2.7,1.2,2.8,3.6c-0.1,0.1-0.2,0.3-0.1,0.4c-0.1,0.6-0.3,1.1-0.5,1.7c-0.7,1.9-2,2.8-3.9,2.7
				c-1.2,0.2-2.2,0.6-3.4,0.8c-3.5,0.6-5.4-1.6-8.7-1.6C129.5,54.2,129.5,54.5,129.7,54.5L129.7,54.5z"/>
		</g>
	</g>
	<g>
		<g>
			<path d="M139.4,44c0.9-1.7,0.7-3.2-0.8-4.6c-1-1-2.2-2.3-3.4-3.2c-2.3-1.8-4.6-1.3-7.3-1.5c-3.3-0.3-5.4,0.7-7.9,2.9
				c-0.2,0.2,0.1,0.4,0.2,0.3c3.7-2.4,9.5-4.1,13.7-1.6c1.3,0.8,2.3,1.8,3.3,3C138.9,41,140,41.4,139.4,44
				C139.3,44,139.4,44,139.4,44L139.4,44z"/>
		</g>
	</g>
	<g>
		<g>
			<path d="M141.3,62.1c-4.5,2.2-8.3-2.5-12.7-1.2c-0.1,0-0.1,0.1,0,0.1c4,0.8,9,3.7,12.9,1.3C141.6,62.2,141.4,62,141.3,62.1
				L141.3,62.1z"/>
		</g>
	</g>
	<g>
		<g>
			<path d="M140.8,56c1.6,0.7,3.8,2.9,3.9,4.8c0.1,1.7-1.6,3.3-2.9,1.8c-0.2-0.2-0.2-0.6-0.4-0.8c-0.7-0.8-2-1.1-2.8-1.8
				c-1.2-1.1-2-2.5-2.7-3.9c-0.1-0.2-0.5,0-0.3,0.2c1.2,2.3,2.4,3.8,4.5,5.3c1.4,1,1.5,2.6,3.6,2c1.6-0.5,1.8-2.1,1.3-3.5
				c-0.7-2-2.1-3.9-4.2-4.4C140.7,55.7,140.6,56,140.8,56L140.8,56z"/>
		</g>
	</g>
	<g>
		<g>
			<path d="M139.2,60.9c-1.5-0.8-3.3-0.9-4.8-1.5c-1-0.4-1.9-0.8-2.8-1.3c-0.4-0.2-5-2.4-2.2-3.6c0.1,0,0-0.1,0-0.1
				c-1.7,0.3-1.4,2-0.3,2.9C131.8,59.4,135.8,60.3,139.2,60.9C139.2,60.9,139.3,60.9,139.2,60.9L139.2,60.9z"/>
		</g>
	</g>
	<g>
		<g>
			<path d="M133.7,45.2c-0.1-0.8-0.4-2.3-1.3-2.5c-0.9-0.2-2,0.8-2.3,1.6c-0.1,0.1,0.1,0.2,0.2,0.1c0.2-0.4,0.5-0.6,0.8-0.8
				c0.1-0.1,0.3-0.2,0.4-0.2c0.3-0.2,0.4-0.2,0.8-0.1c0.5,0.1,0.5,0.1,0.7,0.4c0.1,0.2,0.2,0.4,0.3,0.6
				C133.4,44.6,133.5,44.9,133.7,45.2C133.6,45.3,133.7,45.2,133.7,45.2L133.7,45.2z"/>
		</g>
	</g>
	<g>
		<g>
			<path d="M115.8,130.3c0.8,0.1,1.9,0.9,2.2,1.7c0.6,1.3-0.3,2.9-1.8,2.8c-1.3-0.1-2.8-1.1-3.7-2c-0.2-0.3-0.6,0.1-0.4,0.4
				c1.3,1.4,4.1,3.3,5.9,1.7c2.1-1.8,0.1-4.7-2.2-4.8C115.6,130.1,115.6,130.3,115.8,130.3L115.8,130.3z"/>
		</g>
	</g>
	<g>
		<g>
			<path d="M107.8,111c0.7,6.8,1.9,13.4,2.5,20.2c0,0.4,0.6,0.5,0.7,0.1c0.5-3.5-1-7-1.2-10.6c-0.2-3.4-0.8-6.5-1.7-9.8
				C108,110.8,107.8,110.8,107.8,111L107.8,111z"/>
		</g>
	</g>
	<g>
		<g>
			<path d="M111.5,96.9c0,0.7,0.1,1.4,0.1,2.1c0,0.7,0.9,1.9,0.1,1.4c-0.3-0.2-0.6,0-0.6,0.4c-0.1,1.9-3.1,3.9-3.4,6.2
				c-0.5,3.2-0.7,7-0.8,10.4c-0.1,3.2-0.3,6.8,0.3,9.9c0.3,1.4,0.8,2.5,1.6,3.6c0.3,0.5,0.9,0.5,1.3,1c0.7,1.1,1.4,2.1,2.2,3.2
				c-1.7,1.8-3.5,2.2-5.4,1.3c-0.6-0.2-0.8,0.7-0.2,0.9c2.1,0.8,5,1.7,6.2-0.7c1.8-3.6-2.8-6-4-8.5c-1.9-4.1-0.8-8.5-0.6-12.8
				c0.1-3.6-0.5-10.9,3.6-12.8c0.1-0.1,0.2-0.2,0.2-0.4c0.2-0.1,0.4-0.2,0.6-0.3c0.3,0.2,0.7-0.1,0.6-0.5c-0.5-1.5-1-2.9-1.2-4.5
				C111.8,96.7,111.5,96.7,111.5,96.9L111.5,96.9z"/>
		</g>
	</g>
	<g>
		<g>
			<path d="M105.2,133.3c4.9,4.2-1.8,4.2-3.2,2.4c-0.4-0.5-0.4-1.7-0.5-2.3c-0.5-2.6-0.9-5.3-1.2-8c-0.2-2.4-0.2-4.9-1.1-7.1
				c-0.4-1.2-1.1-2.2-1.8-3.2c-0.3-0.4-2.3-2.5-1.1-2.5c0.3,0,0.6-0.4,0.4-0.7c-0.9-1.3-4.5-5.8-1.3-5.6c0.2,0,0.4-0.2,0.4-0.4
				c0.1-3,2.2-5.3,2-8.2c-0.2-4.6-1.5-8,0-12.7c0.1-0.4-0.5-0.6-0.7-0.2c-1.2,3.6-0.8,6.5-0.6,10.2c0.2,2.5-1.1,4.9-1.5,7.3
				c-0.3,1.7,0,3-2.3,3c-0.4,0-0.5,0.4-0.4,0.6c0.8,1.9,4,5,1.8,6.1c-0.3,0.1-0.3,0.5-0.1,0.7c3.3,3.6,4.4,6.4,5,11.3
				c0.2,1.7,0.4,3.3,0.6,5c0.4,2.3,0.3,6.6,2.5,8.1c3.4,2.2,6.4-1.3,3-4.1C105.3,132.9,105,133.1,105.2,133.3L105.2,133.3z"/>
		</g>
	</g>
	<g>
		<g>
			<path d="M52.9,129.9c0.8,0.9,2.1,3.6,0.1,3.9c-1.4,0.2-2.3-1.3-2.8-2.4c-0.2-0.4-0.9,0-0.7,0.4c0.9,1.4,2.3,3.4,4.2,2.5
				C55.9,133.2,54.1,130.8,52.9,129.9C52.9,129.8,52.9,129.8,52.9,129.9L52.9,129.9z"/>
		</g>
	</g>
	<g>
		<g>
			<path d="M50.3,132c-0.7-1.7-0.8-3.4-1.3-5.1c-0.4-1.6-1.3-3-1.6-4.6c-0.6-3.1,0.9-6-0.2-9.1c-0.3-0.7-1.3-0.4-1.1,0.3
				c0.9,3.6-0.3,7.3,0.8,10.7c0.6,1.8,1.1,3.5,1.7,5.3C49,130.5,49.4,131.2,50.3,132C50.3,132,50.3,132,50.3,132L50.3,132z"/>
		</g>
	</g>
	<g>
		<g>
			<path d="M146.5,50.4c-0.3-0.1-0.4-0.4-0.3-0.8c0.3-0.4-0.3-0.9-0.7-0.7c-0.3,0.1-0.4,0.4-0.6,0.6c-0.2,0.2-0.1,0.2-0.4,0.3
				c-0.3,0.1-0.6,0-0.9-0.3c-0.4-0.4-0.6-0.9-1.2-0.8c-0.3,0.1-0.2,0.5,0.1,0.5c0.8-0.1,1,1.1,1.9,1.2c0.3,0,0.7,0,1-0.1
				c0.4-0.1,0.4-0.4,0.7-0.6c-0.2-0.1-0.5-0.2-0.7-0.3C145.4,50.1,145.9,50.6,146.5,50.4C146.6,50.5,146.6,50.5,146.5,50.4
				L146.5,50.4z"/>
		</g>
	</g>
	<g>
		<g>
			<path d="M139,56c0.6,0.3,1.1,0.7,1.6,1.2c0.5,0.5,0.8,1.1,1.1,1.7c0,0.1,0.1,0,0.1,0c-0.4-1.3-1.3-2.8-2.8-2.9
				C139,55.9,138.9,56,139,56L139,56z"/>
		</g>
	</g>
</g>
</svg>
