<?xml version="1.0" encoding="utf-8"?>
<!-- Generator: Adobe Illustrator 22.1.0, SVG Export Plug-In . SVG Version: 6.00 Build 0)  -->
<svg version="1.1" id="Card_1" xmlns="http://www.w3.org/2000/svg" xmlns:xlink="http://www.w3.org/1999/xlink" x="0px" y="0px"
	 viewBox="0 0 155.9 155.9" style="enable-background:new 0 0 155.9 155.9;" xml:space="preserve">
<style type="text/css">
	.st0{clip-path:url(#SVGID_2_);}
	.st1{fill:#F4C17D;}
	.st2{fill:#CE9960;}
	.st3{fill:#C69E70;}
	.st4{fill:#E4B679;}
	.st5{fill:#8C704F;}
	.st6{fill:#674D34;}
	.st7{fill:#0F0D0C;}
	.st8{fill:#282524;}
	.st9{fill:#191614;}
	.st10{fill:#211E1C;}
	.st11{fill:#010202;}
	.st12{fill:#161817;}
</style>
<g id="Colours">
	<defs>
		<path id="SVGID_1_" d="M38.2,95.1c-2.4,5.3-5.8,10.2-10.1,14.1c-0.6,0.6-1.2,1.1-1.6,1.9c-0.3,0.6-0.3,1.4-0.4,2.1
			c-0.3,3.3-1,6.6-2.1,9.7c-1.4,4-3.2,8.2-1.7,12c0.7,1.8,3.4,1.8,4.2,1.8c0.3,0,1.5-0.1,1.8-0.3c0.7,0.3,1.7,0,2.7-0.7
			c0.9-0.8,0.2-2.6-0.4-3.8c-0.3-0.6-1.1-1.4-1.4-2c-0.9-1.6-0.9-2.6-0.6-4.4c0.8-4.8,3.1-10.2,6-14.1c4.4-6,10.9-10.2,15.5-16
			c1.9-2.4,3.2-4.4,5-6.8c1.7,3,3.4,6.3,3.4,9.7c0,4.2-2.7,8-5.6,11.1c-1.3,1.4-2.8,3-2.5,4.9c0.2,1,0.9,1.9,1.5,2.7
			c2.8,3.6,4.7,7.9,5.7,12.3c0.3,1.4,0.9,3.1,2.4,3.5c0.3,0.1,0.7,0.2,1.1,0.2c0.7,0,1.5-0.1,1.9-0.7c0.5,0.1,1,0.2,1.5,0.3
			c0.5,0.1,1,0.2,1.6,0.1c0.5-0.1,1.2-0.2,1.3-0.7c0.5-1.7-0.8-3.6-2.6-3.8c-1-0.1-2,0.2-2.9-0.2c-0.7-0.3-1.1-1.1-1.5-1.7
			c-1.5-2.8-3.1-5.9-2.6-9c0.2-1.5,0.9-2.9,1.7-4.2c2.4-3.9,5.7-7.1,8.4-10.8c1.8-2.5,3.4-5.4,3.4-8.5c0-2.3-0.7-4.6-0.3-6.9
			l-0.1-1.2c2.6,0.5,6.8,2.9,9.2,4.8c2.7,2.1,5.5,3.3,8.8,3.6c1,8.5,1.3,17,0.9,25.5c-0.1,1.7-0.2,3.4-0.5,5.1
			c-0.2,1.1-0.5,2.1-0.4,3.2c0.1,1.1,0.6,2.1,0.8,3.1c0.3,1.1,0.8,2,0.9,3.1c0.1,2.3,0.3,3.9,0.4,6.2c0.1,1.4-0.2,2.8,1.1,3.2
			l1.1,0.4c0.6,0,1.2-0.2,1.4-0.4c0.2,0.5,0.5,0.6,1.5,0.6c1,0,1.6-0.1,2-0.5l1,0c2.2-0.2,1.3-3.7,0.5-4.8c-1.9-2.5-3.8-3.2-4.2-6.3
			c-0.2-1.2-0.1-2.4-0.1-3.7c0.1-5.9,0.2-11.9,0.3-17.8c0-2,0.1-3.9,0.3-5.9c0.3-3.3,1-6.5,1.8-9.7c1.2,0.1,3-0.1,4.1-0.3l0,0.8
			c0,7,0.2,14.1,0.5,21.1c0.1,1.7,0.2,3.4-0.1,5.1c-0.2,1.1-0.5,2.2-0.6,3.3c-0.1,0.9,1.1,3.5,1.2,4.4c0.6,3.6,1.4,5.3,2,8.9
			c0.2,1.6,1.1,3.3,2.7,3.5c0.1,0.2,1.6,0,1.9-0.1c0.2,0,0.5-0.2,0.5-0.7c1.2,0.8,1.2,1.4,2.6,0.8l0.4-0.2c0.8-0.7,0.7-1.8,0.7-2.6
			c-0.1-1.6-0.4-1.5-1.7-3.1c-1-1.2-2.5-3.3-2.8-4.1c-2.6-6.7-2.3-12.3-1.3-19.4c1-7.1,2.8-14.1,3.3-21.3c4.2-8.1,6.7-16.7,6.3-25.8
			c-0.1-2-0.3-3.9-0.3-5.9c0-4.4,0.9-8.4,2.1-12.7c0.2-0.7,1.8,1,2.4,1.3c0.4,0.2,1.7,1.7,2.1,2.1c1.4,1.3,2.4,2.9,5.5,0.5
			c1.2,0.3,2.1,0.3,3.1,0.1c0.6-0.3,1.3-0.4,1.6-0.3s0.6,0.1,0.8,0.2c0.7,0.2,1.5-0.1,2.2-0.6c0.6-0.5,1.1-1.1,1.6-1.7
			c0.8-1.1,1.7-2.2,1.8-3.6c0.1-0.6,0-1.2,0-1.9c0-1.1,0.4-2.1,0.9-3c0.4-0.3,0.4-0.8,0.2-1.3s-0.5-0.7-0.9-1
			c-0.5-0.4-1.2-0.7-1.8-0.8c-0.4-0.1-0.9-0.2-1.2-0.4c-0.5-0.3-0.8-0.7-1.3-1c-0.9-0.5-2-0.4-3-0.7c-1.7-0.5-3-2.2-2.9-3.9
			l-0.1-0.4c-0.1-0.4-0.3-0.7-0.5-1c-0.5-0.6-1.1-1.1-1.8-1.5c-1.5-1.1-3.1-2.2-5-2.4l-0.5-0.1c-1.4-0.9-2.3-2.3-2.6-3.9
			c-0.3-1.8,0.2-3.6,0.3-5.4c0.1-1.8-0.4-3.9-2-4.7l-0.1,0.1c0.9,1.8,0.4,4.1-0.4,6s-1.9,4-1.7,6.1c-1-1.1-0.7-3.7-0.7-5
			c0-1.9-0.3-3.8-1.1-5.6c-0.2-0.5-0.8-1-1.1-0.6c-0.1,0.1-1.2,4.6-2,6.3c-0.9,2.1-2.3,3.4-3.1,5.7c-0.3,1.1-0.6,2.2-0.7,3.3
			c-0.1,1.1,0.1,2.1,0.3,3.2c-3.8,1.1-7.6,11.9-9.1,13.8c-0.7,0.9-1.7,1.6-2.5,2.4c-2.3,2.1-3.8,5-6.1,7.2
			c-5.1,4.8-14.3,5.8-21.2,5.1c-3.5-0.3-5.5-0.3-9.2,0.2c-1.6,0.2-2.9,1.3-4.2,2.1c-5.3,3.2-10.3,6.8-12.4,12.6
			c-1,2.9-1.1,6-1.6,9.1c-0.2,1.7-0.6,3.4-1,5c-2.5,4.1-7.5,6.9-12.3,8.4c-2.2,0.7-4.7,1.2-6.8,0.2c2.3,1.7,5.7,2.7,8.6,2.2
			C33,99,35.7,97,38.2,95.1L38.2,95.1z"/>
	</defs>
	<clipPath id="SVGID_2_">
		<use xlink:href="#SVGID_1_"  style="overflow:visible;"/>
	</clipPath>
	<g id="Base" class="st0">
		<rect x="15.1" y="10.2" class="st1" width="133.6" height="136.9"/>
		<g>
			<path class="st2" d="M100.8,43.5L100.8,43.5c-1.5,4.4-3.1,9.2-6.8,12.1c-2.3,1.8-5.3,2.8-7,5.2c-0.8,1.1-1.5,2.6-2.9,2.5
				c-0.5,0-0.9-0.3-1.3-0.6c-1.8-1-4.1-1.4-6.1-0.9c-1.4,0.3-2.7,1-4.1,1c-2.3,0.1-4.3-1.3-6.6-1.7c-2.8-0.6-5.7,0.4-8.4,1.3
				c-3.4,1.2-6.8,2.4-10.2,3.6C47,64.7,48,63.3,49,62.3c9.7-9.9,22.1-16.8,33.3-25c3.8-2.8,7.5-5.8,12-7.3
				c2.7-0.9,11.2-2.1,12.5,1.8c0.5,1.6-2.3,3.9-3.1,5.2C102.4,39,101.6,41.3,100.8,43.5z"/>
		</g>
		<g>
			<path class="st2" d="M45.2,81.9C45.2,81.9,45.2,81.9,45.2,81.9c0,4.2,0.1,8.7-2.2,12.2c-0.6,1-1.5,1.8-2.3,2.7
				c-3.2,3.5-6.1,7.2-8.8,11.1c-3.1,4.5-5.7,9.4-7.1,14.6c-0.5,2-0.9,4.1-2.1,5.8c-0.4,0.5-0.9,1-1.5,0.8c-0.4-0.1-0.7-0.6-0.8-1
				c-1.5-3.6-0.4-7.7,0.9-11.4c0.5-1.6,1.1-3.3,0.8-4.9c-0.2-0.8-0.5-1.5-0.8-2.3c-1.4-3.9-0.9-8.2,0.6-12.1
				c1.5-3.9,3.8-7.3,6.2-10.7c2.6-3.7,5.1-7.4,7.7-11.1c1.5-2.2,3-4.4,5-6.2c1-0.9,4.1-3.8,5.6-2.6c1.2,1,0.2,4.2-0.1,5.4
				C45.5,75.4,45.2,78.6,45.2,81.9z"/>
		</g>
		<g>
			<path class="st2" d="M91.7,99.7L91.7,99.7c0.2,2.8-0.1,5.6-0.4,8.4c-0.5,5.4-0.8,10.7-1,16.1c0,1.3,0,2.6,0.2,3.8
				c0.3,1.6,1,3.2,1.2,4.8c0.3,2.9-1.2,5.6-2.6,8.1c-2.5-6.8-3.5-14.2-3.4-21.5c0-7.3,1-14.5,2.4-21.7c0.2-1.3,0.5-2.7,0.6-4
				c0.1-1,0-2.1,0.1-3.1c0.1-0.9,0.1-2.7,1-3.2C90.6,91.2,91.4,95.7,91.7,99.7z"/>
		</g>
		<g>
			<path class="st2" d="M106.7,92.6c-2.2,5.5-3.1,12.2-2.8,18.1c0.1,3.5,0.7,7,0.2,10.4c-0.5,3.1-1.8,6-1.8,9.2
				c-0.9-6.9-1.7-13.8-1.5-20.7c0-1.9,0.2-3.8,0.3-5.7c0.1-1.8,0.2-3.7,0.4-5.5l0,0c0.1-1.5-0.1-2.5,1.3-3.2
				C103.7,94.8,106.2,93.8,106.7,92.6z"/>
		</g>
		<g>
			<path class="st3" d="M57.3,86.5c0.3-0.3,0.5-0.7,0.9-0.9c0.7-0.3,1.6,0.1,2.3,0.5c2,1.4,3.5,3.7,5.9,4.4c0.2,0.1,0.4,0.1,0.5,0
				c0.3-0.1,0.4-0.3,0.6-0.6c0.4-0.7,0.7-1.3,1.1-2c0.5-0.9,1.2-1.9,2.2-1.7c1,0.2,1.3,1.5,1.3,2.5c0,1.5,0.1,3,0.1,4.5
				c0,0.4,0,0.8-0.1,1.2c-0.5,1.3-2.2,1.4-3.5,1.4c-3.7,0.1-7.4,1.5-10.4,3.7c-0.6,0.4-1.2,0.9-1.9,0.8c-0.8-0.1-1.2-0.9-1.5-1.6
				c0,0,0,0,0,0c-0.9-1.9-2.3-4.6-1.6-6.7C53.6,90.3,56,88.2,57.3,86.5z"/>
		</g>
		<g>
			<path class="st2" d="M107.1,120.5c-0.4,2-0.7,4.1-0.6,6.2c0.1,1.6,0.4,3.2,0.7,4.7c0.3,1.3,0.6,2.8,1.6,3.8
				c0.9,0.9,2.2,1.4,3.4,1.6c0.3,0,0.7,0.1,0.9-0.1c0.2-0.2,0.3-0.4,0.4-0.7c1.1-3.1,0.6-6.6-1.3-9.3c-1.1-1.5-2.7-2.9-2.8-4.8
				c-0.1-0.8,0.2-1.6,0.3-2.4c0,0,0,0,0,0c0.1-0.8,0.4-4.3-1.1-3.6C107.3,116.6,107.3,119.3,107.1,120.5z"/>
		</g>
		<g>
			<path class="st4" d="M92,132.6C92,132.6,92,132.6,92,132.6c0.7,1.1,1.3,2.3,1.3,3.6c0,0.5-0.1,1-0.4,1.3
				c-0.2,0.2-0.5,0.4-0.8,0.6c-0.9,0.6-1.6,1.4-2,2.3c-1-1.2-1.3-2.8-1.4-4.4c-0.2-2-0.4-4-0.6-6c-0.1-1,0.6-3.6,1.5-1.8
				C90.3,129.8,91,131.1,92,132.6z"/>
		</g>
		<g>
			<path class="st2" d="M95.5,136.7C95.5,136.7,95.5,136.7,95.5,136.7c0,0.3,0,0.7,0.2,1c0.2,0.3,0.6,0.4,0.9,0.6
				c1.2,0.5,2.1,1.7,2.3,3c0.1,0.6,0.1,1.3,0.7,1.7c0.4,0.3,1.1,0,1.4-0.4s0.4-0.9,0.4-1.5c0-0.8-0.1-1.5-0.4-2.3
				c-0.1-0.4-0.3-0.8-0.5-1.2c-0.8-1.5-1.5-3.1-2.3-4.6c-0.3-0.5-0.5-1.1-1.1-1.3C95.1,130.9,95.5,135.9,95.5,136.7z"/>
		</g>
		<g>
			<path class="st2" d="M108,138.3c0.5,0.5,0.8,1.1,1.1,1.7c0.3,0.7,0.5,1.7-0.1,2.2c-0.3,0.3-0.9,0.4-1.3,0.3
				c-0.5-0.1-0.9-0.4-1.2-0.7c0,0,0,0,0,0c-1.3-1-2.4-2.2-3.2-3.6c-0.5-0.7-2.1-3.4-1.3-4.2c0.7-0.8,2.1,0.6,2.5,1.1
				C105.5,136.4,106.9,137.1,108,138.3z"/>
		</g>
		<g>
			<path class="st2" d="M58.9,126.8c0.2,0.9,0.6,1.8,1.3,2.2c0.5,0.3,1,0.3,1.6,0.4c0.5,0.1,1.1,0.4,1.3,0.9
				c0.2,0.6-0.1,1.4,0.3,1.9c0.3,0.4,1,0.4,1.4,0c0.4-0.3,0.5-0.9,0.6-1.4c0-0.6-0.1-1.1-0.4-1.6c-0.4-0.8-1.1-1.4-1.7-2
				c0,0,0,0,0,0c-1-1.2-1.6-2.8-2.2-4.2c-0.3-0.9-1-3.7-2.1-4C56.7,118.2,58.7,125.9,58.9,126.8z"/>
		</g>
		<g>
			<path class="st2" d="M117.6,17.9c-0.8,1.6-1.8,3.3-1.4,5c0.3,1.4,1.4,2.4,2.6,3.2c1.1,0.8,2.4,1.5,3.2,2.6
				c0.5,0.7,0.8,1.5,1.5,1.9c0.7,0.4,1.5,0.4,2.2,0.8c0.3,0.1,0.5,0.3,0.7,0.4c0.9,0.3,1.8-0.4,2.5-1.1c0.9-0.9,1.9-2,2-3.3
				c0-1.1-0.7-2.1-1.4-3c-2.2-2.8-4.5-5.7-5.5-9.1c-0.4-1.3-0.6-2.6-1.1-3.8c-0.1-0.2-0.2-0.5-0.4-0.6c0,0,0,0,0,0
				c-1.2-1.1-3.6-0.5-3.8,1.1C118.5,14.2,118.6,15.9,117.6,17.9z"/>
		</g>
		<g>
			<path class="st4" d="M115.2,17.6L115.2,17.6c0.1,1.9,0.3,3.8,0.4,5.6c0,0.7,0.1,1.4,0,2.1c-0.5,3.1-4.1,5-4.6,8.1
				c-0.2,0.9-0.1,1.9-0.9,2.3c-1.9-2.4-3.1-5.4-3.6-8.4c-0.5-3-0.3-6.1,0.2-9.2c0.2-1,0.4-1.9,0.8-2.8c1-2.1,3.1-3.1,5.4-2.7
				C115.1,13.2,115.1,15.7,115.2,17.6z"/>
		</g>
		<g>
			<path class="st2" d="M99.2,89.3c0.1-0.9,0.1-1.8,0.4-2.6c0.3-0.7,0.9-1.3,1.5-1.9c1.5-1.3,3.3-2.4,4.2-4c0.5-0.8,0.9-1.9,2-2.2
				c0.9,0.4,0.4,1.5,0.7,2.3c0.3,0.8,1.4,1.2,1.7,2c0.4,1.2-1.6,2.2-1.8,3.4c-0.1,0.6,0.2,1.1,0.3,1.7c0.5,1.8-0.2,3.7-1.8,5.1
				c0,0,0,0,0,0c-1.5,1.2-5,2.4-7.2,1.5C97,93.7,99.1,90.9,99.2,89.3z"/>
		</g>
		<g>
			<path class="st2" d="M115.9,44.7c-1.7-1-3.2-2.4-4.2-4.1c-0.3,1.9,0.2,3.9,1.3,5.4c1,1.3,2.4,2.4,2.7,4c0.3,1.6-0.6,3-0.9,4.6
				c-0.8,3.6,1.4,7,3.6,10c-0.2-4.9,0.6-9.9,2.1-14.5c0,0,0,0,0,0C121.5,47.1,118,45.9,115.9,44.7z"/>
		</g>
		<g>
			<path class="st5" d="M124.6,24.2L124.6,24.2c0.6-0.5,1.1-1.2,1.4-1.9c1.6-3,1.9-6.6,0.7-9.8c-0.2-0.6-0.5-1.3-0.9-1.8
				c-0.5-0.7-1.2-1.2-2-1.6c-0.8-0.5-1.6-0.9-2.4-1c-2-0.3-4,0.9-5,2.6s-1.2,3.8-1,5.8c0.1,0.7,0.2,1.4,0.3,2.2
				c0.1,1.4-0.2,2.7-0.1,4.1c0.2,2.1,1.5,2.9,3.4,3C121,25.7,123.1,25.5,124.6,24.2z"/>
		</g>
		<g>
			<path class="st2" d="M110.6,37.4c-1.2-0.5-2.2-1.6-3.5-1.6c-1.4,0.1-2.4,1.4-3.1,2.6c-1.9,3-3.8,6-5.6,9c-0.5-2.4-0.3-5,0-7.4
				c0.3-2.6,0.7-5.3,1.9-7.6c1.1-2.4,3-4.5,5.5-5.4c0.2-0.1,0.4-0.1,0.6,0c0.2,0.1,0.3,0.3,0.3,0.5l0,0c0.5,1.7,1,3.4,1.4,5.2
				C108.4,33.8,109.3,36.8,110.6,37.4z"/>
		</g>
		<path class="st2" d="M89.4,86.7c-0.8,0.8-2.4,2.7-2.5-1.2c0-1.7,0.8-5.8,2.2-8.3c0.2-0.3-0.3-0.5-0.5-0.3c-1.4,1.9-3,7-3.2,8.5
			c-0.3,2.7-1.8,4.6-2.9,0.1c-0.4-1.9,0.1-4.8,0.4-6.4c0-0.2-0.2-0.3-0.3-0.1c-1,1.7-1.5,5-1.5,6.6c0,2-5.9,0.4-8.4-0.9
			c-2.2-1.1-4.1-2.8-6.5-3c0,0,0,0,0,0c-2.2-0.2-4.2,0.5-6.1,1.6c-1.3,0.8-4.5,2.7-4.8,4.3c-0.2,1.3,1.7,3.5,2.2,4.7
			c0.9,2.1,1.8,4.5,1.2,6.8c-0.7,2.9-3.5,4.7-5.7,6.6c-1.6,1.4-3,3-4.2,4.8c-1.1,1.6-1.9,3.9-0.6,5.3c0.9,1,2.5,1.1,3.8,0.5
			c1.2-0.6,2.2-1.7,3-2.7c1-1.2,2-2.5,2.9-3.8c1.9-3,3.1-6.8,6.3-8.6c1.2-0.7,2.7-1,3.9-1.7c2-1.1,3.6-3.1,4-5.4
			c0.1-0.5,0.2-1,0.4-1.4c0.7-1.1,2.2-1,3.4-0.9c1.3,0.1,12.5,3.3,12.8,2.1C88.6,91.7,88.8,88.7,89.4,86.7z"/>
	</g>
	<g id="Details" class="st0">
		<g>
			<path class="st5" d="M110.4,34.1L110.4,34.1c0.1,0.3,0.3,0.7,0.7,0.7c0.3-0.5,0.1-1.1,0.1-1.7c0-0.6,0.2-2.5,0.8-2.5
				c0.1,0,0.2,0,0.3,0.1c0.1,0.1,0.1,0.2,0.1,0.3c0.1,0.5,0.3,1,0.4,1.4c0,0.1,0.1,0.3,0.2,0.3c0.3,0.2,0.6-0.1,0.8-0.4
				c0.5-1.2,0.3-3.8,1.1-4.9c0.2-0.2,0.4-0.5,0.4-0.8c0.1-0.4-0.1-0.7-0.2-1.1c-0.4-1.1,0-1.7,0.2-2.8c0.2-1.1,0.7-2.1,0.9-3.2
				c0.3-1.3,0.1-2.7,0-4.1c-0.1-1.1-0.3-2.3-1.3-2.8c-0.8-0.4-1.7-0.1-2.5,0.4c-1.5,1-1.6,3-2.5,4.6c-0.4,0.7-0.4,2.9-0.7,3.7
				c-1.9,5.2-2.7,7.6-0.4,10.6C109.7,32.9,110.1,33.3,110.4,34.1z"/>
		</g>
		<g>
			<path class="st6" d="M111.6,24.6c-0.2,0.2-0.3,0.3-0.4,0.5c-0.1,0.5,0.6,0.9,0.6,1.4c0,0,0,0.1,0,0.1c0,0-0.1,0-0.1,0
				c-0.3,0-0.6-0.3-0.9-0.5c-0.1,0-0.2,0-0.2,0c-0.1,0.1,0,0.2,0.1,0.3c0.3,0.4,0.7,0.7,1.1,0.9c-0.2,0.2-0.5,0.4-0.7,0.7
				c0,0-0.1,0.1-0.1,0.2c-0.1,0.2,0.1,0.5,0.3,0.6c0.4,0.4,0.6,1,0.7,1.6c-0.1,0.1-0.2,0.2-0.4,0.1s-0.3-0.1-0.4-0.2
				c-0.7-0.6-1.4-1.3-1.7-2.2c-0.2-0.4-0.3-0.8-0.3-1.2c-0.3-1.3-0.4-2.6-0.3-3.9c0,0,0,0,0,0c0.1-1,0.4-2.1,0.9-3
				c0.3-0.6,0.9-1.7,1.7-1.5c0.5,0.1,0.4,0.7,0.4,1.1c0,0.7-0.1,1.3,0,2C111.8,22.8,112.4,23.7,111.6,24.6z"/>
		</g>
		<g>
			<path class="st7" d="M119.2,45.8L119.2,45.8c0.7,0,1.4,0,2.2,0c0.1,0,0.2,0,0.3-0.1c0.1-0.1,0.1-0.3,0-0.4
				c-0.4-1.1-0.8-2.2-1.2-3.3c-0.1-0.2-0.2-0.4-0.1-0.6c0-0.2,0.2-0.4,0.2-0.5c0.4-0.7,0.2-1.6,0-2.4c-0.3-0.8-0.7-1.5-0.8-2.4
				c-0.1-1.1,0.3-2.3,1-3.2c0.7-0.9,1.6-1.6,2.6-2.1c0.6-0.3,1.2-0.6,1.9-0.6c0.7,0,1.4,0.3,1.6,1c0.5-1,1.7-1.5,2.9-1.6
				c2.1-0.1,4.2,0.6,6,1.7c1.8,1.1,3.4,2.5,5.1,3.8c1.8,1.4,3.7,2.6,4.8,4.5c1.9,3.2,1.3,7.3-0.4,10.6c-0.6,1.1-1.2,2.2-2.1,3.1
				c-1.1,1.1-2.4,2-3.7,2.8c-1.3,0.8-2.5,1.6-4,1.9c-1.9,0.4-3.9-0.1-5.8-0.7c-2.6-0.8-5.3-1.8-7.1-3.8c-1-1.1-1.7-2.4-2.1-3.8
				c-0.2-0.6-0.1-1.6-0.3-2.1C119.9,46.8,119.2,46.6,119.2,45.8z"/>
		</g>
		<g>
			<path class="st8" d="M128.7,30.8L128.7,30.8c-0.2,0.2-0.4,0.4-0.5,0.7c-0.1,0.3,0,0.8,0.3,1c0.1,0.1,0.2,0.2,0.2,0.3
				c0.1,0.2-0.2,0.5-0.1,0.7c0.2,0.2,0.6,0.3,0.9,0.2c0.3-0.1,0.6-0.2,1-0.1c0.3,0,0.6,0.2,0.8,0c0.2-0.1,0.3-0.3,0.3-0.4
				c0.2-0.6,0.2-1.4-0.1-2c-0.1-0.2-0.2-0.3-0.4-0.4C130.5,30.3,129.4,30.3,128.7,30.8z"/>
		</g>
		<g>
			<path class="st8" d="M123.3,31.8L123.3,31.8c-0.2,0-0.5,0-0.6,0.2c-0.2,0.1-0.3,0.3-0.4,0.4c-0.3,0.4-0.5,0.8-0.7,1.3
				c-0.1,0.2-0.1,0.3-0.1,0.5c0.1,0.2,0.3,0.3,0.5,0.4c0.4,0.2,0.7,0.4,1,0.7c0.1,0.1,0.2,0.2,0.3,0.2c0.2,0.1,0.3,0.1,0.5,0.1
				c0.9-0.1,1.5-0.9,2.3-1.2c0.2-0.1,0.5-0.1,0.7-0.2s0.4-0.4,0.4-0.6c-0.1-0.5-0.8-0.5-1.1-0.9c-0.3-0.4-0.2-1-0.8-1.1
				C124.7,31.5,123.9,31.7,123.3,31.8z"/>
		</g>
		<g>
			<path class="st9" d="M118.4,21.1c0.1-1.9,1.1-3.6,1.4-5.5c0.2-1.4-0.1-2.8-0.8-4c0.7,0.2,1.2,0.9,1.6,1.6c2,3.7,3.1,7.9,3,12
				c0,0.2,0,0.4-0.1,0.5c-0.2,0.2-0.5,0.2-0.8,0.1l0,0c-1-0.1-2.8,0-3.5-0.8C118.5,24.3,118.4,22.1,118.4,21.1z"/>
		</g>
		<g>
			<path class="st9" d="M109,26.8L109,26.8c0.7-2.3,1.8-4.4,2.8-6.6s1.8-6.6,2-6.1c1.1,2.6-0.4,6.2,0.2,9.1c0.1,0.4,0.2,0.9,0.3,1.3
				c0,0.7-0.2,1.5-0.3,2.2s0,1.6,0.6,2c0.2-1.1,1-2,2.1-2.3c0.3-0.1,0.7-0.2,0.9-0.5c0.2-0.4-0.2-0.9-0.5-1.3
				c-0.8-1-0.8-2.4-0.6-3.6c0.2-1.2,0.6-2.5,0.6-3.7c0-1.4-0.6-2.7-1.2-4c-0.4-0.8-0.7-1.6-1.5-2.1c-0.8-0.5-1.8-0.5-2.8-0.3
				c-1,0.2-2,0.5-2.8,1.1c-0.7,0.5-1.1,1.3-1.5,2c-1,1.7-1.9,3.6-2.3,5.6s-0.4,4.1,0.3,6c0.4,1.1,1.1,2.1,1.5,3.2
				c0.3,0.9,0.4,1.8,0.7,2.7c0.2,0.6,0.7,2,1.5,2C108.4,31.2,108.3,29.1,109,26.8z"/>
		</g>
		<g>
			<path class="st10" d="M116.9,39.5c0.1,0.4,0.5,0.7,0.9,0.7c0.1,0,0.1,0,0.2-0.1c0,0,0.1-0.1,0.1-0.2c0,0,0,0,0,0
				C118.5,38.5,116.7,38.4,116.9,39.5z"/>
		</g>
		<g>
			<path class="st11" d="M123.9,32.7L123.9,32.7c0.2-0.1,0.3-0.2,0.5-0.2s0.4,0,0.5,0.2c0.1,0.1,0.1,0.2,0.2,0.3
				c0.1,0.2,0.2,0.4,0.2,0.7c0,0.4-0.3,0.8-1.1,1c-0.7,0.1-1.3-0.5-1.5-1C123.1,33.4,123.5,32.9,123.9,32.7z"/>
		</g>
		<g>
			<path class="st11" d="M129.9,33.2c0.2,0.1,0.3,0.1,0.5,0.1c0.1,0,0.1,0,0.2,0c0.1,0,0.1-0.1,0.2-0.1c0.4-0.4,0.4-1.1,0.2-1.6
				c-0.1-0.2-0.2-0.3-0.3-0.4c0,0,0,0,0,0C129.4,30.4,128.9,32.6,129.9,33.2z"/>
		</g>
		<g>
			<path class="st8" d="M135.4,38.6L135.4,38.6c-1.1,0.8-1.8,2.5-1,3.7c0.1,0.2,0.3,0.4,0.5,0.7c0.5,0.9,0.3,1.9,0.1,2.9
				c-0.3,1.1-0.6,2.2-1.5,2.8c-0.4,0.3-1,0.4-1.5,0.5c-0.5,0.1-1.1,0.2-1.6,0.4c-0.5,0.1-1,0.2-1.5,0.1c-0.2,0-0.5-0.1-0.7-0.1
				c-0.4,0-0.9,0.1-1.3,0.2c-0.8,0.2-1.6,0.2-2.4-0.1c-0.9-0.3-1.6-1.1-2.5-1.2c0.9,1.6,2.2,3,3.6,4.1c2.1,1.5,4.6,2.2,7.1,2.1
				s5-1.2,6.8-3c0.7-0.7,1.3-1.4,1.8-2.2c0.5-0.8,1-1.6,1.4-2.5c0.8-2,0.8-4.3,0.7-6.4c0-0.7,0-1.3-0.2-2s-0.6-1.2-1.2-1.5
				c-1-0.5-2.2-0.2-3.1,0.1C137.6,37.7,136.4,37.9,135.4,38.6z"/>
		</g>
		<g>
			<path class="st12" d="M136,42.2L136,42.2c0.6,0.6,1.5,0.9,2.4,1.1c0.5,0.1,1,0.2,1.5,0.1c0.6-0.1,1.1-0.4,1.5-0.7
				c0.9-0.7,1.6-1.8,1.5-3c-0.1-0.8-0.5-1.6-1.3-1.9c-0.8-0.3-1.6-0.1-2.4,0.1c-1,0.2-2.3,0.4-3.1,1.1C134.9,39.8,135,41.3,136,42.2
				z"/>
		</g>
	</g>
</g>
<g id="Outlines">
	<g>
		<g>
			<path class="st11" d="M23,135.8c-2.6-4.6,0.7-9.3,2.1-13.4c1-3,1-6.2,1.9-9.2c1-3.3,3.8-5.5,5.9-8.2c1.9-2.4,3.6-5,4.9-7.8
				c2.8-5.7,3.9-11.7,5-17.9c1.4-8.3,7.2-13.6,14.4-17.5c6.1-3.3,13.5-1.2,20.2-1.7c4.9-0.4,9.7-1.6,13.4-5c2.3-2.2,3.6-5.1,5.8-7.5
				c1.3-1.4,2.5-2.5,3.5-4.1c2.2-3.5,4-9.6,7.5-11.9c0.5-0.3,0.2-1.1-0.4-0.9c-3.5,1.1-5.1,5.7-6.4,8.7c-1,2.4-1.7,4.6-3.6,6.5
				c-2.6,2.6-5,5.5-7.8,8c-5.9,5.4-14.8,5.8-22.2,5.2c-3.1-0.2-6.4-0.7-9.3,0.5c-2.8,1.1-5.7,3.4-8.1,5.2c-4.9,3.8-7.8,8.1-8.5,14.3
				c-1.1,9.1-2.9,16.6-8.5,24c-1.9,2.5-4.9,4.5-6.6,7.1c-1.5,2.4-1.2,5.8-1.8,8.5c-1.3,5.5-5,11.9-1.6,17.2
				C22.9,136,23.1,135.9,23,135.8L23,135.8z"/>
		</g>
	</g>
	<g>
		<g>
			<path class="st11" d="M31.5,135.9c0.5-1.5,0.7-2.6,0.1-4.1c-0.6-1.4-1.8-1.7-2.4-2.8c-1.2-2,0.5-6.9,1.2-9
				c1.4-4.1,4.4-8.1,7.2-11.3c4-4.4,8.8-7.9,12.4-12.6c4.8-6.2,11-18.9,20.8-12.6c0.1,0,0.1-0.1,0.1-0.1c-3.8-3.4-9.2-2.3-12.9,0.7
				c-3.5,2.9-5.6,7.3-8.4,10.7c-2.6,3.1-5.6,5.7-8.5,8.4c-5.8,5.4-9.7,10.5-11.9,18.1c-0.6,2.2-2.4,5.3-1.6,7.7
				c0.1,0.4,0.5,0.5,0.7,0.9c1.1,2.1,2.4,3.2,2.6,5.9C31.1,136.1,31.5,136.2,31.5,135.9L31.5,135.9z"/>
		</g>
	</g>
	<g>
		<g>
			<path class="st11" d="M54.8,88.5c0.7,2.5,2,4.8,2.7,7.3c1.2,4.1-0.2,7.5-2.8,10.8c-1.7,2.1-5.3,4.4-4.9,7.6
				c0.2,1.3,1.3,2.5,2,3.6c1.7,2.6,3.1,5.3,4.1,8.2c0.8,2.5,1,5.6,3.5,6.9c0.4,0.2,0.7-0.4,0.3-0.6c-2-1.2-2-4.7-2.6-6.7
				c-0.5-1.7-1.2-3.3-2.1-4.9c-2.2-4-5.3-5.3-2.1-11.3c0.7-1.4,2.1-2.5,3-3.9c3.5-5.5,3.8-12.5-0.7-17.5
				C55.2,87.9,54.7,88.1,54.8,88.5L54.8,88.5z"/>
		</g>
	</g>
	<g>
		<g>
			<path class="st11" d="M70.5,86.5c-0.6,2.7,0.3,4.3,0.3,7c0,3.7-2.1,6.8-4.3,9.6c-2.7,3.5-6.6,6.7-8.4,10.8
				c-1.5,3.4-0.8,6.1,0.6,9.4c0.7,1.8,1.5,3.5,2.9,4.8c1.9,1.7,5.1-2.7,5.4,3.6c0,0.6,0.9,0.6,1,0c0.2-2.4-0.8-3.4-2.9-4.4
				c-1.2-0.5-1.5,0.1-2.9-0.8c-1.8-1.1-2.7-3-3.3-5.1c-1.1-3.8,0.7-7.5,2.7-10.6c2.8-4.1,6.6-7.6,8.8-12.1c2-4.1,1.5-7.9,1.3-12.3
				C71.4,86.1,70.6,85.9,70.5,86.5L70.5,86.5z"/>
		</g>
	</g>
	<g>
		<g>
			<path class="st11" d="M119.2,46.9c-3.4,6.8-1.5,14.1-1.9,21.4c-0.4,8.4-3.4,15.9-6.4,23.6c-0.1,0.3,0.3,0.4,0.5,0.2
				c3.8-6,5.9-12.5,6.8-19.5c0.6-4.3-0.3-8.4-0.2-12.7c0.1-4.3,1.9-8.4,2.1-12.7C120,46.7,119.4,46.5,119.2,46.9L119.2,46.9z"/>
		</g>
	</g>
	<g>
		<g>
			<path class="st11" d="M111.2,91.5c-1.3,9.4-3.7,18.6-4.1,28.2c-0.2,3.9,0.2,7.8,1.4,11.5c0.8,2.6,5.8,8.1,5,10.4
				c-0.1,0.4,0.4,0.5,0.6,0.3c1-1.4,0.4-3.4-0.5-4.8c-1.1-1.8-2.7-3-3.6-5c-1.2-2.9-1.8-6-2-9.1c-0.7-10.5,3.4-20.9,3.8-31.4
				C111.8,91.2,111.2,91.1,111.2,91.5L111.2,91.5z"/>
		</g>
	</g>
	<g>
		<g>
			<path class="st11" d="M98.4,95.1c2.1,0.4,4.4,0.8,6.4-0.3c1.6-0.9,2.9-2.6,3.7-4.1c0-0.1-0.1-0.2-0.1-0.1c-1.8,3-6.6,4.1-9.9,4.3
				C98.3,94.9,98.2,95.1,98.4,95.1L98.4,95.1z"/>
		</g>
	</g>
	<g>
		<g>
			<path class="st11" d="M101.5,95.6c-1,5.2,0.2,11.1,0.4,16.4c0.1,2.7,0.4,5.5,0.3,8.2c-0.1,2.1-1.1,4.2-1,6.3
				c0.1,2.3,1.6,4.2,2.2,6.4c0.5,2.1,0.6,4.4,1.3,6.4c0.7,2.1,1.7,3,3.9,3.2c0.5,0.1,0.6-0.7,0.1-0.9c-3.6-1.1-3.8-8.5-4.8-11.5
				c-0.6-1.9-1.4-2.6-1.5-5c-0.1-1.8,0.7-4,0.7-5.8c0-4-0.5-8.1-0.5-12.1c-0.1-3.9,0.7-7.8,0-11.6C102.4,95.1,101.6,95.1,101.5,95.6
				L101.5,95.6z"/>
		</g>
	</g>
	<g>
		<g>
			<path class="st11" d="M99.1,89.2c-3.4,9.8-3.7,19.2-3.9,29.5c-0.1,4.4-1.3,9.9-0.2,14.2c0.4,1.4,6.5,8.7,4,9.8
				c-0.6,0.3-0.2,1.2,0.4,1c1.8-0.6,1.9-1.9,1.2-3.7c-0.5-1.4-1.6-2.4-2.4-3.6c-2-3.1-2.1-6.3-2.2-9.9c-0.1-6.6-0.2-13.2,0.3-19.8
				c0.4-5.9,2.2-11.7,2.9-17.6C99.3,89.1,99.1,89.1,99.1,89.2L99.1,89.2z"/>
		</g>
	</g>
	<g>
		<g>
			<path class="st11" d="M89.7,86.2c-2.7,4.6-1,10.5-0.7,15.6c0.5,7.3,1.1,15-0.2,22.2c-0.3,1.6-0.7,2.9-0.4,4.5
				c0.6,3.3,1.8,5.5,1.9,9.1c0.1,2.4-0.4,5.6,2.4,6.3c0.3,0.1,0.5-0.3,0.3-0.5c-2.6-2.5-1.1-8.7-2.1-12c-0.8-2.5-1.6-4.4-1.3-7.2
				c0.2-1.9,0.6-3.8,0.7-5.7c0.3-5.2,0.2-10.5-0.1-15.7C90,97.7,88,91,89.7,86.2C89.8,86.2,89.8,86.1,89.7,86.2L89.7,86.2z"/>
		</g>
	</g>
	<g>
		<g>
			<path class="st11" d="M58.1,85.2c2.2,0.9,3.8,2,5.5,3.6c0.8,0.7,1.8,2.3,2.9,2.5c1.2,0.3,1.3,0.1,1.9-1c0.2-0.3,0.1-0.9,0.2-1.2
				c0.7-1.6,1.3-2.8,3.3-2.9c1.9,0,4.5,2.1,6,3.2c3.5,2.5,6.2,5,10.7,5c0.5,0,0.6-0.8,0.1-0.9c-5-1.4-8.7-4.2-13.2-6.5
				c-1.5-0.8-4.7-2.8-6.6-1.8c-0.3,0.2-0.5,0.3-0.7,0.6c-0.1,0.2-0.1,0.6-0.3,0.7c-0.1,0.5-0.1,0.9-0.2,1.4c-1,0.4-1.9,0.9-2.9,1.3
				c-0.9-0.2-2.7-2.4-3.6-2.9c-1-0.6-2-0.9-3.1-1.3C58,84.9,57.9,85.2,58.1,85.2L58.1,85.2z"/>
		</g>
	</g>
	<g>
		<g>
			<path class="st11" d="M21.3,97.4c6,2.7,16.8-2.6,19.2-8.5c0.2-0.4-0.4-0.7-0.7-0.4C35.2,93.4,28.8,99.3,21.3,97.4
				C21.3,97.3,21.3,97.4,21.3,97.4L21.3,97.4z"/>
		</g>
	</g>
	<g>
		<g>
			<path class="st11" d="M21.6,97.7c4.8,5.3,12.6,1.4,16.9-2.3c0.4-0.4-0.1-1.1-0.6-0.8c-2.3,1.6-4.5,3.2-7.2,4
				C27.3,99.6,24.9,98.7,21.6,97.7C21.6,97.7,21.6,97.7,21.6,97.7L21.6,97.7z"/>
		</g>
	</g>
	<g>
		<g>
			<path class="st11" d="M59.1,131.9c0,0.6,0.6,0.9,1.1,1.1c0.8,0.3,1.6,0.3,2.3-0.1c1.1-0.6,1-2.3,0.2-3.1c0,0-0.1,0,0,0
				c0.9,1,0.1,1.7-0.8,2.2c-0.4,0.2-0.8,0.3-1.2,0.3C60,132.5,59.7,132.2,59.1,131.9C59.1,131.9,59.1,131.9,59.1,131.9L59.1,131.9z"
				/>
		</g>
	</g>
	<g>
		<g>
			<path class="st11" d="M62.8,132.3c1.3,0.4,4.4,1.6,4.7-0.7c0-0.3-0.4-0.5-0.6-0.3c-1,1.1-2.7,0.6-4,0.5
				C62.6,131.8,62.6,132.2,62.8,132.3L62.8,132.3z"/>
		</g>
	</g>
	<g>
		<g>
			<path class="st11" d="M24.5,130.6c0.6,1.4,1.4,2.9,1.2,4.5c-0.1,0.9-1.1,0.9-1.8,0.7c-0.6-0.2-1.1-0.6-1.4-1.2
				c-0.1-0.2-0.3,0-0.3,0.1c0.2,0.9,0.4,1.7,1.4,2.1c0.8,0.3,2.2,0.3,2.8-0.5c0.6-0.7,0.2-1.7,0-2.5C26,132.7,25.6,131.2,24.5,130.6
				C24.5,130.6,24.5,130.6,24.5,130.6L24.5,130.6z"/>
		</g>
	</g>
	<g>
		<g>
			<path class="st11" d="M27.6,130.8c0.6,1.2,1.1,2.9,1.1,4.2c0,1.8-2,1.6-3.3,1.2c-0.2-0.1-0.3,0.2-0.2,0.3c0.6,0.8,1.8,1,2.8,1
				c0.9,0,1.5-0.7,1.7-1.6c0.5-1.8-0.9-4-1.9-5.3C27.7,130.5,27.5,130.6,27.6,130.8L27.6,130.8z"/>
		</g>
	</g>
	<g>
		<g>
			<path class="st11" d="M28.1,136.4c0.9,0.4,2.6,0.6,3.3-0.4c0.7-1,0.1-2.6-0.4-3.6c0-0.1-0.2,0-0.2,0.1c0.2,0.8,0.5,2,0.1,2.8
				c-0.4,1-1.8,1-2.7,0.8C27.9,136,27.9,136.3,28.1,136.4L28.1,136.4z"/>
		</g>
	</g>
	<g>
		<g>
			<path class="st11" d="M109.2,136.4c0.6,0.8,1,1.7,1.1,2.7c0.1,0.6,0.2,1.7-0.3,2.1c-0.6,0.5-1.9,0.4-2.6,0.3
				c-0.2,0-0.4,0-0.5,0.2c0,0.1-0.1,0.1-0.1,0.2c0,0.2,0.1,0.4,0.3,0.4c1.1,0.2,3.1,0.6,3.9-0.4c0.6-0.8,0.2-1.7-0.1-2.5
				c-0.4-1.1-0.9-2.2-1.6-3.1C109.4,136.1,109.1,136.3,109.2,136.4L109.2,136.4z"/>
		</g>
	</g>
	<g>
		<g>
			<path class="st11" d="M109,141.7c0.6,1.1,2.5,1.2,3.6,1c1.3-0.3,1.9-1.3,1.7-2.6c0-0.1-0.1-0.1-0.1,0c0,1.3-1.6,1.6-2.7,1.7
				c-0.4,0-0.8,0.1-1.2,0C109.8,141.8,109.5,141.6,109,141.7C109,141.6,109,141.7,109,141.7L109,141.7z"/>
		</g>
	</g>
	<g>
		<g>
			<path class="st11" d="M94.2,138.6c0.9,1.2,1.2,3.1,0.7,4.5c0,0.1-0.1,0.2-0.1,0.3c0.3-0.3,0-0.2-0.3-0.2c-0.4,0-0.8,0.2-1.2,0.1
				c-0.5,0-0.8-0.2-1.2-0.4c-0.1-0.1-0.3,0-0.3,0.2c0.2,0.7,1.7,0.8,2.3,0.9c0.6,0.1,1.1,0.1,1.4-0.4
				C96.4,142.2,95.3,139.6,94.2,138.6C94.2,138.5,94.1,138.6,94.2,138.6L94.2,138.6z"/>
		</g>
	</g>
	<g>
		<g>
			<path class="st11" d="M97.6,138.6c0.6,1.1,1.5,3.5,0.7,4.7c-0.2,0.4-0.5,0.3-1,0.3c-0.9,0-1.2-0.3-1.9-0.8
				c-0.2-0.2-0.5-0.1-0.5,0.2c0,0.8,0.8,1.3,1.6,1.4c0.6,0.1,1.8,0.2,2.3-0.3c0.5-0.5,0.5-1.5,0.4-2.1c-0.1-1.3-0.7-2.4-1.5-3.6
				C97.7,138.4,97.6,138.5,97.6,138.6L97.6,138.6z"/>
		</g>
	</g>
	<g>
		<g>
			<path class="st11" d="M111.1,37.8c-1.1-2.2-2.4-4.5-2.8-7c-0.7-4.3,0.8-6.6,2.6-10.1c0.6-1.2,1.9-7,2.7-7.4
				c2.2-1.1,1.1,7.9,1.5,9.6c0.5,1.8,1.3,2.5,3,3c0.2,0.1,0.4-0.3,0.2-0.4c-4.1-2.3-1.2-10.3-4.5-13.5c-0.1-0.1-0.4-0.1-0.4,0.1
				c-0.5,2-1.1,4.1-1.9,6c-1.1,2.6-3,4.6-3.8,7.3C106.1,30.1,108.3,34.1,111.1,37.8C111,37.9,111.1,37.9,111.1,37.8L111.1,37.8z"/>
		</g>
	</g>
	<g>
		<g>
			<path class="st11" d="M116.5,23.9c0.1-4.1,3.9-7.9,2-12c-0.1-0.2-0.5-0.1-0.4,0.2c1.4,4.2-2.2,7.7-1.7,11.9
				C116.3,24,116.5,24,116.5,23.9L116.5,23.9z"/>
		</g>
	</g>
	<g>
		<g>
			<path class="st11" d="M118.3,12c4.6,3.7-1.8,10.9,4.4,13.9c0.1,0,0.1,0,0.1-0.1c-3.1-3.3-1.8-6.3-2.2-10.3
				c-0.2-1.6-0.7-3-2.2-3.7C118.3,11.8,118.2,11.9,118.3,12L118.3,12z"/>
		</g>
	</g>
	<g>
		<g>
			<path class="st11" d="M119.8,25.7c2.1,0.7,4.1,0.4,6.1,1.6c2,1.1,4,2.5,4.4,4.8c0,0.2,0.3,0.1,0.3,0c0.7-1.9-1.2-3.3-2.6-4.3
				c-1.1-0.7-2.2-1.5-3.4-1.9c-1.6-0.5-3.2-0.1-4.8-0.5C119.7,25.5,119.7,25.7,119.8,25.7L119.8,25.7z"/>
		</g>
	</g>
	<g>
		<g>
			<path class="st11" d="M130.6,31.3c-0.3,1.8,0.5,3.6,2.2,4.2c0.4,0.1,0.9,0.2,1.3,0.2c1.4,0.2,2,0.4,3.1,1.1
				c1,0.7,5.4,1.8,4.2,3.5c-0.1,0.1,0.1,0.3,0.2,0.1c1.4-1.9-0.9-2.8-2.5-3.5c-1.3-0.5-2.4-1.4-3.7-1.7c-2.3-0.6-4-1.5-4.7-4
				C130.8,31.2,130.6,31.2,130.6,31.3L130.6,31.3z"/>
		</g>
	</g>
	<g>
		<g>
			<path class="st11" d="M113.3,42.7c2.5,3.1,5.4,3.5,8.3,5.9c1.7,1.4,2.7,3.8,5,4.1c1.7,0.2,4.9-0.9,6.7-1.4
				c3.1-0.8,4.3-3.8,6.5-5.9c0.1-0.1,0-0.1-0.1-0.1c-1.7,0.3-1.8,0.7-3.1,2.1c-1.9,2.1-2.8,3.3-5.8,3.6c1.5-0.2-6.6-0.1-3.6-0.1
				c-2.9,0-3.4-1.5-5.6-3C118.9,45.9,115.9,45.2,113.3,42.7C113.3,42.7,113.3,42.7,113.3,42.7L113.3,42.7z"/>
		</g>
	</g>
	<g>
		<g>
			<path class="st11" d="M141.3,40.2c-1.3,2-0.6,4.1-1.4,6.2c-0.6,1.4-1.8,2.9-3.1,3.6c-1.1,0.5-2,0.3-3,0.5c-0.1,0-0.3,0.2-0.3,0.3
				c0,0.1-0.1,0.2-0.1,0.4c0,0.1,0.1,0.3,0.3,0.3c0.9-0.3,1.8,0.4,2.8,0.2c1.1-0.3,1.9-1.4,2.6-2.3c0.8-1.1,1.7-2.3,2-3.6
				c0.5-1.8,0-3.5,0.8-5.3C141.8,40.2,141.4,39.9,141.3,40.2L141.3,40.2z"/>
		</g>
	</g>
	<g>
		<g>
			<path class="st11" d="M136.4,40.3c0.4,0.2,0.5,0.7,0.9,1c0.3,0.2,0.6,0.3,1,0.4c0.9,0.2,1.6,0,2.1-0.9c0.1-0.2,0.1-0.4,0-0.6
				c0,0,0-0.1-0.1-0.1c-0.1-0.2-0.3-0.2-0.5-0.2c-0.6,0.1-0.8,1.1-1.5,1.2c-0.7,0.1-1.2-0.8-1.8-1C136.4,40.1,136.3,40.3,136.4,40.3
				L136.4,40.3z"/>
		</g>
	</g>
	<g>
		<g>
			<path class="st11" d="M140.9,39.8c-0.2,0.4-0.3,0.9,0.3,1c0.2,0,0.3-0.1,0.4-0.2c0.1-0.1,0.1-0.2,0.2-0.4
				C141.9,39.6,141.2,39.3,140.9,39.8L140.9,39.8z"/>
		</g>
	</g>
	<g>
		<g>
			<path class="st11" d="M121.3,34.5c0.2-0.8,0.6-1.8,1.3-2.3c0.9-0.7,1.9-0.7,2.9-0.4c0,0,0.1,0,0-0.1c-0.7-0.9-2.2-0.4-3,0.2
				C121.9,32.4,121.3,33.6,121.3,34.5C121.3,34.5,121.3,34.5,121.3,34.5L121.3,34.5z"/>
		</g>
	</g>
	<g>
		<g>
			<path class="st11" d="M122.1,33.9c0.4,0.1,0.6-0.1,0.9-0.4c0.6-0.5,1.6-1.4,2.2-0.4c0,0,0.1,0,0,0c-0.2-0.5-0.4-1-1.1-0.9
				C123.2,32.5,122.9,33.6,122.1,33.9C122.1,33.9,122.1,33.9,122.1,33.9L122.1,33.9z"/>
		</g>
	</g>
	<g>
		<g>
			<path class="st11" d="M129.3,32.5c0-0.3,0.1-0.5,0.3-0.7c0.1-0.1,0.1-0.2,0.2-0.3c0.4-0.3,0.5-0.1,0.7,0.2c0,0.1,0.2,0.1,0.2,0
				c0.3-0.6-0.4-1-0.9-0.8c-0.6,0.3-0.8,1-0.6,1.6C129.3,32.6,129.3,32.6,129.3,32.5L129.3,32.5z"/>
		</g>
	</g>
	<g>
		<g>
			<path class="st11" d="M128.2,31.4c0.4-0.9,1.3-1,2.1-0.7c0.1,0,0.2-0.1,0.1-0.2C129.5,29.8,128.4,30.4,128.2,31.4
				C128.1,31.4,128.2,31.4,128.2,31.4L128.2,31.4z"/>
		</g>
	</g>
</g>
</svg>
