<?xml version="1.0" encoding="utf-8"?>
<!-- Generator: Adobe Illustrator 22.1.0, SVG Export Plug-In . SVG Version: 6.00 Build 0)  -->
<svg version="1.1" id="Card_2" xmlns="http://www.w3.org/2000/svg" xmlns:xlink="http://www.w3.org/1999/xlink" x="0px" y="0px"
	 viewBox="0 0 155.9 155.9" style="enable-background:new 0 0 155.9 155.9;" xml:space="preserve">
<style type="text/css">
	.st0{clip-path:url(#SVGID_2_);}
	.st1{fill:#928C87;}
	.st2{fill:#7C7671;}
	.st3{fill:#67615C;}
	.st4{fill:#CEC7B7;}
	.st5{fill:#FFFFFF;}
	.st6{clip-path:url(#SVGID_4_);}
	.st7{fill:#1E1E1B;}
	.st8{fill:#010202;}
</style>
<g id="Colours_2">
	<g>
		<g>
			<g>
				<g>
					<defs>
						<path id="SVGID_1_" d="M144.7,28c-1-0.8-2-1.2-3.2-1.8c-1-0.6-1.9-1.3-2.9-2c-0.8-0.6-1.3-1.2-1.6-2.1
							c-0.2,0.1-0.4,0.1-0.7,0.1c0.1-0.8,0.2-1.6,0.2-2.2c-0.7,0-1.2,0-1.9,0.2c0.1-0.7,0.4-1.2,0.8-1.9c-0.8,0.3-1.2,1-1.9,1.3
							c-0.3-0.2-0.8-1.1-0.8-1.6l-1.2,0.1c-0.7-0.3-1-1.2-1.2-1.8c-0.4-0.6-0.9-0.8-1.6-1c-1.1-0.3-2.6,0-3.7-0.4
							c-1.2-0.4-2-0.3-3.4-0.1c-2.7,0.6-4.7,1.5-6.8,3.1L114,18c-1.1,0.2-1.8,0.6-2.6,1.5c-1.6,2-3.2,3.8-5,5.8
							c-0.8,0.9-2.6,3.2-1.9,4.2c-1.8,2.1-4.6,4.8-6.9,6.6c-2.5,1.8-4.8,2.3-7.6,3c-5.5,1.1-11,3.2-16.8,2.6
							c-2.8-0.3-5.6-0.6-8.5-0.9c-1.6-0.1-3-0.4-4.6-0.3c-1.6,0.1-2.7,0.8-4.1,1.1c-2.8,1-5.8,0.9-8.7,1.7c-3.2,1-6.3,4.4-8.7,6.6
							c-3.1,2.7-5.9,6.7-7.9,10.2c-1.7,3-2,7.7-3.8,10.6c0.8-0.8,1-1,1.2-1.1c-1.2,3.2-0.6,8.1,0,11.7c0.7,4.6,0.7,8.1-0.4,12.5
							c-0.6,2.3-0.9,6.3-1.9,8.4c-1,2-2.6,3.8-3.5,5.9c-1.6,3.7-0.2,7.9-0.2,11.9c0,2.5,0.1,4.9-0.2,7.3c-0.1,1.3-1.9,6.8,1.1,6.5
							c1.1-0.1,2.6,0,3.6,0.2c1.2,0.2,2.6,0.4,3.5-0.4c0.3-1.1,0.1-2.6-0.9-3.4l-1.5-1.1c-1-4.1-1-8.1,0-12.2
							c1.1-5.3,1.8-9.7,4.4-14.7c1.2-2.5,2.8-4.9,4.6-7.2c0.1,0.3,0.4,0.6,0.6,0.8c1.1-1.3,1.7-3.6,2.5-5.4c0.4,3.2,2.3,6.5,4.1,9.1
							c0-0.3,0.1-0.6,0.2-0.8c4.6,4.9,6.9,15,5,21.4c-0.6,1.7-1.3,3-2.1,4.6c1.6-0.3,3.1-3,3.7-3.2c0,0.2-0.7,1.2-0.8,1.6
							c1.8-1.9,2.8-4.1,3.1-6.4c1.1,1.5,2.5,3.2,3.1,5c1.3,3.5,1.1,7.9,5.5,8.7c1.6,0.2,6.4,1.5,6.3-0.2c0-1.5-0.2-3.5-1.6-4.4
							c-0.7-0.4-1.9-0.6-2.9-0.4c-1.7-1.6-3.1-4.4-4-6.5c-1.7-3.8-2.8-8.1-2.2-12.3c0.3-2.1,1.1-4,2.1-5.9c0.6-1,1.2-1.9,1.7-3
							c0.5-1.1,0.4-2.3,1.1-3.2c0.1,0.1,0.1,0.3,0.2,0.6c1.8-1,2.9-5.4,2.8-7.4c0.6,0.1,1,0.6,1.1,1.1c0.2-5.9-0.6-7-1.3-8.7
							c3.4,2,7.8,3.1,11.7,3.9c-0.1-0.3-0.1-0.7-0.3-1c2,0.7,3.2,2.9,5.3,3.2c-0.3-1.6,3.8-0.9,5.3-0.9c0.9,0,2-0.2,2.9,0
							c1.1,0.2,2-0.6,3.1-0.3c0.9,3.1-2.1,5.3-3,8.3c0.7-0.1,1.2-0.4,1.9-0.4c0.1,1.7-0.3,3.2-0.1,4.9c0.2,1.7,0.8,3.4,1.1,5
							c0.4,3.2,0.7,6.6,1,9.8c0.4,3.6,1.7,7.8,0.6,11.5c-0.6,1.6-1.3,3-1.1,4.8c0.3,1.7,1.8,3.2,2.3,4.9c0.9,2.6-1,8.5,2.2,9.4
							c1.2,0.8,3,0.8,3.8,0.9c1.6,0.1,4,0.4,4.8-1.5c0.3-2.6-1.5-2.8-3-3.8c-1.7-1.2-2.2-3.5-2.6-5.5c-0.6-3.5,1.3-6.9,0.3-10.3
							c-1.1-3.6-0.9-7.3-0.9-11.1c0-1.8-0.2-3.7,0-5.4c0.2-1.8,0.8-3.4,0.9-5.4c0.1-2.2,0.7-5.4,1-7.6c-0.2,1.1,0.4,2.6,0.6,3.8
							c0.1,1.3,0.3,2.7,0.4,3.9c0.2,1.8,0.1,3.6,0.3,5.4c0.2,1.7,0.4,3.5,0.7,5.4c0.3,3.4,0.3,7-0.1,10.4c-0.2,1.6-1,3.1,0,4.7
							c0.9,1.5,1.6,2.5,2,4.2c0.3,1.7,0.6,3.2,0.4,5c-0.1,1.6,1.6,3.1,5.6,3.2c1.5,0.2,4.2,0.1,4.5-1.2c-0.2-2,0-2.2-2-3
							c-2-0.9-2.6-1.9-3.1-4c-1.5-6.4-0.6-13.2-1-19.8c-0.1-3,0-6.3,0.8-9.2c0.4-1.6,0.7-3,0.7-4.6c0-1.1-0.4-3.8,0.3-4.4
							c0.6-1.6,0.7-3.1,0.9-4.7c0.4,0.6,0.6,1.1,1.1,1.6c0.6-2.3,1.2-4.7,1.5-7.2c0.2-2.1,0.1-4.2,0.4-6.3c0.4-1.6,0-2.3,0.2-3.9
							c0.1-1,0.8-1.5,0.9-2.5c0.1-0.9-0.4-1.3-0.1-2.1c0.2-0.8,1.1-1.6,1.5-2.2c0.3-0.6,0.7-1.1,0.9-1.8c0.6-1.6,0.8-3.4,0.7-5.1
							c-0.1-1-0.3-1.6,0-2.6c0.3-0.9,0.7-1.1,0.3-2.1c0.8,0.2,1.1,1,1.9,1.1c0.8-1.1,0.3-3.4,0.8-4.6c0.9,0.7,1.5,1.5,2.3,2.2
							c0.1-1.8,0-3.5-0.7-5.3c-0.3-0.8-1.1-1.8-1-2.7c0.2-0.8,1.9-1.1,2.7-1.3c-0.2-1-0.1-2-0.3-3c-0.3-0.9-1-1.5-1.3-2.2
							c1.2-0.8,2-1.6,3-2.8c0.1,0.6,0.6,1.3,1,1.7c0.4-1.2,1.9,1.5,2.2,1.6c0.3-0.6,0.4-1.1,0.8-1.8c0.8,0.7,1.2,2.7,1.6,3.6
							c0.3-0.6,0.3-1.1,0.6-1.6c0.6,0.9,1.1,2.6,1.8,4.2c1-1.1,2.9-3.2,3-4.8c0.1,0.3,0.1,0.7,0.1,1c1-0.6,1.8-1.3,2.1-2.5
							c0.3,0.2,0.6,0.6,0.8,0.9c0.9-1.1,2-3.8,2.5-5.1c1.2-0.7,2.3-1.3,2.7-3.2C146.3,29.3,145.5,28.6,144.7,28z M53,98
							c-0.1,1.6-1.2,4.2-1.8,5.8c-1.6-3.5-4.1-6.4-6.2-10.1c-1.5-2.8-1.6-5.9-1.6-9.1l0.4-2.1c0.6-1.8,0.6-1.9,0.7-2.3
							c0.4,1.7,2.5,3.1,3.1,4.7c0.1-0.3,0.6-0.8,0.7-1.1c3,1.7,3.2,6.4,3.8,9.3C52.4,94.6,53.1,96.3,53,98z"/>
					</defs>
					<clipPath id="SVGID_2_">
						<use xlink:href="#SVGID_1_"  style="overflow:visible;"/>
					</clipPath>
					<g id="Base" class="st0">
						<rect x="4.9" y="13.5" class="st1" width="144.6" height="134.4"/>
						<g>
							<path class="st2" d="M118.9,30.4c-0.7,1.5,0.1,3.7,0.9,5.1c1.2,2.8,0,3.1-1.1,5.5c-0.4,0.9-0.9,1.9-0.9,3
								c0,1,0.9,1.7,0.9,2.7c0,1.2-1.1,1.5-1.5,2.6c-0.4,1.2,0.6,1.6-0.2,2.8c-0.4,0.8-1.3,1.2-1.9,2.2c-0.4,0.8-0.9,1.8-0.8,2.7
								c0.1,0.9,0.8,1.6,0.9,2.6c0.2,1.1-0.3,2.1-0.6,3.2c-0.3,1.8-0.1,3.5-0.4,5.4c-0.3,1.9-1,3.2-1.7,4.9
								c-0.9,2.1-1.3,4.2-2.7,6.2c-1.1,1.8-2.7,3.4-2.9,5.6c-0.6,4.9,1.1,9.7,3.9,13.5c0.8,1.1,1.1,2,2.3,1.7
								c1.8-0.6,2.7-4.1,3.2-5.6c3-5.8,4.4-11.6,6-17.9c1.2-4.7,1.1-10,0.9-14.8c-0.1-1.7-0.4-3.5-0.2-5.3c0.2-1.6,1.1-3.1,1.3-4.6
								c0.6-2.3,0-4.6,0.1-6.9c0.1-2,0.7-4.2,1.1-6c0.7-2,1.3-3.6-0.9-4.5c-1.1-0.4-1.6-0.8-2.6-1.3c-1.1-0.7-1.5-1-2.7-0.8
								C119.5,31.7,119.5,30.9,118.9,30.4z"/>
						</g>
						<g>
							<path class="st3" d="M43.4,99.4c3.2,2.9,5.3,7.6,6.8,11.6c1.5,3.6,2,7.6,1.6,11.5c2.7-4.9,3.2,0.6,5,2.2
								c1.2-2.5-0.6-5.8-1.1-8.3c-0.9-3.6-0.9-7.3-0.9-11c0-3.4,0.9-7.3,2.9-10c1-1.2,2.2-2.8,3.6-3.5c1.2-0.7,2.6-0.8,3.7-1.7
								c1.2-1.1,1.3-2.6,2.3-3.7c1.2-1.3,2.9-1,4.5-0.8c3.7,0.6,7.2,1.9,11,1.9c1.1,0,3.2-0.2,4.1,0.6c1.1,1.1,0.1,3.9,0.2,5.4
								c0,2.1,0.2,4.2,0.6,6.4c0.4,2.6,2,4.4,2.7,6.8c1.5,5.5,1.1,11.8,0.4,17.3c-0.3,2-0.3,4.2,0.9,6c1.1,1.7,3,2.7,4,4.1
								c-1-4.5,0.8-8.5,0.8-13.1c0-5.6-1-10.6-1.7-16.2c-0.4-3-0.2-5.5,0-8.5c-2.9,0.3-0.7-5.6-0.6-7c-0.1,0-0.3,0-0.4,0
								c0.8-2.6,2-4.5,0.2-6.7c-1.6-2-3.1-3.9-4.5-6c-0.2,1.1,0,4,0.8,5c-1.2,0.7-2.7,0.1-3.9,0.1c-1.6,0.1-2.7,1.1-4.1,1.3
								c-1.7,0.2-3.6-1.1-5.1-1.8c-1.5-0.7-3.2-1-4.8-1.3c0.3,0.3,0.3,0.7,0.4,1c-3-0.2-5.3-2.6-7.6-4.1c0.2,0.1,0.4,0.1,0.7,0.2
								c-0.8-2.5-2.9-1.3-4.5-2.1c-1.2-0.7-1.8-2-3.2-2.6c-1.2-0.6-3-1.3-4.5-1.7c-1.1-0.3-1.9,0-3.2,0.3c-2.7,0.7-4.7,5-5.4,7.5
								c-0.9,2.8-1.1,5.4-2.5,7.9c-0.8,1.7-1.7,2.8-3.1,4c-1.5,1.3-3.4,1.7-4.9,3.1c0.3,0.8-1.3,2.9-1.6,4c-0.2,1.7-0.4,3-1.1,4.6
								c-1.1,2.5-4.4,7.4-2.6,10C31,110.6,40.1,96.6,43.4,99.4z"/>
						</g>
						<g>
							<path class="st2" d="M108.5,80.7c-2.2,2.7-2.3,7.2-4.6,9.7c-1.5,1.7-1.1,2.1-1.3,4.5c-0.2,1.8-0.2,2.8,0.3,4.6
								c1.9,7.3,1.1,14.5,0.1,21.8c-0.3,2.1-0.8,4.7,0.1,6.8c0.4,1.1,1.8,4.5,2.8,4.7c1.3-3.5-0.4-7.2,1.2-10.5c0.8-1.5,2-3,2.1-4.8
								c0.2-1.9-0.6-4-0.6-5.9c-0.1-1.7-0.4-3.5,0-5.3c0.4-1.8,1.2-3.4,1.9-5.1c1.1-3.7-1.1-5.8-1.3-9.6c-0.1-1.8,0.1-3.6,0-5.4
								C109.1,84.4,109.3,81.6,108.5,80.7z"/>
						</g>
						<g id="Light">
							<g>
								<path class="st4" d="M100.2,105.1c-0.6-1,0.1-3.6,0-5c-0.2-2-0.8-3.7-0.3-5.5c0.3-1.5-0.2-4.9,0.7-6
									c0.6-0.9,1.6-0.6,1.9-1.8c0.2-0.9,0-2.1,0-3c0.1-2.2,0.2-4.9,0.9-7c0.7,0.9,1,2.2,2,2.7c1.2-2.8,4.5-4.2,5.1-7.5
									c0.1,0.7,0.4,1.1,0.9,1.3c1.1-1.1,1.5-3.2,2.3-4.5c1.7,3.2,2.5,7.3,2.2,11c-0.2,3.5-2.1,7.4-1.9,10.8
									c0.2-5.8,0.1-11.8-1.1-12.4c-1,0.9-2.5,3.6-3.6,4.4c-0.4,0.2-0.9-2.3-1.1-1.9c-1.7,3.2-2.6,6.8-4,10.6
									c-1.1-1.5-1.3,2.5-2.5,4.2c-1.8,3.2-0.2,7.8-0.9,11.5C100.3,106.8,100.2,106.3,100.2,105.1z"/>
							</g>
							<g>
								<path class="st2" d="M115.7,22.8c-1.5,1.8-1.8,3.9-2.6,6.2c-0.9,2.5-2,4.9-2.9,7.4c-0.8,1.9-1.9,3.6-3,5.4
									c-1.1,1.9-1.5,2.2-3.2,0.7c-1.7-1.5-2-3.1-1.9-5.4c-1,3.8-3.2,8.2-2.5,12.2c0.2,1,1,1.6,1.1,2.5c0.2,0.8,0,1.5,0,2.1
									c-0.2,1.2-0.3,2.3-0.6,3.6c-0.1,0.6,1,4.4,1.1,4.7c-0.7-1-1.1-1.9-1.9-2.9c-0.4-0.6-1.1-1.1-1.2-1.7
									c-0.2-0.6-0.1-1.1-0.3-1.7c-0.2-0.6-0.8-0.8-1.1-1.2c-0.6-0.9-0.6-1.9-1.1-2.8c-0.4-0.6-1.2-1.1-1.8-1.6
									c-1-0.8-1.5-1-1.9-2.2c-0.4-1.3-0.3-2.9-0.7-4.4c0,4-2.6,7.3,0.3,10.8c1.8,2.2,1.5,4.9,1.6,7.6c0,1.8,0.6,3.6,0.9,5.4
									c0.2,1.2,0.4,2.5,0.7,3.7c0.8,3.8,1.7,7.6,2.5,11.3c-1.7-3.4-3-5.4-4.4-8.3c-0.7-1.1-0.3-2.3-1.1-3.4
									c-0.9-1.1-0.6-2.2-1.1-3.5c-0.2-0.4-0.7-0.7-0.9-1.1c-0.1-0.4,0-1-0.1-1.3c-0.1-0.8-0.2-1.7-0.4-2.5c-0.2-0.8-1-1.6-1.2-2.2
									c-0.4-0.8-0.9-1.5-1.1-2.3c-0.6-1.1-0.2-2.6-0.7-3.7c-0.4-1.2-0.2-4.7,0.2-5.9c0.3,0.6-1,2.1-1.1,2.6
									c-0.7,0.9-0.6,2.3-0.6,3.4c0,1.2,0.3,2.3,0.6,3.5c0.2,1-0.4,1.6-0.9,2.3c-0.6,1-0.4,1.1-0.2,2.1c0.2,1.1,0,1.5-0.3,2.6
									c-0.6,1.5-1.2,1.7-1.3,3.2c0,0.9,0.4,2.8,0.6,5.4c-1-0.8-1.9-5.1-2.5-6.2c-0.8-1.2-1-2.3-0.9-3.9c0-1.7-1.3-3-1.8-4.6
									c-0.6-1.9,0.2-3.6,0.2-5.4c0-1.6-2.2-3.5-1.6-5c-0.9,2.1-3.5,4-3.6,6.4c0,1.1-1.1,2-1.5,3.1s1.1,2.8,0.1,3.2
									c-0.4,0.2-1.8,0.7-1.9,1.1c-0.2,0.6-0.8,0.9-1.5,1.8c-1.5,1.5-1.8,5.3-1.7,6c-0.2-1.1-1.2-4.6-1.1-5.5
									c0.2-1.1-0.1-2.3,0.3-3.5c0.1-0.4,0.7-1,0.3-1.5c-0.4-0.6-0.8-0.1-0.8-0.9c-0.1-0.9,0.8-1.5,0.9-2.3
									c0.1-0.9-0.3-1.5-0.7-2.2c-0.4-1.1-0.2-2.1,0.2-3.2c0.3-0.9,0.8-2.2,1.3-2.9c-1.1,1.1-2.9,1.2-3.7,2.8
									c-0.4,0.8-0.4,1.7-0.8,2.5c-0.4,1-1.2,1.5-2,2.2c-1.1,1-2,1.9-2.7,3.2c-0.4,0.8-0.7,1.6-1.1,2.3c-1.7,2.2-2.1-1.3-3.4-1.9
									c-1.7-0.8-4.1,1.1-5.6,1.7c-2.8,1-9.1,11.7-10.1,15.2c0.7-8.3,5-19.1,6.3-20.2c0.7-0.6,1.6-2.2,1-2.9
									c-1.1-1-2.1,0.9-2.8-0.9c-0.9-1.9,3-6.6,4-8.3c2.2-3.7,5.6-6.2,8.7-9.1c9.5-8.7,21.6-9.7,33.9-7.6c3.1,0.6,5,2.4,7.8,2.3
									c1.7,0,3.6-0.2,5.4,0c3,0.3,4.5-0.1,7.4-1.2C111.2,27.2,113.2,26,115.7,22.8z"/>
							</g>
							<g>
								<path class="st3" d="M28.7,92.3c0.2-1.7,1-3.4,1.2-5.3c0.2-1.6,0.1-3.2,0.3-4.9c0.4-4.1,2.9-8.4,3.1-12.5
									c-0.6,0.1-1,0.1-1.3,0.6c-0.9-1.9,1.7-6.6,2.3-8.5c-0.4,0-0.7-0.2-1.1,0c-0.1-2.1,2.8-5,4.2-6.2c2.1-1.9,3.8-3.8,5.8-5.9
									c1.7-1.8,3.8-3,6-3.7c1.6-0.6,4.8-1.9,6.3-1.5c-0.8,0.9-1.5,1.9-2.1,2.8c2.3,0,4.7-1.9,7.2-2c0.1,0.7-0.3,1.2-0.8,1.9
									c1.3,0.6,4.9-0.8,6.4-1.1c1.9-0.4,3.7-1,5.7-1.1c4-0.3,7.9-0.7,12.1-0.7c4.4,0,9.1-0.6,12.7-3c4-2.7,5.7-6.9,10.2-8.9
									c2.3-1.1,3.6-2.7,5.4-4.6c1.5-1.7,4-3.5,4.5-5.9c-2.8-1.8-4.7,3.2-6.9,3.5c0-1.5,1.9-3.1,2.9-4c-1.2-1.3-6.5,2.7-7.7,3.5
									C100.7,27.9,97,31,92,33.1c-7.4,2.5-15.7,3.3-23.3,5.1c-5.6,1.2-11.3,1.2-16.9,1.8c-4.4,0.3-8.6,1.3-12.6,3.2
									c-3.8,1.6-8.2,3.2-11.1,6.3c-8.3,8.8-8.1,20.6-4.2,31.3c1.2,3.5,1.1,7.6,1,11.3c-0.1,1.2-0.4,1.9,0.7,2.3
									C26.7,94.7,27.6,93.9,28.7,92.3z"/>
							</g>
							<g>
								<path class="st4" d="M146.2,31.2c-0.6-0.3-1.1-1.9-1.7-2.5c-0.8-0.8-2.2-1.1-3.1-1.5c-1.1-0.4-1.9-1.1-3-1.8
									c-1-0.6-2.5-0.4-3.2-1.1c2.2,0.2-0.3-2-0.7-2.6c-0.4-0.9,0-0.7-0.8-1.2c-0.6-0.3-1.2-0.8-1.8-1c-1.1-0.6-2-0.7-3.2-0.1
									c-1.1,0.6-2.2,1.9-3.5,1.7c0.7-0.9,1.8-1.8,2-2.9c-0.9-0.4-2.2-0.3-2.5-1.3c-0.8,0.2-1.3,0.9-2.1,1
									c-0.7,0.1-1.2-0.1-1.9-0.1c-0.6,0-1.3,0.3-1.8,0.2c-0.9-0.2-1-0.8-1.8-0.9c-1.2-0.2-3.5,0.6-2.3-1.6
									c1.5-2.8,4.8-3.5,7.6-3.9c3.2-0.4,6-1.1,9.5-0.6c3.5,0.6,6.7,1.2,9.8,2.9c3,1.5,5.3,4.1,7,6.9c1.1,1.6,1.1,3.5,1.3,5.4
									C150.5,28.2,149.7,33.8,146.2,31.2z"/>
							</g>
							<g>
								<path class="st4" d="M32.3,58.3c-1.2,1.8-2.7,4.6-2,6.8c1.1-0.7,2-1.5,3.1-2.1c-0.3,1.9-2.2,3.9-2.9,6
									c-0.3,1.3-1,3.2-0.8,4.7c0.2-0.1,0.6-0.1,0.8-0.2c0.4,1.9-1,3.7-0.8,5.6c0.2,2,2,3.6,1.9,5.7c-0.1,1.1-0.8,2-0.7,3.1
									c0.2,1.2,0.7,1.5-0.1,2.9c-1,1.8-1.6,3.6-2.9,5.3c-1.8,2.2-2.5,5-3.8,7.4c-0.7-2.1,0.1-5.4,0-7.6c-0.1-3.1-0.4-6.2-0.6-9.3
									c-0.2-4.1-1.5-8.2-1.7-12.3c-0.2-4,1.8-7.5,3.2-11.1c1-2.1,1.8-6.5,4.4-7.2c0.8-0.2,2.6-0.3,3.1,0.2
									C33.2,56.8,33,58.8,32.3,58.3z"/>
							</g>
							<g>
								<path class="st4" d="M43.7,45.6c1.2,0.1,2.8-0.8,3.9-1c1.2-0.2,2.7-0.2,3.9-0.3c1.3-0.1,2.8,0.1,4-0.2
									c1.1-0.3,3.4-1.3,4.5-1c-0.7,0.8-1.8,1.3-2.1,2.3c1.1,0.2,2.1-0.7,3.1-0.9c0.9-0.2,1.7-0.2,2.7-0.2c1.5-0.1,3-0.3,4.5-0.3
									c-1.3,1-3.8,2.7-4.1,4.5c-0.2,1,0.1,1.2-0.3,2.2c-0.4,0.9-1,1.6-1.2,2.5c-0.6,1.3-0.7,2.9-0.7,4.2c-0.1,1.3-0.7,2.9-0.7,4.1
									c1-2.5,1.9-4.8,2.9-7.2c0.6-1.1,0.8-2.5,1.5-3.5c0.3-0.6,2.9-2.9,1.2-3.1c0.9-1.2,2-2.2,3.2-3c1.3-0.8,2.1-0.6,3.5-0.6
									c1.5,0,2.2-1.1,3.4-1.8c1.2-0.7,3-1.1,4.4-1.5c-3.9-0.2-7.7-1.2-11.7-1.5c-4.4-0.2-8.8,0.9-13.2,0.2c-3-0.4-7.2-0.4-9.8,1
									C45.5,41.6,42.9,43.8,43.7,45.6z"/>
							</g>
							<g>
								<path class="st4" d="M114,28.1c-1.8,1.2-2.1,5.5-2.6,7.5c0.2-0.2,0.7-0.3,0.9-0.6c0.4,1.1-0.9,2.3-0.8,3.5
									c0.1,0.7,0.7,1.1,0.9,1.7c0.2,0.6,0.2,1.1,0.3,1.6c0.2,1.1,0.7,2.2,1.3,3.1c0.6,0.7,0.8,1,1.1,1.6c0.3,0.6,0.3,1.1,0.8,1.5
									c-1.1-1.9-1.5-5.5-1.7-7.8c-0.1-1.1,0-2.5,0.1-3.6c0.1-1,0.9-3.1-0.9-2.5C114.1,32.1,113.1,29.9,114,28.1z"/>
							</g>
							<g>
								<path class="st4" d="M128.6,30.4c0.9,0.2,1.3,0.6,1.3,0.6c-2.1,0-3.6,1.7-3.9,2.3c0.4-0.1,0.8-0.3,1-0.4
									c-1,1.5,0.1,3.2,0.8,4.5c0.7,1.3,0.8,2.7,1.7,3.9c2.3,3,6.5,5.6,9.8,3c2.3-1.8,4.4-6,4.2-9.2c-0.1-1.6,2.1-2.9,1.5-2.6
									c-3.9,1.8-5.8,0.9-7.5,1c-1.1,0.8-1.8,0.6-2.5-0.1C133.3,31.5,131.1,29.9,128.6,30.4z"/>
							</g>
							<g>
								<path class="st4" d="M126.4,35.2c-0.7,0.8-1.3,1.1-2.1,1.7c-0.9,0.6-1.6,1.2-1.1,2.2c0.3,0.7,0.3,0.7,0.1,1.2
									c-0.2,0.7,0,1.1,0.1,1.7c0.4,2-1.7-0.4-2.2-0.6c-0.2,1.5,0.6,3,0.6,4.4c0,1.4-1.1-0.2-1.5,0.7c-0.2,0.4,0.3,1.3,0.1,2
									c-0.1,0.3-0.4,0.6-0.6,0.9c-0.1,0.4,0.1,0.9,0.2,1.2c0.1,1-0.7,1.1-1.2,1.3c-0.9,0.3-1.1,0.8-1,1.7c0.1,0.8,0.3,1.5,0.6,2.2
									c0.7,2,0.7,4,1.1,6c0.2,1.1,0.8,2.2,0.9,3.4c0,0.4-0.1,2.6,0.4,2.6c0.4,0.1,0.9-0.9,1.1-1.1c0.6-0.8,1.1-1.3,1.6-2.2
									c1.1-1.7,2-3.4,2.9-5.3c1.8-3.9,3.2-8.2,2.6-12.5c-0.4-2.6-1.8-5-1.9-7.6c0-0.3,0-0.8,0-1.1c0-0.6,0.3-0.8,0.4-1.1
									C127.4,36.9,127.4,35.7,126.4,35.2z"/>
							</g>
							<g>
								<g>
									<path class="st4" d="M147.7,115.9c0.6,0,0.6-0.9,0-0.9C147.1,115,147.1,115.9,147.7,115.9L147.7,115.9z"/>
								</g>
							</g>
							<g>
								<path class="st4" d="M101.5,33.4c-1,0.7-0.7,1.6-1.1,2.5c-0.7,1-1.9,2-2.7,2.9c-1.8,1.8-4.5,1.9-6.7,3.2
									c0.3,0.1,0.7,0.6,0.9,0.8c-0.7,0.6-0.8,0.4-0.8,1.2c0,1,0.1,0.8,0.7,1.3c1.1,1.1-1.7,1.8-1.1,3.1c1.1,2.6,0.7,5,3,8.8
									c-3.7-3.7-3.8-6.2-4.5-7.3c-0.8-1.1,0-1.2-0.9-2.3c-1.1-1.2-0.4-1.7-0.7-3c-0.3-1.2-2.1-1.7-2.2-2.7c-0.2-1.3,2.7-3,3.9-3.6
									c3.1-1.7,4.8-4.5,7.8-6.3c0.7-0.3,3.2-1.8,3.9-1.5c1.1,0.7-0.4,2.8-0.3,3.6"/>
							</g>
						</g>
						<g>
							<path class="st5" d="M22.1,134.9c1.3-0.3,1.7-3.2,2.8-4.2c1.1-1,4.1-1.8,5.5-1.1c1.8,1,1.8,4.4,1,5.8
								c-1.2,2.2-3.4,3.4-5.9,3.2c-1-0.1-2.6-0.8-3.1-1.5C22,136.5,21.7,134.7,22.1,134.9z"/>
						</g>
						<g>
							<path class="st5" d="M59.8,132.3c-0.3-3.7,3.7-8.6,7.7-6.5c2,1.1,2.5,4.2,1.3,5.9c-1.1,2-4.1,4.4-6.6,4.1
								C60.6,135.6,58.9,133.2,59.8,132.3z"/>
						</g>
						<g>
							<path class="st5" d="M48.4,117.8c0.7-0.6,2.1-2,3.1-2c1.5,0,1.1,1,1.3,2c0.3,2.6,0.1,4-1.7,6.2c-0.8,0.9-1.8,2.1-3.1,1.8
								c-1.6-0.3-1.6-1.7-1.7-3.1c-0.1-1.1-0.2-2.7,0.2-3.5C47.2,118.2,48.5,118,48.4,117.8z"/>
						</g>
						<g>
							<path class="st5" d="M97.5,144.8c-0.9-2.1,1-2.6,1.9-3.7c1.1-1.2,2.2-2,4-2.1c0.8-0.1,1.5,0.2,2,0.3c0.3,0.1,0.8,0.4,1.1,0.4
								c0.8-0.1,0.3-0.3,0.8-0.7c1.1-1,1.6-2.7,3.2-2.1c1-2,2.1-1.9,4.1-1.9c1.6,0,1.8,0.3,2,1.8c0.1,1.2,0,2.6-0.6,3.7
								c-1.1,2.1-3.7,5.4-5.9,6.5c-1.2,0.8-2.6,0.6-4,0.7c-1.2,0.1-2.6,0.7-3.8,0.7C100.7,148.3,97.7,147.8,97.5,144.8z"/>
						</g>
						<g>
							<path class="st3" d="M132,20.7c-1-1.2-3-1.7-4.5-1.2c-0.9,0.2-1.2,1.1-2,1.7c-0.8,0.6-1.7,1-2.3,1.6c0.4,0.6,1.1,0.2,1.6,0.7
								c0.2,0.2-0.1,0.6,0.2,0.9c0.3,0.3,0.7,0,1-0.2c0.8-0.3,1-0.7,1.6-0.4c0.7,0.2,1.1,1,1.8,0.9c-0.1-0.2-0.1-0.6-0.1-0.8
								c0.3,0,4.2-0.3,2.8-1.1C132.5,22.2,132.2,21.3,132,20.7z"/>
						</g>
					</g>
				</g>
			</g>
		</g>
	</g>
	<g>
		<g>
			<g>
				<g>
					<defs>
						<path id="SVGID_3_" d="M144.7,28c-1-0.8-2-1.2-3.2-1.8c-1-0.6-1.9-1.3-2.9-2c-0.8-0.6-1.3-1.2-1.6-2.1
							c-0.2,0.1-0.4,0.1-0.7,0.1c0.1-0.8,0.2-1.6,0.2-2.2c-0.7,0-1.2,0-1.9,0.2c0.1-0.7,0.4-1.2,0.8-1.9c-0.8,0.3-1.2,1-1.9,1.3
							c-0.3-0.2-0.8-1.1-0.8-1.6l-1.2,0.1c-0.7-0.3-1-1.2-1.2-1.8c-0.4-0.6-0.9-0.8-1.6-1c-1.1-0.3-2.6,0-3.7-0.4
							c-1.2-0.4-2-0.3-3.4-0.1c-2.7,0.6-4.7,1.5-6.8,3.1L114,18c-1.1,0.2-1.8,0.6-2.6,1.5c-1.6,2-3.2,3.8-5,5.8
							c-0.8,0.9-2.6,3.2-1.9,4.2c-1.8,2.1-4.6,4.8-6.9,6.6c-2.5,1.8-4.8,2.3-7.6,3c-5.5,1.1-11,3.2-16.8,2.6
							c-2.8-0.3-5.6-0.6-8.5-0.9c-1.6-0.1-3-0.4-4.6-0.3c-1.6,0.1-2.7,0.8-4.1,1.1c-2.8,1-5.8,0.9-8.7,1.7c-3.2,1-6.3,4.4-8.7,6.6
							c-3.1,2.7-5.9,6.7-7.9,10.2c-1.7,3-2,7.7-3.8,10.6c0.8-0.8,1-1,1.2-1.1c-1.2,3.2-0.6,8.1,0,11.7c0.7,4.6,0.7,8.1-0.4,12.5
							c-0.6,2.3-0.9,6.3-1.9,8.4c-1,2-2.6,3.8-3.5,5.9c-1.6,3.7-0.2,7.9-0.2,11.9c0,2.5,0.1,4.9-0.2,7.3c-0.1,1.3-1.9,6.8,1.1,6.5
							c1.1-0.1,2.6,0,3.6,0.2c1.2,0.2,2.6,0.4,3.5-0.4c0.3-1.1,0.1-2.6-0.9-3.4l-1.5-1.1c-1-4.1-1-8.1,0-12.2
							c1.1-5.3,1.8-9.7,4.4-14.7c1.2-2.5,2.8-4.9,4.6-7.2c0.1,0.3,0.4,0.6,0.6,0.8c1.1-1.3,1.7-3.6,2.5-5.4c0.4,3.2,2.3,6.5,4.1,9.1
							c0-0.3,0.1-0.6,0.2-0.8c4.6,4.9,6.9,15,5,21.4c-0.6,1.7-1.3,3-2.1,4.6c1.6-0.3,3.1-3,3.7-3.2c0,0.2-0.7,1.2-0.8,1.6
							c1.8-1.9,2.8-4.1,3.1-6.4c1.1,1.5,2.5,3.2,3.1,5c1.3,3.5,1.1,7.9,5.5,8.7c1.6,0.2,6.4,1.5,6.3-0.2c0-1.5-0.2-3.5-1.6-4.4
							c-0.7-0.4-1.9-0.6-2.9-0.4c-1.7-1.6-3.1-4.4-4-6.5c-1.7-3.8-2.8-8.1-2.2-12.3c0.3-2.1,1.1-4,2.1-5.9c0.6-1,1.2-1.9,1.7-3
							c0.5-1.1,0.4-2.3,1.1-3.2c0.1,0.1,0.1,0.3,0.2,0.6c1.8-1,2.9-5.4,2.8-7.4c0.6,0.1,1,0.6,1.1,1.1c0.2-5.9-0.6-7-1.3-8.7
							c3.4,2,7.8,3.1,11.7,3.9c-0.1-0.3-0.1-0.7-0.3-1c2,0.7,3.2,2.9,5.3,3.2c-0.3-1.6,3.8-0.9,5.3-0.9c0.9,0,2-0.2,2.9,0
							c1.1,0.2,2-0.6,3.1-0.3c0.9,3.1-2.1,5.3-3,8.3c0.7-0.1,1.2-0.4,1.9-0.4c0.1,1.7-0.3,3.2-0.1,4.9c0.2,1.7,0.8,3.4,1.1,5
							c0.4,3.2,0.7,6.6,1,9.8c0.4,3.6,1.7,7.8,0.6,11.5c-0.6,1.6-1.3,3-1.1,4.8c0.3,1.7,1.8,3.2,2.3,4.9c0.9,2.6-1,8.5,2.2,9.4
							c1.2,0.8,3,0.8,3.8,0.9c1.6,0.1,4,0.4,4.8-1.5c0.3-2.6-1.5-2.8-3-3.8c-1.7-1.2-2.2-3.5-2.6-5.5c-0.6-3.5,1.3-6.9,0.3-10.3
							c-1.1-3.6-0.9-7.3-0.9-11.1c0-1.8-0.2-3.7,0-5.4c0.2-1.8,0.8-3.4,0.9-5.4c0.1-2.2,0.7-5.4,1-7.6c-0.2,1.1,0.4,2.6,0.6,3.8
							c0.1,1.3,0.3,2.7,0.4,3.9c0.2,1.8,0.1,3.6,0.3,5.4c0.2,1.7,0.4,3.5,0.7,5.4c0.3,3.4,0.3,7-0.1,10.4c-0.2,1.6-1,3.1,0,4.7
							c0.9,1.5,1.6,2.5,2,4.2c0.3,1.7,0.6,3.2,0.4,5c-0.1,1.6,1.6,3.1,5.6,3.2c1.5,0.2,4.2,0.1,4.5-1.2c-0.2-2,0-2.2-2-3
							c-2-0.9-2.6-1.9-3.1-4c-1.5-6.4-0.6-13.2-1-19.8c-0.1-3,0-6.3,0.8-9.2c0.4-1.6,0.7-3,0.7-4.6c0-1.1-0.4-3.8,0.3-4.4
							c0.6-1.6,0.7-3.1,0.9-4.7c0.4,0.6,0.6,1.1,1.1,1.6c0.6-2.3,1.2-4.7,1.5-7.2c0.2-2.1,0.1-4.2,0.4-6.3c0.4-1.6,0-2.3,0.2-3.9
							c0.1-1,0.8-1.5,0.9-2.5c0.1-0.9-0.4-1.3-0.1-2.1c0.2-0.8,1.1-1.6,1.5-2.2c0.3-0.6,0.7-1.1,0.9-1.8c0.6-1.6,0.8-3.4,0.7-5.1
							c-0.1-1-0.3-1.6,0-2.6c0.3-0.9,0.7-1.1,0.3-2.1c0.8,0.2,1.1,1,1.9,1.1c0.8-1.1,0.3-3.4,0.8-4.6c0.9,0.7,1.5,1.5,2.3,2.2
							c0.1-1.8,0-3.5-0.7-5.3c-0.3-0.8-1.1-1.8-1-2.7c0.2-0.8,1.9-1.1,2.7-1.3c-0.2-1-0.1-2-0.3-3c-0.3-0.9-1-1.5-1.3-2.2
							c1.2-0.8,2-1.6,3-2.8c0.1,0.6,0.6,1.3,1,1.7c0.4-1.2,1.9,1.5,2.2,1.6c0.3-0.6,0.4-1.1,0.8-1.8c0.8,0.7,1.2,2.7,1.6,3.6
							c0.3-0.6,0.3-1.1,0.6-1.6c0.6,0.9,1.1,2.6,1.8,4.2c1-1.1,2.9-3.2,3-4.8c0.1,0.3,0.1,0.7,0.1,1c1-0.6,1.8-1.3,2.1-2.5
							c0.3,0.2,0.6,0.6,0.8,0.9c0.9-1.1,2-3.8,2.5-5.1c1.2-0.7,2.3-1.3,2.7-3.2C146.3,29.3,145.5,28.6,144.7,28z M53,98
							c-0.1,1.6-1.2,4.2-1.8,5.8c-1.6-3.5-4.1-6.4-6.2-10.1c-1.5-2.8-1.6-5.9-1.6-9.1l0.4-2.1c0.6-1.8,0.6-1.9,0.7-2.3
							c0.4,1.7,2.5,3.1,3.1,4.7c0.1-0.3,0.6-0.8,0.7-1.1c3,1.7,3.2,6.4,3.8,9.3C52.4,94.6,53.1,96.3,53,98z"/>
					</defs>
					<clipPath id="SVGID_4_">
						<use xlink:href="#SVGID_3_"  style="overflow:visible;"/>
					</clipPath>
					<g id="Details" class="st6">
						<ellipse class="st7" cx="129.5" cy="21.4" rx="1.6" ry="1.2"/>
						<g>
							<path class="st7" d="M145.6,28.8c-1,0.2-2.3,0.3-3,1.1c-0.9,1.2,0.4,1.6,0.9,2.7c0.1,0.3,0.1,1.1,0.4,1.1
								c0.7,0.2,1.3-0.8,1.7-1.1c0.9-0.9,1.8-2,1.2-3.4C146.2,29.4,146.1,28.8,145.6,28.8z"/>
						</g>
					</g>
				</g>
			</g>
		</g>
	</g>
</g>
<g id="Outlines_2">
	<g>
		<g>
			<path class="st8" d="M114.7,18.2c2.8-1.5,6.2-3.2,9.5-2.9c1.7,0.2,3.9,0.2,5.4,1.1c0.9,0.7,1.1,1.3,2,1.9
				c0.1,0.1,0.3-0.1,0.2-0.2c-1-0.9-1.1-2-2.3-2.7c-0.9-0.4-1.7-0.3-2.6-0.4c-1.1-0.1-2.1-0.6-3.2-0.7c-3.2-0.4-6.8,1.5-9.1,3.6
				C114.4,18.1,114.6,18.2,114.7,18.2L114.7,18.2z"/>
		</g>
	</g>
	<g>
		<g>
			<path class="st8" d="M131,17.9c0.2,1,0.2,0.6,0.9,1.1c0.4,0.3,0.6-0.3,0.7-0.2c-0.1-0.1,0.7,1.1,0.7,1.1c0.1,0.1,0.3,0.1,0.6,0
				c0.7-0.6,1.1-1,1.9-1.3c-0.2-0.2-0.3-0.3-0.6-0.6c-0.3,0.7-0.6,1.2-0.8,1.9c-0.1,0.2,0.2,0.6,0.4,0.4c1.6-0.6,1.1,1,1.2,1.8
				c0,0.2,0.3,0.3,0.4,0.2c0.4-0.1,1.1,1.1,1.2,1.5c0.9,0.9,2,1.8,3.1,2.3c1.5,0.9,3.4,1.2,4.4,2.9c1.1,2-1.1,4.2-3,5v0.1
				c1.9-0.1,5-2.7,4.7-4.8c-0.2-1.1-1.5-1.7-2.3-2.1c-1.9-1-6.5-3.2-7-5.5c0-0.2-0.2-0.2-0.4-0.2c-0.2,0-0.4,0.1-0.7,0.1
				c0.1,0.2,0.3,0.3,0.4,0.6c0.4-0.9,0.4-1.5,0.4-2.5c0-0.4-0.3-0.7-0.8-0.6c-0.7,0.1-1.2,0.2-1.8,0.4c0.1,0.1,0.3,0.3,0.4,0.4
				c0.2-0.7,0.4-1.1,0.7-1.8c0.1-0.3-0.1-0.7-0.6-0.6c-0.8,0.4-1.7,1.8-2.2,0.1c-0.1-0.2-0.3-0.3-0.6-0.1c-0.4,0-0.9,0-1.3,0
				C131.1,17.9,131,17.9,131,17.9L131,17.9z"/>
		</g>
	</g>
	<g>
		<g>
			<path class="st8" d="M143.1,34c-0.4,1.1-0.9,2.3-1.3,3.4c-0.4,0.9-0.4,1.2-1.1,0.4c-0.1-0.1-0.3-0.1-0.4,0
				c-0.2,0.6-1.5,2.9-1.7,1.5c0-0.3-0.6-0.2-0.6,0c-0.1,0.2-2.2,4.2-2.7,4.1c-0.2,0-1.5-3.4-1.7-3.7c-0.1-0.1-0.3-0.1-0.3,0
				c-0.4,1.5-0.3,1-0.9-0.3c-0.2-0.7-0.6-1.2-0.9-1.8c-0.1-0.1-0.4-0.2-0.4,0c-0.8,1.6-1.2,0.3-2.3-0.3c-1.1-0.7,0.4,1.8-0.8-0.6
				c-0.4-0.9-0.2-1.3-1.1-2c-0.7-0.6-1.6-0.4-2.3-0.7c-1.2-0.3-1.5-1.2-2.5-2c-0.1-0.1-0.2-0.4-0.3-0.4c-0.4-0.2-0.7,0-1.1-0.1
				c-0.1,0-0.2,0.1-0.3,0.1c-0.9,0.7-1.2-0.2-1.1-2.2c0-0.3,0.2-1.1,0.2-1.3c0-0.1-0.1-0.1-0.2,0c-0.9,1.6-1,3.2,0.2,4.6
				c0.1,0.1,0.2,0.1,0.3,0c1.3-0.9,2.5,1.3,3.8,2c1.1,0.4,2.5,0.3,3.2,1.5c0.4,0.8,0.4,1.3,1.1,2.1c0.2,0.2,0.6,0.1,0.7-0.1
				c0.1-0.1,1.5,1.5,1.7,1.7c0.2,0.1,0.6,0,0.6-0.2c0.9-2.3,1.5,0.9,1.7,1.8c0,0.2,0.3,0.2,0.3,0c0.4-1.2,0.6-0.6,1,0.2
				c0.4,0.8,0.7,1.7,1,2.5c0.1,0.2,0.3,0.3,0.6,0.1c1.2-1.3,2.8-2.8,3.1-4.8c-0.2,0-0.3,0-0.6,0c0,0.3,0.1,0.7,0.1,0.9
				s0.2,0.3,0.3,0.2c0.7-0.3,2.1-2.2,2.6-1.6c0.1,0.1,0.3,0.2,0.3,0c1.1-1.5,2-3.1,2.7-4.8C144.1,33.7,143.3,33.4,143.1,34L143.1,34
				z"/>
		</g>
	</g>
	<g>
		<g>
			<path class="st8" d="M127.2,36.1c-1,1-1.9,1.8-3.1,2.5c-0.2,0.1-0.3,0.4-0.2,0.7c0.6,1.1,2.5,3.5,1.6,4.7
				c-0.3,0.6-1.7,0.4-2.1,1.1c-0.6,0.7-0.3,1.2,0,2c0.8,2.2,1.3,3.8,1.2,6.4c0.2-0.1,0.4-0.2,0.8-0.3c-1.2-1.5-2.3-2.5-4-3.4
				c-0.2-0.1-0.4,0.2-0.3,0.3c1.1,1.2,2.6,2.3,3.7,3.6c0.2,0.3,0.8,0,0.8-0.3c0-1.6,0-3.2-0.7-4.9c-0.3-0.9-0.6-1.2-0.6-2.2
				c-0.1-1.5,0.6-1.5,1.9-1.7c0.2,0,0.3-0.2,0.3-0.4c-0.1-2.3-0.2-3.7-1.8-5.5c0,0.2-0.1,0.6-0.1,0.8c1.1-0.9,2-1.8,2.9-3.1
				C127.7,36.1,127.4,36,127.2,36.1L127.2,36.1z"/>
		</g>
	</g>
	<g>
		<g>
			<path class="st8" d="M122.6,51c-0.2,0.8-0.2,1.2-0.3,2c0,0.8-0.2,1.3-0.8,2c-0.3-0.3-0.8-0.7-1.2-0.8c-0.3-0.1-0.6,0.1-0.6,0.4
				c0.2,1.1-0.3,1.9-0.4,2.9c-0.1,1.1,0.2,2.2,0.1,3.4c-0.2,2.7-1.3,4.1-2.7,6.3c-0.9,1.3-0.6,3.4-0.8,5c-0.3,1.7,0.2,3.9-0.9,5.4
				c-0.2,0.3,0.3,0.6,0.4,0.2c1.1-1.8,0.4-3.9,1.1-5.9c0.2-0.8,0.3-1.2,0.6-2.1c0.3-1.5,1.1-2.5,1.8-3.7c0.9-1.8,1.3-3.6,1.3-5.6
				c0-1.5-0.2-2.9,0-4.4c0.1-0.8,0.2-1.1,0.1-1.8c-0.2,0.1-0.3,0.3-0.6,0.4c0.7,0.3,1.1,0.8,1.9,1.1c0.2,0.1,0.4,0.1,0.6-0.1
				c0.8-1.5,0.3-3.1,0.7-4.7C123.2,50.9,122.7,50.8,122.6,51L122.6,51z"/>
		</g>
	</g>
	<g>
		<g>
			<path class="st8" d="M115.6,76.9c-0.7,2-0.6,4.1-0.8,6.3c-0.3,2.3-1.1,4.7-1.5,7c0.3-0.1,0.6-0.1,0.9-0.2
				c-0.4-0.4-0.8-0.9-1.1-1.3c-0.2-0.3-0.6-0.2-0.7,0.2c-0.2,2-1.1,3.8-1.3,5.7c-0.3,1.9,0.1,3.9-0.2,5.9c-0.4,2.3-1.1,4.6-1.3,6.9
				c-0.2,2.9-0.1,5.7,0,8.6c0.1,5.3,0.1,10.6,1.1,15.8c0.3,1.3,0.8,2.5,1.9,3.2c0.6,0.4,1.2,0.6,1.9,1c1,0.7,1,1.3,1.2,2.5
				c0.1,0.6,0.9,0.4,0.9-0.1c0-0.9,0-1.9-0.7-2.6c-1.1-1.2-3-1.1-3.9-3c-2.7-5.1-1.1-11.8-1.1-17.2c0-2.6-0.2-5.1-0.2-7.6
				c0-2.8,0.8-5.4,1.1-8.1c0.2-1.8-0.3-3.7,0-5.5c0.4-1.8,1-3.5,1.1-5.4c-0.2,0.1-0.4,0.1-0.7,0.2c0.3,0.6,0.6,1.1,0.9,1.6
				c0.2,0.3,0.9,0.3,1-0.1c1.1-4.6,1.7-8.7,1.7-13.5C116,76.7,115.7,76.7,115.6,76.9L115.6,76.9z"/>
		</g>
	</g>
	<g>
		<g>
			<path class="st8" d="M108.9,80c-1.3,1.1-2,2.8-2.7,4.2c-1.1,2.5-1.9,4.8-2.7,7.4c0.3,0,0.8-0.1,1.1-0.1c-1.5-3.2-2.9,0.4-3.2,2.1
				c-0.4,2.2-0.8,4.6-1,6.8c-0.3,3.2-1,6.6-1,9.8c0,3.2-0.3,6.5,0,9.7c0.1,1.5,0.8,2.8,1.1,4.1c0.4,1.9-0.1,3.8-0.4,5.6
				c-0.4,2.3-0.4,4.9,0.7,7.2c0.4,1.1,1.1,1.9,2,2.6c1.3,1.1,3.1,1,3.1,3.4c0,0.4,0.7,0.4,0.7,0c0.1-1.2-0.1-2.2-1.1-3.1
				c-1-0.9-2-1.2-2.8-2.3s-1.1-2.3-1.2-3.5c-0.6-2.8,0.2-5.3,0.4-7.9s-0.8-5.4-1-7.9c-0.2-2.7-0.1-5.4-0.3-7.8
				c-0.1-2.9,0.4-5.3,0.9-7.9c0.3-2.6,0.6-5,1-7.6c0.1-0.6,0.2-1.1,0.3-1.6c0.1-0.6,0.3-2.2,0.9-1.1c0.2,0.4,1,0.3,1.1-0.1
				c0.7-2.2,1.3-4.4,2.1-6.6c0.7-1.8,0.9-3.8,2.3-5.3C109.2,80,109,79.8,108.9,80L108.9,80z"/>
		</g>
	</g>
	<g>
		<g>
			<path class="st8" d="M89.3,75.2c0,3.6,0.2,7.5,2.1,10.5c0.2,0.3,0.6,0.3,0.8,0c0.2-0.3,0.4-0.6,0.7-0.9c-0.2-0.1-0.6-0.1-0.8-0.2
				c1.1,3.2-2,5.9-2.9,8.9c-0.1,0.4,0.3,0.8,0.7,0.7c0.4-0.1,1.1-0.6,1.3-0.2c0.3,0.4,0,1.8-0.1,2.1c-0.1,1.1,0,2.2,0.2,3.2
				c0.6,3.1,1,5.9,1.1,9.1c0.3,5.9,2.3,11.9,0.4,17.7c-0.6,1.8-0.6,3.2,0.4,5c0.6,1.1,1.3,2.1,1.7,3.4c0.2,1,0.1,2,0,3
				c-0.1,1.9-0.2,6,2.7,6c0.2,0,0.4-0.3,0.2-0.6c-2.5-2-1.1-5.7-1.7-8.5c-0.3-1.7-1.5-2.9-2.1-4.4c-1.2-2.9,0.6-4.9,1-7.6
				c0.8-4.4-0.7-9.6-1.1-14c-0.7-5.4-2.1-10.3-1.7-15.7c0-0.2-0.2-0.4-0.4-0.4c-0.8,0-1.3,0.2-2.1,0.4c0.2,0.2,0.4,0.4,0.7,0.7
				c1.1-3.2,4-5.8,2.8-9.4c-0.1-0.3-0.6-0.6-0.8-0.2c-0.3,0.4-0.4,0.6-0.8,1.1c0.2,0,0.6,0,0.8,0c-2.1-3-2.6-6.6-2.7-10.1
				C89.5,75,89.3,75,89.3,75.2L89.3,75.2z"/>
		</g>
	</g>
	<path class="st8" d="M104.5,29.8c-3.5,3.2-7.4,7.2-12,8.6c-4.5,1.3-9.6,2.7-14.2,3.1c-7.7,0.8-15-2.2-22.6-0.1
		c-3.9,1.1-8.1,0.9-11.6,3.1c-2.7,1.7-5.1,4.2-7.4,6.5c-2.7,2.7-5.3,5.9-6.8,9.4c-1.7,3.4-2,7.3-3.6,10.7c-0.2,0.3,0.3,0.8,0.6,0.4
		c0.6-0.4,1.1-1,1.5-1.3c0.2-0.2,0-0.6-0.2-0.4c-1.9,0.9-0.3,0.8,0-0.7c0.3-1.3,0.9-3,1.2-4.4c1.6-4.8,4.8-9.2,8.3-12.7
		c3.2-3.2,6.7-6.8,11.4-7.9c4.4-1.1,9.6-2.7,14.1-2.5s8.9,1.2,13.5,1.1c3.4-0.2,9.3-0.9,12.5-1.7c7.7-1.8,10.6-4.2,15.9-10.6
		C105.1,30,104.7,29.5,104.5,29.8L104.5,29.8z"/>
	<g>
		<g>
			<path class="st8" d="M27.7,69.9c-2.1,6.2,0.4,12.5,0.1,18.9c-0.2,3.6-1.1,8.1-2,11.7c-0.9,3.5-3.4,6-4.4,9.6
				c-0.8,2.9-0.2,5.7-0.1,8.6c0.2,3.8,0,7.5-0.4,11.2c-0.2,2-0.7,4.7,2,4.8c0.6,0,0.8-0.9,0.1-1.1c-2-0.4-0.3-11.8-0.4-13.2
				c-0.1-2.9-1-5.7-0.9-8.6c0.2-4.1,3.1-6.3,4.7-9.7c1.8-4,2.5-9.7,2.6-14.1c0.1-5.9-2.3-12-0.8-17.9C28.4,69.8,27.8,69.7,27.7,69.9
				L27.7,69.9z"/>
		</g>
	</g>
	<g>
		<g>
			<path class="st8" d="M25.5,130c0.7-0.1,1.2-0.3,1.8-0.1c0.6,0.2,1.2,0.8,1.7,1.1c0.5,0.4,0.6,1,0.7,1.6c0.1,0.4,0,1,0.2,1.3
				c0.1,0.1,0.2,0.1,0.2,0.1c0.4-0.3,0.6-1.1,0.6-1.6c0-0.8-0.3-1.6-0.9-2.1c-1.1-1.2-2.9-1.2-4.5-0.8C25.2,129.8,25.2,130,25.5,130
				L25.5,130z"/>
		</g>
	</g>
	<g>
		<g>
			<path class="st8" d="M27.8,129.5c-0.4-5.8,0.3-11.4,1.5-17.1c0.4-2.1,1-4.4,1.8-6.4c0.1-0.2,5.3-10.2,5.7-9.5
				c0.2,0.2,0.6,0.3,0.8,0c0.7-1,3.6-8.1,4.2-7.6c0.2,0.1,0.4,0,0.6-0.1c2.3-3.7,2.6-8.7,4.5-12.7c1.3-2.8,3.8-5,7-4.9
				c2,0.1,4,1.7,5.8,2.7c0.1,0.1,0.3-0.1,0.2-0.2c-2.8-2.5-7.5-4.1-11-2.1c-1.5,0.9-2.2,2-3,3.5c-0.6,1.1-4.5,12.7-4.2,12.9
				c-0.1-0.1-0.4-0.1-0.6,0.1c-0.9,1.1-4.5,7.2-4.2,7.4c-0.1-0.2-0.4-0.3-0.7-0.1c-7.2,8.9-12.1,22.9-8.7,34.3
				C27.6,129.6,27.8,129.6,27.8,129.5L27.8,129.5z"/>
		</g>
	</g>
	<g>
		<g>
			<path class="st8" d="M55.1,73.4c3.8,2.1,6.3,5.9,10.1,8.1c3.4,1.9,7.4,2.7,11.2,3.4c0.2,0,0.6-0.2,0.4-0.4
				c0.2,0.8,3.5,2.3,4.5,2.7c0.2,0.1,0.4-0.1,0.4-0.3c0.2-1,9.7-0.6,11-0.8c0.6-0.1,0.4-1.1-0.1-1.1c-3.4,0.2-6.9,0.1-10.3,0.3
				c-0.4,0-1,0.7-1.1,0.7c-1.2-0.1-3.5-2.1-4.9-2.8c-0.2-0.1-0.7,0.1-0.6,0.4c0.1,0.2-3.8-0.7-4.4-0.9c-2.6-0.8-5-1.7-7.3-3.2
				c-3.1-2-5.6-4.8-8.9-6.5C55.1,72.9,54.9,73.1,55.1,73.4L55.1,73.4z"/>
		</g>
	</g>
	<g>
		<g>
			<path class="st8" d="M63.2,79c1.1,1.3,4.7,10.2,1.9,8.8c-0.3-0.1-0.6,0-0.7,0.3c0,1.2-2.2,6.3-2.1,6.7c-0.1-0.3-0.7-0.4-0.8-0.1
				c-2.5,5.1-5.8,10.1-5.4,16c0.3,4.9,2.9,11.5,6.4,15.2c0.3,0.3,0.8-0.1,0.6-0.6c-3.6-4.2-5.7-11-5.4-16.4c0.1-3.5,1.3-5.8,2.9-8.9
				c0.6-1.1,1.9-2.9,1.2-4.4c0.1,0.3,0.4,0.4,0.8,0.2c1-0.9,1.5-1.7,1.9-2.9c0.2-0.7,0.9-4.2,1.2-3.5c0.2,0.3,0.7,0.2,0.8-0.2
				C66.8,85,66.5,81.7,63.2,79C63.2,78.8,63.2,78.8,63.2,79L63.2,79z"/>
		</g>
	</g>
	<g>
		<g>
			<path class="st8" d="M61.3,126.4c1.5-0.2,3.2-0.6,4.5,0.3c1.3,0.9,1.3,2.7,1.5,4c0,0.7,0.9,0.7,1,0c0.1-1.6-0.2-3.6-1.6-4.6
				c-1.3-1-3.8-0.4-5.4,0C61.1,126.3,61.3,126.4,61.3,126.4L61.3,126.4z"/>
		</g>
	</g>
	<g>
		<g>
			<path class="st8" d="M22.6,134.3c1.8,0.4,3.9,1,5.7,0.8c0.9-0.1,2.5-0.8,2-1.9c0-0.1-0.1-0.1-0.2-0.1c-0.4,0.3-0.7,0.9-1.2,1.1
				c-0.7,0.2-1.5,0-2.1-0.1c-1.5-0.3-2.7-0.7-4.1-0.1C22.5,134,22.3,134.2,22.6,134.3L22.6,134.3z"/>
		</g>
	</g>
	<g>
		<g>
			<path class="st8" d="M60.9,130.7c1.5,0.8,3.2,1.1,4.9,1.2c1.1,0.1,3-0.6,2.2-2c-0.1-0.1-0.3-0.1-0.3,0
				C66.4,132.3,62.9,130.5,60.9,130.7C60.8,130.7,60.8,130.7,60.9,130.7L60.9,130.7z"/>
		</g>
	</g>
	<g>
		<g>
			<path class="st8" d="M62.1,127.7c0.8,0.4,1.3,0.9,1.5,1.8c0,0.3,0,0.8-0.1,1.1c-0.1,0.3-0.2,0.4,0,0.8c0.1,0.1,0.1,0.1,0.2,0.1
				c0,0,0,0,0.1,0c0.2,0,0.3-0.1,0.4-0.3c0.7-1.3-0.3-3.6-2-3.6C62.1,127.5,62.1,127.6,62.1,127.7L62.1,127.7z"/>
		</g>
	</g>
	<g>
		<g>
			<path class="st8" d="M64.6,127.5c0.7,0.4,1.2,0.7,1.7,1.2c0.6,0.8,0.7,1.7,0.6,2.6c0,0.2,0.2,0.2,0.3,0.1c0.4-1,0.4-2-0.2-2.9
				C66.4,127.9,65.4,127.4,64.6,127.5C64.6,127.4,64.6,127.5,64.6,127.5L64.6,127.5z"/>
		</g>
	</g>
	<g>
		<g>
			<path class="st8" d="M24.1,131.3c0.4,0.4,0.7,0.9,0.8,1.3c0.1,0.4-0.1,1,0,1.3c0.1,0.2,0.3,0.3,0.6,0.2c0.7-0.3,0.4-1.2,0.2-1.8
				C25.4,131.9,24.7,131.4,24.1,131.3C24.1,131.2,24.1,131.3,24.1,131.3L24.1,131.3z"/>
		</g>
	</g>
	<g>
		<g>
			<path class="st8" d="M26.8,130.7c0.6,0.6,1.1,1,1.2,1.7c0.1,0.3,0.2,0.7,0.2,1.1c0,0.4-0.2,0.7-0.3,1c-0.1,0.2,0.2,0.6,0.4,0.3
				C29.8,133.7,28.3,130.8,26.8,130.7C26.8,130.6,26.7,130.7,26.8,130.7L26.8,130.7z"/>
		</g>
	</g>
	<g>
		<g>
			<path class="st8" d="M116.8,17.7c-1.5,0.1-3.2,0.1-4.5,0.9c-1.6,1-2.8,3-3.9,4.4c-1.1,1.5-4.6,4.6-4.2,6.8c0.3,2,3.1,0.9,4.2,0.2
				c1.6-0.9,3.2-2.2,4.4-3.7c1-1.2,2-4.9,3.9-4.9c0.2,0,0.2-0.3,0-0.3c-1.5,0-2,1.2-2.8,2.3c-1,1.2-1.9,2.7-3.1,3.8
				c-0.7,0.7-5.5,4.9-6.2,2c-0.4-1.8,3.5-5.1,4.5-6.2c0.9-1,1.6-2,2.6-3C113,18.4,114.9,18.1,116.8,17.7
				C116.9,17.8,116.9,17.7,116.8,17.7L116.8,17.7z"/>
		</g>
	</g>
	<g>
		<g>
			<path class="st8" d="M125,22.7c0.6-0.2,1.1-0.3,1.7-0.7c0.6-0.3,1-1,1.5-1.2c1-0.7,2.9-0.6,3.1,0.9c0,0.1,0.1,0,0.1,0
				c0.6-1.1-0.9-1.7-1.8-1.7c-0.7,0-1.1,0.1-1.7,0.6c-0.4,0.3-0.7,0.9-1,1.1C126.3,22.2,125.5,22.4,125,22.7
				C124.9,22.7,124.9,22.8,125,22.7L125,22.7z"/>
		</g>
	</g>
	<g>
		<g>
			<path class="st8" d="M143.4,31.7c1.1,0.4,2.2,0.1,2.3-1.1c0-0.1-0.1-0.3-0.2-0.4c0,0,0,0-0.1,0c-0.1-0.1-0.3,0-0.4,0.1
				c-0.3,0.3-0.1,0.8-0.6,1c-0.3,0.2-0.8,0.2-1.1,0.3C143.3,31.4,143.3,31.7,143.4,31.7L143.4,31.7z"/>
		</g>
	</g>
	<g>
		<g>
			<path class="st8" d="M98.6,140.1c1.1-0.6,2.1-1.1,3.2-0.9c0.9,0.1,1.5,0.7,2.3,0.9c0.4,0.1,0.6-0.4,0.2-0.7
				c-0.9-0.3-1.9-0.9-2.9-0.9c-1.1,0.1-2.1,0.8-3.1,1.2C98.4,140,98.5,140.2,98.6,140.1L98.6,140.1z"/>
		</g>
	</g>
	<g>
		<g>
			<path class="st8" d="M96.7,143.1c-0.3,1,9.2,3.6,9.7-0.3c0-0.2-0.2-0.3-0.3-0.2c-1.5,1.5-3,1.5-5,1.3
				C99.7,143.9,97.8,144,96.7,143.1L96.7,143.1L96.7,143.1z"/>
		</g>
	</g>
	<g>
		<g>
			<path class="st8" d="M110,135.8c1.3-0.6,2.8-0.7,4.1-0.2c0.3,0.1,0.4-0.3,0.2-0.4c-1.5-0.8-3-0.2-4.5,0.4
				C109.9,135.6,109.9,135.8,110,135.8L110,135.8z"/>
		</g>
	</g>
	<g>
		<g>
			<path class="st8" d="M106.2,137.3c1.1,2.7,10.1,4.5,10.4,0.6c0-0.2-0.3-0.3-0.4-0.1c-1.1,2.5-8.7,1.6-9.7-0.6
				C106.3,137.2,106.1,137.2,106.2,137.3L106.2,137.3z"/>
		</g>
	</g>
	<g>
		<g>
			<path class="st8" d="M101.9,93.7c-0.2,2.1,0.1,4.7,0.4,6.8c0.4,2.5,0.6,4.9,0.8,7.4c0.6,4.8,1.1,9.8,0.4,14.7
				c-0.2,1.7-0.8,3.2-0.1,4.9c0.4,1,1.1,1.7,1.3,2.7c0.6,1.3,0.8,3,0.9,4.5c0.2,2.8,0.7,5.4,4.1,5c0.2,0,0.3-0.3,0-0.4
				c-5-0.7-2.7-5.8-4.2-9.4c-0.4-0.9-1.2-1.7-1.6-2.7c-0.4-1.3-0.2-3,0-4.4c0.2-1.7,0.4-3.5,0.4-5.4c0-4-0.8-7.8-1.1-11.8
				c-0.1-2,0-4-0.2-6c-0.2-1.9-1.1-3.8-1.1-5.7C102.2,93.6,101.9,93.6,101.9,93.7L101.9,93.7z"/>
		</g>
	</g>
	<path class="st8" d="M51.3,105c1.1,2.9,1.6,6,1.6,9.1c0,0.8,0,1.1-0.1,2.2c-0.1,1.3-1.1,4.1-2,5.8l0,0c0.1-0.1-0.1-0.3-0.3-0.2
		c-0.9,0.6-1.2,1.5-1.9,2.1c-2.1,2.1,0-1.5,0.4-2.3c1.1-2.3,1.1-5.1,1.1-7.6c-0.3-5.4-2.1-11-5.7-15c-0.1-0.2-0.4-0.1-0.6,0.1l0,0
		c-1.7-2.7-3.2-5.4-3.9-8.4c0-0.2-0.4-0.2-0.3,0c0.3,3.5,1.9,6.6,4.1,9.3c0.1,0.2,0.4,0.1,0.6-0.1c0-0.2,1.2,1.5,1.5,1.9
		c0.6,1,1.1,2,1.5,3.1c0.9,2,1.3,4.1,1.8,6.3c0.9,5.1-0.1,9.3-2.2,14c-0.1,0.1,0,0.3,0.2,0.3c1-0.3,1.6-1,2.2-1.7c0,0,0.7-0.8,1-1.1
		c-0.1,0.2-0.4,0.8-0.4,0.9c-0.1,0.2,0.2,0.4,0.4,0.2c1.5-1.6,2.5-3.6,3-5.7c1,1.3,1.9,2.8,2.5,4.4c0.7,1.6,0.8,3.2,1.3,4.9
		c1,2.3,2.2,3.6,4.7,3.9c0.2,0,0.4-0.4,0.1-0.6c-4.2-1.8-4.1-7.4-6.3-10.8c-0.7-1-1.3-1.9-2.1-3c0.7-3.6,0.1-7.5-0.8-10.7
		c-0.2-0.8-0.6-1.5-0.8-2.2c0.3-0.9,0.7-1.7,1-2.7c1.8-5,0.6-14.3-4.1-17.9c-0.1-0.1-0.4,0-0.4,0.1c-0.7,1.1-3.2-3.9-3-3.2
		c-0.1-0.2-0.4-0.1-0.3,0.1c0.7,1.7,1.8,3,2.7,4.5c0.1,0.2,0.4,0.2,0.6,0c1.5-2.7,3.4,7.3,3.4,7.2c0.8,3.9,1.1,6.5-0.2,10.4v0.1
		c-1-1.8-2.1-3.5-3.2-5.3c-1.1-1.7-2.3-3.5-3.1-5.5c-0.9-2.3-0.9-4.9-1.1-7.5c0-0.4-0.7-0.4-0.7,0c-0.1,3.5,0.3,6.9,2,10
		c1.6,3,3.8,5.6,5.4,8.7C50.5,103.4,51.3,105,51.3,105z"/>
	<g>
		<g>
			<path class="st8" d="M109.8,136.8c1.1,0.7,1.1,1.9,0.8,3c-0.1,0.4,0.6,0.7,0.7,0.2c0.3-1.2,0-2.9-1.2-3.4
				C109.8,136.4,109.7,136.6,109.8,136.8L109.8,136.8z"/>
		</g>
	</g>
	<g>
		<g>
			<path class="st8" d="M112.3,136c0.4,0.7,1,1.1,1.1,1.9c0.3,0.9,0,1.2-0.2,2c-0.1,0.2,0.2,0.4,0.4,0.3c0.8-0.4,0.9-1.5,0.6-2.2
				c-0.3-0.9-1.1-1.6-1.8-2.2C112.3,135.8,112.2,135.9,112.3,136L112.3,136z"/>
		</g>
	</g>
	<g>
		<g>
			<path class="st8" d="M102.5,140.2c0.2,0.7,0.7,1.1,1,1.7c0.4,0.9,0.6,1.5-0.1,2.1c-0.2,0.2,0,0.7,0.3,0.6
				c2.2-0.7,0.1-3.7-0.9-4.5C102.6,140,102.5,140.1,102.5,140.2L102.5,140.2z"/>
		</g>
	</g>
	<g>
		<g>
			<path class="st8" d="M99.8,140.9c0.4,0.6,0.6,1.1,0.7,1.8c0,0.2,0.1,0.7,0,1c-0.1,0.3-0.4,0.1-0.8,0.2c-0.1,0.1-0.2,0.2-0.1,0.4
				c0.2,0.4,0.9,0.3,1.1,0.1c0.3-0.2,0.4-0.8,0.4-1.1c0-0.6-0.2-1.1-0.6-1.5c-0.2-0.3-0.4-0.8-0.8-1.1
				C99.9,140.6,99.7,140.8,99.8,140.9L99.8,140.9z"/>
		</g>
	</g>
	<g>
		<g>
			<path class="st8" d="M130.5,32.7c1.8,1,3.5,1.8,5.4,3c0.2,0.1,0.4,0,0.4-0.2c0.1-0.8,2-0.3,2.2,0c0,0.1,0.1,0.1,0.2,0.1
				c1.8-0.2,3.8-0.8,5.4-1.8c0.2-0.1,0-0.4-0.2-0.3c-1.5,0.8-3.5,1.6-5.1,1.3c-1-0.1-1.8-0.3-2.8-0.3c-0.1,0-0.3,0.1-0.3,0.3
				c0,0.3-2.3-1.1-2.5-1.1C132.3,33.1,131.5,33.1,130.5,32.7C130.5,32.5,130.5,32.7,130.5,32.7L130.5,32.7z"/>
		</g>
	</g>
</g>
</svg>
