<?xml version="1.0" encoding="utf-8"?>
<!-- Generator: Adobe Illustrator 22.1.0, SVG Export Plug-In . SVG Version: 6.00 Build 0)  -->
<svg version="1.1" id="Card_1" xmlns="http://www.w3.org/2000/svg" xmlns:xlink="http://www.w3.org/1999/xlink" x="0px" y="0px"
	 viewBox="0 0 155.9 155.9" style="enable-background:new 0 0 155.9 155.9;" xml:space="preserve">
<style type="text/css">
	.st0{clip-path:url(#SVGID_2_);fill:#FFFFFF;}
	.st1{clip-path:url(#SVGID_2_);}
	.st2{fill:#AB612A;}
	.st3{fill:#945021;}
	.st4{fill:#D5D4D2;}
	.st5{fill:#1D1D1B;}
	.st6{fill:#494749;}
	.st7{fill:#5E4849;}
	.st8{fill:#191616;}
	.st9{fill:#1B100E;}
	.st10{fill:#D8B1B1;}
	.st11{fill:#FFFFFF;}
	.st12{fill:#191918;}
	.st13{fill:#2D2C2D;}
	.st14{clip-path:url(#SVGID_4_);fill:#BFD132;}
	.st15{clip-path:url(#SVGID_4_);}
	.st16{fill:#AABC40;}
</style>
<symbol  id="Jack_Russel_2" viewBox="-49.3 -52.4 98.6 104.8">
	<g id="Layer_18_2_">
		<defs>
			<path id="SVGID_1_" d="M6.4,13.7c0.3,0.6,0.7,0.8,1.2,1.3c0.8,0.8,1.3,2.1,1,3.2c-0.2,0.6-0.6,1.2-0.8,1.8c-0.3,1,0,2.1,0.1,3.2
				c0.1,0.9,0.1,2-0.4,2.7L7.3,26c-0.3,0.1-0.5,0.2-0.8,0.3c-0.5,0.1-1.1,0-1.6,0c-0.9,0-1.9,0.2-2.6,0.8c-0.7,0.5-1.1,1.3-1.7,1.9
				c-0.4,0.3-0.8,0.6-1.1,1c-0.4,0.6-0.2,1.6,0.4,2c0,0.3,0,0.6,0,0.8c0,0.3,0,0.6,0.2,0.8c0,0,0,0.1,0.1,0.1c0,0,0.1,0,0.1,0
				c0,0,0-0.1,0-0.1c0.1-0.4,0.3-0.8,0.5-1.1c0.2,0,0.3,0.1,0.5,0.1c0.6,0.1,1.1,0.2,1.7,0.2l0,0.1c0,0.2,0.1,0.3,0.1,0.5
				c0,0-0.2,0-0.4,0.1c-1.1,0.7-1.7,1.7-2.4,2.7c-1.3,2-1.6,2.9-1.7,6.8c0,0.4,0,0.8,0.1,1.1c0.3,1.1,1.7,1.7,2.8,1.6
				c1.2-0.1,2.2-0.8,3.2-1.4c1.3-0.9,2.6-1.7,3.9-2.6c0.8-0.5,1.7-1,2.6-0.8c0.6,0.1,1,0.6,1.5,0.9c0.9,0.5,2.1,0.5,3.2,0.3
				c1.1-0.3,2-0.7,3-1.2c2-0.8,3.3-1.6,5.4-1.2c0.8,0.2,2.3,0.4,2.8,0.4c1.5,0.2,2.5-0.8,4-0.6c1.6,0.2,3.9,0.3,4.2-0.5
				c0.2-0.8-2.5-4.4-4.3-3.7l-1.3,0.3c-0.5-0.3-0.7-0.9-0.7-1.4c0-0.6,0-1.1-0.1-1.7c-0.3-1.1-1.4-1.9-1.9-2.9l0-0.4
				c1.4-1.7,1.6-4,1.4-6.1c-0.2-2.1-0.8-4.2-0.9-6.3c-0.1-3.7,1.4-7.3,2-11c0.4-2.3,1-5.4,0.4-7.4c-1.2-4,1-5.8-0.8-12
				c-1.1-4-0.5-8.3-0.7-12.4c-0.1-4.7-0.1-9.4,1.1-13.9c0.6-2.3,0.9-4.7,3.1-5.7c0.8-0.4,1.3,0.2,2-0.2c0.7-0.5,1.2-1.5,0.8-2.3
				l-0.6-0.9c-0.3-0.1-0.8-0.3-2.5-0.4c-1.6-0.1-3.5,0.6-4.3,0.9l-0.5,0.3c-3,1.3-2.5,5.8-3.2,7.2c-0.2,0.4-0.5,0.7-0.6,1.1
				c-0.2,0.4-0.3,0.9-0.4,1.3c-0.3,1.7-0.7,3.3-1,5c-0.4,1.8-0.7,3.6-0.9,5.4c-0.2,2.4,0,4.8-0.4,7.2c-0.3,1.4-0.8,2.8-0.6,4.3
				c0.1,0.6,1.2,3.3-1.6,2.1l-0.1-0.1c-1.2-1-2.5-1.8-3.9-2.6c-0.7-0.4-1.4-0.8-2.2-0.8c-1.5-0.1-3.1,1-4.5,0.5l-0.4-0.7
				C7-20.3,7-22.3,6.6-24.2c-0.4-2-1.4-4-1.7-6c-0.2-1.2-0.1-2.4-0.2-3.6c-0.4-3.3-2.3-6.7-1.3-9.9c0.6-2,3.8-5.1,0.9-5.9
				c-1.7-0.2-4.3-0.5-5.5,0.2c-0.6,0.3-1.2,0.6-1.5,1.2c-0.8,1.2,0.5,1.8,0.8,4.3c0.3,2.1-0.4,4.2-0.5,6.3c-0.2,2.5,0.4,5.1,0.8,7.6
				c0.6,3.8,0.9,7.6,0.7,11.4c0,1.2-0.1,2.5-0.6,3.6C-2-14-3.2-12.4-4.8-11c0.8-4.7-0.8-9.6-4.1-12.6c-0.9-0.9-2-1.7-2.8-2.6
				c-1.8-2.1-2.4-4.9-3-7.6c-0.5-2.2-0.9-4.8,0.8-6.3c0.4-0.4,1.2-0.6,1.6-1c0.4-0.4,0.5-1.1,0.2-1.5c-0.1-1.3-1.8-0.8-2.2-0.7
				c-1.3-0.5-2.2,0.4-3.5,0.6c-0.8,0-1.4,0.8-1.5,1.7c-0.1,0.8,0.2,1.6,0.3,2.4c0.2,1.9-0.8,3.9-0.4,5.8c0.2,0.9,0.6,1.7,0.7,2.7
				c0.1,1-0.3,2.1-0.2,3.1c0.2,2.3,2.7,3.7,3.6,5.9c0.5,1.4,0.3,3,0.1,4.5c-0.5,3.1-1.2,6.4-3.6,8.4l0,0c-0.7-1-1.3-2.1-1.8-3.3
				c-0.5-1.2-0.8-2.4-1.4-3.5c-2.2-4.5-7.1-7.1-9.9-11.2c-2.3-3.2-3.1-7.2-3.8-11c-0.2-1.2,0.1-2.8,0.5-3.9c0.2-0.6,1-1.2,0.9-2.3
				c0-0.6-0.4-1.2-0.9-1.5c-0.4-0.2-1-0.2-1.4-0.2c-0.8,0-1.7,0-2.5,0c-0.5,0-1-0.1-1.3,0.4c-0.9,1.2-1.2,3-0.7,4.5
				c1,2.8,1.6,5.7,1.8,8.6c0.2,1.9,0.2,3.9,1.1,5.6c0.6,1.1,1.4,2,2,3c1.2,2.1,1.2,4.6,1.7,7c0.8,4,2.9,7.6,3.5,11.6
				c0.3,1.9,0.2,3.8,0.8,5.6c1.1,3.5,4.4,5.9,5.7,9.4c1.1,3,0.7,6.2,0.7,9.4s1.6,7.2,4.1,9c0-1.5,1.8-2.8,2.4-4.2
				c0.9-1.9,0.2-4.8,0.7-6.8c0.6-2.6,0.8-2.4,2.1-2.7c1.7-0.3,3.5-0.2,5.2-0.1c3.8,0.2,6.1-0.2,9.2-0.6c1.7-0.2,3.4-0.5,4.9-1.4
				C5,13.5,5.8,13.7,6.4,13.7z"/>
		</defs>
		<clipPath id="SVGID_2_">
			<use xlink:href="#SVGID_1_"  style="overflow:visible;"/>
		</clipPath>
		<rect x="-49.3" y="-52.1" class="st0" width="98.6" height="100.4"/>
		<g class="st1">
			<g>
				<path class="st2" d="M42.8,47.6c-1.7,2.5-4.5,4-7.4,4.6c-2.9,0.6-5.9,0.3-8.9-0.3s-5.8-1.4-8.7-2c-1.5-0.3-3.1-0.5-4.5-1.1
					c-0.4-0.2-0.9-0.4-1.2-0.8c-0.4-0.4-0.6-1-0.7-1.6c-0.2-0.8-0.5-1.7-0.7-2.5c-0.4-1.2,0.1-2.2,0.4-3.3c0.4-1.3,1.5-2.4,2.6-3.2
					c0,0,0,0,0,0c1.3-1,2.8-2,3.5-3.5c0.5-1,0.6-2.2,0.8-3.3c0.3-1.1,0.9-2.3,2-2.6c0.3-0.1,0.7-0.1,1-0.1c0.3,0.3,0.6,0.6,0.9,0.8
					c0.8,0.5,1.9,0.8,2.3,1.7c0.1,0.2,0.2,0.5,0.3,0.7c0.5,0.7,1.7,0.3,2.2,1c0.3,0.5,0.1,1.2,0.3,1.7c0.2,0.5,0.7,0.8,0.8,1.4
					c0,0.5-1.1,2.8,0.3,2.8c0.8,0,1.9-2.4,2.3-3c0.2-0.4,0.5-0.7,0.6-1.2c0.2-1-0.5-2.1-1.4-2.7c-0.7-0.5-1.6-1-2.2-1.5
					c1.4,0.5,3-0.5,4.6-0.5c1.2,0,2.4,0.6,3.5,0.9c1.6,0.5,3.4,0.6,4.9,1.4c1.6,0.8,2.9,2.4,3.5,4.1c0.7,1.7,0.8,3.6,0.8,5.4
					C44.6,43.1,44.1,45.5,42.8,47.6z"/>
			</g>
			<g>
				<path class="st3" d="M30.9,33.6c-0.1,0.4-0.3,0.8-0.6,1.2c-0.4,0.6-1.5,3-2.3,3c-1.4,0-0.3-2.3-0.3-2.8c0-0.5-0.6-0.9-0.8-1.4
					c-0.2-0.6,0.1-1.2-0.3-1.7c-0.5-0.7-1.7-0.3-2.2-1c-0.2-0.2-0.2-0.5-0.3-0.7c-0.4-0.9-1.5-1.2-2.3-1.7c-0.3-0.2-0.6-0.5-0.9-0.8
					c0.8,0,1.6,0.3,2.3,0.2c0.7,0,1.3-0.2,2,0c0.6,0.2,1.1,0.9,1.7,1.2c0.1,0.1,0.3,0.1,0.4,0.2c0.7,0.6,1.5,1,2.2,1.5
					C30.4,31.5,31.1,32.5,30.9,33.6z"/>
			</g>
		</g>
		<g class="st1">
			<path class="st4" d="M-0.5,36.8L-0.5,36.8c0.3-0.6,0.7-1.3,1.3-1.7c1-0.7,2.2-0.8,3.4-0.6c1.1,0.1,2.3,0.4,2.9,1.4
				c0.5,0.7,0.5,1.6,0.6,2.4c0.1,1.6,0.1,3.2-0.2,4.7c-0.3,1.6-1,3.1-2.3,4c-1.2,1-3.1,1.3-4.4,0.5C-2.8,45.5-2.1,39.9-0.5,36.8z"/>
		</g>
		<g class="st1">
			<path class="st5" d="M-14.2,12.9L-14.2,12.9c-1.6-1.2-2.9-3-3.1-5c-0.1-1,0.2-2,0.8-2.7c0.4-0.4,0.8-0.7,1.2-1.1
				c0.5-0.6,0.6-1.3,0.8-2c0.5-1.9,1.3-3.7,2.2-5.4c0.3-0.5,0.6-1,1.1-1.3S-9.9-5-9.6-4.5c0.2,0.3,0.2,0.7,0.3,1.1
				C-8.7-1.3-5.7-1-4.6,0.8c0.8,1.3,0.3,3,0.8,4.5c0.6,1.7,2.4,3.1,2,4.9c-0.1,0.4-0.3,0.8-0.4,1.2c-0.1,1.2,1.1,2,2.2,2.4
				c0.3,0.1,0.6,0.2,0.8,0.5c0.4,0.6-0.4,1.4-1.1,1.7c-2.1,0.9-5.8,1.4-8,0.7c-0.9-0.3-1.4-1-2.1-1.5C-11.6,14.3-13,13.8-14.2,12.9z
				"/>
		</g>
		<g class="st1">
			<path class="st5" d="M-27.1-2.3c3.1,3.6,5.9,8.6,6.5,13.3c0.4,2.8,2.5,5.4,5.5,4.1c2.2-1,1.9,5.6-0.2,7s-5.1,0.6-6.5-1.4
				c-0.6-0.8-1-1.8-1.7-2.6c-0.7-0.8-1.8-1.4-2.8-1.8c-1.9-0.9-3.9-1.9-5.8-2.8c-1.6-0.8-3.1-1.5-4.4-2.7c-1.1-0.9-1.9-2.1-2.6-3.4
				c-2.3-3.9-3.3-8.6-2.3-13c0.1-0.6,0.3-1.2,0.8-1.5c0.5-0.5,1.3-0.5,2.1-0.5l0,0c1.1,0,2.5-0.2,3.6,0c1,0.2,1.9,0.9,2.8,1.4
				C-30.2-5.1-28.5-3.9-27.1-2.3z"/>
		</g>
		<g class="st1">
			<path class="st4" d="M-35.3-33.5C-35.3-33.5-35.3-33.5-35.3-33.5c0.8,1.7,1.5,3.6,2,5.4c0.6,2.1,0.9,4.3,2.2,6.1
				c1.8,2.7,5.2,3.9,7.2,6.4c2.2,2.7,2.6,6.5,5.2,8.8c0.3,0.3,0.6,0.5,1,0.6c0.4,0,0.8-0.2,0.9-0.5c0.1-0.3,0-0.5-0.1-0.8
				c0-0.3,0.2-0.6,0.4-0.6c0,0.7,0.7,1.2,1.4,1.2s1.3-0.3,1.8-0.8c0.2,0.2,0.4,0.5,0.3,0.8c1.1,0,2.3-0.2,3.4-0.6
				C-8.1-8.1-6.8-9-5.2-9.4c0.9-0.2,1.8-0.3,2.6-0.7c0.6-0.3,1.7-0.7,2-1.3c1-2.2-0.7-4.9-1.7-7.1c-1.7-3.5-3.4-6.9-5-10.4
				c-0.5-1-1-2-1.6-2.9c-0.6-0.9-1.3-1.7-1.8-2.6c-0.6-1.1-0.9-2.4-1.2-3.6c-0.1-0.4-0.2-0.8-0.5-1c-0.7-0.7-1.9-0.1-2.9,0
				c-1.1,0.2-2.3-0.2-3.1-1.1c-0.7-0.8-1.2-1.9-2.2-1.8c-0.8,0.1-1.1,1.1-1.2,1.9c-0.4,3.1-0.1,6.3,0.9,9.3c-1.3-0.3-2.4-1.1-3.5-2
				c-1.8-1.4-3.5-2.8-5-4.5c-0.7-0.8-1.3-1.7-1.8-2.7c-0.3-0.8-0.5-1.8-1.2-2.3c-1.4-0.9-3.1,0.5-3.8,1.6
				C-37.7-38.2-36.3-35.7-35.3-33.5z"/>
		</g>
		<g class="st1">
			<path class="st4" d="M25,18.8C25,18.8,25,18.8,25,18.8c0-0.8,0.3-1.6,0.6-2.4c0.3-1.2,0.4-2.5,0.2-3.8c-0.2-1.1-0.5-2.3,0.1-3.3
				c0.5-0.8,1.5-1.1,2.4-1.3C28.6,8,29,7.9,29.4,7.9c1.2,0.2,1.5,1.7,1.6,2.8c0.3,3.3,0.6,6.6,0.9,9.8c0.1,1.3,0.2,2.5,0.1,3.8
				c-0.1,1.1-0.5,2.2-1.4,2.8c-2.4,1.5-2.4-1.9-3-3.1C26.7,22.3,25,20.9,25,18.8z"/>
		</g>
		<g class="st1">
			<path class="st4" d="M21.6,4.6c-0.5-0.5-0.4-1.3-0.3-2.1c0.3-1.9,0-3.9-0.8-5.6c0.9,1.2,1.8,2.4,2.7,3.6c0.3,0.4,0.6,0.8,0.7,1.3
				c0,0,0,0,0,0c0.2,0.8,0.6,4.4,0.2,5.1C23.5,5.7,22,4.9,21.6,4.6z"/>
		</g>
		<g class="st1">
			<path class="st4" d="M28.1-2C28.1-2,28.1-2,28.1-2c0.3-0.8,1.3-1.3,1.5-2.2c0.3-1.1-0.6-2-1.2-3c-1.6-2.4-1.5-5.6-1.3-8.5
				c0.1-0.9,0.1-1.7,0.3-2.6c0.2-0.8,0.4-1.6,0.6-2.4c0.7-2.5,1.2-5,1.4-7.5c0.4,3,0.8,6.1,1.7,9c0.6,1.9,1.3,3.7,1.8,5.5
				c0.6,2.5,0.8,5.1,0.9,7.7c0.2,3.5,0.9,10.4-2.3,13c-2.1,1.7-1.9-1.3-1.9-2.5C29.7,2.6,27.3,0,28.1-2z"/>
		</g>
		<g class="st1">
			<path class="st4" d="M10.7-12.9C10.7-12.9,10.7-12.9,10.7-12.9c0.5,0.5,1.1,0.8,1.7,1.2c1.3,0.8,2.4,1.9,3.3,3.1
				c0.8,1.2,1.5,2.6,2.9,2.9c0.2,0,0.5,0,0.7-0.1c0.1-0.1,0.2-0.4,0.2-0.6c0.1-1.1-0.2-2.2-0.7-3.2c-0.2-0.3-0.4-0.7-0.3-1.1
				c0.1-0.7,1.2-0.8,1.9-0.7c0.9,0.1,1.9,0.2,2.8,0.4c-0.1-1.2-2.4-1.3-2.4-2.5c0-0.3,0.1-0.5,0.1-0.8c0-0.5-0.3-1-0.6-1.3
				c-1.9-2.2-4-4.3-6.3-6.2c-2-1.7-6.8-3.3-7.2,0.8c-0.1,1.2,0.7,2.5,1.3,3.5C8.8-16.1,9.5-14.1,10.7-12.9z"/>
		</g>
		<g class="st1">
			<path class="st4" d="M12.9,24.8c0,0.2,0.1,0.4,0.1,0.6c0,0.7-0.3,1.5-0.9,1.6c-0.7,0.1-1.2-0.6-1.9-0.7c-0.5,0-1,0.3-1.5,0.6
				c-0.5,0.3-1,0.6-1.6,0.8c-1.6,0.5-3.4,0.5-5.1,0.5c-0.8,0-1.8-0.1-2.2-0.8c-0.4-0.6-0.2-1.4,0.1-2.1c0.6-1.8,1.2-3.7,2.3-5.2
				c0,0,0,0,0,0c1.6-2.3,4-3.7,4-6.7c0-0.8-0.3-1.5,0.7-1.8c0.8-0.3,2.4,0.7,2.8,1.4c0.3,0.6,0.1,1.3,0.4,1.9
				c0.3,0.5,0.9,0.8,1.3,1.2c1,1.1,0.3,2.9,0.4,4.5C11.7,22.1,12.7,23.4,12.9,24.8z"/>
		</g>
		<g class="st1">
			<path class="st3" d="M19.6,38.9C19.6,38.9,19.6,38.9,19.6,38.9c0-0.4-0.1-0.9,0-1.3c0.1-0.3,0.4-0.5,0.6-0.7
				c0.5-0.4,0.9-1,1.4-1.5c0.5-0.5,1.1-0.9,1.7-0.9c0.7,0,1.4,0.5,1.4,1.1c0,0.5-0.3,1-0.5,1.4c-0.3,0.7-0.2,1.5-0.1,2.2
				c0,0.2,0,0.5-0.1,0.7c-0.1,0.2-0.2,0.3-0.4,0.4c-0.7,0.6-1.7,0.8-2.6,1.2c-0.4,0.3-0.8,0.6-1.3,0.8c-0.8,0.4-2.1,0-1.7-1.1
				C18.5,40.5,19.6,40.2,19.6,38.9z"/>
		</g>
		<g class="st1">
			<path class="st6" d="M7.8,30.4c1.6-0.6,1.1-1,2.6-1.4c1.8-0.5,3.4,0.2,4.4,1.2c0.8,0.8,0.7,2.2,0.2,3.2c-0.5,1-1.5,1.7-2.4,2.3
				c-1.5,1-3.1,1.8-4.8,1.8c-1,0-2-0.2-3-0.4c-0.9-0.2-3.6,0.4-4.5,0.2C-0.9,37.1-0.1,36-1,35.4c-0.9-0.6-1.6-1.6-1.5-2.7
				c0.1-1.4,1.2-3.6,1.9-2.3C0.1,31.8,2.3,32.6,7.8,30.4z"/>
		</g>
		<g class="st1">
			<path class="st3" d="M30.2,37.2L30.2,37.2c0.7-0.5,1.6-0.6,2.4-0.3c0.6,0.3,1.3,0.8,2,0.5c0.1,0,0.2-0.1,0.2-0.1
				c0.1,0,0.1,0.1,0.1,0.2c0.3,0.6,0.7,1.3,0.7,2s-0.3,1.5-0.9,1.8c-0.3,0.1-0.7,0.1-1,0.1c-0.8,0-1.7,0-2.5,0c-1,0-2,0-2.8-0.4
				c-1.1-0.5-0.5-1.1,0.1-1.7C29.1,38.8,29.4,37.8,30.2,37.2z"/>
		</g>
		<g class="st1">
			<path class="st3" d="M7.8,41.8C7.8,41.8,7.8,41.8,7.8,41.8c0.6-0.7,1.2-1.6,2-2c0.5-0.2,1.1-0.3,1.5-0.7c0.3-0.3,0.6-0.8,1-0.7
				c0.2,0.3-0.1,0.6-0.2,1c-0.2,0.5,0,1.1,0.3,1.5c0.3,0.4,0.8,0.7,1.1,1.2c0.1,0.1,0.2,0.3,0.2,0.5c0,0.2,0,0.4-0.1,0.5
				c-0.4,0.7-1.1,1.2-1.8,1.7c-1.9,1.1-3.8,2-5.9,2.7c-0.5,0.1-1,0.3-1.5,0.2c-1.4-0.3-0.9-1.8-0.1-2.5C5.5,44.1,6.8,43.1,7.8,41.8z
				"/>
		</g>
		<g id="Details_1_" class="st1">
			<g>
				<path class="st7" d="M0.5,37.8L0.5,37.8c0-0.9,0.7-1.8,1.2-2.5c0.5-0.7,0.6-1.3,1.2-1.9c0.2-0.3,0.5-0.5,0.8-0.7
					c0.2-0.1,0.4-0.2,0.7-0.3c1.5-0.5,2.9-1.1,4.4-1.5s3.1-0.7,4.6-0.4c0.2,0,0.4,0.1,0.6,0.2c0.7,0.3,0.9,1.3,0.7,2
					c-0.2,0.8-0.7,1.4-1.3,1.9c-0.2,0.2-0.3,0.3-0.4,0.5c-0.1,0.2-0.3,0.4-0.4,0.6c-0.2,0.2-0.4,0.3-0.6,0.4
					c-0.4,0.3-0.8,0.5-1.3,0.7c-1.4,0.7-3,0.9-4.5,1.6c-0.4,0.2-0.8,0.4-1.3,0.7c-0.8,0.4-1.6,0.7-2.4,1C1.3,40.4,0.5,38.8,0.5,37.8
					z"/>
			</g>
			<g>
				<path class="st8" d="M3.5,36.3c0.9-0.8,2.7-2.6,3-3.8c0.1-0.2-1.7,0.2-1.9,0c-0.1,0-0.2-0.1-0.3-0.1c-0.3,0-0.5,0-0.8,0.1
					c-0.2,0.1-0.2,0.2-0.3,0.4c-0.4,0.5-0.6,0.6-1.1,1.2c-0.3,0.4-0.7,1-1.1,2c-0.5,1-0.9,2.1-0.4,2.2c0.3,0,0.8-0.4,0.9-0.5
					C2.4,36.9,2.4,37.2,3.5,36.3z"/>
			</g>
			<g>
				<path class="st8" d="M13.4,32.8L13.4,32.8c0.2-0.4,0.3-0.7,0.6-1c0.1-0.1,0.2-0.2,0.3-0.1c0.1,0,0.1,0.1,0.2,0.2
					c0.2,0.7,0,1.4-0.4,2.1c-0.8,1.3-2,2.4-3.3,3.1c-0.1,0.1-0.9,0.5-1,0.4c-0.3-0.2,0.3-0.5,0.4-0.6c0.7-0.5,1.3-1,1.8-1.7
					C12.5,34.4,13,33.6,13.4,32.8z"/>
			</g>
			<g>
				<path class="st9" d="M1.6,38.7L1.6,38.7c0.2-0.2,0.5-0.2,0.7-0.1c0.3,0.1,0.7,0.4,1,0.2c-0.1-0.2-0.3-0.4-0.4-0.5
					c-0.1-0.1-0.1-0.2-0.2-0.3c0-0.1,0-0.3,0.1-0.3c0.1,0,0.2,0,0.2,0c0.2,0.1,0.4,0.1,0.6,0.2c0.1,0,0.2,0,0.3,0
					c0.2-0.1-0.1-0.5,0-0.7c0.3,0.1,0.5,0.2,0.8,0.2c0.1,0,0.2,0,0.3,0c0.2-0.2-0.2-0.5-0.1-0.8c0.2,0,0.4,0.1,0.6,0.2
					c0.2,0,0.5-0.1,0.5-0.3c0-0.3-0.4-0.5-0.2-0.7c0.2,0.1,0.3,0.2,0.5,0.3c0-0.3-0.1-0.5-0.1-0.8c0-0.1,0-0.3,0-0.4
					c0.2-0.2,0.6,0.1,0.9,0c0.2-0.1,0.2-0.4,0.2-0.7s-0.1-0.5,0.1-0.7c0.1-0.1,0.3-0.1,0.5-0.2C8.3,33.1,8.6,33,9,32.8
					c1.3-0.5,2.6-1.1,3.9-1.6c0.2-0.1,0.4-0.1,0.6-0.1c0.3,0.1,0.5,0.5,0.4,0.8c-0.1,0.3-0.3,0.6-0.5,0.8c-0.2,0.2-0.5,0.5-0.8,0.5
					c-0.5,0.1-1.1-0.3-1.5,0c-0.1,0.1-0.2,0.2-0.3,0.3c-0.3,0.3-0.8,0.3-1.2,0.4c-0.4,0.1-0.8,0.5-0.7,0.9c0.1,0.3,0.3,0.4,0.6,0.6
					c0.1,0.1,0.2,0.3,0.1,0.4C9.4,36,9.3,36,9.3,36c-0.2,0-0.5,0-0.7,0c-0.2,0-0.5,0.1-0.6,0.4c0,0.2,0,0.5-0.2,0.6c0,0-0.1,0-0.1,0
					c-0.3-0.1-0.6-0.1-0.8-0.2C6.9,37,7,37.2,7,37.4c0,0.1,0,0.1,0,0.2c0,0-0.1,0-0.1,0c-0.2,0.1-0.5,0-0.7,0.1
					c-0.1,0-0.2,0.1-0.3,0.2c-0.7,0.7-1.5,1.3-2.3,1.8c-0.4,0.2-0.8,0.4-1.2,0.4c-0.2,0-0.1-0.3-0.3-0.5C1.8,39.3,1.2,39,1.6,38.7z"
					/>
			</g>
			<g>
				<path class="st10" d="M6.3,33c0.6,0.1,1.3,0.3,1.9,0.4c1,0.1,1.9-0.2,2.8-0.5c0.9-0.4,1.7-0.8,2.6-1.2c0.1,0,0.1-0.1,0.2,0
					c0,0,0.1,0.1,0.1,0.1c0.2,0.3,0.4,0.5,0.7,0.8c0-0.5-0.1-0.9-0.3-1.4c0-0.1-0.1-0.2-0.1-0.2c-0.1-0.1-0.1-0.1-0.2-0.1
					c-0.5-0.2-0.9-0.3-1.4-0.3c-0.4,0-0.8,0-1.2,0c-0.2,0-0.4,0-0.6,0.1c-0.2,0.1-0.3,0.3-0.4,0.4c-0.2,0.2-0.3,0.4-0.5,0.6
					c-0.1,0.1-0.3,0.3-0.4,0.3C9.3,32,9.1,32,9,32c-0.8,0-1.7-0.4-2.5-0.1c-0.2,0.1-0.4,0.2-0.6,0.3c0,0,0,0,0,0
					c-0.2,0.1-1.7,0.3-1.6,0.7c0,0.2,0.7,0,0.9-0.1C5.5,32.8,5.9,32.9,6.3,33z"/>
			</g>
			<g>
				<g>
					<path class="st11" d="M-0.2,32c0,0.3,0,0.5,0,0.8c0,0.3,0,0.6,0.2,0.8c0,0,0,0.1,0.1,0.1c0,0,0.1,0,0.1,0c0,0,0-0.1,0-0.1
						c0.1-0.4,0.3-0.7,0.5-1"/>
					<g>
						<path class="st5" d="M-0.2,32c0,0.3,0,1.3,0.2,1.5c0.2,0.1,0.1,0,0.2-0.1c0-0.1,0.1-0.2,0.1-0.2c0.1-0.2,0.2-0.4,0.3-0.6
							c0.1-0.1,0.3,0,0.2,0.1c-0.1,0.2-0.3,0.4-0.4,0.7c0,0.1-0.1,0.4-0.2,0.4c-0.1,0.1-0.1,0.1-0.2,0.1c-0.5-0.1-0.3-1.5-0.3-1.8
							C-0.3,31.9-0.2,31.9-0.2,32L-0.2,32z"/>
					</g>
				</g>
				<g>
					<path class="st11" d="M2.9,32.9C3,33.2,3.1,33.6,3.3,34s0.4,0.7,0.6,0.9c0,0,0.1,0,0.1,0c0.1,0,0.1-0.1,0.1-0.2
						c0-0.7,0-1.4,0.2-2"/>
					<g>
						<path class="st5" d="M3,32.9c0.1,0.4,0.3,0.8,0.4,1.2c0.1,0.1,0.1,0.3,0.2,0.4c0.1,0.1,0.1,0.2,0.2,0.2C4,34.7,4,34.7,4,34.6
							c0.1-0.1,0-0.3,0-0.5c0-0.2,0-0.4,0-0.6c0-0.3,0.1-0.6,0.1-0.9c0-0.2,0.3-0.1,0.2,0.1c-0.1,0.4-0.1,0.7-0.2,1.1
							c0,0.3,0,0.6-0.1,0.9C4.2,34.8,4.2,35,4,35c-0.3,0-0.6-0.5-0.7-0.7C3.1,33.9,3,33.4,3,32.9C2.9,32.8,3,32.8,3,32.9L3,32.9z"/>
					</g>
				</g>
				<g>
					<path class="st11" d="M10.3,36.7c0.3-0.7,0.6-1.4,0.9-2.1c0-0.1,0.1-0.2,0.2-0.2c0.1,0,0.1,0,0.2,0.1c0,0.1,0.1,0.1,0.1,0.2
						c0.1,0.4,0.2,0.9,0.2,1.3"/>
					<g>
						<path class="st5" d="M10.2,36.7c0.1-0.5,0.4-0.9,0.6-1.4c0.1-0.2,0.2-0.9,0.5-1c0.6-0.2,0.6,1.4,0.6,1.7c0,0.1-0.2,0.1-0.2,0
							c0-0.3-0.1-0.7-0.1-1c0-0.2-0.1-0.4-0.3-0.4c-0.1,0-0.2,0.5-0.3,0.6c-0.2,0.5-0.3,1-0.6,1.5C10.3,36.8,10.2,36.7,10.2,36.7
							L10.2,36.7z"/>
					</g>
				</g>
				<g>
					<path class="st11" d="M4.6,39.1c0.1-0.4,0.2-0.8,0.3-1.2c0-0.1,0.1-0.2,0.2-0.2c0.1,0,0.1,0.1,0.1,0.1c0.1,0.3,0.2,0.5,0.3,0.8
						"/>
					<g>
						<path class="st5" d="M4.6,39.1c0.1-0.3,0.1-1.4,0.6-1.5c0.4,0,0.5,0.8,0.6,1c0,0.1-0.2,0.2-0.2,0.1c-0.1-0.2-0.1-0.5-0.2-0.6
							c0-0.1,0-0.1-0.1-0.2C5.1,37.9,5,38,5,38.1c-0.1,0.3-0.2,0.6-0.3,1C4.7,39.2,4.6,39.1,4.6,39.1L4.6,39.1z"/>
					</g>
				</g>
				<g>
					<path class="st11" d="M0.5,38.1c0-0.4,0-0.8,0.2-1.2c0-0.1,0.1-0.1,0.1-0.1c0.1,0,0.1,0,0.2,0.1c0,0,0.1,0.1,0.1,0.2
						c0.2,0.4,0.4,0.8,0.6,1.1c0.1,0.1,0.2,0.2,0.1,0.3c0,0.1,0,0.2-0.1,0.2c-0.2,0.3-0.5,0.5-0.8,0.6c0,0-0.1,0-0.1,0
						c0,0-0.1,0-0.1-0.1c-0.1-0.1-0.2-0.2-0.3-0.4"/>
					<g>
						<path class="st5" d="M0.5,38.1c0-0.3-0.1-1.4,0.4-1.5c0.2,0,0.2,0.1,0.3,0.2c0.1,0.2,0.2,0.4,0.3,0.6c0.1,0.2,0.2,0.4,0.3,0.5
							C2.1,38.4,2,38.7,1.5,39c-0.1,0.1-0.4,0.3-0.6,0.3c-0.2,0-0.3-0.3-0.4-0.5c0-0.1,0.1-0.1,0.1-0.1c0.3,0.4,0.8,0.4,1,0
							c0.3-0.4-0.1-0.7-0.3-1c-0.1-0.1-0.3-0.7-0.4-0.7c-0.3-0.1-0.4,1.1-0.4,1.2C0.6,38.1,0.5,38.1,0.5,38.1L0.5,38.1z"/>
					</g>
				</g>
				<g>
					<path class="st11" d="M3.6,36c0-0.1,0-0.1,0.1-0.1c0,0,0.1,0,0.1,0.1c0.2,0.2,0.4,0.5,0.4,0.8c0,0,0,0.1,0,0.1c0,0,0,0-0.1,0
						C4,37,3.9,37,3.8,37.1c0,0-0.1,0.1-0.1,0.1c0,0,0,0,0,0c-0.1,0-0.2-0.1-0.3-0.1C3.3,36.8,3.5,36.3,3.6,36z"/>
					<g>
						<path class="st5" d="M3.6,36c0.1-0.5,0.7,0.5,0.7,0.7c0,0.2-0.2,0.2-0.3,0.4c-0.3,0.2-0.2,0.1-0.5,0c0,0-0.1-0.1-0.1-0.1
							C3.3,36.8,3.3,36.2,3.6,36C3.6,36,3.6,36,3.6,36c0.1,0.2-0.3,0.9,0,1c0.1,0,0.2,0,0.3-0.1c0.2-0.2,0.3-0.2,0.1-0.5
							C4,36.3,3.7,35.9,3.6,36C3.6,36.1,3.6,36,3.6,36z"/>
					</g>
				</g>
				<g>
					<path class="st11" d="M4.5,35.2c0-0.2,0-0.4,0.1-0.5c0,0,0,0,0,0c0,0,0,0,0,0c0.2,0.3,0.4,0.5,0.6,0.8c0,0,0.1,0.1,0.1,0.2
						c0,0,0,0.1,0,0.1c0,0.1-0.1,0.2-0.2,0.3c0,0,0,0,0,0C4.4,36.7,4.4,35.7,4.5,35.2z"/>
					<g>
						<path class="st5" d="M4.4,35.2c0-0.2,0-0.5,0.1-0.6c0,0,0.1,0,0.1,0C4.9,34.7,5,35,5.2,35.2c0.1,0.1,0.3,0.3,0.3,0.5
							c0,0.3-0.3,0.6-0.6,0.7C4.4,36.5,4.2,35.5,4.4,35.2C4.5,35.2,4.5,35.2,4.4,35.2c0.2,0.2,0,0.7,0.2,0.9c0.1,0.2,0.3,0,0.5-0.1
							c0.4-0.4,0.1-0.4,0-0.7c0,0-0.3-0.5-0.4-0.5C4.5,34.9,4.5,35.1,4.4,35.2C4.5,35.3,4.4,35.3,4.4,35.2z"/>
					</g>
				</g>
				<g>
					<path class="st11" d="M9.9,32.3C9.9,32.3,9.9,32.3,9.9,32.3C10,32.3,10,32.3,9.9,32.3c0.1,0,0.2-0.1,0.2-0.1
						c0-0.3,0-0.6,0.1-0.8c0-0.1,0-0.2,0-0.3c0-0.1-0.1-0.2-0.2-0.2c-0.1,0-0.2,0.1-0.2,0.1c-0.1,0-0.2,0-0.3,0
						C8.8,30.9,9.8,32.1,9.9,32.3z"/>
					<g>
						<path class="st5" d="M10,32.2c0,0,0.1-0.5,0.1-0.6c0-0.3,0.1-0.3-0.1-0.5c-0.2-0.2-0.1-0.1-0.3-0.1c-0.1,0-0.3,0-0.3,0.1
							C9.2,31.4,9.8,32,10,32.2c0.1,0,0,0.2-0.1,0.1c-0.3-0.2-1-1.1-0.5-1.4c0,0,0.1,0,0.2,0c-0.1,0,0.5-0.1,0.5-0.1
							c0.1,0,0.2,0.1,0.3,0.2c0.1,0.2-0.1,0.6-0.1,0.8c0,0.2,0.1,0.4-0.1,0.5c0,0,0,0-0.1,0C9.9,32.3,9.9,32.3,10,32.2
							C9.8,32.3,9.9,32.2,10,32.2z"/>
					</g>
				</g>
				<g>
					<path class="st11" d="M11.2,31.7c0.1-0.1,0.2-0.2,0.2-0.4c0.1-0.1,0.1-0.3,0-0.4c0,0-0.1,0-0.1,0l0,0c-0.3-0.1-0.9-0.2-0.8,0.3
						C10.6,31.5,10.9,32.1,11.2,31.7z"/>
					<g>
						<path class="st5" d="M11.2,31.7c0.2-0.3,0.3-0.9-0.3-0.8C10.3,31.1,10.8,31.9,11.2,31.7C11.2,31.7,11.2,31.7,11.2,31.7
							c-0.3,0.7-1.1-0.5-0.7-0.9c0.2-0.1,0.6-0.1,0.8,0C11.7,31.1,11.4,31.5,11.2,31.7C11.2,31.7,11.2,31.7,11.2,31.7z"/>
					</g>
				</g>
				<g>
					<path class="st11" d="M11.6,31.9L11.6,31.9c0.1,0.2,0.1,0.3,0.3,0.4c0,0,0.1,0,0.1,0c0,0,0,0,0,0c0.1-0.2,0.2-0.4,0.3-0.6
						c0.1-0.1,0.1-0.3,0.1-0.4c0-0.4-0.5-0.6-0.8-0.4C11.3,31.1,11.5,31.6,11.6,31.9z"/>
					<g>
						<path class="st5" d="M11.7,31.9c0.1,0.2,0.1,0.4,0.4,0.2c0.2-0.1,0.3-0.8,0.2-1c-0.3-0.4-0.5-0.3-0.7,0.2c0,0.1,0,0.2,0.1,0.2
							C11.6,31.7,11.6,31.8,11.7,31.9C11.7,31.9,11.6,31.9,11.7,31.9c-0.4-0.4-0.5-1.3,0.3-1.2c0.9,0.1,0.4,1.3,0.1,1.7c0,0,0,0,0,0
							C11.8,32.3,11.7,32.1,11.7,31.9C11.6,31.9,11.6,31.9,11.7,31.9z"/>
					</g>
				</g>
				<g>
					<path class="st11" d="M12.5,31c0.1,0.2,0.2,0.4,0.3,0.6c0,0,0.1,0.1,0.1,0.1c0,0,0.1,0,0.1,0c0.2-0.1,0.3-0.3,0.3-0.5
						c0-0.1,0-0.2,0-0.2c0,0-0.1-0.1-0.1-0.1c-0.1,0-0.2-0.1-0.4-0.1c-0.1,0-0.2,0-0.2,0C12.6,30.8,12.5,30.9,12.5,31"/>
					<g>
						<path class="st5" d="M12.5,31c0.1,0.3,0.4,0.8,0.7,0.3c0.3-0.5-0.6-0.6-0.6-0.3C12.6,31.1,12.5,31.1,12.5,31
							c-0.1-0.5,0.9-0.4,1,0c0,0.2-0.3,0.7-0.5,0.7C12.6,31.7,12.5,31.2,12.5,31C12.4,31,12.5,31,12.5,31L12.5,31z"/>
					</g>
				</g>
			</g>
			<g>
				<path class="st12" d="M14.1,40.2c0.1-0.5,0.6-0.8,1.1-0.9c0.5-0.1,1.1,0,1.4,0.4c0.1,0.1,0.1,0.3,0.1,0.5c0,0.4-0.3,0.8-0.7,0.9
					l0,0C15.3,41.4,13.9,41.2,14.1,40.2z"/>
			</g>
			<g>
				<path class="st13" d="M-0.2,41.5L-0.2,41.5c0.8-0.4,1.8,0,2.3,0.8c0.5,0.7,0.7,1.6,0.8,2.5C3,45.2,3,45.7,2.7,45.9
					c-0.1,0.1-0.3,0.2-0.4,0.2c-1.1,0.3-2.3,0.2-3.4-0.2c-0.9-0.4-1.7-1.2-1.4-2.3C-2.4,42.8-1,41.9-0.2,41.5z"/>
			</g>
			<g>
				<g>
					<path class="st11" d="M15.4,40.4c0.2,0,0.4-0.1,0.6-0.1c0.3-0.1,0.4,0.4,0.1,0.5c-0.2,0-0.4,0.1-0.6,0.1
						C15.2,41,15.1,40.5,15.4,40.4L15.4,40.4z"/>
				</g>
			</g>
		</g>
	</g>
	<g id="Outlines_2_1_">
		<g>
			<g>
				<path class="st5" d="M-0.3,32.1c-1.9-1.6,0.5-3.2,1.6-4.4C2.1,26.7,3,26.2,4.2,26c2-0.3,4.3-0.1,4.6-2.7c0-0.1,0.2-0.1,0.2,0
					c0,1.6-0.8,3.2-2.5,3.5c-1.7,0.3-2.9-0.5-4.5,0.9c-0.8,0.8-3.2,3.1-2.2,4.3C-0.1,32-0.2,32.1-0.3,32.1L-0.3,32.1z"/>
			</g>
		</g>
		<g>
			<g>
				<path class="st5" d="M7.1,26.2c1.4-1.9-0.1-4.5,0.5-6.6c0.4-1.5,1-2.3,0-3.8c-0.5-0.8-1.1-1.4-1.5-2.3c-0.1-0.2,0.1-0.4,0.3-0.2
					c0.9,1,2,1.2,2.5,2.6c0.3,0.8,0.3,1.7,0,2.4c-0.4,1.4-1,1.3-1,3.2c0,0.7,0.3,1.5,0.3,2.3C8.1,24.8,7.9,25.5,7.1,26.2
					C7.1,26.2,7.1,26.2,7.1,26.2L7.1,26.2z"/>
			</g>
		</g>
		<g>
			<g>
				<path class="st5" d="M4.2,12.2c0.2,0.4,0.6,0.7,1,0.9c0.4,0.2,0.8,0.3,1.2,0.3c0.5,0.1,0.3,0.7-0.1,0.7
					c-0.5,0.1-1.1-0.2-1.5-0.6C4.3,13.3,4.2,12.8,4.2,12.2C4.1,12.2,4.2,12.2,4.2,12.2L4.2,12.2z"/>
			</g>
		</g>
		<g>
			<g>
				<path class="st5" d="M-19.9,28.7c0.2-1.5,1.2-2.4,1.9-3.7c1-1.6,0.8-3.4,0.7-5.3c0-1.4-0.1-4.1,1.5-4.9c0.7-0.3,2.1-0.2,2.9-0.2
					c1.9,0,3.8,0.2,5.6,0.2c1.8,0,3.6-0.3,5.4-0.6c2.2-0.4,4.4-0.4,6.4-1.3c0.2-0.1,0.3,0.2,0.2,0.3c-5.3,3-11.4,1.8-17.2,2.1
					c-1.9,0.1-2.9,0.1-3.6,1.9c-0.6,1.6-0.5,3.2-0.6,4.8c-0.1,1-0.1,1.9-0.6,2.8c-0.7,1.5-2.2,2.4-2.5,4.1
					C-19.8,28.9-20,28.9-19.9,28.7L-19.9,28.7z"/>
			</g>
		</g>
		<g>
			<g>
				<path class="st5" d="M-19.9,28.9c-2-1.5-3.3-3.7-4-6c-1-3.5-0.1-7.2-0.9-10.7c-0.7-3.5-3.3-6-5-9c-1.7-3-1.5-6.1-2.2-9.3
					c-0.9-3.7-2.4-7.1-3.1-10.8c-0.4-2-0.6-4.2-1.6-6c-0.7-1.3-1.7-2.5-2.2-3.9c-1.2-3.1-1-6.8-1.7-10.1c-0.7-2.9-2.2-5.5-0.3-8.2
					c0.3-0.5,1.1-0.1,0.8,0.5c-1.9,3.3,0.5,7.5,0.9,11c0.2,1.4,0.2,2.9,0.3,4.3c0.2,2.3,1.3,3.5,2.6,5.3c1.7,2.5,1.5,5.3,2.1,8.2
					c0.7,3.4,2.6,6.5,3.4,9.9c0.7,3.2,0.2,6.6,2,9.5c1.5,2.3,3.7,4.1,4.7,6.8c1.2,3.1,0.5,6.3,0.5,9.6c0,3.3,1.2,6.7,3.9,8.9
					C-19.6,28.8-19.8,29-19.9,28.9L-19.9,28.9z"/>
			</g>
		</g>
		<g>
			<g>
				<path class="st5" d="M-34.9-44.9c0.7,0.4,1,1,1,1.8c0,0.3-0.3,0.5-0.4,0.8c-0.5,1.5-1.2,2.4-1.2,4.1c0.2,4.9,1.8,10.1,5.2,13.7
					c2.5,2.6,5.6,4.4,7.6,7.5c1.2,1.8,1.6,3.9,2.5,5.9c1,2.1,2.3,3.9,3.8,5.7c0.1,0.1,0,0.2-0.1,0.1c-3.3-2.6-4.2-6.1-6.1-9.6
					c-1.9-3.6-5.4-6.2-8.1-9.2c-2.4-2.7-3.9-6-5-9.4c-0.5-1.7-0.9-3.7-0.7-5.4c0.1-0.8,2.1-5,1.2-5.6C-35.2-44.8-35.1-45-34.9-44.9
					L-34.9-44.9z"/>
			</g>
		</g>
		<g>
			<g>
				<path class="st5" d="M-19-8.5c2.5-2.6,3.7-7.5,3.5-11c-0.2-3.3-3.6-4.8-3.7-8c0-1.2,0.2-2.1,0-3.3c-0.1-0.7-0.5-1.3-0.6-2
					c-0.2-1.4,0.3-2.9,0.4-4.3c0.2-1.9-1.4-5.5,1.5-6.1c0.5-0.1,0.7,0.6,0.2,0.8c-1.3,0.3-0.9,4.6-1.1,5.9c-0.2,1.5-0.4,2.7,0,4.2
					c0.2,0.7,0.4,1.3,0.5,2c0.2,1.7-0.6,3.2,0.3,4.8c0.6,1.2,1.8,2.1,2.5,3.3c1.4,2.4,0.9,5.2,0.2,7.7C-16-12-16.8-10-18.9-8.4
					C-19-8.4-19.1-8.5-19-8.5L-19-8.5z"/>
			</g>
		</g>
		<g>
			<g>
				<path class="st5" d="M-12.2-43.1c0.3,0.6,0.5,1.3,0.2,2c-0.1,0.2-0.4,0.3-0.5,0.5c-0.9,1.1-1.9,1.7-2,3.3
					c-0.4,3.5,0.8,8.1,3.1,10.8c2.1,2.4,4.6,3.9,6,6.8c1.3,2.7,1.5,5.3,0.9,8.2c0,0.2-0.4,0.2-0.4-0.1c0.2-3.5-0.8-7.4-2.8-10.3
					c-1.8-2.6-4.5-3.9-5.8-6.9c-1-2.4-1.8-5.4-2-7.9c-0.1-0.9,0-1.9,0.5-2.8c0.7-1.2,3.2-1.9,2.6-3.6
					C-12.5-43.1-12.3-43.2-12.2-43.1L-12.2-43.1z"/>
			</g>
		</g>
		<g>
			<g>
				<path class="st5" d="M-10.9-7.4c4.3-1.2,9.1-6,9.4-10.5c0.5-5.9-1-11.6-1.3-17.5c-0.2-2.9,0.9-5.7,0.5-8.5
					c-0.2-1.2-1.3-2.6-1-3.9c0.6-3,5.4-2.5,7.5-2.2c0.4,0.1,0.3,0.7-0.1,0.7c-2.5-0.3-6.8-0.8-6.4,3c0.1,0.7,0.6,1.5,0.7,2.2
					c0.1,0.9,0.1,1.9,0,2.8c-0.4,3.2-0.5,5.9,0.1,9.1c0.5,2.5,0.8,5.1,1,7.7c0.3,3.8,0.8,8.1-1.6,11.3c-2,2.7-5.2,5.1-8.6,5.9
					C-10.9-7.2-10.9-7.4-10.9-7.4L-10.9-7.4z"/>
			</g>
		</g>
		<g>
			<g>
				<path class="st5" d="M10.6-13c-1.3-3.1-3.5-5.2-4.1-8.6C6-25,4.6-28.2,4.5-31.6c-0.2-3.5-1.7-7-1.5-10.6c0-0.9,0.2-1.8,0.6-2.7
					c0.6-1.3,2.6-3.6,0.5-4.5C3.7-49.5,4-50.1,4.4-50c1.6,0.5,1.8,1.6,1.1,3c-0.8,1.7-2,2.9-2.1,4.9c-0.1,2.4,1.1,4.6,1.5,6.9
					c0.4,2.1,0.2,4.2,0.7,6.2c0.5,2,1.3,3.9,1.6,5.9c0.3,2.1,0.4,4.1,1.5,6C9.5-15.7,10.4-14.6,10.6-13C10.7-13,10.7-12.9,10.6-13
					L10.6-13z"/>
			</g>
		</g>
		<g>
			<g>
				<path class="st5" d="M8.1-17.9c1.7,0.3,2.9-0.7,4.5-0.7c1,0,1.9,0.5,2.8,1c2,1.1,3.8,2.5,5.2,4.4c0.1,0.1-0.1,0.3-0.2,0.2
					c-1.8-1.5-3.7-2.9-5.8-4c-2.3-1.2-4.3,0-6.6-0.6C7.9-17.7,7.9-18,8.1-17.9L8.1-17.9z"/>
			</g>
		</g>
		<g>
			<g>
				<path class="st5" d="M18.8-14.9c2.1,0.6,1.1-1.9,1.1-2.8c0-2,0.9-4,1.1-6.1c0.3-4,0.4-7.8,1.2-11.7c0.3-1.5,0.5-3.3,1.1-4.7
					c0.6-1.2,0.9-2,1.1-3.4c0.3-2.1,0.9-4.1,3-5c0.3-0.1,0.6,0.3,0.3,0.5c-2.5,1.6-2.3,5.2-3.4,7.7c-0.8,1.9-1,4-1.4,6
					c-0.6,2.7-1.2,5.2-1.2,7.9c-0.1,3.6-0.9,7.2-0.6,10.7c0.1,1.8-1,1.8-2.3,1.1C18.6-14.7,18.7-14.9,18.8-14.9L18.8-14.9z"/>
			</g>
		</g>
		<g>
			<g>
				<path class="st5" d="M26.9,29.1c2.4-3.5,0.6-7.7,0.2-11.5c-0.4-3.5,0.9-6.9,1.7-10.3c0.4-1.9,0.7-3.9,0.8-5.8
					c0.2-1.7-0.1-3.1-0.3-4.8c-0.3-2.2,0.3-4.3,0.2-6.5c-0.1-1.9-0.9-3.7-1.2-5.6C27.9-17.1,28-19,28-20.8c-0.1-4-0.2-8,0-11.9
					c0.2-3.4,0.9-6.9,2-10.1c0.3-0.9,0.7-1.7,1.3-2.4c0.8-0.8,4-1.7,3.7-2.9c-0.1-0.6,0.7-0.8,0.9-0.2c0.2,0.8,0.2,1.6-0.4,2.2
					c-1.3,1.5-3.2,0.4-4.4,2.3c-2,3.3-2.1,8.3-2.2,12c-0.2,4.1-0.2,8.3-0.1,12.3c0,3.7,1.6,7.2,1.5,10.9c-0.1,2.6-0.4,4.8,0.2,7.4
					C31,2,30,5.4,29.3,8.4c-0.4,1.7-0.9,3.4-1.1,5.1c-0.4,2.6-0.1,5.1,0.3,7.7c0.4,2.9,0.5,5.6-1.4,8C27,29.3,26.8,29.2,26.9,29.1
					L26.9,29.1z"/>
			</g>
		</g>
		<g>
			<g>
				<path class="st5" d="M-40.8-44.9c0.5-1.5,2.9-0.8,4.1-0.8c1.4,0,2.6,0.3,2.5,1.9c0,0.2-0.2,0.2-0.3,0c-0.4-1.8-2.3-1.5-3.6-1.4
					c-0.8,0.1-1.8,0-2.5,0.3C-40.8-44.7-40.8-44.8-40.8-44.9L-40.8-44.9z"/>
			</g>
		</g>
		<g>
			<g>
				<path class="st5" d="M-18.1-42.8c0.4-0.6,1.3-0.8,2-0.9c0.7-0.2,1.4,0,2.2-0.1c0.8-0.1,2.1,0,1.9,1.1c0,0.1-0.1,0.1-0.2,0
					c-0.6-0.9-1.7-0.5-2.5-0.5c-0.8,0-1.4,0.2-2.1,0.5C-17.4-42.5-17.7-42.4-18.1-42.8C-18.1-42.7-18.1-42.8-18.1-42.8L-18.1-42.8z"
					/>
			</g>
		</g>
		<g>
			<g>
				<path class="st5" d="M35.2-47.9c-0.4-1.5-2.5-1.2-3.8-1.1c-1.9,0-4.2,0.7-5.2,2.3c0,0.1-0.1,0-0.1-0.1c0.6-2.2,3.6-2.7,5.6-2.8
					c1.7-0.1,3.7-0.5,4.1,1.5C35.8-47.7,35.3-47.5,35.2-47.9L35.2-47.9z"/>
			</g>
		</g>
		<g>
			<g>
				<path class="st5" d="M1,36c-0.6,1.4-0.8,3.8,1.9,3.6c0.6,0,1.5-0.7,2.2-0.9c1.6-0.6,3.3-1.1,4.8-1.9c1.4-0.7,2.8-1.5,3.7-2.9
					c1.1-1.5,0.6-3.3-1.6-3.3c-2.9,0-5.1,1.4-7.8,2.2c-1.6,0.5-3.7,0.3-4.8-1.1c-0.1-0.1,0.1-0.2,0.1-0.1c2.3,2.4,6.4,0,8.8-0.8
					c1.4-0.5,3.1-0.8,4.6-0.6c2.6,0.3,2.2,2.8,0.9,4.4c-0.8,1-1.9,1.8-3.1,2.3c-1.2,0.5-2.4,0.8-3.6,1.3c-1.4,0.5-2.7,1.4-4.1,1.8
					C0.1,41.1-0.4,38,1,36C0.9,35.9,1,36,1,36L1,36z"/>
			</g>
		</g>
		<g>
			<g>
				<path class="st5" d="M2.7,33.6c-2.2,2.4-3.5,4.6-3.8,7.8C-1.1,42-1.4,43-1.2,43.6c0.7,1.8,2.4,2.1,4,1.5
					c1.6-0.5,2.9-1.5,4.2-2.5c1.5-1.1,3.1-2.7,5-1.7c1.4,0.8,2.1,1.3,3.9,0.9c0.9-0.2,1.7-0.6,2.6-1c1.2-0.5,2.5-1.2,3.8-1.4
					c1-0.1,1.8,0.1,2.7,0.3c1.8,0.3,3-0.1,4.7-0.3c1.1-0.2,2.3,0.3,3.4,0.1c2.5-0.4,1.8-1.9,0.3-3c-1.5-1.2-2.9-0.4-4.2,0.7
					c-0.3,0.3-1,1.1-1.6,1c-0.9-0.2-0.6-1.3-0.5-2c0-0.2,0.4-0.2,0.4,0.1c-0.3,0.7-0.1,1,0.7,1c0.3-0.4,0.6-0.8,0.9-1.2
					c0.4-0.4,0.6-0.7,1.1-0.9c0.7-0.4,1.4-0.4,2.2-0.1c1,0.4,3.4,2.7,3.1,4c-0.1,0.4-0.3,0.5-0.7,0.7c-1.4,0.7-3.5-0.1-5,0.3
					c-1.1,0.3-2,0.5-3.2,0.4c-1-0.1-2.1-0.5-3.2-0.5c-1.3,0-2.5,0.5-3.7,1c-1.7,0.7-3.6,1.8-5.5,1.6c-2.1-0.2-3.1-1.4-5.5-0.4
					c-2.5,1-5.4,4.9-8.5,3.9c-2.4-0.8-2-3.7-1.8-5.7C-1.1,37.3,0.5,35.4,2.7,33.6C2.7,33.4,2.8,33.5,2.7,33.6L2.7,33.6z"/>
			</g>
		</g>
		<g>
			<g>
				<path class="st5" d="M29.6,35.7c-1.5-1.1-0.7-3.1-1.8-4.5c-0.4-0.6-0.8-1.1-1.2-1.7c-0.9-1.5-1.4-1.1-2.5-1.5
					c-0.1,0-0.1-0.2,0.1-0.2c0.6,0.2,1,0,1.6,0.2c0.7,0.3,1,1,1.4,1.6c0.5,0.8,1.4,1.6,1.8,2.5c0.5,1,0,2.7,0.8,3.5
					C29.8,35.6,29.7,35.8,29.6,35.7L29.6,35.7z"/>
			</g>
		</g>
		<g>
			<g>
				<path class="st5" d="M13.9,40.5c0.5,0.8,1.8,0.4,2.3,0c0.4-0.4,0.6-0.9,1-1.3c0,0,0.1,0,0.1,0c0,0.5-0.3,0.9-0.6,1.3
					c-0.2,0.3-0.4,0.7-0.8,0.8C15.1,41.6,14.2,41.3,13.9,40.5C13.8,40.5,13.9,40.5,13.9,40.5L13.9,40.5z"/>
			</g>
		</g>
		<g>
			<g>
				<path class="st5" d="M-0.8,44.2c-0.1-0.2-0.1-0.4-0.1-0.6c0,0,0-0.1,0-0.1c0-0.1,0-0.1,0,0c0,0.1,0,0.1,0,0.1c0,0-0.1,0-0.1,0
					c-0.3-0.1-0.4-0.4-0.3-0.7c0-0.1,0.2-0.1,0.2,0c0.1,0.2,0.3,0.2,0.5,0.2c0.2,0,0.4,0.1,0.5,0.3c0.1,0.2,0,0.5,0,0.7
					C-0.2,44.4-0.6,44.5-0.8,44.2L-0.8,44.2z"/>
			</g>
		</g>
		<g>
			<g>
				<path class="st5" d="M1.1,44.9c-0.6,0-0.8-0.7-0.4-1.1c0.2-0.2,0.5-0.2,0.7,0c0.1,0.1,0.2,0.3,0.3,0.4c0.2,0.1,0.4,0.1,0.6,0.2
					c0.1,0,0.1,0.1,0,0.2c-0.3,0.2-0.6,0.2-0.9,0.1c0,0-0.3-0.1-0.3-0.1c0,0,0,0.3,0,0.3C1.2,44.9,1.2,44.9,1.1,44.9L1.1,44.9z"/>
			</g>
		</g>
		<g>
			<g>
				<path class="st5" d="M-1.1,33.4C-1.1,33.4-1.1,33.5-1.1,33.4C-1.2,33.5-1.2,33.4-1.1,33.4L-1.1,33.4z"/>
			</g>
		</g>
		<g>
			<g>
				<path class="st5" d="M-0.2,32c0,0.3,0,1.3,0.2,1.5c0.2,0.1,0.1,0,0.2-0.1c0-0.1,0.1-0.2,0.1-0.2c0.1-0.2,0.2-0.4,0.3-0.6
					c0.1-0.1,0.3,0,0.2,0.1c-0.1,0.2-0.3,0.4-0.4,0.7c0,0.1-0.1,0.4-0.2,0.4c-0.1,0.1-0.1,0.1-0.2,0.1c-0.5-0.1-0.3-1.5-0.3-1.8
					C-0.3,31.9-0.2,31.9-0.2,32L-0.2,32z"/>
			</g>
		</g>
		<g>
			<g>
				<path class="st5" d="M3,32.9c0.1,0.4,0.3,0.8,0.4,1.2c0.1,0.1,0.1,0.3,0.2,0.4c0.1,0.1,0.1,0.2,0.2,0.2C4,34.7,4,34.7,4,34.6
					c0.1-0.1,0-0.3,0-0.5c0-0.2,0-0.4,0-0.6c0-0.3,0.1-0.6,0.1-0.9c0-0.2,0.3-0.1,0.2,0.1c-0.1,0.4-0.1,0.7-0.2,1.1
					c0,0.3,0,0.6-0.1,0.9C4.2,34.8,4.2,35,4,35c-0.3,0-0.6-0.5-0.7-0.7C3.1,33.9,3,33.4,3,32.9C2.9,32.8,3,32.8,3,32.9L3,32.9z"/>
			</g>
		</g>
		<g>
			<g>
				<path class="st5" d="M10.2,36.7c0.1-0.5,0.4-0.9,0.6-1.4c0.1-0.2,0.2-0.9,0.5-1c0.6-0.2,0.6,1.4,0.6,1.7c0,0.1-0.2,0.1-0.2,0
					c0-0.3-0.1-0.7-0.1-1c0-0.2-0.1-0.4-0.3-0.4c-0.1,0-0.2,0.5-0.3,0.6c-0.2,0.5-0.3,1-0.6,1.5C10.3,36.8,10.2,36.7,10.2,36.7
					L10.2,36.7z"/>
			</g>
		</g>
		<g>
			<g>
				<path class="st5" d="M4.6,39.1c0.1-0.3,0.1-1.4,0.6-1.5c0.4,0,0.5,0.8,0.6,1c0,0.1-0.2,0.2-0.2,0.1c-0.1-0.2-0.1-0.5-0.2-0.6
					c0-0.1,0-0.1-0.1-0.2C5.1,37.9,5,38,5,38.1c-0.1,0.3-0.2,0.6-0.3,1C4.7,39.2,4.6,39.1,4.6,39.1L4.6,39.1z"/>
			</g>
		</g>
		<g>
			<g>
				<path class="st5" d="M0.5,38.1c0-0.3-0.1-1.4,0.4-1.5c0.2,0,0.2,0.1,0.3,0.2c0.1,0.2,0.2,0.4,0.3,0.6c0.1,0.2,0.2,0.4,0.3,0.5
					C2.1,38.4,2,38.7,1.5,39c-0.1,0.1-0.4,0.3-0.6,0.3c-0.2,0-0.3-0.3-0.4-0.5c0-0.1,0.1-0.1,0.1-0.1c0.3,0.4,0.8,0.4,1,0
					c0.3-0.4-0.1-0.7-0.3-1c-0.1-0.1-0.3-0.7-0.4-0.7c-0.3-0.1-0.4,1.1-0.4,1.2C0.6,38.1,0.5,38.1,0.5,38.1L0.5,38.1z"/>
			</g>
		</g>
		<g>
			<g>
				<path class="st5" d="M3.6,36c0.1-0.5,0.7,0.5,0.7,0.7c0,0.2-0.2,0.2-0.3,0.4c-0.3,0.2-0.2,0.1-0.5,0c0,0-0.1-0.1-0.1-0.1
					C3.3,36.8,3.3,36.2,3.6,36C3.6,36,3.6,36,3.6,36c0.1,0.2-0.3,0.9,0,1c0.1,0,0.2,0,0.3-0.1c0.2-0.2,0.3-0.2,0.1-0.5
					C4,36.3,3.7,35.9,3.6,36C3.6,36.1,3.6,36,3.6,36z"/>
			</g>
		</g>
		<g>
			<g>
				<path class="st5" d="M4.4,35.2c0-0.2,0-0.5,0.1-0.6c0,0,0.1,0,0.1,0C4.9,34.7,5,35,5.2,35.2c0.1,0.1,0.3,0.3,0.3,0.5
					c0,0.3-0.3,0.6-0.6,0.7C4.4,36.5,4.2,35.5,4.4,35.2C4.5,35.2,4.5,35.2,4.4,35.2c0.2,0.2,0,0.7,0.2,0.9c0.1,0.2,0.3,0,0.5-0.1
					c0.4-0.4,0.1-0.4,0-0.7c0,0-0.3-0.5-0.4-0.5C4.5,34.9,4.5,35.1,4.4,35.2C4.5,35.3,4.4,35.3,4.4,35.2z"/>
			</g>
		</g>
		<g>
			<g>
				<path class="st5" d="M10,32.2c0,0,0.1-0.5,0.1-0.6c0-0.3,0.1-0.3-0.1-0.5c-0.2-0.2-0.1-0.1-0.3-0.1c-0.1,0-0.3,0-0.3,0.1
					C9.2,31.4,9.8,32,10,32.2c0.1,0,0,0.2-0.1,0.1c-0.3-0.2-1-1.1-0.5-1.4c0,0,0.1,0,0.2,0c-0.1,0,0.5-0.1,0.5-0.1
					c0.1,0,0.2,0.1,0.3,0.2c0.1,0.2-0.1,0.6-0.1,0.8c0,0.2,0.1,0.4-0.1,0.5c0,0,0,0-0.1,0C9.9,32.3,9.9,32.3,10,32.2
					C9.8,32.3,9.9,32.2,10,32.2z"/>
			</g>
		</g>
		<g>
			<g>
				<path class="st5" d="M11.2,31.7c0.2-0.3,0.3-0.9-0.3-0.8C10.3,31.1,10.8,31.9,11.2,31.7C11.2,31.7,11.2,31.7,11.2,31.7
					c-0.3,0.7-1.1-0.5-0.7-0.9c0.2-0.1,0.6-0.1,0.8,0C11.7,31.1,11.4,31.5,11.2,31.7C11.2,31.7,11.2,31.7,11.2,31.7z"/>
			</g>
		</g>
		<g>
			<g>
				<path class="st5" d="M11.7,31.9c0.1,0.2,0.1,0.4,0.4,0.2c0.2-0.1,0.3-0.8,0.2-1c-0.3-0.4-0.5-0.3-0.7,0.2c0,0.1,0,0.2,0.1,0.2
					C11.6,31.7,11.6,31.8,11.7,31.9C11.7,31.9,11.6,31.9,11.7,31.9c-0.4-0.4-0.5-1.3,0.3-1.2c0.9,0.1,0.4,1.3,0.1,1.7c0,0,0,0,0,0
					C11.8,32.3,11.7,32.1,11.7,31.9C11.6,31.9,11.6,31.9,11.7,31.9z"/>
			</g>
		</g>
		<g>
			<g>
				<path class="st5" d="M12.5,31c0.1,0.3,0.4,0.8,0.7,0.3c0.3-0.5-0.6-0.6-0.6-0.3C12.6,31.1,12.5,31.1,12.5,31
					c-0.1-0.5,0.9-0.4,1,0c0,0.2-0.3,0.7-0.5,0.7C12.6,31.7,12.5,31.2,12.5,31C12.4,31,12.5,31,12.5,31L12.5,31z"/>
			</g>
		</g>
		<g>
			<g>
				<path class="st5" d="M4.3,33c1.2-0.4,2.1-0.2,3.2,0.1c2.5,0.5,4.2-0.8,6.3-1.8c0,0,0.1,0,0,0.1c-1.1,1-2.8,1.7-4.3,2
					C7.8,33.6,6.1,32.7,4.3,33C4.3,33.1,4.3,33.1,4.3,33L4.3,33z"/>
			</g>
		</g>
		<g>
			<g>
				<path class="st5" d="M-35.7-42.8c0.4-0.7,0.6-1.7,0.1-2.4c-0.1-0.2,0.1-0.3,0.2-0.2c0.4,0.3,0.5,0.8,0.5,1.3
					c-0.1,0.6-0.3,1-0.7,1.5C-35.7-42.6-35.8-42.7-35.7-42.8L-35.7-42.8z"/>
			</g>
		</g>
		<g>
			<g>
				<path class="st5" d="M-37.3-42.6c0.1-0.5,0.4-0.9,0.3-1.4c0-0.5-0.3-0.9-0.4-1.4c0-0.1,0.1-0.3,0.2-0.2
					C-36.3-45-36.5-43.2-37.3-42.6C-37.3-42.6-37.4-42.6-37.3-42.6L-37.3-42.6z"/>
			</g>
		</g>
		<g>
			<g>
				<path class="st5" d="M-39.2-42.5c0.2-0.6,0.5-1.1,0.4-1.8c-0.1-0.3-0.1-0.6-0.3-0.8c-0.1-0.1-0.2-0.2-0.2-0.3
					c0-0.1,0-0.1,0.1-0.1c0,0,0.1,0,0.1-0.1c0.1,0,0.2,0,0.3,0C-37.9-45-38.3-43.2-39.2-42.5C-39.1-42.5-39.2-42.5-39.2-42.5
					L-39.2-42.5z"/>
			</g>
		</g>
		<g>
			<g>
				<path class="st5" d="M-17.3-40.5c0.6-0.5,0.9-1.5,0.4-2.2c0-0.1,0-0.1,0-0.2c0,0,0,0,0,0c0.1-0.1,0.2-0.1,0.3,0
					c0.5,0.2,0.4,0.9,0.3,1.2c-0.2,0.5-0.5,1-1,1.3C-17.2-40.3-17.3-40.4-17.3-40.5L-17.3-40.5z"/>
			</g>
		</g>
		<g>
			<g>
				<path class="st5" d="M-14.7-40.6c0.4-0.4,0.8-0.8,0.9-1.4c0-0.5-0.3-0.7-0.5-1.1c-0.1-0.1-0.1-0.3,0.1-0.3
					c0.6-0.1,1,0.6,0.9,1.2c0,0.8-0.7,1.3-1.2,1.8C-14.7-40.5-14.8-40.6-14.7-40.6L-14.7-40.6z"/>
			</g>
		</g>
		<g>
			<g>
				<path class="st5" d="M1.8-45.5c-0.3-0.5,0-1.2,0-1.8c0-0.8-0.3-1.6-0.3-2.4c0-0.2,0.3-0.3,0.4-0.1C2.8-48.5,1.8-46.9,1.8-45.5
					C1.8-45.5,1.8-45.5,1.8-45.5L1.8-45.5z"/>
			</g>
		</g>
		<g>
			<g>
				<path class="st5" d="M3.3-46c0.2-0.7,0.4-1.3,0.5-2c0.1-0.6,0-1-0.1-1.6c0-0.1,0.1-0.2,0.1-0.1c1.6,0.2-0.1,3.2-0.5,3.8
					C3.4-45.9,3.3-46,3.3-46L3.3-46z"/>
			</g>
		</g>
		<g>
			<g>
				<path class="st5" d="M-0.4-46.1c-0.7-1.2-1.1-2.7,0-3.9c0.1-0.1,0.2,0,0.2,0.1C-0.9-48.7-0.2-47.3-0.4-46.1
					C-0.3-46-0.4-46-0.4-46.1L-0.4-46.1z"/>
			</g>
		</g>
		<g>
			<g>
				<path class="st5" d="M30.9-46.5c0.6,0.1,1.3-0.5,1.6-1c0.1-0.2,0.2-0.6,0.2-0.8c0-0.3-0.2-0.5-0.3-0.8c0-0.1,0.1-0.2,0.2-0.2
					c0.9,0.2,0.7,1.5,0.4,2.1c-0.4,0.7-1.3,1.1-2.1,0.8C30.7-46.4,30.8-46.5,30.9-46.5L30.9-46.5z"/>
			</g>
		</g>
	</g>
	<g id="Ball_1_">
		<g id="Tennis_Ball_1_">
			<defs>
				<circle id="SVGID_3_" cx="20.2" cy="-44.8" r="5.8"/>
			</defs>
			<clipPath id="SVGID_4_">
				<use xlink:href="#SVGID_3_"  style="overflow:visible;"/>
			</clipPath>
			<g transform="matrix(1 0 0 1 0 0)" class="st15">
				
					<image style="overflow:visible;" width="411" height="308" xlink:href="85787349.jpg"  transform="matrix(4.675620e-02 0 0 -4.675620e-02 10.7666 -37.9983)">
				</image>
			</g>
			<circle class="st14" cx="20.2" cy="-44.5" r="7"/>
			<g class="st15">
				<path class="st16" d="M16.9-41.4L16.9-41.4c0.9,0,1.7-0.5,2.2-1.2c0.5-0.7,0.6-1.7,0.4-2.5c-0.2-0.7-0.6-1.4-0.6-2.1
					c0-1,0.9-1.8,1.9-2c1-0.2,2,0.2,2.9,0.7c0.3,0.2,0.6,0.3,0.8,0.2c0.1-0.1,0.2-0.3,0.2-0.5c0-0.2-0.1-0.3-0.2-0.5
					c-0.5-0.8-1.3-1.5-2.3-1.8c-0.8-0.2-1.6-0.2-2.5-0.2c-1.5,0-3,0-4.5,0c-0.3,0-0.7,0-1,0.2c-0.6,0.3-0.8,1-0.8,1.6
					c-0.2,1.8,0.1,3.5,0.4,5.3c0.1,0.6,0.2,1.4,0.7,1.8c0.4,0.4,0.9,0.8,1.4,0.9C16.2-41.4,16.6-41.4,16.9-41.4z"/>
			</g>
			<g class="st15">
				<path class="st11" d="M18.8-50.4c-0.7,0.3-0.5,1.4,0.3,2.7c0.6,0.9,1.3,1.7,1.7,2.7c0.5,1.4-0.3,3.3-1.6,3.9
					c-1.3,0.6-3.2,0.1-4-1.1l0.5,0.8c1.1,1.1,2.8,1.4,4.2,0.7c1.7-0.7,2.2-3,1.7-4.5c-0.5-1.4-0.8-1.5-1.6-2.5
					c-0.7-0.9-1.3-2.5-0.6-2.9"/>
			</g>
			<g class="st15">
				<g>
					<path d="M16.1-41.2c3.6,2.6,7-1.8,5-5.2c-0.8-1.4-2.1-2.3-2-4.1c0,0,0,0,0,0c0,2,1.8,3,2.5,4.7c0.5,1.1,0.5,2.5-0.1,3.6
						C20.5-40.1,17.9-39.8,16.1-41.2C16.1-41.2,16.1-41.2,16.1-41.2L16.1-41.2z"/>
				</g>
			</g>
		</g>
		<g>
			<path d="M24.9-42.4c-0.7,1.2-1.8,2.2-3.1,2.6c-1.3,0.5-2.8,0.4-4.1-0.2c-1.3-0.6-2.3-1.7-2.7-3.1c-0.5-1.3-0.4-2.9,0.3-4.2
				c0.6-1.3,1.8-2.3,3.2-2.8c1.4-0.4,2.9-0.3,4.2,0.4c1.3,0.7,2.2,1.9,2.7,3.2C25.7-45.1,25.6-43.6,24.9-42.4z M25.8-42
				c0.7-1.5,0.8-3.2,0.3-4.7c-0.5-1.5-1.7-2.8-3.1-3.5c-1.4-0.7-3.1-0.8-4.6-0.3c-1.5,0.5-2.8,1.6-3.5,3c-0.7,1.4-0.9,3.1-0.4,4.6
				c0.5,1.5,1.6,2.9,3,3.6c1.4,0.8,3.2,0.9,4.8,0.4C23.7-39.3,25-40.5,25.8-42z"/>
		</g>
	</g>
</symbol>
<use xlink:href="#Jack_Russel_2"  width="98.6" height="104.8" x="-49.3" y="-52.4" transform="matrix(0.9676 0 0 -0.9676 80.5776 80.1335)" style="overflow:visible;"/>
</svg>
