<?xml version="1.0" encoding="utf-8"?>
<!-- Generator: Adobe Illustrator 22.1.0, SVG Export Plug-In . SVG Version: 6.00 Build 0)  -->
<svg version="1.1" id="Card_1" xmlns="http://www.w3.org/2000/svg" xmlns:xlink="http://www.w3.org/1999/xlink" x="0px" y="0px"
	 viewBox="0 0 155.9 155.9" style="enable-background:new 0 0 155.9 155.9;" xml:space="preserve">
<style type="text/css">
	.st0{clip-path:url(#SVGID_2_);}
	.st1{fill:#FFFFFF;}
	.st2{fill:#DDDDDD;}
	.st3{fill:#804519;}
	.st4{fill:#683211;}
	.st5{fill:#151612;}
	.st6{fill:#3D2011;}
	.st7{fill:#010202;}
</style>
<g id="Colours">
	<defs>
		<path id="SVGID_1_" d="M42.9,69.5c2-1.3,2.6-1.8,5-2.6c2.4-0.8,5-1,7.6-1.1c8-0.3,15.9,0,23.9-0.5S96,63,103.2,59.4
			c2.2-3.8,2.5-4.4,2.9-7c0.4-2.2,1.3-3.2,2.6-4.8c0.4-1.1,0.8-1.5,1.5-2.5c1.7-2.5,5-4.2,6.1-5.1c0.6-0.4,2.5-1,3.9-1
			c1.7-0.1,6.9,0.7,8.3,1.7c1.3,0.9,2.2,2.5,3.4,3.5c0.7,0.6,1.5,1.2,1.4,2.1c0,0.3-0.2,0.5-0.2,0.8c-0.1,1.8,0,3.3,0.4,5
			c1.2,0,1.4,0.8,1.3,2c1.1,1.4,1.4,3,1.3,4.8c0,0.4-0.1,0.8-0.2,1.2c0.4,1.7,0.8,3.9,3.2,5.9c-1.5,0-3.3-0.5-3.8-2
			c1.1,2.3,1.2,6.9,1,8.4c-0.3,1.5-1,5.3-4.7,8.9c0.7-3.7-1-6-0.8-5.1c0.7,2.3-2,4.4-0.3,8.1c-2.2-0.7-5.6-2-7.1-3
			c0.2,0.9,0.7,3,0.6,3.9c-0.3,2.7-0.9,5,0.4,7.6c-1.1-0.8-1.9-1.9-2.1-3.3c0.5,2.9,0.9,6,0.1,8.9c-0.6,1.9-1.8,3.6-2.6,5.4
			s-1.4,4.6,0.4,6.1c-2.2-0.1-3-3.6-2.7-5.5c-0.4,1.7-1.4,3.4-2.3,4.9c-0.9,1.5-1.6,3.3-1.1,5c-2.1-4.9,0.3-7.1,0.4-10.2l-0.4,1.8
			c-0.6,1.3-3.3,2.1-4.5,2.7c-1.3,4.2-1.3,10.3-0.2,14.6c2,0.6,2.9,0.6,4.4,1.5c2.1,1.2,2.7,5.1,0.5,5.3l-0.2,0.4
			c0.2,1.3-0.5,1.7-1.7,1.9c-2.3,0.5-5.2,0.6-7.4-0.3c-1.8-0.8-3.2,0.9-4.5-0.5c-0.8-0.8-0.8-3.1-0.7-4.5l0.4-1.7
			c-0.4,1.4-0.9,3-2.2,3.5c1.3-2.5,1.5-5.5-0.2-10c-1-2.7-1.8-6.5-2-9.4c-0.1-0.8-0.1-1.7,0.3-2.5c0.4-0.8,1.2-1.3,1.9-1.1
			c-2.2-1.1-3.7,3.3-5.4,2.3c1.1-0.3,1.6-1.9,2.5-3.6c-3.4-1.9-7.4-2.4-11.2-3.4c-2.7-0.7-5.9-2-8.3-3.6c1.5,1.2,1.5,3.1,0.6,4.9
			c0.2-1.4-1.2-3.4-2.3-4.2c-1-0.8-7.5-2.4-11.3-4c0.3,1.7,0.2,3.5,0.1,5.3c-0.4-1.3-1-2.6-1.7-3.8l0,0c0.3,0.8,0.1,1.8-0.2,2.6
			c-0.3,0.8-0.7,1.6-1,2.4c-0.8,2.1-0.3,4.3,0.4,6.5c-1.3-2.7-2-5.9-1.7-8.9l-0.1,0c-1.5,3.9-3,8.5-6.6,10.4c-2.1,1.1-2.9,1-5.1,1.7
			c-3.5,1.9-5.9,5.4-6,9.6c2,1.4,4.2,0.3,6.2,1.8c1.2,0.9,1.6,2.7,1,4.1l-1,0.7c-0.5,0.2-1.5,0.3-2,0c-0.9-0.5-1.6,0.5-2.7,0.6
			l1.8,0.8c1.3,0.9,1.7,2.6,1.4,4.2c-1.3,1.1-2.8,1.6-4.1,0.4c-0.7,0.8-2.2,0.9-3.2,0.8c-1.1-0.1-2.1-0.4-3.1-0.6
			c-1.2-0.2-2.4-0.1-3.6-0.4c-1.2-0.3-2.1-0.9-2.6-2.1c0.2-1,0.4-2.1,0.6-3.2c-1.5,2.7-4,2.4-6.4,1.8c-1.8,1-3.8,1.4-5.8,1.1
			c1.2-1,2.3-2.7,2.6-4.3s0-3.3-0.8-4.7c-0.4-0.8-1-1.5-1.4-2.3c-0.3-0.8,0.4-2.8,1.1-3.4c-2.2,1.7-3.4,5.2-2.5,7.9
			c-1.6-3.3-1.3-7.4-0.1-10.8c1.2-3.5,3.3-6.5,5.4-9.5c2.1-3,4.2-6,5.6-9.5c1.2-3,1.6-6.3,2.7-9.3C32.1,77.4,37,72.1,42.9,69.5z"/>
	</defs>
	<clipPath id="SVGID_2_">
		<use xlink:href="#SVGID_1_"  style="overflow:visible;"/>
	</clipPath>
	<g id="Base_1_" class="st0">
		
			<rect x="12.4" y="35.7" transform="matrix(-1 -4.746127e-11 4.746127e-11 -1 157.1248 172.7401)" class="st1" width="132.3" height="101.4"/>
		<g id="Light_1_">
			<g>
				<path class="st2" d="M133.3,60.1c-2.1,0.7-5.3,5.9-9.9,5.8c-0.8,0-1.8-0.4-2.7-1.2c-1.4,0.7-1.4,3.8-1.2,5.4
					c0.4,2.9,1.9,5.6,2,8.5c0.1,3.9-4.7,6.7-7.3,7.5c1.2,0.6,2.6,0.1,3.4-0.1c-0.3,3.3-2.2,7.1-4.8,9c1.9-0.1,3.1-0.3,4.3-1.9
					c-1.4,5.7-7.4,3.2-9.3,10.8c-1.6,6.5-2.3,13.6-0.2,20c-0.2-1.4,1-2.7,2.3-3.1c1.3-0.5,2.7-0.4,4-0.7c2.1-0.4,3.9-1.7,5.5-3.1
					c2.6-2.4,4.6-5.5,5.9-8.9c2.1-5.8,1.9-12.4,4.3-18.1c1.2-2.8,2.9-5.3,3.7-8.3c0.9-3,0.7-6.3,0.5-9.5l0,0
					C131.5,65.5,134.9,60.6,133.3,60.1z"/>
			</g>
			<g>
				<path class="st2" d="M99.4,120.3L99.4,120.3c-0.5-2.7-1.5-5.2-1.8-8c-0.3-2.7,0.2-5.8,2.3-7.4c-0.7-0.4-1.5-0.5-2.3-0.3
					c0.5-1.3,1-2.6,1.4-4c-1.9,1.2-4.3,0.7-6.5,0.2c-3-0.8-6.1-1.5-9-2.8c-2.6-1.2-5.1-2.9-7.9-3.2c-2.1-0.2-4.2,0.3-6.3,0.1
					c-3.3-0.3-6.3-2.6-7.6-5.7c1.7,3.3,0.4,7.5,1.9,10.9c0.8,1.8,2.2,3.1,3.7,4.3c3,2.6,6.2,5,8.7,8.1c2.1,2.6,3.7,5.6,5.5,8.4
					c1.8,2.8,4,5.5,6.8,7.1c2.8,1.6,6.2,1.6,9.2,0.4C100.1,127.2,99.9,122.8,99.4,120.3z"/>
			</g>
			<g>
				<path class="st2" d="M59.3,96.4c-1.9,4.2-5.1,7.4-8.9,9.5c-4,2.2-8.1,4.6-11.1,8.3c-1.4,1.8-2.6,3.8-2.9,6.2
					c-0.3,2.3,0.4,4.9,2.1,6.3c-0.7-1.6,0.1-3.7,1.6-4.4c0.5-0.2,1.1-0.4,1.2-1c0-0.2,0-0.4-0.1-0.6c-0.4-1.7,0.6-3.4,2-4.3
					s3-1.3,4.5-2c2.8-1.1,5.3-3,7.1-5.6c2.5-3.6,3.4-8,4.3-12.4"/>
			</g>
			<g>
				<path class="st2" d="M30,106.7c-2.2,1.2-4.5,2.8-4,5.4c1.8,10.2-5.7,16.8-8.8,17.5c2.7,1.3,5.8,0.5,8.7,0.3c0.9-0.1,2,0,2.5-0.8
					c1.4-2.5,1.2-6.2,1.1-8.1c-0.1-2.7,0.1-5.2-0.2-8.1c-0.5-5.1,3.9-4.7,8-9.9C34.3,104.7,32.2,105.6,30,106.7z"/>
			</g>
			<g>
				<path class="st2" d="M100.7,62.9c-0.8,0.6-1.8,0.9-2.8,1.1c-6.9,1.7-13.8,3.3-20.8,3.5c-5.8,0.2-11.5-0.7-17.3-0.8
					S48.2,67.2,43,70c-0.4,0.2-0.7,0.4-1.1,0.4c-1.3,0.1-2.1-1.6-2-3c0.1-2,1.1-3.8,2.5-5.2c1.3-1.4,3-2.4,4.7-3.2
					c6.3-3.2,13.3-5,20.3-5.8c7-0.8,14-0.8,21.1-0.7c2.7,0,5.4,0.1,7.8,1.4c0,0,0,0,0,0C98.4,55.1,104,60.3,100.7,62.9z"/>
			</g>
		</g>
		<g id="Dark_1_">
			<g id="L">
				<g>
					<path class="st3" d="M99.9,70.3c0,0-3.1-8-3.1-10c-1.2-1.2-9.3,0.7-10.7,1.8c5.7,6.8-3.9,13.4-1.9,20.5
						c-0.8-2.1-0.6-4.5-0.7-6.8c-0.1-2.3-0.6-4.8-2.4-6.1C79,68.4,76,69.2,74,67.7c-1-0.7-1.6-1.9-2.4-2.9s-2.1-1.8-3.2-1.3
						c-1.3,0.5-1.7,2.3-2.8,3.2c-0.8,0.7-1.9,0.9-2.8,1.5c-0.9,0.7-1.4,2-1.4,3.2c-0.1,1.2,0.2,2.4,0.5,3.6c-0.4-2.2-1.2-4.4-2.7-6
						c-1.5-1.6-3.8-2.4-5.8-1.6c-1,0.4-1.9,1.3-2,2.5c0,0.7,0.2,1.4,0.3,2.1c0.3,1.8-0.5,3.6-0.8,5.5c-0.4,1.8-0.2,4.1,1.3,5
						c-0.5-0.7,0.4-1.8,1.2-1.7c0.8,0.1,1.5,0.9,1.8,1.8s0.4,1.8,0.8,2.6c0.4,0.8,1.1,1.5,2,1.4c1-0.1,1.7-1.3,2.6-1.2
						c0.6,0.1,1,0.7,1.2,1.3c0.2,0.6,0.1,1.3,0.2,1.9c0.3,2.2,1.8,4,3.5,5.3c1.7,1.3,3.6,2.4,5,4.1c2,2.3,2.9,5.6,5,7.9
						c0.7,0.7,1.4,1.4,2.4,1.6c0.9,0.3,2,0,2.6-0.7c0.6-0.7,0.7-1.8,0.8-2.8c0.1-1.1,0.1-2.3-0.3-3.4c-0.4-1-1.3-1.8-2-2.7
						s-1.2-2-0.9-3.1c1.3,2.4,3.9,3.4,6.3,4.6s4.8,3,5.1,5.7c-1-4.3-0.1-15.3,4.1-19.2c2.7,3.2,1.7,7,0.6,10.9
						c2.3-0.9,3.9-3.2,4.7-5.7c0.8-2.5,0.9-5.1,1.3-7.7c0.3-2.3,1.7-4.5,0.8-6.7C100.4,76,100,71.7,99.9,70.3z"/>
				</g>
				<g>
					<path class="st3" d="M41.5,72C41.5,72,41.5,72,41.5,72c-0.2,0.9-0.1,1.8-0.3,2.7c-0.4,1.2-1.3,2.2-2.1,3.2
						c-1.8,2.6-2.3,6.2-1.1,9.1c0.6-1.7,1.1-3.3,1.7-5c0.2-0.6,0.4-1.2,0.8-1.6c0.4-0.4,1.1-0.7,1.6-0.4c1,0.5,0.6,2.2,1.1,3.2
						c0.9,1.7,3.4,0.9,4.8,2c1.6,1.3,1.2,4.5,3.1,5.3c0.3,0.2,0.8,0.2,1,0.5c0.4,0.6-0.3,1.5-1.1,1.6c-0.7,0.1-1.5-0.3-2.2-0.2
						c-0.8,0.1-1.4,0.7-2,1.3c-2.8,2.6-6.1,4.5-9.7,5.5c1.3-1.6,1.6-4,1.1-6s-1.5-3.9-2.5-5.8c-0.3-0.6-0.7-1.2-1.4-1.3
						c-1-0.1-1.6,1-2,1.9c-0.8,1.7-2.1,3.1-3.6,4c-0.6,0.4-1.5,0.7-2.1,0.4c-0.9-0.4-1.1-1.6-1-2.7c0.3-4.1,3-7.5,4.6-11.2
						c1.1-2.5,1.7-5.1,2.8-7.6c1.1-2.4,2.9-4.7,5.4-5.6c1.8-0.6,4.2-0.1,5.5,1.4c1,1.2,0.4,1.3-0.6,2.1C42.4,69.8,41.7,70.8,41.5,72
						z"/>
				</g>
				<g>
					<g>
						<path class="st3" d="M126.8,52c0.4-1.8,0.2-5.4-1.2-6c-1.6-0.8-1.5-2.4-2.5-3c-1.7-0.9-4.3-1.6-6.2-1.6
							c-3.7,0-7.3,0.7-9.7,3.6c-1.3,1.5-0.7,6.4-1.2,8.4c-1.5,5.3-4.5,7.9-6,13.5s-0.2,9.7,2.5,13.7c-0.8-3.4-1-4.1,0.2-7
							c0,7.2,4.3,5.6,3.4,13c2.2-2.1,3.6-3.7,3-7.3c1.5,1.4,5,4.7,3,7.6c3.2-0.1,7.6-5.1,7.5-10.2c0.9,0.8,1.3,1.5,3,2.2
							c2.5,4.5,7.2,6.5,11.1,4.6c3.9-1.8,6.6-7.1,7.1-11.6c0.5-4.5-1.6-9-4.4-12.4c-0.8,2.1-2.1,3.6-2.8,3.4
							c-1.5,0.6-3.2,3.4-4.2,3.9c-1.1,0.6-2,0.5-3.1,0.9c-1.1-0.1-3.3-0.4-3.2,8.3c-1.3-2.6-3.5-7.4-4-10.3c-0.9-5.2,1.6-8.1,2-8.7
							C121.7,56.2,126.3,54.3,126.8,52z"/>
					</g>
					<g>
						<path class="st3" d="M129.6,49.1L129.6,49.1c-0.5-0.6-1.4-2-1.3-2.8c0-0.4,0.2-0.8,0.2-1.2c0-0.6-1.1-1.8-1.3-2.4
							c-0.5-1,0.4-2.7,0.8-3c0.4-0.3,1.1-0.2,1.6,0c2,0.7,3.8,2,5.2,3.7c1.3,1.8,2.1,4,2,6.2c0,0.8-0.2,1.7-0.7,2.2
							c-0.6,0.5-1.6,0.4-2.3,0.3C132.2,51.9,130.6,50.3,129.6,49.1z"/>
					</g>
				</g>
				<g>
					<path class="st4" d="M107.9,53.7c-0.4-2.2,0-5.2,1.3-7c-1.4,0.6-2.5,1.9-3,3.4c-0.5,1.6-0.2,3.1,0.4,4.5
						c0.7,1.7,1.4,4.6,0.9,5.9C108.9,58,108.4,55.9,107.9,53.7z"/>
				</g>
				<g>
					<path class="st4" d="M113.1,61.7c-0.6,3.6-3.1,2.6-4,6.3c0.2-4.4,2.4-4.3,2.8-7.3c0.2-1.8,0.1-3.1-0.6-5.2
						c-0.5-1.6-0.9-3.5,0.3-5.6C110.6,53.4,114.1,56,113.1,61.7z"/>
				</g>
				<g>
					<path class="st4" d="M116.3,57.9L116.3,57.9c-0.6-1.5-1.3-2.9-1.7-4.5c-0.4-1.6-0.5-3.3,0.3-4.7c0.2,3.8,2.5,7,3.6,10.7
						c0.7,2.1,0.8,4.4,0.5,6.7c-0.1,0.8-1.1,6.1-2.2,5.4c-0.7-0.4,0.6-5.3,0.7-6.4C117.5,62.6,117.1,60.1,116.3,57.9z"/>
				</g>
			</g>
			<g id="Shads">
				<g>
					<path class="st4" d="M132.5,75c0-1.4-0.3-2.8-1-4.1c0.1,1.2-1.4,2-1.4,3.2c0,0.5,0.3,1,0.4,1.5c0.9,2.6-0.6,6,0.4,8.5
						c0.1,0.1-2.5-0.6-2.6-0.7c-1.1-0.8,0.1-3.7-2.2-7.7c0.3,3.9,0.5,5.1,0.1,6.6c-1.9-0.6-3.3-2.4-3.7-3.5c0.8,0,1.8,0.3,2.6,0.3
						c-1-0.6-1.7-1.7-2-2.6c-0.3-0.8-0.3-1.3-0.3-2.2c0-1.3,0.4-2.6,0.5-3.9c0.1-1,0.4-1.9,1.1-2.5c1.3-1.2,2.9-0.3,4.5-1.1
						c0.6-0.3,3-3.1,3.8-3.7c0.7,0.6,1.3,3.2,1.3,4.2c0.1,1.3,0,2.6-0.3,3.9c-0.2,0.6-0.4,1.3-0.6,1.9
						C133.1,73.8,132.5,74.6,132.5,75z"/>
				</g>
				<g>
					<path class="st4" d="M119.6,70.9c-0.3,1-1,1.8-1.4,2.7c-1,2.5,0.2,5.5-0.5,8.1c-0.7,2.5-3,4.2-5.3,5.1c1.3-1.1,2.9-2.4,3-4.2
						c0.4-4.1-1.5-5-0.8-7.5c0.3-1,1-1.8,1.5-2.6l0,0c1.2-2,1.7-4.1,2.3-6.4c0.4-1.5,1,0.8,1.1,1.5C119.9,68.7,120,69.8,119.6,70.9z
						"/>
				</g>
				<g>
					<path class="st4" d="M116.2,49.1L116.2,49.1c0.5,0.8,1.1,1.6,1.6,2.4c2,3.2,2.1,7.5,0.8,11.1c-0.1-2-0.5-3.9-1.3-5.7
						c-0.7-1.7-1.8-3.2-2.4-5c-0.4-1.2-0.5-2.7-0.2-3.9c0.1-0.4,0.4-1.2,0.8-0.9c0.1,0.1,0.1,0.8,0.2,1
						C115.9,48.5,116.1,48.8,116.2,49.1z"/>
				</g>
				<g>
					<path class="st4" d="M106,76.8c-0.7-3.4,1.3-5.5,3.1-6.7c-2,2.6-1.4,5.8-0.8,8c1.4,4.5-1,7.6-2.4,8.6
						C108.9,82.6,106.7,80.1,106,76.8z"/>
				</g>
				<g>
					<path class="st4" d="M101.8,64c-1,3-1.6,6.2-1.2,9.4c0.3,2.7,1.2,5.3,2.3,7.8c-2.3-2-3.5-5.1-3.7-8.3c-0.2-3.1,0.5-6.3,1.8-9.1
						l0,0c0.6-1.4,1.3-2.8,2.1-4.1c0.6-1,1.3-2.8,2.2-3.3C104.1,58.9,102.7,61.4,101.8,64z"/>
				</g>
				<g>
					<path class="st4" d="M78.4,69C78.4,69,78.4,69,78.4,69c1.8,0.5,3.7,1.3,4.7,2.9c1,1.6,1,3.7,1,5.6c0,1.9,0.1,4.1,1.4,5.5
						c-1.7-0.8-2.7-2.7-3.3-4.5s-1.2-3.8-2.5-5.2c-1-1.2-2.4-1.8-3.7-2.7c-1-0.7-2.4-1.9-2.5-3.3C75.1,67.9,76.7,68.5,78.4,69z"/>
				</g>
				<g>
					<path class="st4" d="M42.2,70.7C42.2,70.7,42.2,70.7,42.2,70.7c-0.3,1-0.2,2-0.4,3c-0.4,2.3-2.3,3.9-3.3,6
						c-1.1,2.3-1.1,5.1-0.1,7.4c-1.7-1.6-2.7-4-2.6-6.4c0-1.4,0.4-2.9,0.8-4.3c0.9-3.5,2-7.3,4.8-9.4c0.7-0.6,1.7-1,2.5-0.7
						C46.7,67.4,42.5,69.7,42.2,70.7z"/>
				</g>
				<g>
					<path class="st4" d="M84,99.1c-1.3-0.7-2.7-1.1-4-1.9c-1.3-0.8-2.4-2-2.6-3.5c2.1,1,4.3,1.4,6.4,2.3c2.1,0.9,4.1,2.3,5,4.5
						c0.2,0.4,0.3,0.9,0.2,1.3c0,0,0,0,0,0C88.7,104.6,84.9,99.6,84,99.1z"/>
				</g>
				<g>
					<path class="st4" d="M100.3,84.3c-0.2,1.9-0.3,4.2-0.9,6.2c-0.9,2.7-2.6,5.2-5.4,6.4c0.6-2,1.2-4,1.1-6.1C95,89.9,95,89,95,88
						c0.1-2.6,3.9-8.6,4.6-12.4c0.4,0.9,0.9,2.1,1.6,3.4C101.2,80.4,100.5,82.3,100.3,84.3z"/>
				</g>
				<g>
					<path class="st4" d="M87.8,67.1C87.8,67.1,87.8,67.1,87.8,67.1c0.2-0.6-0.1-1.2-0.5-1.7s-0.8-1.1-0.6-1.7
						c0.1-0.3,0.4-0.6,0.7-0.8c2.1-1.6,4.6-2.7,7.2-2.9c0.7-0.1,1.5-0.1,2,0.4c2,1.5-1.7,3.2-2.6,3.8C92,65.4,90,66.3,87.8,67.1z"/>
				</g>
			</g>
		</g>
	</g>
	<g id="Details_1_" class="st0">
		<g>
			<path class="st5" d="M132.3,56.6L132.3,56.6c-2.1-1-2.4-2.8-1.9-3.4c0.5-0.6,1.8-1.1,2.5-1.2c0.5-0.1,1.2,0,1.6,0.3
				c1.1,0.6,0.3,3.8-0.1,4.3C134,57.1,132.8,56.8,132.3,56.6z"/>
		</g>
		
			<ellipse transform="matrix(0.9962 -8.705410e-02 8.705410e-02 0.9962 -3.9922 10.9538)" class="st6" cx="123.6" cy="51.2" rx="1.6" ry="1.2"/>
		<ellipse transform="matrix(0.9903 -0.1392 0.1392 0.9903 -5.5347 18.8447)" class="st6" cx="132" cy="49" rx="1.2" ry="1.2"/>
		<ellipse class="st7" cx="123.7" cy="51.1" rx="0.9" ry="1"/>
		<ellipse class="st1" cx="123.2" cy="50.7" rx="0.6" ry="0.6"/>
		<ellipse class="st7" cx="132" cy="48.8" rx="0.7" ry="0.8"/>
		<ellipse class="st1" cx="131.6" cy="48.4" rx="0.5" ry="0.5"/>
	</g>
</g>
<g id="Outlines">
	<g>
		<g>
			<path class="st7" d="M132.2,54.7c0.1,0.4,0.1,0.7,0.5,0.9c-0.1-0.1-0.1-0.3-0.2-0.4c0,0.3-0.2,0.5-0.3,0.8c0,0.1,0.1,0.2,0.2,0.2
				c0.5,0,0.7-0.4,0.9-0.8c-0.1,0.1-0.2,0.2-0.3,0.3c0.6-0.2,0.6-0.7,0.4-1.3C133.2,53.6,132.1,53.9,132.2,54.7L132.2,54.7z"/>
		</g>
	</g>
	<g>
		<g>
			<path class="st7" d="M134,62.9c-0.5-0.1,1.7-3.8-1-2.9c-1.4,0.4-2.7,2.4-3.7,3.3c-2.2,1.9-5.2,3.3-8.1,1.8c0,0-0.1,0-0.1,0.1
				c2.1,3.7,7.5-0.8,9.3-2.4c0.4-0.4,2.5-2.4,3-1.5c0.2,0.3-0.6,1.2-0.5,1.6c0.2,0.6,0.4,0.7,1,0.4C134.2,63,134.1,62.9,134,62.9
				L134,62.9z"/>
		</g>
	</g>
	<g>
		<g>
			<path class="st7" d="M134.9,53.7c0.9,1.4,1.3,3.3,1.2,5c-0.1,0.9-0.4,1.9-0.9,2.7c-0.3,0.5-1.1,1.2-1.5,1.8
				c-0.1,0.1,0.1,0.2,0.1,0.1c1.5-0.6,2.5-3,2.7-4.6C136.9,56.8,136.2,55.2,134.9,53.7C135,53.6,134.9,53.7,134.9,53.7L134.9,53.7z"
				/>
		</g>
	</g>
	<g>
		<g>
			<path class="st7" d="M134.5,56.7c0.4-1.1,1.5-3.9,0-4.6c-1.4-0.7-3.4,0.3-4.4,1.3c0,0.1,0,0.1,0.1,0.1c0.8-0.7,2.6-1.3,3.8-1
				C135.6,52.8,134.7,55.7,134.5,56.7C134.4,56.7,134.5,56.7,134.5,56.7L134.5,56.7z"/>
		</g>
	</g>
	<g>
		<g>
			<path class="st7" d="M134,52.1c-0.8-0.5-1.5-0.9-2.3-1.3c-0.9-0.5-1.5-1.2-2.2-1.8c0,0-0.1,0-0.1,0.1c0.7,0.8,1.5,1.4,2.2,2.1
				c0.6,0.6,1.4,1,2.3,1.2C134,52.3,134.1,52.1,134,52.1L134,52.1z"/>
		</g>
	</g>
	<g>
		<g>
			<path class="st7" d="M133.8,52c-1-3.2,0.6-4.6-0.6-7c-0.5-1.1-2.6-3-3.5-3.8c-2.3-2-6.1-2.3-9-2.4c-5.6-0.3-11.9,5.4-12.7,10.8
				c0,0.1,0.1,0.1,0.1,0c2.5-6.5,8.1-11.2,15.2-10.2c3.4,0.5,6,1.6,8.1,4.5c1.9,2.7,1.1,5.2,2.2,8.2C133.7,52.1,133.8,52,133.8,52
				L133.8,52z"/>
		</g>
	</g>
	<g>
		<g>
			<path class="st7" d="M125.6,51.3c-0.3-1-1.1-1.8-2.2-1.5c-0.5,0.1-0.9,0.5-1.3,0.9c-0.3,0.3-0.7,0.7-0.8,1.1c0,0.1,0,0.1,0.1,0.1
				c0.5-0.1,0.9-0.6,1.2-1c0.5-0.4,1-0.7,1.7-0.6c0.5,0.1,0.9,0.7,1.2,1C125.6,51.4,125.7,51.4,125.6,51.3L125.6,51.3z"/>
		</g>
	</g>
	<g>
		<g>
			<path class="st7" d="M130.8,49.2c0.1-0.6,0.5-1.5,1.3-1c0.2,0.1,0.4,0.3,0.6,0.5c0.2,0.2,0.4,0.2,0.6,0.4c0,0,0.1,0,0.1,0
				c0-0.4,0-0.7-0.3-1c-0.3-0.3-0.7-0.4-1.1-0.5c-0.9,0-1.3,0.8-1.3,1.6C130.6,49.3,130.8,49.3,130.8,49.2L130.8,49.2z"/>
		</g>
	</g>
	<g>
		<g>
			<path class="st7" d="M133.6,62.9c-1.6,0.7-2.4,2.1-3.7,3.2c-1.7,1.5-3.9,0.5-5.5,1.6c-2.1,1.5-1.4,6.3-1.4,8.3
				c0,0.1,0.1,0.1,0.1,0c0.2-2.7-0.4-8,3.2-8.2c1.3-0.1,2.5-0.2,3.5-1c1.5-1.1,2.1-2.9,3.8-3.8C133.8,63,133.7,62.8,133.6,62.9
				L133.6,62.9z"/>
		</g>
	</g>
	<g>
		<g>
			<path class="st7" d="M122.8,80.1c1.9,4-0.2,8.4,1.7,12.4c0,0,0.1,0,0.1,0c-1.2-2.9,0-5.4,0-8.3C124.6,82.6,124.2,81,122.8,80.1
				C122.8,80,122.8,80.1,122.8,80.1L122.8,80.1z"/>
		</g>
	</g>
	<g>
		<g>
			<path class="st7" d="M124.5,92.6c-1.2-0.9-1.7-2.1-2-3.5c0-0.2-0.3-0.1-0.3,0.1C122.4,90.6,123.4,91.8,124.5,92.6
				C124.5,92.6,124.5,92.6,124.5,92.6L124.5,92.6z"/>
		</g>
	</g>
	<g>
		<g>
			<path class="st7" d="M122.1,89.2c0.1,2.9,0.7,5.8-0.1,8.7c-0.6,2.1-1.9,3.8-2.7,5.9c-0.8,2.1-1,4.3,0.8,5.8
				c0.1,0.1,0.2,0,0.1-0.1c-2.6-4,1-7.3,2.2-10.8C123.6,95.6,123.2,92.2,122.1,89.2C122.2,89.1,122.1,89.1,122.1,89.2L122.1,89.2z"
				/>
		</g>
	</g>
	<g>
		<g>
			<path class="st7" d="M120.3,109.4c-2.4-0.2-2.6-3.5-2.5-5.3c0-0.2-0.3-0.2-0.3,0c-0.4,2,0.5,5.4,2.9,5.6
				C120.4,109.6,120.4,109.4,120.3,109.4L120.3,109.4z"/>
		</g>
	</g>
	<g>
		<g>
			<path class="st7" d="M117.7,104.3c-1.4,3.1-4.2,6.1-3.6,9.7c0,0.1,0.2,0.1,0.1,0C113.5,110.2,117.2,107.9,117.7,104.3
				C117.7,104.3,117.7,104.3,117.7,104.3L117.7,104.3z"/>
		</g>
	</g>
	<g>
		<g>
			<path class="st7" d="M114.2,114c-0.8-2.1-0.9-4.2-0.3-6.4c0.3-1.2,0.9-2.4,0.8-3.8c0-0.1-0.2-0.2-0.3,0
				C113.7,107.6,112.6,110.4,114.2,114C114.1,114.1,114.2,114.1,114.2,114L114.2,114z"/>
		</g>
	</g>
	<g>
		<g>
			<path class="st7" d="M114,105.6c-1.1,1.4-3.2,1.7-4.7,2.7c-0.9,0.6-2.3,1.7-2.4,2.9c0,0.1,0.1,0.1,0.1,0c1-1.4,2.2-2.5,3.8-3.3
				c1.2-0.6,2.8-0.8,3.4-2.2C114.3,105.6,114.1,105.5,114,105.6L114,105.6z"/>
		</g>
	</g>
	<g>
		<g>
			<path class="st7" d="M110.6,97.1c-3,4.9-4.1,10.6-4.3,16.3c-0.2,3.4-0.9,9.2,1.4,12.2c0.2,0.2,0.4-0.1,0.3-0.3
				c-1.9-4.1-1.1-8.4-0.8-12.8C107.6,107.1,108.4,102.1,110.6,97.1C110.7,97.1,110.6,97,110.6,97.1L110.6,97.1z"/>
		</g>
	</g>
	<g>
		<g>
			<path class="st7" d="M109.6,108.5c-1.9,4.5-1.7,10-0.3,14.6c0.1,0.2,0.3,0.1,0.3,0C109,118,109.1,113.5,109.6,108.5
				C109.7,108.4,109.6,108.4,109.6,108.5L109.6,108.5z"/>
		</g>
	</g>
	<g>
		<g>
			<path class="st7" d="M98.9,100.4c-1.7,0.4-2.8,1.7-3.7,3.2c-0.7,1.3-1.3,3.6-2.7,4.3c-0.1,0,0,0.2,0.1,0.1
				c1.3-0.3,1.8-1.7,2.3-2.8C95.8,103.2,96.8,101.3,98.9,100.4C98.9,100.4,98.9,100.3,98.9,100.4L98.9,100.4z"/>
		</g>
	</g>
	<g>
		<g>
			<path class="st7" d="M97.9,105.5c-0.9-0.5-1.7-0.1-2.4,0.5c-0.5,0.4-0.9,0.8-1.4,1.2c-0.6,0.5-0.9,0.5-1.6,0.5
				c-0.1,0-0.2,0.1-0.1,0.2c0.5,0.7,1.6-0.1,2-0.5C95.4,106.6,96.4,105.1,97.9,105.5C97.9,105.6,97.9,105.6,97.9,105.5L97.9,105.5z"
				/>
		</g>
	</g>
	<g>
		<g>
			<path class="st7" d="M97.9,105.5c-3.3,0.1-2.5,3.8-2.1,6.3c0.8,5.8,4.3,10.9,2,16.8c0,0.1,0.1,0.2,0.2,0.1c1.2-2.3,1.3-4.5,0.8-7
				C98.4,118.7,93.2,106.8,97.9,105.5C98,105.6,98,105.5,97.9,105.5L97.9,105.5z"/>
		</g>
	</g>
	<g>
		<g>
			<path class="st7" d="M100.1,125.1c-0.3,0.6-0.5,1.3-0.8,1.9c-0.4,0.7-0.8,1.2-1.5,1.6c-0.1,0.1,0,0.3,0.1,0.3
				C99.3,128.3,100.1,126.4,100.1,125.1C100.2,125,100.2,125,100.1,125.1L100.1,125.1z"/>
		</g>
	</g>
	<g>
		<g>
			<path class="st7" d="M103.1,59.1c-11.7,4.7-23.2,5.9-35.7,6c-7.5,0.1-21.2-1.8-25.9,6.1c-0.1,0.2,0.1,0.4,0.3,0.2
				c5.2-5.3,10.7-5.4,17.6-5.5c6-0.1,12,0.1,17.9-0.2c8.9-0.4,18.1-1.6,26-6.1C103.6,59.5,103.4,59,103.1,59.1L103.1,59.1z"/>
		</g>
	</g>
	<g>
		<g>
			<path class="st7" d="M61.2,89.8c0.7,3.1,1.3,6.2,1.3,9.4c0,0.2,0.2,0.1,0.2,0c0.3-3.3,0-6.5-1.5-9.5
				C61.3,89.7,61.2,89.8,61.2,89.8L61.2,89.8z"/>
		</g>
	</g>
	<g>
		<g>
			<path class="st7" d="M62.7,99.3c-0.3-1.3-0.8-2.7-1.7-3.9c-0.1-0.1-0.2,0-0.2,0.1C61.5,96.7,62.2,97.9,62.7,99.3
				C62.7,99.3,62.7,99.3,62.7,99.3L62.7,99.3z"/>
		</g>
	</g>
	<g>
		<g>
			<path class="st7" d="M60.9,95.4c0.4,2.5-1.5,4.4-1.8,6.8c-0.2,1.7,0,3.4,1,4.8c0.1,0.1,0.2,0,0.2-0.1c-0.8-3.1-0.9-5.1,0.3-8.1
				c0.5-1.3,0.8-2.2,0.5-3.5C61.1,95.2,60.9,95.3,60.9,95.4L60.9,95.4z"/>
		</g>
	</g>
	<g>
		<g>
			<path class="st7" d="M60.2,106.7c-1.4-2.8-1.4-5.7-1.5-8.8c0-0.1-0.2-0.1-0.2,0C57.8,100.9,58.8,104,60.2,106.7
				C60.1,106.8,60.2,106.8,60.2,106.7L60.2,106.7z"/>
		</g>
	</g>
	<g>
		<g>
			<path class="st7" d="M59.1,96.2c-1.9,3.9-3.5,9.5-7.6,11.8c-3.7,2.1-7.8,1.3-11.1,4.4c-3,2.9-7.2,11.4-2.2,14.3
				c0.3,0.2,0.5-0.3,0.3-0.4c-3.5-2.1-1.1-8.3,0.5-10.6c1.2-1.8,2.9-3.4,4.8-4.4c2.7-1.4,6-1.2,8.6-2.8c3.9-2.4,5.8-7.9,7-12.1
				C59.5,96.1,59.2,96,59.1,96.2L59.1,96.2z"/>
		</g>
	</g>
	<g>
		<g>
			<path class="st7" d="M40.7,120.2c0.4-3.9,2.8-7.7,6.1-9.8c0.4-0.3,0.1-1-0.4-0.7C42.5,111.9,40.6,115.7,40.7,120.2
				C40.7,120.2,40.7,120.2,40.7,120.2L40.7,120.2z"/>
		</g>
	</g>
	<g>
		<g>
			<path class="st7" d="M37.6,126.4c1.2,0.9,2.5,0.9,3.9,1c2.8,0.3,3.5,2,3.8,4.5c0,0.3,0.4,0.3,0.5,0.1c0.6-1.6,0.1-3.6-1.3-4.6
				c-2-1.4-4.6-0.3-6.7-1.3C37.6,126.1,37.5,126.3,37.6,126.4L37.6,126.4z"/>
		</g>
	</g>
	<g>
		<g>
			<path class="st7" d="M45,131.7c-0.7,0.5-1.5,0.9-2.3,0.7c-0.6-0.1-1-0.7-1.6-0.5c-0.1,0-0.1,0.1-0.1,0.2
				c-0.1,0.8,1.3,1.2,1.9,1.2c1,0.1,1.9-0.5,2.7-1.1C45.8,131.8,45.3,131.4,45,131.7L45,131.7z"/>
		</g>
	</g>
	<g>
		<g>
			<path class="st7" d="M41.4,132.2c-2.2,0.9-4.1,0.2-6.2-0.1c-2.4-0.4-4.7,0.1-6.2-2.3c-0.2-0.3-0.7,0-0.5,0.3
				c1.3,2.9,4.7,2.4,7.3,2.9c1.9,0.4,4.4,1.1,5.8-0.7C41.5,132.2,41.4,132.1,41.4,132.2L41.4,132.2z"/>
		</g>
	</g>
	<g>
		<g>
			<path class="st7" d="M40,99.5c-1.1,0.6-2.1,1.3-3.4,1.5c-1.3,0.3-2.4,0-3.7-0.1c-0.1,0-0.2,0.2-0.1,0.2
				C35,102.3,38.7,101.4,40,99.5C40.1,99.5,40.1,99.5,40,99.5L40,99.5z"/>
		</g>
	</g>
	<g>
		<g>
			<path class="st7" d="M37.8,102.8c-0.8-0.1-1.6-0.1-2.5-0.4c-0.9-0.4-1.6-1-2.3-1.6c-0.1-0.1-0.2,0-0.2,0.1c0.8,1.5,3.3,2.7,4.9,2
				C37.9,103,37.9,102.9,37.8,102.8L37.8,102.8z"/>
		</g>
	</g>
	<g>
		<g>
			<path class="st7" d="M38.6,101.9c-2.6,2.4-8.1,5.3-9.4,8.6c-0.7,1.9,0,4.5,0.2,6.4c0.3,4.4,0.1,8.6-0.8,12.9
				c-0.1,0.4,0.5,0.6,0.6,0.2c1.2-5.9,0.1-11.7,0.9-17.6c0.4-3.4,1.8-3.7,4.4-5.9C36,105.1,37.5,103.8,38.6,101.9
				C38.6,101.9,38.6,101.9,38.6,101.9L38.6,101.9z"/>
		</g>
	</g>
	<g>
		<g>
			<path class="st7" d="M42.9,69.4c-4,1.6-7.4,4.4-9.9,7.8c-3.6,4.8-4,10.3-6.1,15.7c-3.8,9.9-15.8,18.2-10.6,30
				c0,0.1,0.2,0,0.2-0.1c-3.7-11.2,6.4-19,10.6-28.2c2-4.5,2.5-9.5,4.7-14c2.4-5,6.4-8.5,11.2-11.1C43,69.5,43,69.3,42.9,69.4
				L42.9,69.4z"/>
		</g>
	</g>
	<g>
		<g>
			<path class="st7" d="M16.6,122.7c-0.2-1.4-0.3-2.6,0.1-4c0.4-1.5,1.3-2.5,2.3-3.6c0.1-0.1,0-0.3-0.2-0.2
				C16.3,116.3,15.3,120.3,16.6,122.7C16.5,122.8,16.6,122.7,16.6,122.7L16.6,122.7z"/>
		</g>
	</g>
	<g>
		<g>
			<path class="st7" d="M17.9,115.9c-0.8,1-0.7,2-0.2,3.1c0.7,1.6,1.8,2.9,1.9,4.8c0.1,2.2-0.9,3.9-2.2,5.5c-0.1,0.1,0,0.3,0.2,0.2
				c1.6-1,2.5-2.7,2.7-4.5c0.1-1.1,0-2.2-0.4-3.3C19.2,119.9,16.9,118.2,17.9,115.9C18,115.9,18,115.8,17.9,115.9L17.9,115.9z"/>
		</g>
	</g>
	<g>
		<g>
			<path class="st7" d="M29.1,127c-0.9,0.7-1.5,1.4-2.7,1.7c-1.1,0.3-2.1,0-3.2-0.1c-0.2,0-0.3,0.3-0.1,0.4c2.1,0.7,5.1,0.4,6.1-1.8
				C29.3,127,29.2,126.9,29.1,127L29.1,127z"/>
		</g>
	</g>
	<g>
		<g>
			<path class="st7" d="M28.2,121c-1,2.3-1.6,4.3-3.6,6c-2.1,1.8-4.7,2.6-7.4,2.5c-0.2,0-0.3,0.4-0.1,0.4
				C22.4,130.6,28.3,126.7,28.2,121C28.3,121,28.3,121,28.2,121L28.2,121z"/>
		</g>
	</g>
	<g>
		<g>
			<path class="st7" d="M39.8,119.7c1.1,0.9,2.6,1,4,1.2c1.3,0.2,2.7,0.5,3.4,1.7c0.6,1,0.4,1.9,0.4,3c0,0.1,0.2,0.3,0.3,0.1
				c1.1-1.3,0.3-3.6-0.9-4.6C45.1,119.6,42.1,120.5,39.8,119.7C39.8,119.6,39.8,119.6,39.8,119.7L39.8,119.7z"/>
		</g>
	</g>
	<g>
		<g>
			<path class="st7" d="M48,125.1c-0.6,0.3-0.9,0.8-1.6,1c-0.7,0.1-1.1-0.2-1.7-0.2c-0.9-0.1-1.8,0.5-2.5,0.9
				c-0.3,0.1-0.1,0.5,0.1,0.5c0.8,0.1,1.4-0.7,2.1-0.6c0.6,0,1.1,0.4,1.8,0.3C47,126.8,48.4,126.1,48,125.1
				C48,125.1,48,125.1,48,125.1L48,125.1z"/>
		</g>
	</g>
	<g>
		<g>
			<path class="st7" d="M106.6,124.8c1.1,1.2,2.5,1.3,3.8,2c0.8,0.5,1.7,1,2.4,1.8c0.4,0.5,0.8,1,0.8,1.7c0.1,1.1-0.5,1.3-1.3,1.6
				c-0.3,0.1-0.3,0.5,0.1,0.5c2.2,0,2.8-2,1.6-3.7c-0.8-1.1-2-1.6-3.2-2.2C109.4,125.8,107.8,125.8,106.6,124.8
				C106.7,124.6,106.6,124.7,106.6,124.8L106.6,124.8z"/>
		</g>
	</g>
	<g>
		<g>
			<path class="st7" d="M113.5,131.5c-1.4,0.6-3.1,0.7-4.6,0.6c-1.7-0.1-3-0.8-4.6-1c-1.4-0.2-3,0.7-3.9-1.2c-0.4-1-0.3-2.3-0.7-3.4
				c0-0.1-0.1-0.1-0.1,0c-0.5,2.5-0.6,5.6,2.6,5.7c1.2,0,2.2-0.1,3.3,0.2c1,0.2,1.9,0.5,2.9,0.5c1.9,0.1,3.6-0.2,5.1-1.3
				C113.8,131.7,113.6,131.4,113.5,131.5L113.5,131.5z"/>
		</g>
	</g>
	<g>
		<g>
			<path class="st7" d="M109.1,123.4c1.7,0.4,3.6,0.7,5,1.9c0.7,0.6,1,1.4,1,2.3c0,0.4,0.1,1-0.1,1.3c-0.2,0.3-0.6,0.4-0.9,0.5
				c-0.3,0.2-0.2,0.7,0.2,0.7c0.8,0,1.4-0.2,1.5-1c0.2-1,0-2.4-0.5-3.2c-1.2-2.2-4-2.5-6.2-2.9C108.9,123,108.8,123.3,109.1,123.4
				L109.1,123.4z"/>
		</g>
	</g>
	<g>
		<g>
			<path class="st7" d="M94.9,104c-6.8-4.1-14.9-3-21.2-8.5c-0.1-0.1-0.3,0.1-0.2,0.2c5.2,6,14.3,6.1,21.2,8.9
				C95,104.7,95.2,104.2,94.9,104L94.9,104z"/>
		</g>
	</g>
	<g>
		<g>
			<path class="st7" d="M75.2,97.1c1.5,1.5,1.3,3.2,0.9,5c0,0.2,0.2,0.2,0.3,0.1c1.3-1.7,0.6-4.2-0.9-5.4
				C75.2,96.8,75.1,97,75.2,97.1L75.2,97.1z"/>
		</g>
	</g>
	<g>
		<g>
			<path class="st7" d="M76.3,102.2c0-2.2-1.4-4.2-3.4-5c-3.3-1.4-6.9-2.3-10.2-3.6c-0.6-0.2-0.8,0.7-0.2,0.9c2.4,1,5,1.6,7.4,2.4
				c2.7,0.8,6.1,1.7,6.3,5.3C76.1,102.3,76.3,102.3,76.3,102.2L76.3,102.2z"/>
		</g>
	</g>
	<g>
		<g>
			<path class="st7" d="M105.8,128.3c1,0.4,1.9,1.3,2,2.3c0,0.2,0.3,0.9,0.1,1.1c-0.2,0.2-0.9,0.1-1.1,0.2c-0.4,0.2-0.3,0.8,0.1,0.9
				c0.5,0.1,1.4,0,1.8-0.4c0.4-0.5,0.2-1.2,0-1.7C108.2,129.5,107.2,128.4,105.8,128.3C105.8,128.2,105.8,128.3,105.8,128.3
				L105.8,128.3z"/>
		</g>
	</g>
	<g>
		<g>
			<path class="st7" d="M110.2,125c0.9,0.1,1.8,0.7,2.6,1.3c0.8,0.7,1,1.7,1,2.7c0,0.4,0.5,0.4,0.6,0.1
				C115.1,126.6,112.4,125.2,110.2,125C110.2,125,110.2,125,110.2,125L110.2,125z"/>
		</g>
	</g>
	<g>
		<g>
			<path class="st7" d="M37.5,128.6c0.7,0.5,1.6,0.7,2.2,1.4c0.5,0.6,1.1,1.5,0.9,2.3c0,0.2,0.1,0.3,0.3,0.4c0,0,0.1,0,0.1,0
				c0.1,0,0.3-0.1,0.4-0.2c0.6-0.9-0.4-1.9-1.1-2.5C39.6,129.4,38.5,128.4,37.5,128.6C37.5,128.6,37.5,128.6,37.5,128.6L37.5,128.6z
				"/>
		</g>
	</g>
	<g>
		<g>
			<path class="st7" d="M40.1,122.9c0.9,0.3,2,0.6,2.6,1.4c0.2,0.3,0.4,0.7,0.5,1.1c0.1,0.4,0,0.7,0.2,1c0.1,0.2,0.4,0.2,0.5,0.1
				c0.8-0.6,0-2-0.6-2.5C42.4,123.2,41.2,123,40.1,122.9C40.1,122.8,40.1,122.8,40.1,122.9L40.1,122.9z"/>
		</g>
	</g>
	<g>
		<g>
			<path class="st7" d="M40.8,128.1c1.1,0.1,1.9,0.4,2.4,1.4c0.4,0.8,0.3,1.8,0.2,2.7c-0.1,0.6,0.9,0.6,0.9,0c0-1.2-0.1-2.4-1-3.4
				C42.8,128.2,41.7,127.8,40.8,128.1C40.7,128,40.7,128.1,40.8,128.1L40.8,128.1z"/>
		</g>
	</g>
	<g>
		<g>
			<path class="st7" d="M107.7,127.1c1.2,0.2,2.2,0.8,3,1.8c0.6,0.7,1.4,2,0.9,3c-0.3,0.6,0.6,1,0.8,0.4
				C113.4,129.7,110,126.9,107.7,127.1C107.6,127,107.6,127.1,107.7,127.1L107.7,127.1z"/>
		</g>
	</g>
	<g>
		<g>
			<path class="st7" d="M42.8,121.5c1.1,0.1,2.2,0.3,3,1.2c0.8,0.9,0.8,2.1,0.7,3.2c-0.1,0.6,0.9,0.6,0.9,0c0-1.4-0.1-2.7-1.2-3.6
				C45.2,121.6,43.9,121.2,42.8,121.5C42.7,121.4,42.7,121.5,42.8,121.5L42.8,121.5z"/>
		</g>
	</g>
	<g>
		<g>
			<path class="st7" d="M108.9,47.3c0.1,0,0.1-0.1,0.2-0.1c0,0,0,0,0,0C109,47.3,109,47.3,108.9,47.3
				C108.9,47.3,108.9,47.4,108.9,47.3L108.9,47.3z"/>
		</g>
	</g>
	<g>
		<g>
			<path class="st7" d="M115.6,46.2c-1.4,1.5-1.7,3.4-1,5.4c0.6,1.7,1.7,3.2,2.5,4.7c1,2,1.4,4.1,1.4,6.3c0,3.5-1,7.1-2.9,10
				c-1,1.5-2.6,3.6-1.8,5.5c0,0.1,0.1,0,0.1,0c-0.5-2.7,2.4-4.8,3.5-7c1.1-2.3,1.7-4.8,1.7-7.3c0-2.6-0.6-5.2-1.6-7.6
				c-1.3-3-3.7-6.6-1.7-9.9C115.8,46.2,115.7,46.1,115.6,46.2L115.6,46.2z"/>
		</g>
	</g>
	<g>
		<g>
			<path class="st7" d="M106,52.3c-0.9,4.8-4.5,8.3-6.1,12.7c-2,5.7-1.2,12,3.1,16.5c0.1,0.1,0.2,0,0.2-0.1
				c-1.9-2.9-3.8-6.2-3.7-9.9c0.1-3,1.1-6.2,2.4-8.9c1.7-3.5,3.8-6.2,4.2-10.2C106.2,52.3,106,52.3,106,52.3L106,52.3z"/>
		</g>
	</g>
	<g>
		<g>
			<path class="st7" d="M103.5,72c-2.6,2.7-2.7,6.5-0.5,9.5c0,0.1,0.2,0,0.1-0.1C101.5,78.4,101.7,74.9,103.5,72
				C103.5,72,103.5,72,103.5,72L103.5,72z"/>
		</g>
	</g>
	<g>
		<g>
			<path class="st7" d="M103.5,72c-1.3,1.5-1.7,3.4-0.9,5.2c0.6,1.4,1.5,2.6,2.3,3.9c1,1.8,1.1,3.6,1,5.6c0,0.1,0.1,0.1,0.1,0
				c0.4-1.8,0.4-3.7-0.4-5.3C104.1,78.5,101.9,75.4,103.5,72C103.6,72,103.5,72,103.5,72L103.5,72z"/>
		</g>
	</g>
	<g>
		<g>
			<path class="st7" d="M108,72.8c-0.7,1.7-0.2,3.8,0.2,5.5c0.2,1,0.6,2.1,0.6,3.2c-0.1,2.1-1.6,3.7-2.8,5.1c-0.1,0.1,0,0.2,0.1,0.1
				c1.9-1,3.5-3.5,3.4-5.7C109.4,78.2,107.5,75.7,108,72.8C108,72.7,108,72.7,108,72.8L108,72.8z"/>
		</g>
	</g>
	<g>
		<g>
			<path class="st7" d="M118.9,62.8c-0.7,2.9,0.7,4.9,1.5,7.6c0.8,3,2,7.2,4.8,8.9c0.1,0.1,0.2-0.1,0.1-0.2c-2.7-3-3-6.3-4.2-9.9
				c-0.3-0.8-0.7-1.4-1-2.2C119.4,65.8,119.3,64.4,118.9,62.8C119,62.8,118.9,62.8,118.9,62.8L118.9,62.8z"/>
		</g>
	</g>
	<g>
		<g>
			<path class="st7" d="M119.1,74c0.5,5.8-1.7,10.4-7.1,12.9c-0.1,0,0,0.2,0.1,0.2C117.9,86.2,121.3,79.3,119.1,74
				C119.1,74,119.1,74,119.1,74L119.1,74z"/>
		</g>
	</g>
	<g>
		<g>
			<path class="st7" d="M112,87.1c3-3.5-2.8-7.1-3.4-10.2c0-0.1-0.3-0.1-0.3,0c0.1,1.3,0.4,2.4,1.2,3.5c1.5,1.9,3.9,4,2.3,6.6
				C111.7,87.1,111.9,87.2,112,87.1L112,87.1z"/>
		</g>
	</g>
	<g>
		<g>
			<path class="st7" d="M125.2,79.2c-1.4-0.5-3-0.7-4.2-1.8c-0.5-0.4-0.9-1-1.2-1.5c-0.3-0.6-0.3-1.4-0.6-2c0-0.1-0.1-0.1-0.1,0
				c-0.4,1.2,0.1,3.2,1.1,4C121.5,78.9,123.7,79.5,125.2,79.2C125.3,79.3,125.3,79.3,125.2,79.2L125.2,79.2z"/>
		</g>
	</g>
	<g>
		<g>
			<path class="st7" d="M111.6,49.9c-0.7,1.6-0.9,3.2-0.6,4.9c0.4,2.1,1.4,4.3,0.8,6.4c-0.3,1.1-1.2,1.9-1.7,2.9
				c-0.7,1.3-1.2,2.8-1.2,4.3c0,0.1,0.1,0.1,0.1,0c0.5-1.6,0.8-3.1,1.7-4.6c0.5-0.8,1.1-1.4,1.4-2.3C113.5,57.6,109.8,54,111.6,49.9
				C111.7,49.9,111.6,49.8,111.6,49.9L111.6,49.9z"/>
		</g>
	</g>
	<g>
		<g>
			<path class="st7" d="M136,60.1c0.3,2.3,1.4,4.5,3.3,5.9c0.1,0,0.1,0,0.1-0.1c-1.3-1.8-2.3-3.7-3.1-5.8
				C136.2,59.9,136,60,136,60.1L136,60.1z"/>
		</g>
	</g>
	<g>
		<g>
			<path class="st7" d="M135.4,63.9c0.9,3.1,1.1,6.4,0.4,9.6c-0.7,3.1-2.4,5.2-4.4,7.6c-0.1,0.1,0,0.3,0.1,0.2
				C137.1,77.4,138.2,69.5,135.4,63.9C135.5,63.8,135.4,63.8,135.4,63.9L135.4,63.9z"/>
		</g>
	</g>
	<g>
		<g>
			<path class="st7" d="M131.8,81.2c0.6-1.9,0.7-4.8-1.2-5.9c-0.1-0.1-0.2,0-0.2,0.1c0.7,2,1.7,3.5,1.1,5.7
				C131.5,81.3,131.8,81.4,131.8,81.2L131.8,81.2z"/>
		</g>
	</g>
	<g>
		<g>
			<path class="st7" d="M139.3,65.8c-1.5,0-2.5-1.1-3.6-2c-0.1-0.1-0.2,0-0.2,0.1c0.3,1.6,2.3,2.2,3.8,2
				C139.4,66,139.4,65.8,139.3,65.8L139.3,65.8z"/>
		</g>
	</g>
	<g>
		<g>
			<path class="st7" d="M130.5,75.6c0.5,1.7-0.4,3.1-0.6,4.8c-0.2,1.3,0,2.7,0.7,3.9c0.1,0.1,0.2,0,0.2-0.1
				c-0.4-1.1-0.6-2.1-0.5-3.2c0.1-1.1,0.7-1.9,1-2.9c0.3-1,0.3-1.9-0.4-2.7C130.7,75.2,130.5,75.4,130.5,75.6L130.5,75.6z"/>
		</g>
	</g>
	<g>
		<g>
			<path class="st7" d="M130.6,84c-3.1-0.8-5.5-2.2-7.6-4.6c-0.1-0.1-0.2,0-0.2,0.1c1.2,3.1,4.6,4.6,7.8,4.7
				C130.6,84.2,130.7,84,130.6,84L130.6,84z"/>
		</g>
	</g>
	<g>
		<g>
			<path class="st7" d="M124,82c-0.2-0.6-0.4-1.2-0.6-1.8c-0.2-0.4-0.2-1-0.7-1.3c-0.1-0.1-0.2,0-0.3,0.1c-0.2,0.5,0.2,1.1,0.4,1.5
				c0.3,0.6,0.6,1.1,1,1.6C123.9,82.2,124,82.1,124,82L124,82z"/>
		</g>
	</g>
	<g>
		<g>
			<path class="st7" d="M109,47.2c-1.3,1.3-2.7,2.8-2.9,4.7c-0.4,3.1,2.1,5.5,1.4,8.6c0,0.1,0.1,0.1,0.1,0c0.7-1.8,0.1-3.4-0.5-5.2
				C106,52.1,107.1,49.8,109,47.2C109.1,47.2,109,47.1,109,47.2L109,47.2z"/>
		</g>
	</g>
</g>
</svg>
