<?xml version="1.0" encoding="utf-8"?>
<!-- Generator: Adobe Illustrator 22.1.0, SVG Export Plug-In . SVG Version: 6.00 Build 0)  -->
<svg version="1.1" id="Card_1" xmlns="http://www.w3.org/2000/svg" xmlns:xlink="http://www.w3.org/1999/xlink" x="0px" y="0px"
	 viewBox="0 0 155.9 155.9" style="enable-background:new 0 0 155.9 155.9;" xml:space="preserve">
<style type="text/css">
	.st0{clip-path:url(#SVGID_2_);}
	.st1{fill:#FFFFFF;}
	.st2{fill:#B46B34;}
	.st3{fill:#C4BEB9;}
	.st4{fill:#D77A38;}
	.st5{clip-path:url(#SVGID_4_);}
	.st6{fill:#281613;}
	.st7{fill:#262320;}
	.st8{fill:#010202;}
</style>
<g id="Colours">
	<g>
		<defs>
			<path id="SVGID_1_" d="M105.3,136c0.5-0.6,0.5-1.5,0.1-2.2s-1.1-1.2-1.8-1.5c-0.7-0.4-1.5-0.6-2.1-1c-0.7-0.4-1.3-1-1.5-1.8
				c1.9,0.9,4.8,1.3,6,1.3c1.7,0,2.8-0.6,1.7-3.5c-2.1-2.7-5.4-2.1-6.3-3.2c-0.1-6.4-0.2-7.5,0.3-11.2c0.1-0.8,1.4-3.1,2.5-4.4
				c0.2-0.3,0.8,0.4,0.9,0c0.3-2-0.1-5,0.4-6c0.9-1.8,1.7-0.2,2.4-2c0.5,0.5,0.4,1.9,0.5,2c0.9-1.9,2.9-2.8,3.5-5
				c0.5-2,3.6-2.9,5-4.4c1.3-1.6,2-3.5,3.3-5c1.1-1.4,2.6-2.8,3.3-4.5c0.2,0.6,0.2,1.3,0.3,1.8c1.6-3.9,4.5-9.9,3-14.3
				c-0.5-2.1,0.9-4,0.2-6.1c0.7,2.5,1.2,5.5,1.2,8.1c1.2-5.1,1.3-10.4,0.4-15.6c1.3,2,2.3,4.1,3.1,6.4v-0.1
				c-0.3-4.7-1.3-9.4-2.8-13.9l0.1-0.1c1.6,1.6,2.8,3.9,3.2,6.1c-0.3-2.9-1.4-5.8-2.4-8.5c-0.9-2.2-1.9-3.8-2.6-4.7
				c-0.7-1-1.4-1.6-2.5-1.7c-1-0.2-2.1,0.1-3.1,0.4c-4.2,1.4-7.3,4.9-9.1,8.9c-2-0.7-2.6-0.5-4.7-0.5c-1.9,0-2.9-0.1-4.6,0.8
				c-2.2-2.5-4.8-4.6-7.5-6.4C94.9,43.7,94,43.1,93,43c-1-0.1-2.1,0.5-2.8,1s-2.1,3.6-2.8,5.8c-0.2,0.7-0.6,3.5-0.7,4.3
				c0.4-1.2,1.6-4.7,2.5-5.6c-1.4,3.6-2.2,7.5-2.8,11.4c0-0.4,0.4-1.3,0.6-1.6c1.1-1.7,1.4-2.2,2.8-3.5c-1.3,3.9-3.6,8.7-3.5,12.8
				c1.1-3.7,2.7-5.6,4-6.3c-0.9,1.1-2.3,4.8-3.4,8.4c0.8-1.3,2.1-2.7,3.5-3.5c-1.6,2.1-2.4,4.5-2.6,7.1c-2.1,0-8.6-1-10.3-1.1
				c-1.6-0.1-6.7-0.2-8.3-0.1c0.2-6.2-9.9-18.9-18.1-10.1c0.4-3,1.9-5.8,6.6-8.7c-4.9,0.8-7.8,3.8-9,7.5c-0.9-4.6-3.9-8.1-8.2-10.1
				c2.8,2.8,5.1,7.3,5.9,11.1c-0.7-1-1.4-1.9-2.1-3c-1.7-2.3-3.4-4.7-5.9-6c2.1,2.1,3.5,4.7,4.4,7.6c-0.7-0.8-2-1.4-3-1.8
				c-1.1-0.4-2.4-0.8-3.6-0.7c-1.2,0.1-2.5,0.8-3.1,1.9c1.3-0.6,2.6-0.5,3.8,0.1s2.4,1.8,3.2,2.8c-2.8-0.7-5.5,0.1-7.6,2.4
				c-1.1,1.3-1.8,3-1.9,4.7c1.2-1.4,2.6-2.9,4.3-3.6c2.1-0.9,4.8-0.4,6.5,1.1c-0.8-0.1-2.2,0.2-2.9,0.5c-1.6,0.6-3.2,1.2-4.5,2.3
				c-1.8,1.6-2.6,4.1-3.1,6.5c-0.6,2.4-0.9,5-0.5,7.4c0.5-1.8,1.2-3.7,2-5.3c-0.6,1.4-0.7,3-0.6,4.5c0.3,3.5,1.7,8.5,2.9,11.8
				c-0.3,2.4-0.2,5,0.4,7.4c0.1-0.4,0.3-0.7,0.4-1.1c1.1,3.8,0.8,8-0.8,11.6c0.2,0.1,0.4,0,0.4-0.2c0.7,1.5,0,2.7,0.2,4.3
				c0.5,4.8,0.9,9.2,0.6,14c0,0.5-0.1,1,0.1,1.5s0.5,0.9,1,1l3.3,1c1.2,0,3.7,0.5,5-0.1c1.7-0.7,0.2-3.1-0.1-3.4
				c-1-0.9-3.3-0.9-4-1.5c-0.6-1.3,0-4.4,0.1-6.1c0.1-1.4,0.1-1.2,0.5-2.4c0.4,1.5,0.2,3.2,1.9,3.6c1.2,0.3,3,0.7,4.5,0.4
				c1.7-0.4,2.2-1.5,1.7-3c-0.4-1.3-1.9-1.1-3-1.8c-0.5-1.2,0.5-2.2,0.3-3.7c0.8,0.1,0.8,0.1,1.4,0c2.8-0.6,4.7-3.5,6-5.7
				c0.4-0.6,0.7-1.2,1-1.8c0.1-0.1,0.4-0.9,0.4-1c0.3-0.2,0.7,0,0.7-0.1c0.6-0.5,0.5-1,1-1.5c0.6-0.8,0.7-0.4,1.5,0.2
				c0.3-0.7,0.7-1.9,1.2-2.4c0.2,0.6,0.3,1.3,0.6,1.9c0.4-0.8,0.4-2,0.6-2.9c1-1,2.7-0.3,3.7,0.2c1.2,0.5,2.4,0.3,3.6,0.7
				c1.3,0.5,2.4,1.3,3.7,1.7c1.5,0.4,2.3,2.5,3.7,2.8c0-0.2,0.2-0.5,0.2-0.7c1.1,0.2,1.9,2.2,3,2.7c0.6,0.3,1.2,0.3,1.9,0.7
				c0.5,0.3,1.1,1.1,1.3,0c0.3,0.2,0.6,0.5,0.9,0.9c0.3-0.5,0.5-1.3,0.7-1.9c0.8,1.5,1.3,2.6,2.6,3.7c0.1,0.6,0.6,3.2,0.5,4.5
				c0.2-0.3,0.7-0.7,0.9-1c0.2,2,2.2,9,3.3,10.8c0.4,0.6,0.8,1.2,1,1.8c0.2,0.7,0.2,1.6,0.6,2.3c0.5,0.9,1.4,1.4,2.3,1.9
				c2.1,1.1,4.4,2.2,6.8,2.4c1.1,0.1,2.4-0.1,3-1.1"/>
		</defs>
		<clipPath id="SVGID_2_">
			<use xlink:href="#SVGID_1_"  style="overflow:visible;"/>
		</clipPath>
		<g id="Base" class="st0">
			<rect x="25.5" y="28.7" class="st1" width="112.2" height="112.2"/>
			<path class="st2" d="M51.3,65.6c1.3-3,5.7-3.7,8.5-2.6c3.9,1.6,5.7,5.4,7,9.1c0.1,0.2-0.3,0.4-0.4,0.2c-2.7-5.5-7.7-11.8-14-6.7
				C52.2,65.8,51.2,65.8,51.3,65.6z"/>
			<g>
				<path class="st2" d="M49,66.5c0-2.3,0.8-4,1.6-6.1c-0.4,0.8-1.1,1.4-1.5,2.2c-0.3,0.7-0.6,1.4-0.9,2.1c-0.2,0.6-0.6,1.4-0.4,2.1
					C48.1,67.6,49.1,66.8,49,66.5z"/>
			</g>
			<g>
				<path class="st2" d="M43.1,59.9c1.4,1.1,2.6,3.1,3.4,4.7c0.4,0.9,0.8,1.7,0.7,2.7c0,0.2-0.1,1-0.2,1.1c-0.4,0.3-0.4-1.4-0.5-1.7
					c-0.2-0.8-0.5-1.5-0.7-2.3C45.4,62.9,44.1,61.1,43.1,59.9z"/>
			</g>
			<g id="Grey">
				<g>
					<path class="st3" d="M126.7,76.3c-0.3,2.2-2.7,4.6-3.7,6.5c0-0.3-0.2-0.7-0.2-1c-0.6,1.2-1.1,2.3-1.9,3.4
						c-0.7,1-1.2,3.6-2.2,4.3c-0.3-0.7-0.3-1.6-0.7-2.4c-1.1,2.2-1.4,4.3-3.5,5.9c-1.2,0.9-2,1.2-2.8,2.6c-0.6,1.1-1.9,1.2-2.5,2.3
						c-0.6,1.1-0.5,1.7-1.7,2.3c-1.1,0.5-1.9,0.6-2.6,1.6c-0.7,0.9-1.6,2.1-1.8,3.1c0,0.3,1.2,1,1.1,1.3c-0.1,0.6-1.2,0.3-1.4,0.9
						c0.5,0.7-1.6,4.3-2,6.1c-0.5,2.9-0.4,5.5-0.5,8.4c0,1.1,0.6,2.4,1.1,3.4c0.9,1.5,3.1,1.9,4.7,2.3c1.3,0.3,3.3-0.6,4.6-0.8
						c2.7-0.6,6.4-1.3,7.6-4.2c1.9-4.6,2.8-9.6,4.6-14.2c1.9-4.7,3.4-9.6,4.6-14.6c0.5-2.1,0.9-4.1,1.6-6.1c0.6-1.8,1-3.7,0.7-5.6
						C129.6,79.9,129.1,76.3,126.7,76.3z"/>
				</g>
				<g>
					<path class="st3" d="M92.9,128.7c-0.4-1.2-1-2.4-1.3-3.7c-0.3-0.9-0.1-2.7-0.3-3.8c-0.2,0.2-0.2,0-0.4,0.2
						c-0.3-1.4-1-2.5-1.4-3.9c-0.4-1.5-1.2-2.7-1.5-4.2c-0.2-1.4-0.2-2.9-0.6-4.3c-0.4-1.2-0.5-3.2-1.2-4.2c-0.8,1.3,0.2,3.9-0.7,5
						c-0.3-0.3-0.6-0.6-0.9-0.8c0,0.5-0.1,0.9-0.5,1.2c-1-0.6-1.9-1.7-2.9-2.3c-0.1,2-1.8-0.1-2.7-0.6c-1.3-0.7-2.7-1.3-4.1-1.9
						c-2.3-1.1-4.6-2.3-7.2-2.6c-1.4-0.2-4.1-0.1-4.3-2c-0.5,0.5-0.2,1.6-0.9,1.9c-0.8-0.9-1-2.4-2.2-2.9c-0.4,1.4-0.9,3.1-1.2,4.6
						c-0.3-0.5-0.8-1-1.4-1.2c-0.1,0.8-0.2,1.5-0.5,2.4c-0.4,1.4-0.5,1.5-1.9,1.5c-0.6,2-0.6,2.6-2.8,3.2c-2.3,0.6-4.2,2-6,3.6
						c-1,0.9-1.2,2.4-2.1,3.3c-0.5,0.5-1.4,0.7-1.9,1.1c-0.9,0.8-1.4,1.8-1.8,3c-0.6,2.1-0.3,4.5,0.2,6.5c0.2,0.9,0.2,1.6,1.2,1.7
						c1.5,0.2,1.5-1.7,1.5-2.9c0-2.3-0.9-4.3,1.7-5.8c0.7-0.4,1.5-0.2,2.2-0.5c0.6-0.3,0.9-1.1,1.5-1.6c1.5-1.3,3.3-1.2,5.1-1.2
						c9.6,0,17.2,5.2,24.2,11.2c3.5,3,7.8,7,12.4,8.4c1.8,0.5,5.6,2.5,6.9,0.2c1-1.7-0.2-2.7-1.2-3.8
						C94.7,132.2,93.6,130.5,92.9,128.7z"/>
				</g>
				<g>
					<path class="st3" d="M92.9,84c-0.3,0.3-0.6,0.5-0.9,0.8c-1.4-3.1-2.3-6.4-2.7-9.7c-0.6,0.3-1.1,0.8-1.4,1.4
						c-0.1-1-0.2-1.9-0.3-2.9c-0.3,0-0.5,0.1-0.8,0.1c0,1,0.1,2.1,0.7,2.9c0.3,0.4,0.8,0.7,1.2,1.1c1.7,1.7,1.1,4.7,2.3,6.8
						c0.4,0.7,0.9,1.3,1.5,1.8l0,0c1.1,1.1,2.1,2.2,3.2,3.3c0.7,0.7,2.5,2,2.7,3C96.3,90.1,94.6,87,92.9,84z"/>
				</g>
				<path class="st3" d="M50.8,69"/>
				<g>
					<path class="st3" d="M87.7,74.3c-0.9-0.7-2.9-0.6-4-0.6c-1.5,0.1-2.9,0.2-4.4,0c-0.8-0.1-1.6-0.1-2.4,0s-1.5-0.2-2.3-0.2
						c-1.4,0-2.8,0-4.2,0c-0.7,0-1.3,0.5-2,0.5s-1.3-0.1-2-0.2s-1.4-0.5-2.1-0.3c-0.8,0.2-1.1,0.4-2.1,0.2c-1.4-0.3-2.5-0.1-3.9-0.2
						c-1.5,0-2.9-0.6-4.4-0.9s-3.6-0.3-4.9-1.2c-0.5-0.4-1.3-1.1-1.1-1.7l0.4-0.1c0.1-0.2,0.1-0.4,0.2-0.6c0.2-0.3,0.2-0.6,0.7-0.7
						c-1-0.7,0.7-2.1,1.3-2.4c1-0.6,2.1-0.5,3.2-0.3c2.2,0.4,4.2,1.7,5.6,3.6c0.3,0.4,0.4,1,0.7,1.4c0.3,0.5,1.1,1,0.8,1.6
						c-1-0.3-2.3-1.6-3.1-2.4c-0.7-0.7-1.8-1.5-2.8-1.8c-0.8-0.3-1.9-0.8-2.8-0.8c-0.7,0-2.4,0.8-1.3,1.5c-0.4,0.1-1.3,0.3-1,0.8
						c0.2,0.3,1.1,0.3,1.4,0.4C51.1,70,51,70.2,51,70.3c2.5,1,5.4,0.8,8.1,1.1c1.4,0.2,2.8,0.5,4.1,0.6c0.2,0,0.6,0.1,0.8,0
						c0.4-0.1,3.4-0.6,4-0.6c1,0-0.8-4.4-0.9-5.1c2.2,1.7,1.9,4.2,3.7,4.2c1.2,0,2.3,0.6,3.5,0.7c1.1,0,2.2-0.2,3.3,0
						c2.2,0.3,4.4,1,6.6,1.3C85.2,72.9,87.9,72.5,87.7,74.3z"/>
				</g>
			</g>
			<g id="Lights">
				<g>
					<path class="st4" d="M131.8,63.6c-0.7-1.4-1.1-2.7-1.9-4.1c-1-1.6-2-3-3.1-4.5"/>
				</g>
				<g>
					<path class="st4" d="M111.3,49.9c0.6,0.8,1,1.7,0.6,2.7c-0.2,0.4-0.6,0.7-0.8,1.1c-0.2,0.4,0,0.8-0.2,1.3
						c-0.4,1-0.9,0.9-0.9,2.2c0,0.9,0,1.9,0,2.8c0,1.9,0,3.7-0.1,5.6c0,0.8-0.5,1.7,0.1,2.5c0.5,0.7,1.8,0.8,2.4,1.4
						c1.6,1.5,2.5,3.5,1.9,5.7c1.9-2.4,5.6-1.5,7.8,0.5c-0.8-2.4,2.3,0.8,2.8,1.4c0.8,1.1,1.7,4.1,3.4,3.2c1-0.5,1.8-2.3,2.6-3.2
						c1-1,2.3-1.6,3.3-2.5c3.5-3.1,3-7.5,3.3-11.7c0.1-1.7,0.6-3.4,0.4-5.1c-0.2-1.8-1-3.5-1.8-5.2c-1.4-3-2.8-5.7-4-8.8
						c-2.2-5.9-12.1-10.8-17.5-6.4c-2.1,1.7-3.3,4.6-3.2,7.3C111.4,46.7,112,48.4,111.3,49.9z"/>
				</g>
				<g>
					<path class="st4" d="M105.9,50.3c0,1,0.7,1.6,1,2.5c0.1,0.4,0.1,0.8,0.3,1.2c0.2,0.4,0.8,0.4,1,0.8c0.8,1.3,0.3,3.8,0.3,5.3
						c0,1.9,0,3.7,0.1,5.6c0.1,0.7,0.4,1.7,0,2.4c-0.5,0.7-1.7,0.8-2.4,1.2c-1.8,1.1-3.3,3.3-3.4,5.4c-0.4-0.4-0.9-1.6-1.5-1.9
						c-0.3-0.1-1.8,0.1-2.2,0.2c-1.7,0.5-3.2,1.7-4.6,2.8c0-0.3-0.2-0.7-0.1-1c-0.6,0.6-1.5,1.1-2.2,1.6c-0.5,0.4-1.4,1.7-1.9,2.2
						c-0.1-0.6-0.6-2.8-1-3.5c-0.4,0.6-0.8,1.1-1.4,1.8c-0.4-1,0-2.1-0.2-3.1c-0.3-1.6-1.9-2.8-2.9-4c-1.5-1.8-2.7-3.8-3.7-5.9
						c-1.6-3.5-1.7-7.6-3.1-11.2c-1-2.6-1.4-5.9-0.7-8.7c0.9-3.4,3.3-4.5,6.7-4.5c5.3,0,10.1,3.9,14.9,5.8c1.4,0.6,2.7,1.4,3.9,2.4
						c0.5,0.4,1,1.1,1.6,1.4C104.9,49.4,105.8,49.3,105.9,50.3z"/>
				</g>
				<g>
					<g>
						<path class="st3" d="M112.7,79.7c-1.3,1.2-2.8,0.6-4.3,0.6c-1.4,0-2.5,0.3-3.7-0.7c0,0-0.1,0-0.1,0.1c0.8,1.1,2.1,1,3.4,1
							C109.8,80.6,111.3,80.9,112.7,79.7C112.8,79.7,112.8,79.6,112.7,79.7L112.7,79.7z"/>
					</g>
				</g>
				<g>
					<path class="st4" d="M64.2,66.4c-0.5-0.8-1.7-1.9-2.4-2.7c-0.8-0.9-1.7-1.8-2.9-2.2c-1.8-0.8-4.6-0.6-6.1,0.7
						c-1.1,0.9-2,1.7-2.4,3c0.7,0.4,1.8-0.4,2.3-0.9c0.4-0.3,0.6-0.8,1.1-1.1s1.1-0.3,1.6-0.4c1.9-0.3,4.9,0.4,6.3,1.8
						C62.5,65.3,63.4,66.2,64.2,66.4z"/>
				</g>
				<g>
					<path class="st4" d="M53.7,93.7c-0.6-1.6-0.5-3.5,0.2-5c-4.4,0.9-8.4,4-10.2,8.2c-2.5-3.8-3.7-8.4-3.4-12.9
						c-0.5,0.4-0.9,0.9-1.4,1.3c-0.4-2.3,0.3-4.6,1.6-6.5s3.1-3.4,5-4.7c-0.8-0.8-1.3-2-1.3-3.1c0.4,0.1,0.8,0,1.1-0.1
						c-0.3-1.7,0-3.5,0.9-5c0.3,0.8,0.7,1.6,1,2.4l0,0c0.4-0.8,0.9-1.7,1.6-2.3c0.6,1.1-0.8,2.1-0.7,3.2c0.1,1.5,1.6,2,2.9,2.2
						c2.4,0.5,10.1,0.3,13.2,0.7c-1.3,1.1-3.7,3.7-4,5.8c-0.4,2.9-0.2,6.1-1.9,8.6C57.5,88.1,53.1,91.9,53.7,93.7z"/>
				</g>
			</g>
			<g id="Darks">
				<g>
					<path class="st2" d="M131.7,53.7c-0.8-1.1-1.2-2.9-1.9-4.2c-0.9-1.6-1.8-3.2-2.9-4.7c-1-1.4-1.8-2.7-3.7-2.4
						c-1.8,0.3-3.1,1.6-4.7,2.3c0.5,0.1,1,0.1,1.4,0.1c-1.5,0.6-2.8,2.1-3.9,3.4c0.4,0,0.8,0,1.2,0.1c-0.4,0.4-0.9,0.9-0.8,1.5
						c0.1,0.5,1.1,0.2,0.6,1c0.7,0.7,1.8,0.7,2.5,1.4c-0.4,0.3-0.9,0.4-1.3,0.4c0.7,1.1,1.8,2,2,3.4c-1.9-1.5-3.3-3.5-5.6-4.6
						c-0.9-0.5-2.3-0.4-2.7-1.6c-0.4-1.2,1-3.2,1.4-4.2c1.6-3.4,4.2-5.6,7.9-6.5c4.1-1,9,1.8,10.4,5.9c0.7,2,1,4.1,1.2,6.1
						C132.7,52.1,132.9,54,131.7,53.7z"/>
				</g>
				<g>
					<path class="st2" d="M104,50.3c-1.9,0.8-3.2,1.3-4.8,2.8c-1.4,1.3-2.9,2.6-4.1,4.2c0.7-2.3,2.8-4.6,4.3-6.4
						c-0.4,0.1-0.9,0.3-1.3,0.3c0.3-0.6,1.1-0.9,1.2-1.5c-0.4-0.1-0.8-0.2-1.2-0.4c0.1-0.1,0.2-0.5,0.4-0.6c-2-1.7-5-4.3-6.8-3.9
						c-1.6,0.3-4.2,6.2-6.4,10.2c-0.6-1.4,0-4.2,0.1-5.8c0.2-2.5,1-4.4,2.3-6.5c0.9-1.5,1.6-3,3.4-3.4s3.6,0,5.3,0.7
						c2.2,0.9,5.8,2,6.8,4.4C103.9,46.2,104.1,48.5,104,50.3z"/>
				</g>
				<g>
					<path class="st2" d="M125.9,81c1.1-2.6,0.7-6.3,0.3-9c-0.5-3.2-1.8-6.5-3.5-9.3c1.1,0.7,1.5,1.7,2.2,2.8c0.1-0.4,0-0.9-0.1-1.3
						c1.4,2.3,2.2,5.3,2.9,7.8c0.5,1.6,0.6,3.1,0.7,4.7C128.6,78.7,127.4,79,125.9,81z"/>
				</g>
				<g>
					<path class="st2" d="M126.8,55c2.3,1.9,6.2,5.2,5,8.6"/>
				</g>
				<g>
					<path class="st2" d="M86.8,65.4c0.6-2,1.1-4.2,2.1-6.1c0.9-1.7,2.1-4.6,3.7-5.7c-2.1-0.9-4.6,4.8-5.4,6.1
						c-0.7,1.3-1.4,2.6-1.6,4.1c-0.1,0.6-0.4,1.5-0.2,2.1C85.5,66.4,86.2,67.1,86.8,65.4z"/>
				</g>
				<g>
					<path class="st2" d="M113.7,65.1c-0.8,2.3,1.4,3,3.3,3.1c-0.7,1.2-3.1,1.1-4,0.2C112.1,67.6,112,64.8,113.7,65.1z"/>
				</g>
				<g>
					<path class="st2" d="M104.8,65c0.5,1.1,0,2.5-1.3,3c-1.4,0.5-2.3-0.4-2.9-1.5C102.3,67.7,103.6,65.9,104.8,65z"/>
				</g>
				<g>
					<path class="st2" d="M93.8,62c-0.9,1.6-2,3.4-3.1,4.8c0.6-0.1,1.3-0.8,2-1c-2.4,2.6-5,7.1-5,10.7c-0.9-1.3-0.3-3.3-0.4-4.2
						c0-1.3-1.3-2.3-0.6-3.6c0.6-1.2,1.9-1.7,3.2-3.4C91.2,63.7,93.8,62,93.8,62z"/>
				</g>
			</g>
		</g>
	</g>
	<g>
		<defs>
			<path id="SVGID_3_" d="M105.3,136c0.5-0.6,0.5-1.5,0.1-2.2s-1.1-1.2-1.8-1.5c-0.7-0.4-1.5-0.6-2.1-1c-0.7-0.4-1.3-1-1.5-1.8
				c1.9,0.9,4.8,1.3,6,1.3c1.7,0,2.8-0.6,1.7-3.5c-2.1-2.7-5.4-2.1-6.3-3.2c-0.1-6.4-0.2-7.5,0.3-11.2c0.1-0.8,1.4-3.1,2.5-4.4
				c0.2-0.3,0.8,0.4,0.9,0c0.3-2-0.1-5,0.4-6c0.9-1.8,1.7-0.2,2.4-2c0.5,0.5,0.4,1.9,0.5,2c0.9-1.9,2.9-2.8,3.5-5
				c0.5-2,3.6-2.9,5-4.4c1.3-1.6,2-3.5,3.3-5c1.1-1.4,2.6-2.8,3.3-4.5c0.2,0.6,0.2,1.3,0.3,1.8c1.6-3.9,4.5-9.9,3-14.3
				c-0.5-2.1,0.9-4,0.2-6.1c0.7,2.5,1.2,5.5,1.2,8.1c1.2-5.1,1.3-10.4,0.4-15.6c1.3,2,2.3,4.1,3.1,6.4v-0.1
				c-0.3-4.7-1.3-9.4-2.8-13.9l0.1-0.1c1.6,1.6,2.8,3.9,3.2,6.1c-0.3-2.9-1.4-5.8-2.4-8.5c-0.9-2.2-1.9-3.8-2.6-4.7
				c-0.7-1-1.4-1.6-2.5-1.7c-1-0.2-2.1,0.1-3.1,0.4c-4.2,1.4-7.3,4.9-9.1,8.9c-2-0.7-2.6-0.5-4.7-0.5c-1.9,0-2.9-0.1-4.6,0.8
				c-2.2-2.5-4.8-4.6-7.5-6.4C94.9,43.7,94,43.1,93,43c-1-0.1-2.1,0.5-2.8,1s-2.1,3.6-2.8,5.8c-0.2,0.7-0.6,3.5-0.7,4.3
				c0.4-1.2,1.6-4.7,2.5-5.6c-1.4,3.6-2.2,7.5-2.8,11.4c0-0.4,0.4-1.3,0.6-1.6c1.1-1.7,1.4-2.2,2.8-3.5c-1.3,3.9-3.6,8.7-3.5,12.8
				c1.1-3.7,2.7-5.6,4-6.3c-0.9,1.1-2.3,4.8-3.4,8.4c0.8-1.3,2.1-2.7,3.5-3.5c-1.6,2.1-2.4,4.5-2.6,7.1c-2.1,0-8.6-1-10.3-1.1
				c-1.6-0.1-6.7-0.2-8.3-0.1c0.2-6.2-9.9-18.9-18.1-10.1c0.4-3,1.9-5.8,6.6-8.7c-4.9,0.8-7.8,3.8-9,7.5c-0.9-4.6-3.9-8.1-8.2-10.1
				c2.8,2.8,5.1,7.3,5.9,11.1c-0.7-1-1.4-1.9-2.1-3c-1.7-2.3-3.4-4.7-5.9-6c2.1,2.1,3.5,4.7,4.4,7.6c-0.7-0.8-2-1.4-3-1.8
				c-1.1-0.4-2.4-0.8-3.6-0.7c-1.2,0.1-2.5,0.8-3.1,1.9c1.3-0.6,2.6-0.5,3.8,0.1s2.4,1.8,3.2,2.8c-2.8-0.7-5.5,0.1-7.6,2.4
				c-1.1,1.3-1.8,3-1.9,4.7c1.2-1.4,2.6-2.9,4.3-3.6c2.1-0.9,4.8-0.4,6.5,1.1c-0.8-0.1-2.2,0.2-2.9,0.5c-1.6,0.6-3.2,1.2-4.5,2.3
				c-1.8,1.6-2.6,4.1-3.1,6.5c-0.6,2.4-0.9,5-0.5,7.4c0.5-1.8,1.2-3.7,2-5.3c-0.6,1.4-0.7,3-0.6,4.5c0.3,3.5,1.7,8.5,2.9,11.8
				c-0.3,2.4-0.2,5,0.4,7.4c0.1-0.4,0.3-0.7,0.4-1.1c1.1,3.8,0.8,8-0.8,11.6c0.2,0.1,0.4,0,0.4-0.2c0.7,1.5,0,2.7,0.2,4.3
				c0.5,4.8,0.9,9.2,0.6,14c0,0.5-0.1,1,0.1,1.5s0.5,0.9,1,1l3.3,1c1.2,0,3.7,0.5,5-0.1c1.7-0.7,0.2-3.1-0.1-3.4
				c-1-0.9-3.3-0.9-4-1.5c-0.6-1.3,0-4.4,0.1-6.1c0.1-1.4,0.1-1.2,0.5-2.4c0.4,1.5,0.2,3.2,1.9,3.6c1.2,0.3,3,0.7,4.5,0.4
				c1.7-0.4,2.2-1.5,1.7-3c-0.4-1.3-1.9-1.1-3-1.8c-0.5-1.2,0.5-2.2,0.3-3.7c0.8,0.1,0.8,0.1,1.4,0c2.8-0.6,4.7-3.5,6-5.7
				c0.4-0.6,0.7-1.2,1-1.8c0.1-0.1,0.4-0.9,0.4-1c0.3-0.2,0.7,0,0.7-0.1c0.6-0.5,0.5-1,1-1.5c0.6-0.8,0.7-0.4,1.5,0.2
				c0.3-0.7,0.7-1.9,1.2-2.4c0.2,0.6,0.3,1.3,0.6,1.9c0.4-0.8,0.4-2,0.6-2.9c1-1,2.7-0.3,3.7,0.2c1.2,0.5,2.4,0.3,3.6,0.7
				c1.3,0.5,2.4,1.3,3.7,1.7c1.5,0.4,2.3,2.5,3.7,2.8c0-0.2,0.2-0.5,0.2-0.7c1.1,0.2,1.9,2.2,3,2.7c0.6,0.3,1.2,0.3,1.9,0.7
				c0.5,0.3,1.1,1.1,1.3,0c0.3,0.2,0.6,0.5,0.9,0.9c0.3-0.5,0.5-1.3,0.7-1.9c0.8,1.5,1.3,2.6,2.6,3.7c0.1,0.6,0.6,3.2,0.5,4.5
				c0.2-0.3,0.7-0.7,0.9-1c0.2,2,2.2,9,3.3,10.8c0.4,0.6,0.8,1.2,1,1.8c0.2,0.7,0.2,1.6,0.6,2.3c0.5,0.9,1.4,1.4,2.3,1.9
				c2.1,1.1,4.4,2.2,6.8,2.4c1.1,0.1,2.4-0.1,3-1.1"/>
		</defs>
		<clipPath id="SVGID_4_">
			<use xlink:href="#SVGID_3_"  style="overflow:visible;"/>
		</clipPath>
		<g id="Details" class="st5">
			<circle class="st6" cx="115.6" cy="65.7" r="2.2"/>
			<circle class="st6" cx="102.6" cy="65.1" r="2"/>
			<g>
				<path class="st7" d="M110.3,72.3c0.6,0,1.2,0.2,1.4,0.7c0.2,0.4,0,1.3-0.2,1.7c-0.5,1.4-2.2,2.3-3.7,1.9s-1.9-0.7-2.2-1.8
					c-0.2-0.6-0.5-1.2-0.2-2c0.1-0.3,0.8-0.7,1.5-0.7S109.1,72.2,110.3,72.3z"/>
			</g>
			<circle class="st1" cx="115" cy="64.8" r="0.6"/>
			<circle class="st1" cx="101.8" cy="64.3" r="0.6"/>
		</g>
	</g>
</g>
<g id="Outlines">
	<g>
		<g>
			<path class="st8" d="M126.5,71c0.8,3.5-0.2,6.9-1.5,10.2c-0.5,1.3-0.9,4.2-1.3,2.1c-0.1-0.4-0.6-0.3-0.7,0c-2,5-7,8.9-10.6,12.5
				c-1.4,1.3-1.8,3.4-3.2,4.8c-1.1,1.1-0.1,1.3-0.9-0.4c-0.1-0.2-0.4-0.2-0.6,0c-0.8,1.4-2,1.3-2.5,3c-0.4,1.5,0.3,3.4-0.4,4.7
				c0,0-0.6,0-0.6,0.1c-1.2,2.1-2.2,3.2-2.7,5.5c-0.7,3.6-0.4,7.2,0.2,10.7c0,0.3,0.5,0.2,0.5-0.1c-0.2-4-1.6-13.4,3.2-15.4
				c0.2-0.1,0.3-0.2,0.3-0.4c0.1-1.5-0.5-6.7,1.9-6.9c0.4,0,0.5,0.4,0.5,0.9c0,0.4,0.5,0.6,0.8,0.2c0.9-1.3,2.1-2.6,3-3.9
				c1.7-2.2,3.5-3.5,5.3-5.4c1.4-1.4,2.1-3.5,3.2-5.1c0.5-0.7,1.2-1.7,1.8-2.3c0.7-0.7,1-2.4,1.2-0.6c0,0.4,0.5,0.3,0.6,0
				c1.8-4.6,4.1-9.4,2.9-14.4C126.8,70.7,126.4,70.8,126.5,71L126.5,71z"/>
		</g>
	</g>
	<g>
		<g>
			<path class="st8" d="M101.4,124.1c0.2,0.6,1.2,0.9,1.8,1c1.6,0.5,3.5,0.8,4.3,2.4c0.4,0.7,0.7,2-0.1,2.6
				c-0.5,0.4-1.3,0.3-1.8,0.3c-1.7,0-3.4-0.4-5.1-0.7c-0.1,0-0.1,0.1-0.1,0.1c1.5,1,7.7,2.8,8.2-0.2c0.6-4-4.4-4.6-7-5.6
				C101.4,123.9,101.3,124,101.4,124.1L101.4,124.1z"/>
		</g>
	</g>
	<g>
		<g>
			<path class="st8" d="M87.3,114c-1-1.1-1.8-2.4-2.4-3.7c-0.1-0.2-0.3-0.1-0.4,0.1c0,1-0.4,1.3-1.2,0.9c-0.1-0.1-0.3-0.1-0.4,0
				c-0.7,1.2-5.1-3.1-5.9-3.5c-0.2-0.1-0.4,0-0.4,0.2c0.3-0.9-7.6-4.1-7.9-4.2c-2.1-0.7-4.3-1.8-6.4-0.9c-0.2,0.1-0.1,0.4,0.2,0.4
				c1.2-0.5,7.7,1.9,8.4,2.1c2.1,0.9,3.6,2.5,5.6,3.6c0.2,0.1,0.4,0,0.4-0.2c-0.3,0.7,5.3,3.2,5.8,3.4c0.1,0,0.2,0,0.3-0.1
				c0.3,0.1,0.6,0.2,0.9,0.4c0.1,0.1,0.3,0.1,0.4-0.1c0.7-1.8,2.1,0.9,3,1.8C87.2,114.3,87.4,114.1,87.3,114L87.3,114z"/>
		</g>
	</g>
	<g>
		<g>
			<path class="st8" d="M62.8,100.8c-0.3,1-1.4,6-2.1,3.4c0-0.1-0.2-0.2-0.3,0c-1.2,2-2.9,1.8-4.4,3.7c-1.1,1.5-1.7,3.3-2.9,4.8
				c-1.9,2.4-4.2,2.5-6.6,3.7c0,0-1.5,1.3-1.6,1.1c-0.1-0.1-0.2-0.2-0.3-0.1c-4,0.9-4.7,10.1-3.3,12.7c0.1,0.2,0.3,0,0.3-0.1
				c-0.3-2-0.1-3.9,0.3-5.9c0.1-1.6,0.4-3.1,1.1-4.5c0.3-0.9,0.9-1.4,1.8-1.2c0.1,0.2,0.3,0.2,0.4,0.1c1.6-1.5,3.1-1.2,4.9-2
				c1.6-0.6,2.8-2.1,3.7-3.4c0.1-0.2,3.9-7.6,5.5-6.3c0.1,0.1,0.2,0.1,0.3-0.1c0.8-1.8,1.3-2,1.5-0.5c0,0.1,0.1,0.1,0.2,0
				C61.8,104.4,62.4,102.6,62.8,100.8C62.9,100.8,62.8,100.8,62.8,100.8L62.8,100.8z"/>
		</g>
	</g>
	<g>
		<g>
			<path class="st8" d="M47.2,116.6c0,1.4-0.9,2.6-0.2,4c0.2,0.4,0.7,0,0.5-0.3c-0.7-1.2,0.1-2.5-0.1-3.7
				C47.4,116.5,47.2,116.5,47.2,116.6L47.2,116.6z"/>
		</g>
	</g>
	<g>
		<g>
			<path class="st8" d="M46.9,120.4c0.6,0.6,1.4,0.6,2,1.1c0.8,0.6,1.2,1.9,0.5,2.7c-0.5,0.6-1.6,0.7-2.4,0.7c-1.2,0-3.3-0.1-4-1.2
				c-0.5-0.8-0.4-1.8-0.8-2.6c-0.1-0.3-0.5-0.1-0.5,0.1c0,1.3,0.3,3.2,1.6,3.8c1.5,0.8,4.2,1,5.8,0.4c1.2-0.5,1.8-1.6,1.5-2.9
				c-0.4-1.6-2.1-1.9-3.5-2.2C46.9,120.2,46.9,120.3,46.9,120.4L46.9,120.4z"/>
		</g>
	</g>
	<g>
		<g>
			<path class="st8" d="M40.5,50.9c4.1,2.3,6.7,5.5,8,10c0,0.2,0.3,0.1,0.2-0.1C47.9,56.2,44.8,52.8,40.5,50.9
				C40.5,50.8,40.4,50.9,40.5,50.9L40.5,50.9z"/>
		</g>
	</g>
	<g>
		<g>
			<path class="st8" d="M40.7,51.1c1,1.6,2.2,3,3.1,4.6c1,1.8,1.6,3.8,2.3,5.7c0,0.1,0.2,0.1,0.2,0c-0.3-3.7-2.5-8.2-5.5-10.4
				L40.7,51.1L40.7,51.1z"/>
		</g>
	</g>
	<g>
		<g>
			<path class="st8" d="M38.4,53c3.5,2.4,5.5,6,8.1,9.2c0.1,0.1,0.2,0,0.1-0.1C44.5,58.8,42.1,54.7,38.4,53C38.4,53,38.3,53,38.4,53
				L38.4,53z"/>
		</g>
	</g>
	<g>
		<g>
			<path class="st8" d="M38.5,53.2c2.8,2.8,4.2,6.6,5.2,10.3c0,0.2,0.3,0.1,0.3,0C43.5,59.4,41.3,56.1,38.5,53.2
				C38.5,53.1,38.4,53.2,38.5,53.2L38.5,53.2z"/>
		</g>
	</g>
	<g>
		<g>
			<path class="st8" d="M42.5,60.3c-2.3-2.2-7.4-4-9.4-0.5c0,0.1,0.1,0.2,0.1,0.1C35.4,57,40.2,58.4,42.5,60.3
				C42.5,60.5,42.6,60.4,42.5,60.3L42.5,60.3z"/>
		</g>
	</g>
	<g>
		<g>
			<path class="st8" d="M33.2,60.2c2.6-1.3,5,0.8,6.7,2.5c0.1,0.1,0.2,0,0.1-0.1c-1.6-2.2-4.2-4.2-7-2.7C33,60,33.1,60.2,33.2,60.2
				L33.2,60.2z"/>
		</g>
	</g>
	<g>
		<g>
			<path class="st8" d="M30.9,69.9c0.8-5,5.3-8,10.2-6.7c0.1,0,0.1-0.1,0-0.1c-4.9-1.8-10.2,1.6-10.4,6.8
				C30.7,69.9,30.8,70,30.9,69.9L30.9,69.9z"/>
		</g>
	</g>
	<g>
		<g>
			<path class="st8" d="M30.8,70c1.4-1.4,2.8-3.3,4.9-3.7c2.1-0.5,4,0.3,5.8,1.4c0.2,0.1,0.5-0.2,0.3-0.4
				C38.2,63.7,33.1,66.6,30.8,70C30.7,70,30.8,70,30.8,70L30.8,70z"/>
		</g>
	</g>
	<g>
		<g>
			<path class="st8" d="M30.6,84.1c-0.2-3.5,0.3-7.1,1.6-10.3c1.2-3.1,6.7-8,10.5-5.4c0.2,0.1,0.4-0.2,0.2-0.3
				c-2.3-2.5-7.4,0.4-9.2,2.3C30.6,73.7,29.7,79.9,30.6,84.1L30.6,84.1L30.6,84.1z"/>
		</g>
	</g>
	<g>
		<g>
			<path class="st8" d="M30.8,83.9c1.8-5.2,4.7-12.4,11.5-11c0.2,0,0.2-0.2,0.1-0.3C35.9,70.3,31.7,78.9,30.8,83.9
				C30.7,83.9,30.7,83.9,30.8,83.9L30.8,83.9z"/>
		</g>
	</g>
	<g>
		<g>
			<path class="st8" d="M35,95c-1.7-4.6-3.8-11.3-2.2-16.1c0-0.1-0.1-0.1-0.1,0c-2.8,4.3,0.8,11.9,2.2,16.2C34.9,95.1,35,95.1,35,95
				L35,95z"/>
		</g>
	</g>
	<g>
		<g>
			<path class="st8" d="M35.2,88.6c-1.2-4.6,0-11,4.4-13.3c0.2-0.1,0.1-0.5-0.2-0.4C34,76.5,34,84.2,35,88.6
				C35.1,88.7,35.2,88.6,35.2,88.6L35.2,88.6z"/>
		</g>
	</g>
	<g>
		<g>
			<path class="st8" d="M69.2,72.3c-0.3-8-11.4-19.1-18-10.3c-0.1,0.1,0.1,0.3,0.2,0.2C58.5,54.6,68.1,64.5,69.2,72.3L69.2,72.3
				L69.2,72.3z"/>
		</g>
	</g>
	<g>
		<g>
			<path class="st8" d="M48,64.9c0.3-2.6,1-5,2.6-7.2c1.8-2.4,4.2-3.3,7-4.2c0.1,0,0.1-0.2,0-0.2C51.6,53.8,48.2,59.2,48,64.9
				L48,64.9L48,64.9z"/>
		</g>
	</g>
	<g>
		<g>
			<path class="st8" d="M57.6,53.4c-2,1.4-4.2,3-5.4,5.2c-0.9,1.6-1.2,3.3-1.4,5.1c0,0.1,0.2,0.2,0.2,0
				C51.7,59.2,54.1,56.3,57.6,53.4C57.8,53.5,57.7,53.3,57.6,53.4L57.6,53.4z"/>
		</g>
	</g>
	<g>
		<g>
			<path class="st8" d="M87.7,73.3C82,72.5,76.6,71.6,70.8,72c-3.9,0.2-7.8,0.2-11.7,0c-2.9-0.1-8.3,0.3-10.6-1.8
				c-0.3-0.3-0.7,0.2-0.4,0.4c1.1,1,2.9,1.1,4.4,1.3c4.1,0.5,8.4,0.6,12.6,0.8c4.3,0.1,8.6-0.1,13,0.3c3.2,0.3,6.4,0.9,9.6,0.7
				C87.9,73.5,87.9,73.3,87.7,73.3L87.7,73.3z"/>
		</g>
	</g>
	<g>
		<g>
			<path class="st8" d="M113.8,50.9c-3.4-2-8.4-1.9-11.9-0.1c-0.1,0,0,0.2,0.1,0.2C106.1,49.5,109.6,50.4,113.8,50.9
				C113.8,51,113.8,50.9,113.8,50.9L113.8,50.9z"/>
		</g>
	</g>
	<g>
		<g>
			<path class="st8" d="M86.9,69.8c0.6-1.7,1.2-3.4,1.9-5.1c0.4-1.1,1.3-2.2,1.6-3.3c0-0.2-0.1-0.3-0.3-0.2
				c-0.8,0.5-1.2,1.8-1.5,2.6C87.8,65.7,87.2,67.7,86.9,69.8C86.8,69.8,86.9,69.8,86.9,69.8L86.9,69.8z"/>
		</g>
	</g>
	<g>
		<g>
			<path class="st8" d="M87.1,69.6c0.4-0.7,1-1.3,1.6-1.8c0.5-0.5,1.2-0.9,1.7-1.4c0.1-0.1,0-0.3-0.2-0.2
				C88.9,66.8,87.8,68.2,87.1,69.6L87.1,69.6L87.1,69.6z"/>
		</g>
	</g>
	<g>
		<g>
			<path class="st8" d="M90.4,66.6c-2.2,2.7-3.5,6.8-2.8,10.3c0,0.2,0.4,0.2,0.3,0C87.8,73,88.3,69.9,90.4,66.6L90.4,66.6L90.4,66.6
				z"/>
		</g>
	</g>
	<g>
		<g>
			<path class="st8" d="M87.9,77.1c0.5-0.8,1.2-1.4,1.9-2c0.1-0.1,0-0.2-0.1-0.2C88.8,75.3,88.2,76.2,87.9,77.1
				C87.8,77.1,87.9,77.1,87.9,77.1L87.9,77.1z"/>
		</g>
	</g>
	<g>
		<g>
			<path class="st8" d="M89.5,75.1c0.4,3.5,1.2,6.9,2.5,10.1c0.1,0.2,0.5,0.4,0.6,0.1c0.7-1.6,1.3,1.2,1.7,1.9
				c1.3,2.3,3,4.4,4.6,6.5c0.1,0.1,0.2,0,0.2-0.1c-2.2-3.2-4.4-6.5-6-10.1c-0.1-0.2-0.4-0.2-0.4,0c-0.7,1.5-1.2-1.6-1.4-2.2
				c-0.6-2-1-4.1-1.4-6.2C89.9,74.8,89.5,74.9,89.5,75.1L89.5,75.1z"/>
		</g>
	</g>
	<g>
		<g>
			<path class="st8" d="M103,50.4c-2.1-2.4-9.5-10.8-13.1-6.6c-0.2,0.2,0.1,0.5,0.3,0.3c3-3.5,10.5,4.5,12.6,6.6
				C102.9,50.9,103.2,50.6,103,50.4L103,50.4z"/>
		</g>
	</g>
	<g>
		<g>
			<path class="st8" d="M112.3,50.3c1.5-1.8,2.4-3.9,4.2-5.5c2.4-2.2,7.8-5.8,10.4-2.1c0.1,0.1,0.2,0,0.1-0.1
				c-1.6-3-5.3-1.9-7.8-0.7C116.1,43.4,113,46.9,112.3,50.3C112.2,50.3,112.3,50.4,112.3,50.3L112.3,50.3z"/>
		</g>
	</g>
	<g>
		<g>
			<path class="st8" d="M132,55.9c-0.5-4.8-2-11.6-6.4-14.4c-0.1-0.1-0.2,0.1-0.1,0.2c2.2,1.4,3,4,4,6.3
				C130.6,50.6,131.6,53.1,132,55.9C132,55.9,132.1,55.9,132,55.9L132,55.9z"/>
		</g>
	</g>
	<g>
		<g>
			<path class="st8" d="M131.9,55.6c-0.4-2.3-1.5-4.2-3.1-5.9c-0.1-0.1-0.2,0.1-0.1,0.1C130.3,51.5,131.3,53.4,131.9,55.6
				L131.9,55.6L131.9,55.6z"/>
		</g>
	</g>
	<g>
		<g>
			<path class="st8" d="M131.6,63.8c0-4.6-1-9.7-2.7-14c-0.1-0.2-0.4-0.1-0.4,0.1c1.3,4.6,2.2,9.1,3,13.9
				C131.5,63.8,131.6,63.8,131.6,63.8L131.6,63.8z"/>
		</g>
	</g>
	<g>
		<g>
			<path class="st8" d="M131.7,63.6c-0.2-1.2-0.6-2.3-1.2-3.4c-0.5-1-1-2.3-1.8-3.1c-0.1-0.1-0.3,0-0.2,0.1c0.3,1,1.1,2,1.6,3
				C130.6,61.3,131,62.5,131.7,63.6C131.6,63.7,131.7,63.6,131.7,63.6L131.7,63.6z"/>
		</g>
	</g>
	<g>
		<g>
			<path class="st8" d="M128.1,73c1.3-4.9,2-10.7,0.5-15.6c0-0.1-0.3-0.1-0.3,0C128.5,62.8,129,67.6,128.1,73
				C128,73.1,128.1,73.1,128.1,73L128.1,73z"/>
		</g>
	</g>
	<g>
		<g>
			<path class="st8" d="M128.1,72.8c0.1-2.6-0.1-5.3-1-7.8c-0.1-0.2-0.4-0.1-0.3,0.1C127.2,67.7,127.9,70.2,128.1,72.8L128.1,72.8
				L128.1,72.8z"/>
		</g>
	</g>
	<g>
		<g>
			<path class="st8" d="M126.8,71.5c0.1-1.2,0.3-2.5,0.4-3.7c0.1-1,0.2-2-0.2-2.9c-0.1-0.1-0.3-0.1-0.3,0.1c0.2,1.4,0,2.6-0.2,4
				C126.4,69.8,126.4,70.7,126.8,71.5L126.8,71.5L126.8,71.5z"/>
		</g>
	</g>
	<g>
		<g>
			<path class="st8" d="M86.4,54.1c0.6-3.8,1.3-7.5,4.2-10.3c0.2-0.2-0.1-0.5-0.3-0.3C87.4,46,86.6,50.5,86.4,54.1L86.4,54.1
				L86.4,54.1z"/>
		</g>
	</g>
	<g>
		<g>
			<path class="st8" d="M86.4,54.1c0.6-1.8,1.3-4.1,2.6-5.5c0.1-0.1,0-0.2-0.1-0.1C87.5,49.8,86.9,52.3,86.4,54.1L86.4,54.1
				L86.4,54.1z"/>
		</g>
	</g>
	<g>
		<g>
			<path class="st8" d="M86.2,59.9c0.7-3.9,1.5-7.6,3-11.3c0.1-0.3-0.4-0.5-0.5-0.1C87.5,52.2,86.6,56,86.2,59.9L86.2,59.9
				L86.2,59.9z"/>
		</g>
	</g>
	<g>
		<g>
			<path class="st8" d="M86.4,59.7c0.3-1.9,2.1-3.4,3.2-4.8c0.1-0.2-0.1-0.4-0.3-0.3c-0.8,0.5-1.4,1.4-1.9,2.2
				C86.8,57.7,86.3,58.5,86.4,59.7C86.3,59.7,86.4,59.7,86.4,59.7L86.4,59.7z"/>
		</g>
	</g>
	<g>
		<g>
			<path class="st8" d="M86.2,67.6c0.6-4.5,2.1-8.4,3.6-12.8c0.1-0.2-0.3-0.3-0.4-0.1C88.1,58.7,85.5,63.3,86.2,67.6
				C86.1,67.7,86.2,67.7,86.2,67.6L86.2,67.6z"/>
		</g>
	</g>
	<g>
		<g>
			<path class="st8" d="M86.4,67.4c1.1-2.2,1.6-4.7,3.8-6c0.1,0,0-0.2-0.1-0.1C88.1,62.4,86.6,65.1,86.4,67.4
				C86.3,67.4,86.4,67.4,86.4,67.4L86.4,67.4z"/>
		</g>
	</g>
	<g>
		<g>
			<path class="st8" d="M98.7,102.1c-0.9,2.9-1.6,5.9-2.5,8.8c-0.5,1.8-0.7,3.2-0.6,5c0.3,5,2.1,10.2,4.5,14.5
				c0.1,0.2,0.4,0.1,0.3-0.1c-1.3-4.9-3.5-9.8-3.7-15C96.5,110.9,98.4,106.5,98.7,102.1C98.8,102.1,98.7,102.1,98.7,102.1
				L98.7,102.1z"/>
		</g>
	</g>
	<g>
		<g>
			<path class="st8" d="M100,129.5c0.5,3.4,6,2.5,5.3,6.5c0,0.1,0.1,0.2,0.2,0.1c1.1-0.6,0.8-2.1,0.1-2.9c-1.4-1.8-4.2-1.6-5.4-3.8
				C100.1,129.3,99.9,129.4,100,129.5L100,129.5z"/>
		</g>
	</g>
	<g>
		<g>
			<path class="st8" d="M105.4,135.5c-3.8,2.8-11.3-1.6-12.9-5.2c-0.5-1.1-0.7-2.6-1.1-3.8c-0.9-2.9-1.9-5.9-2.5-9
				c0-0.3-0.5-0.4-0.6-0.2c-0.7,0.8-0.1-0.1-0.4-1.3c-0.1-0.6-0.2-1.1-0.3-1.7c-0.6-3.2-1.6-6.3-1.8-9.6c0-0.1-0.2-0.2-0.2,0
				c0,4.7,1.6,9.1,1.7,13.8c0,0.3,0.4,0.5,0.7,0.3c0.9-1,0.5,0.4,0.8,1.5c0.4,1.5,1,3,1.5,4.6c0.6,2,1,4.8,2,6.6
				c1.9,3.4,10.3,7.9,13.3,4.1C105.6,135.6,105.5,135.4,105.4,135.5L105.4,135.5z"/>
		</g>
	</g>
	<g>
		<g>
			<path class="st8" d="M35.4,92.1c-1.1,3.5-1.1,6.8-0.4,10.4c0.1,0.3,0.5,0.3,0.6,0c0.2,0.7,0.3,1.5,0.5,2.2c0.1,1.1,0,2.2-0.2,3.3
				c-0.2,1.8-0.7,3.2-1.3,4.9c-0.1,0.3,0.3,0.5,0.5,0.4c0.1,1.3,0.2,2.6,0.2,3.8c0,0.3,0.4,0.3,0.4,0c0.1-1.7,0.3-2.8-0.1-4.4
				c0-0.2-0.3-0.3-0.5-0.2c2.7-1.4,1.3-9,0.8-11.2c0-0.2-0.3-0.2-0.4-0.1c-0.5-1.3-0.7-2.6-0.6-4C34.9,95.5,35.1,93.8,35.4,92.1
				C35.5,92.1,35.4,92,35.4,92.1L35.4,92.1z"/>
		</g>
	</g>
	<g>
		<g>
			<path class="st8" d="M35.3,116.7c0.1,4.1,0.6,8.2,0.5,12.4c-0.1,1.8-0.6,3.8,1.1,4.8c0.5,0.3,0.9-0.5,0.4-0.7
				c-1.7-0.9-0.7-6.9-0.9-8.7c-0.2-2.6-0.5-5.3-0.9-7.9C35.6,116.5,35.3,116.5,35.3,116.7L35.3,116.7z"/>
		</g>
	</g>
	<g>
		<g>
			<path class="st8" d="M36.3,133.3c0.9,1.2,3.1,1.7,4.5,1.8c1.5,0.1,4.3,0.7,5.4-0.7c0.7-0.9,0.2-2.5-0.4-3.3
				c-1.1-1.4-3.2-0.8-4.6-1.6c-0.1-0.1-0.2,0.1-0.1,0.2c0.8,0.6,1.8,0.8,2.7,1.2c1.2,0.5,3.6,2.8,0.8,3.5c-1.3,0.3-3.1,0-4.4-0.2
				c-1.2-0.2-2.5-1-3.7-1.1C36.4,133,36.2,133.1,36.3,133.3L36.3,133.3z"/>
		</g>
	</g>
	<g>
		<g>
			<path class="st8" d="M117.8,65.5c-0.1-1.2-1-2.3-2.3-2.2c-1.3,0-2.3,1.1-2.3,2.4c0,0,0,0,0.1,0c0.3-1.1,1.1-2,2.3-2.1
				C116.8,63.6,117.4,64.5,117.8,65.5L117.8,65.5L117.8,65.5z"/>
		</g>
	</g>
	<g>
		<g>
			<path class="st8" d="M104.8,65.2c-0.1-1.2-0.9-2.2-2.1-2.2c-1.1,0-2.1,0.9-1.9,2.1c0,0.1,0.1,0,0.1,0c0.1-1.1,1-1.9,2.2-1.6
				c0.9,0.2,1.4,1,1.6,1.8C104.7,65.3,104.8,65.3,104.8,65.2L104.8,65.2z"/>
		</g>
	</g>
	<g>
		<g>
			<path class="st8" d="M109.9,74.8c0-0.1-0.1-0.2-0.2-0.2c-0.1-0.1-0.3-0.1-0.4,0c-0.2,0.3-0.4,0.7-0.2,1c0.1,0.1,0.3,0.1,0.3,0
				c0.1-0.2,0.2-0.5,0.3-0.7c-0.1,0-0.3,0-0.4,0.1c0.1,0.1,0.1,0.1,0.2,0.2C109.8,75.3,110,75.1,109.9,74.8L109.9,74.8z"/>
		</g>
	</g>
	<g>
		<g>
			<path class="st8" d="M107.1,75.2c0.1,0,0.2-0.1,0.2-0.2c-0.1,0-0.3,0-0.4-0.1c0.1,0.2,0.2,0.5,0.3,0.7c0.1,0.1,0.3,0.1,0.3,0
				c0.2-0.4,0-0.7-0.2-1c-0.1-0.1-0.3-0.1-0.4,0s-0.1,0.1-0.2,0.2C106.7,75.1,106.9,75.3,107.1,75.2L107.1,75.2z"/>
		</g>
	</g>
	<g>
		<g>
			<path class="st8" d="M111.9,77.4c-0.5,0.3-1.1,0.6-1.7,0.7s-1-0.2-1.5-0.3c-0.3-0.1-0.5-0.1-0.8,0c-1.2,0.3-1.7,0.1-2.7-0.6
				c0,0-0.1,0,0,0.1c0.4,0.5,0.9,0.9,1.6,1c0.8,0.1,1.5-0.2,2.3-0.1C110.2,78.5,110.9,78.1,111.9,77.4L111.9,77.4L111.9,77.4z"/>
		</g>
	</g>
	<g>
		<g>
			<path class="st8" d="M66.8,72.1c-1.2-6.3-9-14.3-14.7-7.7c-0.1,0.1,0,0.2,0.1,0.1C58.1,59.5,65.2,65.9,66.8,72.1
				C66.7,72.1,66.8,72.1,66.8,72.1L66.8,72.1z"/>
		</g>
	</g>
	<g>
		<g>
			<path class="st8" d="M61.1,72.4c-2.1-2.7-4.1-6.2-7.7-7.1c-2.8-0.7-4.7,0.9-5.2,3.6c0,0.1,0.1,0.1,0.2,0
				C51.3,61.3,58.1,69.3,61.1,72.4C61.1,72.5,61.1,72.4,61.1,72.4L61.1,72.4z"/>
		</g>
	</g>
</g>
</svg>
