<?xml version="1.0" encoding="utf-8"?>
<!-- Generator: Adobe Illustrator 22.1.0, SVG Export Plug-In . SVG Version: 6.00 Build 0)  -->
<svg version="1.1" id="Card_2" xmlns="http://www.w3.org/2000/svg" xmlns:xlink="http://www.w3.org/1999/xlink" x="0px" y="0px"
	 viewBox="0 0 155.9 155.9" style="enable-background:new 0 0 155.9 155.9;" xml:space="preserve">
<style type="text/css">
	.st0{clip-path:url(#SVGID_2_);}
	.st1{fill:#D2B8A3;}
	.st2{fill:#BBA495;}
	.st3{fill:#484943;}
	.st4{fill:#252622;}
	.st5{fill:#E8B3B1;}
	.st6{fill:#090A0A;}
	.st7{fill:#281F24;}
	.st8{fill:#C99B9B;}
	.st9{fill:#260F0C;}
	.st10{fill:#010202;}
	.st11{fill:#FFFFFF;}
</style>
<g id="Colours_2">
	<defs>
		<path id="SVGID_1_" d="M90.8,48.8c-1.1-1-1.2-2.7-0.8-4.1c0.5-1.7,1.8-3,3.1-4.2c1.3-1.2,2.8-2.2,3.8-3.6c0.5-0.6,0.9-1.3,1.6-1.7
			c0.7-0.3,1.4-0.3,1.7,0.4c1.3-1.4,3-2.3,4.8-2.7c1.8-0.4,3.8-0.1,5.5,0.7l2.1,0.5c1.1,0.5,2.2,1.1,3.4,1.2
			c0.7-0.7,1.8-0.5,2.7-0.1c2,0.9,3.6,2.6,4.2,4.7c0.6,2.1,0.5,3.9-0.8,5.3l0,0c2.4-0.3,4.8,0.2,6.8,1.5c0.5,0.3,1,0.8,1.4,1.3
			c0.5,0.8,0.6,1.9,0.1,2.7c-0.4,0.8-1.3,1.5-2.2,1.6c-0.3,0.3-1-1.1-2.5-1.8l-0.1,0.3c-1.3,3-5.2,3.9-7.4,6.4
			c-2.4,2.7-2.4,6.7-3.9,10c1.5,2.5,1.5,6,1.1,8.9c-0.4,2.9-0.7,5.9-0.1,8.7c1,4.5-0.8,8.4-1.3,9.3c-3.7,7.7-9.5,13.9-17.7,18.5
			c-0.3,2-0.1,3.8-0.1,5.9c0,2.2-0.6,4.1-0.5,6.2c0.9,0.3,1.7,0.9,2.1,1.8c0.4,0.9,0.4,2.6-0.2,3.3c0.3,0.3,0.6,0.5,1,0.6
			c1,0.4,2.1,0.4,3.1,0.8c1.5,0.6,2.4,2.4,2.1,4c-0.3,0.7-1.2,1-2,0.7c-0.2,0.3-1.3,0.2-1.6,0.2c-1.2,0-2.5,0-3.7,0l-0.9,0.1
			c-1.5,0-2.5-0.2-3.9-0.8c-1.3-0.4-2-1.8-2.2-3.1c-0.1-0.9-0.1-1.9-0.2-2.9c-1.7,0.3-2.8-1.2-3.2-2.4c-0.4-1.2-0.4-2.5-0.7-3.7
			s-1-2.5-2.3-2.8l-5,1.4c-1.8,0.5-4,1-5.9,1.7c-0.3,0.1-0.6,0.2-0.9,0.3l0.2,1.1c1.3,0.4,2.7,1.5,3.2,2.7c0.2,0.5,0.4,1.1,0.2,1.6
			c-0.1,0.5-0.6,1-1.2,1.1c0.8,0.4,2.8,1.6,3.4,2.2s0.9,1.6,0.7,2.5l-0.5,0.8c-1.8,1-4.1,0.7-6.2,0.4c-6.6-0.8-13.2-0.4-19.8,0.1h0
			c-1.3-0.1-1.5-0.8-2.3-1.5c-0.9-0.8-0.7-0.5-1.1-1.7c0,0-1.3-1.5-3-2.3c-1.6-0.7-3.4-1.3-4.8-2.4c-1.7-1.3-2.8-3.4-4.3-4.8
			c-1.6-1.5-3.6-2.3-5.3-3.7c-3.5-2.7-5.3-7.2-5.6-11.6c-0.3-4.4,0.9-8.8,2.5-12.9c0,0,0.5,2.5,1.5,3.1s2.2,1.1,3.1,1.9
			c1.3,1.2,1.7,3.1,0.9,4.7c0.9-1.9,3.4-2.4,5.2-3.6c2-1.3,3.1-3.5,4.3-5.5c4.4-7,10.9-12.3,17.3-17.6c2.3-1.9,4.7-3.8,7-5.7
			c0.8-0.7,2.1-1.5,3.1-1.3c-0.1-0.8,0.6-1.4,1.4-1.7c0.8-0.3,1.6-0.2,2.4-0.5c0.8-0.2,1.7-0.7,1.7-1.5c-0.2-1.1,0.7-2,1.6-2.7
			c1.1-0.9,2.2-1.8,3.6-2.1c1.4-0.3,3.2,0.2,3.9,1.4C84.1,64,84,63,84.1,62c0.2-1.5,1-2.9,1.9-4.1c0.9-1.3,1.8-2.5,2.3-3.9
			c0.3-0.9,0.5-1.9,0.8-2.8S89.9,49.3,90.8,48.8z"/>
	</defs>
	<clipPath id="SVGID_2_">
		<use xlink:href="#SVGID_1_"  style="overflow:visible;"/>
	</clipPath>
	<g id="Base" class="st0">
		<rect x="22.4" y="29" class="st1" width="111.8" height="110.6"/>
		<g id="Dark">
			<g>
				<path class="st2" d="M30.7,108c-0.4,0.3-0.8,0.5-1.1,0.8c-0.3,0.3-0.4,0.9-0.1,1.2c0.3,0.4,0.8,0.3,1.2,0.5
					c1.2,0.3,1.7,1.7,1.9,2.9s0.2,2.5,1,3.4c0.2,0.3,0.7,0.6,1,0.3c0.2-0.2,0.2-0.4,0.2-0.7c0.1-1.7,0.1-3.5-0.4-5.2
					c-0.3-0.8-0.7-1.6-0.7-2.4c-0.1-1.1,0.4-2.2,0.6-3.3c0,0,0,0,0,0c0.2-1.4-0.6-3.3-1.5-1.3C32.2,105.7,32.2,107,30.7,108z"/>
			</g>
			<g>
				<path class="st2" d="M52.8,120.3c-1.7,0-3.5,0.2-4.9,1.1c-1.6,1.1-2.5,3-2.4,4.9c0.1,0.9,0.3,2.1-0.5,2.6c-0.4,0.2-1,0.1-1.5,0
					c-1.5-0.5-2.9-1.1-4.3-1.8c3.5,2.7,5.2,7.2,8.3,10.3c2.7,2.6,6.3,4.1,10,4.7s7.5,0.5,11.2,0.3c3.1-0.2,6.4-0.5,8.8-2.3
					c0.7-0.5,1.3-1.1,1.6-1.9s0.3-1.7-0.2-2.4c-0.7-1-2.2-1-3.4-1c-5,0.1-10,0.2-15,0.6c-2.8,0.2-5.7,0.5-8.3-0.4
					c-3-1-5.5-3.9-5.2-7.1c0.1-1.6,1-3.2,2.1-4.3c1.2-1.1,2.7-1.9,4.3-2.3c0,0,0,0,0,0c0.7-0.1,2.6-0.1,2.9-0.9
					C55.3,120.2,53.9,120.4,52.8,120.3z"/>
			</g>
			<g>
				<path class="st2" d="M66.7,129.6c3.3-1.7,5.9-4.8,7-8.4c0.3-1.1,0.6-2.2,1.4-3c1-0.9,2.4-0.9,3.7-0.6s2.5,0.9,3.8,1
					c0.8,0.1,1.6,0,2.4,0.1c0.8,0.1,1.6,0.3,2.2,0.9c1.2,1.3-0.2,3.7,0.4,5.4c0.4,1,0.9,2,1.1,3.1c0.2,1.1-0.1,2.4-1,2.9
					c-0.5,0.3-1.2,0.3-1.8,0.3c-6.4,0-12.9-0.5-19.2-1.6"/>
			</g>
			<g>
				<path class="st2" d="M94.8,112c-0.7,2.2-0.7,4.6-0.8,7c0,2.2-0.1,4.5,0.4,6.7c0.3,1.5,0.9,3.1,2,4.2c1.1,1.1,2.9,1.6,4.3,1
					c2-0.9,2.5-3.5,2.1-5.6s-1.4-4.1-1.4-6.3c0-2.9,1.7-5.6,2.3-8.5c0.1-0.6,0.1-1.2-0.3-1.6c-0.5-0.4-1.3,0-1.9,0.4
					c-0.5,0.4-1.1,1-1.8,0.9c-0.7-0.1-1.1-1-1-1.7s0.4-1.4,0.7-2c0,0,0,0,0,0c0.3-0.8,0.6-1.8-0.4-1.4c-0.6,0.2-1.4,1.8-1.8,2.3
					C96.2,108.8,95.3,110.3,94.8,112z"/>
			</g>
			<g>
				<path class="st2" d="M111.9,67.4c0.6,2.2,0.6,4.5,0.6,6.7l0,0c-0.5-2.2-1.1-4.3-1.7-6.4c-0.3-1-0.7-2.1-1-3.1
					c-0.2-0.6-0.8-1.7-0.5-2.4C110.5,63.6,111.4,65.6,111.9,67.4z"/>
			</g>
			<g>
				<path class="st2" d="M113.8,63.1C113.8,63.1,113.8,63.1,113.8,63.1c-0.5-1.3-1.1-2.7-0.7-4.1c0.3-0.9,0.9-1.7,1.7-2.3
					c1.3-1,2.9-1.5,4.4-2.1c2.1-0.9,4.2-2.1,6-3.6c-0.5,1.4-1.2,2.7-2,4c-2,3.4-4,6.8-6,10.1c-0.4,0.6-1.8,3.9-2.7,2.5
					c-0.3-0.4-0.1-1.3-0.1-1.8C114.4,64.9,114.1,64,113.8,63.1z"/>
			</g>
			<g>
				<path class="st2" d="M77.5,67.1C77.5,67.1,77.5,67.1,77.5,67.1c-0.1,2.3,2.9,3.8,2.9,6.2c-1-0.8-2.1-1.5-3.1-2.3s-1.9-1.8-2.3-3
					c-0.4-1.2-0.2-2.7,0.7-3.6c0.6-0.6,2.2-1,2.9-0.2c0.5,0.6-0.1,0.7-0.5,1.2C77.8,65.9,77.5,66.5,77.5,67.1z"/>
			</g>
			<g>
				<path class="st2" d="M74.5,70.8c0.3-0.4,0.6-0.9,0.4-1.4c-0.2-0.6-1-0.7-1.6-0.7c-0.7-0.1-1.4-0.1-2.1,0.1
					c-0.7,0.2-1.3,0.7-1.5,1.4c0,0,0,0,0,0c-0.3,1,0.6,2.6,1.7,2.6C72.6,72.6,73.9,71.5,74.5,70.8z"/>
			</g>
			<g>
				<path class="st2" d="M91.2,50c0.8,0.1,1.5,0.6,2.1,1.2c0.6,0.5,1.2,1.1,2,1.4c0.8,0.3,1.7,0.3,2.3-0.3c0.6-0.6,0.6-1.5,1.2-2
					c0.7-0.6,1.7-0.4,2.5-0.8c0.8-0.4,1.3-1.2,1.4-2.1c0.1-0.9-0.1-1.8-0.3-2.6c-0.2-0.6-0.5-1.3-1.1-1.4c-0.5-0.1-1,0.1-1.4,0.4
					s-0.7,0.8-1,1.1c-0.7,0.7-1.6,1-2.5,1c-0.8,0-1.6-0.4-2.5-0.4c-1,0-1.9,0.5-2.6,1.2c0,0,0,0,0,0c-0.7,0.7-1.5,1.8-1.9,2.8
					C88.9,50.8,90.5,49.8,91.2,50z"/>
			</g>
			<g>
				<path class="st2" d="M111.3,33.8L111.3,33.8c-1.2-0.1-2.5,0.2-3.3,1.2c-0.5,0.6-0.6,1.4-1,2.1c-0.4,1-1.2,1.9-1.6,2.9
					c-0.4,1-0.3,2.4,0.7,3c0.3,0.2,0.8,0.3,1.1,0.5c0.9,0.5,1,1.8,0.9,2.8c-0.3,2.2-1.5,4.2-3.1,5.7c1.2,0.3,2.3,0.8,3.2,1.6
					c1.2,0.9,2.3,2.1,3.8,2c1.1-0.1,2-0.9,2.9-1.6c1.1-0.8,2.2-1.4,3.4-2c1.1-0.6,2.2-1.1,3.4-1.5c0.6-0.2,1.3-0.3,1.8-0.7
					c0.7-0.5,1.1-1.4,1.3-2.2c0.5-1.4,0.8-2.9,1-4.4c0.3-2.1,0.3-4.4-0.7-6.3c-0.9-1.9-3-3.5-5.1-3.2c-1.6,0.2-3,1.4-4.6,1.4
					c-0.7,0-1-0.4-1.6-0.6C113.1,34.2,112.2,33.9,111.3,33.8z"/>
			</g>
		</g>
		<g id="Light">
		</g>
	</g>
	<g id="Details" class="st0">
		<g id="Layer_22">
			<g>
				<path class="st3" d="M110.8,34.4L110.8,34.4c-0.8,0-1.6,0.2-2.2,0.8c-0.9,1-0.7,2.6-1.3,3.8c-0.4,0.8-1.2,1.5-1,2.3
					c0.2,0.6,0.9,1,1.5,0.9c0.6,0,1.2-0.4,1.7-0.8s1-0.8,1.6-1c0.2,1.1-0.2,2.2-0.7,3.2c-0.5,1-1.1,1.9-1.4,3
					c-0.6,2.1,0,4.5,1.5,6.1c1.5,1.6,3.9,2.2,6,1.6c1.8-0.5,3.3-1.8,5.2-2.3c1.1-0.3,2.2-0.3,3.3-0.7c1.2-0.5,2-1.6,2.7-2.7
					c1.5-2.5,2.4-5.5,2.5-8.4c0.1-1.4-0.1-2.9-0.8-4.1c-0.5-0.9-1.3-1.6-2.1-2.1c-1.9-1.2-4.3-1.8-6.6-1.5c-1.9,0.2-3.8,1-5.3,2.2
					c-0.6,0.5-0.9,1-1.8,0.7C112.7,35,111.9,34.4,110.8,34.4z"/>
			</g>
			<g>
				<path class="st4" d="M115.8,37.2c-0.2,1.6-0.8,3.2-1.6,4.6c-0.7,1.2-1.6,2.2-2.4,3.4c-0.8,1.1-1.4,2.4-1.4,3.8
					c0,1.4,0.6,2.8,1.9,3.4c0.8,0.4,1.8,0.4,2.7,0.2s1.7-0.6,2.6-0.9c1.7-0.5,3.5-0.7,5.3-0.8c0.6,0,1.2-0.1,1.8-0.4
					c0.7-0.5,1-1.4,1.3-2.2c0.6-2.4,1.2-4.9,1-7.4c-0.2-2.5-1.5-5-3.7-6.2c0,0,0,0,0,0c-1.6-0.8-3.4-0.9-5.2-0.6
					c-0.6,0.1-1.4,0-1.7,0.6C115.8,35.3,115.9,36.5,115.8,37.2z"/>
			</g>
			<g>
				<path class="st4" d="M100.1,40.6c0.9,1.2,2,2.4,2.3,3.9c0.4,1.5-0.1,3.3-1.5,3.9c-1.1,0.5-2.5,0.1-3.6-0.6
					c-1.1-0.7-2-1.6-3.2-2.1c0.5,1.1-0.1,2.5-1.3,2.9c-0.7,0.3-1.5,0.1-2.2-0.3c-0.7-0.4-1.2-1-1.7-1.6c-2.2-2.9-2.8-7.1-0.8-10.2
					c1.1-1.6,2.7-2.8,4.5-3.6c1-0.5,2-0.9,3.1-1.1c0,0,0,0,0,0c2-0.2,4.2,1.1,4,3.4c-0.1,0.9-0.8,1.6-0.9,2.5
					C98.8,38.8,99.5,39.8,100.1,40.6z"/>
			</g>
		</g>
		<g id="Mouth">
			<g>
				<path class="st5" d="M121.3,45.3c2.7-0.6,5.8-0.3,8.3,0.9c0.6,0.3,1.1,0.6,1.5,1.1c0.5,0.6,0.7,1.4,0.7,2.2
					c0,0.8-0.2,1.5-0.6,2.2c-0.4,0.9-1,1.7-1.8,2.1c-0.8,0.4-2,0.3-2.6-0.4c-0.6-0.8-0.5-1.9-1.2-2.7c-0.5-0.5-1.2-0.7-1.9-0.8
					c-1.8-0.3-3.6-0.6-5.4-0.5c-1.5,0.2-3.1,0.2-4.6-0.2c-0.5-0.2-1.1-0.1-1.3-0.6c-0.2-0.7,0.3-1.1,0.9-1.2
					c0.9-0.2,1.7-0.4,2.6-0.7C117.8,46.4,119.7,45.7,121.3,45.3z"/>
			</g>
			<g>
				<path class="st6" d="M114.8,49.4c-0.3,0-0.6,0-0.8-0.2c-0.3-0.3-0.3-0.9,0-1.2c0.6-0.8,1.9-1,3.1-1.4c1.1-0.4,2.4-0.6,3.3-1.4
					c0.6-0.5,0.9-1.2,1.1-2c0.2-0.8,0.2-1.5,0.3-2.3c-1.8,2.9-4.8,5-8.1,5.9c-0.6,0.2-1.1,0.3-1.7,0.5c-0.2,0.3-0.1,1.1-0.1,1.5
					c0.1,0.5,0.4,1,0.8,1.4c0.7,0.6,1.7,0.7,2.7,0.6l0,0c0.8-0.1,1.8-0.5,2.4-1C117.8,49.3,115.3,49.4,114.8,49.4z"/>
			</g>
			<g>
				<path class="st7" d="M116,49.4c-3.1,0.3-4.1-0.6-3.3-1.7c0.7-0.9,2.8-1.2,4-1.4c2.7-0.5,2.7-0.6,4.3-1c0,0.3-0.9,0.5-2.1,0.8
					C114.5,46.9,115.2,49.3,116,49.4z"/>
			</g>
			<g>
				<path class="st8" d="M129.1,48.3c0.2,0.2,0.5,0.5,0.6,0.8c0.2,0.7-0.6,2-1.3,2.2c-1-0.9-0.8-2.7-1.7-3.7c-0.4-0.5-1-0.8-1.6-1
					s-1.3-0.3-1.9-0.4l0,0c-0.5-0.1-1-0.1-1.5-0.2c-0.3,0-0.8,0-1.1-0.2c2.2-0.5,5.2,0,7,1.2C128.1,47.4,128.7,47.9,129.1,48.3z"/>
			</g>
			<g>
				<path class="st8" d="M120.4,48.5L120.4,48.5c1.2-0.2,2.3-0.5,3.5-0.4c1.2,0.1,2.4,0.7,2.9,1.8c0.2,0.4,0.3,0.9,0.6,1.3
					c0.5,0.6,1.3,0.9,2,0.6c-0.2,0.4-0.7,0.5-1.2,0.4c-1-0.2-1.8-1.2-2.7-1.7c-0.6-0.3-1.3-0.5-2-0.6c-1.6-0.3-3.2-0.3-4.7-0.2
					c-0.6,0-1.2,0.1-1.7,0c-0.3,0-1.2-0.3-0.5-0.5C117.9,48.9,119.2,48.7,120.4,48.5z"/>
			</g>
		</g>
		<g id="Eyes_1_">
			
				<ellipse transform="matrix(0.9565 -0.2916 0.2916 0.9565 -5.8952 33.9979)" class="st9" cx="111.1" cy="36.8" rx="1.8" ry="1.5"/>
			<circle class="st10" cx="111.3" cy="36.8" r="0.8"/>
			<circle class="st11" cx="110.4" cy="36.7" r="0.4"/>
		</g>
	</g>
</g>
<g id="Outlines_2">
	<g>
		<g>
			<path class="st10" d="M69.9,71.6c-4.4,0.3-8.2,5.4-11.4,8.1c-4.6,4-9.5,7.5-13.4,12.4c-1.6,2.1-2.9,4.3-4.4,6.5
				c-1.9,2.8-4.9,3.4-7,5.7c-2.1,2.2-1.4,4.9,0.5,7c0.1,0.1,0.2,0,0.2-0.1c-0.8-3.6-0.6-5.8,2.9-8.3c1.3-0.9,2.3-1.3,3.4-2.5
				c2.6-2.9,4.2-6.5,6.8-9.5c2.7-3.1,5.7-6,8.8-8.7c3.3-2.8,9.5-8.7,13.6-9.8C70.4,72.3,70.4,71.6,69.9,71.6L69.9,71.6z"/>
		</g>
	</g>
	<g>
		<g>
			<path class="st10" d="M80.8,73.6c-1.8-1.9-6.2-4.7-3.4-7.4c0.9-0.9,1.8-1.6,3-2.1c1.7-0.6,2.6,0.1,3.9,1.1
				c0.3,0.2,0.6-0.1,0.5-0.4c-0.4-1.4-1.9-1.7-3.2-1.8c-1.8-0.1-3.5,1-4.8,2.1c-1.1,1-2.2,2.3-1.6,3.9c0.3,0.7,0.9,1.1,1.5,1.5
				c1.4,1,2.6,2.2,4,3.3C80.8,73.9,80.9,73.7,80.8,73.6L80.8,73.6z"/>
		</g>
	</g>
	<g>
		<g>
			<path class="st10" d="M71.7,73.2c-1.8-2.4,1.3-2.2,2.7-2.7c1-0.4,2.2-1.5,1.5-2.6c-0.1-0.2-0.5-0.3-0.7-0.1
				c-0.7,0.8-1.3,1.2-2.3,1.3c-0.9,0.2-1.8,0.4-2.5,1.1c-1.2,1.3-0.3,2.6,1.1,3.2C71.6,73.5,71.7,73.3,71.7,73.2L71.7,73.2z"/>
		</g>
	</g>
	<g>
		<g>
			<path class="st10" d="M33.2,105.8c0.9-1.5,1.2-2.8,0.1-4.4c-1.5-2.1-5.6-2.4-5.5-5.5c0-0.2-0.3-0.3-0.4,0
				c-0.2,1.4,0.5,2.4,1.6,3.3c0.9,0.7,2.2,1,2.9,1.9c0.9,1,1.3,3.3,1,4.6C33,105.8,33.2,105.9,33.2,105.8L33.2,105.8z"/>
		</g>
	</g>
	<g>
		<g>
			<path class="st10" d="M27.5,95.7c-3,7.2-4.7,16.2,0.7,22.8c2.5,3.1,6.3,4.7,9,7.7c1.3,1.4,2.4,2.7,4.1,3.6c2.8,1.5,5.8,1.8,7.5,5
				c0.1,0.3,0.5,0,0.4-0.2c-1.5-2.8-3.8-3.2-6.4-4.7c-3.2-1.8-4.9-5.2-7.8-7.4c-4.4-3.2-7.7-5.4-9-11c-1.3-5.3,0.1-10.7,1.8-15.7
				C27.9,95.6,27.6,95.5,27.5,95.7L27.5,95.7z"/>
		</g>
	</g>
	<g>
		<g>
			<path class="st10" d="M58,120.1c-4.4,1.9-10.8,1-11.4,7.2c-0.4,3.2,1.2,10.6,5.9,9.2c0.1,0,0.2-0.3,0-0.3
				c-5.2-0.9-6.6-10.6-2.3-13.2c2.5-1.5,5.6-1,8-2.7C58.2,120.2,58.1,120.1,58,120.1L58,120.1z"/>
		</g>
	</g>
	<g>
		<g>
			<path class="st10" d="M60.9,101.8c5.8,0.3,11.6,1.5,14,7.6c1.5,3.9-1.7,11.2-3.6,14.6c-3.7,6.5-11,5-15.6,10
				c-0.1,0.1,0.1,0.3,0.2,0.2c4.3-3.5,10.4-2.4,14.4-6.3c3.1-3.1,4.8-8.3,5.6-12.4C78,105.5,69.7,101.2,60.9,101.8
				C60.9,101.8,60.9,101.8,60.9,101.8L60.9,101.8z"/>
		</g>
	</g>
	<g>
		<g>
			<path class="st10" d="M63.9,130.6c2.5-0.5,4.9-0.4,7.4,0.1c0.9,0.2,1.9,0.5,2.7,0.8c1.8,0.7,5.3,4.3,1.9,4.9
				c-0.2,0-0.2,0.4,0,0.4c3.4,0.6,3-3.4,1.1-5c-3.6-2.8-9-2.5-13.1-1.4C63.7,130.5,63.8,130.6,63.9,130.6L63.9,130.6z"/>
		</g>
	</g>
	<g>
		<g>
			<path class="st10" d="M51.5,136.7c5.1,0.2,10.2-0.5,15.3-0.1c3.7,0.3,7.3,1.5,10.8-0.2c0.3-0.2,0.1-0.6-0.2-0.6
				c-4.4,1.2-9.7-0.2-14.2-0.2c-3.9,0-7.9,0.2-11.8,0.8C51.3,136.5,51.3,136.7,51.5,136.7L51.5,136.7z"/>
		</g>
	</g>
	<g>
		<g>
			<path class="st10" d="M71.7,125.6c0.8,0.5,1.6,1.1,2.1,1.9c0.5,0.7,1.1,2.4-0.1,2.8c-0.4,0.1-0.4,0.7,0.1,0.8
				c1.7,0,2.1-1.7,1.6-3c-0.6-1.5-1.9-2.6-3.5-2.9C71.7,125.1,71.5,125.4,71.7,125.6L71.7,125.6z"/>
		</g>
	</g>
	<g>
		<g>
			<path class="st10" d="M72,124.1c5.1-1.1,10.3-2.4,15.3-4c0.6-0.2,0.4-1.1-0.3-1C82.1,120.2,76.3,121.3,72,124.1
				C71.9,124,71.9,124.1,72,124.1L72,124.1z"/>
		</g>
	</g>
	<g>
		<g>
			<path class="st10" d="M108.1,60.1c1.8,5,3.3,10.2,4.8,15.3c0,0.1,0.1,0.1,0.1,0C112.1,70,110.4,65,108.1,60.1
				C108.1,60,108,60.1,108.1,60.1L108.1,60.1z"/>
		</g>
	</g>
	<g>
		<g>
			<path class="st10" d="M125.3,50.7c-2.1,2.7-5.6,3.6-7.8,6.2c-2.7,3.2-2.7,8-4.3,11.7c0,0.1,0.1,0.3,0.2,0.1
				c2.8-3.4,2.2-8.3,5.4-11.5c2.3-2.3,5.7-3.1,6.8-6.4C125.6,50.7,125.4,50.6,125.3,50.7L125.3,50.7z"/>
		</g>
	</g>
	<g>
		<g>
			<path class="st10" d="M96.4,112.9c8-4.4,17.8-13,19-22.6c0-0.2-0.3-0.3-0.3-0.1c-4.1,9.5-11.1,15.9-19,22.3
				C95.9,112.7,96.2,113,96.4,112.9L96.4,112.9z"/>
		</g>
	</g>
	<g>
		<g>
			<path class="st10" d="M114.7,92.8c1.4-2.1,1.2-5.7,1.1-8.1c-0.4-5.5,1.8-12.3-1.3-17.3c-0.1-0.2-0.5-0.1-0.4,0.2
				c1.7,5-0.2,9.6,0.2,14.7c0.2,3.4,1.6,7,0.2,10.4C114.4,92.8,114.6,92.9,114.7,92.8L114.7,92.8z"/>
		</g>
	</g>
	<g>
		<g>
			<path class="st10" d="M87.4,101.5c-2,1.6-2,2.5-1.6,4.8c0.7,4.9,1.4,9,1.1,14c-0.2,4.1,1.6,6.9,2.1,10.8c0.3,2.3,0.3,3.7,2.5,4.8
				c0.5,0.2,0.8-0.4,0.4-0.7c-1.7-1.3-2.3-6-2.9-8.2c-1.2-4.1-1.2-5.4-0.9-9.3c0.1-2.3,0.2-4.6-0.1-6.8
				C87.6,108,85.6,104,87.4,101.5C87.5,101.5,87.4,101.4,87.4,101.5L87.4,101.5z"/>
		</g>
	</g>
	<g>
		<g>
			<path class="st10" d="M101.6,99.6c-2.2,2.2-2.3,5.2-3.7,7.9c-2.1,4-2.3,5.5-2.1,10.2c0.1,3.3-1.3,7.1,0,10.2
				c1.3,3.1,7.8,4.2,7.7,7.4c0,0.4,0.7,0.4,0.7,0c0-1.4-0.1-2.6-1.2-3.6c-2.1-2,0,0.9-2.7-1.1c-1.4-1.8-2.8-3.7-4.2-5.5
				c0-1.6,0.1-3.2,0.4-4.8c0.3-3.9-0.3-7.4,1.5-11.1c1.3-2.7,2-7.4,3.8-9.4C101.8,99.7,101.7,99.5,101.6,99.6L101.6,99.6z"/>
		</g>
	</g>
	<g>
		<g>
			<path class="st10" d="M83,120.7c0.8,0.8,1.5,1.7,1.8,2.9c0.3,1.2,0.4,2.5,0.8,3.7c0.5,1.3,1.4,2.5,2.9,2.7
				c0.5,0.1,0.7-0.7,0.2-0.8c-4.1-0.7-1-9-5.7-8.8C83,120.5,82.9,120.6,83,120.7L83,120.7z"/>
		</g>
	</g>
	<g>
		<g>
			<path class="st10" d="M95.6,124.8c0.1,0.3,0.3,0.3,0.5,0.5c0.4,0.3,0.8,0.7,1,1.1c0.6,0.9,0.6,1.9,0.3,2.9
				c-0.2,0.6,0.8,0.9,0.9,0.3c0.4-1.2,0.3-2.5-0.5-3.6c-0.4-0.6-1.6-1.6-2.3-1.2C95.6,124.8,95.6,124.8,95.6,124.8L95.6,124.8z"/>
		</g>
	</g>
	<g>
		<g>
			<path class="st10" d="M96.1,132.2c0.3,0.6,0.8,1,1,1.7c0.2,0.7-0.1,1.4-0.2,2.1c-0.1,0.4,0.4,0.6,0.6,0.3
				c0.7-1.1,0.1-3.7-1.3-4.1C96.1,132.1,96,132.1,96.1,132.2L96.1,132.2z"/>
		</g>
	</g>
	<g>
		<g>
			<path class="st10" d="M99.6,130.9c0.8,0.6,1.4,1.1,1.9,2c0.3,0.6,0.5,1.4,0.3,2c-0.1,0.4-0.4,0.7-0.7,1c-0.2,0.2,0.1,0.5,0.3,0.4
				c1.3-0.3,1.2-2,0.9-2.9c-0.4-1.2-1.4-2.3-2.6-2.7C99.6,130.8,99.5,130.8,99.6,130.9L99.6,130.9z"/>
		</g>
	</g>
	<g>
		<g>
			<path class="st10" d="M101.7,136c0.1,0.5,1,0.4,1.3,0.3c0.5-0.2,1.1-0.7,1-1.3c0-0.2-0.3-0.3-0.4-0.2c-0.3,0.2-0.4,0.6-0.9,0.8
				c-0.3,0.1-0.7,0-1,0.3C101.7,135.9,101.6,136,101.7,136L101.7,136z"/>
		</g>
	</g>
	<g>
		<g>
			<path class="st10" d="M91,135.5c0.9,1,2.5,1.2,3.8,1.3c1,0.1,2.4,0.2,2.8-0.9c0.1-0.3-0.3-0.7-0.5-0.4c-1.4,1.5-4.3-0.2-6-0.1
				C91,135.3,90.9,135.4,91,135.5L91,135.5z"/>
		</g>
	</g>
	<g>
		<g>
			<path class="st10" d="M96.5,136.4c1.3,0.4,2.7,0.4,4,0.2c0.7-0.1,1.4-0.3,1.3-1.1c0-0.2-0.3-0.2-0.4-0.2
				c-0.8,0.5-1.6,0.4-2.5,0.4c-0.9,0-1.6,0.1-2.5,0.3C96.3,136.1,96.3,136.4,96.5,136.4L96.5,136.4z"/>
		</g>
	</g>
	<g>
		<g>
			<path class="st10" d="M91.5,49.2c-3.5-3,0.1-6.9,2.5-9c0.9-0.8,1.8-1.5,2.6-2.4c0.4-0.5,2.5-3.9,3.4-1.8c0.1,0.1,0.2,0.1,0.2-0.1
				c-0.8-3.8-6.4,3.3-7.2,3.9C90.4,42.2,87.3,46.7,91.5,49.2C91.5,49.4,91.6,49.3,91.5,49.2L91.5,49.2z"/>
		</g>
	</g>
	<g>
		<g>
			<path class="st10" d="M99.3,36.8c-1.6-0.2-1.6,1.6-0.9,2.6c0.8,1.1,2,1.9,2.7,3.2c0.7,1.2,2.3,4.2,0.4,5.3
				c-0.6,0.4-1.6,0.3-2.2,0.2c-2.3-0.5-3.9-2.7-6.2-2.8c-1.3-0.1-2.5,0.5-1.8,1.9c0.1,0.1,0.3,0.1,0.3,0c0.6-2.3,5.2,1,6.7,1.4
				c1.2,0.4,2.7,0.5,3.7-0.4c1.4-1.2,0.9-3.1,0.3-4.5C101.8,42.5,98,37.5,99.3,36.8C99.4,36.8,99.3,36.8,99.3,36.8L99.3,36.8z"/>
		</g>
	</g>
	<g>
		<g>
			<path class="st10" d="M85.7,66c-2.6-3.7,0.2-6.7,2-9.8c1.3-2.1,1.3-5.7,3.2-7.3c0.3-0.2-0.1-0.6-0.4-0.4
				c-1.2,1.2-1.7,2.3-2.3,3.8c-1,2.6-2.7,4.6-3.9,7.2C83.2,62,83.1,64.7,85.7,66C85.7,66.1,85.8,66.1,85.7,66L85.7,66z"/>
		</g>
	</g>
	<g>
		<g>
			<path class="st10" d="M100.3,35.7c1.4-0.9,2.5-2,4.2-2.4c2-0.6,4-0.2,6,0.4c0.1,0,0.2-0.1,0.1-0.2c-3.1-1.8-8.5-1.3-10.5,2
				C99.9,35.6,100.1,35.8,100.3,35.7L100.3,35.7z"/>
		</g>
	</g>
	<g>
		<g>
			<path class="st10" d="M109,33.7c2.4-0.5,4.5,1.4,6.8,1.7c0.3,0,0.4-0.4,0.1-0.5C113.6,34.6,111.4,32.3,109,33.7
				C109,33.7,109,33.7,109,33.7L109,33.7z"/>
		</g>
	</g>
	<g>
		<g>
			<path class="st10" d="M116.4,36.8c0.4-0.3,0.9-0.4,1.4-0.4c0.3,0,0.5,0,0.7-0.3c0.2-0.2,0.2-0.5,0-0.7c-0.2-0.2-0.5-0.2-0.7-0.1
				c-0.4,0.1-0.2,0.5,0.1,0.6c0-0.1-0.1-0.2-0.2-0.1c-0.1,0-0.2,0.1-0.3,0.1c-0.1,0-0.2,0.1-0.4,0.2c-0.3,0.2-0.5,0.4-0.7,0.7
				C116.2,36.8,116.3,36.9,116.4,36.8L116.4,36.8z"/>
		</g>
	</g>
	<g>
		<g>
			<path class="st10" d="M108.9,49.8c0-3.5,1.6-5.2,3.5-7.9c1.3-1.8,0.9-5.5,2.8-6.7c0.2-0.1,0-0.5-0.2-0.3
				c-0.7,0.5-0.9,0.9-1.2,1.7c-0.8,2.4-0.8,4-2.6,6.2C109.4,44.8,108.5,47,108.9,49.8C108.8,49.9,108.9,49.9,108.9,49.8L108.9,49.8z
				"/>
		</g>
	</g>
	<g>
		<g>
			<path class="st10" d="M111.6,45.2c1.4-1.3,2.6-2.9,3.4-4.7c0.3-0.7,0.6-1.4,0.8-2.2c0.3-1.1,0.1-2.3,0.4-3.3
				c0.1-0.2-0.2-0.2-0.3-0.1c-0.6,1.5-0.6,3.2-1.2,4.7c-0.8,2-1.8,3.7-3.2,5.4C111.5,45.2,111.6,45.3,111.6,45.2L111.6,45.2z"/>
		</g>
	</g>
	<g>
		<g>
			<path class="st10" d="M115.9,35.3c2.2-1.5,5.4,1.8,6.2,3.5c1,2.1,1,4.3-0.3,6.2c-0.1,0.1,0.1,0.3,0.2,0.2
				c2.2-2.1,1.5-5.5-0.1-7.7c-1.2-1.7-4.2-4.2-6.2-2.5C115.6,35.2,115.7,35.4,115.9,35.3L115.9,35.3z"/>
		</g>
	</g>
	<g>
		<g>
			<path class="st10" d="M110.9,47.3c4,0.2,11.7-3.2,11.2-8.1c0-0.1-0.2-0.1-0.2,0C121,43.7,115.1,46.5,110.9,47.3
				C110.9,47.3,110.9,47.3,110.9,47.3L110.9,47.3z"/>
		</g>
	</g>
	<g>
		<g>
			<path class="st10" d="M109.3,37.4c0.2-0.4,0.3-0.9,0.7-1.2c0.4-0.2,0.8-0.4,1.3-0.4c0.6,0,0.9,0.3,1.2,0.7
				c0.3,0.4,0.2,0.6,0.1,1.1c0,0.1,0.1,0.2,0.2,0.1c0.4-0.3,0.5-1,0.4-1.5c-0.1-0.6-0.8-1.1-1.4-1.2c-0.7-0.1-1.3,0-1.8,0.5
				C109.5,35.9,109.1,36.8,109.3,37.4C109.2,37.4,109.2,37.4,109.3,37.4L109.3,37.4z"/>
		</g>
	</g>
	<g>
		<g>
			<path class="st10" d="M109.2,37.6c0.7,0.6,1.9,1.1,2.9,0.8c0.6-0.2,1.4-1.1,0.8-1.7c-0.1-0.1-0.2,0-0.2,0
				c-0.4,0.6-0.4,1.1-1.2,1.3C110.6,38,110,37.6,109.2,37.6C109.2,37.5,109.2,37.5,109.2,37.6L109.2,37.6z"/>
		</g>
	</g>
	<g>
		<g>
			<path class="st10" d="M112.1,47.4c-0.7,1.3-0.2,3,1.2,3.6c0.7,0.3,1.5,0.3,2.2,0.1c1.1-0.3,2-0.7,3.1-0.9c0.1,0,0.1-0.1,0-0.2
				c-0.8-0.5-1.8-0.2-2.6,0c-0.7,0.2-1.5,0.5-2.2,0.4C112.4,50,111.9,48.7,112.1,47.4C112.2,47.4,112.1,47.3,112.1,47.4L112.1,47.4z
				"/>
		</g>
	</g>
	<g>
		<g>
			<path class="st10" d="M114.6,49.5c2.9,0.4,5.8,0.5,8.7,0.9c0.8,0.1,1.8,0.1,2.5,0.5c0.6,0.3,0.9,0.9,1.5,1.2
				c0.4,0.2,0.5,0.4,0.9,0.4c0.1,0,0.1,0,0.2-0.1c0-0.1,0.1-0.1,0.1-0.2c0.1-0.1,0-0.1-0.1-0.1c-0.8,0.1-1.7-1.1-2.4-1.5
				c-0.7-0.4-1.6-0.7-2.4-0.8c-2.9-0.4-6.1-0.2-9.1-0.3C114.5,49.4,114.5,49.5,114.6,49.5L114.6,49.5z"/>
		</g>
	</g>
	<g>
		<g>
			<path class="st10" d="M118.8,46.1c3.1-0.3,7.3-0.4,8.5,3.1c0.1,0.2,0.8,3,1.4,1.9c0,0,0-0.1,0,0c-0.5,0.6-1.2-2.1-1.3-2.3
				c-0.2-0.5-0.3-0.9-0.7-1.3c-0.4-0.5-0.9-0.8-1.4-1C123.4,45.7,120.9,45.9,118.8,46.1C118.8,46.1,118.8,46.1,118.8,46.1
				L118.8,46.1z"/>
		</g>
	</g>
	<g>
		<g>
			<path class="st10" d="M119.4,45.9c2.1-0.7,4.3-0.9,6.4-0.3c1,0.3,2,0.6,2.8,1.2c2.4,1.6,2.1,4.3-0.7,5.3c-0.1,0.1-0.1,0.3,0,0.3
				c2.7-0.2,3.3-3.5,1.6-5.2C126.9,44.6,122.7,44.4,119.4,45.9C119.4,45.9,119.4,45.9,119.4,45.9L119.4,45.9z"/>
		</g>
	</g>
	<g>
		<g>
			<path class="st10" d="M71.5,132c0.9,0.4,1.6,1.1,1.8,2c0.3,0.9,0,1.6,0,2.5c0,0.5,0.7,0.7,1,0.3c0.9-1.9-1-4.3-2.7-5
				C71.5,131.8,71.4,131.9,71.5,132L71.5,132z"/>
		</g>
	</g>
</g>
</svg>
