<?xml version="1.0" encoding="utf-8"?>
<!-- Generator: Adobe Illustrator 22.1.0, SVG Export Plug-In . SVG Version: 6.00 Build 0)  -->
<svg version="1.1" id="Card_1" xmlns="http://www.w3.org/2000/svg" xmlns:xlink="http://www.w3.org/1999/xlink" x="0px" y="0px"
	 viewBox="0 0 155.9 155.9" style="enable-background:new 0 0 155.9 155.9;" xml:space="preserve">
<style type="text/css">
	.st0{clip-path:url(#SVGID_2_);}
	.st1{fill:#DDA66B;}
	.st2{fill:#C17E4B;}
	.st3{fill:#E8BE95;}
	.st4{fill:#9E653E;}
	.st5{fill:#090A09;}
	.st6{fill:#222221;}
	.st7{fill:#444444;}
	.st8{fill:#010202;}
</style>
<g id="Colours">
	<defs>
		<path id="SVGID_1_" d="M29.2,138c-0.7-1.3-0.4-2.1,0-3.5c0.4-1.4,0.9-2.2,1.1-3.7c0.9-5.4-1.6-11.2,0.1-16.4
			c0.5-1.4,1.3-2.7,1.8-4.2c1.6-4.8-0.7-9.9-0.5-15c0.1-2.8,1.1-5.4,1.4-8.2c0.5-4.3-0.7-8.7,0-13c0.6-3.7,2.4-7,4.2-10.3
			c1.1-1.9,2.1-3.8,3.2-5.7c-0.9-0.8-1-1.6-1.2-2.8C39,54.2,38.9,53,39.3,52c0.4-1.1,1.1-2.3,2.7-2.5c1.1-0.1,2.2,0.1,2.4,1.9
			c0.5-0.4,1.3-1.1,1.8-1.6c-0.3-1.4,0.1-3.2,0.6-4.5c0.7-1.6,1.6-3,2.7-4.4c0.9-1.2,2-2.3,3.3-2.9c1.3-0.7,2.9-0.9,4.3-0.3
			c1,0.5,1.7,1.4,2.4,2.3c0.9,1.3,1.6,2.6,1.5,4.3c0,1.1,0.5,2,1.5,2.7s2.2,0.9,3.4,1c1.2,0.1,2.4,0,3.6,0.3
			C73,48.9,76,52,79.6,51.6c1.3-1.2,3.2-2.3,4.7-3.1c1.5-0.8,3.2-1.6,4.3-3.4c0.2-3.6,0.8-6.2,3.2-8.9c-0.1-1.1,0-2.7,0.2-3.8
			c0.1-0.6,0.3-1.1,0.6-1.6c0.3-0.5,0.8-0.9,1.3-1.4c1.4-1.3,2.9-2.5,4.3-3.8c0.8-0.7,1.7-1.5,2.7-1.9c1-0.2,1.8-0.7,2.7-1.2
			c1.4-0.9,3.4-1.6,5-1.7c1.2-0.1,2.5,0.1,3.7,0.1c0.7,0,1.5-0.1,2.2-0.1c1.1,0.1,1.9,1.5,3,1.9c0.7,0.3,2.2,1.1,2.8,1.6
			c1.5,1.1,1,2.3,1.6,3.6c1.9,0.3,2.7,0.4,4.5,1s3.7,1.8,4.5,3.6c0.6,1.4,0.7,3,1.2,4.4c0.3,0.8,0.8,1.5,1,2.2
			c0.3,1.2,0.1,2.5-0.1,3.7c-0.2,1.4-0.2,2.8-0.1,4.1c0,0.5,0.1,1-0.1,1.4c-0.1,0.5-0.4,0.9-0.9,0.9c-0.4,0.3-1,0.1-1.3-0.2
			c-1,1.1-2.8,0.6-3.8,1.6c-0.3,0.3-0.4,0.6-0.7,0.9c-0.5,0.7-1.3,1.1-2.2,1.3c-0.7,0.1-1.5,0-2,0.4c-0.4,0.3-1,0.7-1.5,1.1
			c-0.5,3.4-0.9,6.6-0.2,10c0.3,1.2,0.7,2.4,0.9,3.7c0.4,2.6-0.2,5.3-0.4,8c-0.1,0.9-0.3,1.7-0.6,2.6l-0.3,0.9
			c0.4,5.7-1.7,11.2-4.5,16.2c-0.4,0.7-0.8,1.5-0.7,2.3c-0.2,1.6-0.9,3.6-1.6,4.9c0.5,2.8,0.4,5.7-0.7,8.3c-0.8,1.8-1.9,3.4-2.3,5.3
			c-0.3,1.4-0.2,2.9-0.3,4.4c-0.3,2.4-1.4,4.7-1.6,7.1c-0.1,1.5,0.1,2.9,0.4,4.3c0.3,1.5,0.5,3,0.8,4.5c0.1,0.5,0.2,1,0.4,1.4
			c0.3,0.4,0.7,0.7,1,1c1.1,1,1.5,2.3,1.2,3.8c-0.1,0.4-0.4,0.9-0.7,1c-0.7,0.3-1.6,0.4-2.3,0.3c-0.8,0-1.6-0.1-2.4-0.4
			c-0.2-0.1-0.5-0.2-0.8-0.3c-0.4-0.1-0.9,0-1.4-0.1c-1-0.1-2.5-0.5-2.5-1.5c-0.7-2.2,0.5-7.6-0.4-11.5c-0.3-1.3-0.8-2.6-0.8-4
			c0-1,0.1-1.9,0.2-2.9c0.3-1.9,0.3-3.9,0.4-5.8c0.2-4.5,0.4-9-0.1-13.4c-0.3,0.2-1.1,0.4-1.5,0.4c-1.1,0.1-2.1-0.6-3.2-0.7
			c-1.1-0.1-2.2,0.3-3.2,0.9c0.4,5.4-1.9,10-1.8,15.4c0,2,0.3,3.9,0.2,5.9c-0.1,1.4-0.5,2.8-0.5,4.3c0,1.4,0.4,2.7,0.8,4
			c0.3,1.1,0.7,2.3,1,3.4c0.2,0.7,0.4,1.1,0.9,1.6c0.4,0.5,0.9,0.8,1.4,1.2c0.9,0.9,1.1,1.7,0.9,2.9c-0.1,0.4-0.4,0.6-1,0.7
			c-0.6,0.2-1.3,0.3-1.9,0.3c-1.1,0-2.2,0.4-3.3,0.2c-0.6-0.1-1.2-0.4-1.9-0.4c-0.6-0.1-1.5,0-2.1-0.1c-0.9-0.2-0.8-0.8-1.2-1.6
			c0.1-4.5-0.5-8-1.5-12.4c-0.4-1.8-0.9-3.6-1.1-5.4c-0.1-1.6,0-3.2-0.1-4.8c-0.2-2.4-0.9-4.7-1-7c-0.1-3.6,1.1-5.9,0.5-9
			c-1.9-0.4-3.3-1.8-4.7-3.1c-2-1.9-3.9-3.8-5.9-5.8c-1.8-1.7-3.4-3.2-5.7-4c0.4,6.7-1.7,13.5-5.7,18.8c-1.5,2-3.4,4-3.8,6.5
			c-0.3,2.1,0.5,4.5-0.9,6.2c-0.2,0.3-0.6,0.6-0.8,0.9c-0.3,0.5-0.4,1.1-0.5,1.6c-0.2,1.3-0.4,2.6-0.5,3.9c0,0.5-0.1,1,0.1,1.4
			c0.2,0.5,0.7,0.9,1.1,1.3c1,1.1,1.4,1.8,1.2,3.2c0.1,0.4-0.3,0.7-0.5,0.8c-0.3,0.1-0.5,0.1-0.8,0.2c-0.3,0.1-0.6,0.3-0.9,0.4
			c-1.1,0.5-2.5,0.5-3.6,0c-0.2-0.1-0.3-0.2-0.5-0.2c-0.2,0-0.5,0-0.7,0c-0.9,0.1-2.4-0.5-2.6-1.1c-0.8-2.9-1-3.2-0.4-5.7
			c0.6-2.5,1.5-5.1,0.7-7.4c-0.2-0.7-0.6-1.3-0.8-1.9c-0.5-1.5-0.2-3.1,0.3-4.5s1.4-2.7,2.1-4.1c2.8-5.4,3.7-12.1,2.3-17.9
			c-0.7,0.6-1.4,1.3-2.1,2c-3.5,4-4.4,9.5-6.5,14.3c-0.5,1.2-1.1,2.3-1.4,3.6c-0.2,0.9-0.2,1.8-0.5,2.6c-0.4,1-1.2,1.9-1.4,3
			c-0.2,1.3,0.6,2.7,0.4,4c-0.1,0.7-0.5,1.2-0.8,1.9c-1,2.1-0.8,4.5-0.4,6.7c0.4,2.2,1.9,4.7,1,6.2c-0.2,0.5-0.8,0.7-1.4,0.8
			c-0.9,0.1-1.8,0.2-2.7,0c-0.3-0.1-0.6-0.2-0.9-0.1c-0.3,0-0.5,0.1-0.7,0.2c-0.4,0.1-0.8,0-1.2,0C30.8,138.7,29.3,138.6,29.2,138z"
			/>
	</defs>
	<clipPath id="SVGID_2_">
		<use xlink:href="#SVGID_1_"  style="overflow:visible;"/>
	</clipPath>
	<g id="Base" class="st0">
		<rect x="21.2" y="15.7" class="st1" width="114.7" height="129.4"/>
		<g id="Darks">
			<g>
				<path class="st2" d="M40.8,53.3c-0.2,2.3,2.1,4.2,4.4,4.4c2.3,0.2,4.5-1,6.3-2.4c4.5-3.3,8.2-8.3,8.4-13.9
					c1,0.7,0.4,1.7,0.9,2.9c-0.7,4.8-4.1,8.9-6.5,10.9c-2.7,2.2-4.3,3-7.6,4.1c-1,0.3-3.2,0.5-4.2,0.2c-1.3-0.4-2.3-1.4-2.9-2.6
					c-0.9-2-2.2-3.8-1.1-5.7c0.4-0.6,0.9-1.1,1.4-1.5c0.7-0.6,1.6-1,2.5-1.1c0.9,0,1.9,0.5,2.1,1.4c0,0,0,0,0,0
					c0.4,1.7-1.1,2.1-1.8,1.6C41.7,51.9,40.9,52,40.8,53.3z"/>
			</g>
			<g>
				<path class="st2" d="M92.4,38.1L92.4,38.1c-0.6-1.9-0.7-4.1,0-6c0.9-2.6,3.1-4.4,5.3-6.1c1.5-1.2,3.3-2.5,5.2-2.2
					c0.4,0.1,0.8,0.3,0.8,0.6c0,0.4-0.4,0.6-0.7,0.9c-1,0.7-1.4,2-1.5,3.3c-0.1,1.2,0.1,2.5,0.1,3.7c0,1.3-0.4,2.7-1.5,3.2
					c-1.3,0.6-2.7-0.1-4.1-0.1c-0.4,0-0.8,0.1-1.1,0.4c-0.3,0.2-0.4,0.6-0.5,1c-0.4,1.6-0.2,3.3,0.6,4.8c0.4,0.7,0.9,1.4,0.9,2.1
					C94.5,44.3,92.7,39,92.4,38.1z"/>
			</g>
			<g>
				<path class="st2" d="M34,91.3c1.8,2.8,1.7,12.4,0,17.6c-1,3.1-3.8,4.1-4.2,9.9c-0.1,1.2,0.3,7.6,1.3,8.2c1.2,0.6,4.9,0,5.7-1.2
					c2.3-3.5,5.5-21.2,6.1-25.3c0.6-3.9,0.5-8,2.2-11.5c0.8-1.6,2.1-3.1,3.9-3.4c1.8,2.7-1.4,5.3-2.4,7.9c-1.5,3.8-1.7,8-2.4,12.1
					s-4.1,15.2-4.2,16.3c-0.1,2.2-1.9,6.8-2.3,7.4c-0.4,0.5,4.4,5.4,0.2,2.7s-5-1.9-7.6-0.4c-0.8,0.5-2.6,1.2-3.5,0.9
					c-1.9-0.6-1.2-3.3-1.8-5.2C22,116.8,28,116.7,28,105.7c0-2.1-0.1-4.4,1.1-6.1c0,0,0,0,0,0c1.3-1.8,2.5-2.8,2.7-5.1
					C31.9,93.7,32.6,89,34,91.3z"/>
			</g>
			<g>
				<path class="st2" d="M84.5,115.2c1.1,2-0.7,6.4,0,13.5c0.3,2.5,2,6,4.2,5.7c1.2-0.2,2.1-0.7,2.5-1.3c1-1.4,0.4-3.8,0.9-3.8
					c1.2,0.1,0.3,2.9,0.5,4.1c0.7,3.6,0.8,2.3,2.2,6.9c-1.9-0.6-2.4-3.4-4.6-3.7c-1.3-0.1-4.5,0.9-4.4,1.9s-0.2,2.2-1.2,2.2
					c-0.3,0-0.6-0.2-0.9-0.4c-0.8-0.7-0.4-1.8-0.7-2.8c-2.3-7.1-4.2-17.2-4.8-24.7c0,0,0,0,0,0c-0.1-1.5,0.5-7,3.1-5
					c1.1,0.8,1.3,2.9,1.5,4.5C83.4,114.2,84,114.2,84.5,115.2z"/>
			</g>
			<g>
				<path class="st2" d="M112.9,99.2c2.2,2.5-1.9,6-2.6,8.2c-0.7,2.2,0.4,1.3-0.2,7.4c-0.1,0.8-1.2,2.8-1.5,3.5
					c-1.1,2.8,0,14.6-2.3,16.7c-2.6,0.7-2.7-0.6-3-1.2c-0.4-0.8-2.1-1.6-2.8-1s0.1,2.5,0,3.4c-0.4,3.4-1.5,8.7,0.2,8.6
					c1.7-0.1,0.1-2.4,1.2-4c0.6-0.8,0.5-2,1.2-2.7c0.8-0.8,2.4-0.1,4.6-0.8c1.4-0.5,1.7-3.5,2.2-5.3c1.5-6.1,5.9-18.4,5.4-24.7
					c-0.2-2.8-1.4-5.6-0.9-8.3c0.5-2.6,2.3-4.6,3.7-6.9c2.3-3.6,3.5-8.1,1.9-12c-1.3,3-3,4.4-4.5,5.7c-0.7,0.6,3.3-0.4,1.8,4.3
					c-1.2,3.7-1.8,1.8-2.6,3C112.7,95.9,110.8,96.8,112.9,99.2z"/>
			</g>
			<g>
				<path class="st2" d="M77.4,76.8c1-3.8-0.7-7.8-0.7-11.7c0-2.9,0.8-5.6,1.9-8.3"/>
			</g>
			<g>
				<g>
					<path class="st2" d="M86.2,66.6c0.3,0.6,0.8,0.9,1.3,1.4c0.6,0.7,1.1,1.5,1.6,2.2c1.1,1.4,2.6,2.8,3.9,4
						c0.2,0.2,0.6-0.1,0.4-0.3c-0.6-0.9-1.3-1.7-1.9-2.6c-0.5-0.8-0.9-1.5-1.6-2.3C89.1,68.1,87.5,66.5,86.2,66.6
						C86.2,66.5,86.2,66.5,86.2,66.6L86.2,66.6z"/>
				</g>
			</g>
			<g>
				<path class="st2" d="M96.1,53.1c-0.1,1.3-0.3,2.6,0.3,3.7c0.9,1.7,3.4,2.5,3.9,4.4"/>
			</g>
			<g>
				<path class="st2" d="M92,36.7c-0.1,1.6-0.3,3.3,0.5,4.8c0.4,0.8,1.1,1.4,1.9,1.8"/>
			</g>
			<g>
				<g>
					<path class="st2" d="M56.8,78.7c0.8,1.3,1,2.4,1.4,3.8c0.3,1.1,0.1,2.3,0.5,3.4c0.9,2.2,4.7,4,6.6,5.2c0.1,0.1,0.2-0.1,0.1-0.1
						c-1.1-1.1-2.4-2.1-3.4-3.2c-0.6-0.7-1.6-2-1.8-3c-0.1-0.5,0-1.1-0.1-1.6c-0.3-1.1-1.2-1.9-1.7-2.9C58,79.5,57.7,79,56.8,78.7
						C56.8,78.6,56.7,78.6,56.8,78.7L56.8,78.7z"/>
				</g>
			</g>
			<g>
				<g>
					<path class="st2" d="M69.3,93.2c1.2,2.5,3.4,4.2,5.5,5.9c2.2,1.7,4.2,3.7,6.8,4.7c0.4,0.2,0.8-0.4,0.6-0.7
						c-1.5-2-3.6-3.3-5.6-4.8c-2.4-1.8-4.7-3.5-7-5.4C69.4,92.8,69.2,93,69.3,93.2L69.3,93.2z"/>
				</g>
			</g>
			<path class="st3" d="M60.6,45.7c1.2,2.9,3.4,3.7,6.3,4.1c2.2,0.4,4.3,0.7,6.5,1.3c1.9,0.5,3.6,1.4,5.6,1.2c0.6,0,0.6-0.9,0-1
				c-3.4-0.2-6-2-9.2-2.8c-3-0.7-6.8,0-8.8-3C60.8,45.4,60.5,45.5,60.6,45.7L60.6,45.7z"/>
			<g>
				<path class="st2" d="M76.3,51.6c0.3-0.1,0.4-0.7,0-0.7c-2.7-0.4-5,0.3-7,2c-1.3,1.1-2.4,2.5-3.5,3.8c-0.8,1-1.6,1.9-1.9,3.1
					c0,0,0,0.1,0.1,0c0.9-0.8,1.6-1.8,2.5-2.6c1.1-1,2.3-1.7,3.5-2.5C72,53.2,74,52.5,76.3,51.6z"/>
				<path class="st2" d="M77.2,53.7c0,0-0.1,0-0.1,0.1c-0.1-0.1-0.2-0.1-0.3,0c-0.3,0.2-0.6,0.5-0.8,0.7c-1.3,0.8-2.5,1.7-3.6,2.8
					c-1.4,1.5-2.6,3.2-3.6,5c-0.1,0.2,0.2,0.4,0.3,0.2c1.3-1.6,2.7-3,4.2-4.3c0.2-0.1,0.3-0.3,0.5-0.4c-1.3,2.8-1.6,6.1-1.4,8.8
					c0,0.2,0.4,0.2,0.4,0c0.2-2.2,0.8-4.4,1.6-6.5c0.8-2.1,2.1-3.8,2.9-5.8c0.1-0.1,0.2-0.2,0.3-0.3C77.6,53.9,77.4,53.6,77.2,53.7z
					"/>
				<path class="st2" d="M88.9,76.4c-2.2-2.3-2.3-6.5-3.4-9.3c-1.2-3-5.4-6.8-2.9-10.3c0.1-0.1-0.1-0.3-0.2-0.1
					c-2.4,2.8-1.1,5.6,0.4,8.6c2.1,4.2,1.6,8.8,6,11.3C88.9,76.7,89,76.5,88.9,76.4z"/>
			</g>
			<g>
				<path class="st4" d="M99.9,52.4c1,1.3,2.2,3.4,3.9,3.5c2.1,0.2,4.6-3.1,6,2.9c0.3,1.4,0.2,2.3,1.3,3.3c0.4-0.8,2-2.1,2.4-3.9
					c0.3-1.6,3.2-0.8,3.2-2.4c-5,1.8-5.8-2.6-9.3-3c-0.6-0.1-1.6-0.5-2.3-0.5c-2.5-0.1-3.5-1.6-5.5-2.4
					C96.9,48.8,99.9,52.4,99.9,52.4z"/>
			</g>
			<g>
				<path class="st4" d="M96.3,102.6c0.5-1.2,0.4-2.3,0.9-3.5c0-0.1,1.1,4.3,3.6,2c0.2-0.2,1.2-1.4,1.5-1.3c0.3,0.1,0.8,1.5,0.9,1.8
					c0.1,0.3,1.7-1,2-1.1c1.1-0.6,2.1,0,3.2-0.6c-0.2,1.2-0.6,2.5-1.8,3.4c-0.5,0.4-1.1,0.7-1.7,1c-0.6,0.3-1.1,0.6-1.7,0.9
					c-2,1-4.3,1.4-6.6,1.3c-0.6,0-1.1-0.1-1.6-0.3c0,0,0,0,0,0C93.7,105.4,95.9,103.6,96.3,102.6z"/>
			</g>
			<g>
				<path class="st2" d="M44.7,114c-0.4,1.3-0.5,4-0.8,5.3c-0.3,1.3,1.6,2.3,2.4,3.4c0.8,1-1,3.6,0.5,3.7c1.5,0.1,1.1-5.1,2-9.2
					c2.2-9.7,6.9-7,10-9.8c4.3-4,7.5-7.5,7.4-13.4c0-0.8,0-2.3-0.4-2.9c-0.6-1-3.3-0.7-4.4-1.1c-1.6-0.5-3.3-1.1-4.9-1.6
					c-1.3,1.3-2.5,2.6-3.8,3.8c-0.5,0.5-3.2,2.5-3.2,2.5c-0.8,2,0.5,4.4,1.2,6.3C52.3,106.1,45.4,111.6,44.7,114z"/>
			</g>
			<path class="st4" d="M39.9,59.6c2.5,5.5,8.8,2.5,12.1-0.4c2.9-2.6,5.8-5.4,8.3-8.3c2.6-2.9,1.1-3.6,1-7.1c0-0.4-0.5-0.3-0.5,0
				c-0.4,2.8-0.8,5-2.6,7.2c-1.4,1.7-3.1,3.4-4.8,4.9c-3.9,3.5-7.9,4.1-12.8,2.8C40,58.5,39.6,59.1,39.9,59.6L39.9,59.6z"/>
			<g>
				<g>
					<path class="st4" d="M78.6,68.3c-0.3-5.9,0.7-14.3,6.3-17.6c2.3-1.4,4.5-2.5,4.2-5.5c0-0.4-0.6-0.5-0.8-0.1
						c-1,2.8-4.5,3.5-6.4,5.4c-1.3,1.3-1.9,3-2.5,4.8c-1.4,4.3-2,8.7-1.1,13.1C78.3,68.6,78.6,68.5,78.6,68.3L78.6,68.3z"/>
				</g>
			</g>
			<path class="st4" d="M96.4,43.1c-0.8-1.3-1.4-2.7-1.6-4.2c-0.2-0.8-0.4-1.8-0.1-3c1.7,0.1,4.3,0.6,5.4,0.1c1-0.4,1.3-0.9,1.9-2.1
				c0.3-0.7,0.1-1.1,0.1-1.8c-0.1-1.4-0.3-2.9-0.4-4.4c0-0.2-0.3-0.4-0.5-0.1c-0.9,1.8,0.2,7.4-2.8,6.3c-1.5-0.6-3-1.9-4.7-0.9
				c-3.5,2.2,0.6,8.5,2.2,10.6C96.1,44,96.6,43.5,96.4,43.1L96.4,43.1z"/>
			<g>
				<g>
					<path class="st4" d="M117.9,24.3c0.4,0.6,0.9,1.1,1.3,1.6c0.5,0.6,0.8,1.3,1,2c0.2,0.7,1.3,0.4,1.1-0.3
						C120.9,26.2,119.6,24.3,117.9,24.3C117.9,24.3,117.9,24.3,117.9,24.3L117.9,24.3z"/>
				</g>
			</g>
			<path class="st4" d="M113.3,35.1c0.3-0.5,0.6-1.2,0.3-1.9c-0.4-0.8-1.3-1.7-2-2.3c-0.8-0.6-3.3-2-3.5-1c-0.3,1-0.9,1.7-1,2.6
				c-0.2,0.9-0.3,1.9,0.3,2.7c0.3,0.4,0.7,0.6,1.1,0.6c1.6-0.6,3.9-1.2,4.3-0.9c-3,6.3-2.8,12.3-1.6,16.4c0.1,0.4,0.6,0.3,0.5-0.1
				c-0.7-5,0.3-7.1,0.3-9.8C112,38.6,112.3,36.7,113.3,35.1z"/>
			<path class="st2" d="M113.6,57.9c0-0.1-0.1-0.1-0.2,0c-0.5,1.5-2.3,3-2.3,4.7c0,0.2,0,0.4,0.1,0.6c-0.2-0.8-0.4-1.6-0.8-2.4
				c-0.9-2.2-1.2-4.7-2.7-6.6c-0.2-0.3-0.5,0.1-0.6,0.4c-0.5,4.3,3,8.8,3.7,13.3c0,0.3,0.3,0.3,0.5,0.3c0,0,0,0,0,0.1
				c0,0,0.1,0.1,0.1,0c0-0.1,0-0.1,0.1-0.2c0-0.1,0.1-0.1,0.1-0.2c0,0,0,0,0,0c0.6-1.8,0.2-3.7,0.9-5.4
				C113.3,60.8,113.8,59.8,113.6,57.9z"/>
			<g>
				<path class="st4" d="M125.2,30.6c-1.3,0.6-2.6,1-3.7,1.5c-1.1,0.5-1.9,1.6-2.3,2.7c-0.4,1-0.6,1.5-0.6,2.6c0,1.6-0.4,3.2-1,4.8
					c-0.2,0.6-0.5,1.2-0.7,1.9c-0.3,1.1-0.4,2.3-0.1,3.5c0.2,0.9,0.7,1.7,0.7,2.6s-0.3,1.9-1.2,2.2c-0.5,0.2-1,0-1.5,0
					c-1-0.1-2,0.2-2.9,0.7c-0.6,0.4-1.1,0.9-1,1.6c0.1,0.7,0.9,1.2,1.6,1.3c2.3,0.6,4.7-0.2,7,0.1c2.7,0.4,5,2.3,7.7,2.6
					c1.5,0.2,3.1-0.2,4.5-0.7c1.6-0.6,3.2-1.5,4.2-2.9c1.6-2.2,1.4-5.2,1.2-7.9c-0.1-1.5-0.3-3-0.4-4.6c-0.2-2.3-0.4-4.6-1-6.9
					c-0.4-1.7-4.3-2.7-5.4-4C128,28.9,125.2,30.6,125.2,30.6z"/>
			</g>
			<path class="st2" d="M116.2,37.8c-0.1-0.2-0.4,0-0.4,0.2c-0.1,1.3-0.9,2.4-1,3.7c-0.1,1-0.2,3.7,0.3,4.5c0,0,0.2-1.8,0.2-1.8
				c0.3-1.4,0.4-2.7,0.9-4.1C116.5,39.4,116.8,38.6,116.2,37.8z"/>
			<path class="st2" d="M121.1,80.3c-0.9-4.3,0.4-8.7-0.3-13.1c0-0.2-0.7-0.9-0.8-0.8c-0.4,1.9-1.3,4.2-0.7,7
				c0.9,4.1-0.8,7.9-1.7,10.4C117.5,84.3,121.2,80.7,121.1,80.3z"/>
		</g>
		<g id="Lights">
			<g>
				<path class="st3" d="M52.8,46.4c1.6-1.8,2.7-3.9,3.6-6.1c0.5-1.2,0.9-2.8,0-3.8c-0.8-0.8-2.2-0.6-3.3-0.2
					c-2.1,0.7-4.1,1.9-5.7,3.4c-1.4,1.3-2.7,2.9-2.9,4.9c0,0,0,0,0,0c-0.2,1.7,0.9,4.5,2.8,4.9C49.2,49.8,51.7,47.6,52.8,46.4z"/>
			</g>
			<g>
				<path class="st3" d="M34.4,79.1c-0.3,3.7-0.2,7.5-1.8,10.8c-0.4-0.6-0.7-1.2-1-1.8c-1.9-4-2.3-8.6-1.7-12.9
					c0.6-4.4,2.2-8.5,3.9-12.6c0.6-1.3,1.2-2.7,2.3-3.7c0,0,0,0,0,0c1.6-1.4,3.2-2.4,4.5-0.7C38.6,63.8,35,71.9,34.4,79.1z"/>
			</g>
			<g>
				<path class="st3" d="M74.7,60.6c-1.3,3.7-1.8,7.7-2.2,11.6c-0.1,1.1-0.3,2.2,0.1,3.2c0.3,0.9,1,1.7,1.5,2.5
					c1.6,2.8,2.8,8.3,5.4,10.2c-0.5-3.3-1.3-6.8-2.2-9.8c-0.3-1.2,0-2.2-0.2-3.5c-0.1-0.7-0.4-1.2-0.6-1.9
					c-1.5-3.5-1.2-7.5-0.2-11.2l0,0c0.5-1.9,1.3-3.6,2.2-5.4c0.5-1.1,2.2-3.1,1.8-4.4C77.5,53.3,75.6,57.9,74.7,60.6z"/>
			</g>
			<g>
				<path class="st3" d="M89.9,45.1C89.9,45.1,89.9,45.1,89.9,45.1c-0.6,2.6,0.2,5.5,1.9,7.5c-1-0.5-1.6-1.5-2.2-2.5
					c-1.1-1.9-2.3-3.9-2.5-6.1c-0.1-1.3,0.2-2.6,0.5-3.8c0.3-1.4,3-7.7,4.8-4.1C93.5,38.4,90.4,42.9,89.9,45.1z"/>
			</g>
			<g>
				<path class="st2" d="M117.3,60.7c0.3,1.3,1,2.5,1.1,3.8c0.1,1.9,0.3,3.7-2.6,6.1c3.2-1.5,6.4-4.2,5.7-8.6c0,0,0,0,0,0
					c0.4-1.7,1.2-6.3-1.4-6.5C117.5,55.2,116.8,58.8,117.3,60.7z"/>
			</g>
			<g>
				<path class="st3" d="M84.3,61C84.3,61,84.3,61,84.3,61c-0.1,0.8-0.2,1.6,0,2.4c0.6,2.3,3.3,3.2,5.1,4.8c2.6,2.2,3.6,6.1,6.7,7.5
					c-1.8-1.4-1.6-4.1-2.4-6.2c-0.9-2.5-3-4.4-5-6.2c-1.9-1.8-3.2-3.6-4-6.1C84.5,58.5,84.5,59.8,84.3,61z"/>
			</g>
			<g>
				<path class="st3" d="M116.9,24.1c1.2,0,1.8,0.4,2.7,0.9s1.9,1.9,2.1,2.8c0.3,0,0.4-0.7,0.5-1.1c0.1-2.4-1-4.8-2.4-6.8
					c-0.6-0.7-1.2-1.4-2.1-1.8c-0.9-0.4-1.8-0.4-2.8-0.4c-0.9,0-1.9,0-2.8,0c-0.2,0-2.7,2.9-2.9,3c1,0,3,0.6,4.3,1.8
					C114.7,23.9,116.2,24.1,116.9,24.1z"/>
			</g>
			<g>
				<path class="st3" d="M108.2,25.7c-0.3,0.5-0.3,1-0.6,1.5c-0.2,0.3-0.8,0.6-1,0.9c-0.6,0.8,0.2,1.8,0.1,2.8
					c-0.1,0.9-0.5,1.7-0.7,2.6c-0.2,0.9,0,2.1,0.1,3c0.5,2.7,1.3,5.2,0.7,8.2c-0.1,0.5-0.1,3-0.8,2.5c-0.8-0.5-1.5-4.1-1.6-4.9
					c-0.1-1.1-0.2-2.1,0-3.2c0.1-0.6,0.3-1.3,0.4-1.9c0.2-1.3-0.6-1.9-0.6-3.3c-0.1-2.8,1.8-4.9,1.9-7.4c0-0.2,0-1.8,0.2-2
					c0.1-0.1,0.4,0.2,0.6,0.2c0.6,0.1,1.2-0.1,1.8,0c0.2,0,0.5,0.2,0.6,0.4C109.7,25.6,108.5,25.3,108.2,25.7z"/>
			</g>
			<g>
				<path class="st3" d="M94.6,32L94.6,32c0.9-0.7,2.1-0.9,2.8-1.8c0.4-0.4,0.6-0.9,0.8-1.4c0.9-1.7,2.6-3,4.6-3.5
					c0.3-0.1,0.6-0.1,0.8-0.3s0.4-0.5,0.2-0.8c-0.1-0.1-0.3-0.2-0.4-0.3c-1.1-0.3-2.2,0.2-3.2,0.6c-1.1,0.5-2.2,1.1-3.3,1.6
					c-1.2,0.6-2.4,1.3-3.4,2.2c-0.8,0.7-1.4,1.6-2,2.5c-0.6,1-1.2,2-1.3,3.2c0,1,1.3,4.3,2.2,2.5c0.4-0.7,0.3-1.8,0.6-2.6
					C93.5,33.2,93.9,32.5,94.6,32z"/>
			</g>
			<g>
				<path class="st3" d="M104.6,52.1c-1.9,0.5-4-0.5-5.5-1.8c-0.4-0.4-0.9-0.9-1.1-1.4c-0.2-0.5-0.3-1-0.4-1.5
					c-0.3-1.6-0.5-3.2-0.2-4.8c0.1-0.3,0.3-0.8,0.6-0.6c0.1,0.1,0.2,0.2,0.3,0.3c0.3,0.8,0.2,1.6,0.5,2.4c0.4,0.8,1.3,1.3,1.7,2.2
					c0.3,0.6,0.2,1.3,0.4,1.9c0.4,1.5,2,2.3,3.4,2.9"/>
			</g>
			<g>
				<path class="st3" d="M120.9,28.8c0.3,0.3,0.5,0.8,0.8,1.1c0.6,0.6,1.5,0.7,2.3,0.7c0.8,0,1.6-0.2,2.4-0.1
					c1.9,0.2,3.5,1.4,4.7,2.8c0.2-0.3-0.1-0.4-0.2-0.7c-0.9-2.7-3.5-4.8-6.3-5.1c-0.3,0-0.7,0-1,0c-0.4,0.1-0.7,0.2-1,0.3l0,0
					c-1.3,0.3-3-0.3-4.3-0.4C119.1,27.7,120.2,28,120.9,28.8z"/>
			</g>
			<g>
				<path class="st3" d="M108,47.2L108,47.2c-0.2,0.5-0.4,1-0.3,1.5c0,0.5,0.3,0.9,0.5,1.4c0.3,0.5,0.6,1.1,0.8,1.6
					c0.2,0.4,0.4,0.8,0.7,1.2c0.7,1.2,1.8,2.1,3,2.7c0.1-0.2,0-0.5-0.1-0.7s-0.3-0.4-0.5-0.6c-0.6-0.6-1.1-1.2-1.2-2
					c-0.2-0.7,0-1.5-0.3-2.1c-0.1-0.3-0.3-0.6-0.5-0.9c-0.6-0.9-1-2-1.1-3.1c0-0.2-0.2-1.3-0.5-0.9c-0.1,0.2-0.1,0.7-0.2,0.9
					C108.2,46.6,108.1,46.9,108,47.2z"/>
			</g>
			<g>
				<path class="st3" d="M49.2,85.6c0.3-0.2,0.7-0.3,1.1-0.4c1.1-0.3,1.9-1.1,2.6-2c0.4-0.5,0.8-1.1,1.4-1.6
					c0.5-0.5,1.2-0.8,1.9-0.7c0.9,0.1,1.5,1,1.9,1.8c0.3,0.8,0.5,1.7,0.9,2.6c1.1,2.3,4.1,3.3,5.3,5.5c-1.1,0.4-2.4-0.2-3.4-0.8
					c-1.2-0.7-2.5-1.3-3.7-2c-0.2,0.2-0.3,0.5-0.5,0.7c0-0.4-0.5-0.5-0.9-0.4c-0.3,0.1-0.6,0.5-0.8,0.7c-0.8,1-1.8,1.9-2.8,2.8
					c-1.9,1.9-3.6,4-4.9,6.3c-0.4,0.8-0.9,1.6-1.7,1.9l0,0c-0.8-2.1,0.6-4.5,1.1-6.7C47.2,91.1,50.5,87.5,49.2,85.6z"/>
			</g>
			<path class="st3" d="M79.6,99.3c0.1,0.6,0.1,1.1,0.3,1.8c1.2,3,3.1,4,5.1,3.1c0.3-0.1,1.1-0.7,0.8-1c-0.8-0.7-2.5-2.7-3.5-4
				c-0.5-0.6-2.5-5.6-3.3-6c-0.4-0.2-0.4,1.4-0.3,2.9C79,98.1,79.8,99.9,79.6,99.3z"/>
			<path class="st3" d="M76.9,51.4c-4.1,1-7.2,3.9-9.7,7.3c-0.2,0.3,0.1,0.9,0.4,0.7c1.5-1.4,3.3-2.5,4.9-3.8c1.7-1.3,4-2.5,6.1-3.3
				c0.2-0.1,0-0.6-0.2-0.7L76.9,51.4z"/>
		</g>
	</g>
	<g id="Details" class="st0">
		<g>
			<path class="st5" d="M108.1,33C108.1,33,108.1,33,108.1,33c-0.1,0.3-0.3,0.8,0,1c0.3,0.3,0.8,0.1,1.2,0.1c0.5-0.1,0.9,0,1.4-0.1
				c0.5-0.1,0.9-0.4,0.9-0.9c0-0.1-0.1-0.3-0.2-0.4c-0.1-0.1-0.1-0.1-0.2-0.2c-0.5-0.3-1.4-1.1-2-1.1
				C108.6,31.6,108.3,32.5,108.1,33z"/>
		</g>
		<g>
			<path class="st6" d="M123.5,33c-0.7,0.3-1.4,0.7-2,1.3c-1,1-1.3,2.8-0.6,4c0.5,0.9,1.5,1.8,1.3,2.8c-0.1,0.5-0.3,0.9-0.6,1.2
				c-0.4,0.4-0.8,0.8-1.2,1.1c-0.2,0.1-0.4,0.3-0.6,0.5c-0.5,0.6,0,1.7,0.8,1.7c0.3,0,0.5-0.1,0.7,0.1c0.4,0.2,0.2,1-0.3,1.2
				s-1,0.4-1.3,0.8c-0.3,0.4-0.2,1,0,1.6c0.3,1.1,0.5,2.3,0.5,3.4c0,0.3,0,0.5-0.1,0.8c-0.2,0.6-1,0.9-1.7,0.8
				c-0.7-0.1-1.3-0.5-1.9-0.7c-1.5-0.4-3.2,0.1-4.2,1.2c-0.1,0.1-0.2,0.3-0.2,0.4c0,0.1,0.1,0.2,0.1,0.3c0.5,0.7,1.4,1,2.3,0.9
				c0.9,0,1.7-0.3,2.5-0.6c1.6-0.4,3.3-0.6,5-0.4c1.3,0.1,2.6,0.4,3.9,0.4c1,0,2.1-0.1,3.1-0.3c2.2-0.3,4.6-0.8,6-2.5
				c0.6-0.7,0.9-1.5,1.1-2.4c0.8-2.6,0.8-5.4,0.1-8.1c-0.7-2.5-2-4.8-2.8-7.3c-0.2-0.7-0.4-1.4-0.8-2l0,0
				C131.1,29.8,126.2,31.7,123.5,33z"/>
		</g>
		<path class="st7" d="M123.3,36c2-0.9,2.9-1,4.5-1.6c1.7-0.6,2.6-0.3,3.7-0.4c0.1,0,0.1,0.1,0,0c-0.9-1.1-2.8-1.1-4.1-0.8
			c-1.8,0.5-3.1,1.5-4.5,2.6c-0.2,0.1,0,0.4,0.2,0.4L123.3,36z"/>
		<path class="st7" d="M124.4,38.6c0.7,0.7,1.8,1.1,2.8,1c1.1-0.1,1.3-1,1.2-1.9c0-0.2-0.4-0.3-0.5-0.1c-0.3,0.6-0.6,1.1-1.3,1.1
			c-0.7,0-1.4,0.1-2.1-0.3C124.4,38.4,124.3,38.5,124.4,38.6L124.4,38.6z"/>
		<path class="st7" d="M129.6,37.5c0.2,0.7,1.2,1,1.8,0.7c0.7-0.3,1.3-1.1,0.7-1.8c0,0-0.1,0-0.2,0c-0.1,0.1-0.3,0.2-0.4,0.3
			c-0.1,0.2-0.2,0.4-0.4,0.5c-0.4,0.4-0.9,0.2-1.3-0.1C129.7,37.2,129.5,37.3,129.6,37.5L129.6,37.5z"/>
	</g>
</g>
<g id="Outlines">
	<g>
		<g>
			<path class="st8" d="M94.6,35.8c1.9,0.3,5.2,1.6,6.8-0.2c2-2.2,0-5.6,0.4-8.1c0,0-0.1-0.1-0.1,0c-0.8,1.9,0.1,3.7-0.1,5.7
				C101.4,37,97.2,35.9,94.6,35.8C94.5,35.7,94.5,35.8,94.6,35.8L94.6,35.8z"/>
		</g>
	</g>
	<g>
		<g>
			<path class="st8" d="M104.1,24.2c-1.6-1.2-3.1-1-4.8,0.1c-2.3,1.5-5.6,3.9-7.1,6.2c-2.5,4.1-0.1,9.9,2.8,13.1
				c0.1,0.1,0.2,0,0.1-0.1c-2.5-3.2-4.7-9.3-1.6-13C95.6,28,100.7,22.9,104.1,24.2C104.1,24.3,104.1,24.3,104.1,24.2L104.1,24.2z"/>
		</g>
	</g>
	<g>
		<g>
			<path class="st8" d="M91.8,35.9c-2.7,2.4-3.8,5.9-3.8,9.5c0,4.1,2.4,5.6,4.5,9c0.1,0.2,0.4,0,0.3-0.2c-2-3.2-4.8-5-4-9.3
				c0.6-3.3,1.4-6.1,3.3-8.9C92.1,36,91.9,35.8,91.8,35.9L91.8,35.9z"/>
		</g>
	</g>
	<g>
		<g>
			<path class="st8" d="M87.5,56c1.5,0.6,3,1,4.5,1.5c2,0.7,2.8,1.5,4.1,3.1c1.6,2,3.1,3.8,5.2,5.3c0.1,0.1,0.2-0.1,0.1-0.2
				c-2.4-2.1-3.9-4.9-6.2-7C93.3,57,90,56.6,87.5,56C87.5,56,87.5,56,87.5,56L87.5,56z"/>
		</g>
	</g>
	<g>
		<g>
			<path class="st8" d="M81.8,56.2c-2.3,3.2-1,6.5,0.6,9.7c1.6,3.3,2.2,8.6,5.4,10.9c0.1,0.1,0.2-0.1,0.1-0.1
				c-2.4-1.9-2.6-5.5-3.8-8.2c-1.7-3.9-4.8-7.7-2.1-12.1C82.1,56.2,81.9,56.1,81.8,56.2L81.8,56.2z"/>
		</g>
	</g>
	<g>
		<g>
			<path class="st8" d="M84.3,62.4c0.3,2.5,2.4,4.1,4.2,5.6c2.8,2.2,3.9,5.4,6.6,7.6c0.1,0,0.1,0,0.1-0.1c-1.9-1.9-2.7-4.5-4.4-6.5
				C88.6,66.6,85.3,66,84.3,62.4C84.4,62.4,84.3,62.4,84.3,62.4L84.3,62.4z"/>
		</g>
	</g>
	<g>
		<g>
			<path class="st8" d="M79.9,53.9c-1.8,4.3-3.1,7.6-2.7,12.4c0.5,5.6,2.5,10.9,4.8,16c0,0,0.1,0,0.1,0c-1.8-4.9-3.3-10-3.9-15.2
				C77.5,62,78.5,58.6,79.9,53.9C80.1,53.9,80,53.8,79.9,53.9L79.9,53.9z"/>
		</g>
	</g>
	<g>
		<g>
			<path class="st8" d="M78,71c0.1,1.8-0.6,2.9-0.8,4.6c-0.1,1.3,0.1,2.5,0.3,3.7c0.5,3.4,1.2,6.8,2.2,10c0,0.1,0.2,0.1,0.2,0
				c-0.6-3.1-1.6-6.2-2-9.4c-0.5-3.1,0.9-5.9,0.4-8.9C78.2,70.9,78,70.9,78,71L78,71z"/>
		</g>
	</g>
	<g>
		<g>
			<path class="st8" d="M72.7,67.5c1.1-5.6,3.1-11.3,7.2-15.3c2.7-2.7,6.7-3.8,8.9-6.9c0.2-0.3-0.3-0.6-0.5-0.3
				c-1.9,2.6-5,3.5-7.4,5.4c-1.4,1.1-2.6,2.4-3.7,3.8C74.4,58,73.1,62.8,72.7,67.5C72.6,67.5,72.7,67.5,72.7,67.5L72.7,67.5z"/>
		</g>
	</g>
	<g>
		<g>
			<path class="st8" d="M60.9,43.9c-0.3,4.2,3.7,4.1,6.8,4.3c2.8,0.2,4.9,1.4,7.3,2.7c1.5,0.8,2.9,1.3,4.6,0.8c0.1,0,0.1-0.2,0-0.2
				c-3-0.6-5.5-1.9-8.3-2.9c-2.9-1.1-10.3,0-10.2-4.7C61.1,43.8,60.9,43.8,60.9,43.9L60.9,43.9z"/>
		</g>
	</g>
	<g>
		<g>
			<path class="st8" d="M68.6,62.5c2.4-4.2,6.1-7.6,10.4-9.8c0.1-0.1,0-0.2-0.1-0.2c-4.7,2-8.1,5.4-10.4,9.9
				C68.4,62.5,68.5,62.6,68.6,62.5L68.6,62.5z"/>
		</g>
	</g>
	<g>
		<g>
			<path class="st8" d="M63.3,60c2.5-3.5,7.5-9.5,12.3-8.9c0.2,0,0.2-0.2,0.1-0.2C70.8,49.8,65.3,56.3,63.3,60
				C63.2,60,63.3,60,63.3,60L63.3,60z"/>
		</g>
	</g>
	<g>
		<g>
			<path class="st8" d="M68.4,57.1c2.5-2.3,6.4-5.8,10.1-5.5c0.1,0,0.1-0.1,0.1-0.2c-1.5-0.9-3.5,0.3-4.7,1.1
				C71.8,53.7,69.9,55.3,68.4,57.1C68.4,57.1,68.4,57.1,68.4,57.1L68.4,57.1z"/>
		</g>
	</g>
	<g>
		<g>
			<path class="st8" d="M50.1,42.7c-0.8,1.5-1.5,3.1-2.4,4.5c-0.4,0.6-3.9,5.5-4.9,4.4c-0.1-0.1-0.1,0-0.1,0.1
				c0.3,1.5,3.1-1.2,3.5-1.7C48.2,48,49.4,45.4,50.1,42.7C50.1,42.7,50.1,42.7,50.1,42.7L50.1,42.7z"/>
		</g>
	</g>
	<g>
		<g>
			<path class="st8" d="M46.3,49.3c-0.2-3.6,2.4-7.5,4.9-9.9c1.7-1.5,4.2-2.5,6.3-1.2c2,1.3,3.2,3.8,3.2,6.1c0,0.1,0.2,0.1,0.2,0
				c0.6-2.1-0.8-4.2-2.1-5.7c-1.4-1.6-3.3-2.1-5.4-1.4c-4.2,1.5-7.9,7.7-7.3,12C46.1,49.4,46.3,49.4,46.3,49.3L46.3,49.3z"/>
		</g>
	</g>
	<g>
		<g>
			<path class="st8" d="M60.7,43.6C60,49.7,56,54.1,50.9,57.2c-2.3,1.4-6.4,3.2-9.1,1.8c-1.8-0.9-2.7-3.4-2.6-5.4
				c0-0.8,0.2-1.8,0.7-2.5c0.9-1.6,3.8-2.6,4.4,0.3c0,0.2,0.4,0.1,0.3-0.1c-0.6-2.7-3.7-2.6-5.1-0.3c-1.5,2.6-0.7,7.6,2.5,8.6
				c4.5,1.3,9-1.5,12.3-4.1c3.8-3,6.6-6.8,6.6-11.8C60.9,43.5,60.8,43.5,60.7,43.6L60.7,43.6z"/>
		</g>
	</g>
	<g>
		<g>
			<path class="st8" d="M40.3,58c-3.3,6-7.6,11.8-7.9,18.9c-0.2,4.4,0.6,8.5-0.2,12.9c-0.6,3.3-1.1,6.5-0.7,9.8
				c0.5,3.9,1.3,7.6-0.1,11.5c-1.2,3.4-2.2,5.8-1.9,9.4c0.3,3.6,1,7.5,0.2,11.1c-0.5,2.2-2.1,4.6-0.7,6.7c0.2,0.3,0.8,0,0.6-0.3
				c-1.1-1.7,0-3.8,0.6-5.5c0.5-1.4,0.7-2.6,0.7-4.1c0-3.1-0.8-6.1-0.9-9.1c-0.1-2.2,0.3-4.3,1.2-6.3c0.6-1.4,1.4-2.6,1.6-4.1
				c0.5-2.7-0.1-5.5-0.5-8.1c-0.3-1.8-0.6-3.6-0.5-5.4c0.1-2.1,0.8-4.2,1.2-6.2c0.6-3.3,0.3-6.5,0.1-9.8c-0.2-4.1,0.3-7.7,2.1-11.4
				c1.6-3.3,3.4-6.5,5.2-9.6C40.6,58,40.4,57.8,40.3,58L40.3,58z"/>
		</g>
	</g>
	<g>
		<g>
			<path class="st8" d="M56,87.9c-2.9,3.9-7.6,6-10.1,10.2c-1.2,2-1.7,4.3-2.4,6.4c-0.9,2.6-2,5.1-3,7.6c-0.3,0.8-0.5,1.6-0.7,2.4
				c-0.3,1.5-0.9,2.6-1.4,4c-0.2,0.6-0.2,1-0.2,1.6c0,0.8,0.4,1.6,0.4,2.3c-0.1,1.3-0.6,1.6-1,2.5c-0.8,2-1,4-0.5,6.1
				c0.5,1.9,2.8,5.6,1,7.4c-0.1,0.1,0,0.3,0.2,0.2c0.9-0.4,1-1.2,0.9-2.2c-0.1-1-0.6-2-0.9-3c-0.4-1.4-0.5-2.8-0.5-4.2
				c0-1.8,0.5-3.2,1.1-4.8c0.3-0.7,0.4-1.2,0.3-2c-0.1-1.9-0.4-3.3,0.5-5.1c0.5-1,0.7-1.9,1-3.1c0.5-2.4,1.7-4.6,2.6-7
				c1-2.7,2-5.4,3.4-7.9c1.4-2.5,3-4.5,5.1-6.4c1.7-1.5,3.4-3,4.5-5C56.2,87.9,56,87.8,56,87.9L56,87.9z"/>
		</g>
	</g>
	<g>
		<g>
			<path class="st8" d="M49.9,94.1c0.5,4.2,0.7,8.5-0.4,12.7c-1,3.7-3.6,6.8-4.4,10.4c-0.3,1.4-0.2,2.5,0.3,3.8
				c0.8,2.4,0.8,4.4,0.3,6.8c-0.6,2.9-0.8,4.7,0.1,7.5c0.1,0.3,0.6,0.2,0.5-0.1c-0.4-1.7-0.8-3.1-0.4-4.9c0.4-1.7,1-3.2,1.2-4.9
				c0.2-1.5-0.1-2.7-0.7-4.1c-1.1-2.6-0.8-4.8,0.6-7.2c3.4-6.2,5.8-13.1,3.4-20.2C50.2,93.9,49.9,93.9,49.9,94.1L49.9,94.1z"/>
		</g>
	</g>
	<g>
		<g>
			<path class="st8" d="M55.8,135.3c0.3-1.1,0.1-1.9-0.6-2.9c-0.9-1.2-1.3-1-1.5-3.1c-0.1-1.3,0.2-3.1,0.6-4.4
				c0.5-1.5,1.6-2.3,1.8-3.9c0.4-2.5-0.1-4.5,1.3-6.9c2.1-3.6,4.9-6.4,6.4-10.4c1.5-4,2.1-8.1,2-12.4c0-0.3-0.4-0.3-0.4,0
				c0.3,5-0.8,10-3.1,14.4c-1.8,3.4-5.2,6-6.3,9.7c-0.5,1.6-0.1,3.2-0.2,4.8c-0.2,1.9-1.8,3.1-2.2,5c-0.3,1.5-1,4-0.4,5.5
				c0.7,1.7,2.3,2.2,2.4,4.5C55.5,135.4,55.7,135.4,55.8,135.3L55.8,135.3z"/>
		</g>
	</g>
	<g>
		<g>
			<path class="st8" d="M55.6,88.1c0.4,0.8,0.1,0.5,0.8,1.1c0.1,0.1,0.2,0.1,0.3,0c0.5-1.2,2.2,0.2,3.1,0.6c1,0.5,2,0.8,3.1,1.1
				c3.2,0.8,5.5,2,7.8,4.4c2,2.1,4,4.2,6.1,6.2c1.5,1.5,2.9,2.7,5.1,2.9c0.2,0,0.2-0.3,0.1-0.3c-2.5-1.3-4.4-3.3-6.4-5.2
				c-1.9-1.8-3.9-3.6-5.9-5.4c-1.4-1.2-2.9-2.3-4.6-2.9c-2.7-0.9-5.4-1.1-7.9-2.6c-0.1-0.1-0.2,0-0.3,0.1c-0.1,0.7-0.4,0.7-0.9-0.1
				C55.8,87.8,55.5,87.9,55.6,88.1L55.6,88.1z"/>
		</g>
	</g>
	<g>
		<g>
			<path class="st8" d="M80,94.4c0.9,3,2.5,6.2,5,8.2c0.1,0.1,0.3,0,0.2-0.2c-1.8-2.7-3.7-5.1-5-8.1C80.1,94.2,80,94.3,80,94.4
				L80,94.4z"/>
		</g>
	</g>
	<g>
		<g>
			<path class="st8" d="M81.5,102.4c0.7,3.3-0.4,6.5-0.5,9.9c-0.1,3.5,1.1,6.8,1,10.3c-0.1,3.3,0.7,6.2,1.4,9.3
				c0.8,3.6,1.2,7.2,1.3,10.9c0,0.3,0.4,0.3,0.4,0c0.2-7.3-2.3-14-2.5-21.2c-0.1-3.4-1.1-6.7-0.9-10.2c0.2-3.1,1-6-0.1-9.1
				C81.7,102.2,81.5,102.3,81.5,102.4L81.5,102.4z"/>
		</g>
	</g>
	<g>
		<g>
			<path class="st8" d="M98.5,94.7c-0.7,1.3-1.4,2.7-1.9,4.1c-0.6,1.5-0.9,4.9-2.7,5.6c-0.2,0.1-0.1,0.3,0.1,0.3
				c1.4-0.2,2.1-1.6,2.5-2.8C97.3,99.5,97.8,97.1,98.5,94.7C98.6,94.7,98.6,94.7,98.5,94.7L98.5,94.7z"/>
		</g>
	</g>
	<g>
		<g>
			<path class="st8" d="M105.1,96.6c-1.5,1.1-2.6,2.4-3.9,3.7c-1.5,1.5-3,3.1-5.1,3.5c-0.3,0.1-0.2,0.5,0.1,0.5
				c1.7,0.1,3.1-1.4,4.3-2.5C102.2,100.2,103.8,98.7,105.1,96.6C105.1,96.6,105.1,96.6,105.1,96.6L105.1,96.6z"/>
		</g>
	</g>
	<g>
		<g>
			<path class="st8" d="M111,93.6c-0.9,2-1.6,4.1-2.4,6.1c-1.2,2.8-3.5,4.6-6.3,5.8c-0.1,0.1,0,0.3,0.1,0.2c2.1-0.5,4.6-1.9,5.8-3.7
				C109.8,99.8,110.7,96.3,111,93.6C111.1,93.6,111,93.6,111,93.6L111,93.6z"/>
		</g>
	</g>
	<g>
		<g>
			<path class="st8" d="M93.4,105.3c1.8-0.6,3.3-0.7,5.1-0.3c0.8,0.2,1.4,0.2,2.1,0c0.8-0.3,1.3-1,1.8-1.6c1.3-1.5,2.3-2.6,4.3-3.3
				c0.1,0,0.1-0.3-0.1-0.2c-1,0.3-2,0.8-2.8,1.5c-0.8,0.7-1.4,1.8-2.2,2.3c-1.8,1.2-3.6,0.3-5.5,0.4C95.1,104,94.2,104.5,93.4,105.3
				C93.3,105.2,93.4,105.3,93.4,105.3L93.4,105.3z"/>
		</g>
	</g>
	<g>
		<g>
			<path class="st8" d="M101.1,104.5c0.2,3.7,0.2,7.4,0,11c-0.1,1.8-0.1,3.6-0.2,5.3c-0.1,1.9-0.6,3.9-0.6,5.8
				c0.1,2.9,1.3,5.5,1.2,8.4c0,2.3-0.5,4.8,0.1,7.1c0.1,0.3,0.5,0.2,0.4-0.1c-0.5-2.5,0-5.2,0-7.7c0-3.1-1.3-6-1.1-9.1
				c0.5-6.9,1.5-13.9,0.3-20.8C101.3,104.3,101.1,104.3,101.1,104.5L101.1,104.5z"/>
		</g>
	</g>
	<g>
		<g>
			<path class="st8" d="M112.8,86.9c2.6-0.3,4.4-1.9,5.7-4c1.9-3,2.3-5.8,2.8-9.3c0.4-2.6,0.8-5.6-0.1-8.1
				c-1.3-3.5-0.9-7.3-0.5-10.9c0-0.2-0.4-0.3-0.4-0.1c-0.5,2.6-0.8,5.3-0.6,8c0.1,2.3,1,4.3,1.2,6.6c0.5,6.1-0.8,16.1-8.1,17.7
				C112.7,86.8,112.7,86.9,112.8,86.9L112.8,86.9z"/>
		</g>
	</g>
	<g>
		<g>
			<path class="st8" d="M119.7,79.5c-0.1,3.6-0.6,7-1.9,10.4c-0.7,1.7-1.5,3.4-2.4,5c-0.6,1.1-1.2,1.9-1,3.2c0,0.2,0.3,0.3,0.4,0.1
				c0.4-1.9,1.6-3.5,2.4-5.2c0.7-1.5,1.3-3,1.8-4.5c0.9-3,1.4-5.9,0.8-9C119.9,79.3,119.7,79.4,119.7,79.5L119.7,79.5z"/>
		</g>
	</g>
	<g>
		<g>
			<path class="st8" d="M114.4,94.2c0.6,3.8-0.4,7.5-2.7,10.6c-0.1,0.1,0.1,0.1,0.1,0.1C114.7,102.1,115.5,97.9,114.4,94.2
				C114.4,94.1,114.4,94.1,114.4,94.2L114.4,94.2z"/>
		</g>
	</g>
	<g>
		<g>
			<path class="st8" d="M112.8,103c0.4,2.2,0.4,4.5-0.2,6.6c-0.5,1.9-1.6,3.5-2.3,5.3c-1.2,3-0.9,6.4-1.7,9.6
				c-0.9,3.3-0.9,5.7-0.3,9c0.3,1.4,0.3,3.1,0.8,4.4c0.8,2,2.9,2.5,2.5,5.2c-0.1,0.4,0.6,0.5,0.6,0.1c0.2-1.3,0-2.3-0.8-3.4
				c-0.3-0.4-0.8-0.6-1.1-1c-0.7-0.9-0.7-1.7-0.9-2.8c-0.4-2.2-0.7-4.4-0.9-6.6c-0.1-2.3,0.6-4.3,1.1-6.5c0.4-1.5,0.3-2.9,0.4-4.5
				c0.2-2.6,1.6-4.6,2.6-6.9c1.2-2.8,1.3-5.6,0.5-8.5C113,102.7,112.8,102.8,112.8,103L112.8,103z"/>
		</g>
	</g>
	<g>
		<g>
			<path class="st8" d="M93.4,104.3c-0.3,3.6-1,7.2-1.5,10.8c-0.6,4-0.1,8-0.5,12.1c-0.4,3.3,0,5.6,0.9,8.8c0.4,1.2,0.6,2.6,1.3,3.6
				c1,1.5,2.6,2,2.4,4.2c0,0.3,0.5,0.4,0.6,0.1c0.4-3-2.1-3.4-3.2-5.8c-0.7-1.5-1-3.4-1.4-5.1c-0.5-2.2-0.1-4,0.1-6.2
				c0.2-2.1-0.2-4.2-0.3-6.3c0-2.1,0.4-4.1,0.8-6.2c0.7-3.2,1.6-6.8,1-10C93.6,104.1,93.4,104.2,93.4,104.3L93.4,104.3z"/>
		</g>
	</g>
	<g>
		<g>
			<path class="st8" d="M114.3,72.5c0.9-2.6,7.5-3.5,6.3-7.2c-0.1-0.2-0.4-0.2-0.4,0c0.4,3.7-5.1,4.1-6.1,7.1
				C114.1,72.5,114.3,72.6,114.3,72.5L114.3,72.5z"/>
		</g>
	</g>
	<g>
		<g>
			<path class="st8" d="M93,88c1.5,0.3,3,0.2,4.4-0.1c2.6-0.6,4.5-0.9,7.1-0.2c0.2,0.1,0.3-0.2,0.1-0.3c-1.4-0.9-3.5-1-5.1-0.7
				c-0.8,0.2-1.5,0.6-2.2,0.8C96,87.9,94.5,88,93,88C93,87.9,93,87.9,93,88L93,88z"/>
		</g>
	</g>
	<g>
		<g>
			<path class="st8" d="M97,48.1c-0.5,2.4-1.5,4.9-0.5,7.3c1.2,2.7,3.8,4.4,4.8,7.2c0,0.1,0.1,0,0.1,0c-0.3-2-1.6-3.6-2.8-5.2
				c-1-1.4-2-2.7-2.1-4.5C96.5,51.3,97.1,49.7,97,48.1C97,48.1,97,48.1,97,48.1L97,48.1z"/>
		</g>
	</g>
	<g>
		<g>
			<path class="st8" d="M97.3,42.4c-0.8,2.6-0.4,5.8,1.4,7.9c0.9,1,2,1.8,3.2,2.2c1.7,0.6,3.5-0.1,5.2,0.5c0.2,0.1,0.2-0.2,0.1-0.2
				c-2.2-0.9-4.6-0.2-6.8-1.6C97.6,49.2,96.9,45.7,97.3,42.4C97.4,42.4,97.3,42.4,97.3,42.4L97.3,42.4z"/>
		</g>
	</g>
	<g>
		<g>
			<path class="st8" d="M105.9,27.7c-0.6,1.7-1.7,3.6-2,5.5c-0.2,1.1,0.2,1.8,0.5,2.9c0.5,1.8-0.3,3.5-0.2,5.3
				c0.1,1.8,0.8,3.5,1.3,5.2c0,0,0.1,0,0,0c-0.5-1.8-0.9-3.7-0.9-5.6c0-1.5,0.7-2.9,0.6-4.4c0-0.2-0.1-0.5-0.2-0.7
				c-0.3-1.2-0.6-2-0.4-3.3c0.2-1.6,0.9-3.2,1.4-4.8C106,27.6,105.9,27.6,105.9,27.7L105.9,27.7z"/>
		</g>
	</g>
	<g>
		<g>
			<path class="st8" d="M106.5,38.5c0.6,3,0.3,5.7-0.1,8.6c0,0.1,0.1,0.1,0.1,0C107.6,44.4,107.4,41.3,106.5,38.5
				C106.6,38.4,106.5,38.5,106.5,38.5L106.5,38.5z"/>
		</g>
	</g>
	<g>
		<g>
			<path class="st8" d="M112.7,35.1c-2.8,4.9-3.7,11.1-1.5,16.5c0,0.1,0.1,0,0.1,0C110,45.8,110.3,40.5,112.7,35.1
				C112.8,35.1,112.7,35,112.7,35.1L112.7,35.1z"/>
		</g>
	</g>
	<g>
		<g>
			<path class="st8" d="M107.8,49.5c0.9,1.9,1.7,4.4,3.3,5.7c1.4,1.1,3.3,1.5,5,0.9c0.1-0.1,0.1-0.3,0-0.3c-1.9,0.2-3.8-0.1-5.1-1.5
				c-1.3-1.4-2.1-3.3-3-4.9C107.9,49.4,107.8,49.5,107.8,49.5L107.8,49.5z"/>
		</g>
	</g>
	<g>
		<g>
			<path class="st8" d="M116.3,56c2.5,1.1,4.3-1.3,5.9-2.9c1.3-1.3,3-3.4,4.8-4.1c1.9-0.8,3.3,1.1,5.1,0.8c0.3-0.1,0.2-0.5-0.1-0.5
				c-1.1,0.2-2.1-1.4-3.3-1.5c-1.1-0.1-2.1,0.6-2.9,1.3C123.3,50.9,119.9,56.7,116.3,56C116.3,55.9,116.2,56,116.3,56L116.3,56z"/>
		</g>
	</g>
	<g>
		<g>
			<path class="st8" d="M122,53.5c1-0.3,2.1-0.1,3.1-0.5c0.6-0.3,1-0.6,1.4-1.1c0.7-0.7,0.8-1,1.6-1.3c0.4-0.2,0.9-0.2,1.3-0.4
				c0.6-0.2,1.1-0.4,1.5-0.9c0.1-0.1,0-0.3-0.1-0.2c-1.3,0.8-2.9,0.4-4.1,1.4c-0.9,0.8-1.1,1.6-2.5,2c-0.9,0.3-1.5,0.2-2.3,0.7
				C121.8,53.4,121.8,53.6,122,53.5L122,53.5z"/>
		</g>
	</g>
	<g>
		<g>
			<path class="st8" d="M113.1,54.4c1.2-0.2,2-0.7,3.3-0.3c0.8,0.3,1.7,0.8,2.6,0.8c1.3,0.1,2.3-0.8,3-1.9c0,0,0-0.1-0.1-0.1
				c-0.9,0.7-1.7,1.3-2.8,1.3c-1-0.1-2-0.6-3-0.8C114.6,53.1,114.3,53.6,113.1,54.4C113,54.4,113.1,54.4,113.1,54.4L113.1,54.4z"/>
		</g>
	</g>
	<g>
		<g>
			<path class="st8" d="M106.1,26.6c0.1-0.7,0.4-1.5,0.4-2.2c-0.1,0.1-0.3,0.2-0.4,0.2c0.4,0.2,0.8,0.3,1.3,0.2
				c1-0.1,1.7-0.3,2.5,0.6c0,0,0.1,0,0.1-0.1c-0.4-0.4-0.8-0.7-1.4-0.8c-0.7-0.1-1.5,0-2.2-0.3c-0.2-0.1-0.4,0-0.4,0.2
				C105.9,25.2,106.1,25.9,106.1,26.6C106,26.7,106.1,26.7,106.1,26.6L106.1,26.6z"/>
		</g>
	</g>
	<g>
		<g>
			<path class="st8" d="M112.4,25.4c1.8,1.9,3.1,4.1,1.9,6.8c0,0.1,0.1,0.1,0.1,0.1C115.7,29.9,115.3,26.4,112.4,25.4
				C112.4,25.4,112.4,25.4,112.4,25.4L112.4,25.4z"/>
		</g>
	</g>
	<g>
		<g>
			<path class="st8" d="M115.2,25.9c4.4,3.2,12.1,1.4,15.3,6.3c0.8,1.2,0.9,2.5,1.2,3.9c0.3,1.2,1,2.2,1.3,3.3
				c0.4,1.7-0.2,3.6-0.2,5.3c0,1.3,0.7,4-0.8,4.7c-0.1,0.1,0,0.3,0.1,0.2c2.1-0.8,1.2-3.9,1.4-5.8c0.2-2,0.5-3.5-0.2-5.4
				c-0.6-1.6-1.2-3.1-1.7-4.7c-2-7.1-11.3-4.7-16.3-8C115.2,25.7,115.1,25.8,115.2,25.9L115.2,25.9z"/>
		</g>
	</g>
	<g>
		<g>
			<path class="st8" d="M128.3,37c-0.5,0.1-0.9,0.6-1.3,0.9c-0.8,0.7-1.8,0.6-2.7,0.1c-0.1,0-0.1,0.1-0.1,0.1c0.8,0.4,1.9,1,2.8,0.8
				c0.7-0.2,1.3-1.1,1.4-1.8C128.5,37.1,128.4,37,128.3,37L128.3,37z"/>
		</g>
	</g>
	<g>
		<g>
			<path class="st8" d="M129.3,37c0.1,0.6,1,1.1,1.5,1c0.7-0.2,1.1-1.2,1-1.8c0-0.1-0.1-0.1-0.2-0.1c-0.3,0.4-0.3,1-0.9,1.1
				c-0.4,0-0.8-0.1-1.2-0.3C129.5,36.8,129.3,36.9,129.3,37L129.3,37z"/>
		</g>
	</g>
	<g>
		<g>
			<path class="st8" d="M115.7,37.8c0.1,0.4,0.3,0.2,0.5,0.5c0.8,0.9,0,1.4-0.4,2.5c-0.9,2.1-0.7,4.4-0.4,6.6c0,0,0.1,0,0.1,0
				c-0.2-1.8,0.1-3.4,0.6-5.1c0.2-0.9,1.3-2.7,1.2-3.4C117,38.1,116.5,37.3,115.7,37.8C115.7,37.7,115.7,37.8,115.7,37.8L115.7,37.8
				z"/>
		</g>
	</g>
	<g>
		<g>
			<path class="st8" d="M107.9,34.2c0-1.2,1.2-2,1.5-3.1c-0.2,0-0.5,0.1-0.7,0.1c0.3,0.6,0.5,0.9,1.2,1.1c1,0.2,1.8,0.4,2.4,1.4
				c0.1,0.1,0.2,0.1,0.2-0.1c-0.1-1.6-2.5-1.6-3.2-2.8c-0.2-0.3-0.6-0.2-0.7,0.1c-0.2,1.1-1.2,2.1-0.9,3.3
				C107.8,34.3,107.9,34.3,107.9,34.2L107.9,34.2z"/>
		</g>
	</g>
	<g>
		<g>
			<path class="st8" d="M101,24.2c2-0.5,3.5-1.9,5.5-2.5c2.1-0.7,5.1-0.8,7.3-0.5c1.5,0.2,3.5,1.9,5,2.7c1.2,0.7,1.9,1.3,2.4,2.6
				c0.2,0.6,0.3,1.1,0.7,1.6c0.1,0.2,0.3,0,0.3-0.1c-0.4-1.8-0.4-3-2-4.2c-0.7-0.5-1.4-0.8-2.1-1.1c-1-0.5-1.8-1.5-2.8-1.8
				c-0.8-0.3-1.6-0.1-2.5-0.1c-1.6,0-3.2-0.2-4.8-0.1c-2.9,0.3-4.4,2.2-7,3.2C100.8,24,100.8,24.2,101,24.2L101,24.2z"/>
		</g>
	</g>
	<g>
		<g>
			<path class="st8" d="M109.2,21.2c1.5,0.1,3,0.7,4.2,1.6c0,0,0.1,0,0.1-0.1c-1-1.4-2.6-1.9-4.3-1.7
				C109.1,21.1,109.1,21.2,109.2,21.2L109.2,21.2z"/>
		</g>
	</g>
	<g>
		<g>
			<path class="st8" d="M122.9,36c1.2-0.7,2.3-1.6,3.7-2c1.1-0.3,3.3-0.7,4.3-0.2c0.1,0.1,0.2-0.1,0.1-0.2c-1.3-0.9-2.4-1.1-3.9-0.5
				c-1.6,0.6-3.1,1.6-4.4,2.7C122.7,35.9,122.8,36,122.9,36L122.9,36z"/>
		</g>
	</g>
	<g>
		<g>
			<path class="st8" d="M29.1,138.1c0.7,1.4,3,1,4.2,1c1.2-0.1,5.2,0.9,5.5-1c0-0.1-0.1-0.2-0.2-0.2c-1.5,1.1-3.2,0.4-5,0.4
				c-1.1,0-3.4,0.7-4.4-0.4C29.2,137.9,29.1,138,29.1,138.1L29.1,138.1z"/>
		</g>
	</g>
	<g>
		<g>
			<path class="st8" d="M46,135.4c0.2,0.7,0.8,1,1.4,1.2c0.6,0.2,1.2,0.2,1.8,0.2c0.8,0.1,1.6,0.5,2.5,0.4c1.1,0,2.6-0.5,3.6-1
				c0.6-0.3,0.8-0.7,0.6-1.3c0-0.1-0.1-0.1-0.1,0c-0.9,1.4-4.1,1.7-5.4,1.4c-1.4-0.4-3,0-4.1-1.1C46,135.3,45.9,135.4,46,135.4
				L46,135.4z"/>
		</g>
	</g>
	<g>
		<g>
			<path class="st8" d="M84.9,142.8c0.2,1,0.3,1.5,1.2,1.9c0.7,0.3,2,0.2,2.7,0.3c0.6,0.1,1.1,0.4,1.7,0.4c1.6,0.2,6,0.2,5.9-2.3
				c0,0,0,0-0.1,0c-0.8,1.8-5.7,1.6-7.1,1.4c-1.6-0.3-3.3,0-4.2-1.7C85,142.7,84.8,142.7,84.9,142.8L84.9,142.8z"/>
		</g>
	</g>
	<g>
		<g>
			<path class="st8" d="M101.6,141.9c-0.1,0.9,0.6,1.3,1.3,1.7c0.5,0.2,1,0.3,1.5,0.4c1,0.2,1.9,0.4,2.9,0.6c2,0.4,5.3,0.3,4.7-2.5
				c0-0.1-0.1-0.1-0.1,0c-0.3,3.1-4.4,1.6-5.8,1.2c-1.5-0.4-3.4,0.1-4.3-1.5C101.7,141.8,101.6,141.8,101.6,141.9L101.6,141.9z"/>
		</g>
	</g>
	<g>
		<g>
			<path class="st8" d="M88.1,144.6c0.9-1,1.3-2.5,0.3-3.5c-0.1-0.1-0.2,0-0.1,0.1C88.5,142.3,88.6,143.6,88.1,144.6
				C87.9,144.6,88,144.7,88.1,144.6L88.1,144.6z"/>
		</g>
	</g>
	<g>
		<g>
			<path class="st8" d="M92.6,145.1c0.2-0.8,0.7-1.7,0.6-2.6c-0.1-0.8-0.8-1.6-1.4-2.1c-0.1-0.1-0.2,0-0.2,0.1
				c0.3,0.7,0.8,1.3,0.9,2c0.2,0.8,0,1.7-0.1,2.5C92.4,145.1,92.6,145.2,92.6,145.1L92.6,145.1z"/>
		</g>
	</g>
	<g>
		<g>
			<path class="st8" d="M106.1,144c0.3-0.9,0.7-2,0.6-2.9c-0.1-0.8-0.7-1.7-1.2-2.3c0-0.1-0.1,0-0.1,0.1c0.5,0.9,0.9,1.5,0.8,2.5
				c0,0.8-0.2,1.7-0.2,2.5C105.9,144.1,106,144.1,106.1,144L106.1,144z"/>
		</g>
	</g>
	<g>
		<g>
			<path class="st8" d="M110.6,143.9c0.9-1.8-0.2-3.4-1.5-4.6c-0.1-0.1-0.2,0-0.1,0.1c0.9,1.4,1.9,2.7,1.5,4.4
				C110.4,143.9,110.5,143.9,110.6,143.9L110.6,143.9z"/>
		</g>
	</g>
	<g>
		<g>
			<path class="st8" d="M53.1,136.7c1-1.4,0.4-3.5-0.9-4.5c-0.1-0.1-0.2,0.1-0.1,0.2c1.1,1.3,1.2,2.7,0.9,4.3
				C52.9,136.7,53.1,136.8,53.1,136.7L53.1,136.7z"/>
		</g>
	</g>
	<g>
		<g>
			<path class="st8" d="M49.1,136.3c0.7-1.7,1-3.4-0.6-4.6c0,0-0.1,0-0.1,0.1c0.8,1.4,0.8,2.9,0.5,4.5
				C48.8,136.4,49,136.5,49.1,136.3L49.1,136.3z"/>
		</g>
	</g>
	<g>
		<g>
			<path class="st8" d="M34,138.4c-0.1-1.3-0.2-2.6-0.1-4c0-0.1-0.2-0.2-0.2-0.1C33.1,135.7,33.1,137.3,34,138.4
				C33.9,138.5,34,138.5,34,138.4L34,138.4z"/>
		</g>
	</g>
	<g>
		<g>
			<path class="st8" d="M37.1,138.8c-0.1-1.4-0.4-2.9-0.4-4.3c0-0.1-0.1-0.1-0.1,0C36.2,136,36.3,137.5,37.1,138.8
				C37.1,138.8,37.1,138.8,37.1,138.8L37.1,138.8z"/>
		</g>
	</g>
	<g>
		<g>
			<path class="st8" d="M31.3,138.6c-0.4-1.5-0.6-2.8-0.1-4.3c0-0.1-0.1-0.1-0.1-0.1C30.2,135.6,30.1,137.5,31.3,138.6
				C31.3,138.7,31.3,138.7,31.3,138.6L31.3,138.6z"/>
		</g>
	</g>
	<g>
		<g>
			<path class="st8" d="M59.5,81.9c0.2,2.3,0.6,4.2,2.3,5.9c1.8,1.9,4.1,3.5,6.2,5.1c0.3,0.2,0.7-0.3,0.4-0.5
				c-1.6-1.6-3.7-2.6-5.5-4C60.7,86.6,59.9,84.6,59.5,81.9C59.6,81.9,59.5,81.9,59.5,81.9L59.5,81.9z"/>
		</g>
	</g>
	<g>
		<g>
			<path class="st8" d="M107.7,54.4c1.3,2.3,1.6,4.6,2.3,7c0.3,1,0.9,1.9,1.1,3c0.3,1.3,0.2,2.8,0.3,4.1c0,0.1,0.1,0.1,0.1,0
				c0.5-5-1.2-10-3.8-14.2C107.8,54.2,107.7,54.3,107.7,54.4L107.7,54.4z"/>
		</g>
	</g>
	<g>
		<g>
			<path class="st8" d="M113.4,57.6c-0.2,0.7-0.4,1.4-0.8,2c-0.3,0.5-0.8,1-1.1,1.5c-0.5,0.7-0.8,1.5-0.3,2.2c0,0.1,0.2,0,0.2,0
				C111.4,61.1,113.4,59.7,113.4,57.6C113.4,57.6,113.4,57.6,113.4,57.6L113.4,57.6z"/>
		</g>
	</g>
</g>
</svg>
