<?xml version="1.0" encoding="utf-8"?>
<!-- Generator: Adobe Illustrator 22.1.0, SVG Export Plug-In . SVG Version: 6.00 Build 0)  -->
<svg version="1.1" id="Card_1" xmlns="http://www.w3.org/2000/svg" xmlns:xlink="http://www.w3.org/1999/xlink" x="0px" y="0px"
	 viewBox="0 0 155.9 155.9" style="enable-background:new 0 0 155.9 155.9;" xml:space="preserve">
<style type="text/css">
	.st0{clip-path:url(#SVGID_2_);}
	.st1{fill:#D07432;}
	.st2{fill:#B6511F;}
	.st3{display:none;}
	.st4{display:inline;fill:#FEE5C6;}
	.st5{fill:#FFFFFF;}
	.st6{fill:#E0E0E0;}
	.st7{fill:#2D1F21;}
	.st8{fill:#1E1416;}
	.st9{fill:#C4ABB2;}
	.st10{fill:#2F2123;}
	.st11{fill:#CC92A5;}
	.st12{fill:#010202;}
</style>
<g id="Colours">
	<defs>
		<path id="SVGID_1_" d="M48.8,59.1c-0.3-0.4-0.5-1.4-0.2-1.9c0.3-0.6,1.2-0.6,1.9-0.4c1.5,0.4,3,1.7,4.3,3.2
			C50.9,60.7,50.2,60.9,48.8,59.1z M40.6,112.1c-0.4,0.4-0.8,0.9-1.1,1.4c-0.3,0.7-0.4,1.5-0.4,2.2c0,1.5-0.1,3-0.1,4.4
			c0,1,0,2,0.2,3c0.2,1,0.7,1.9,0.9,2.9c0.6,2.4-0.2,5.1,1,7.2c0.4,0.6,1,1.2,1.7,1c1.2,0,2.1,0.4,3.4,0.4c0.5,0,0.9-0.1,1.4-0.1
			c0.6,0,1.1,0.1,1.7,0.1c0.6,0,1.3,0,1.6-0.5c0.5-1,0.2-1.7-0.4-2.5c-0.6-0.9-1.5-1.6-2.5-1.9c-0.4-0.1-0.8-0.2-1-0.5
			c-0.2-0.2-0.4-0.5-0.5-0.8c-1.6-4.6-0.8-10,2.1-14c0.9-1.3,2-2.4,3-3.7c0.9-1.2,1.7-2.5,2.5-3.8c0.1,0.2,0.2,0.4,0.3,0.6
			c1.3-4.1,3.3-9.5,3.4-14.6l1.5,0.9c0-0.4-0.3-1.5-0.4-1.9c1.8,0.3,2.3-0.6,4.8,0.2c3.3,1.3,3.7,2.4,6,5.2c0.1-0.3,0.1-0.7,0.2-1
			c1.5,1.4,3.1,2.9,4.6,4.3c0.1-0.6,0.2-1.2,0.3-1.8c1.2,1.2,2.4,2.2,3.8,3.2c-0.2-0.2,0.3-0.4,0.6-0.3c1.4,0.6,2.7,1.1,4.1,1.7
			l0,1.3c0.2,4.9,0.3,9.9,1,14.7c0.4,2.7,1,5.3,0.9,8c0,0.7-0.1,1.4,0,2.2c0.1,0.8,0.4,1.5,0.7,2.2c0.7,1.8,1.2,3.8,1.4,5.7
			c0.1,1.2,0.2,2.4,0.6,3.4c0.4,1.1,1.4,2,2.6,2.1c0.6,0.3,1.3,0.2,2,0.1c0.8,0.3,2.2,0.7,2.8,0.6c1.1-0.1,1.2-0.1,2-0.4
			c1.1,0.1,1.6-0.1,2.3-0.9l0.1-0.5c0-1-0.1-1.6-0.8-2.3c-0.9-0.9-1.7-1.5-2.6-2.3c-2.8-2.6-3.5-7-2.7-10.8c0.3-1.3,0.7-2.6,0.8-3.9
			c0.1-1.3-0.1-2.7-0.1-4c0-1.8,0.4-3.6,0.8-5.4c0.3-1.2,0.7-2.8,1-3.9c0.9,3.7,1.8,7.5,2,11.3c0.1,1.6,0,3.2,0.1,4.8
			c0.1,0.8,0.2,1.6,0.4,2.3c0.7,3.3,1.9,6.6,3.5,9.6c0.5,0.9,1.1,1.8,2.1,1.9c1.1,0.2,2.3,0.2,3.4,0.2c0.3,0,0.7-0.1,0.6-0.4
			l0.6-0.2c0.9,0.1,1.8,0.2,2.7,0.4c0.5,0.1,1.3,0.3,1.6,0c0.7-1,0.1-2.4-0.9-3.1c-1-0.7-2.2-1-3.2-1.6c-1.5-0.9-2.6-2.6-3-4.3
			s-0.5-3.5-0.4-5.3c0.1-2,0.3-4.1,0.5-6.1c0.3-2.6,0.5-5.2,1.1-7.8c0.4-1.8,0.9-3.5,1.2-5.3c0.3-2.2,0.2-4.4,0.7-6.5
			c0.8-3.1,2.8-5.8,3.7-9c0.6-2.2,0.6-4.5,1.3-6.7c0.6-1.9,1.8-3.5,2.8-5.3c1.9-3.4,3-7.1,3.2-10.9c0.8-0.1,1.8-0.5,2.2-1.2
			c0.4-0.7,0.5-1.6,0.3-2.4c-0.2-0.8-0.5-1.6-0.9-2.3l0.2,0c2.1-1.8,4.1-4.4,5.5-7c0.1,0.2,0.3,0.4,0.4,0.5c0.7-1.4,1.2-2.8,1.6-4.3
			c0.1,0.1,0.2,0.2,0.3,0.3c0-1.2-0.2-2.5-0.6-3.6c0.2,0.1,0.3,0.1,0.5,0.2c-0.6-1.7-1.4-3.3-2.3-4.7l-0.1-0.1
			c0-2.2,0.8-4.3,1.4-6.4s1-5.8-0.1-6.4s-5.1,2.2-6.9,4.4c-0.3,0.4-1,0.8-1.3,0.4c-0.5,0.4-0.9,0.9-1.1,1.5l0,0
			c-0.9-0.5-1.9-0.7-3-1c-1.5-0.3-3.1-0.8-4.6-0.7c-0.8,0-1.9,0.3-2.6,0.3c-1.5,0.1-3,0.3-3.8,0.9l-0.3,0.2c-1-2.2-2.6-4-4.7-5.1
			c-0.2-0.1-0.4-0.2-0.5-0.2c-0.3,0-0.6,0.3-0.8,0.6c-1.9,2.8-2.6,6.5-1.8,9.9l-0.1,0c-1.1,1.3-1.8,2.9-2.6,4.6
			c0.2,0,0.6-0.1,0.8-0.1c-0.5,1.1-1.1,2-1.3,3.3c0.1-0.1,0.4-0.2,0.5-0.3l0,0.8c-0.9,2.6-1.4,3-2.8,5.3c-0.2,0.4-0.7,0.7-0.8,1.1
			c-0.2,0.6-0.1,1.2-0.2,1.8l0-0.1c-2.1,0.6-4.7-0.3-6.8-0.1c-1.3,0.1-2.5,0.6-3.8,0.9c-4.1,1.1-8.4,0.7-12.7,0.5
			c-1.2-1.2-2.3-2.5-2.8-3.7c0.3-0.1,0.6,0.1,1.3,0c-1.3-2.8-3.9-5-6.5-6.7c0.3-0.1,0.4-0.6,0.3-0.9c-0.1-0.3-0.5-0.5-0.7-0.7
			c-0.9-0.6-1.8-1.2-2.7-1.7c0.3,0.1,1-0.6,0.7-0.8c-2.6-1.5-6.4-2-9.4-1.7c0.3-0.5,0.6-1.1,1-1.6c-3.4,1.2-6.6,3.3-9.1,5.9
			c0-0.5,0-1.1,0-1.6c-2.9,4.4-4.3,9.8-4.1,15c-0.1-0.2-0.2-0.3-0.4-0.5c0.1,1.5,0.3,3,1,4.3c-3.2,4.8-6.4,9.7-9.5,14.6
			c0.3-0.1,1.9-1.2,2.2-1.2c-1.7,1.3-2.6,4.4-3.3,6.1c0.4-0.2,0.8-0.3,1.2-0.5c-0.6,1.6-1.2,3.2-1.6,4.8c-0.1-0.3,1.6-1.9,2.3-2.2
			c-1.4,2.1-2.2,5.1-2.2,7c0.4-0.3,0.8-0.7,1.1-1.1c-0.4,1.9-0.5,4-0.2,5.9c0.3-0.1,0.6-0.2,1-0.3c-0.5,4.5,0,8.7,1.2,13.1
			c-0.6,2.2-2.7,3.8-3.5,5.9c-0.3,0.8-0.4,1.7-0.5,2.5c-0.6,5.5-1.3,10.9-1.9,16.4c-0.1,0.8-0.2,1.7,0.1,2.4
			c0.3,0.8,1.1,1.4,1.9,1.2l0,0.1c1.4,0.4,2.6,0.4,3.9-0.2c0.8-0.1,1.5,0.1,2.3,0l2-0.3c0.8-0.6,0.2-2.4-0.4-2.9
			c-0.8-0.6-1.6-1.1-2.1-1.9c-0.4-0.7-0.5-1.4-0.5-2.2c-0.3-2.7,0.1-5.4,1-8c0.6-1.7,1.5-3.4,2.4-5c3.1-5.6,5.5-9.3,9.4-14.3
			C43.3,106.3,42.5,109.9,40.6,112.1z"/>
	</defs>
	<clipPath id="SVGID_2_">
		<use xlink:href="#SVGID_1_"  style="overflow:visible;"/>
	</clipPath>
	<g id="Base" class="st0">
		<rect x="14.5" y="25.5" class="st1" width="122" height="122"/>
		<g>
			<path class="st2" d="M27.7,102.8C27.7,102.8,27.7,102.8,27.7,102.8c-0.1-3.7,0.1-5.3,1.2-8.8c0.5-1.6,2.6-5.7,3.1-7.1
				c-0.1-0.4-2.9,1.3-3.1,0.9c-0.6-1.3,0.3-1.7,0.6-3.2c0.3-1.5,0.6-3.1,0.9-4.6c0.1-0.6,0.2-1.2,0.1-1.7c-0.1-0.2-0.2-0.5-0.2-0.7
				c0-0.4,0.2-0.8,0.5-1.2c1.2-1.7,2.3-3.3,3.5-5c-0.5,0-1-0.5-0.9-1c0-0.3,0.2-0.5,0.3-0.8c1.2-1.9,2-4.1,2.4-6.3
				c-1.7,0.2-3.1,1.4-4.2,2.7c-1.1,1.3-2,2.8-3.1,4.1c-0.8,0.9-1.8,1.7-2.5,2.8c-0.7,1-1.2,2.1-1.6,3.2C22.2,82.8,22,90.3,24,97.2
				c0.9,3.2,2.3,6.5,1.6,9.7c-0.2,0.9-0.8,2.2-0.1,3.1c0.7,0.9,1.5,0.7,2.1-0.1C28.9,108.3,27.8,104.7,27.7,102.8z"/>
		</g>
		<g>
			<path class="st2" d="M100.5,48.1c1.3-0.6,2.5-1.2,3.8-1.7c0.4-0.2,1-0.4,1.3-0.1c0.1,0.1,0.3,0.3,0.5,0.3c0.1,0,0.2-0.1,0.2-0.2
				c0.5-0.6,0.8-1.4,1.4-1.8c0.4-0.3,1-0.4,1.4-0.7c0.5-0.5,0.5-1.4,0.9-2c0.6-1.1,2.1-1.2,3.3-0.9c1.2,0.4,1.9,1.5,1.6,2.8
				c-0.1,0.5-0.4,0.9-0.7,1.4c-0.9,1.7-1.4,3.6-1.8,5.4c-0.1,0.4-0.2,0.9,0.1,1.2c0.8-1.1,2.9-2.5,5-3c1.9-0.4,3-0.4,4.2,0.4
				c-0.4-2-1.3-4-2.5-5.7c-0.4-0.5-0.7-1.2-0.3-1.7c0.3-0.4,1-0.3,1.5-0.1c0.5,0.3,1,0.7,1.3,1.3c0.2,0.4,0.4,0.9,0.8,1.2
				c0.2,0.1,0.4,0.2,0.5,0.3c0.3,0.4,0.1,1,0.4,1.5c0.4,0.5,1.2,0.2,1.8,0.2c0.8-0.1,1.6,0.3,2.1,0.9s1,1.3,1.4,2
				c0.1,0.2,0.2,0.3,0.1,0.5c0,0.1-0.2,0.2-0.3,0.3c-1.1,0.8-2.5,1-3.4,1.9c-0.4,0.4-0.6,0.9-1,1.3c-0.4,0.4-0.9,0.7-1.4,1
				c-1.6,0.9-3.2,1.9-5,2c-1.1,0.1-2.2-0.1-3.3-0.3c-2.3-0.5-4.6-0.9-7-1.5c-1.5-0.3-3-0.7-4.3-1.4c-1.4-0.7-2.6-1.7-3.2-3.1
				c-0.2-0.4-0.3-1,0-1.3c0.1-0.1,0.1-0.1,0.2-0.2c0-0.1,0-0.2-0.1-0.2c-0.1,0-0.1,0.2,0,0.2"/>
		</g>
		<g>
			<path class="st2" d="M93.5,86.8L93.5,86.8c-0.1-1.1-0.2-2.3,0.3-3.2c0.7-1.2,2.3-1.7,3.2-2.8c1.1-1.3,1.1-3.3,0.6-4.9
				c-0.5-1.6-1.5-3.1-2.1-4.8c-0.8-2.3-2.7-6.4-2-6.9c0.7-0.5,2.3,0.8,3.1,0c0.3-0.3,0.5-0.8,0.6-1.3c0.3-1.2,0.3-2.5,0-3.8
				c-0.1-0.4-2.8-3.8-2-4.8c0.2-0.2,2.6,3.4,2.8,3.4c2.3,0.2,3.8,2.5,5.9,3.6c1.9,1,4.3,1,5.7,2.6c0.7,0.9,1,2,1.2,3.2
				c0.4,2,0.7,4,1,6c0.2,1.2,0.4,2.4,0.1,3.5c-0.2,1.1-0.7,2-1.3,3c-1.2,1.9-2.6,3.7-4.1,5.3c-2.1,2.1-4.5,3.8-6.7,5.9
				c-1.7,1.6-2.8,4.5-4.4,5.8C94.1,93.7,93.8,89.9,93.5,86.8z"/>
		</g>
		<g class="st3">
			<path class="st4" d="M98.3,56.9c-1.2-1.1-2.4-2.3-3-3.8c-0.6-1.5-0.5-3.4,0.8-4.5c0.3-0.3,0.7-0.5,1-0.7c0.4-0.4,0.6-1,0.9-1.6
				c1.3-3.3,3.5-6.1,6.4-8c-0.4,1.5-0.9,3-1.3,4.5c-0.1,0.3-0.2,0.7-0.1,1c0.2,0.6,0.9,0.7,1.5,0.7c2-0.2,3.3-2,4.8-3.5
				c1.4-1.4,4-2.4,5.3-0.8c0.3,0.4,0.5,0.8,0.9,1c0.9,0.4,1.6-0.8,2.5-1.3c1-0.5,2.3,0,3.1,0.9c0.8,0.9,1.2,2,1.9,2.9
				c0.2,0.4,0.6,0.7,1,0.7c0.6-0.1,0.7-0.9,0.7-1.5c-0.1-1.2-0.1-2.4-0.2-3.6c1.5,2.6,5,3.5,6.6,6c0.9,1.4,1.1,3.2,1.3,4.8
				c0.2,3,0.3,6.2-0.7,9c-1.6,4.6-5.5,7.9-7.8,12.1c-2.4,4.4-3,9.8-6.6,13.2c-1.1,1-2.3,1.8-3.2,3c-0.4,0.5-0.6,1.1-1,1.6
				c-0.5,0.6-1.2,1-1.8,1.5c-2.5,1.9-4.4,4.5-6.1,7.1c-0.2,0.3-0.5,0.8-0.3,1.1c0.1,0.3,0.5,0.4,0.7,0.6c0.7,0.6,0.5,1.8,0,2.6
				c-0.5,0.8-1.3,1.4-1.7,2.3c-0.5,1-0.4,2.2-0.4,3.4c0,1.4-0.3,2.7-0.6,4c-0.8,4-1.6,8.1-2.4,12.1c-0.3,1.5-0.9,3.3-2.3,3.6
				c-0.2,0-0.5,0.1-0.7-0.1c-0.2-0.1-0.3-0.4-0.3-0.6c-1-3.9-1.9-7.8-2-11.8c-0.1-3.6,1.1-6.7,0.4-10.2C94,97.4,90.8,90,92.2,82.4
				c0.1-0.5,0.2-1,0.6-1.3c0.7-0.6,1.8-0.2,2.6-0.4c1.2-0.4,1.6-2,1.7-3.2c0.1-0.6,0.1-1.1,0-1.7c-0.1-0.7-0.5-1.3-0.9-1.9
				c-1.4-2.4-2.5-5.1-3-7.9c-0.1-0.5-0.1-1,0.2-1.3c0.5-0.4,1.3-0.1,1.6-0.6c0.1-0.2,0.1-0.4,0-0.7c-0.4-2.3-0.8-4.6-1.2-6.8
				c1.5-0.2,3,0.7,3.6,2"/>
		</g>
		<g>
			<path class="st2" d="M46.1,88C46.1,88,46.1,88,46.1,88c-0.8,0.7-1.7,1.4-2.4,2.2c-1.3,1.3-2.2,2.9-3.1,4.4c-2,3.4-4,7-3.8,10.9
				c4.6-4.2,8.6-9.1,11.9-14.5c0.6-1,1.2-2,2-2.7c1.5-1.3,3.8-1.4,5.7-0.8c1.9,0.6,3.6,1.7,5.2,2.9c-1-3.8-2.4-8-5.8-9.9
				c0,0-0.9,1-0.9,1.1c-2.2-1-1.7-4.1-3.5-0.9C49.8,83.4,48.3,86,46.1,88z"/>
		</g>
		<g>
			<path class="st2" d="M40.4,62.4c1.6-1.5,3.6-2.5,5-3.2c-1.1-0.4-1.9-1.3-3.2-1.1c0.9-0.4,1.9-0.8,2.8-1.1c-0.3-0.4-0.7-0.8-1.1-1
				c2-1.8,4.9-2.5,7.5-1.8c0-0.8,0.4-1.6,1.1-2c-0.6,0.7,0.2,1.8,1.1,2.2c0.9,0.3,1.9,0.3,2.7,0.8c-0.3,0.4-0.5,0.7-0.8,1.1
				c1-0.1,2,0.8,2.8,1.5c-0.8-0.3-1.4,0.8-1.9,1.6c0.9,0.5,1.6,1.6,2.5,2.1c-0.3,0.3-0.6-0.1-0.9,0.2c3.4,3.3,10.5,3.8,15,2.1
				c-3.5,3.3-10,3.5-15.3-1.1c-0.4-0.3-0.7,0.5-1,0.1c-0.5-0.7-0.8-1.6-1.2-1.6C51.6,63.4,43.7,60,40.4,62.4z"/>
		</g>
		<g>
			<path class="st5" d="M36.5,60.3C36.5,60.3,36.5,60.3,36.5,60.3c0.7-0.2,1.3-0.2,2-0.2c-0.8-1.2-2-3.3-2-4.8
				c0.4,1.3,1.2,1.9,1.4,1.9c0.2-3.9,3.1-7.3,6.2-9.5c-1,0.8-0.7,2.6-0.5,3.6c2.1-2.2,5.1-3.7,8.2-4c-1,0.4-1.9,1.3-2.2,2.4
				c1.9-0.8,4-1,6.1-0.6c-0.8,0.5-1.5,1.1-2.1,1.8c2.2,0.2,5.9,1.7,8,1.8c-0.8,0-3.3,0.2-4,1c2.1,0.1,3,1.2,4.4,1.9
				c-0.3,0.2-0.5,0.4-0.8,0.6c2.5,0.8,4.9,2,7,3.6c-1-0.6-1.5-1.8-1.6-3c-0.1-1.2,0.1-2.3,0.2-3.5c0.2-2.6-0.2-5.3-1.2-7.8
				c-1.1-2.7-2.8-5.1-5.4-6.4c-1.1-0.5-2.2-0.8-3.3-1.1c-2.7-0.6-5.5-1.1-8.2-1.4c-1.2-0.1-2.5-0.2-3.7,0c-2.4,0.5-4.3,2.1-6,3.8
				c-5.5,5.8-8.1,15.5-6.1,23.2c1.2,4.6,3.4-1.9,5.7-1.7C37.9,61.4,37.6,60.4,36.5,60.3z"/>
		</g>
		<g>
			<path class="st5" d="M83.7,94.6C82.4,96,80.8,97.1,79,98c0.2-0.4,0.3-0.7,0.5-1.1c-1.4,0-2.8-0.5-4-1.1
				c-3.6-1.6-7.3-3.3-10.9-4.9c-1-0.4-1.9-0.9-2.7-1.5c-1-0.8-1.8-2-2.6-3.1c-0.8-1.2-1.7-2.4-2.6-3.5c0.1,0.9-0.4,1.7-1,2.3
				c-0.1-0.9-0.7-1.7-1.5-2c-0.8,1.6-2.4,2.4-3.9,3.1c-5.3,2.5-9.6,11.4-10.6,11.9c0.4-0.2,0.9-0.2,1.3-0.1
				c-4.3,3.3-3.5,7.2-7.2,14.5c-1,2-3.6,3.8-4.4,5.9c-0.8,2.3-1.1,4.8-2,7c-0.7,1.8-1.8,3.5-2,5.4c0,0.4-0.1,0.9-0.2,1.3
				c-0.2,0.4-0.6,0.8-0.9,1.1c-2,2.4-1.3,6.5,1.3,8.1c1.3,0.8,2.8,1,4.4,1c2.2,0.1,4.3-0.2,6.4-0.7c2.7-0.7,5.3-1.9,8-2.3
				c3.8-0.6,8.1,0.3,11-2.2c2.3-2,2.7-5.3,2.4-8.3c-0.4-3-1.5-5.8-1.7-8.8c-0.3-4.1,1.2-8.3,4-11.4c1.1-1.2,2.5-2.3,4.1-2.9
				c4-1.6,8.6-0.4,12.7-1.9c0.9-0.3,1.7-0.7,2.7-0.6c1.1,0.2,2.1,1.1,3.1,0.8c1.1-0.3,1.3-1.7,1.4-2.8C83.9,99,83.9,96.8,83.7,94.6z
				"/>
		</g>
		<g>
			<path class="st5" d="M29.6,78c1.3-0.6,3.6-0.9,3.2-0.3c-0.4,0.7-1.3,1.7-2.7,3.6c-0.5,0.7,1.3,1,0.9,1.8
				c-0.6,1.3-1.1,2.6-1.5,3.7c0.8-0.7,4.3-2.5,3.6-1.6c-0.7,0.9-8.1,11.7-7.4,18.6c-1.4-5.5-2.4-10.3-3.2-15.9
				c-0.3-1.7-0.5-3.5-0.3-5.2c0.2-1.9,0.7-3.7,1.4-5.5c0,0,0,0,0,0c0.6-1.6,3.8-10.7,6.6-9.3c1.7,0.8-0.2,6.4-0.1,7.8
				c0.9-0.4,1.2-0.4,2.1-1.4C31.8,76.5,29.9,78,29.6,78z"/>
		</g>
		<g>
			<path class="st5" d="M96.1,50c1.3,0.7,2.5,1.4,3.8,2.1c-0.9,0.3-1.9,0.4-2.9,0.4c0.5,0.4,0.9,0.8,1.4,1.2c-0.9-0.3-1.8,0.6-2,1.5
				c-0.1,0.9,0.4,1.8,0.9,2.6c2.3,3.6,5.8,6.5,9.7,8.2c-4.1,1.1-7.1-0.3-9-0.2c-0.5,0-1,0.2-1.2,0.6c-0.1,0.3-0.1,0.5,0,0.8
				c0.6,3.8,3.8,8.7,5.8,12c-3-2.3-3.2,0.1-3.2,1.2c0,1,0,2.4-0.9,2.8c-0.7,0.3-1.6-0.1-2.4,0.1c-0.5,0.2-0.9,0.7-1.1,1.2
				c-1,2-1.4,4.3-1.3,6.6c0.2,2.7,1.2,5.2,1.9,7.8c0.7,2.9,0.8,5.8,0.4,8.7c-0.3,2.1-0.8,4.1-0.6,6.2c0.2,2.4,0.7,0.9,1,3.3
				c0.4,2.3,0,7.4,1.7,9c1.6-4.8,1-11.7,2.8-16.8c4-11.3,0.5-10.8,2.4-12.6c4.8-4.8,8.4-8,11.3-15c2.7-6.6,11.9-12.7,14.4-19.4
				c1.7-4.5,2.3-10-0.7-13.8c-0.7-0.8-1.5-1.5-2.5-1.8s-1.4-0.3-2,0.6c-0.3,0.5-0.6,1.4-1.4,0.8c-0.6-0.6,0.4-0.7,0.3-1.4
				c-0.2-1.2-0.5-1.6-1.5-2.3c0.5-1.8-1-3-1.6-3.4c-0.6-0.3-1.4-0.4-1.8,0.2c-0.5,0.6-0.1,1.6,0.3,2.3c1.2,2.2,2.4,3.6,3.6,5.8
				c-2-0.2-3.9,0.4-5.9,0.9c-1.9,0.5-3.6,1.6-4.3,3.5c-0.8-2.1-0.4-2.8,0.6-4.5c0.1-0.5,0.1-1.6,0.3-2c0.2-0.5,0.7-1,1.1-1.4
				c0.7-0.8,1.4-1.7,1.4-2.7c0.1-1.7-2.1-3.1-3.6-2.4c-1.6,0.7-1.8,3.2-0.4,4.3c-0.8-0.1-1.4-0.2-2.1,0.1s-1.5,1.3-1.1,2
				c0.3,0.5,0.9,0.7,1.1,1.2c0.3,0.7-0.6,1.5-1.4,1.3c0,0,0,0,0,0c-2.2-0.6-0.9-3.8-3.8-3.1c-1.3,0.3-2.5,1.1-3.7,1.6
				C99.4,48.5,96.5,50.2,96.1,50z"/>
		</g>
		<g>
			<path class="st5" d="M87,130.8L87,130.8c0.2,1,0.5,2,1.1,2.9c0.6,0.9,1.6,1.5,2.6,1.4c0.4,0,0.8-0.2,1.2-0.1
				c0.3,0.1,0.6,0.4,0.9,0.5c0.4,0.2,0.9,0.3,1.3,0.5c2.2,0.6,4.2,1.8,5.8,3.5c1,1,1.8,2.6,0.9,3.7c-0.3,0.3-0.6,0.5-1,0.7
				c-3.6,1.8-7.5,2.9-11.5,3.1c-0.7,0-1.4,0.1-2.1-0.2c-0.9-0.3-1.6-1.1-2.2-1.8c-1.1-1.3-2.2-2.6-2.7-4.1c-0.5-1.4-0.5-3-0.5-4.5
				c0.1-2.7,0.2-5.4,0.5-8.1c0.2-2.4,0.1-6.2,1.2-8.3c1.6-3.1,2.2,0.6,2.5,2.2C85.6,125.1,86.3,128,87,130.8z"/>
		</g>
		<g>
			<path class="st5" d="M101.8,133.7c1.4,0.2,2.7-0.9,4-1.3c1.4-0.4,2.8,0,4.1,0.7s2.3,1.7,3.3,2.6c0.3,0.3,0.7,0.7,0.9,1.1
				c0.5,1,0,2.2-0.8,3c-0.8,0.7-1.9,1.1-2.9,1.5c-1.5,0.5-3.1,1-4.7,0.6c-2.5-0.6-4-3-5.3-5.2l0,0c-0.4-0.8-2.9-4.1-2-4.7
				C99.4,131.4,100.8,133.6,101.8,133.7z"/>
		</g>
		<g>
			<path class="st2" d="M95.8,43C95.8,43,95.8,43,95.8,43c0.6-0.7,1.4-1.3,2.4-1.5c-0.5-0.4-1-1-1.2-1.6c0.5,0.2,1.1-0.4,1.1-0.9
				c0.1-0.5-0.1-1.1-0.2-1.7c-0.2-1.5,0.7-3,1.5-4.3c0.1-0.1,0.2-0.3,0.3-0.4c0.2-0.1,0.5,0,0.7,0.2c1.5,0.9,2.9,1.8,4.4,2.7
				c-0.5-1.1-1.1-2.1-1.6-3.2c-0.5-0.9-0.9-1.8-1.6-2.5c-0.7-0.7-1.7-1.2-2.7-1.1c-1.5,0.2-2.5,1.8-3.1,3.2c-1.4,3.2-2.4,6.5-3,10
				c-0.2,1-0.3,2,0.1,2.9c0.3,0.7,1,1.2,1.5,0.7C95,44.9,95.2,43.7,95.8,43z"/>
		</g>
		<g>
			<path class="st2" d="M126.8,38.9L126.8,38.9c0.2-1.4,0.4-2.9,0.6-4.3c0.1-0.8,0.1-1.8-0.6-2.1c-0.5-0.2-1.1,0-1.5,0.3
				c-0.8,0.4-1.6,0.8-2.5,1.3c-0.4,0.2-0.9,0.4-1.1,0.8c-0.3,0.4-0.3,1,0,1.3c-0.2-0.1-0.4-0.3-0.5-0.4c-0.3,0.3-0.3,0.7-0.2,1
				c-2.4-1.4-5.2-1.9-7.9-1.8s-5.4,0.7-8.1,1.3c-0.5-1.2,0-2.6,0.9-3.6c0.9-0.9,2.1-1.5,3.3-2c1.8-0.8,3.6-1.6,5.4-2.4
				c2.3-1,4.5-2,6.9-2.8c1.6-0.5,3.3-1,4.9-0.5c1.7,0.5,2.9,1.8,3.9,3.2c0.6,0.8,1.1,1.6,1.5,2.6c1.3,3.1,0.2,6.9-2.5,8.9
				c-0.4,0.3-0.9,0.6-1.2,1c-0.2,0.3-0.3,1.1-0.8,1C126.2,41.7,126.7,39.5,126.8,38.9z"/>
		</g>
		<g>
			<path class="st2" d="M81.6,59.4c2.3-0.2,4.7-0.4,6.6,0.8c2,1.3,2.9,1,2.5-1c-0.4-2,1.1-4.6,2.3-4.9s3.1,0.8,2.7-0.4
				c-0.8-1.8-1.5-3.8-1.2-5.7c0.5-2.4,2.7-4.6,1.9-6.9C86.4,46.4,78,55.2,67.1,58v0c0.7,0.6,1.5,2.2,2.3,2.6
				c0.9,0.4,2.9-0.2,3.9-0.3C76,60,78.8,59.7,81.6,59.4z"/>
		</g>
		<g>
			<path class="st2" d="M108.3,96.7c-0.5,1.2-0.7,2.5-0.8,3.8c-0.8,5.9-1.7,11.8-2.5,17.8c-0.6,4.1-1.1,8.6,1.4,11.9
				c1.3-5.6,2.7-11.1,4.3-16.6c0,0,0,0,0,0c1.9-6.7,4.1-13.5,4.3-20.5c0.1-1.7,0.2-7.7-2.4-4C111.1,91.2,109.3,94.3,108.3,96.7z"/>
		</g>
		<g>
			<path class="st2" d="M84.8,92.2L84.8,92.2c0.5,1.7,1.3,3.3,1.3,5c0.1,2-0.8,3.9-1,5.9c-0.1,1.5,0.2,3,0.4,4.6
				c0.6,5.3-0.3,10.6-1.2,15.9c-1.2-4.4-2.3-8.9-2-13.4c0.1-1.8,0.5-3.5,0.6-5.3c0.2-2.2-0.6-15.1,1.4-15.4
				C84.4,90.4,84.5,91.3,84.8,92.2z"/>
		</g>
		<g>
			<path class="st6" d="M119.8,65.9C119.8,65.9,119.8,65.9,119.8,65.9c0.2,0,0.3-0.1,0.5,0c0.3,0.1,0.2,0.5,0.2,0.8
				c-0.3,1.5-0.5,3.1-0.8,4.6c-0.6,3.6-1.3,7.3-3.5,10.1c-1.2,1.5-2.8,2.6-4,4.2c1.3-2.4,2.6-4.9,2.7-7.6c0-0.8,0-1.7,0.3-2.4
				c0.2-0.5,0.6-0.9,0.8-1.4c0.8-1.9,0.8-3.9,0.6-5.8C116.3,65.7,117.7,66.4,119.8,65.9z"/>
		</g>
		<g>
			<path class="st6" d="M54.2,100c-0.1,0.7,0,1.3-0.1,2c-0.2,1.7-1.4,3.1-2.4,4.4c-2.2,2.9-4,6-5.4,9.3c-1.1,2.7-2,5.9-0.6,8.5
				c0.3,0.6,0.9,1.1,1.5,0.9c0.4-0.1,0.6-0.5,0.8-0.8c2.2-4,4.5-8,6.7-12c1-1.8,2-3.5,2.7-5.4c0,0,0,0,0,0c1.1-2.8,2.8-9.1,1.4-12.1
				c-0.9-1.9-1.5-0.2-2.2,1C55.7,97.2,54.5,98.4,54.2,100z"/>
		</g>
		<g>
			<path class="st6" d="M47.4,91.9L47.4,91.9c-3.9,6.5-7.9,12.9-11.8,19.4c2.1-2.6,4.1-5.2,6.2-7.8c3.3-4.1,8.5-10.2,7.9-15.8
				C49,89.2,48.3,90.6,47.4,91.9z"/>
		</g>
		<g>
			<path class="st2" d="M101,41.1c0.2-0.1,0.4-0.2,0.6-0.4c0.3-0.2,0.6-0.4,0.9-0.6c0.7-0.5,1.5-1,1.6-1.8c0.1-0.6-0.2-1.1-0.5-1.6
				c-0.2-0.3-0.4-0.6-0.6-0.9c-0.1-0.1-0.1-0.2-0.2-0.1c-0.1,0-0.1,0.1-0.2,0.1c-0.5,0.7-1,1.4-1.5,2.1c-0.1,0.1-0.2,0.3-0.4,0.4
				c-0.3,0.1-0.6,0-0.9,0c-0.5,0-0.9,0.3-1.1,0.7c0,0,0,0,0,0C97.4,40.6,99.4,41.8,101,41.1z"/>
		</g>
		<g>
			<path class="st2" d="M122.2,37.5C122.2,37.5,122.2,37.5,122.2,37.5c0,0.2-0.1,0.4,0,0.6c0,0.2,0.2,0.4,0.3,0.5
				c0.4,0.6,0.8,1.1,1.2,1.7c0.1,0.1,0.2,0.2,0.3,0.3c0.1,0,0.2,0,0.3,0.1c0.3,0,0.6,0.1,0.9,0.1c0.1,0,0.2,0,0.3,0
				c0.1,0,0.2-0.2,0.2-0.3c0.3-0.6,0.6-1.1,0.5-1.8c0-0.6-0.3-1.1-0.6-1.6c-0.4-0.6-1.2-1.8-2.1-1.7
				C122.5,35.4,122.4,36.7,122.2,37.5z"/>
		</g>
	</g>
	<g id="Details" class="st0">
		<g>
			<path class="st7" d="M109.5,44.7c-0.4,0.1-0.7,0.4-0.9,0.8c0,0.1-0.1,0.1-0.1,0.2c0,0.1,0.1,0.2,0.1,0.3c0.5,0.5,1.1,0.9,1.7,1
				c0.4,0.1,0.7,0.1,1-0.1c0.3-0.2,0.5-0.6,0.5-1c-0.1-0.5-0.4-0.8-0.7-1c0,0,0,0,0,0C110.7,44.4,110,44.5,109.5,44.7z"/>
		</g>
		<g>
			<path class="st7" d="M119.8,44.6L119.8,44.6c-0.2,0.2-0.3,0.5-0.3,0.8c0,0.3,0.3,0.6,0.5,0.7c0.3,0.1,0.6,0.2,0.8,0.2
				c0.1,0,0.2,0,0.4,0c0.3-0.1,0.6-0.4,0.7-0.7c0-0.1,0.1-0.2,0.1-0.3c0-0.2-0.1-0.7-0.2-0.8C121.4,44.2,120.3,44,119.8,44.6z"/>
		</g>
		<ellipse class="st5" cx="110.4" cy="45.4" rx="0.5" ry="0.3"/>
		<ellipse class="st5" cx="120.4" cy="45" rx="0.4" ry="0.3"/>
		<g>
			<path class="st8" d="M119.5,54.2L119.5,54.2c-0.2-0.1-0.5-0.2-0.7-0.2c-0.7-0.2-1.4-0.6-1.8-1.2c-0.2-0.3-0.4-0.7-0.4-1.1
				c0-0.5,0.2-0.9,0.5-1.3c0.4-0.4,0.9-0.7,1.5-0.9c0.5-0.2,1.3-0.2,1.8-0.1c0.5,0.1,1.1,0.3,1.5,0.6c0.6,0.5,0.6,1.2,0.6,1.9
				c0.1,0.8-0.1,1.7-0.8,2c-0.3,0.2-0.7,0.2-1,0.2c-0.4,0.1-0.6,0.3-0.8,0.5C119.8,54.4,119.7,54.3,119.5,54.2z"/>
		</g>
		<ellipse class="st9" cx="120.4" cy="50.4" rx="0.9" ry="0.4"/>
		<g>
			<path class="st9" d="M97.3,39.3L97.3,39.3c0.2,0,0.4,0.1,0.6,0.1c-0.5-1-0.3-2.2-0.1-3.3c0.2-0.8,0.4-1.5,0.7-2.2
				c0,0.3,0.1,0.6,0.1,0.9c0.5-0.8,0.9-1.6,1.3-2.5c0.7,0.5,1.4,1,2.1,1.7s1.2,1.3,1.4,2.2c0.2,0.8,0.2,1.8-0.4,2.5
				c-0.5,0.7-1.5,1.1-2.3,0.7c0.2-0.2,0.4-0.4,0.5-0.6c-0.3,0-0.7,0-1-0.1c-0.1,0-0.5,1.2-0.5,1.4c-0.1,0.3-0.1,1.1-0.4,1.1
				c-0.3,0-0.9-0.6-1.1-0.8C97.9,40,97.6,39.7,97.3,39.3z"/>
		</g>
		<g>
			<path class="st9" d="M126.9,38.9c-0.2,0-0.4-0.2-0.6-0.3c0.6-1.1,0.9-1.6,1.3-2.6c0.2-0.7,0.1-1.6,0-2.3
				c-0.1,0.3-0.3-0.2-0.5,0.1c0.3-1.4,0.9-1.8,0.4-2.7c-0.8,0.3-2,0.8-3,1.7c-0.7,0.5-1.4,1-1.9,1.7s-0.7,1.7-0.4,2.5
				c0.3,0.8,1,1.4,1.9,1.3c-0.1-0.2-0.2-0.5-0.3-0.7c0.3,0.1,0.6,0.2,0.9,0.2c0.1,0,0.5,2.2,0.8,2.3
				C125.8,40.3,126.9,38.9,126.9,38.9z"/>
		</g>
		<g>
			<path class="st10" d="M108.4,56.2c0.1,0.4,0.4,0.8,0.7,1.1c0.8,1.1,1.1,2.5,2,3.5c0.5,0.5,1.2,0.9,1.6,1.5c0.4,0.5,0.6,1.2,1,1.7
				c0.4,0.6,1.1,0.9,1.8,1.2c1.1,0.4,2.5,0.6,3.2-0.2c0.4-0.4,0.5-0.9,0.8-1.4c0.4-0.6,1.2-1,1.2-1.7c0-0.2-0.1-0.5-0.1-0.7
				c-0.3-1-0.4-2-0.2-3c0.1-0.6,0.2-1.1,0.2-1.7c0-0.6-0.2-1.2-0.7-1.5c-0.9,0.8-2.1,1.3-3.3,1.2c-0.5,0-1.1-0.2-1.6-0.2
				c-0.6-0.1-1.2,0-1.8-0.1c0,0,0,0,0,0c-1.1-0.2-2.1-1.1-3.2-1.2C109.3,54.6,108.3,55.3,108.4,56.2z"/>
		</g>
		<g>
			<path class="st5" d="M110.9,56.3c0.2-0.2,0.4-0.4,0.6-0.3c0,0.5-0.1,1.1-0.2,1.6c0,0.1,0,0.2-0.1,0.2c0,0-0.1,0-0.2,0
				c0,0,0,0,0,0C110.2,57.8,110.5,56.7,110.9,56.3z"/>
		</g>
		<g>
			<path class="st5" d="M110.4,55.2c0.2-0.2,0.4-0.4,0.6-0.3c0,0.5-0.1,1.1-0.2,1.6c0,0.1,0,0.2-0.1,0.2c0,0-0.1,0-0.2,0
				c0,0,0,0,0,0C109.7,56.7,110,55.7,110.4,55.2z"/>
		</g>
		<g>
			<path class="st5" d="M111.6,57.8c0.2-0.2,0.4-0.4,0.7-0.4c0,0.6,0,1.1-0.1,1.7c0,0.1,0,0.2-0.1,0.2c0,0-0.1,0-0.2,0c0,0,0,0,0,0
				C111,59.4,111.3,58.3,111.6,57.8z"/>
		</g>
		<g>
			<path class="st5" d="M112.7,59c0.1-0.2,0.3-0.4,0.6-0.4c0.1,0.5,0.1,1,0.1,1.5c0,0.1,0,0.1-0.1,0.2c0,0-0.1,0-0.1,0.1
				c0,0,0,0,0,0C112.3,60.5,112.5,59.5,112.7,59z"/>
		</g>
		<g>
			<path class="st11" d="M114.4,61.7c0.1,0.6,0.2,1.2,0.3,1.8c0.5,1.7,2,3.1,3.8,3.6c0.4,0.1,0.9,0.2,1.3,0.2
				c1.4-0.1,2.5-1.5,2.7-2.9c0.1-1.4-0.5-2.8-1.4-3.9c-0.4-0.5-0.9-0.9-1.1-1.5c-0.4-1.1,0.4-2.6-0.4-3.5c-1.3,0.8-2.8,0.9-4.3,0.7
				l0,0c-1.1-0.1-2.2-0.5-3.3-0.8c-0.6-0.2-1-0.5-0.9,0.2c0.1,0.4,0.5,0.9,0.7,1.2C112.8,58.4,114,59.9,114.4,61.7z"/>
		</g>
	</g>
</g>
<g id="Outlines">
	<g>
		<g>
			<path class="st12" d="M35.6,63.9c-3.6,4.6-6.7,9.5-9.8,14.5c-0.2,0.4,0.2,0.8,0.6,0.6c1.7-0.9,1.2-1.8,0.2,0
				c-0.8,1.4-1.3,2.9-1.9,4.4c-0.1,0.2,0.2,0.5,0.4,0.4c0.5-0.2-0.8,4.1-0.7,3.9c-0.1,0.4,0.5,0.6,0.6,0.3c1.1-2.3,0.7-0.9,0.2,0.5
				c-0.5,1.4-0.8,2.7-0.8,4.1c0,0.4,0.5,0.6,0.7,0.3c-0.4,0.4,0,3.8,0.1,4.5c0,0.3,0.3,0.6,0.6,0.5c-1.2,0.4,1.5,11.5,1.8,12.6
				c0.1,0.3,0.6,0.2,0.5-0.1c-1.2-4.4-1.2-8.8-0.9-13.3c0-0.3-0.4-0.6-0.7-0.5c-1.1,0.4,0-6.3-0.2-5c0.1-0.4-0.4-0.8-0.8-0.4
				c-0.2-0.6-0.2-1.2,0.2-1.8c0.3-1.3,0.9-2.4,1.6-3.5c0.2-0.3-0.2-0.7-0.5-0.5c-0.6,0.4-1.7,1.7-2.2,1.8c1-0.2,1.5-3,1.9-4.1
				c0.1-0.3-0.2-0.5-0.5-0.4c-0.9,0.4,1.8-4.5,2.4-5.1c0.3-0.3-0.1-0.8-0.5-0.6c-1.5,0.7-1.3,1.5-0.6,0.1c0.8-1.4,1.7-2.7,2.6-4.1
				c1.9-3,3.8-6,5.6-9.1C35.8,63.9,35.7,63.8,35.6,63.9L35.6,63.9z"/>
		</g>
	</g>
	<g>
		<g>
			<path class="st12" d="M27.8,110c-1.3,2.7-3.5,4.2-4.1,7.1c-0.7,3.3-0.7,7.1-1.1,10.5c-0.4,2.8-3.3,10.7,1.5,11.3
				c0.4,0.1,0.5-0.6,0.1-0.7c-3.5-0.9-0.4-15.4-0.1-17.7c0.6-4,2.7-6.7,4-10.3C28.2,109.9,27.9,109.8,27.8,110L27.8,110z"/>
		</g>
	</g>
	<g>
		<g>
			<path class="st12" d="M51.7,80c-0.6,3.1-1.3,6.2-2.2,9.2C49,91.3,46.8,95,47,97.1c0-0.3-0.5-0.5-0.7-0.2
				c-0.5,1.2-2.9,4.2-2.9,5.3c0-0.2-0.3-0.4-0.5-0.2c-4.8,6-10.2,12.7-12.8,20.1c-1,2.8-2.1,7.2-1.2,10.1c0.4,1.4,3.8,4.1,3.3,5.2
				c-0.2,0.4,0.4,0.7,0.6,0.3c0.7-1.3,0.5-1.6-0.3-2.9c-0.2-0.3-1-0.8-1-0.8c-2.3-2.5-2.4-4.5-1.9-7.8c0.8-4.5,3.5-8.6,5.8-12.5
				c0.9-1.5,1.8-3,2.7-4.4c0.6-1,4.6-5.3,4.6-6.1c0,0.3,0.4,0.4,0.5,0.1c0.5-0.9,3.1-4.2,3-5.1c0,0.4,0.5,0.5,0.7,0.1
				c2.4-5.9,4-12,4.7-18.4C51.9,79.9,51.8,79.9,51.7,80L51.7,80z"/>
		</g>
	</g>
	<g>
		<g>
			<path class="st12" d="M58.2,89.9c0.5,0.4,1,0.8,1.6,1.3c0.1,0.1,0.1,0.1,0.2,0c2.7-1.2,8.1,4.7,9.4,6.3c0.2,0.2,0.6,0.1,0.7-0.2
				c0-0.1,3.7,3.2,4.1,3.6c0.2,0.2,0.7,0.2,0.8-0.2c0.2-1.4,3,1.4,3.4,1.7c0.3,0.2,0.6,0,0.7-0.3c0,0,4,1.6,4.2,1.7
				c0.4,0.2,0.8-0.6,0.3-0.8c-1.5-0.6-3.2-1.8-4.8-1.8c-0.2,0-0.4,0.1-0.4,0.3c0.2-0.5-2.9-2.9-3.1-3.1c-0.2-0.2-0.7-0.2-0.8,0.2
				c-0.3,1.6-3.8-2.3-4.2-2.7c-0.2-0.2-0.7-0.1-0.7,0.2c0.2-1.1-6.1-4.5-6.8-4.8c-1.5-0.6-3.1-0.7-4.4-1.5
				C58.2,89.7,58.1,89.8,58.2,89.9L58.2,89.9z"/>
		</g>
	</g>
	<g>
		<g>
			<path class="st12" d="M41.9,104.2c1.3,5-2.3,6.3-3.1,10.2c-0.5,2.5-0.2,6.2,0.1,8.7c0.2,1.9,0.8,3.8,1,5.8c0.1,1.3,0,2.5,0.5,3.7
				c0.6,1.4,1,1.9,2.5,2.1c0.6,0.1,0.7-0.9,0.1-1c-1.2-0.3-2.7-8.1-3.2-10c-1-3.5-0.8-8.2,1.2-11.3c1.8-2.9,2.7-5.1,1.2-8.4
				C42.1,103.9,41.8,104,41.9,104.2L41.9,104.2z"/>
		</g>
	</g>
	<g>
		<g>
			<path class="st12" d="M57.6,92.8c-0.3,2.9-1,5.6-1.8,8.4c-0.4,1.3-1.9,4.2-1.4,5.5c-0.1-0.3-0.5-0.4-0.7-0.1
				c-2.9,4.7-7.4,8.8-8.4,14.4c-0.4,2.1-0.5,5.5,0.7,7.3c1.4,2.1,5.2,2.2,4.5,5.9c-0.1,0.6,0.7,0.8,0.9,0.2c1.5-4.3-3.5-4.4-4.9-7.8
				c-1.5-3.6,0.2-9.2,2.2-12.3c0.5-0.7,5.8-5.6,5.2-6.9c0.1,0.3,0.5,0.3,0.7,0c1.7-4.8,3.2-9.5,3.3-14.7
				C58.1,92.5,57.6,92.6,57.6,92.8L57.6,92.8z"/>
		</g>
	</g>
	<g>
		<g>
			<path class="st12" d="M48.3,93c0.5-0.6,1.6-2.6,2.3-2.9c1-0.6,1.6,0.6,2.1,1.8c0.1,0.2,0.4,0.1,0.4-0.1c0.8-2.6,1.4,0,2.4,1.3
				c0.1,0.2,0.5,0.2,0.5-0.1c0.4-2.2,2.9,0.7,3.1,0.9c0.2,0.2,0.6,0,0.5-0.3c-0.3-1.4-0.4-1,0.7-1.5c0.9-0.4,2.5-0.1,3.4,0.1
				c0.3,0.1,0.4-0.3,0.1-0.4c-1.7-0.5-3.1-0.1-4.8-0.3c-0.2,0-0.3,0.2-0.3,0.4c0.4,2.1,0.1,0.5-1.2-0.2c-0.4-0.2-0.7-0.4-1.2-0.4
				c-0.4,0-0.6,0.8-0.7,0.8c-0.5,0-1.4-2-1.9-2.5c-0.1-0.2-0.4-0.1-0.4,0.1c-0.3,1-0.1,1.2-0.8,1c-0.6-0.2-1.1-1.4-1.3-1.9
				c-0.1-0.1-0.3-0.1-0.3,0c-0.8,1.5-1.7,2.8-2.8,4.1C48,93,48.2,93.1,48.3,93L48.3,93z"/>
		</g>
	</g>
	<g>
		<g>
			<path class="st12" d="M85.2,86.2c-2.7,5.2-1.9,9.6-2.2,15.3c-0.4,6.2,0.3,12.5,1.2,18.7c0.5,3.1,0.3,6.2,0.7,9.3
				c0.3,2.2,1.5,4.3,1.9,6.6c0.7,3.7,0.4,7.3,4.9,7.8c0.8,0.1,0.8-1.2,0-1.3c-4.2-0.5-3.8-5.5-4.5-8.2c-0.5-2.1-1.5-3.9-1.7-6
				c-0.3-4.3-0.9-8.5-1.3-12.8c-0.5-5.1-0.6-10.3-0.1-15.4c0.2-1.6,0.2-1.5,0.2-3.2c-0.3-1.5-0.5-2.9-0.7-4.4
				c0.1-2.2,0.7-4.3,1.7-6.2C85.5,86.2,85.3,86.1,85.2,86.2L85.2,86.2z"/>
		</g>
	</g>
	<g>
		<g>
			<path class="st12" d="M95.8,109.1c0.8,4.3,1.6,8.5,1.6,12.9c0,2.6,0.2,4.8,1,7.3c0.8,2.7,2.1,9.4,5.6,10.1
				c0.4,0.1,0.7-0.5,0.3-0.7c-4.5-2.7-5.5-11.2-5.8-15.9c-0.3-4.8-1-9.2-2.4-13.8C96,109,95.8,109,95.8,109.1L95.8,109.1z"/>
		</g>
	</g>
	<g>
		<g>
			<path class="st12" d="M119.7,67.1c-1.3,7-5.5,12.6-7,19.5c-0.8,3.6-2.3,6.6-3.6,10c-1.4,3.6-1,6.9-1.6,10.6
				c-1.1,6.5-2.7,12.7-2.6,19.3c0,2.1,0.4,4.5,1.7,6.2c1.4,1.9,6.8,3.2,5.9,6.2c-0.2,0.6,0.8,0.9,1,0.3c0.4-1.4,0.2-2-0.7-3.1
				c-0.7-0.8-1.7-1-2.7-1.5c-3-1.8-4-4.6-4.3-8.1c-0.6-7.2,1.6-14.7,2.8-21.7c0.7-4.2,1.6-7.5,3.3-11.4c1.2-2.8,1.3-5.3,1.9-8.3
				c0.9-3.6,3.3-6.3,4.7-9.7c1.1-2.7,1.5-5.3,1.5-8.2C120,67,119.8,66.9,119.7,67.1L119.7,67.1z"/>
		</g>
	</g>
	<g>
		<g>
			<path class="st12" d="M36.1,63.8c-0.5-1.1-0.9-2.3-1.3-3.5c0.2,0.2,0.6,0.2,0.6-0.2c-0.2-5.4,1.4-10.2,4.2-14.8
				c-0.3-0.1-0.7-0.2-1-0.3c0,0.5,0,1.1,0,1.6c0,0.5,0.7,0.7,1,0.3c1.3-1.6,2.8-2.9,4.6-3.9c0.8-0.6,1.7-0.9,2.8-0.8
				c-0.2,0.3,0,0.7,0.4,0.7c1.4-0.1,2.7-0.1,4.1,0.1c0,0,5.2,1.2,4.4,1.5c-0.3,0.1-0.2,0.6,0,0.7c1.2,0.7,2.2,1.5,3.1,2.6
				c-0.2,0.2-0.2,0.5,0.1,0.7c0.9,0.6,6.7,5.9,5.4,5.9c-0.3,0-0.5,0.4-0.4,0.7c1.8,3.4,5.4,4.8,7.6,7.7c0.8,1,1,0.2,0.4,1.6
				c-0.7,1.5-4.9,1.7-6.4,1.6c-3.2-0.2-5.7-2-8-4c-0.2-0.2-0.6-0.1-0.6,0.3c-0.1,1.5-1-1.4-1.7-2.3c-0.9-1.1-2-2.3-3.3-3
				c-1.1-0.5-2.9-1.2-3.8,0c-0.8,1.1,0.1,2.9,1,3.6c1.7,1.3,3.6,0.2,5.5-0.2c0.3-0.1,0.2-0.5-0.1-0.5c-0.9,0.1-1.7,0.2-2.6,0.1
				c-2.7-0.7-2.8-1-0.3-0.7c1.3-0.3,2.2,0,2.8,1.2c0.9,1,1.7,2.1,2.3,3.3c0.2,0.3,0.6,0.1,0.6-0.2c0.1-1.3,1.4,0.5,2.3,1.1
				c1.3,0.9,2.8,1.6,4.4,1.9c3.6,0.8,6.7-0.8,9.7-2.7c0.2-0.2,0.2-0.5,0-0.7c-1.9-1.3-3.8-2.7-5.5-4.2c-0.8-0.7-1.7-1.5-2.3-2.5
				c-0.6-1-1.8-1.3-0.3-1.3c0.3,0,0.5-0.4,0.4-0.7c-1.4-2.5-3.4-3.8-5.2-5.9c-0.3-0.4-0.7-1-0.9-1.2c-0.9-1-3.1-2.1-2.8-3.3
				c0-0.2,0-0.4-0.2-0.5c-1.5-0.7-3-1.3-4.7-1.6c-0.9-0.2-4.3,0-3.6-1.2c0.2-0.4-0.2-0.7-0.6-0.6c-0.6,0.3-8.4,4-8.4,4.6
				c0-0.5-0.7-0.7-1-0.3c-1.4,2.3-2.6,4.7-3.2,7.3c-0.2,1-1.3,6.3-0.5,7.3c-0.2-0.3-0.7-0.1-0.6,0.3c0.2,1.6,0.6,2.8,1.3,4.2
				C35.8,64.2,36.2,64,36.1,63.8L36.1,63.8z"/>
		</g>
	</g>
	<g>
		<g>
			<path class="st12" d="M66.9,58.5c3.7,0.8,7.6,1,11.3,0.3c1.9-0.3,3.6-1,5.5-1.2c2.2-0.2,4.1,0.1,6.2-0.4c0,0,0-0.1,0-0.1
				c-3.7,0.1-6.2-0.6-9.7,0.3c-4.5,1.2-8.8,0.5-13.3,0.8C66.8,58.3,66.8,58.5,66.9,58.5L66.9,58.5z"/>
		</g>
	</g>
	<g>
		<g>
			<path class="st12" d="M94.1,49.1c-1.3,3-4.2,5.4-4.5,8.7c-0.2,3,3,5.8,5,7.7c0.1,0.1,0.2,0,0.1-0.1c-1.9-2.6-4.6-6.2-3.6-9.6
				c0.7-2.3,2.5-4.2,3.2-6.6C94.4,49.1,94.2,49,94.1,49.1L94.1,49.1z"/>
		</g>
	</g>
	<g>
		<g>
			<path class="st12" d="M91.9,139.3c0.8,1.2,1.1,2.8-0.1,3.8c-0.3,0.3,0,0.8,0.4,0.6c1.6-0.5,1.1-4-0.2-4.6
				C92,139.1,91.9,139.2,91.9,139.3L91.9,139.3z"/>
		</g>
	</g>
	<g>
		<g>
			<path class="st12" d="M96.3,138.8c1,0.9,1.8,2.6,0.8,3.7c-0.2,0.2,0.1,0.6,0.3,0.5c1.4-0.8,0.3-3.9-1-4.3
				C96.3,138.6,96.2,138.7,96.3,138.8L96.3,138.8z"/>
		</g>
	</g>
	<g>
		<g>
			<path class="st12" d="M107.4,135.5c0.5,0.5,1.1,1,1.3,1.7c0.2,0.7-0.1,1.7-1,1.7c-0.5,0-0.5,0.8,0,0.8c1,0,1.7-0.9,1.7-1.8
				c0-1.1-0.9-2.1-1.8-2.6C107.5,135.2,107.3,135.4,107.4,135.5L107.4,135.5z"/>
		</g>
	</g>
	<g>
		<g>
			<path class="st12" d="M45.3,130.3c0.3,0.5,0.9,0.8,1.2,1.4c0.3,0.5,0.9,2.3-0.1,2.4c-0.7,0.1-0.6,0.9,0,1
				c1.4,0.2,1.5-1.5,1.1-2.5C47.3,131.8,46.3,130.3,45.3,130.3C45.3,130.3,45.3,130.3,45.3,130.3L45.3,130.3z"/>
		</g>
	</g>
	<g>
		<g>
			<path class="st12" d="M26.1,134.9c0.7,0.9,1.6,2.4,0.4,3.4c-0.4,0.3,0.1,1.1,0.6,0.7c1.8-1.2,0.3-3.2-0.8-4.3
				C26.2,134.7,26.1,134.8,26.1,134.9L26.1,134.9z"/>
		</g>
	</g>
	<g>
		<g>
			<path class="st12" d="M24.1,138.7c1,0.6,2.3,0.5,3.4,0.1c0.3-0.2,0.1-0.7-0.3-0.6c-0.5,0.2-1,0.5-1.5,0.5c-0.5,0-1-0.2-1.5-0.2
				C24,138.5,24,138.7,24.1,138.7L24.1,138.7z"/>
		</g>
	</g>
	<g>
		<g>
			<path class="st12" d="M27.4,138.6c1.1,0.5,2.5,0.5,3.7,0.4c0.7-0.1,2.3-0.6,1.6-1.6c-0.1-0.1-0.2-0.1-0.3,0c-1,1.1-3.4,1-4.8,0.8
				C27.3,138.1,27.1,138.5,27.4,138.6L27.4,138.6z"/>
		</g>
	</g>
	<g>
		<g>
			<path class="st12" d="M42.5,134.3c1,0.1,1.9,0.4,2.9,0.6c0.8,0.2,1.5,0,2.3,0c1.2-0.1,2.8,0.5,3.5-0.8c0.2-0.3-0.2-0.6-0.4-0.4
				c-0.9,0.4-1.6,0.4-2.5,0.4c-0.8,0-1.6,0.2-2.4,0.1c-1.2-0.1-2.3-0.6-3.4-0.1C42.3,134.1,42.3,134.3,42.5,134.3L42.5,134.3z"/>
		</g>
	</g>
	<g>
		<g>
			<path class="st12" d="M90.5,143c0.8,0.8,1.2,0.3,2.2,0.5c1.3,0.2,2.2,0.8,3.7,0.6c0.5-0.1,0.8-0.3,1.3-0.4
				c0.3-0.1,0.5-0.1,0.9-0.2c0.9-0.1,1.4-0.6,1.5-1.5c0-0.4-0.6-0.5-0.8-0.2c-0.4,0.6-1,0.6-1.7,0.6c-0.2,0-0.4,0.1-0.5,0.3
				c-1,1.6-3.2,0.1-4.4,0c-0.7-0.1-1.2,0.5-2,0.1C90.5,142.6,90.4,142.9,90.5,143L90.5,143z"/>
		</g>
	</g>
	<g>
		<g>
			<path class="st12" d="M104.2,139.1c0.8,0.3,1.7,0.5,2.6,0.6c0.6,0.1,1.2,0.2,1.7-0.3c0.2-0.2,0.2-0.5,0-0.7c0,0,0,0-0.1-0.1
				c-0.1-0.1-0.3-0.1-0.5-0.1c-0.3,0.1-0.4,0.2-0.7,0.2c-0.3,0-0.6,0-0.9,0c-0.7,0-1.4,0-2.1-0.1C104,138.7,104,139,104.2,139.1
				L104.2,139.1z"/>
		</g>
	</g>
	<g>
		<g>
			<path class="st12" d="M108.7,138.8c0.9,0.4,2.1,0.7,3,0.8c0.7,0,1.4-0.2,1.6-0.9c0.2-0.6-0.6-0.9-1-0.4c-0.3,0.4-1.3,0.2-1.7,0.2
				c-0.7,0-1.3-0.1-2,0C108.6,138.6,108.5,138.8,108.7,138.8L108.7,138.8z"/>
		</g>
	</g>
	<g>
		<g>
			<path class="st12" d="M107.8,45.7c0.7-0.7,1.4-1,2.4-1c0.5,0,0.9,0.1,1.3,0.5c0.2,0.2,0.3,0.5,0.6,0.7c0.1,0.1,0.3,0,0.3-0.1
				c0.1-0.9-1-1.6-1.8-1.7C109.4,44.1,108.4,44.8,107.8,45.7C107.7,45.7,107.8,45.8,107.8,45.7L107.8,45.7z"/>
		</g>
	</g>
	<g>
		<g>
			<path class="st12" d="M122.3,45.4c0.1-1.9-3.1-1.9-3.1-0.1c0,0.2,0.3,0.3,0.4,0.1c0.3-0.5,0.5-0.9,1-1c0.7-0.1,1.4,0.2,1.5,1
				C122.1,45.5,122.3,45.5,122.3,45.4L122.3,45.4z"/>
		</g>
	</g>
	<g>
		<g>
			<path class="st12" d="M97.1,41.7c-0.6-2.8-0.5-6.8,1.1-9.3c2.6-3.9,5.5,2.6,6.7,4.4c0.1,0.1,0.2,0.1,0.2-0.1
				c-0.1-1.9-1.5-3.6-2.8-4.8c-0.9-0.8-2.3-2.2-3.5-1.5c-1.4,0.7-2.2,3.7-2.5,5c-0.4,2.1-0.2,4.3,0.5,6.4
				C96.9,41.9,97.1,41.8,97.1,41.7L97.1,41.7z"/>
		</g>
	</g>
	<g>
		<g>
			<path class="st12" d="M119.1,36c0.7-1.1,1.4-0.9,2.3-1.6c1.7-1.2,3-2.9,4.9-3.9c3.3-1.8,2.3,3.3,1.9,4.9
				c-0.6,2.4-1.5,4.6-1.3,7.1c0,0.2,0.3,0.2,0.3,0c0.5-2.8,1.6-5.4,2-8.3c0.2-1.1,0.6-3.8-0.5-4.7c-0.8-0.6-1.9,0-2.7,0.3
				c-0.9,0.4-1.7,1-2.5,1.6c-0.6,0.5-2.5,3-3.3,2.7c-0.1,0-0.2,0-0.2,0.1c-0.5,0.5-0.8,0.9-1.1,1.6C118.8,36,119,36.1,119.1,36
				L119.1,36z"/>
		</g>
	</g>
	<g>
		<g>
			<path class="st12" d="M127.1,42.6c0.2,0.4,2,4.3,2,4.3c-0.2-0.1-0.3,0.1-0.3,0.3c0,1,0.3,2.1,0.7,3c-0.2-0.2-0.5-0.1-0.5,0.1
				c-0.1,0.2-1.3,3.9-1.5,3.7c-0.1-0.1-0.4-0.1-0.4,0.1c-1.5,2.6-3.3,4.9-5.4,7c-0.1,0.1,0,0.2,0.1,0.1c0.7-0.5,6-5.8,5.6-6.3
				c0.1,0.2,0.4,0.2,0.5,0c0.2-0.5,1.9-3.5,1.5-3.9c0.2,0.2,0.5,0.1,0.5-0.2c0-0.4-0.1-3.1-0.4-3.2c0.1,0,0.3-0.1,0.3-0.3
				c-0.7-1.7-1.4-3.2-2.4-4.7C127.2,42.4,127,42.5,127.1,42.6L127.1,42.6z"/>
		</g>
	</g>
	<g>
		<g>
			<path class="st12" d="M105.1,35.6c1.7-1,5.2-1.1,7.2-1c2.4,0.2,5.7,0.8,7.6,2.2c0.2,0.1,0.4-0.2,0.2-0.3c-1.7-1.9-5-2.3-7.4-2.5
				c-2.3-0.3-5.9,0-7.9,1.4C104.7,35.4,104.9,35.7,105.1,35.6L105.1,35.6z"/>
		</g>
	</g>
	<g>
		<g>
			<path class="st12" d="M96.7,41c-1.1,1.4-1.9,2.9-2.7,4.5c-0.1,0.2,0.1,0.3,0.2,0.3c0.1,0-0.7,2.6-0.8,2.9
				c-0.1,0.3,0.2,0.5,0.4,0.3c-0.5,0.3,0.5,4.4,0.6,4.8c0.1,0.2,0.3,0.3,0.5,0.1c0.1-0.1,2,3.5,2.2,3.8c0.8,1.3,1.4,2.1,2.5,3.2
				c0.1,0.1,0.2,0,0.2-0.1c-1.8-2.5-3.2-4.7-4.3-7.6c-0.1-0.2-0.3-0.3-0.5-0.1c-0.2,0.2-0.5-4-0.5-4.7c0-0.2-0.3-0.4-0.5-0.3
				c0.3-0.9,0.6-1.7,1.1-2.5c0.1-0.2-0.1-0.4-0.2-0.3c-0.7,0.1,1.5-3.6,1.9-4.2C96.8,41,96.7,40.9,96.7,41L96.7,41z"/>
		</g>
	</g>
	<g>
		<g>
			<path class="st12" d="M119.9,54.8c-0.9,2.3-6,1.2-7.7,0.6c-1.1-0.4-2-1.1-3.1-0.5c-0.1,0.1,0,0.2,0.1,0.2
				c1.3-0.4,3.3,1.2,4.7,1.4c1,0.2,2.1,0.2,3.1,0.1C118.2,56.4,119.8,56.2,119.9,54.8C120,54.8,119.9,54.8,119.9,54.8L119.9,54.8z"
				/>
		</g>
	</g>
	<g>
		<g>
			<path class="st12" d="M119.9,54.9c0.2,0.9,0.5,1.6,1.4,1.7c0.8,0.1,1.7-0.3,1.9-1.1c0-0.1-0.1-0.1-0.1-0.1
				c-0.5,0.6-0.9,0.7-1.6,0.6c-0.8-0.1-1.2-0.5-1.4-1.2C120.1,54.7,119.9,54.8,119.9,54.9L119.9,54.9z"/>
		</g>
	</g>
	<g>
		<g>
			<path class="st12" d="M122.4,49.1c0.6,1,1.4,2.1,1.3,3.3c-0.1,1.2-0.4,2.7-1.1,3.6c-0.1,0.1,0.1,0.2,0.1,0.1
				c1-0.8,1.3-2.5,1.3-3.7C124.1,51.2,123.2,50,122.4,49.1C122.4,49.1,122.4,49.1,122.4,49.1L122.4,49.1z"/>
		</g>
	</g>
	<g>
		<g>
			<path class="st12" d="M116.8,51.3c-0.4,1,1.2,1.1,1.8,1.1c1,0,0.9-1.5,0-1.3c-0.2,0-0.3,0.4-0.1,0.5c0.2,0.1,0.1,0.3-0.1,0.3
				c-0.1,0-0.4,0-0.5,0c-0.3,0-1.2,0-1-0.6C117,51.2,116.9,51.2,116.8,51.3L116.8,51.3z"/>
		</g>
	</g>
	<g>
		<g>
			<path class="st12" d="M122.4,51.8c-0.2-0.1-0.1-0.1-0.3-0.1c-0.1,0-0.2,0-0.3,0c-0.2,0-0.2-0.1,0-0.2c0.2,0,0.3-0.2,0.2-0.4
				c-0.4-0.6-1,0-0.9,0.6c0,0.2,0.2,0.4,0.4,0.4c0.2,0,0.4-0.1,0.6-0.2C122.2,52,122.3,52,122.4,51.8
				C122.5,51.8,122.5,51.8,122.4,51.8L122.4,51.8z"/>
		</g>
	</g>
	<g>
		<g>
			<path class="st12" d="M110.9,55.3c0.7,1.8,1.8,3.1,2.6,4.7c0.8,1.6,0.6,3.2,1.7,4.8c1.2,1.7,3.4,3.3,5.6,2.4
				c2.2-0.9,2-3.4,1.2-5.3c-0.4-0.9-1.1-1.5-1.5-2.4c-0.7-1.3-0.2-2.7-0.6-4c-0.1-0.3-0.5-0.1-0.4,0.2c0.7,1.4-0.2,3,0.6,4.2
				c0.3,0.5,1,0.9,1.3,1.4c1.4,2.1,1.2,5.7-2,5.7c-1.6,0-3.7-1.3-4.3-2.9c-0.4-1-0.1-2.2-0.4-3.1c-0.4-0.9-1.1-1.6-1.7-2.4
				c-0.7-1.1-1.3-2.2-1.9-3.3C111,55.2,110.8,55.2,110.9,55.3L110.9,55.3z"/>
		</g>
	</g>
	<g>
		<g>
			<path class="st12" d="M112.4,48.7c-1.1,1.6-2,3.6-0.6,5.4c0.1,0.1,0.2,0,0.1-0.1c-0.5-0.8-0.6-2-0.5-2.9
				C111.5,50.3,112.1,49.5,112.4,48.7C112.4,48.7,112.4,48.7,112.4,48.7L112.4,48.7z"/>
		</g>
	</g>
	<g>
		<g>
			<path class="st12" d="M116.1,56.6c0.4,1.3,1.2,2.5,1.6,3.9c0.6,1.7,0.9,3.3,1,5.1c0,0,0.1,0,0.1,0c0-1.5-0.2-3.1-0.7-4.5
				C117.6,59.5,116.7,58.1,116.1,56.6C116.2,56.5,116.1,56.5,116.1,56.6L116.1,56.6z"/>
		</g>
	</g>
	<g>
		<g>
			<path class="st12" d="M97.8,100.9c-1.3,3.9-2.2,7.8-3.2,11.7c-0.4,1.5-0.9,3-1,4.6c-0.1,1.9,0.4,3.8,0.2,5.7
				c-0.4,3.6-1.8,6.5-0.5,10.2c0.4,1.1,0.9,2.1,1.7,3c1.6,1.9,4.4,2.9,4.4,5.8c0,0.4,0.6,0.4,0.6,0c0-2.8-2.4-3.8-4-5.6
				c-3.4-3.7-1.8-8.9-1.3-13.3c0.2-1.6-0.1-3.3,0.1-4.9c0.2-1.8,0.5-3.6,0.7-5.4c0.6-4,1.5-7.9,2.4-11.9
				C97.9,100.9,97.8,100.8,97.8,100.9L97.8,100.9z"/>
		</g>
	</g>
</g>
</svg>
