<?xml version="1.0" encoding="utf-8"?>
<!-- Generator: Adobe Illustrator 22.1.0, SVG Export Plug-In . SVG Version: 6.00 Build 0)  -->
<svg version="1.1" id="Card_2" xmlns="http://www.w3.org/2000/svg" xmlns:xlink="http://www.w3.org/1999/xlink" x="0px" y="0px"
	 viewBox="0 0 155.9 155.9" style="enable-background:new 0 0 155.9 155.9;" xml:space="preserve">
<style type="text/css">
	.st0{clip-path:url(#SVGID_2_);}
	.st1{fill:#FFFFFF;stroke:#010202;stroke-width:1.2;stroke-miterlimit:10;}
	.st2{fill:#DDDDDD;}
	.st3{fill:#151612;}
	.st4{fill:#7DC0D8;}
	.st5{fill:#010202;}
	.st6{fill:#FFFFFF;}
</style>
<g id="Colours_2">
	<defs>
		<path id="SVGID_1_" d="M44,116.2c0.7,1.2,2.1-0.1,3.1,0.9c1.6,1.7,0.6,2.7,0.4,3c-1.5,1.5-4,1.7-5.9,0.8c-0.5-0.2-0.9-0.2-1.4-0.4
			c-1.7-0.6-1.8-2.5-2.4-4c-0.7-2-1-4.2-1.2-6.3l-1,0.2c-1.8,1-2.3,1.6-2.6,2.5c-1.1,3-1.4,7.1-0.2,10l1.1,0.5
			c0.6,0.6,1.2,1.3,1.3,2.1c0.2,0.8-0.1,1.8-0.7,2.4c-0.9,0.7-2.9,0.9-4.5,0.7c-1.5-0.2-3.9-0.9-4-5.1c-0.1-5.1,1.1-11.7,1.6-16.8
			c-1.3,0.9-1.3,1-3.1,1.6c-1.8,0.6-3.8,1.4-4.7,3.1c-1.3-2.7-0.6-6.1,0.5-8.9c1.1-2.8,2.9-5.2,4.3-7.9c2-3.7,3.3-7.7,4.6-11.7
			c-0.2-5.8,1.7-10.9,5.6-15.2s9.5-7.1,15.3-7.5c5.7-0.4,11.4,1.2,17,2c8.4,1.1,16.9,0.1,24.7-3c-0.1-0.6,0-1.3,0.1-1.9
			c0.3-1.5,0.9-2.9,1.6-4.3c1.6-3.4,3.2-6.8,4.8-10.2c0.8-1.6,1.5-3.3,2.7-4.7c1.1-1.4,2.7-2.5,4.4-2.9c0.1-0.9,0.2-1.8,0.4-2.7
			c0.2-0.8,0.7-2,1.4-2.2c0.4-0.1,2.1,0.8,3.8,3.1c1.5-1.9,2.7-4.7,2.8-7.1c0-0.2,0.3-0.5,0.5-0.7c1.1,2,1.7,4.6,1.5,6.9
			c2.8,0.3,5.6,1.6,7.5,3.8c0.8,0.9,1.5,2,2.6,2.6c0.8,0.4,1.7,0.5,2.6,0.6c3.5,0.4,10.6,1.1,10.6,1.1c0.1,1.4-0.2,2.7-1.2,3.7
			c-0.5,1.9-1.5,4.1-3.1,5.2c-0.7,1.8-2.7,2.9-4.6,3.3c-1.9,0.3-3.9,0.1-5.9,0.1c-1.6,0.2-2.6,2.2-2.6,3.8s0.7,3.2,1.1,4.7
			c1.3,4.2,1,8.9-0.7,12.9c0.2-1-0.2-2.1-0.8-2.9c-0.5,4.2-2,9.4-3.9,13.2c-2.5,6.8-4.9,13.6-6.1,20.7c-0.9,5.3-0.9,10.7-0.8,16.1
			l0.5,4.2c0.2,1.1,3.3,0.8,5.1,2c0.8,0.5,1.7,1.8,1.3,3.5c0,0-0.4,0.8-0.8,1.2c-1.5,1.3-9.2,0.2-12.7-2.4c0.4,0.8,0.9,1.6,1.5,2.2
			c1,0.4,2.1,0.7,3,1.3c0.9,0.6,1.6,0.9,2,2l-0.1,2c-1,2.3-6.6,1.8-8.1,1.3c-2.4-0.2-4.6-1.8-5-4.4c-1.9-5.8-2-12.9-3-19
			c-0.7-4.1-1.9-10.6-1.9-14.7c-15.6,2-26.2-3.2-32.4-6.9c-0.7,2.5-2.3,5.1-4.5,6.5s-4.7,2.2-7.3,2c-1.7,2-3.7,4-5.9,5.3
			C41.9,110.6,42.5,113.7,44,116.2z"/>
	</defs>
	<clipPath id="SVGID_2_">
		<use xlink:href="#SVGID_1_"  style="overflow:visible;"/>
	</clipPath>
	<g id="Base" class="st0">
		
			<rect x="17.1" y="23.6" transform="matrix(-1 -4.490331e-11 4.490331e-11 -1 162.5223 166.6419)" class="st1" width="128.3" height="119.4"/>
		<g id="Light">
			<g>
				<path class="st2" d="M111.2,131.6c-2.2-0.5-4.1-2.1-5-4.2c-1.7-3.7,0-8,0.9-12c1.6-7.4-0.6-11.5,1.4-13.3c2.3-2,6.1-7,7.5-14.1
					c-4.3,4.1-5.9,9.9-9.8,13.7c-1.4,7.9-2.7,14.7-3,22.6c-0.1,2.1,0.9,4.9,2.3,6.5c2.2,2.5,6.1,2.4,9.5,2.1
					c0.9-0.1,1.8-0.2,2.5-0.7c0,0,0,0,0,0c0.4-0.3,1.1-1.3,0.7-1.8c-0.4-0.4-1.5,0.5-1.8,0.6C114.5,131.7,112.9,132,111.2,131.6z"/>
			</g>
			<g>
				<path class="st2" d="M123.1,50.2c1.3,0.5,2.7,1.1,4,1.6c-2.6-0.1-6.3,1.5-8.4,3.2c-2,7.8,4.9,3.6,3.3,19.6
					c2.1-2.3,3.1-4.3,4.5-7.1c2.5-5.2,8-8.8,9.4-14.4c0,0,0,0,0,0c0.8-3.3-1.7-2.8-4-3c-1.5-0.1-3-0.2-4.5-0.2
					C126.4,49.9,124,50.6,123.1,50.2z"/>
			</g>
			<g>
				<path class="st2" d="M95.1,94.5c-9,6.2-31.8,3-41.4-8c-0.6,10.3-4.7,15.8-10.2,18.7c-3.2,1.6-6.7,2.4-9.6,4.4
					c-2.6,1.8-4.6,5.1-3.7,8.1c0.9,3.2,4.5,4.8,7.8,5.5c2.8,0.6,5.7,0.8,8.5,0c2.7-0.8,5.2-2.8,6-5.6c0.4-1.3,0.4-2.7,0.8-4
					c1.1-3.6,4.8-5.7,8.5-6.2s7.4,0.2,11.1,0.5c5,0.4,10.1,0,15-1.3c0,0,0,0,0,0c2.3-0.6,4.8-1.5,5.3-4.1c0.2-1.1,0.2-2,0.5-3.1
					C93.7,98.9,94.6,94.7,95.1,94.5z"/>
			</g>
			<g>
				<path class="st2" d="M27.6,102.5C27.6,102.5,27.6,102.5,27.6,102.5c-1.5,1.6-3.4,2.7-5,4.1c-1.6,1.4-3,3.4-3,5.5
					c4-0.5,7.3-3.4,9.3-6.9s2-11.2,1.9-10.1C30.6,97.9,29.5,100.6,27.6,102.5z"/>
			</g>
		</g>
		<g id="Dark">
			<g>
				<path class="st3" d="M20.9,101.5c3.8-6.3,6.8-3.6,8.6-13.1c0.8,4.7,1.5,11.5,0.6,14.1c1.6-5.1,5.4-0.6,10.5-7.3
					c-0.4,3.4-2.1,5.3-4.9,6.6c6.9,1.3,17.4-6.4,14.4-20.6c3,3.2,6,6.4,9.7,8.8c4.1,2.7,8.7,4.2,13.3,5.7c6.8,2.3,14.2,2.5,20.8-0.4
					c-0.3,1.8-1.9,7-1.1,10c7.2-0.4,12.5-8.1,11.8-13.1c-0.4-2.8-3.8-3.3-2.2-5.6c1.3-1.9,6.9,0.9,11.1-5.1
					c-4.7,0.7-3.2-3.9-0.1-5.5c2.3-1.1,3.4-3.2,4.1-7.2c1.3-7.6-9.1-8.6-7.3-15c1.6,2.9,3.3,3.9,6.5,3.9c-3.6-2.5-3.2-4.8-3-7.2
					c0.3-2.7,2.3-5,3.9-7.2s3.1-4.8,3-7.6c1.3,0.3,3,1.3,4.3,0.8c1.3-0.5,2.1-2.2,1.8-3.5c-0.4-2-2.2-3.3-4.1-4
					c-1.9-0.7-3.9-0.8-5.8-1.5c-5.1-1.9-8.1-7.2-12.9-9.8c-5.7-3.1-13.1-1.8-18.4,2C80.3,23.4,76.8,29.1,74,35
					c-2.7,5.5-5,11.6-10,15.1c-6.4,4.4-15,3.3-22.4,5.8c-8.8,2.9-15.2,10.9-18.3,19.7C20.1,84.3,20.6,92.2,20.9,101.5z M107.6,32.3
					c0.2-0.2,0.4-0.4,0.7-0.4c0.3,0,0.5,0.2,0.7,0.4c1,0.9,2,1.9,2.7,3c0.7,1.1,1.3,2.5,1.2,3.8c0,0.6-0.1,1.2-0.5,1.6
					c-0.9,0.8-2.4,0.3-3.3-1.2c-0.2,1.5,1.1,2.8,1.9,3.6c0,0-1,0.1-1.6-0.6c0.1,1.4,1.2,1.3,0.9,3.2c-0.9,0.3-1.9-0.2-2.3-1
					c-0.5-0.8-0.5-1.8-0.5-2.7c0.1-0.9,0.2-1.8,0.2-2.8c0-1.2-0.5-2.3-0.6-3.5C106.8,34.6,106.8,33.2,107.6,32.3z"/>
			</g>
		</g>
	</g>
	<g id="Details" class="st0">
		<path class="st3" d="M121,40.8c0.6-0.8,0.9-1,1.3-1.5c0.5,0.3,0.4,0.1,1.3,1.5c0,1-0.6,1.8-1.3,1.8S121,41.8,121,40.8z"/>
		<g>
			<path class="st3" d="M137.3,40L137.3,40c0.6-0.6,1.8-0.8,2.5-0.2c0.4,0.4,0.6,0.9,0.6,1.5c0,1.4-0.7,4.3-2.6,3.5
				C136,44,136.1,41.1,137.3,40z"/>
		</g>
		<ellipse class="st4" cx="122.4" cy="40.8" rx="0.8" ry="1.3"/>
		<ellipse class="st5" cx="122.4" cy="40.9" rx="0.5" ry="0.6"/>
		<ellipse class="st6" cx="122.1" cy="40.6" rx="0.3" ry="0.4"/>
	</g>
</g>
<g id="Outlines_2">
	<g>
		<g>
			<path class="st5" d="M111.1,33.5c3.5-0.5,7-0.4,10.1,1.7c1.8,1.2,2.6,3.5,4.4,4.5c3.5,1.9,9.6,1.1,13.4,1.5c0.4,0,0.4-0.6,0-0.6
				c-3.8-0.4-8.1-0.4-11.7-1.6c-2.7-0.9-4-3.5-6.3-4.9c-3.1-1.9-6.6-2.3-10-0.9C110.9,33.3,111,33.5,111.1,33.5L111.1,33.5z"/>
		</g>
	</g>
	<g>
		<g>
			<path class="st5" d="M139,40.8c-0.2,0.7-0.2,1.4-0.4,2.1c-0.3,0.7-0.8,1.2-1,1.9c-0.1,0.3,0.2,0.5,0.5,0.4c1.3-0.6,2-3.1,1.4-4.4
				C139.3,40.6,139,40.7,139,40.8L139,40.8z"/>
		</g>
	</g>
	<g>
		<g>
			<path class="st5" d="M137.8,44.5c-0.7,1.9-1.3,3.8-3.2,4.8c-2,1.1-4,0.5-6.2,0.2c-1.9-0.3-3.7-0.4-5.4,0.7
				c-0.1,0.1,0,0.2,0.1,0.2c3.8-1.2,7.4,1.2,11.1,0c2.6-0.8,3.4-3.4,3.9-5.8C138.1,44.4,137.8,44.4,137.8,44.5L137.8,44.5z"/>
		</g>
	</g>
	<g>
		<g>
			<path class="st5" d="M134.7,49.7c-4.3,5.5-11.4,0.9-16.1,5.2c-0.1,0.1,0,0.3,0.2,0.2c3.8-2.4,7.8-0.9,11.8-1.8
				c1.9-0.5,3.7-1.5,4.2-3.5C134.9,49.7,134.8,49.6,134.7,49.7L134.7,49.7z"/>
		</g>
	</g>
	<g>
		<g>
			<path class="st5" d="M124.3,53.4c-2.4,0.4-3.1,2.5-2.9,4.8c0.2,1.7,0.9,3.4,1.3,5.1c0.8,3.8,0.6,7.7-0.8,11.3
				c-0.1,0.2,0.3,0.3,0.4,0.1c1.2-3.1,2-6,1.7-9.3C123.7,61.8,119.7,55.7,124.3,53.4C124.4,53.4,124.3,53.4,124.3,53.4L124.3,53.4z"
				/>
		</g>
	</g>
	<g>
		<g>
			<path class="st5" d="M122.1,74.6c0.2-0.9,0.3-2.6-0.7-3.1c-0.1-0.1-0.3,0-0.3,0.2c0,0.5,0.3,0.8,0.4,1.3c0.2,0.5,0.2,1,0.1,1.6
				C121.7,74.8,122.1,74.8,122.1,74.6L122.1,74.6z"/>
		</g>
	</g>
	<g>
		<g>
			<path class="st5" d="M121.1,72c-1.8,9.2-6.8,16.1-11.1,24.2c-0.1,0.2,0.2,0.6,0.4,0.3c5.4-6.9,10.1-15.7,11-24.5
				C121.4,71.9,121.1,71.8,121.1,72L121.1,72z"/>
		</g>
	</g>
	<g>
		<g>
			<path class="st5" d="M117.3,84.8c-2.9,6.6-5.4,13.6-6.5,20.7c-1,6.5-2.2,15.2,0.2,21.5c0.2,0.4,0.7,0.3,0.6-0.2
				c-3.2-14.2,2.1-28.5,5.9-41.9C117.7,84.8,117.4,84.7,117.3,84.8L117.3,84.8z"/>
		</g>
	</g>
	<g>
		<g>
			<path class="st5" d="M108.6,92.4c-2.9,7.6-4.6,15.4-5.6,23.4c-0.7,5.9-1.9,12.4,2.6,16.9c0.2,0.2,0.5-0.1,0.4-0.3
				c-4.1-6.1-2.3-14.5-1.3-21.2C105.8,104.9,107.2,98.7,108.6,92.4C108.7,92.4,108.6,92.4,108.6,92.4L108.6,92.4z"/>
		</g>
	</g>
	<g>
		<g>
			<path class="st5" d="M94.9,93.2c-3.6,6-3.1,11.5-1.7,18.1c1.7,7.7,1.6,15.7,3.7,23.4c0.2,0.6,1.1,0.4,1-0.3
				c-1.8-6.2-2.1-12.6-3.1-18.9c-1.3-7.8-2.6-14.5,0.3-22.2C95.1,93.2,94.9,93.1,94.9,93.2L94.9,93.2z"/>
		</g>
	</g>
	<g>
		<g>
			<path class="st5" d="M96.7,133c0.2,3.9,3.1,6.1,6.7,6.8c1.9,0.4,7,0.7,7.4-2.1c0-0.2-0.2-0.5-0.4-0.3c-2,1.4-4.3,1.6-6.7,1.2
				c-3.6-0.5-5.2-2.5-6.6-5.8C96.9,132.8,96.7,132.8,96.7,133L96.7,133z"/>
		</g>
	</g>
	<g>
		<g>
			<path class="st5" d="M105.5,132.5c1.3,0.6,2.8,1.2,3.8,2.2c1.2,1.2,0.7,2.5,0.2,3.9c-0.1,0.3,0.2,0.5,0.5,0.4
				c1.6-0.7,1.5-3,0.6-4.2c-1.1-1.5-3.4-2-5.1-2.5C105.4,132.2,105.4,132.4,105.5,132.5L105.5,132.5z"/>
		</g>
	</g>
	<g>
		<g>
			<path class="st5" d="M111.1,125.8c0,0.5,0.4,0.7,0.8,0.8c1.2,0.5,2.5,0.6,3.7,1.2c1.1,0.6,2.3,2.4,1.4,3.7
				c-0.4,0.6-1.5,0.5-2.2,0.9c-0.2,0.1-0.1,0.4,0.1,0.4c2.3,0.6,3.7-0.9,3.2-3.2c-0.3-1.2-1.1-2.1-2.3-2.6
				C114.4,126.6,112.1,126.9,111.1,125.8C111.1,125.8,111.1,125.8,111.1,125.8L111.1,125.8z"/>
		</g>
	</g>
	<g>
		<g>
			<path class="st5" d="M117,132c-1.8,0.2-3.6,0.8-5.5,0.7c-2.3,0-4.5-0.9-6.4-2.2c-0.3-0.2-0.6,0.3-0.4,0.5
				c3.3,2.6,8.8,3.8,12.4,1.3C117.2,132.3,117.2,132,117,132L117,132z"/>
		</g>
	</g>
	<g>
		<g>
			<path class="st5" d="M53.7,86.5c-0.1,6.4-2.6,13-7.2,17.4c-3.8,3.7-8.8,5.2-13.5,7.5c-0.2,0.1-0.1,0.4,0.2,0.4
				c6.1-2.1,11.4-3.5,15.8-8.6C53.1,98.3,54.3,92.9,53.7,86.5C53.7,86.5,53.7,86.5,53.7,86.5L53.7,86.5z"/>
		</g>
	</g>
	<g>
		<g>
			<path class="st5" d="M35.6,110.4c-2.2,0.9-3,2-3.5,4.3c-0.6,2.6-1,6,0.6,8.4c0.1,0.1,0.2,0.1,0.2-0.1c-0.3-4.5-1.2-9.4,2.8-12.5
				C35.7,110.5,35.7,110.4,35.6,110.4L35.6,110.4z"/>
		</g>
	</g>
	<g>
		<g>
			<path class="st5" d="M59.7,94.1c-1.1,2-1.7,3.9-3.4,5.5c-2.2,2-5,2.6-7.9,2.5c-0.5,0-0.5,0.7,0,0.7c4.7,0.2,11.6-3.2,12-8.5
				C60.4,94,59.8,93.9,59.7,94.1L59.7,94.1z"/>
		</g>
	</g>
	<g>
		<g>
			<path class="st5" d="M42.2,107.7c-1.3,2.7,0.2,6.3,1.5,8.7c0.1,0.3,0.6,0,0.4-0.2c-0.8-1.4-1.3-2.9-1.5-4.5
				c-0.1-1.3,0.1-2.6-0.1-3.8C42.6,107.6,42.4,107.4,42.2,107.7L42.2,107.7z"/>
		</g>
	</g>
	<g>
		<g>
			<path class="st5" d="M36.5,110.2c-0.5,2.1,0.3,4.4,0.9,6.4c0.4,1.3,0.7,3.1,2,3.9c2.3,1.4,6.3,2.1,8.1-0.4
				c0.1-0.1-0.1-0.2-0.1-0.1c-2.7,1.5-7.6,1.4-8.8-2c-0.4-1.3-0.9-2.6-1.1-3.9c-0.3-1.4-0.2-2.7-0.8-3.9
				C36.7,110.1,36.5,110.1,36.5,110.2L36.5,110.2z"/>
		</g>
	</g>
	<g>
		<g>
			<path class="st5" d="M42.8,116.1c1.1,0.7,2.8,0.2,3.9,1.1c0.8,0.7,0.9,1.6,0.3,2.4c-0.2,0.3-0.6,0.7-0.6,1.1c0,0.1,0,0.1,0.1,0.1
				c1.5,0.2,2.1-2.2,1.6-3.2c-0.4-0.9-1.1-1.4-2.1-1.5c-0.5-0.1-0.9-0.1-1.4-0.1c-0.6,0-1.2-0.1-1.8-0.1
				C42.7,116,42.7,116.1,42.8,116.1L42.8,116.1z"/>
		</g>
	</g>
	<g>
		<g>
			<path class="st5" d="M31.7,122.1c0.9,0.9,2,1.3,2.6,2.4c0.7,1.3,0.5,2.2-0.1,3.4c-0.2,0.3,0.2,0.7,0.5,0.5c1-0.6,1.2-2.1,0.8-3.2
				C34.9,123.8,33.1,122.4,31.7,122.1C31.7,122.1,31.7,122.1,31.7,122.1L31.7,122.1z"/>
		</g>
	</g>
	<g>
		<g>
			<path class="st5" d="M34.6,128c-1.7,0.2-4,0.8-5.6,0.1c-3-1.3-2.9-5.4-2.6-8.1c0.4-4.2,1.3-8.3,1.6-12.4c0-0.5-0.7-0.5-0.8,0
				c-0.5,3.9-1,7.8-1.3,11.7c-0.1,2.3-0.8,5.4,0.4,7.6c1.7,3,5.5,2.5,8.3,1.5C34.8,128.3,34.8,128,34.6,128L34.6,128z"/>
		</g>
	</g>
	<g>
		<g>
			<path class="st5" d="M92,59.1c-10.4,3-19.9,3.3-30.6,1.9c-7.7-1-15.1-1.5-22,2.6c-5.6,3.4-9.5,9-10.7,15.5
				c-1.7,8.8,5,20.5-1.3,27.9c-0.3,0.4,0.2,1,0.6,0.6c4.2-4.9,3.4-11,2.3-16.9c-1.9-10.5,0.3-21,10.2-26.9
				c9.4-5.6,18.6-1.5,28.4-0.6c8,0.7,15.9-0.4,23.2-3.9C92.3,59.2,92.2,59,92,59.1L92,59.1z"/>
		</g>
	</g>
	<g>
		<g>
			<path class="st5" d="M105.4,35.3c-5.9,1.3-7.6,7.5-9.9,12.5c-2,4.2-5.5,9.5-3,14.1c0.1,0.1,0.2,0,0.2-0.1
				c-1.8-5.2,2-9.9,4.1-14.3c2-4.3,3.8-10.1,8.7-11.9C105.7,35.5,105.6,35.2,105.4,35.3L105.4,35.3z"/>
		</g>
	</g>
	<g>
		<g>
			<path class="st5" d="M29.1,83.1c-2.7,6.4-5.7,12.4-8.7,18.6c-1.5,3.1-2.5,6.7-0.7,9.8c0,0,0.1,0,0.1,0
				c-0.8-6.3,1.6-10.5,4.7-15.7c2.4-4,3.7-8.2,4.7-12.7C29.3,83,29.1,83,29.1,83.1L29.1,83.1z"/>
		</g>
	</g>
	<g>
		<g>
			<path class="st5" d="M29.1,105.3c-2.4,3-7.7,2.5-9.4,6.2c-0.1,0.1,0.1,0.3,0.2,0.1C22.4,108.5,27.4,109.3,29.1,105.3
				C29.2,105.3,29.1,105.2,29.1,105.3L29.1,105.3z"/>
		</g>
	</g>
	<g>
		<g>
			<path class="st5" d="M116.3,32.7c0.3-2.5-0.4-4.7-1.8-6.8c-0.1-0.1-0.2,0-0.2,0.1c0.9,2.1,1.2,4.5,1.3,6.7
				C115.6,33.2,116.2,33.1,116.3,32.7L116.3,32.7z"/>
		</g>
	</g>
	<g>
		<g>
			<path class="st5" d="M114.5,26.2c0-0.6-0.6-0.3-0.8,0c-0.3,0.4-0.2,1.3-0.3,1.7c-0.1,0.5-0.2,1-0.3,1.4c-0.4,1.4-1,2.7-1.9,3.8
				c-0.2,0.3,0.3,0.6,0.5,0.4c0.8-1,1.4-2.1,1.9-3.3c0.3-0.7,0.5-1.4,0.6-2.1c0-0.2,0.1-0.4,0.1-0.6C114.2,27.6,114.3,26,114.5,26.2
				C114.5,26.3,114.5,26.3,114.5,26.2L114.5,26.2z"/>
		</g>
	</g>
	<g>
		<g>
			<path class="st5" d="M112.3,35.6c-0.7-1.4-3.2-6.7-5.6-5.2c-1.2,0.7-1.3,2.9-1.5,4.1c-0.3,2.8-0.4,6.1,0.6,8.7
				c0,0.1,0.2,0.1,0.2,0c-0.2-3.4-1.1-6.9,0.2-10.3c0.7-1.9,1.3-2,2.6-0.9c1.3,1.1,2.3,2.4,3.3,3.8
				C112.2,35.8,112.4,35.7,112.3,35.6L112.3,35.6z"/>
		</g>
	</g>
	<g>
		<g>
			<path class="st5" d="M124,40.9c-0.4-0.7-0.8-1.4-1.5-1.9c-0.1-0.1-0.4-0.1-0.5,0.1c-0.7,0.7-1.1,1.6-2.1,1.8
				c-0.2,0-0.1,0.3,0,0.3c1.1-0.1,2.1-0.8,2.7-1.7c-0.2,0-0.4,0.1-0.5,0.1C122.8,40,123.3,40.6,124,40.9C123.9,41,124,41,124,40.9
				L124,40.9z"/>
		</g>
	</g>
	<g>
		<g>
			<path class="st5" d="M104.3,139.5c1.3,0,1.7-1.8,1.5-2.8c-0.2-1.1-1.2-2.6-2.4-2.7c-0.1,0-0.1,0.1-0.1,0.2c0.3,0.3,0.7,0.5,1,0.9
				c0.3,0.4,0.5,1,0.6,1.5c0.3,1,0.3,2.2-0.7,2.8C104.2,139.4,104.2,139.5,104.3,139.5L104.3,139.5z"/>
		</g>
	</g>
	<g>
		<g>
			<path class="st5" d="M107.3,139.4c2.3-1.6,1.5-5-1.1-5.8c-0.2-0.1-0.3,0.2-0.1,0.3c1.1,0.6,1.8,1.3,1.8,2.6c0,1-0.2,1.9-0.8,2.7
				C107.1,139.4,107.2,139.5,107.3,139.4L107.3,139.4z"/>
		</g>
	</g>
	<g>
		<g>
			<path class="st5" d="M110.4,133.3c1.2,0.9,3-0.6,2.8-1.9c-0.2-1.6-2.3-2.3-3.6-2.4c-0.1,0-0.2,0.2-0.1,0.3c1,0.4,2.2,0.8,2.8,1.9
				c0.1,0.2,0.2,0.5,0.2,0.8c-0.2,1-1.3,1.1-2,1.2C110.4,133.2,110.3,133.3,110.4,133.3L110.4,133.3z"/>
		</g>
	</g>
	<g>
		<g>
			<path class="st5" d="M114.9,132.8c1-0.8,1.4-2.4,0.6-3.5c-0.6-0.8-2.2-1.3-3.2-1.4c-0.1,0-0.1,0.2,0,0.2c0.9,0.3,1.7,0.5,2.4,1.3
				c0.9,0.9,0.7,2.2,0.1,3.3C114.8,132.7,114.9,132.8,114.9,132.8L114.9,132.8z"/>
		</g>
	</g>
	<g>
		<g>
			<path class="st5" d="M29.1,123.9c0.4,1,0.4,1.9,0.2,2.9c0,0.2-0.1,0.4-0.2,0.5c-0.3,0.4-0.4,0.1-0.6,0.3
				c-0.1,0.1-0.2,0.2-0.2,0.3c0,0.3,0.2,0.4,0.4,0.4c1,0.1,1.5-0.9,1.5-1.8C30.4,125.6,29.8,124.6,29.1,123.9
				C29.2,123.8,29.1,123.8,29.1,123.9L29.1,123.9z"/>
		</g>
	</g>
	<g>
		<g>
			<path class="st5" d="M31.6,123.6c0.3,0.3,0.7,0.6,0.9,1c0.3,0.5,0.3,1.2,0.2,1.7c-0.1,0.9-0.6,1.6-1,2.3c0,0.1,0,0.2,0.1,0.2
				C34.6,128.5,34,124,31.6,123.6C31.6,123.6,31.6,123.6,31.6,123.6L31.6,123.6z"/>
		</g>
	</g>
	<g>
		<g>
			<path class="st5" d="M40.6,117.4c0.9,0.4,2.8,2.5,1.3,3.3c-0.5,0.3-0.2,1.2,0.4,1c0.8-0.3,1.3-1.4,1.1-2.2
				C43,118.2,41.6,117.6,40.6,117.4C40.6,117.3,40.6,117.3,40.6,117.4L40.6,117.4z"/>
		</g>
	</g>
	<g>
		<g>
			<path class="st5" d="M43.8,117c0.8,0.3,1.6,1,1.9,1.8c0.3,0.9-0.4,1.4-0.4,2.2c0,0.3,0.3,0.4,0.5,0.3c0.9-0.4,1-2,0.6-2.8
				C46,117.5,44.9,117.1,43.8,117C43.8,116.9,43.8,116.9,43.8,117L43.8,117z"/>
		</g>
	</g>
	<g>
		<g>
			<path class="st5" d="M138.1,42C138.1,42,138.1,42,138.1,42c-0.2,0.1-0.2,0.3-0.2,0.5c0,0.2,0.1,0.4,0.1,0.7c0,0.2-0.1,0.4,0,0.6
				c0,0.3,0.4,0.4,0.6,0.2c0.3-0.4,0.3-1.2,0.1-1.7C138.6,42.1,138.4,41.9,138.1,42C138.2,42,138.1,42,138.1,42L138.1,42z"/>
		</g>
	</g>
	<g>
		<g>
			<path class="st5" d="M92.5,100.6c-8,0.4-15.3,0.3-22.9-2.5c-5.7-2-10.7-5.2-16.1-7.9c-0.1-0.1-0.2,0.1-0.1,0.2
				c11.8,7,24.9,14.7,39.1,10.7C92.9,101.1,92.9,100.6,92.5,100.6L92.5,100.6z"/>
		</g>
	</g>
</g>
</svg>
