<?xml version="1.0" encoding="utf-8"?>
<!-- Generator: Adobe Illustrator 22.1.0, SVG Export Plug-In . SVG Version: 6.00 Build 0)  -->
<svg version="1.1" id="Card_1" xmlns="http://www.w3.org/2000/svg" xmlns:xlink="http://www.w3.org/1999/xlink" x="0px" y="0px"
	 viewBox="0 0 155.9 155.9" style="enable-background:new 0 0 155.9 155.9;" xml:space="preserve">
<style type="text/css">
	.st0{clip-path:url(#SVGID_2_);}
	.st1{fill:#3A322C;}
	.st2{fill:#474340;}
	.st3{fill:#28221E;}
	.st4{fill:#151612;}
	.st5{fill:#D98E06;}
	.st6{fill:#FFFFFF;}
	.st7{fill:#010202;}
</style>
<g id="Colours">
	<defs>
		<path id="SVGID_1_" d="M108.1,129.3c0.3,1.2,0.2,1.9,0.4,4.4c0.1,1.6-0.1,3.4,1,4.5c-1.2-1.2-2.6-3.4-2.8-5.1
			c-0.4-2.3-0.1-2.7,0.2-5C107.3,129.4,107.9,128.5,108.1,129.3z M110.5,31.2c-0.1,0.6-0.2,1.2-0.3,1.8c-0.2,1.1-0.2,2.6-0.1,3.7
			l0.4,1.6c-3.8,6-5.6,13.1-6.6,20.2c-0.2,1.8-0.5,3.6-1.4,5.1c-2,3.1-6.2,3.8-9.9,3.8c-10.3,0-20.7-2.4-30.9-0.6
			c-5.5,1-10.8,3.2-15.4,6.5c-5.7,4-10.3,9.7-16.9,12c-1.5,0.5-3.1,0.9-4.7,0.7c-3.2-0.3-6-2.7-6.9-5.8c-0.9-3.1,0.4-6.6,2.9-8.5
			c-2.5,0.2-4.2,2.1-4.9,4.5c-0.7,2.4-0.2,5,0.9,7.2c0.5,1,1.2,2,2.1,2.7c0.7,0.5,1.5,0.9,2.3,1.2c5.8,2.2,12.2,1.5,17.3-2.1
			c-0.6,1.8-0.6,4-0.6,5.9c-0.2,10.4-3.4,20.4-9.6,28.8c-0.9,1.2-3.1,2.7-2.5,5.3c0.6,4.6,0.6,7.7-0.4,12.2
			c-0.5,2.3-0.9,4.2-0.5,6.3c0,0.6,0.7,1.1,1.3,1.4c0.6,0.2,1.2,0.3,1.9,0.3c0.4,0,1.1,0,1.5-0.2c1.2,0.5,1.6,0.8,2.8,0.5
			c0.7-0.1,1.3-0.4,1.9-0.6l0,0c0.3-1.7-1.2-3.2-2.5-4.4c-0.5-0.4-1-0.9-1.4-1.4c-0.4-0.6-0.5-1.3-0.7-2c-1-5.7,1.6-11.4,5-16
			s7.7-8.6,10.9-13.4c1.8-2.7,2.3-4,4-6.8c0,4.9-2.6,9.4-5.7,13.1c-1,1.3-2.2,2.8-1.8,4.4c-0.1,1.3,0.6,2,0.8,3.9
			c0.1,1.3,0.1,2.6,0.2,3.9c0.1,1.1,0.4,2.1,0.8,3.2c0.7,2.1,1.5,4.3,2.8,6.1c0.3,0.4,0.6,0.5,1.8,0.9s2.5,0.3,3.8,0
			c1.1,0.4,2.5-0.1,3.4-0.4l0.1-0.1c-0.7-2.3-3-3.6-5.2-4.4c-0.4-0.2-0.9-0.3-1.2-0.6c-0.3-0.3-0.5-0.7-0.7-1.1
			c-1.2-3.2-1.6-5.4-1-8.3c2.2-5.7,7.9-9.2,11.3-14.2c3.2-4.7,5-13.7,5.1-16.4c0.3-0.2,8.1,1.5,11.4,2.9c4,1.7,7.5,4,11.4,5.9
			c3.8,1.9,8.1,3.3,12.4,2.8c0.1,1.2,0.6,2.1,0.9,3.3c0.3,1.3,0.4,2.7,0.4,4.1c0.3,7.5,0.2,13.1-0.5,20.6c-0.2,1.3,0.4,0.8,1.3,1.3
			c0.6,0.3,0.8,5.6,0.9,7.1s0.5,3,1.5,4.1l1,0.3c1.2,0.5,2.2,0.2,3.5-0.2c0.7,0.6,1.6,0.5,2.4,0.6c0.9,0.1,1.8,0,2.7-0.1l0-0.1
			c0.4-1-0.2-2.8-1.3-3.6c0.8,0.5,1.8,0.6,2.7,0.4c0.9,0.4,1.8,0.3,2.8,0.3c0.6,0,1.3,0,1.9-0.2l0.1-0.1c0.5-1.3-0.4-2.7-1.6-3.4
			s-2.5-1.2-3.5-2.1c-1.3-1.2-1.9-3.1-1.9-4.9s0.3-3.6,0.5-5.4c0.4-3.6-0.1-7.2,0.1-10.9c0.1-1.8,0.3-3.6,0.5-5.4
			c0.3-2.1,0.5-4.2,0.8-6.3c0.2-1.4,0.4-2.9,0.9-4.3c0.6-1.5,1.6-2.9,2.1-4.5c0.5-1.6,1.4-4.8,1.4-4.8c1.2-2.5,1.9-4.6,1.8-5.4
			c-0.1-1.3-0.6-2.5-0.8-3.7c-0.4-3.1,1.3-6.1,2-9.2c0.9-4,0-8.1,0-12.2c0-1.9,0.1-4,1.2-5.6c1-1.4,2.5-2.3,4.1-3
			c2.8-1.3,5.7-2.2,8.8-2.7c1.3-0.6,2.8-1.8,3.6-3c1.3-1.8,2-4.1,2-6.4c-2-0.3-4.1-0.5-6.1-0.5c-1.6,0.1-3.1,0.3-4.6,0.2
			s-3.2-0.6-4.1-1.8c-1.3-1.5-3-2-5-2.1c-2-0.2-4.3,0.4-6.3,0.8c-1.1-0.8-1.3-1.7-1.8-3.1c-0.4-1.4-0.6-2.8-1.1-4.2
			c-0.5-1.4-1.5-2.7-2.8-3.3C110.6,26,110.8,28.7,110.5,31.2z"/>
	</defs>
	<clipPath id="SVGID_2_">
		<use xlink:href="#SVGID_1_"  style="overflow:visible;"/>
	</clipPath>
	<g id="Base_1_" class="st0">
		
			<rect x="12.3" y="22.4" transform="matrix(-1 -4.489354e-11 4.489354e-11 -1 157.1785 170.3342)" class="st1" width="132.5" height="125.5"/>
		<g id="Light_1_">
			<g>
				<path class="st2" d="M111.3,49.4L111.3,49.4c-1,2.5-3.3,4.3-4.2,6.9c-0.9,2.6-0.1,5.4,0.3,8.1c0.4,2.7,0.3,4.7-1.9,6.3
					c-1.9,1.3-4.5,1.1-6.3,2.5c-2.1,1.7-2.3,3.7-4.6,5.1c-3.1,1.9-15.9,5.7-18.6,3.3c-2.1-1.9-0.2-5.3-1.9-6.9
					c-7.2-6.5-22.6,0.4-24.8,1.7c-2.2,1.3-3.9,3.7-3.5,6.2c0.5,3.5,4.8,6,4.1,9.5c-0.6,2.9-4.4,4.1-5.6,6.8
					c-0.8,1.8-0.4,3.8-0.7,5.8c-1.2,8.3-13.5,10.5-16.3,18.4c-1.2,3.2-0.5,6.8,0.3,10.2c0.5,2.3,1.1,4.8,2.8,6.4
					c1.1,1.1,2.7,1.9,3.3,3.3c0.9,2.1-0.8,4.5-3,5.2s-4.5,0-6.5-0.9c-3.2-1.4-6.5-3.6-7.3-7c-0.7-3.1,0.8-6.2,2.2-9.1
					c3.9-7.6,7.9-15.2,11.8-22.8c4.2-8.1,8.5-16.7,8.3-25.8c-3,2-6.2,3.8-9.7,4.5c-3.5,0.7-7.5,0-10.1-2.4s-3.5-6.9-1.4-9.8
					c1-1.3,2.4-2.2,3.8-3.1c23.6-14.4,48.4-29.3,76-31.3c0.8-0.1,1.6-0.1,2.3-0.6c0.8-0.6,1.2-1.6,1.4-2.6c1.3-6-1.1-13.3,3.2-17.6
					c1.9-1.9,4.8-2.6,7.5-2.7c7.6-0.3,14.7,3.4,21.2,7.3c3.7,2.2,7.3,4.7,9.7,8.2c2.4,3.5,3.5,9.2-0.2,11.3
					c-4.5,2.6-12.4,0-15.1-3.6c-0.7-1-2.1-2.3-3.3-2.3c-1.3,0-2.5,0.8-3.8,0.9c-2.8,0.2-6.5-5-7-7.7s1.7-3.5,0.6-6s-4.8-4.2-6.7-2.2
					c-0.7,0.8-0.9,1.9-1.1,2.9c-0.6,4-0.9,10.1,1,13.8c0.8,1.5,2.5,2.3,3.3,3.8C111.8,45.3,112.1,47.5,111.3,49.4z"/>
			</g>
		</g>
		<g id="Dark_1_">
			<g>
				<path class="st3" d="M101.7,94c-1.5-2.2-2.8-5.5-2.4-8.1c-2.1,1.5-5.2,3.6-6.3,1.2c-0.5-1-0.7-2.5-1.8-2.7
					c-0.5-0.1-1,0.2-1.4,0.4c-4.6,2.4-9.9,2.7-15,2.6c-4.2,0-8.5-0.3-12.4-1.9c-3.9-1.6-7.3-4.8-8.3-8.9
					c-0.1,5.9,4.6,11.6,10.5,12.6c-6.9,1.2-13.2,5.8-16.3,12.1c-1.2,2.5-2,5.2-3.3,7.7c-1.3,2.5-3.2,4.8-5.9,5.7
					c-1.3,0.4-2.8,0.4-3.9,1.2c-1.7,1-2.4,3.2-2.9,5.2c-0.8,3.1-1.6,6.1-2.3,9.2c-0.3,1.3-0.3,3.2,1,3.4c0.4,0.1,0.9-0.1,1.2-0.3
					c3-1.7,3.8-5.4,4.9-8.7c2.3-6.9,6.7-13,12.6-17.3c0.8,3.2-1.4,6.3-2.8,9.3c-2.6,5.7-2.5,12.5,0.2,18.1c1.4-2,1.5-4.5,2.2-6.8
					c0.9-3,2.7-5.7,4.6-8.3c2.7-3.8,5.4-7.6,8-11.4c1.4-2,2.9-4.1,5.1-5.3c2.3-1.3,5.2-1.4,7.8-1.2c3.8,0.3,7.7,1.3,10.8,3.5
					c9.9,7.1,8.9,23.7,19,30.4c0.4-2.3,0.8-4.7,1.2-7c0.1-0.5,0.2-1,0.6-1.3c0.5-0.3,1-0.1,1.5-0.1c1.7-0.2,2.1-2.5,2.1-4.2
					c0-19.6,16.1-36.7,15.2-56.3c-0.2-4.1-0.9-8.7,1.9-11.7c1.1-1.2,2.6-1.9,4-2.8c2.3-1.5,4.2-3.7,5.5-6.2
					c-2.3,0.8-5.3,0.9-7.3-0.4c-3.2-2.1,0.6-3.9,0.2-6c-0.7-4-3.8-5.3-4.9-4.4c-2.4,1.9,0.5,5.1,0.7,7.5c0,0.7,0.1,1.5-0.5,1.8
					c-0.8,0.4-1.5-0.6-2.1-1.3c-1.1-1.5-3.2-2.3-5-1.9c-0.7,0.2-1.4,0.5-2.2,0.6c-2.2,0.2-0.4-1.5-0.8-3.7c-0.5-2.1-2.5-2.9-2.4-5.1
					c0.1-2.2-0.9-8.1-2.6-9.5c-0.3,4.3-1.1,10.4-1.4,14.6c-0.1,1-0.2,2.1,0.2,3.1c0.6,1.5,2.1,2.5,2.8,3.9c2,3.9-2.6,8.2-2.3,12.5
					c0.2,3.5,3.5,6,5.5,8.9c2.4,3.6,2.8,8.1,3.2,12.4c0.3,3,0.5,6-0.3,8.9c-0.6,2-1.6,3.8-2.7,5.6c-1.3,2.2-2.6,4.5-3.9,6.7
					c-0.5,0.8-1.1,1.7-2.1,1.8c0,0,0,0,0,0c-3,0.3-1.1-3.4-1.9-4.5c-0.3-0.4-2.3-0.7-2.9-1.1C102.9,95.8,102.3,94.8,101.7,94z"/>
			</g>
		</g>
	</g>
	<g id="Details_1_" class="st0">
		<g>
			<path class="st4" d="M138.4,40c-0.7-0.6-1.2-1.2-1.5-2.1c-0.1-0.2-0.1-0.7,0-0.9c0.1-0.1,0.2-0.2,0.3-0.3c1.3-0.7,2.8-1,4.3-0.7
				c0.3,0.1,0.7,0.2,1,0.4c0.4,0.4,0.4,1,0.3,1.6c-0.1,0.6-0.2,1.1-0.4,1.7c0,0,0,0,0,0c-0.3,0.7-0.8,1.3-1.6,1.3
				C139.9,40.9,139.1,40.6,138.4,40z"/>
		</g>
		<g>
			<path class="st5" d="M127,36.8c0.2,0.4,0.2,1-0.2,1.3c-0.2,0.2-0.5,0.2-0.8,0.2c-0.1,0-0.2,0-0.3-0.1c-0.1,0-0.2-0.1-0.3-0.2
				c-0.2-0.1-0.4-0.3-0.5-0.5c-0.1-0.2-0.1-0.4-0.1-0.6c0-0.2,0-0.4,0.1-0.5c0.1-0.2,0.3-0.4,0.5-0.4l0,0
				C126,35.7,126.7,36.2,127,36.8z"/>
		</g>
		<circle class="st6" cx="125.7" cy="36.5" r="0.4"/>
	</g>
</g>
<g id="Outlines">
	<g>
		<g>
			<path class="st7" d="M141.6,37.6c-1.1,4.7-3.6,9.4-9.2,9.4c-2.3,0-4.8-0.8-6.6,0.9c-0.1,0.1,0,0.2,0.1,0.1c4-1.2,8.2,1,12-1.4
				C140.8,44.6,142.1,41,141.6,37.6C141.6,37.5,141.6,37.5,141.6,37.6L141.6,37.6z"/>
		</g>
	</g>
	<g>
		<g>
			<path class="st7" d="M136.1,46.8c-4.2,0.6-10.7,1.7-13.4,5.5c-2.9,4-0.5,9.5-0.6,13.9c0,3.9-1.8,6.6-2.5,10.3
				c-0.4,2.2,0.1,3.7,0.4,5.9c0.6,5.5-4.1,11.3-7,15.5c-0.1,0.1,0.1,0.3,0.2,0.2c3-2.7,5.3-6.6,6.9-10.3c1.8-4,0.3-5.3,0.4-9.5
				c0.1-2.6,1.3-5.1,1.8-7.6c0.5-2.9,0.1-5.8,0.1-8.7c0-4.4,0.4-9,4.5-11.4c2.8-1.7,6.1-2.6,9.3-3.3C136.3,47,136.2,46.8,136.1,46.8
				L136.1,46.8z"/>
		</g>
	</g>
	<g>
		<g>
			<path class="st7" d="M111.9,139.8c-0.7-1.4-2.3-1.8-2.7-3.5c-0.4-1.6-0.2-3.3-0.3-5c0-0.6,0-1.7-0.3-2.2
				c-0.4-0.6-1.1-0.4-1.5-1.1c-0.1-0.2-0.4-0.1-0.3,0.1c0.3,0.8,0.8,1,1.1,1.7c0.5,1.2,0.2,2.9,0.3,4.1c0.1,1.1,0.2,2.2,0.8,3.2
				C109.6,138.4,111.1,138.7,111.9,139.8C111.9,139.9,112,139.8,111.9,139.8L111.9,139.8z"/>
		</g>
	</g>
	<g>
		<g>
			<path class="st7" d="M112,99.5c-4.2,7.7-4.5,17.1-5.5,25.6c-0.4,3.4-1.1,7.3,0.4,10.6c1.4,3,6.5,4.6,6.3,8.2c0,0.2,0.2,0.2,0.3,0
				c0.3-2.4-0.4-3.6-2.1-5.1c-4.9-4.5-4.6-8.2-3.7-14.4C108.9,116.1,109,107.3,112,99.5C112.1,99.5,112,99.5,112,99.5L112,99.5z"/>
		</g>
	</g>
	<g>
		<g>
			<path class="st7" d="M118.9,88.8c-4.6,7.9-5.8,17.2-6.2,26.2c-0.1,2.7,0,5.4-0.1,8.2c-0.1,2.8-0.9,5.8-0.4,8.5
				c0.2,1,0.5,2.1,1.1,2.9c1.5,2.2,6,3.1,6.1,6.2c0,0.1,0.2,0.2,0.2,0c0.4-2.6-0.7-3.1-2.5-4.7c-1.6-1.4-3.4-3.5-3.9-5.8
				c-0.3-1.5,0.5-3.8,0.6-5.3c0.2-2.5,0.1-4.9,0-7.3c-0.2-4.9,0.6-9.7,1.3-14.6c0.4-3,1.4-5.2,2.3-7.9c0.7-2.1,0.8-4.4,1.7-6.4
				C119.1,88.8,119,88.7,118.9,88.8L118.9,88.8z"/>
		</g>
	</g>
	<g>
		<g>
			<path class="st7" d="M98.4,88.5c-2.9,5-0.4,10.8,0.8,16c2,8.6,0.6,18.1,0.5,26.9c0,0.2,0.3,0.2,0.3,0c1.3-7,1.6-14.8,0.9-21.9
				c-0.3-3.1-0.8-6.3-1.3-9.3C99.1,95.8,96.4,93.5,98.4,88.5C98.5,88.5,98.5,88.5,98.4,88.5L98.4,88.5z"/>
		</g>
	</g>
	<g>
		<g>
			<path class="st7" d="M100,130.8c-0.3,0.8-0.2,0.8,0.3,1.2c1,0.9,0.9,0.1,1,1.5c0.1,0.7,0.1,1.5,0.2,2.2c0.2,2.6-0.1,5.8,2.2,7.6
				c0.1,0.1,0.1,0,0.1-0.1c-1.2-2.8-1-5.8-1.4-8.8c-0.1-0.7-0.1-1.9-0.6-2.5C101.2,131.4,100.4,131.9,100,130.8
				C100.1,130.8,100,130.8,100,130.8L100,130.8z"/>
		</g>
	</g>
	<g>
		<g>
			<path class="st7" d="M119.4,140.7c-1.6,0.1-3.2-0.1-4.7-0.6c-0.2-0.1-0.3,0.2-0.1,0.3c1.6,0.8,3.2,1.2,4.9,0.6
				C119.6,141,119.6,140.7,119.4,140.7L119.4,140.7z"/>
		</g>
	</g>
	<g>
		<g>
			<path class="st7" d="M112.8,137c0.9,1,1.2,2.3,1.5,3.5c0.1,0.4,0.8,0.4,0.8-0.1c-0.1-1.5-1-2.7-2.1-3.6
				C112.8,136.8,112.7,136.9,112.8,137L112.8,137z"/>
		</g>
	</g>
	<g>
		<g>
			<path class="st7" d="M114.7,140.7c-0.3-0.2-0.8-0.1-1.1-0.2c-0.5-0.1-1-0.2-1.4-0.4c-0.3-0.1-0.5,0.2-0.3,0.4
				c0.4,0.3,1,0.6,1.5,0.6C113.8,141.2,114.5,141.1,114.7,140.7C114.7,140.8,114.7,140.7,114.7,140.7L114.7,140.7z"/>
		</g>
	</g>
	<g>
		<g>
			<path class="st7" d="M113.3,144c-1.9-0.1-3.3-0.2-5-1.1c-0.3-0.1-0.6,0.2-0.3,0.4C109.3,144.7,111.6,144.5,113.3,144
				C113.3,144,113.3,144,113.3,144L113.3,144z"/>
		</g>
	</g>
	<g>
		<g>
			<path class="st7" d="M105.9,138.7c0.9,1.5,2.1,2.9,2.1,4.8c0,0.5,0.7,0.5,0.8,0C108.9,141.8,107.5,139.4,105.9,138.7
				C105.9,138.7,105.9,138.7,105.9,138.7L105.9,138.7z"/>
		</g>
	</g>
	<g>
		<g>
			<path class="st7" d="M108.4,143.7c-1.8-0.2-4,0.2-5.4-1.3c-0.1-0.1-0.2,0-0.2,0.1c0.6,2,4,2.2,5.6,1.3
				C108.5,143.8,108.5,143.7,108.4,143.7L108.4,143.7z"/>
		</g>
	</g>
	<g>
		<g>
			<path class="st7" d="M63.9,91.1c-1,1.5-1.1,3.7-1.4,5.5c-0.8,3.6-1.7,7.2-3.6,10.3c-3.4,5.3-9.9,8.5-11.3,15
				c0,0.1,0.1,0.2,0.2,0.1c4.2-6,10.4-10.6,13.5-17.3c1.4-3.1,4.9-10.1,3-13.5C64.2,91,64,91,63.9,91.1L63.9,91.1z"/>
		</g>
	</g>
	<g>
		<g>
			<path class="st7" d="M48.4,120.2c-1.5,3-1.6,7.1-0.2,10.1c1.5,3.2,5.8,2.3,7.2,6.1c0.2,0.6,1,0.2,0.8-0.3c-1-2.2-2.6-3-4.6-4.2
				c-2.6-1.5-3-3.2-3.3-6.1C48,123.9,48.3,122,48.4,120.2C48.5,120.1,48.4,120.1,48.4,120.2L48.4,120.2z"/>
		</g>
	</g>
	<g>
		<g>
			<path class="st7" d="M49.5,133.4c0.4,0.6,1.1,0.9,1.5,1.6c0.4,0.7,0.6,1.4,1,2.1c0.2,0.5,0.9,0.1,0.8-0.3
				c-0.2-0.8-0.8-1.6-1.4-2.1C50.9,134.1,50.3,133.4,49.5,133.4C49.5,133.3,49.5,133.4,49.5,133.4L49.5,133.4z"/>
		</g>
	</g>
	<g>
		<g>
			<path class="st7" d="M66.3,90.5c-5.9-1.7-10.9,1.2-14.5,5.8c-2.1,2.7-3.3,5.8-4.9,8.7c-2,3.8-4.7,6.9-7.7,10.1
				c-3.9,4.2-8.4,9-9.7,14.7c-0.6,2.6-0.9,6.2,0,8.7c0.9,2.7,3.7,3.8,4.3,6.8c0.1,0.4,0.6,0.2,0.6-0.1c0.5-4.4-5.3-5.8-4.8-10.9
				c0.7-6.8,5.6-12.8,9.7-17.9c3.1-3.8,6-7.6,8.6-11.8c4.2-6.7,8.7-15.9,18.3-14.1C66.4,90.6,66.4,90.5,66.3,90.5L66.3,90.5z"/>
		</g>
	</g>
	<g>
		<g>
			<path class="st7" d="M49.3,101.2c-0.6,1.8-0.7,3.6-1.3,5.4c-0.7,2.1-1.9,4.1-3.1,5.8c-1.5,2.2-3.4,3.6-2.9,6.4
				c0,0.2,0.3,0.1,0.3,0c-0.1-3.3,4.4-6.9,5.8-9.7c1.3-2.4,2.5-5.1,1.8-7.8C49.7,100.9,49.4,100.9,49.3,101.2L49.3,101.2z"/>
		</g>
	</g>
	<g>
		<g>
			<path class="st7" d="M42.4,116.8c-0.4,1.3-0.4,2.1-0.3,3.6c0.2,2.1,0.2,4.3,0.4,6.4c0.3,3.2,1.9,6.8,4.1,9.1c0,0,0.1,0,0.1-0.1
				c-1.3-3-2.7-6.2-3-9.4c-0.1-1.3,0.1-2.6-0.1-3.9C43.4,120.5,42.4,118.8,42.4,116.8C42.4,116.8,42.4,116.8,42.4,116.8L42.4,116.8z
				"/>
		</g>
	</g>
	<g>
		<g>
			<path class="st7" d="M41,79.8c-1.9,3.9-3.7,6.1-3.9,10.5c-0.2,5.5-0.7,10.8-2.3,16c-1.6,5.1-4.2,9.8-7.5,14
				c-1.4,1.7-2.3,2.8-1.9,5.1c0,0.3,0.4,0.2,0.4-0.1c0.2-3.3,4.6-7.7,6.1-10.6c1.7-3.1,3-6.4,4-9.8c1-3.4,1.8-6.9,2.1-10.4
				c0.3-2.9,0-5.8,0.6-8.7C39.2,83.7,40.2,81.8,41,79.8C41.1,79.8,41,79.7,41,79.8L41,79.8z"/>
		</g>
	</g>
	<g>
		<g>
			<path class="st7" d="M25.4,124c0,3.9,0.1,8-0.3,11.9c-0.4,3-1.4,5.7-0.6,8.7c0.2,0.7,1.4,0.4,1.1-0.3c-1.1-3.8,0.3-7.5,0.8-11.3
				c0.4-3.1,0-6-0.7-9C25.7,123.8,25.4,123.8,25.4,124L25.4,124z"/>
		</g>
	</g>
	<g>
		<g>
			<path class="st7" d="M99.3,102.4c-5.8-0.5-10.3-1.6-15.4-4.3c-2.9-1.5-5.6-3.2-8.6-4.4c-3.2-1.3-7.6-3.1-11.1-2.9
				c-0.2,0-0.5,0.2-0.5,0.4c-0.1,1,0,2,0,3c0,0.4,0.6,0.5,0.7,0.1c-0.1,0.2,0.8-3.1,0-2.4c0.4-0.3,3.2,0.6,3.7,0.7
				c3.5,0.7,6.6,1.6,9.8,3.2c6.6,3.2,13.8,9.3,21.6,7.7C99.9,103.2,99.7,102.4,99.3,102.4L99.3,102.4z"/>
		</g>
	</g>
	<g>
		<g>
			<path class="st7" d="M110.3,38.4c-2.3,3.6-4.1,7.1-5.3,11.2c-1.4,5-0.7,13.1-5.4,15.9c-4.5,2.7-11.3,1.4-16.3,0.9
				c-5.4-0.5-10.9-1-16.4-0.6c-8.2,0.5-15.8,3.2-22.3,8.2c-3.9,3-7.3,6.7-11.6,9.1c-2.9,1.6-6.3,3-9.6,2.2
				c-6.7-1.4-6.7-9.4-2.7-13.4c0.1-0.1-0.1-0.3-0.2-0.2c-6.4,5.2-2.7,15.4,5.7,14.9c4.6-0.3,8.7-3.5,12.2-6.4
				c5.8-4.8,11.2-9.4,18.5-11.7c7.5-2.4,15.2-1.7,22.9-1.1c5.7,0.4,12.9,1.7,18.5-0.3c3.8-1.4,5.1-4.1,5.8-7.8
				c1.5-7.1,2.9-14.5,6.4-20.9C110.6,38.4,110.4,38.3,110.3,38.4L110.3,38.4z"/>
		</g>
	</g>
	<g>
		<g>
			<path class="st7" d="M38.7,84.9c-4.9,2.2-9.3,4.2-14.8,3.1c-3-0.6-5.4-1.8-6.9-4.5C14.6,79,15.7,73,21.1,71.9
				c0.1,0,0.1-0.2,0-0.1c-6.8,1.2-7.6,10.1-3,14.4c5.1,4.7,16,3.6,20.9-0.9C39.2,85.1,38.9,84.8,38.7,84.9L38.7,84.9z"/>
		</g>
	</g>
	<g>
		<g>
			<path class="st7" d="M29.5,145.9c0.4-0.8,0-1.8-0.4-2.6c-0.4-0.9-0.8-1.7-1.4-2.4c0,0-0.1,0-0.1,0.1c0.4,0.9,0.8,1.7,1,2.7
				c0.1,0.7,0,1.6,0.5,2.3C29.2,146.1,29.4,146.1,29.5,145.9L29.5,145.9z"/>
		</g>
	</g>
	<g>
		<g>
			<path class="st7" d="M29.2,145.4c-1-0.4-2.3-0.2-3.2-0.8c-0.4-0.2-0.7-1.3-1.3-1c-0.2,0.1-0.3,0.3-0.2,0.5c0.5,2,3.1,2,4.7,1.5
				C29.4,145.6,29.4,145.4,29.2,145.4L29.2,145.4z"/>
		</g>
	</g>
	<g>
		<g>
			<path class="st7" d="M34.1,145.1c-0.9-0.1-1.8,0.3-2.8,0.2c-1-0.1-1.8-0.8-2.8-0.8c-0.2,0-0.3,0.2-0.2,0.3
				c0.3,1.1,1.7,1.4,2.6,1.5C32.1,146.5,33.5,146.2,34.1,145.1C34.2,145.2,34.2,145.2,34.1,145.1L34.1,145.1z"/>
		</g>
	</g>
	<g>
		<g>
			<path class="st7" d="M52.3,136.5c-2.5-0.2-4.9,0.4-6.1-2.5c-0.1-0.2-0.3-0.1-0.3,0c-0.1,1.2,0.9,2.5,2,3c1.3,0.7,3.2,0.6,4.6,0
				C52.8,137,52.6,136.5,52.3,136.5L52.3,136.5z"/>
		</g>
	</g>
	<g>
		<g>
			<path class="st7" d="M55.7,136.2c-1.1,0.1-2.7,0.9-3.7,0.2c-0.2-0.2-0.5,0.1-0.5,0.4c0.4,1.6,3.6,0.5,4.4-0.2
				C56,136.4,55.9,136.1,55.7,136.2L55.7,136.2z"/>
		</g>
	</g>
	<g>
		<g>
			<path class="st7" d="M141.5,37.4c-2.3-0.6-4.5-0.8-6.9-0.7c-2.8,0.2-5.4,0.5-7.8-1.3c-0.1-0.1-0.2,0.1-0.1,0.1
				c1.2,1.6,2.7,2.1,4.7,2.1c3.4,0.1,6.7-0.1,10.1,0C141.6,37.7,141.6,37.5,141.5,37.4L141.5,37.4z"/>
		</g>
	</g>
	<g>
		<g>
			<path class="st7" d="M127.1,35.7c-2.6-3.2-7.8-3.5-11.3-1.8c-0.1,0,0,0.1,0,0.1C119.9,34.3,123.4,32.9,127.1,35.7
				C127,35.9,127.1,35.8,127.1,35.7L127.1,35.7z"/>
		</g>
	</g>
	<g>
		<g>
			<path class="st7" d="M116.2,34.5c-3.3-3-2-8.7-6.2-11c-0.2-0.1-0.3,0.2-0.1,0.3C114.1,26,111.6,32.4,116.2,34.5
				C116.2,34.6,116.2,34.6,116.2,34.5L116.2,34.5z"/>
		</g>
	</g>
	<g>
		<g>
			<path class="st7" d="M113.9,36.4c-3.2-3.6-0.9-9.2-3.9-12.9c-0.1-0.1-0.2,0-0.2,0.1C112.4,27.6,110.4,33,113.9,36.4
				C113.9,36.5,113.9,36.5,113.9,36.4L113.9,36.4z"/>
		</g>
	</g>
	<g>
		<g>
			<path class="st7" d="M140.4,39.3c-0.4,0.4-1.1-0.6-1.7-0.4c-0.1,0-0.1,0.2,0,0.2c0.4,0.1,0.6,0.3,0.8,0.6
				c0.1,0.2,0.3,0.3,0.5,0.3c0.4,0.1,0.7-0.2,0.8-0.6C140.8,39.3,140.6,39.2,140.4,39.3L140.4,39.3z"/>
		</g>
	</g>
	<g>
		<g>
			<path class="st7" d="M127.6,37c-0.6-0.4-0.9-1.2-1.6-1.4c-0.6-0.2-1.2,0.3-1.4,0.8c-0.2,0.6,0.1,1.1,0.6,1.5
				c0.5,0.4,1,0.5,1.5,0.2c0,0,0,0,0,0c-1,0.3-2.4-1.3-1.2-1.9C126.3,35.7,126.9,36.8,127.6,37C127.6,37.1,127.6,37.1,127.6,37
				L127.6,37z"/>
		</g>
	</g>
	<g>
		<g>
			<path class="st7" d="M110.6,40.4c0.3-3-0.1-6,0.2-9c0.3-2.7-0.1-5.2-0.9-7.7c-0.1-0.2-0.3-0.1-0.3,0.1c1.1,3.3,0.6,6.1,0.2,9.4
				C109.5,35.7,110.3,37.7,110.6,40.4C110.5,40.4,110.6,40.4,110.6,40.4L110.6,40.4z"/>
		</g>
	</g>
</g>
</svg>
